<?xml version="1.0"?>
<svg xmlns="http://www.w3.org/2000/svg" xmlns:xlink="http://www.w3.org/1999/xlink" version="1.1" id="Layer_1" x="0px" y="0px" viewBox="0 0 509.287 509.287" style="enable-background:new 0 0 509.287 509.287;" xml:space="preserve" width="512px" height="512px" class=""><g><circle style="fill:#1A5B8F" cx="254.644" cy="254.644" r="254.644" data-original="#886C60" class="active-path" data-old_color="#886C60"/><rect x="115.285" y="161.399" style="fill:#646B79;" width="279.057" height="273.293" data-original="#646B79"/><polygon style="fill:#F1F3F7;" points="479.449,149.87 254.644,34.246 29.838,149.87 " data-original="#F1F3F7" class=""/><polygon style="fill:#FCFCFD;" points="126.474,126.474 254.644,60.694 382.813,126.474 " data-original="#FCFCFD"/><g>
	<rect x="60.016" y="149.87" style="fill:#DEDEDF;" width="389.256" height="22.718" data-original="#DEDEDF" class=""/>
	<rect x="60.016" y="423.502" style="fill:#DEDEDF;" width="389.256" height="22.718" data-original="#DEDEDF" class=""/>
</g><g>
	<rect x="40.011" y="445.203" style="fill:#BDBDBE" width="429.266" height="22.718" data-original="#BDBDBE" class=""/>
	<path style="fill:#BDBDBE" d="M70.188,172.927v13.563c0,9.155,7.46,16.615,16.615,16.615h57.642   c9.155,0,16.615-7.46,16.615-16.615v-13.563H70.188z" data-original="#BDBDBE" class=""/>
	<path style="fill:#BDBDBE" d="M161.06,423.502v-13.563c0-9.155-7.46-16.615-16.615-16.615H86.803   c-9.155,0-16.615,7.46-16.615,16.615v13.563H161.06z" data-original="#BDBDBE" class=""/>
</g><rect x="86.124" y="203.105" style="fill:#DEDEDF;" width="59.338" height="190.559" data-original="#DEDEDF" class=""/><g>
	<path style="fill:#BDBDBE" d="M209.886,172.927v13.563c0,9.155,7.46,16.615,16.615,16.615h57.981   c9.155,0,16.615-7.46,16.615-16.615v-13.563H209.886z" data-original="#BDBDBE" class=""/>
	<path style="fill:#BDBDBE" d="M300.758,423.502v-13.563c0-9.155-7.46-16.615-16.615-16.615h-57.981   c-9.155,0-16.615,7.46-16.615,16.615v13.563H300.758z" data-original="#BDBDBE" class=""/>
</g><rect x="225.483" y="203.105" style="fill:#DEDEDF;" width="59.338" height="190.559" data-original="#DEDEDF" class=""/><g>
	<path style="fill:#BDBDBE" d="M349.245,172.927v13.563c0,9.155,7.46,16.615,16.615,16.615h57.981   c9.155,0,16.615-7.46,16.615-16.615v-13.563H349.245z" data-original="#BDBDBE" class=""/>
	<path style="fill:#BDBDBE" d="M440.117,423.502v-13.563c0-9.155-7.46-16.615-16.615-16.615H365.86   c-9.155,0-16.615,7.46-16.615,16.615v13.563H440.117z" data-original="#BDBDBE" class=""/>
</g><rect x="365.181" y="203.105" style="fill:#DEDEDF;" width="59.338" height="190.559" data-original="#DEDEDF" class=""/></g> </svg>
