<?xml version="1.0" encoding="UTF-8"?>
<!DOCTYPE svg PUBLIC "-//W3C//DTD SVG 1.1//EN" "http://www.w3.org/Graphics/SVG/1.1/DTD/svg11.dtd">
<!-- Creator: CorelDRAW X8 -->
<svg xmlns="http://www.w3.org/2000/svg" xml:space="preserve" width="100%" height="100%" version="1.1" style="shape-rendering:geometricPrecision; text-rendering:geometricPrecision; image-rendering:optimizeQuality; fill-rule:evenodd; clip-rule:evenodd"
viewBox="0 0 5638 5638"
 xmlns:xlink="http://www.w3.org/1999/xlink">
 <defs>
  <style type="text/css">
   <![CDATA[
    .fil2 {fill:none}
    .fil4 {fill:#A9ABAE}
    .fil1 {fill:#013B57}
    .fil0 {fill:#195B8F}
    .fil3 {fill:#CFDBE6}
   ]]>
  </style>
    <clipPath id="id0">
     <path d="M5638 2819c0,-1557 -1262,-2819 -2819,-2819 -1557,0 -2819,1262 -2819,2819 0,1557 1262,2819 2819,2819 1557,0 2819,-1262 2819,-2819z"/>
    </clipPath>
 </defs>
 <g id="Слой_x0020_1">
  <metadata id="CorelCorpID_0Corel-Layer"/>
  <g id="_2065099846336">
   <path class="fil0" d="M5638 2819c0,-1557 -1262,-2819 -2819,-2819 -1557,0 -2819,1262 -2819,2819 0,1557 1262,2819 2819,2819 1557,0 2819,-1262 2819,-2819z" data-original="#B5F1F4" data-old_color="#195b8f"/>
   <g style="clip-path:url(#id0)">
    <g>
     <path id="1" class="fil1" d="M3214 5631c1155,-80 2119,-856 2474,-1911l-1527 -1537 -377 -19 -324 -389 -19 329 -978 1093 -1164 519 1915 1915z" data-original="#84DBFF" data-old_color="#013b57"/>
    </g>
   </g>
   <path class="fil2" d="M5638 2819c0,-1557 -1262,-2819 -2819,-2819 -1557,0 -2819,1262 -2819,2819 0,1557 1262,2819 2819,2819 1557,0 2819,-1262 2819,-2819z"/>
   <path class="fil3" d="M4622 2945c0,-1 0,-1 0,-2 -1,-46 -38,-82 -84,-82l-22 0 -341 -659c-14,-27 -43,-45 -74,-45l-582 0 23 -176c6,-70 -16,-136 -62,-187 -45,-50 -109,-77 -179,-77l-1805 0c-45,0 -84,35 -88,80l-18 145 1028 0c67,0 119,54 118,121 -2,67 -58,121 -124,121l-343 0c0,0 0,0 0,0l-1007 0c-47,0 -87,39 -88,86 -1,47 36,85 83,85l1334 0c61,10 108,63 106,128 -2,71 -61,129 -132,130l-919 0c-48,0 -87,38 -89,86 -1,48 37,86 84,86l909 0c63,9 110,63 108,128 -2,72 -61,130 -133,130l-1042 0 0 0 -88 0c-47,0 -87,39 -88,86 -1,48 36,87 84,87l76 0 -30 309c-6,70 15,137 61,187 46,50 110,77 180,77l65 0c31,178 185,312 373,312 188,0 348,-134 389,-312l813 0c66,0 128,-25 177,-66 45,43 104,66 169,66l13 0c31,178 185,312 373,312 188,0 349,-134 389,-312l54 0c139,0 264,-113 276,-253l53 -583c0,-1 0,-1 0,-2 0,-1 0,-3 0,-4 0,-1 0,-1 0,-2zm-2702 984c-119,0 -213,-97 -210,-216 3,-119 103,-216 222,-216 119,0 213,97 210,216 -3,119 -103,216 -222,216zm1934 0c-119,0 -213,-97 -210,-216 3,-119 103,-216 222,-216 119,0 213,97 210,216 -3,119 -103,216 -222,216zm543 -404c-4,50 -50,92 -100,92l-58 0c-38,-168 -188,-293 -369,-293 -181,0 -337,125 -384,293l-18 0c-22,0 -41,-8 -55,-23 -14,-15 -20,-36 -18,-58l109 -1206 250 0 -40 439c-6,70 16,137 61,187 46,50 110,77 180,77l486 0 -44 492z"/>
   <path class="fil4" d="M3865 2329l269 0 301 609 -412 4c-57,0 -110,-23 -147,-64 -38,-41 -55,-95 -50,-153l39 -396z"/>
  </g>
 </g>
</svg>
