<?xml version="1.0"?>
<svg xmlns="http://www.w3.org/2000/svg" xmlns:xlink="http://www.w3.org/1999/xlink" version="1.1" id="Layer_1" x="0px" y="0px" viewBox="0 0 509.287 509.287" style="enable-background:new 0 0 509.287 509.287;" xml:space="preserve" width="512px" height="512px" class=""><g><circle style="fill:#1A5B8F" cx="254.644" cy="254.644" r="254.644" data-original="#4B5AA7" class="active-path" data-old_color="#4B5AA7"/><path style="fill:#F1F3F7;" d="M341.446,43.401H101.722c-6.781,0-12.207,5.425-12.207,12.207v398.75  c0,6.781,5.425,12.207,12.207,12.207h239.725c6.781,0,12.207-5.425,12.207-12.207V55.269  C353.314,48.826,348.228,43.401,341.446,43.401z" data-original="#F1F3F7" class=""/><rect x="97.653" y="79.343" style="fill:#0090FF;" width="247.862" height="333.648" data-original="#0090FF"/><g>
	<path style="fill:#DEDEDF;" d="M238.707,60.016h-34.246c-1.695,0-3.052,1.356-3.052,3.052c0,1.695,1.356,3.052,3.052,3.052h34.246   c1.695,0,3.052-1.356,3.052-3.052C241.42,61.372,240.064,60.016,238.707,60.016z" data-original="#DEDEDF"/>
	<circle style="fill:#DEDEDF;" cx="221.415" cy="438.76" r="17.632" data-original="#DEDEDF"/>
</g><path style="fill:#FBD303;" d="M437.404,125.796H244.811c-24.074,0-43.401,19.327-43.401,43.401v130.204  c0,24.074,19.327,43.401,43.401,43.401h14.241l31.534,40.689l31.534-40.689h115.624c24.074,0,43.401-19.327,43.401-43.401V169.197  C480.805,145.123,461.478,125.796,437.404,125.796z" data-original="#FBD303" class=""/><g>
	<circle style="fill:#FFFFFF" cx="270.919" cy="240.742" r="25.43" data-original="#FFFFFF" class=""/>
	<circle style="fill:#FFFFFF" cx="341.107" cy="240.742" r="25.43" data-original="#FFFFFF" class=""/>
	<circle style="fill:#FFFFFF" cx="411.295" cy="240.742" r="25.43" data-original="#FFFFFF" class=""/>
</g></g> </svg>
