<svg width="320" height="335" viewBox="0 0 320 335" xmlns="http://www.w3.org/2000/svg"><title>Group 55</title><defs><filter x="-68.8%" y="-187.5%" width="237.6%" height="475%" filterUnits="objectBoundingBox" id="a"><feGaussianBlur stdDeviation="50" in="SourceGraphic"/></filter><filter x="-54.1%" y="-147.5%" width="208.2%" height="395%" filterUnits="objectBoundingBox" id="b"><feGaussianBlur stdDeviation="39.328" in="SourceGraphic"/></filter><filter x="-48.3%" y="-147.5%" width="196.6%" height="395%" filterUnits="objectBoundingBox" id="c"><feGaussianBlur stdDeviation="39.328" in="SourceGraphic"/></filter><filter x="-45.7%" y="-124.7%" width="191.5%" height="349.3%" filterUnits="objectBoundingBox" id="d"><feGaussianBlur stdDeviation="33.245" in="SourceGraphic"/></filter><filter x="-48.3%" y="-131.6%" width="196.6%" height="363.3%" filterUnits="objectBoundingBox" id="e"><feGaussianBlur stdDeviation="35.103" in="SourceGraphic"/></filter></defs><g fill="none" fill-rule="evenodd"><path fill="#A9DAE3" filter="url(#a)" transform="rotate(45 85.403 429.093)" d="M-3.641 314.359h218v80h-218z"/><path fill="#75C9D6" filter="url(#b)" transform="rotate(45 115.403 374.093)" d="M26.359 259.359h218v80h-218z"/><path fill="#3094D1" filter="url(#c)" transform="rotate(45 174.686 310.376)" d="M72.514 195.642h244.257v80H72.514z"/><path fill="#3AA5DE" filter="url(#d)" transform="rotate(45 220.403 245.093)" d="M131.359 130.359h218v80h-218z"/><path fill="#4DB1E5" filter="url(#e)" transform="rotate(45 264.403 180.093)" d="M175.359 65.359h218v80h-218z"/></g></svg>