<?xml version="1.0" encoding="UTF-8"?>
<!DOCTYPE svg PUBLIC "-//W3C//DTD SVG 1.1//EN" "http://www.w3.org/Graphics/SVG/1.1/DTD/svg11.dtd">
<!-- Creator: CorelDRAW X8 -->
<svg xmlns="http://www.w3.org/2000/svg" xml:space="preserve" width="100%" height="100%" version="1.1" style="shape-rendering:geometricPrecision; text-rendering:geometricPrecision; image-rendering:optimizeQuality; fill-rule:evenodd; clip-rule:evenodd"
viewBox="0 0 7602 7069"
 xmlns:xlink="http://www.w3.org/1999/xlink">
 <defs>
  <style type="text/css">
   <![CDATA[
    .fil0 {fill:black}
   ]]>
  </style>
 </defs>
 <g id="Слой_x0020_1">
  <metadata id="CorelCorpID_0Corel-Layer"/>
  <path class="fil0" d="M2988 1451c116,20 230,47 343,80 336,-717 1061,-1187 1865,-1187 1136,0 2061,925 2061,2061 0,964 -671,1793 -1597,2007 7,83 10,166 10,249 0,34 -1,68 -2,102 1112,-222 1935,-1206 1934,-2358 -1,-1326 -1080,-2405 -2406,-2405 -965,0 -1830,579 -2208,1451z"/>
  <path class="fil0" d="M5949 3146l-12 -12 -4 -8 -540 -642c-44,-54 -71,-120 -74,-190l-79 -1217c-4,-33 -31,-56 -64,-56 -30,0 -55,21 -61,50 0,8 -1,16 -2,24l-88 1340 0 3c0,1 0,2 0,2l0 4c0,1 0,3 0,5 0,2 0,4 0,6l0 2 0 1c-1,41 15,80 44,109 5,5 11,10 17,14l7 5 759 636c26,22 62,23 86,-2 21,-20 25,-50 11,-74z"/>
  <path class="fil0" d="M2472 3649c-523,0 -950,426 -950,950 0,524 427,950 950,950 524,0 950,-426 950,-950 0,-524 -426,-950 -950,-950zm2316 544l-274 -53c-129,-25 -230,-109 -278,-231 -48,-122 -31,-253 47,-358l172 -235c55,-76 47,-181 -19,-247l-372 -372c-65,-64 -166,-74 -241,-23l-231 157c-109,73 -240,85 -360,33 -121,-52 -201,-157 -221,-287l-44 -287c-14,-93 -94,-161 -188,-161l-526 0c-91,0 -170,64 -187,154l-68 354c-24,126 -106,226 -224,275 -119,50 -247,36 -353,-36l-299 -202c-76,-51 -176,-41 -241,23l-372 372c-67,67 -75,171 -19,247l172 235c78,106 95,236 47,358 -48,122 -150,206 -278,231l-275 53c-89,17 -154,95 -154,186l0 527c0,93 69,173 161,187l288 45c130,20 234,100 287,220 52,120 40,252 -34,360l-156 231c-51,76 -42,177 23,241l372 373c66,66 171,74 247,19l235 -173c105,-77 236,-94 358,-46 122,48 206,149 231,277l52 275c18,89 96,154 187,154l526 0c94,0 174,-69 188,-161l31 -203c20,-130 105,-238 227,-289 122,-50 258,-34 365,44l165 121c76,56 181,48 247,-19l372 -372c64,-64 74,-165 23,-241l-157 -231c-73,-108 -85,-240 -33,-360 52,-120 157,-201 287,-220l287 -45c93,-14 162,-94 162,-187l0 -527c0,-91 -65,-169 -155,-186zm-225 550l-127 19c-257,40 -473,206 -577,444 -104,239 -79,510 67,725l68 101 -146 146 -33 -24c-215,-157 -489,-191 -735,-89 -246,102 -417,320 -457,582l-7 42 -206 0 -23 -121c-49,-255 -223,-464 -465,-559 -243,-95 -512,-60 -722,93l-104 76 -146 -146 69 -101c146,-215 171,-486 67,-725 -104,-238 -320,-404 -577,-444l-127 -19 0 -207 120 -23c256,-49 465,-223 560,-465 95,-242 60,-512 -93,-722l-76 -104 146 -145 169 114c210,143 476,170 712,72 235,-97 404,-304 452,-554l38 -200 206 0 20 126c39,258 205,473 444,577 238,104 509,79 725,-67l101 -68 146 146 -76 103c-154,210 -189,480 -94,722 95,242 305,416 560,465l121 23 0 207zm-2091 426c-314,0 -570,-256 -570,-570 0,-315 256,-570 570,-570 315,0 570,255 570,570 0,314 -255,570 -570,570z"/>
 </g>
</svg>
