<?xml version="1.0" encoding="UTF-8"?>
<!DOCTYPE svg PUBLIC "-//W3C//DTD SVG 1.1//EN" "http://www.w3.org/Graphics/SVG/1.1/DTD/svg11.dtd">
<!-- Creator: CorelDRAW X8 -->
<svg xmlns="http://www.w3.org/2000/svg" xml:space="preserve" width="100%" height="100%" version="1.1" style="shape-rendering:geometricPrecision; text-rendering:geometricPrecision; image-rendering:optimizeQuality; fill-rule:evenodd; clip-rule:evenodd"
viewBox="0 0 2180 2180"
 xmlns:xlink="http://www.w3.org/1999/xlink">
 <defs>
  <style type="text/css">
   <![CDATA[
    .fil0 {fill:#301D0F}
    .fil1 {fill:#EAECEF}
   ]]>
  </style>
 </defs>
 <g id="Слой_x0020_1">
  <metadata id="CorelCorpID_0Corel-Layer"/>
  <g id="_2405448633296">
   <circle class="fil0" cx="1090" cy="1090" r="1090"/>
   <path class="fil1" d="M994 1155l258 248c45,44 120,99 119,189 -2,85 -73,154 -173,139 -88,-13 -276,-232 -338,-294 -356,-355 -391,-316 3,-687 66,-62 262,-286 328,-300 91,-19 170,43 177,126 9,103 -70,158 -117,203 -44,45 -170,162 -248,247 -72,78 -77,65 -9,129z"/>
  </g>
 </g>
</svg>
