<svg xmlns="http://www.w3.org/2000/svg" width="19" height="19" viewBox="0 0 19 19"><defs><style>.cls-1{fill:#afbbce;fill-rule:evenodd}</style></defs><path id="avatar_none.svg" class="cls-1" d="M1330.5 941a9.685 9.685 0 0 0 6.58-2.631l.07-.073a9.508 9.508 0 1 0-6.65 2.704zm0-1.462a8.085 8.085 0 0 1-5.19-1.9 5.8 5.8 0 0 1 10.38 0 8.085 8.085 0 0 1-5.19 1.899zm0-16.076a8.015 8.015 0 0 1 8.04 8.038 8.1 8.1 0 0 1-1.76 5.042 7.3 7.3 0 0 0-12.56 0 8.1 8.1 0 0 1-1.76-5.042 8.015 8.015 0 0 1 8.04-8.039zm0 8.769c1.75 0 2.92-2.85 2.92-4.385a2.92 2.92 0 1 0-5.84 0c0 1.534 1.17 4.384 2.92 4.384zm0-5.846a1.466 1.466 0 0 1 1.46 1.461c0 1.1-.95 2.923-1.46 2.923s-1.46-1.827-1.46-2.923a1.466 1.466 0 0 1 1.46-1.462z" transform="translate(-1321 -922)"/></svg>