<?xml version="1.0" encoding="UTF-8"?>
<!DOCTYPE svg PUBLIC "-//W3C//DTD SVG 1.1//EN" "http://www.w3.org/Graphics/SVG/1.1/DTD/svg11.dtd">
<!-- Creator: CorelDRAW X8 -->
<svg xmlns="http://www.w3.org/2000/svg" xml:space="preserve" width="100%" height="100%" version="1.1" style="shape-rendering:geometricPrecision; text-rendering:geometricPrecision; image-rendering:optimizeQuality; fill-rule:evenodd; clip-rule:evenodd"
viewBox="0 0 1336 1404"
 xmlns:xlink="http://www.w3.org/1999/xlink">
 <defs>
  <style type="text/css">
   <![CDATA[
    .fil1 {fill:#00233F}
    .fil0 {fill:#08446D}
    .fil3 {fill:#0DD396}
    .fil2 {fill:#22EFAB}
    .fil5 {fill:#5A8CA8}
    .fil4 {fill:#C6640C}
   ]]>
  </style>
 </defs>
 <g id="Слой_x0020_1">
  <metadata id="CorelCorpID_0Corel-Layer"/>
  <g id="_2056858795696">
   <polygon class="fil0" points="1155,1404 0,1404 0,1094 170,929 1155,929 "/>
   <rect class="fil0" x="453" width="159" height="136"/>
   <g>
    <polygon class="fil1" points="453,0 612,0 612,136 "/>
   </g>
   <rect class="fil0" x="317" y="45" width="430" height="453"/>
   <g>
    <polygon class="fil1" points="317,45 748,45 748,498 "/>
   </g>
   <rect class="fil1" x="227" y="204" width="612" height="1201"/>
   <rect class="fil2" x="476" y="317" width="113" height="113"/>
   <g>
    <polygon class="fil3" points="589,317 589,430 476,430 "/>
   </g>
   <rect class="fil2" x="476" y="476" width="113" height="113"/>
   <g>
    <polygon class="fil3" points="589,476 589,589 476,589 "/>
   </g>
   <rect class="fil2" x="476" y="634" width="113" height="113"/>
   <g>
    <polygon class="fil3" points="589,634 589,748 476,748 "/>
   </g>
   <rect class="fil2" x="476" y="793" width="113" height="113"/>
   <g>
    <polygon class="fil3" points="589,793 589,906 476,906 "/>
   </g>
   <rect class="fil2" x="476" y="951" width="113" height="113"/>
   <g>
    <polygon class="fil3" points="589,951 589,1065 476,1065 "/>
   </g>
   <rect class="fil2" x="317" y="476" width="113" height="113"/>
   <g>
    <polygon class="fil3" points="430,476 430,589 317,589 "/>
   </g>
   <rect class="fil2" x="317" y="634" width="113" height="113"/>
   <g>
    <polygon class="fil3" points="430,634 430,748 317,748 "/>
   </g>
   <rect class="fil2" x="317" y="793" width="113" height="113"/>
   <g>
    <polygon class="fil3" points="430,793 430,906 317,906 "/>
   </g>
   <rect class="fil2" x="317" y="951" width="113" height="113"/>
   <g>
    <polygon class="fil3" points="430,951 430,1065 317,1065 "/>
   </g>
   <rect class="fil2" x="317" y="317" width="113" height="113"/>
   <g>
    <polygon class="fil3" points="430,317 430,430 317,430 "/>
   </g>
   <rect class="fil2" x="634" y="317" width="113" height="113"/>
   <g>
    <polygon class="fil3" points="748,317 748,430 634,430 "/>
   </g>
   <rect class="fil2" x="634" y="476" width="113" height="113"/>
   <g>
    <polygon class="fil3" points="748,476 748,589 634,589 "/>
   </g>
   <rect class="fil2" x="634" y="634" width="113" height="113"/>
   <g>
    <polygon class="fil3" points="748,634 748,748 634,748 "/>
   </g>
   <rect class="fil2" x="634" y="793" width="113" height="113"/>
   <g>
    <polygon class="fil3" points="748,793 748,906 634,906 "/>
   </g>
   <rect class="fil2" x="634" y="951" width="113" height="113"/>
   <g>
    <polygon class="fil3" points="748,951 748,1065 634,1065 "/>
   </g>
   <path class="fil4" d="M612 1382l0 -179c0,-16 -16,-25 -32,-25l-98 0c-15,0 -29,11 -29,25l0 179 159 0z"/>
   <rect class="fil0" x="906" y="566" width="430" height="838"/>
   <rect class="fil0" x="974" y="430" width="294" height="317"/>
   <rect class="fil0" x="1042" y="272" width="159" height="294"/>
   <polygon class="fil0" points="1031,582 1121,29 1212,582 1121,673 "/>
   <rect class="fil5" x="997" y="657" width="22.6519" height="656.906"/>
   <rect class="fil5" x="1110" y="657" width="22.6519" height="656.906"/>
   <rect class="fil5" x="1201" y="657" width="22.6519" height="656.906"/>
  </g>
 </g>
</svg>
