<svg xmlns="http://www.w3.org/2000/svg" width="34" height="31" viewBox="0 0 34 31"><defs><style>.cls-1{fill:#3c4858;fill-rule:evenodd}</style></defs><path id="holidays-calendar.svg" class="cls-1" d="M1607 981h-5v-1c0-.4.02-1-.38-1a.708.708 0 0 0-.7.72l.08 1.28h-6v-1c0-.4-.07-1-.46-1a.9.9 0 0 0-.54 1v1h-6v-1a.9.9 0 0 0-.54-1c-.39 0-.46.6-.46 1v1h-6l.08-1.28a.71.71 0 0 0-.71-.72c-.39 0-.37.6-.37 1v1h-5c-.78 0-1 .811-1 1.6v25.957a1.436 1.436 0 0 0 1.42 1.44h31.16a1.436 1.436 0 0 0 1.42-1.44V982.6c0-.789-.22-1.6-1-1.6zm-32 1h5v2c0 .429-.02.985.37.985a.9.9 0 0 0 .63-.985v-2h6v2c0 .429.07.985.46.985a.861.861 0 0 0 .54-.985v-2h6v2a.861.861 0 0 0 .54.985c.39 0 .46-.556.46-.985v-2h6l-.08 2.206a.741.741 0 0 0 .7.779c.4 0 .38-.556.38-.985v-2h5c.22-.4 0 0 0 0v4h-32v-4zm32 27h-32v-22h32v22zm-13-11h2l-5-9-5 9h2l-3 6h4v3h4v-3h4zm-3-6.4l2.67 5.427h-5.33zm-2 7.4h4l2 4h-8zm3 7h-2v-2h2v2zm-9.5-17.62a.721.721 0 1 0 .71.72.717.717 0 0 0-.71-.72zm17 0a.721.721 0 1 0 .71.72.717.717 0 0 0-.71-.72zm-21.25 4.325a.722.722 0 1 0 .71.721.717.717 0 0 0-.71-.721zm4.25 4.326a.721.721 0 1 0 .71.72.717.717 0 0 0-.71-.72zm4.25-2.883a.722.722 0 1 0-.71-.722.717.717 0 0 0 .71.722zm8.5 0a.722.722 0 1 0-.71-.722.717.717 0 0 0 .71.722zm4.25 2.883a.721.721 0 1 0 .71.72.717.717 0 0 0-.71-.72zm4.25-4.326a.722.722 0 1 0 .71.721.717.717 0 0 0-.71-.721zm-25.5 8.655a.72.72 0 1 0 .71.72.715.715 0 0 0-.71-.72zm4.25 4.32a.72.72 0 1 0 .71.72.721.721 0 0 0-.71-.72zm17 0a.72.72 0 1 0 .71.72.721.721 0 0 0-.71-.72zm4.25-4.32a.72.72 0 1 0 .71.72.715.715 0 0 0-.71-.72z" transform="translate(-1574 -979)"/></svg>