<svg xmlns="http://www.w3.org/2000/svg" width="24.44" height="24.437" viewBox="0 0 24.44 24.437"><defs><style>.cls-1{fill:#20599c;stroke:#20599c;stroke-width:.44px;fill-rule:evenodd}</style></defs><path id="reaction-sad.svg" class="cls-1" d="M1542 1006a12 12 0 1 0-12-12 12.01 12.01 0 0 0 12 12zm0-23.2a11.2 11.2 0 1 1-11.2 11.2 11.21 11.21 0 0 1 11.2-11.2zm-5.44 15.683l.48.634 1.23-.944a6.125 6.125 0 0 1 7.46 0l1.23.944.48-.634-1.22-.944a6.931 6.931 0 0 0-8.44 0zm1.84-6.883a2 2 0 0 0 2-2v-.8h-4.8v.8h.8a2 2 0 0 0 2 2zm1.2-2a1.2 1.2 0 1 1-2.4 0h2.4zm6 2a2 2 0 0 0 2-2h.8v-.8h-4.8v.8a2 2 0 0 0 2 2zm1.2-2a1.2 1.2 0 0 1-2.4 0h2.4z" transform="translate(-1529.78 -981.783)"/></svg>