<?xml version="1.0" encoding="UTF-8"?>
<!DOCTYPE svg PUBLIC "-//W3C//DTD SVG 1.1//EN" "http://www.w3.org/Graphics/SVG/1.1/DTD/svg11.dtd">
<!-- Creator: CorelDRAW X8 -->
<svg xmlns="http://www.w3.org/2000/svg" xml:space="preserve" width="100%" height="100%" version="1.1" style="shape-rendering:geometricPrecision; text-rendering:geometricPrecision; image-rendering:optimizeQuality; fill-rule:evenodd; clip-rule:evenodd"
viewBox="0 0 1609 1543"
 xmlns:xlink="http://www.w3.org/1999/xlink">
 <defs>
  <style type="text/css">
   <![CDATA[
    .fil0 {fill:#3C4858}
   ]]>
  </style>
 </defs>
 <g id="Слой_x0020_1">
  <metadata id="CorelCorpID_0Corel-Layer"/>
  <path class="fil0" d="M0 205l0 -97c0,-22 18,-39 40,-39l311 0 0 -29c0,-22 18,-40 40,-40 22,0 40,18 40,40l0 29 623 0 0 -29c0,-22 18,-40 40,-40 22,0 40,18 40,40l0 29 312 0c22,0 39,17 39,39l0 97c0,23 -18,40 -40,40 -22,0 -40,-17 -40,-40l0 -56 -271 0 0 27c0,22 -18,40 -40,40 -22,0 -40,-18 -40,-40l0 -27 -623 0 0 27c0,22 -18,40 -40,40 -22,0 -40,-18 -40,-40l0 -27 -271 0 0 56c0,23 -18,40 -40,40 -22,0 -40,-17 -40,-40zm1361 797c11,0 22,0 33,0 10,0 21,2 32,3 6,1 12,2 19,3 4,0 9,1 13,2 23,7 41,21 51,42l47 7c23,3 42,19 50,42 7,22 1,46 -16,63l-121 117c-6,7 -9,16 -8,24l29 167c4,23 -5,46 -24,60 -11,7 -23,11 -36,11 -10,0 -20,-2 -29,-7l-150 -78c-7,-4 -17,-4 -25,0l-149 78c-21,11 -46,9 -65,-4 -19,-14 -28,-37 -24,-60l28 -167c2,-8 -1,-17 -7,-24l-121 -117c-17,-17 -23,-41 -16,-63 8,-23 27,-39 50,-42l47 -7c10,-21 28,-35 50,-42 5,-1 10,-2 14,-3 7,-1 13,-1 19,-2 6,-1 12,-2 18,-2 5,0 9,-1 14,-1 11,0 22,0 33,0 0,0 1,0 1,0l66 -133c10,-22 31,-35 55,-35 24,0 45,13 55,35l66 133c0,0 1,0 1,0zm-224 112c-2,-5 -7,-8 -12,-8l-31 0 32 -32c5,-5 5,-13 -1,-18 -5,-5 -13,-5 -18,0l-53 54c-4,4 -5,10 -3,14 2,5 7,8 12,8l32 0 -30 32c-5,5 -5,13 0,18 3,3 6,4 9,4 4,0 7,-2 9,-4l51 -54c4,-3 5,-9 3,-14zm292 0c-2,-5 -6,-8 -11,-8l-31 0 31 -32c5,-5 5,-13 0,-18 -5,-5 -13,-5 -18,0l-54 54c-3,4 -4,10 -2,14 2,5 6,8 12,8l31 0 -30 32c-5,5 -4,13 1,18 2,3 6,4 9,4 3,0 7,-2 9,-4l51 -54c4,-3 5,-9 2,-14zm-47 -77c-25,0 -71,1 -92,15 -15,10 -21,27 -17,44 6,30 27,59 50,79 23,20 53,35 84,35 20,0 37,-7 50,-21 23,-24 30,-62 28,-94 -1,-7 -2,-15 -4,-21 0,0 0,-1 0,-1 -6,-15 -16,-25 -32,-30 -4,-1 -8,-1 -11,-2 -6,-1 -12,-1 -18,-2 -9,-1 -18,-2 -27,-2 -3,0 -7,0 -11,0zm-143 33c4,-19 15,-36 31,-46 2,-1 4,-2 6,-3 -25,-3 -49,-3 -74,0 2,1 4,2 5,3 17,10 28,27 32,46zm-77 -79c51,-9 103,-9 154,0l-53 -107c-5,-10 -14,-15 -24,-15 -11,0 -20,5 -24,15l-53 107zm-169 104c-2,32 5,70 28,94 13,14 30,21 50,21 29,0 59,-15 81,-32 25,-21 46,-50 53,-82 4,-17 -2,-34 -17,-44 -23,-15 -76,-16 -103,-15 -9,0 -18,1 -27,2 -6,1 -12,1 -18,2 -3,1 -7,1 -11,2 -16,5 -26,15 -32,31 0,0 0,0 0,0 -2,6 -3,14 -4,21zm526 -7c0,0 0,1 0,1l3 0c0,0 0,0 0,0l-3 -1zm8 1c7,3 12,9 12,17 0,10 -7,17 -17,17l-3 0c-3,33 -14,65 -37,89 -20,22 -46,33 -75,33 -35,0 -70,-16 -97,-37 -31,-23 -55,-54 -67,-91l-8 0c-12,37 -36,68 -67,91 -27,21 -63,37 -97,37 -29,0 -55,-11 -75,-33 -23,-24 -34,-56 -37,-89l-3 0c-10,0 -17,-7 -17,-17 0,-8 5,-14 12,-17l-24 4c-11,2 -19,8 -22,18 -3,10 -1,21 7,28l121 118c14,14 21,34 17,54l-28 166c-2,11 2,21 11,27 8,6 19,7 28,2l149 -79c18,-9 40,-9 58,0l149 79c9,5 20,4 28,-2 9,-6 13,-16 11,-27l-29 -166c-3,-20 4,-40 18,-54l121 -118c8,-7 10,-18 7,-28 -3,-10 -12,-16 -22,-18l-24 -4zm-254 105c7,7 7,18 0,24 -9,9 -21,14 -34,14 -13,0 -25,-5 -34,-14 -7,-6 -7,-17 0,-24 7,-7 18,-7 24,0 3,2 6,4 10,4 4,0 7,-2 10,-4 6,-7 17,-7 24,0zm-317 -105c0,0 0,0 0,0l3 0c0,0 0,-1 0,-1l-3 1zm-100 -60c0,23 -18,40 -40,40l-34 0 0 294c0,23 -17,40 -39,40 -2,0 -2,0 -4,0 -1,0 -2,0 -4,0l-695 0c-22,0 -40,-17 -40,-40l0 -1006 0 0c0,-22 18,-39 40,-39l1406 0c22,0 39,17 39,39l0 434c0,22 -18,40 -40,40 -22,0 -40,-18 -40,-40l0 -59 -271 0 0 3c0,22 -18,40 -40,40 -22,0 -40,-18 -40,-40l0 -3 -272 0 0 257 34 0c22,0 40,18 40,40zm-505 40l-271 0 0 254 271 0 0 -254zm0 -337l-271 0 0 257 271 0 0 -257zm351 337l-271 0 0 254 271 0 0 -254zm0 -337l-271 0 0 257 271 0 0 -257zm80 -246l0 166 272 0 0 -166c0,-23 18,-40 40,-40 22,0 40,17 40,40l0 166 271 0 0 -254 -1325 0 0 254 271 0 0 -166c0,-23 18,-40 40,-40 22,0 40,17 40,40l0 166 271 0 0 -166c0,-23 18,-40 40,-40 23,0 40,17 40,40z"/>
 </g>
</svg>
