<?xml version="1.0" encoding="UTF-8"?>
<!DOCTYPE svg PUBLIC "-//W3C//DTD SVG 1.1//EN" "http://www.w3.org/Graphics/SVG/1.1/DTD/svg11.dtd">
<!-- Creator: CorelDRAW X8 -->
<svg xmlns="http://www.w3.org/2000/svg" xml:space="preserve" width="34px" height="34px" version="1.1" style="shape-rendering:geometricPrecision; text-rendering:geometricPrecision; image-rendering:optimizeQuality; fill-rule:evenodd; clip-rule:evenodd"
viewBox="0 0 34 34"
 xmlns:xlink="http://www.w3.org/1999/xlink">
 <defs>
  <style type="text/css">
   <![CDATA[
    .fil0 {fill:#8F9BAE}
   ]]>
  </style>
 </defs>
 <g id="Слой_x0020_1">
  <metadata id="CorelCorpID_0Corel-Layer"/>
  <path class="fil0" d="M0 17c0,-9 8,-17 17,-17 9,0 17,8 17,17 0,9 -8,17 -17,17 -9,0 -17,-8 -17,-17zm9 -9c0,0 0,-1 -1,-1 0,0 -1,1 -1,1 0,1 1,1 1,1 1,0 1,0 1,-1zm18 18c0,-1 -1,-1 -1,-1 -1,0 -1,0 -1,1 0,0 0,1 1,1 0,0 1,-1 1,-1zm-18 0c0,-1 0,-1 -1,-1 0,0 -1,0 -1,1 0,0 1,1 1,1 1,0 1,-1 1,-1zm18 -18c0,0 -1,-1 -1,-1 -1,0 -1,1 -1,1 0,1 0,1 1,1 0,0 1,0 1,-1zm-22 9c0,-1 0,-1 -1,-1 0,0 -1,0 -1,1 0,1 1,1 1,1 1,0 1,0 1,-1zm26 0c0,-1 -1,-1 -1,-1 -1,0 -1,0 -1,1 0,1 0,1 1,1 0,0 1,0 1,-1zm-13 13c0,-1 0,-1 -1,-1 -1,0 -1,0 -1,1 0,0 0,1 1,1 1,0 1,-1 1,-1zm0 -26c0,0 0,-1 -1,-1 -1,0 -1,1 -1,1 0,1 0,1 1,1 1,0 1,0 1,-1zm-1 11l6 -5c0,0 0,0 1,0 0,1 0,1 0,1l-5 6c0,0 0,0 0,0 0,1 -1,2 -2,2 -1,0 -1,-1 -1,-1l-8 0c0,0 0,-1 0,-1 0,0 0,-1 0,-1l8 0c0,0 0,-1 1,-1 0,0 0,0 0,0zm-15 2c0,-8 7,-15 15,-15 8,0 15,7 15,15 0,8 -7,15 -15,15 -8,0 -15,-7 -15,-15z"/>
 </g>
</svg>
