<?xml version="1.0" encoding="UTF-8"?>
<!DOCTYPE svg PUBLIC "-//W3C//DTD SVG 1.1//EN" "http://www.w3.org/Graphics/SVG/1.1/DTD/svg11.dtd">
<!-- Creator: CorelDRAW X8 -->
<svg xmlns="http://www.w3.org/2000/svg" xml:space="preserve" width="100%" height="100%" version="1.1" style="shape-rendering:geometricPrecision; text-rendering:geometricPrecision; image-rendering:optimizeQuality; fill-rule:evenodd; clip-rule:evenodd"
viewBox="0 0 5729 5729"
 xmlns:xlink="http://www.w3.org/1999/xlink">
 <defs>
  <style type="text/css">
   <![CDATA[
    .fil0 {fill:none}
    .fil1 {fill:#673B14}
   ]]>
  </style>
 </defs>
 <g id="Слой_x0020_1">
  <metadata id="CorelCorpID_0Corel-Layer"/>
  <rect class="fil0" width="5729" height="5729"/>
  <path class="fil1" d="M5015 2884l0 -665c0,-225 -175,-408 -396,-426l-617 -1079c-57,-100 -150,-171 -260,-201 -111,-29 -226,-13 -324,44l-2117 1232 -372 0c-237,0 -430,193 -430,430l0 2581c0,237 193,430 430,430l3656 0c237,0 430,-193 430,-430l0 -665c125,-44 215,-163 215,-303l0 -645c0,-140 -90,-258 -215,-303zm-860 411c-119,0 -215,96 -215,215 0,118 96,215 215,215 119,0 215,-97 215,-215 0,-119 -96,-215 -215,-215zm214 -1506l-937 0 703 -409 234 409zm-341 -596l-1023 596 -425 0 1342 -781 106 185zm-502 -450c49,-29 106,-36 160,-22 55,15 101,50 129,100l0 0 -1662 968 -425 0 1798 -1046zm1274 4057c0,119 -96,215 -215,215l-3656 0c-118,0 -215,-96 -215,-215l0 -2581c0,-118 97,-215 215,-215l3656 0c119,0 215,97 215,215l0 646 -645 0c-356,0 -645,289 -645,645 0,356 289,645 645,645l645 0 0 645zm215 -968c0,60 -48,108 -107,108l-753 0c-237,0 -430,-193 -430,-430 0,-237 193,-430 430,-430l753 0c59,0 107,48 107,107l0 645z"/>
 </g>
</svg>
