<?xml version="1.0" encoding="UTF-8"?>
<!DOCTYPE svg PUBLIC "-//W3C//DTD SVG 1.1//EN" "http://www.w3.org/Graphics/SVG/1.1/DTD/svg11.dtd">
<!-- Creator: CorelDRAW X8 -->
<svg xmlns="http://www.w3.org/2000/svg" xml:space="preserve" width="100%" height="100%" version="1.1" style="shape-rendering:geometricPrecision; text-rendering:geometricPrecision; image-rendering:optimizeQuality; fill-rule:evenodd; clip-rule:evenodd"
viewBox="0 0 10787 10887"
 xmlns:xlink="http://www.w3.org/1999/xlink">
 <defs>
  <style type="text/css">
   <![CDATA[
    .fil0 {fill:#FEFEFE}
    .fil1 {fill:#FEFEFE;fill-rule:nonzero}
   ]]>
  </style>
 </defs>
 <g id="Слой_x0020_1">
  <metadata id="CorelCorpID_0Corel-Layer"/>
  <g id="_2984791200432">
   <path class="fil0" d="M2346 2710c516,-781 1162,-186 923,440 -244,641 -813,1068 -1019,1779 304,-462 802,-933 1213,-1309 152,-140 615,-533 529,-1224 -105,-833 -1734,-926 -1646,314z"/>
   <path class="fil0" d="M2309 3620c0,0 -44,-385 -198,-763 -155,-378 -82,-808 42,-993 322,-483 966,-704 738,-1436 -142,-459 -192,-428 -192,-428 188,986 -1853,1380 -1140,2687 278,508 576,486 750,933z"/>
   <path class="fil0" d="M2121 4556c0,-919 -2300,-1180 -1400,-2578 140,-219 313,-338 313,-338 -335,1521 947,1366 1106,2259 38,214 -19,657 -19,657z"/>
   <path class="fil0" d="M239 2509c0,0 -453,691 -112,1224 433,677 1463,794 1667,1289 87,211 81,205 81,205 0,0 40,-680 -323,-967 -934,-741 -1289,-942 -1313,-1751z"/>
   <path class="fil1" d="M741 5792c0,-38 13,-70 39,-97 26,-26 58,-40 95,-40l709 0c78,0 149,16 214,48 64,31 118,73 163,124 45,51 80,108 105,172 25,63 38,126 38,190 0,70 -11,137 -33,201 -22,64 -53,121 -92,169 34,43 58,90 71,144 13,54 19,110 19,168l0 220c0,26 4,46 10,60 7,15 15,27 25,37 22,23 36,48 41,74 5,27 2,52 -7,76 -10,23 -26,43 -49,58 -23,16 -50,24 -83,24l-224 0c-12,0 -29,-5 -51,-14 -23,-9 -39,-17 -47,-25 -18,-18 -32,-40 -44,-65 -11,-25 -19,-51 -25,-77 -6,-26 -10,-51 -12,-77 -3,-25 -4,-46 -4,-64l0 -229c0,-18 -6,-35 -19,-51 -13,-17 -35,-25 -64,-25l-307 0 0 490c0,37 -13,70 -39,96 -26,27 -58,41 -95,41l-200 0c-37,0 -69,-14 -95,-41 -26,-26 -39,-59 -39,-96l0 -1491zm471 548l304 0c28,0 52,-12 72,-35 20,-24 31,-54 31,-89 0,-31 -11,-57 -32,-77 -21,-20 -45,-31 -71,-31l-304 0 0 232zm2310 -685c37,0 69,14 96,40 27,27 40,59 40,97l0 180c0,37 -13,69 -40,96 -27,27 -59,40 -96,40l-675 0 0 178 629 0c37,0 69,13 95,39 26,26 39,58 39,95l0 181c0,37 -13,69 -39,96 -26,27 -58,40 -95,40l-629 0 0 232 711 0c38,0 70,13 97,39 27,26 40,57 40,95l0 180c0,37 -13,70 -40,96 -27,27 -59,41 -97,41l-1047 0c-38,0 -70,-14 -97,-41 -27,-26 -40,-59 -40,-96l0 -1491c0,-38 13,-70 40,-97 27,-26 59,-40 97,-40l1011 0zm882 0c28,0 54,10 79,29 25,20 42,43 50,69l259 848c45,-143 90,-285 135,-426 45,-140 90,-282 135,-425 8,-24 25,-46 51,-66 26,-19 52,-29 78,-29l285 0c38,0 69,14 95,40 26,27 39,59 39,97l0 1491c0,37 -13,70 -39,96 -26,27 -57,41 -95,41l-199 0c-39,0 -71,-14 -97,-41 -27,-26 -40,-59 -40,-96l-2 -370c-23,69 -45,139 -67,207 -22,68 -45,136 -67,204 -9,25 -26,47 -52,66 -26,20 -52,30 -78,30l-175 0c-26,0 -52,-10 -78,-30 -26,-19 -43,-41 -51,-66l-139 -421 0 380c0,37 -13,70 -40,96 -26,27 -58,41 -97,41l-199 0c-38,0 -69,-14 -95,-41 -26,-26 -39,-59 -39,-96l0 -1491c0,-38 13,-70 39,-97 26,-26 57,-40 95,-40l309 0zm2301 1806c-127,0 -242,-23 -344,-69 -102,-47 -189,-111 -261,-194 -71,-83 -126,-181 -164,-295 -38,-114 -57,-238 -57,-373 0,-135 19,-258 58,-370 39,-113 95,-209 167,-289 72,-81 159,-143 261,-188 101,-45 215,-67 342,-67 127,0 241,22 343,67 101,45 188,107 260,188 73,80 128,176 167,289 39,112 59,235 59,370 0,135 -20,259 -59,373 -39,114 -94,212 -165,295 -72,83 -159,147 -262,194 -104,46 -219,69 -345,69zm2 -456c109,0 193,-39 252,-117 60,-78 89,-197 89,-358 0,-159 -30,-276 -90,-350 -60,-74 -144,-111 -251,-111 -107,0 -191,37 -251,111 -60,74 -90,191 -90,350 0,161 30,280 89,358 59,78 143,117 252,117zm1455 -1350c20,0 42,8 67,23 25,16 42,31 50,45l451 770 0 -701c0,-38 13,-70 40,-97 27,-26 59,-40 96,-40l200 0c38,0 70,14 96,40 27,27 41,59 41,97l0 1491c0,37 -14,70 -41,96 -26,27 -58,41 -96,41l-241 0c-18,0 -39,-7 -65,-21 -25,-14 -42,-30 -52,-48l-456 -772 0 704c0,37 -13,70 -40,96 -26,27 -58,41 -96,41l-200 0c-37,0 -69,-14 -95,-41 -26,-26 -39,-59 -39,-96l0 -1491c0,-38 13,-70 39,-97 26,-26 58,-40 95,-40l246 0zm2488 0c38,0 70,14 97,40 26,27 40,59 40,97l0 180c0,37 -14,69 -40,96 -27,27 -59,40 -97,40l-341 0 0 1175c0,37 -13,70 -40,96 -27,27 -59,41 -96,41l-200 0c-38,0 -70,-14 -97,-41 -26,-26 -40,-59 -40,-96l0 -1175 -341 0c-37,0 -69,-13 -96,-40 -27,-27 -40,-59 -40,-96l0 -180c0,-38 13,-70 40,-97 27,-26 59,-40 96,-40l1155 0z"/>
   <path class="fil1" d="M6259 3810c0,-86 -17,-147 -51,-182 -34,-36 -69,-61 -104,-76 -41,-18 -84,-35 -131,-51 -47,-17 -95,-34 -146,-52 -93,-27 -186,-58 -279,-93 -92,-34 -175,-79 -248,-136 -73,-57 -133,-130 -178,-220 -46,-90 -68,-203 -68,-339 0,-122 20,-231 62,-328 42,-98 101,-180 176,-249 76,-68 169,-120 277,-155 109,-36 230,-53 364,-53 56,0 127,4 213,13 86,9 170,26 252,51 82,25 152,60 210,104 58,45 87,102 87,173 0,63 -23,119 -70,167 -46,48 -112,72 -195,72 -35,0 -67,-5 -95,-13 -28,-9 -58,-19 -91,-29 -35,-12 -76,-25 -121,-38 -46,-12 -101,-19 -167,-19 -45,0 -90,5 -135,14 -44,8 -82,24 -115,47 -33,23 -60,52 -80,89 -20,37 -30,83 -30,138 0,84 18,143 55,179 36,35 71,60 104,76 51,25 98,45 142,60 45,15 88,29 131,42 94,30 187,62 279,97 92,34 175,79 248,136 73,57 133,130 180,218 47,89 70,200 70,334 0,131 -24,249 -72,352 -48,104 -113,191 -197,262 -83,71 -182,125 -297,161 -115,37 -241,55 -378,55 -71,0 -153,-6 -246,-19 -94,-12 -182,-33 -266,-62 -83,-29 -154,-67 -212,-114 -58,-47 -87,-103 -87,-169 0,-60 24,-115 72,-165 48,-49 107,-74 178,-74 28,0 58,5 89,14 32,8 65,19 101,32 45,15 99,31 161,49 62,18 133,27 214,27 131,0 230,-28 296,-84 66,-55 98,-136 98,-242zm1775 796c-51,0 -101,-5 -152,-13 -50,-9 -110,-30 -178,-63l0 626c0,65 -23,120 -68,165 -46,44 -110,66 -194,66 -83,0 -147,-23 -193,-68 -45,-46 -68,-100 -68,-163l0 -1927c0,-43 -3,-77 -10,-104 -6,-26 -17,-51 -32,-74 -15,-20 -28,-38 -38,-55 -10,-16 -15,-38 -15,-66 0,-71 27,-127 80,-169 53,-42 110,-62 170,-62 41,0 77,9 108,28 32,19 62,45 89,78 91,-51 178,-91 260,-122 82,-30 174,-45 275,-45 109,0 206,18 292,55 86,37 158,87 216,152 58,64 103,142 135,235 31,92 47,192 47,301l0 440c0,111 -12,215 -36,311 -24,96 -64,179 -121,250 -57,71 -132,126 -224,165 -92,39 -207,59 -343,59zm-330 -482c58,18 110,31 155,38 46,8 86,12 122,12 93,0 159,-29 197,-86 38,-57 57,-146 57,-267l0 -440c0,-202 -82,-303 -247,-303 -78,0 -175,26 -292,79 3,13 5,25 6,36 1,12 2,24 2,36l0 895zm1991 -151c0,70 26,126 77,166 52,41 122,61 211,61 96,0 167,-23 212,-68 46,-46 68,-109 68,-190l0 -694c0,-68 -20,-121 -60,-159 -41,-38 -108,-57 -201,-57 -127,0 -229,36 -307,106l0 835zm-524 -1896c0,-61 23,-115 69,-161 45,-47 110,-71 193,-71 83,0 148,24 193,71 46,46 69,100 69,161l0 667c60,-35 122,-62 185,-80 64,-17 140,-26 228,-26 121,0 224,16 309,47 85,32 155,76 210,133 56,57 97,124 122,201 25,77 38,160 38,248l0 637c0,99 -17,191 -51,277 -35,86 -85,161 -152,224 -67,63 -151,113 -252,150 -101,36 -219,55 -353,55 -129,0 -243,-17 -343,-50 -100,-33 -184,-77 -252,-134 -68,-57 -121,-125 -158,-203 -36,-79 -55,-162 -55,-250l0 -1896z"/>
   <path class="fil1" d="M1287 7936c61,0 112,22 153,64 41,43 63,94 66,155l4 638c127,-131 256,-263 386,-397 130,-134 259,-264 386,-392 13,-13 39,-28 76,-44 37,-16 65,-24 83,-24l434 0c53,0 98,13 134,38 36,26 61,57 77,96 16,38 20,80 12,125 -8,45 -30,87 -67,124l-848 840 903 1314c27,40 42,80 44,121 3,41 -4,79 -22,112 -17,33 -43,60 -77,81 -35,22 -76,32 -124,32l-414 0c-29,0 -64,-10 -103,-32 -40,-21 -68,-42 -84,-63l-673 -1012c-16,19 -36,39 -60,60 -24,21 -46,42 -67,64l0 760c0,61 -22,114 -64,157 -43,44 -94,66 -155,66l-327 0c-61,0 -113,-22 -155,-66 -43,-43 -64,-96 -64,-157l0 -2437c0,-61 21,-113 64,-157 42,-44 94,-66 155,-66l327 0zm3257 2951c-207,0 -395,-38 -562,-114 -167,-75 -309,-181 -426,-316 -117,-136 -206,-296 -269,-482 -62,-186 -93,-389 -93,-609 0,-220 32,-422 95,-605 64,-183 155,-341 273,-472 118,-132 260,-234 426,-307 166,-73 353,-109 560,-109 207,0 393,36 559,109 166,73 308,175 426,307 118,131 209,289 273,472 64,183 95,385 95,605 0,220 -31,423 -95,609 -64,186 -154,346 -271,482 -117,135 -259,241 -428,316 -169,76 -356,114 -563,114zm4 -745c177,0 315,-63 412,-191 97,-127 145,-322 145,-585 0,-260 -49,-451 -147,-571 -98,-121 -235,-182 -410,-182 -176,0 -312,61 -410,182 -99,120 -148,311 -148,571 0,263 49,458 146,585 96,128 234,191 412,191zm3575 -2206c61,0 113,22 155,66 43,44 64,96 64,157l0 295c0,61 -21,114 -64,157 -42,44 -94,66 -155,66l-1071 0 0 291 904 0c61,0 113,21 155,63 43,43 64,95 64,156l0 294c0,61 -21,114 -64,158 -42,43 -94,65 -155,65l-904 0 0 892c0,61 -21,114 -64,157 -42,44 -94,66 -155,66l-334 0c-61,0 -113,-22 -156,-66 -42,-43 -63,-96 -63,-157l0 -2437c0,-61 21,-113 63,-157 43,-44 95,-66 156,-66l1624 0zm2381 0c61,0 114,22 157,66 44,44 66,96 66,157l0 295c0,61 -22,114 -66,157 -43,44 -96,66 -157,66l-1103 0 0 291 1027 0c62,0 113,21 156,63 42,43 63,95 63,156l0 294c0,61 -21,114 -63,158 -43,43 -94,65 -156,65l-1027 0 0 379 1163 0c61,0 113,21 157,63 44,43 66,94 66,156l0 294c0,61 -22,114 -66,157 -44,44 -96,66 -157,66l-1712 0c-61,0 -114,-22 -158,-66 -43,-43 -65,-96 -65,-157l0 -2437c0,-61 22,-113 65,-157 44,-44 97,-66 158,-66l1652 0z"/>
  </g>
 </g>
</svg>
