<?xml version="1.0" encoding="UTF-8"?>
<!DOCTYPE svg PUBLIC "-//W3C//DTD SVG 1.1//EN" "http://www.w3.org/Graphics/SVG/1.1/DTD/svg11.dtd">
<!-- Creator: CorelDRAW X8 -->
<svg xmlns="http://www.w3.org/2000/svg" xml:space="preserve" width="100%" height="100%" version="1.1" style="shape-rendering:geometricPrecision; text-rendering:geometricPrecision; image-rendering:optimizeQuality; fill-rule:evenodd; clip-rule:evenodd"
viewBox="0 0 3472 3485"
 xmlns:xlink="http://www.w3.org/1999/xlink">
 <defs>
  <style type="text/css">
   <![CDATA[
    .fil1 {fill:#673B14}
    .fil4 {fill:#866727}
    .fil3 {fill:#AE8535}
    .fil2 {fill:#DBBF76}
    .fil5 {fill:#372727;fill-rule:nonzero}
    .fil0 {fill:#AE8535;fill-rule:nonzero}
   ]]>
  </style>
 </defs>
 <g id="Слой_x0020_1">
  <metadata id="CorelCorpID_0Corel-Layer"/>
  <g id="_1855929109456">
   <path class="fil0" d="M1618 1163c0,26 2,49 7,71 5,21 13,39 25,53 11,15 26,26 45,34 18,9 42,13 69,13 20,0 38,-3 54,-8 16,-5 32,-12 47,-22l13 -7c8,-5 15,-9 22,-13 6,-3 16,-5 30,-5 24,0 43,7 58,22 15,14 23,31 23,51 0,18 -8,35 -22,50 -14,16 -33,30 -57,42 -23,12 -50,21 -80,28 -30,7 -61,10 -94,10 -54,0 -100,-7 -139,-22 -39,-15 -71,-37 -97,-65 -26,-28 -44,-62 -57,-101 -12,-39 -18,-83 -18,-131l0 -242c0,-48 6,-91 18,-131 13,-39 31,-73 57,-101 26,-28 58,-50 97,-65 39,-15 85,-22 139,-22 33,0 64,3 94,10 30,7 57,16 80,28 24,12 43,26 57,42 14,16 22,32 22,50 0,20 -8,37 -23,52 -15,14 -34,22 -58,22 -14,0 -24,-2 -30,-6 -7,-4 -14,-8 -22,-13l-13 -7c-15,-10 -31,-17 -47,-22 -16,-5 -34,-7 -54,-7 -27,0 -51,4 -69,12 -19,8 -34,19 -45,34 -12,15 -20,33 -25,54 -5,21 -7,44 -7,70l0 242zm1101 241c0,21 -8,40 -25,56 -17,16 -37,24 -60,24 -23,0 -43,-8 -60,-24 -17,-16 -26,-35 -26,-56l0 -638 -259 0 0 638c0,21 -9,40 -25,56 -17,16 -37,24 -61,24 -23,0 -44,-8 -60,-24 -17,-16 -25,-35 -25,-56l0 -713c0,-21 8,-40 25,-56 16,-15 37,-23 60,-23l431 0c22,0 42,8 59,23 18,16 26,35 26,56l0 713zm324 -636l0 158 104 0c47,0 90,6 128,18 38,12 71,29 98,52 28,24 49,52 63,85 15,33 22,72 22,116 0,36 -5,70 -16,104 -11,33 -29,62 -53,88 -25,26 -57,46 -97,61 -40,15 -88,23 -145,23l-179 0c-13,0 -25,-3 -37,-8 -11,-5 -21,-11 -30,-19 -8,-7 -15,-16 -20,-27 -6,-11 -8,-22 -8,-34l0 -688c0,-11 2,-21 6,-31 5,-9 11,-18 19,-26 8,-8 18,-15 30,-20 11,-5 23,-7 36,-7l356 0c24,0 44,8 60,23 16,15 24,34 24,55 0,22 -8,40 -24,55 -16,14 -36,22 -60,22l-277 0zm0 313l0 237 104 0c29,0 52,-4 70,-11 19,-7 33,-16 43,-27 10,-11 17,-24 21,-39 4,-14 6,-28 6,-43 0,-78 -46,-117 -140,-117l-104 0z"/>
   <path class="fil1" d="M748 864c165,-249 371,-59 294,140 -77,205 -259,341 -325,568 97,-148 256,-298 387,-418 49,-44 196,-170 169,-390 -34,-266 -553,-295 -525,100z"/>
   <path class="fil2" d="M736 1154c0,0 -14,-122 -63,-243 -49,-120 -26,-257 14,-317 102,-154 308,-224 235,-458 -45,-146 -61,-136 -61,-136 59,315 -591,440 -364,857 89,162 184,155 239,297z"/>
   <path class="fil3" d="M676 1453c0,-293 -733,-376 -446,-822 45,-70 100,-108 100,-108 -107,485 302,435 352,720 12,68 -6,210 -6,210z"/>
   <path class="fil4" d="M76 800c0,0 -144,220 -35,390 138,216 466,254 531,411 28,68 26,66 26,66 0,0 13,-217 -103,-309 -298,-236 -411,-300 -419,-558z"/>
   <path class="fil5" d="M396 2200l0 139c0,19 -8,35 -23,48 -8,7 -16,12 -25,16 -9,3 -19,5 -29,5 -10,0 -20,-2 -29,-5 -9,-4 -17,-8 -25,-15 -7,-7 -13,-14 -17,-22 -4,-8 -7,-17 -7,-27l0 -481c0,-5 1,-10 2,-15 2,-5 3,-10 6,-14 2,-5 5,-9 8,-13 4,-4 7,-7 11,-10 3,-3 8,-6 12,-9 4,-2 9,-4 14,-6 5,-2 10,-4 15,-5 6,-1 11,-1 17,-1l134 0c22,0 42,1 61,4l0 0c19,3 36,7 52,13 16,6 30,12 42,20 13,8 25,17 35,26 9,10 18,21 25,32 7,11 13,23 17,36 5,12 8,25 10,38 2,13 3,26 3,40 0,16 -1,32 -4,46 -3,15 -7,29 -13,42 -6,13 -13,25 -22,35 -8,11 -18,21 -29,30 -11,8 -23,16 -36,23 -13,6 -27,12 -42,16 -14,5 -30,8 -47,10 -17,3 -34,4 -52,4l-64 0zm0 -133l64 0c16,0 30,-2 42,-5 11,-3 20,-8 28,-13 7,-6 12,-13 15,-22 4,-9 6,-21 6,-34 0,-10 -1,-19 -4,-28l0 -1c-1,-4 -3,-8 -5,-11 -2,-4 -5,-8 -8,-11 -3,-4 -7,-7 -11,-9 -4,-3 -10,-6 -16,-8 -5,-2 -12,-4 -20,-5 -8,-2 -17,-2 -27,-2l-64 0 0 149zm781 265c0,10 -2,19 -6,27 -4,8 -10,16 -17,22 -8,6 -16,11 -25,14 -9,4 -19,5 -29,5l-241 0c-6,0 -12,0 -18,-1 -6,0 -11,-1 -17,-2 -6,-1 -11,-3 -16,-4 -5,-2 -10,-5 -15,-7 -5,-3 -10,-6 -14,-10 -4,-4 -7,-9 -10,-13l0 -2c-3,-4 -5,-9 -6,-15 -2,-6 -3,-12 -3,-19l0 -469c0,-5 1,-10 2,-15 1,-4 3,-9 5,-13 3,-4 5,-9 8,-12 3,-4 6,-8 10,-11l1 -1c3,-3 7,-6 11,-8 4,-3 9,-5 14,-7 5,-2 10,-4 16,-5 5,-1 11,-1 17,-1l247 0c10,0 20,1 29,5 9,3 17,8 25,14 15,14 23,30 23,49 0,19 -8,35 -24,47 -7,6 -16,11 -25,13 -9,3 -18,5 -28,5l-176 0 0 107 158 0c10,0 19,2 28,5 8,3 16,7 24,13 8,6 14,13 18,21l0 0c5,9 7,18 7,27 0,10 -2,19 -6,27 -4,8 -10,15 -17,21 -8,7 -16,11 -25,14 -9,4 -18,5 -29,5l-158 0 0 109 185 0c10,0 19,2 28,5 9,3 17,7 25,13 8,6 14,13 18,21 4,8 6,17 6,26zm657 10c0,18 -8,34 -24,47 -7,6 -16,11 -25,14 -8,3 -18,5 -28,5 -10,0 -20,-2 -29,-5 -9,-3 -17,-8 -25,-14 -8,-6 -14,-13 -18,-21 -4,-8 -6,-17 -6,-26l0 -235 -79 141c-3,7 -8,13 -13,18 -5,5 -11,9 -17,12 -7,3 -13,5 -20,6 -7,2 -14,3 -21,3 -7,0 -14,-1 -21,-3l0 0c-7,-1 -13,-3 -19,-6 -7,-3 -13,-7 -18,-12 -5,-5 -10,-11 -13,-18l-79 -141 0 235c0,9 -2,18 -6,26 -4,8 -10,15 -18,21l0 0c-8,6 -17,11 -26,14 -9,3 -19,5 -29,5 -10,0 -20,-2 -28,-5 -9,-3 -18,-8 -25,-14 -7,-6 -13,-14 -16,-21 -4,-9 -6,-17 -6,-26l0 -496c0,-20 8,-37 23,-50 8,-6 16,-11 26,-14 9,-3 19,-5 30,-5 17,0 32,3 45,10l1 0c12,7 22,17 29,30l151 273 150 -275c4,-7 9,-13 14,-18 6,-5 12,-9 20,-12l0 0c6,-3 13,-4 20,-6 6,-1 14,-2 21,-2 10,0 20,2 30,5 9,3 18,8 25,15l0 0c8,6 14,14 18,22l0 1c4,8 6,17 6,26l0 496zm319 66c-20,0 -39,-2 -57,-5 -18,-3 -35,-7 -51,-13 -15,-6 -30,-14 -43,-22l0 0c-13,-8 -25,-18 -35,-28 -11,-11 -20,-22 -28,-35 -8,-12 -15,-25 -20,-40 -5,-14 -9,-29 -12,-44 -3,-15 -4,-30 -4,-46l0 -166c0,-30 5,-60 14,-88 5,-14 11,-27 18,-40 8,-12 16,-24 26,-34 11,-11 22,-21 35,-29 13,-9 28,-16 44,-22 16,-6 33,-11 52,-14 19,-3 40,-5 61,-5 22,0 42,2 62,5 19,3 36,8 52,14 16,6 30,13 43,22 13,8 25,18 35,29 10,10 19,22 27,34 7,13 13,26 18,40 4,14 8,29 10,43 2,15 4,30 4,45l0 166c0,16 -2,31 -4,46 -3,15 -7,30 -12,44 -6,15 -12,28 -20,40 -8,13 -17,24 -28,35 -11,10 -23,20 -36,28l0 1c-13,8 -27,15 -42,21 -16,6 -33,10 -51,13 -18,3 -37,5 -58,5zm0 -498c-18,0 -34,3 -46,7 -12,4 -21,11 -28,19 -7,9 -12,19 -16,31 -4,13 -5,27 -5,42l0 166c0,30 7,54 23,73 7,9 17,15 28,20 12,4 27,7 44,7 18,0 32,-3 44,-7 12,-5 22,-11 29,-20 8,-9 13,-20 17,-32 4,-12 6,-26 6,-41l0 -166c0,-15 -2,-29 -5,-42 -4,-12 -9,-22 -17,-31 -6,-8 -15,-15 -27,-19 -13,-4 -28,-7 -47,-7zm798 430c0,18 -8,34 -24,48l0 0c-7,7 -15,11 -24,15 -10,3 -19,5 -29,5 -10,0 -20,-2 -29,-5 -9,-4 -17,-8 -25,-15l0 0c-8,-6 -13,-14 -17,-22 -5,-8 -7,-17 -7,-26l0 -181 -167 0 0 181c0,18 -7,34 -23,48 -7,7 -16,11 -25,15 -9,3 -19,5 -29,5 -10,0 -20,-2 -29,-5l-1 -1c-9,-3 -17,-8 -24,-14l-1 -1c-7,-6 -12,-13 -16,-21 -4,-8 -6,-17 -6,-26l0 -496c0,-18 8,-34 23,-48 8,-6 16,-11 25,-14 9,-3 19,-5 29,-5 21,0 39,7 54,19 8,7 13,14 17,22 4,8 6,17 6,26l0 181 167 0 0 -181c0,-9 2,-18 7,-26 4,-8 10,-15 17,-22 8,-6 16,-11 25,-14 9,-3 19,-5 29,-5 20,0 38,7 53,19 8,7 13,14 18,22 4,8 6,17 6,26l0 496zm205 -422l-83 0c-11,0 -20,-2 -29,-5 -10,-3 -18,-8 -25,-14 -8,-6 -13,-13 -17,-21 -4,-8 -6,-17 -6,-26 0,-4 0,-8 1,-13 2,-3 3,-7 5,-11 2,-4 5,-8 8,-12 2,-3 5,-7 9,-10 3,-3 7,-6 11,-8 4,-3 8,-5 12,-7 5,-2 10,-4 15,-5l0 0c5,-1 11,-1 16,-1l320 0c10,0 19,1 28,4 9,4 17,8 25,14 9,6 15,14 19,22 4,8 7,17 7,27 0,9 -3,18 -7,26 -4,8 -10,15 -18,21 -7,6 -16,11 -25,14 -9,3 -18,5 -29,5l-83 0 0 423c0,9 -2,18 -6,26 -4,8 -9,15 -17,22 -8,6 -16,11 -25,14l-1 0c-8,3 -18,5 -28,5 -10,0 -20,-2 -29,-5 -9,-3 -17,-8 -25,-14 -7,-7 -13,-14 -17,-22 -4,-8 -6,-17 -6,-26l0 -423z"/>
   <path class="fil5" d="M457 2927l263 -322c11,-14 24,-24 39,-31 15,-7 31,-10 49,-10 8,0 16,1 23,2 8,2 15,4 21,7 7,3 12,6 18,10 5,4 10,8 15,12 5,5 9,10 12,15 4,5 7,11 9,17l1 1c2,5 3,10 5,15 1,6 1,12 1,17 0,4 0,8 0,12 -1,4 -2,7 -3,11 -1,4 -3,9 -5,13 -3,4 -5,9 -9,14l-1 1 -258 313 258 314 1 1 0 0c7,10 12,19 14,27 1,3 2,7 3,11 0,4 0,8 0,12 0,5 0,11 -1,16 -2,6 -3,11 -6,17l0 0c-2,6 -5,11 -9,17 -3,5 -7,10 -12,14l0 0c-5,5 -10,9 -15,13 -6,3 -11,7 -18,10 -6,3 -13,5 -21,7 -7,1 -15,2 -23,2 -18,0 -34,-3 -49,-10 -15,-7 -28,-17 -40,-31l-262 -321 0 268c0,13 -2,25 -8,36 -5,11 -13,21 -24,30 -10,10 -22,16 -35,21 -13,5 -26,7 -41,7 -14,0 -28,-2 -40,-7 -13,-5 -25,-11 -35,-21 -11,-9 -19,-19 -24,-30 -6,-11 -9,-23 -9,-36l0 -735c0,-12 3,-24 9,-35 5,-11 13,-21 24,-30 10,-9 22,-16 35,-21 12,-4 26,-6 40,-6 15,0 29,2 41,6l1 1c12,4 24,11 34,20 11,9 19,19 24,29l0 1c6,11 8,23 8,35l0 271zm861 558c-30,0 -58,-2 -84,-7 -27,-4 -51,-11 -74,-19 -23,-9 -43,-20 -62,-32 -19,-12 -36,-25 -52,-41 -15,-15 -29,-32 -40,-50 -12,-18 -21,-37 -29,-58 -8,-20 -14,-42 -17,-64 -4,-22 -6,-44 -6,-68l0 -245c0,-22 2,-44 5,-66 3,-21 8,-42 15,-62 7,-21 16,-40 26,-58 11,-18 24,-35 39,-50 14,-16 31,-30 50,-42 19,-13 40,-23 63,-32 23,-9 49,-16 77,-20 27,-5 57,-7 89,-7 65,0 120,9 166,27 23,9 44,19 63,32 19,12 36,26 51,42 14,15 27,32 38,50 11,18 19,37 26,58 7,20 12,41 15,62 4,22 5,44 5,66l0 245c0,24 -1,46 -5,68 -4,22 -10,44 -18,64 -7,21 -17,40 -29,58 -11,18 -25,35 -40,50 -15,16 -32,29 -51,41 -19,12 -40,23 -63,32 -23,8 -47,15 -74,19 -26,5 -54,7 -84,7zm0 -737c-28,0 -52,3 -71,10 -19,7 -33,17 -44,31 -11,13 -19,30 -25,48 -5,19 -8,40 -8,64l0 245c0,46 12,84 36,113 11,14 26,24 44,31 19,7 42,11 68,11 26,0 49,-4 68,-11 18,-7 33,-17 45,-31 24,-29 36,-67 36,-113l0 -245c0,-24 -3,-45 -9,-64 -6,-18 -14,-35 -25,-48 -10,-14 -25,-24 -44,-31 -19,-7 -43,-10 -71,-10zm837 544l-34 0c-27,0 -52,-2 -76,-5 -25,-3 -48,-8 -70,-15 -21,-6 -42,-14 -61,-24 -19,-10 -36,-21 -52,-34 -16,-13 -30,-27 -42,-43 -12,-15 -23,-33 -31,-51 -9,-19 -15,-39 -19,-61 -4,-21 -7,-43 -7,-67 0,-20 2,-39 5,-58l0 0c3,-19 8,-38 14,-56 7,-19 15,-36 26,-52 10,-17 22,-32 36,-46 15,-14 31,-27 50,-38 18,-12 39,-21 61,-30 23,-8 48,-14 76,-18 27,-4 57,-7 90,-7l34 0 0 -31c0,-6 1,-12 2,-19 2,-6 4,-12 8,-17 3,-6 6,-11 11,-16 4,-5 8,-9 13,-14 5,-4 11,-8 17,-11 5,-3 11,-6 18,-8 6,-2 12,-4 19,-5 7,-2 13,-2 20,-2 15,0 30,2 43,6 13,5 25,12 35,21l0 1c20,18 30,39 30,64l0 31 33 0c32,0 62,3 90,7 27,4 53,10 75,18 23,9 44,19 63,30 18,11 35,24 49,38 14,14 26,29 37,46 10,16 18,33 25,52 6,18 11,37 14,56 3,19 5,38 5,58 0,24 -2,46 -6,67 -5,22 -11,42 -20,61 -8,18 -19,36 -31,51 -12,16 -26,30 -42,43 -16,13 -33,24 -52,34 -19,10 -39,18 -61,24 -22,7 -45,12 -69,15 -25,3 -50,5 -77,5l-33 0 0 100c0,13 -3,25 -9,36 -5,11 -13,21 -24,30 -10,9 -22,16 -35,20 -12,5 -26,7 -40,7 -30,0 -55,-9 -76,-27 -10,-9 -19,-19 -24,-30 -6,-11 -8,-23 -8,-36l0 -100zm216 -420l0 235 33 0c48,0 84,-10 108,-29 11,-9 20,-20 25,-35 6,-14 9,-32 9,-53 0,-7 -1,-14 -2,-21 -1,-8 -2,-15 -4,-23 -2,-7 -5,-13 -8,-19 -4,-7 -8,-12 -13,-18 -5,-5 -11,-10 -17,-14 -8,-5 -16,-9 -25,-13 -9,-3 -20,-6 -32,-8 -12,-2 -26,-2 -41,-2l-33 0zm-216 235l0 -235 -34 0c-15,0 -29,0 -41,2 -12,2 -23,5 -32,8 -9,4 -17,8 -25,13 -7,4 -13,9 -18,14l0 1c-5,5 -9,11 -12,17l-1 0c-3,6 -5,12 -7,19 -2,8 -3,15 -4,22 -1,7 -2,15 -2,22 0,21 3,39 9,53 6,15 14,26 25,35 12,9 26,17 44,21 18,5 40,8 64,8l34 0zm1317 273c0,13 -3,25 -9,37 -5,11 -13,21 -24,30 -10,9 -22,16 -35,20l0 0c-13,5 -26,7 -40,7l-358 0c-8,0 -16,-1 -25,-1 -9,-1 -17,-2 -25,-4 -8,-1 -16,-3 -23,-6 -8,-3 -15,-6 -21,-10 -7,-3 -13,-8 -19,-13 -5,-6 -10,-12 -14,-19 -4,-6 -7,-14 -9,-23 -2,-8 -3,-16 -3,-25l0 -697c0,-13 3,-25 10,-38 3,-6 6,-12 10,-17 5,-6 9,-11 14,-15l0 0c5,-5 11,-9 17,-13 6,-4 13,-7 20,-10 7,-3 14,-5 22,-6 8,-1 16,-2 24,-2l366 0c15,0 28,2 41,7 13,4 24,11 35,20 10,10 18,20 24,31 5,11 8,23 8,36 0,13 -3,25 -8,36 -6,11 -14,21 -25,29 -10,9 -22,15 -34,19 -13,4 -26,6 -41,6l-267 0 0 172 242 0c13,0 25,2 38,6 12,5 23,11 34,19 11,9 20,19 25,30 6,11 9,23 9,37 0,13 -3,25 -8,36 -5,11 -13,21 -24,30 -10,9 -21,15 -34,20 -13,4 -26,6 -40,6l-242 0 0 175 281 0c14,0 27,2 39,6 13,4 24,11 35,19 11,9 19,18 25,29 6,11 9,23 9,36z"/>
  </g>
 </g>
</svg>
