<?xml version="1.0" encoding="UTF-8"?>
<!DOCTYPE svg PUBLIC "-//W3C//DTD SVG 1.1//EN" "http://www.w3.org/Graphics/SVG/1.1/DTD/svg11.dtd">
<!-- Creator: CorelDRAW X8 -->
<svg xmlns="http://www.w3.org/2000/svg" xml:space="preserve" width="100%" height="100%" version="1.1" style="shape-rendering:geometricPrecision; text-rendering:geometricPrecision; image-rendering:optimizeQuality; fill-rule:evenodd; clip-rule:evenodd"
viewBox="0 0 7394 1453"
 xmlns:xlink="http://www.w3.org/1999/xlink">
 <defs>
  <style type="text/css">
   <![CDATA[
    .fil0 {fill:black}
   ]]>
  </style>
 </defs>
 <g id="Слой_x0020_1">
  <metadata id="CorelCorpID_0Corel-Layer"/>
  <path class="fil0" d="M0 95l5 1347c57,18 1038,8 1178,8 200,0 377,-64 409,-240 10,-57 9,-260 -7,-311 -18,-59 -57,-110 -101,-144 -23,-18 -30,-17 -48,-36 20,-18 34,-24 55,-45 112,-114 96,-168 96,-349 0,-218 -104,-321 -322,-321l-1174 0c-90,0 -91,1 -91,91zm376 487l717 0c121,-2 107,-22 107,-134 0,-169 28,-144 -337,-144 -162,0 -325,-1 -487,0l0 278zm3871 57c123,7 716,12 791,-15 16,-66 18,-229 -1,-293 -96,-26 -654,-19 -788,-13l-2 321zm-3870 488l724 0c124,1 106,-22 106,-137 0,-168 27,-142 -344,-142 -162,0 -325,0 -487,0l1 279zm1508 -543l387 3 1 -256 900 -1 0 255 387 1c2,-224 31,-460 -154,-546 -124,-58 -515,-36 -679,-36 -162,0 -562,-20 -683,32 -191,80 -162,317 -159,548zm1675 275l-387 0 -1 253 -898 0 -2 -251 -387 -2c-15,662 79,591 834,591 763,0 860,74 841,-591zm2179 584c90,17 226,7 322,7 67,0 56,-40 56,-99l0 -521 281 234c34,28 57,53 91,81 64,53 123,106 187,158 40,33 144,147 198,147l460 0c174,0 -86,-176 -109,-195l-400 -330c-20,-16 -38,-32 -59,-48l-225 -189 445 -342c75,-55 150,-112 224,-170 64,-51 155,-99 145,-144 -8,-34 -43,-28 -78,-28l-378 0c-51,0 -45,4 -108,56l-674 529 0 -503c0,-111 -4,-82 -335,-82 -71,0 -51,64 -51,132 0,230 -11,1242 8,1307zm-1857 1c46,12 315,13 358,-1 19,-62 7,-413 8,-510l195 -2c51,0 67,23 91,50l452 411c30,28 38,58 90,58l378 0c197,0 -67,-164 -169,-259l-263 -222c-12,-11 -27,-27 -36,-36l57 -2c445,-1 380,-225 379,-615 -1,-325 -232,-312 -519,-312 -276,0 -553,0 -829,0 -240,0 -201,-35 -201,206 0,198 -11,1177 9,1234z"/>
 </g>
</svg>
