<?xml version="1.0" encoding="UTF-8"?>
<!DOCTYPE svg PUBLIC "-//W3C//DTD SVG 1.1//EN" "http://www.w3.org/Graphics/SVG/1.1/DTD/svg11.dtd">
<!-- Creator: CorelDRAW X8 -->
<svg xmlns="http://www.w3.org/2000/svg" xml:space="preserve" width="100%" height="100%" version="1.1" style="shape-rendering:geometricPrecision; text-rendering:geometricPrecision; image-rendering:optimizeQuality; fill-rule:evenodd; clip-rule:evenodd"
viewBox="0 0 9617 2113"
 xmlns:xlink="http://www.w3.org/1999/xlink">
 <defs>
  <style type="text/css">
   <![CDATA[
    .str23 {stroke:#34373D;stroke-width:97.36}
    .str24 {stroke:#34383D;stroke-width:97.36}
    .str25 {stroke:#35383E;stroke-width:97.36}
    .str26 {stroke:#35393E;stroke-width:97.36}
    .str27 {stroke:#36393F;stroke-width:97.36}
    .str28 {stroke:#363A3F;stroke-width:97.36}
    .str29 {stroke:#373A40;stroke-width:97.36}
    .str30 {stroke:#373B40;stroke-width:97.36}
    .str31 {stroke:#383B41;stroke-width:97.36}
    .str12 {stroke:#383C41;stroke-width:97.36}
    .str32 {stroke:#393C42;stroke-width:97.36}
    .str13 {stroke:#393D42;stroke-width:97.36}
    .str33 {stroke:#393D43;stroke-width:97.36}
    .str14 {stroke:#3A3E43;stroke-width:97.36}
    .str34 {stroke:#3A3E44;stroke-width:97.36}
    .str15 {stroke:#3B3F44;stroke-width:97.36}
    .str35 {stroke:#3B3F45;stroke-width:97.36}
    .str16 {stroke:#3C4045;stroke-width:97.36}
    .str36 {stroke:#3C4046;stroke-width:97.36}
    .str17 {stroke:#3D4146;stroke-width:97.36}
    .str37 {stroke:#3D4147;stroke-width:97.36}
    .str18 {stroke:#3D4247;stroke-width:97.36}
    .str38 {stroke:#3E4248;stroke-width:97.36}
    .str19 {stroke:#3E4348;stroke-width:97.36}
    .str39 {stroke:#3F4349;stroke-width:97.36}
    .str20 {stroke:#3F4449;stroke-width:97.36}
    .str40 {stroke:#40444A;stroke-width:97.36}
    .str21 {stroke:#40454A;stroke-width:97.36}
    .str41 {stroke:#40454B;stroke-width:97.36}
    .str22 {stroke:#41464B;stroke-width:97.36}
    .str42 {stroke:#41464C;stroke-width:97.36}
    .str0 {stroke:#42474C;stroke-width:97.36}
    .str1 {stroke:#454A4F;stroke-width:97.36}
    .str2 {stroke:#484D52;stroke-width:97.36}
    .str3 {stroke:#4B5056;stroke-width:97.36}
    .str4 {stroke:#4E5359;stroke-width:97.36}
    .str5 {stroke:#51575C;stroke-width:97.36}
    .str6 {stroke:#545A5F;stroke-width:97.36}
    .str7 {stroke:#575D63;stroke-width:97.36}
    .str8 {stroke:#5A6066;stroke-width:97.36}
    .str9 {stroke:#5D6469;stroke-width:97.36}
    .str10 {stroke:#60676C;stroke-width:97.36}
    .str11 {stroke:#636A6F;stroke-width:97.36}
    .str77 {stroke:#676E73;stroke-width:97.36}
    .str67 {stroke:#676F74;stroke-width:97.36}
    .str78 {stroke:#6A7177;stroke-width:97.36}
    .str68 {stroke:#6C7378;stroke-width:97.36}
    .str79 {stroke:#6E757A;stroke-width:97.36}
    .str69 {stroke:#70787D;stroke-width:97.36}
    .str80 {stroke:#71797E;stroke-width:97.36}
    .str70 {stroke:#757C81;stroke-width:97.36}
    .str81 {stroke:#757C82;stroke-width:97.36}
    .str82 {stroke:#798085;stroke-width:97.36}
    .str71 {stroke:#798186;stroke-width:97.36}
    .str83 {stroke:#7C8489;stroke-width:97.36}
    .str72 {stroke:#7D858A;stroke-width:97.36}
    .str84 {stroke:#80888C;stroke-width:97.36}
    .str73 {stroke:#828A8E;stroke-width:97.36}
    .str85 {stroke:#848B90;stroke-width:97.36}
    .str74 {stroke:#878E93;stroke-width:97.36}
    .str86 {stroke:#888F94;stroke-width:97.36}
    .str75 {stroke:#8B9397;stroke-width:97.36}
    .str87 {stroke:#8F979B;stroke-width:97.36}
    .str76 {stroke:#90979C;stroke-width:97.36}
    .str88 {stroke:#939B9F;stroke-width:97.36}
    .str56 {stroke:#949CA0;stroke-width:97.36}
    .str57 {stroke:#989FA3;stroke-width:97.36}
    .str58 {stroke:#9BA3A7;stroke-width:97.36}
    .str89 {stroke:#9CA3A8;stroke-width:97.36}
    .str59 {stroke:#9FA6AA;stroke-width:97.36}
    .str90 {stroke:#A0A8AC;stroke-width:97.36}
    .str60 {stroke:#A2A9AD;stroke-width:97.36}
    .str91 {stroke:#A5ACB0;stroke-width:97.36}
    .str61 {stroke:#A6ADB0;stroke-width:97.36}
    .str62 {stroke:#A9B0B4;stroke-width:97.36}
    .str63 {stroke:#ADB3B7;stroke-width:97.36}
    .str92 {stroke:#AEB4B8;stroke-width:97.36}
    .str64 {stroke:#B0B7BA;stroke-width:97.36}
    .str93 {stroke:#B2B9BC;stroke-width:97.36}
    .str65 {stroke:#B4BABD;stroke-width:97.36}
    .str94 {stroke:#B6BDC0;stroke-width:97.36}
    .str66 {stroke:#B7BDC1;stroke-width:97.36}
    .str43 {stroke:#BBC1C4;stroke-width:97.36}
    .str44 {stroke:#C1C7C9;stroke-width:97.36}
    .str45 {stroke:#C7CCCF;stroke-width:97.36}
    .str46 {stroke:#CDD2D4;stroke-width:97.36}
    .str47 {stroke:#D3D7D9;stroke-width:97.36}
    .str48 {stroke:#D9DDDE;stroke-width:97.36}
    .str49 {stroke:#DFE2E4;stroke-width:97.36}
    .str50 {stroke:#E5E8E9;stroke-width:97.36}
    .str51 {stroke:#ECEEEE;stroke-width:97.36}
    .str52 {stroke:#F2F3F4;stroke-width:97.36}
    .str53 {stroke:#F8F9F9;stroke-width:97.36}
    .str54 {stroke:white;stroke-width:97.36}
    .str55 {stroke:white;stroke-width:155.79}
    .fil3 {fill:none;fill-rule:nonzero}
    .fil1 {fill:#EC1B24}
    .fil0 {fill:#848688;fill-rule:nonzero}
    .fil2 {fill:#DEE1E3;fill-rule:nonzero}
   ]]>
  </style>
   <clipPath id="id0" style="clip-rule:nonzero">
    <path d="M1057 2004c-524,0 -948,-424 -948,-947 0,-524 424,-948 948,-948 523,0 947,424 947,948 0,523 -424,947 -947,947zm368 -1610c-2,-2 -5,-2 -8,-2 -9,0 -17,7 -17,16l0 322c0,18 -15,33 -33,33l-621 0c-18,0 -33,-15 -33,-33l0 -322c0,-9 -7,-16 -17,-16 -3,0 -6,0 -8,2 -224,136 -373,382 -373,663 0,280 149,526 373,662 2,2 5,3 8,3 10,0 17,-8 17,-17l0 -322c0,-18 15,-33 33,-33l621 0c18,0 33,15 33,33l0 322c0,9 8,17 17,17 3,0 6,-1 8,-3 224,-136 374,-382 374,-662 0,-281 -150,-527 -374,-663zm-1000 663c0,-183 72,-349 189,-471 -7,49 -12,103 -12,161l0 619c0,58 5,113 12,161 -117,-122 -189,-287 -189,-470zm975 149c0,18 -15,33 -33,33l-621 0c-18,0 -33,-15 -33,-33l0 -299c0,-18 15,-33 33,-33l621 0c18,0 33,15 33,33l0 299zm99 321c7,-48 12,-103 12,-161l0 -619c0,-58 -5,-112 -12,-161 117,122 189,288 189,471 0,183 -72,348 -189,470zm-1478 -470c0,571 465,1035 1036,1035 571,0 1035,-464 1035,-1035 0,-572 -464,-1036 -1035,-1036 -571,0 -1036,464 -1036,1036z"/>
   </clipPath>
   <clipPath id="id1" style="clip-rule:nonzero">
    <path d="M65 1057c0,-547 445,-992 992,-992 546,0 991,445 991,992 0,546 -445,991 -991,991 -547,0 -992,-445 -992,-991zm24 0c0,-534 434,-968 968,-968 533,0 967,434 967,968 0,533 -434,967 -967,967 -534,0 -968,-434 -968,-967z"/>
   </clipPath>
 </defs>
 <g id="Слой_x0020_1">
  <metadata id="CorelCorpID_0Corel-Layer"/>
  <path id="path59" class="fil0" d="M0 1065c0,283 111,548 312,744 201,196 468,304 753,304 578,0 1048,-470 1048,-1048 0,-285 -108,-552 -303,-753 -197,-201 -462,-312 -745,-312 -587,0 -1065,478 -1065,1065zm406 651l0 0c-180,-175 -279,-406 -279,-651 0,-517 421,-938 938,-938 245,0 476,99 651,279 174,179 270,413 270,659 0,508 -413,921 -921,921 -246,0 -480,-96 -659,-270zm976 -1300l0 327 -651 0 0 -327c0,-41 -13,-44 -26,-44 -8,0 -16,2 -23,6 -243,147 -387,404 -387,687 0,276 141,520 387,670 7,4 15,6 23,6 24,0 26,-26 26,-26l0 -345 651 0 0 345c0,13 3,26 44,26 3,0 8,0 14,-4 233,-139 378,-396 378,-672 0,-281 -145,-551 -369,-687 -7,-4 -15,-6 -23,-6 -24,0 -44,20 -44,44zm-823 1006c-79,-120 -116,-233 -116,-357 0,-162 63,-292 116,-373l26 -41 -2 71 0 671c0,-1 0,22 0,22l2 48 -26 -41zm172 -214l0 -317 651 0 0 331 -651 0 0 -14zm798 -509l-2 -64 27 43c75,122 116,260 116,387 0,164 -62,285 -116,372l-27 43c0,0 2,-72 2,-72 0,0 0,-700 0,-700l1 3 -1 -12z"/>
  <g id="q57">
   <g id="xfrm58">
    <path id="path3190" class="fil1" d="M3977 1328c0,-81 -60,-137 -185,-137l-251 0 0 275 257 0c105,0 179,-37 179,-138zm-45 -547c0,-78 -54,-132 -134,-132l-257 0 0 261 251 0c90,0 140,-67 140,-129zm418 586c0,236 -217,391 -437,391l-716 0 0 -1401 656 0c253,0 436,126 436,385 0,221 -193,288 -193,288 0,2 254,60 254,337z"/>
   </g>
  </g>
  <g id="q59">
   <g id="xfrm60">
    <path id="path3194" class="fil1" d="M5422 1057c0,-220 -100,-398 -299,-398 -199,0 -298,178 -298,398 0,221 99,399 298,399 199,0 299,-178 299,-399zm345 0c0,411 -236,734 -644,734 -407,0 -645,-323 -645,-734 0,-410 238,-735 645,-735 408,0 644,325 644,735z"/>
   </g>
  </g>
  <g id="q61">
   <g id="xfrm62">
    <path id="path3198" class="fil1" d="M6970 1334c0,308 -279,457 -541,457 -304,0 -460,-116 -583,-263l224 -219c94,120 217,180 355,180 112,0 188,-56 188,-139 0,-89 -67,-116 -250,-155l-49 -10c-221,-47 -403,-172 -403,-422 0,-276 224,-441 520,-441 250,0 412,107 511,219l-218 215c-68,-72 -170,-130 -287,-130 -80,0 -170,37 -170,130 0,85 94,116 213,141l49 11c200,41 441,103 441,426z"/>
   </g>
  </g>
  <g id="q63">
   <g id="xfrm64">
    <path id="path3202" class="fil1" d="M8303 1487c-144,207 -277,304 -554,304 -394,0 -648,-327 -648,-743 0,-395 229,-724 652,-724 232,0 398,91 540,304l-283 188c-58,-99 -132,-157 -255,-157 -156,0 -306,140 -306,389 0,280 163,408 317,408 133,0 194,-66 252,-161l285 192z"/>
   </g>
  </g>
  <g id="q65">
   <g id="xfrm66">
    <polygon id="path3206" class="fil1" points="9617,1758 9248,1758 9248,1206 8823,1206 8823,1758 8456,1758 8456,357 8823,357 8823,872 9248,872 9248,357 9617,357 "/>
   </g>
  </g>
  <g>
  </g>
  <g style="clip-path:url(#id0)">
   <g>
    <path id="path1622" class="fil2" d="M1057 2004c-524,0 -948,-424 -948,-947 0,-524 424,-948 948,-948 523,0 947,424 947,948 0,523 -424,947 -947,947zm368 -1610c-2,-2 -5,-2 -8,-2 -9,0 -17,7 -17,16l0 322c0,18 -15,33 -33,33l-621 0c-18,0 -33,-15 -33,-33l0 -322c0,-9 -7,-16 -17,-16 -3,0 -6,0 -8,2 -224,136 -373,382 -373,663 0,280 149,526 373,662 2,2 5,3 8,3 10,0 17,-8 17,-17l0 -322c0,-18 15,-33 33,-33l621 0c18,0 33,15 33,33l0 322c0,9 8,17 17,17 3,0 6,-1 8,-3 224,-136 374,-382 374,-662 0,-281 -150,-527 -374,-663zm-1000 663c0,-183 72,-349 189,-471 -7,49 -12,103 -12,161l0 619c0,58 5,113 12,161 -117,-122 -189,-287 -189,-470zm975 149c0,18 -15,33 -33,33l-621 0c-18,0 -33,-15 -33,-33l0 -299c0,-18 15,-33 33,-33l621 0c18,0 33,15 33,33l0 299zm99 321c7,-48 12,-103 12,-161l0 -619c0,-58 -5,-112 -12,-161 117,122 189,288 189,471 0,183 -72,348 -189,470zm-1478 -470c0,571 465,1035 1036,1035 571,0 1035,-464 1035,-1035 0,-572 -464,-1036 -1035,-1036 -571,0 -1036,464 -1036,1036z"/>
   </g>
  </g>
  <path class="fil3" d="M1057 2004c-524,0 -948,-424 -948,-947 0,-524 424,-948 948,-948 523,0 947,424 947,948 0,523 -424,947 -947,947zm368 -1610c-2,-2 -5,-2 -8,-2 -9,0 -17,7 -17,16l0 322c0,18 -15,33 -33,33l-621 0c-18,0 -33,-15 -33,-33l0 -322c0,-9 -7,-16 -17,-16 -3,0 -6,0 -8,2 -224,136 -373,382 -373,663 0,280 149,526 373,662 2,2 5,3 8,3 10,0 17,-8 17,-17l0 -322c0,-18 15,-33 33,-33l621 0c18,0 33,15 33,33l0 322c0,9 8,17 17,17 3,0 6,-1 8,-3 224,-136 374,-382 374,-662 0,-281 -150,-527 -374,-663zm-1000 663c0,-183 72,-349 189,-471 -7,49 -12,103 -12,161l0 619c0,58 5,113 12,161 -117,-122 -189,-287 -189,-470zm975 149c0,18 -15,33 -33,33l-621 0c-18,0 -33,-15 -33,-33l0 -299c0,-18 15,-33 33,-33l621 0c18,0 33,15 33,33l0 299zm99 321c7,-48 12,-103 12,-161l0 -619c0,-58 -5,-112 -12,-161 117,122 189,288 189,471 0,183 -72,348 -189,470zm-1478 -470c0,571 465,1035 1036,1035 571,0 1035,-464 1035,-1035 0,-572 -464,-1036 -1035,-1036 -571,0 -1036,464 -1036,1036z"/>
  <g>
  </g>
  <g style="clip-path:url(#id1)">
   <g>
    <line id="path2036" class="fil3 str0" x1="1057" y1="138" x2="1057" y2= "55" />
    <line id="path2038" class="fil3 str1" x1="1092" y1="139" x2="1095" y2= "55" />
    <line id="path2040" class="fil3 str2" x1="1127" y1="140" x2="1133" y2= "57" />
    <line id="path2042" class="fil3 str3" x1="1162" y1="144" x2="1171" y2= "61" />
    <line id="path2044" class="fil3 str4" x1="1196" y1="148" x2="1208" y2= "66" />
    <line id="path2046" class="fil3 str5" x1="1230" y1="154" x2="1245" y2= "72" />
    <line id="path2048" class="fil3 str6" x1="1263" y1="161" x2="1281" y2= "80" />
    <line id="path2050" class="fil3 str7" x1="1295" y1="169" x2="1316" y2= "89" />
    <line id="path2052" class="fil3 str8" x1="1328" y1="179" x2="1352" y2= "99" />
    <line id="path2054" class="fil3 str9" x1="1360" y1="189" x2="1386" y2= "111" />
    <line id="path2056" class="fil3 str10" x1="1391" y1="201" x2="1421" y2= "123" />
    <line id="path2058" class="fil3 str11" x1="1422" y1="214" x2="1454" y2= "137" />
    <line id="path2060" class="fil3 str12" x1="685" y1="216" x2="651" y2= "140" />
    <line id="path2062" class="fil3 str13" x1="716" y1="202" x2="685" y2= "125" />
    <line id="path2064" class="fil3 str14" x1="748" y1="190" x2="720" y2= "112" />
    <line id="path2066" class="fil3 str15" x1="781" y1="179" x2="756" y2= "100" />
    <line id="path2068" class="fil3 str16" x1="813" y1="170" x2="791" y2= "89" />
    <line id="path2070" class="fil3 str17" x1="847" y1="161" x2="828" y2= "80" />
    <line id="path2072" class="fil3 str18" x1="880" y1="154" x2="865" y2= "73" />
    <line id="path2074" class="fil3 str19" x1="915" y1="148" x2="902" y2= "66" />
    <line id="path2076" class="fil3 str20" x1="949" y1="144" x2="940" y2= "61" />
    <line id="path2078" class="fil3 str21" x1="984" y1="140" x2="978" y2= "58" />
    <line id="path2080" class="fil3 str22" x1="1020" y1="139" x2="1017" y2= "55" />
    <line id="path2082" class="fil3 str0" x1="1057" y1="138" x2="1057" y2= "55" />
    <line id="path2084" class="fil3 str23" x1="407" y1="406" x2="348" y2= "347" />
    <line id="path2086" class="fil3 str24" x1="429" y1="384" x2="373" y2= "323" />
    <line id="path2088" class="fil3 str25" x1="452" y1="364" x2="397" y2= "301" />
    <line id="path2090" class="fil3 str25" x1="475" y1="344" x2="423" y2= "279" />
    <line id="path2092" class="fil3 str26" x1="499" y1="325" x2="449" y2= "259" />
    <line id="path2094" class="fil3 str27" x1="524" y1="307" x2="476" y2= "239" />
    <line id="path2096" class="fil3 str28" x1="549" y1="290" x2="503" y2= "220" />
    <line id="path2098" class="fil3 str29" x1="575" y1="273" x2="532" y2= "202" />
    <line id="path2100" class="fil3 str30" x1="601" y1="258" x2="560" y2= "185" />
    <line id="path2102" class="fil3 str30" x1="628" y1="243" x2="590" y2= "169" />
    <line id="path2104" class="fil3 str31" x1="656" y1="229" x2="620" y2= "154" />
    <line id="path2106" class="fil3 str12" x1="684" y1="216" x2="651" y2= "140" />
    <line id="path2108" class="fil3 str23" x1="407" y1="406" x2="348" y2= "347" />
    <line id="path2110" class="fil3 str25" x1="386" y1="428" x2="325" y2= "371" />
    <line id="path2112" class="fil3 str27" x1="365" y1="450" x2="303" y2= "395" />
    <line id="path2114" class="fil3 str29" x1="345" y1="474" x2="281" y2= "420" />
    <line id="path2116" class="fil3 str31" x1="326" y1="497" x2="261" y2= "446" />
    <line id="path2118" class="fil3 str32" x1="308" y1="521" x2="241" y2= "473" />
    <line id="path2120" class="fil3 str33" x1="291" y1="546" x2="222" y2= "500" />
    <line id="path2122" class="fil3 str34" x1="274" y1="572" x2="204" y2= "528" />
    <line id="path2124" class="fil3 str35" x1="259" y1="598" x2="187" y2= "557" />
    <line id="path2126" class="fil3 str36" x1="244" y1="625" x2="171" y2= "586" />
    <line id="path2128" class="fil3 str37" x1="230" y1="652" x2="155" y2= "616" />
    <path id="path2130" class="fil3 str38" d="M217 680l-76 -34m0 0l76 34"/>
    <line id="path2132" class="fil3 str19" x1="126" y1="681" x2="203" y2= "712" />
    <line id="path2134" class="fil3 str39" x1="113" y1="716" x2="191" y2= "745" />
    <line id="path2136" class="fil3 str20" x1="100" y1="752" x2="180" y2= "777" />
    <line id="path2138" class="fil3 str20" x1="90" y1="788" x2="170" y2= "810" />
    <line id="path2140" class="fil3 str40" x1="80" y1="825" x2="161" y2= "844" />
    <line id="path2142" class="fil3 str21" x1="72" y1="862" x2="154" y2= "878" />
    <line id="path2144" class="fil3 str41" x1="65" y1="900" x2="148" y2= "913" />
    <line id="path2146" class="fil3 str22" x1="60" y1="939" x2="143" y2= "948" />
    <line id="path2148" class="fil3 str22" x1="57" y1="978" x2="140" y2= "983" />
    <line id="path2150" class="fil3 str42" x1="54" y1="1017" x2="137" y2= "1020" />
    <line id="path2152" class="fil3 str0" x1="54" y1="1057" x2="137" y2= "1056" />
    <line id="path2154" class="fil3 str43" x1="679" y1="1983" x2="710" y2= "1906" />
    <line id="path2156" class="fil3 str44" x1="711" y1="1996" x2="740" y2= "1918" />
    <line id="path2158" class="fil3 str45" x1="744" y1="2007" x2="770" y2= "1929" />
    <line id="path2160" class="fil3 str46" x1="777" y1="2018" x2="800" y2= "1938" />
    <line id="path2162" class="fil3 str47" x1="810" y1="2027" x2="831" y2= "1947" />
    <line id="path2164" class="fil3 str48" x1="844" y1="2035" x2="862" y2= "1954" />
    <line id="path2166" class="fil3 str49" x1="878" y1="2042" x2="893" y2= "1960" />
    <line id="path2168" class="fil3 str50" x1="913" y1="2048" x2="925" y2= "1966" />
    <line id="path2170" class="fil3 str51" x1="948" y1="2052" x2="957" y2= "1970" />
    <line id="path2172" class="fil3 str52" x1="984" y1="2055" x2="990" y2= "1973" />
    <line id="path2174" class="fil3 str53" x1="1020" y1="2057" x2="1023" y2= "1974" />
    <line id="path2176" class="fil3 str54" x1="1057" y1="2058" x2="1057" y2= "1975" />
    <path id="path2178" class="fil3 str55" d="M2017 1057c0,535 -425,959 -960,959"/>
    <line id="path2180" class="fil3 str56" x1="343" y1="1758" x2="401" y2= "1699" />
    <line id="path2182" class="fil3 str57" x1="369" y1="1784" x2="426" y2= "1723" />
    <line id="path2184" class="fil3 str58" x1="396" y1="1809" x2="451" y2= "1746" />
    <line id="path2186" class="fil3 str59" x1="425" y1="1833" x2="477" y2= "1768" />
    <line id="path2188" class="fil3 str60" x1="454" y1="1855" x2="503" y2= "1789" />
    <line id="path2190" class="fil3 str61" x1="483" y1="1877" x2="530" y2= "1809" />
    <line id="path2192" class="fil3 str62" x1="514" y1="1897" x2="558" y2= "1827" />
    <line id="path2194" class="fil3 str63" x1="545" y1="1917" x2="587" y2= "1845" />
    <line id="path2196" class="fil3 str64" x1="577" y1="1935" x2="617" y2= "1862" />
    <line id="path2198" class="fil3 str65" x1="610" y1="1952" x2="647" y2= "1878" />
    <line id="path2200" class="fil3 str66" x1="644" y1="1968" x2="678" y2= "1893" />
    <line id="path2202" class="fil3 str43" x1="679" y1="1983" x2="710" y2= "1906" />
    <line id="path2204" class="fil3 str11" x1="129" y1="1430" x2="205" y2= "1398" />
    <line id="path2206" class="fil3 str67" x1="143" y1="1463" x2="219" y2= "1429" />
    <line id="path2208" class="fil3 str68" x1="158" y1="1496" x2="232" y2= "1459" />
    <line id="path2210" class="fil3 str69" x1="174" y1="1528" x2="247" y2= "1488" />
    <line id="path2212" class="fil3 str70" x1="192" y1="1559" x2="263" y2= "1517" />
    <line id="path2214" class="fil3 str71" x1="210" y1="1590" x2="280" y2= "1545" />
    <line id="path2216" class="fil3 str72" x1="229" y1="1620" x2="298" y2= "1572" />
    <line id="path2218" class="fil3 str73" x1="250" y1="1649" x2="316" y2= "1599" />
    <line id="path2220" class="fil3 str74" x1="272" y1="1677" x2="336" y2= "1625" />
    <line id="path2222" class="fil3 str75" x1="294" y1="1705" x2="357" y2= "1650" />
    <line id="path2224" class="fil3 str76" x1="318" y1="1732" x2="378" y2= "1675" />
    <line id="path2226" class="fil3 str56" x1="343" y1="1758" x2="401" y2= "1699" />
    <line id="path2228" class="fil3 str0" x1="54" y1="1057" x2="137" y2= "1056" />
    <line id="path2230" class="fil3 str1" x1="54" y1="1093" x2="137" y2= "1089" />
    <line id="path2232" class="fil3 str2" x1="56" y1="1129" x2="139" y2= "1122" />
    <line id="path2234" class="fil3 str3" x1="60" y1="1164" x2="142" y2= "1154" />
    <line id="path2236" class="fil3 str4" x1="64" y1="1199" x2="146" y2= "1186" />
    <line id="path2238" class="fil3 str5" x1="70" y1="1233" x2="152" y2= "1217" />
    <line id="path2240" class="fil3 str6" x1="77" y1="1267" x2="158" y2= "1248" />
    <line id="path2242" class="fil3 str7" x1="85" y1="1300" x2="166" y2= "1278" />
    <line id="path2244" class="fil3 str8" x1="95" y1="1333" x2="174" y2= "1308" />
    <line id="path2246" class="fil3 str9" x1="105" y1="1366" x2="184" y2= "1338" />
    <line id="path2248" class="fil3 str10" x1="116" y1="1398" x2="194" y2= "1368" />
    <path id="path2250" class="fil3 str11" d="M129 1430l76 -32m1217 -1184l32 -77"/>
    <line id="path2252" class="fil3 str77" x1="1451" y1="227" x2="1486" y2= "152" />
    <line id="path2254" class="fil3 str78" x1="1480" y1="241" x2="1517" y2= "167" />
    <line id="path2256" class="fil3 str79" x1="1507" y1="256" x2="1547" y2= "183" />
    <line id="path2258" class="fil3 str80" x1="1534" y1="271" x2="1576" y2= "200" />
    <line id="path2260" class="fil3 str81" x1="1561" y1="288" x2="1605" y2= "217" />
    <line id="path2262" class="fil3 str82" x1="1587" y1="305" x2="1633" y2= "236" />
    <line id="path2264" class="fil3 str83" x1="1612" y1="323" x2="1661" y2= "256" />
    <line id="path2266" class="fil3 str84" x1="1636" y1="342" x2="1688" y2= "276" />
    <line id="path2268" class="fil3 str85" x1="1660" y1="362" x2="1714" y2= "298" />
    <line id="path2270" class="fil3 str86" x1="1683" y1="382" x2="1739" y2= "321" />
    <path id="path2272" class="fil3 str75" d="M1706 404l58 -59m-59 59l59 -59"/>
    <line id="path2274" class="fil3 str87" x1="1729" y1="428" x2="1790" y2= "371" />
    <line id="path2276" class="fil3 str88" x1="1751" y1="453" x2="1814" y2= "398" />
    <line id="path2278" class="fil3 str57" x1="1772" y1="479" x2="1837" y2= "427" />
    <line id="path2280" class="fil3 str89" x1="1793" y1="505" x2="1859" y2= "456" />
    <line id="path2282" class="fil3 str90" x1="1812" y1="533" x2="1880" y2= "485" />
    <line id="path2284" class="fil3 str91" x1="1830" y1="561" x2="1900" y2= "516" />
    <line id="path2286" class="fil3 str62" x1="1847" y1="590" x2="1919" y2= "547" />
    <line id="path2288" class="fil3 str92" x1="1863" y1="619" x2="1936" y2= "579" />
    <line id="path2290" class="fil3 str93" x1="1879" y1="650" x2="1953" y2= "612" />
    <line id="path2292" class="fil3 str94" x1="1893" y1="681" x2="1968" y2= "645" />
    <path id="path2294" class="fil3 str43" d="M1907 712l76 -32m0 0l-76 32"/>
    <line id="path2296" class="fil3 str44" x1="1996" y1="712" x2="1918" y2= "742" />
    <line id="path2298" class="fil3 str45" x1="2007" y1="744" x2="1929" y2= "772" />
    <line id="path2300" class="fil3 str46" x1="2018" y1="777" x2="1938" y2= "802" />
    <line id="path2302" class="fil3 str47" x1="2027" y1="811" x2="1947" y2= "832" />
    <line id="path2304" class="fil3 str48" x1="2035" y1="844" x2="1954" y2= "863" />
    <line id="path2306" class="fil3 str49" x1="2042" y1="879" x2="1960" y2= "894" />
    <line id="path2308" class="fil3 str50" x1="2048" y1="913" x2="1966" y2= "926" />
    <line id="path2310" class="fil3 str51" x1="2052" y1="948" x2="1970" y2= "958" />
    <line id="path2312" class="fil3 str52" x1="2056" y1="984" x2="1973" y2= "990" />
    <line id="path2314" class="fil3 str53" x1="2058" y1="1020" x2="1975" y2= "1023" />
    <line id="path2316" class="fil3 str54" x1="2058" y1="1057" x2="1975" y2= "1057" />
   </g>
  </g>
  <path class="fil3" d="M65 1057c0,-547 445,-992 992,-992 546,0 991,445 991,992 0,546 -445,991 -991,991 -547,0 -992,-445 -992,-991zm24 0c0,-534 434,-968 968,-968 533,0 967,434 967,968 0,533 -434,967 -967,967 -534,0 -968,-434 -968,-967z"/>
 </g>
</svg>
