<?xml version="1.0" encoding="UTF-8"?>
<!DOCTYPE svg PUBLIC "-//W3C//DTD SVG 1.1//EN" "http://www.w3.org/Graphics/SVG/1.1/DTD/svg11.dtd">
<!-- Creator: CorelDRAW X8 -->
<svg xmlns="http://www.w3.org/2000/svg" xml:space="preserve" width="100%" height="100%" version="1.1" style="shape-rendering:geometricPrecision; text-rendering:geometricPrecision; image-rendering:optimizeQuality; fill-rule:evenodd; clip-rule:evenodd"
viewBox="0 0 7394 1302"
 xmlns:xlink="http://www.w3.org/1999/xlink">
 <defs>
  <style type="text/css">
   <![CDATA[
    .fil0 {fill:#870C28}
   ]]>
  </style>
 </defs>
 <g id="Слой_x0020_1">
  <metadata id="CorelCorpID_0Corel-Layer"/>
  <path class="fil0" d="M4836 1300l327 1 0 -321 47 79c15,28 30,52 45,80 23,40 70,127 93,160l278 2c13,-16 170,-302 186,-322l0 321 326 1 0 -746 -511 0c-10,14 -86,175 -103,207l-37 69 -70 -139c-15,-29 -54,-117 -70,-137l-556 0c1,14 23,51 30,65 19,39 15,36 15,85l0 595zm1895 -280l209 1c-16,-37 -34,-78 -51,-113 -11,-23 -43,-102 -54,-114l-104 226zm-3765 0l208 1c-21,-56 -69,-150 -96,-214l-10 -15 -102 228zm-1013 280l1 -280 465 0 0 -185 -464 -1c-5,-14 -3,-75 -1,-93l558 0 0 -184c-23,0 -906,-5 -930,1l0 230 -139 1 -1 232 139 1 1 278 371 0zm-1389 -852c-3,-28 -1,-61 -1,-90 0,-45 -21,-108 -26,-159 -2,-22 -4,-65 -10,-83 -9,119 -35,189 -35,290 0,36 1,73 0,109 -19,11 -33,32 -53,45 -1,-83 4,-100 -13,-182 -5,-29 -10,-53 -13,-83 -3,-23 -5,-67 -11,-87 -3,38 -6,88 -13,124 -6,33 -21,86 -21,117 -1,46 0,93 -1,139 0,54 -1,38 -35,69 -8,8 -8,10 -18,16 -2,-85 4,-95 -13,-181 -6,-29 -11,-52 -14,-83 -2,-22 -3,-67 -10,-84 -6,72 -14,128 -28,197 -13,69 -5,146 -7,218 -18,12 -35,36 -53,45 -1,-66 2,-126 -11,-190 -6,-29 -12,-55 -15,-84 -3,-30 -3,-62 -10,-90 -5,12 -8,71 -10,89 -6,62 -26,113 -26,175 0,34 1,69 0,103l-44 0c0,-33 0,-67 0,-100 0,-62 -20,-112 -26,-173 -2,-22 -3,-76 -10,-92 -6,14 -9,82 -12,103 -3,29 -12,65 -18,95 -11,56 -5,161 -5,223 0,152 -1,304 0,456 216,4 436,1 652,1l486 0c41,0 129,3 164,-2l0 -138 -1208 -1 0 -277c20,-1 40,-1 60,0 30,0 32,2 47,-14 13,-13 19,-16 32,-29l386 -347c12,-10 20,-20 32,-29 20,18 42,39 63,57 57,47 106,95 160,144l226 204c15,15 16,14 44,14 21,-1 43,-1 64,0l0 137 94 1c0,-63 6,-348 -4,-393 -4,-23 -9,-44 -13,-67 -4,-20 -17,-138 -19,-142 -4,15 -7,70 -9,89 -7,62 -26,114 -26,177 0,34 0,68 0,102l-45 1c-1,-67 3,-128 -10,-191 -17,-82 -14,-111 -25,-180 -3,83 -36,201 -36,265 0,34 0,68 0,102 -20,-12 -35,-32 -54,-44 -1,-72 7,-149 -7,-218 -5,-30 -14,-64 -17,-93 -4,-35 -7,-69 -11,-104 -6,20 -8,61 -10,84 -5,59 -26,109 -25,168 0,30 2,68 -1,96 -13,-9 -23,-21 -36,-31 -22,-18 -18,-15 -18,-51 1,-153 8,-109 -20,-255 -7,-35 -12,-89 -14,-126 -7,16 -9,63 -11,85 -5,59 -26,109 -26,168 0,33 1,65 0,98 -19,-11 -35,-35 -54,-47 -3,-69 5,-141 -8,-208 -18,-93 -16,-100 -27,-191 -9,39 -11,105 -22,160 -4,23 -13,57 -14,80 -1,28 3,66 -1,93 -45,-46 -53,-27 -53,-79 0,-42 3,-95 0,-136 -2,-31 -15,-79 -21,-112 -7,-35 -6,-92 -15,-121 -5,40 -6,82 -13,121 -6,33 -20,81 -21,112 -3,42 -1,91 0,134 0,33 2,34 -19,50 -13,11 -22,22 -35,31zm2052 572l-151 1 0 187 79 -1c1,14 -27,73 -32,93l327 1 41 -93 381 0 41 92 326 1 -278 -745 -559 -1 -175 465zm3766 0l-152 1 0 186 80 1 -33 92 322 1c9,-2 8,-8 14,-22 4,-8 7,-15 11,-23 7,-16 16,-32 21,-48 119,-3 259,0 381,0l42 92c102,3 220,1 326,1 -7,-29 -188,-502 -210,-561 -11,-32 -23,-61 -35,-93 -8,-22 -26,-77 -35,-92l-557 0 -87 231c-20,52 -74,189 -88,234zm-2662 -232l-138 1 -1 233 138 0 1 279 978 0 0 -188 -603 0c-5,-16 -2,-71 -2,-91l464 0 2 -187 -466 -1 0 -91 604 0 1 -187 -976 -1 -2 233z"/>
 </g>
</svg>
