<?xml version="1.0" encoding="UTF-8"?>
<!DOCTYPE svg PUBLIC "-//W3C//DTD SVG 1.1//EN" "http://www.w3.org/Graphics/SVG/1.1/DTD/svg11.dtd">
<!-- Creator: CorelDRAW X8 -->
<svg xmlns="http://www.w3.org/2000/svg" xml:space="preserve" width="100%" height="100%" version="1.1" style="shape-rendering:geometricPrecision; text-rendering:geometricPrecision; image-rendering:optimizeQuality; fill-rule:evenodd; clip-rule:evenodd"
viewBox="0 0 12284 5539"
 xmlns:xlink="http://www.w3.org/1999/xlink">
 <defs>
  <style type="text/css">
   <![CDATA[
    .fil0 {fill:#E30613}
   ]]>
  </style>
 </defs>
 <g id="Слой_x0020_1">
  <metadata id="CorelCorpID_0Corel-Layer"/>
  <path class="fil0" d="M7927 1949c-9,15 -14,18 -28,32l-284 305c-21,23 -41,46 -63,68l-262 257c-12,12 -22,19 -35,30 -100,88 -436,405 -556,345 -22,-11 -17,-21 -29,-37 -21,-28 -45,-20 -47,-84 -5,-140 113,-370 173,-482 106,-200 218,-384 340,-572 12,-18 45,-63 51,-81 -43,0 -569,91 -656,106 -256,42 -204,5 -255,108 -162,327 -428,713 -805,799 -63,14 -130,17 -195,5 -211,-38 -108,-320 -57,-442 64,-151 139,-285 224,-418 28,-45 58,-87 83,-130 -30,-3 -680,90 -726,96 -68,10 -54,15 -97,54 -120,108 -244,209 -376,304 -238,170 -502,330 -765,473 -44,24 -230,129 -277,143 8,-21 29,-53 41,-73l286 -486c14,-23 317,-531 328,-562 -60,8 -132,27 -191,40l-576 124c-56,12 -136,23 -189,40 -21,7 -84,111 -99,134 -120,186 -250,373 -372,556 -63,93 -126,187 -188,278l-240 340c-59,81 -169,152 -245,222 -62,57 -123,104 -185,162 -72,66 -136,113 -215,190l-89 87c-19,21 -38,41 -58,60 -55,52 -91,97 -141,149l-55 61c-46,58 -148,158 -192,216 -50,64 -112,121 -161,186l-320 380c-70,85 -144,168 -210,255 -17,22 -33,42 -52,64 -41,50 -122,140 -150,197 -78,161 246,63 307,45 59,-18 117,-43 175,-58 242,-66 490,-134 734,-198 182,-48 321,-127 457,-238 47,-39 74,-74 113,-120 72,-84 138,-172 208,-258 276,-344 549,-691 827,-1033 75,-93 26,-54 132,-101 356,-159 906,-485 1278,-698 21,-12 54,-36 77,-43 -9,46 -30,99 -42,148 -13,53 -23,102 -31,157 -17,113 -19,236 12,342 55,188 214,308 455,300 364,-11 760,-163 1073,-340 16,-9 49,-29 64,-34 15,89 29,149 71,219 55,93 162,154 276,156 55,1 85,-9 134,-13 89,-7 161,-29 237,-58 264,-100 493,-288 701,-468l114 -102c115,-108 217,-214 327,-328 13,-13 22,-25 35,-38l308 -350c25,-29 44,-52 67,-80 60,-70 124,-148 178,-223 11,-15 2,-12 21,-16 29,-8 99,-15 132,-18 -9,23 -40,69 -54,92l-379 623c-102,171 -340,629 -188,855 86,128 234,150 429,122 286,-40 596,-170 840,-305 63,-35 125,-67 183,-104 37,-23 148,-97 176,-110 21,168 56,323 189,428 137,107 308,110 507,76 262,-45 585,-204 804,-357 16,-11 30,-23 47,-31 22,45 8,210 188,320 223,136 455,61 630,-111 20,-20 45,-42 62,-64 36,-47 76,-95 109,-145 18,-27 85,-131 90,-164 -77,-31 -37,-43 -108,3 -69,44 -161,83 -248,88 -209,11 90,-534 116,-588 17,-37 428,-884 439,-924 -350,7 -703,43 -1053,53 -450,14 -907,121 -1275,376 -71,50 -140,100 -201,163 -82,83 -104,118 -173,195 -30,34 -57,64 -87,97 -42,45 -139,145 -187,181 -17,13 -30,28 -48,42 -105,82 -281,219 -412,234 -164,18 -160,-78 -101,-191l132 -236c45,-79 88,-157 132,-237 44,-80 309,-545 323,-592 24,-82 -46,-67 -102,-57l-459 89c-30,5 -159,34 -112,-26l41 -49c15,-18 28,-33 42,-52 101,-133 222,-276 327,-409 54,-68 111,-131 161,-203 108,-155 -95,-73 -166,-51l-924 269c-18,5 -19,4 -28,17l-154 264c-31,55 -64,120 -103,170 -29,38 -108,136 -79,188 24,41 104,17 149,10zm-3355 -1944c-115,28 -319,65 -444,89 -75,15 -147,30 -221,44 -85,17 -118,19 -186,85 -75,70 -157,205 -213,323 -53,115 -144,309 25,364 121,40 346,-14 450,-57 254,-107 467,-375 586,-616 14,-28 29,-65 44,-91 30,-53 82,-171 -41,-141zm6382 2176c-234,26 -424,137 -595,281 -85,72 -394,488 5,486 166,0 206,-25 333,-107 131,-85 254,-189 341,-313 27,-39 60,-95 81,-139 72,-154 5,-228 -165,-208z"/>
 </g>
</svg>
