<?xml version="1.0" encoding="UTF-8"?>
<!DOCTYPE svg PUBLIC "-//W3C//DTD SVG 1.1//EN" "http://www.w3.org/Graphics/SVG/1.1/DTD/svg11.dtd">
<!-- Creator: CorelDRAW X8 -->
<svg xmlns="http://www.w3.org/2000/svg" xml:space="preserve" width="100%" height="100%" version="1.1" style="shape-rendering:geometricPrecision; text-rendering:geometricPrecision; image-rendering:optimizeQuality; fill-rule:evenodd; clip-rule:evenodd"
viewBox="0 0 6836 3629"
 xmlns:xlink="http://www.w3.org/1999/xlink">
 <defs>
  <style type="text/css">
   <![CDATA[
    .fil0 {fill:#C4C4C4}
    .fil1 {fill:#E30011}
   ]]>
  </style>
 </defs>
 <g id="Слой_x0020_1">
  <metadata id="CorelCorpID_0Corel-Layer"/>
  <g id="_1303938940688">
   <path class="fil0" d="M3149 3181c-141,13 -235,10 -391,40 -279,53 -413,88 -676,187 -38,14 -122,44 -145,67 -47,47 -23,119 23,144 51,27 120,-15 161,-31 166,-65 322,-112 496,-153 625,-148 1254,-72 1843,164 58,23 106,53 155,3 46,-45 29,-115 -19,-144 -42,-25 -252,-98 -313,-118 -314,-105 -804,-190 -1134,-159z"/>
   <path class="fil1" d="M4290 1680c-165,56 -136,292 23,238 50,-17 105,-73 112,-135 8,-74 -63,-128 -135,-103zm-2360 -1221c12,21 -89,191 -106,220 -43,73 -83,142 -126,214 -84,142 -166,286 -252,430 -128,213 -250,428 -371,646 -42,75 -81,143 -126,215 -40,65 -89,143 -118,217 -16,40 -25,117 34,110 43,-5 143,-133 172,-169 27,-33 48,-60 74,-96 71,-100 141,-194 221,-285 95,-110 183,-211 282,-314 14,-14 31,-27 45,-41 31,-34 51,-55 83,-87 37,-40 132,-154 178,-160 -7,45 -45,106 -68,142 -15,23 -30,45 -42,67 -12,23 -25,52 -38,71 -60,87 -107,178 -163,272 -53,88 -112,174 -165,266 -37,62 -144,231 -78,313 56,71 213,-126 247,-159 132,-130 248,-254 375,-387 49,-52 239,-252 287,-254 -38,74 -130,208 -179,292 -89,152 -224,362 -238,555 -8,102 22,190 78,235 78,63 147,54 236,5 133,-72 260,-189 388,-252 32,18 43,34 86,49 38,13 73,18 118,16 65,-4 152,-43 201,-71 58,-33 113,-70 164,-105 27,-18 137,-106 164,-105 -8,83 -91,188 -87,278 6,145 131,119 230,77 131,-56 234,-131 348,-211 31,-22 79,-66 112,-78 -1,60 -101,167 -18,206 74,35 157,-46 185,-85 21,-30 35,-57 54,-88 17,-30 29,-63 46,-96 105,-206 52,-316 -167,-176l-256 169c-56,40 -116,73 -175,110 -19,12 -66,54 -88,28 -9,-30 40,-155 55,-185 27,-59 54,-109 85,-161 46,-75 100,-142 164,-205 108,-107 206,-190 326,-289 65,-54 211,-168 268,-229 39,-40 89,-81 127,-119 124,-123 232,-257 346,-392 37,-45 177,-230 202,-291 28,-68 12,-152 -57,-161 -135,-20 -407,171 -497,246l-134 112c-56,45 -200,188 -250,243 -82,90 -215,243 -274,341 -17,29 -33,48 -51,77 -32,54 -61,102 -92,154l-71 114c-10,15 -13,24 -23,38 -28,43 -62,106 -87,159 -35,72 -47,83 -114,136 -44,35 -94,72 -142,105 -82,55 -217,148 -301,191 -33,17 -137,83 -182,55 -4,-27 80,-90 101,-108l222 -204c62,-61 329,-309 138,-371 -115,-37 -248,12 -343,67 -21,11 -41,26 -64,40 -34,21 -36,25 -60,49 -73,69 -137,147 -187,239 -24,43 -55,95 -69,148 -22,79 -17,117 -61,153 -32,26 -149,118 -185,137 -31,16 -40,24 -66,42 -32,24 -102,79 -158,52 -51,-75 67,-324 99,-381 58,-107 108,-220 176,-320 33,-49 64,-93 98,-148 109,-174 252,-362 350,-521 19,-32 105,-129 52,-161 -24,-14 -86,-8 -110,3 -97,44 -221,142 -290,207 -41,39 -89,76 -132,114 -71,64 -345,356 -388,365 -19,-40 313,-603 350,-663 53,-85 105,-166 153,-254 18,-33 73,-118 44,-151 -40,-45 -105,5 -141,31 -51,37 -88,74 -134,116l-79 78c-18,21 -34,32 -53,51l-99 104c-19,21 -24,33 -49,55 -34,29 -70,71 -101,103 -25,24 -195,189 -216,192 29,-77 144,-264 196,-345l68 -116c86,-154 176,-314 258,-472l126 -238c23,-43 126,-216 67,-264 -63,-51 -197,92 -225,116l-137 137c-16,18 -33,32 -47,48l-218 236c-45,46 -86,100 -130,145l-90 90c-29,31 -52,63 -83,101 -112,133 -215,272 -327,402l-237 307c-127,186 -247,342 -377,541 -47,73 -93,149 -141,224 -55,87 -242,380 -271,458 -11,31 -5,60 26,31 12,-11 30,-28 44,-46 57,-70 168,-249 221,-328 97,-144 203,-291 307,-427 29,-37 51,-67 77,-103l557 -725c83,-106 165,-195 248,-297 12,-15 29,-34 42,-48 42,-48 85,-101 129,-145 70,-68 129,-142 201,-211 14,-13 56,-68 73,-58zm822 1730c37,-23 63,-43 93,-68 47,-38 264,-232 221,-275 -36,-36 -181,102 -200,125 -25,31 -124,162 -114,218zm1143 -634c53,-28 363,-302 407,-349l168 -158c67,-67 290,-299 266,-386 -75,-33 -332,225 -375,267 -10,10 -18,18 -26,27l-79 86c-61,71 -143,171 -193,243 -41,59 -156,188 -168,270zm1247 244c4,29 -19,39 -46,84 -49,82 -79,190 -175,231 -37,15 -72,8 -85,48 -14,41 20,68 28,101 19,75 -185,318 -47,328 29,2 41,-3 60,-14 53,-31 93,-88 121,-149 29,-65 52,-126 90,-180 25,-36 34,-37 84,-53 45,-15 74,-17 126,-15 -6,43 -58,107 -75,165 -48,163 97,229 249,192 34,-8 58,-18 88,-30 23,-8 62,-36 82,-29 23,57 -17,165 103,243 186,121 446,-89 578,-208 22,-19 69,-62 77,-101 -49,4 -80,36 -118,60 -34,23 -79,41 -118,62 -72,36 -170,93 -272,73 -112,-22 -98,-145 -60,-235 61,-141 154,-227 203,-331 16,-32 60,-109 2,-118 -47,-7 -94,37 -120,56 -30,22 -63,-4 -135,-19 -164,-37 -189,13 -277,57 -37,18 -246,88 -286,57 -14,-17 43,-104 54,-123 89,-154 197,-311 297,-456 28,-39 55,-72 81,-108 22,-32 147,-211 105,-249 -38,-11 -120,56 -142,75 -21,19 -38,34 -58,54 -57,58 -106,124 -157,184 -44,51 -71,97 -99,129 -43,48 -200,145 -262,187 -46,31 -240,176 -271,181 1,-43 236,-422 272,-473 43,-63 325,-461 342,-496 33,-74 -115,-46 -185,4 -71,51 -275,355 -320,428 -83,133 -238,388 -314,529 -53,100 -46,112 -148,136 -57,14 -89,35 -66,101 23,66 33,81 5,155 -17,45 -120,249 51,225 69,-10 70,-61 84,-99 50,-133 126,-244 220,-344 86,-93 200,-180 312,-251 25,-16 97,-66 122,-64zm516 306c-77,15 -136,73 -170,122 -48,67 -44,177 68,154 71,-15 129,-74 163,-127 55,-88 56,-173 -61,-149zm749 -1279c-186,31 -337,204 -307,427 14,106 81,188 138,237 137,120 392,118 518,-53 55,-74 93,-172 75,-295 -7,-49 -26,-100 -47,-137 -73,-135 -219,-206 -377,-179zm11 67c-291,65 -320,400 -136,547 55,44 146,77 234,64 159,-24 274,-167 248,-356 -20,-149 -165,-296 -346,-255zm-89 507l74 0 -1 -175 77 0c24,32 72,131 104,174l69 -1c0,-23 -80,-135 -97,-173 38,-27 68,-9 91,-74 18,-48 3,-97 -25,-125 -58,-59 -195,-41 -289,-41l-3 415zm73 -240c74,3 188,20 184,-57 -1,-35 -26,-55 -60,-57 -39,-2 -83,1 -123,0l-1 114z"/>
  </g>
 </g>
</svg>
