<?xml version="1.0" encoding="UTF-8"?>
<!DOCTYPE svg PUBLIC "-//W3C//DTD SVG 1.1//EN" "http://www.w3.org/Graphics/SVG/1.1/DTD/svg11.dtd">
<!-- Creator: CorelDRAW X8 -->
<svg xmlns="http://www.w3.org/2000/svg" xml:space="preserve" width="100%" height="100%" version="1.1" style="shape-rendering:geometricPrecision; text-rendering:geometricPrecision; image-rendering:optimizeQuality; fill-rule:evenodd; clip-rule:evenodd"
viewBox="0 0 4870 779"
 xmlns:xlink="http://www.w3.org/1999/xlink">
 <defs>
  <style type="text/css">
   <![CDATA[
    .fil0 {fill:#009898}
   ]]>
  </style>
 </defs>
 <g id="Слой_x0020_1">
  <metadata id="CorelCorpID_0Corel-Layer"/>
  <g id="_1647059920288">
   <path class="fil0" d="M1745 763l152 0 0 -480c16,18 141,331 154,363l50 123 136 0c1,-21 38,-98 49,-123l160 -363 0 480 209 0 0 -752 -246 0c-21,0 -41,67 -57,105 -18,39 -32,76 -50,117 -16,40 -31,75 -48,114l-49 119c-3,-4 -3,-3 -7,-9l-171 -425c-4,-10 -5,-21 -20,-21l-262 0 0 752z"/>
   <path class="fil0" d="M3496 27l0 736c189,0 157,28 157,-104l0 -361c20,24 196,348 224,403 11,21 26,37 32,62l240 0 0 -752 -151 0 0 465 -244 -441c-7,-13 -7,-24 -23,-24l-219 0c-12,0 -16,4 -16,16z"/>
   <path class="fil0" d="M2822 27l0 736 554 0 0 -146 -335 0 0 -172 288 0 0 -126 -288 0 0 -167 329 0 0 -141 -533 0c-12,0 -15,4 -15,16z"/>
   <path class="fil0" d="M1071 763l554 0 0 -146 -334 0 0 -172 282 0 0 -126 -282 0 0 -167 329 0 0 -125c0,-12 -4,-16 -16,-16l-533 0 0 752z"/>
   <path class="fil0" d="M0 204l0 42c0,95 82,159 148,192l121 51c30,13 97,33 97,76 0,140 -339,32 -356,31l0 152c140,32 330,59 463,-23 81,-50 107,-107 107,-202 0,-200 -371,-248 -371,-324 0,-88 157,-68 216,-54 36,8 65,20 98,28l0 -146c-124,-29 -323,-52 -432,28 -42,31 -91,80 -91,149z"/>
   <path class="fil0" d="M4290 204l0 42c0,95 82,159 148,192 21,10 36,15 59,25 54,22 159,55 159,102 0,29 -17,48 -37,57 -54,27 -152,12 -205,2 -38,-7 -89,-27 -113,-28l0 152c139,32 329,59 463,-23 80,-50 106,-106 106,-202 0,-92 -88,-159 -153,-192 -40,-20 -75,-37 -115,-57 -21,-10 -103,-38 -103,-75 0,-88 158,-68 217,-54 35,8 65,20 97,28l0 -146c-124,-29 -322,-52 -432,28 -42,31 -91,80 -91,149z"/>
   <path class="fil0" d="M679 763l225 0 0 -736c0,-12 -4,-16 -16,-16l-209 0 0 752z"/>
  </g>
 </g>
</svg>
