<?xml version="1.0" encoding="UTF-8"?>
<!DOCTYPE svg PUBLIC "-//W3C//DTD SVG 1.1//EN" "http://www.w3.org/Graphics/SVG/1.1/DTD/svg11.dtd">
<!-- Creator: CorelDRAW X8 -->
<svg xmlns="http://www.w3.org/2000/svg" xml:space="preserve" width="100%" height="100%" version="1.1" style="shape-rendering:geometricPrecision; text-rendering:geometricPrecision; image-rendering:optimizeQuality; fill-rule:evenodd; clip-rule:evenodd"
viewBox="0 0 7602 7069"
 xmlns:xlink="http://www.w3.org/1999/xlink">
 <defs>
  <style type="text/css">
   <![CDATA[
    .fil0 {fill:#fff}
   ]]>
  </style>
 </defs>
 <g id="Слой_x0020_1">
  <metadata id="CorelCorpID_0Corel-Layer"/>
  <path class="fil0" d="M6834 5210c-798,-153 -42,-531 -223,-711 -332,-332 -267,-332 -534,-151 -282,191 -366,-149 -396,-343 -24,-157 -541,-154 -570,-4 -93,487 -191,523 -598,248 -126,-85 -494,278 -400,406 483,659 -309,425 -309,673 0,475 -45,430 285,480 331,51 171,352 61,514 -86,127 278,494 406,400 661,-482 424,309 673,309 451,0 431,40 472,-230 33,-218 222,-267 479,-79 128,94 492,-273 406,-400 -455,-672 346,-406 346,-661 0,-218 42,-424 -98,-451zm-5698 -1144c-706,-943 -610,-2498 225,-3333 929,-929 2433,-929 3362,0 774,774 904,2129 386,3077 -121,220 -456,36 -335,-184 436,-796 320,-1982 -321,-2623 -1182,-1182 -3347,-516 -3409,1465 -16,499 109,967 402,1375l1603 2315 301 -393c152,-199 455,33 303,232l-619 809 -1898 -2740zm1927 -2586c503,0 913,409 913,912 0,504 -410,913 -913,913 -503,0 -913,-409 -913,-913 0,-503 410,-912 913,-912zm0 1443c293,0 531,-238 531,-531 0,-292 -238,-530 -531,-530 -293,0 -531,238 -531,530 0,293 238,531 531,531zm2305 2905c-475,0 -475,-722 0,-722 475,0 475,722 0,722zm1323 -270c-463,72 -618,435 -359,817l-93 92c-318,-233 -718,-72 -780,323l-130 0c-87,-453 -455,-600 -832,-323l-92 -92c258,-382 104,-745 -360,-817l0 -130c453,-87 600,-454 323,-832l93 -92c437,296 769,159 868,-360l130 0c72,464 435,618 817,360l92 92c-277,378 -129,745 323,832l0 130zm-1323 -692c-791,0 -791,1203 0,1203 792,0 792,-1203 0,-1203z"/>
 </g>
</svg>
