<svg xmlns="http://www.w3.org/2000/svg" width="51" height="45" viewBox="0 0 51 45"><path fill="#242424" d="M33.64 10.51a2.87 2.87 0 0 0-4.13 0 2.93 2.93 0 0 0-.86 2.13c0 .28.04.57.11.85s.19.54.36.79c.14.21.18.43.13.66a.91.91 0 0 1-.34.55.76.76 0 0 1-.65.13.92.92 0 0 1-.54-.34 4.42 4.42 0 0 1-.78-2.64c0-1.3.45-2.41 1.35-3.35a4.38 4.38 0 0 1 3.27-1.39c1.29 0 2.39.46 3.3 1.39a4.61 4.61 0 0 1 1.38 3.35c0 1.13-.36 2.13-1.09 3.01a4.6 4.6 0 0 1-2.75 1.63h-.16a.8.8 0 0 1-.55-.21.86.86 0 0 1-.28-.52.7.7 0 0 1 .1-.64.82.82 0 0 1 .57-.37c.7-.1 1.28-.44 1.74-1 .47-.56.71-1.19.71-1.9 0-.84-.3-1.55-.89-2.13zm.83 18.01a.9.9 0 0 1 .89.89c0 .25-.09.44-.26.58L23.14 42.12c-.9.92-1.87 1.6-2.93 2.06a7.94 7.94 0 0 1-3.2.68 7.03 7.03 0 0 1-4.93-2.05L1.99 32.73a7.1 7.1 0 0 1-1.97-5.61 9.07 9.07 0 0 1 2.65-5.88L17.53 6.16a.74.74 0 0 1 .16-.11.48.48 0 0 0 .15-.1l4.84-1.51 4.83-1.5 3.82-1.19 1.74-.55c.49-.21 1-.26 1.53-.13.54.12 1 .38 1.38.76.28.32 1.34 1.41 3.2 3.27l3.19 3.22a2.64 2.64 0 0 1 .63 2.85c-.07.17-.46 1.4-1.17 3.69l-2.05 6.54-.73 2.26a.91.91 0 0 1-.42.51.69.69 0 0 1-.62.07.97.97 0 0 1-.52-.47.78.78 0 0 1-.05-.63l.72-2.27 2.11-6.72c.67-2.17 1.05-3.35 1.12-3.56.07-.21.08-.4.05-.56a1 1 0 0 0-.26-.45l-3.22-3.26-3.23-3.27c-.2-.22-.42-.31-.65-.29-.22.01-.37.04-.44.07l-2.28.72L26.73 5a438 438 0 0 0-4.94 1.55l-3.22 1.03L3.86 22.5a7.02 7.02 0 0 0-2.15 4.62 5.39 5.39 0 0 0 1.48 4.35l10.08 10.07a5 5 0 0 0 4.18 1.56 6.98 6.98 0 0 0 4.5-2.19L33.9 28.78a.68.68 0 0 1 .57-.26zm11.54-17.51a.66.66 0 0 0-.62-.21.83.83 0 0 0-.57.31.94.94 0 0 0-.19.64c.02.24.12.44.29.58a10.5 10.5 0 0 1 3.87 6.17c.5 2.42.06 4.5-1.32 6.22a6.15 6.15 0 0 1-2.11 1.77c-.85.44-1.77.69-2.78.76a9.1 9.1 0 0 1-3.9-.45 11.15 11.15 0 0 1-3.63-2.03 10.59 10.59 0 0 1-3.88-6.14c-.5-2.41-.06-4.48 1.33-6.2a.94.94 0 0 0 .16-.66.84.84 0 0 0-.32-.55.66.66 0 0 0-.62-.21.85.85 0 0 0-.57.31 8.32 8.32 0 0 0-1.64 3.54c-.26 1.3-.27 2.62-.02 3.95a12.58 12.58 0 0 0 4.46 7.33c1.15.95 2.39 1.67 3.72 2.17 1.33.49 2.68.73 4.03.73h.52c.17 0 .34-.01.52-.05a8.64 8.64 0 0 0 6.08-3.16 8.32 8.32 0 0 0 1.64-3.54c.25-1.3.26-2.62.02-3.95a12.73 12.73 0 0 0-4.47-7.33z"/></svg>