<svg xmlns="http://www.w3.org/2000/svg" width="36" height="47" viewBox="0 0 36 47"><path fill="#242424" d="M35.02 46.32a.76.76 0 0 0 .09-.65c-.16-.83-.45-1.98-.86-3.45a108.7 108.7 0 0 0-1.4-4.57 75.76 75.76 0 0 0-1.65-4.47 14.17 14.17 0 0 0-1.6-3.07c-1.61-2.58-3.67-3.98-6.19-4.19l-3.91-.31h-5.42c-.14.03-1.24.21-3.33.53-2.09.32-3.92 1.58-5.49 3.78-.43.61-.91 1.59-1.43 2.94a69.14 69.14 0 0 0-1.53 4.38c-.49 1.57-.95 3.12-1.36 4.65a64 64 0 0 0-.91 3.78.8.8 0 0 0 .1.65c.13.2.31.32.54.36.23.06.46.03.67-.1.21-.13.34-.3.37-.53a102.07 102.07 0 0 1 3.72-12.47c.47-1.26.89-2.16 1.25-2.7 1.32-1.82 2.86-2.87 4.64-3.14l2.71-.4h5.56l3.33.26c2.18.17 3.92 1.31 5.2 3.42l.02.07.03.03c.42.51.88 1.37 1.38 2.58a88.61 88.61 0 0 1 2.85 8.52c.43 1.5.78 2.78 1.04 3.83.03.19.13.35.29.48.17.13.35.19.55.19.03 0 .06 0 .1-.02.03-.02.06-.02.09-.02a.82.82 0 0 0 .55-.36zM5.58 16.59a11.84 11.84 0 0 0 2.63 3.78 12.97 12.97 0 0 0 3.92 2.56c1.49.64 3.08.96 4.75.96 1.71 0 3.31-.32 4.78-.96a13.13 13.13 0 0 0 3.9-2.56 11.84 11.84 0 0 0 2.63-3.78c.64-1.45.96-2.99.96-4.62 0-1.66-.32-3.22-.96-4.67a11.84 11.84 0 0 0-2.63-3.78 13.13 13.13 0 0 0-3.9-2.56A11.87 11.87 0 0 0 16.88 0c-1.67 0-3.26.32-4.75.96-1.5.64-2.8 1.49-3.92 2.56A11.84 11.84 0 0 0 5.58 7.3a11.45 11.45 0 0 0-.96 4.67c0 1.63.32 3.17.96 4.62zM7.2 7.97a10.44 10.44 0 0 1 9.68-6.25c1.45 0 2.81.27 4.09.79a10.7 10.7 0 0 1 5.62 5.46c.56 1.23.84 2.56.84 4 0 1.4-.28 2.73-.84 3.97a10.39 10.39 0 0 1-5.62 5.44c-1.28.52-2.64.78-4.09.78a10.71 10.71 0 0 1-7.44-2.96A10.14 10.14 0 0 1 7.2 7.97z"/></svg>