<svg xmlns="http://www.w3.org/2000/svg" xmlns:xlink="http://www.w3.org/1999/xlink" width="28" height="42" viewBox="0 0 28 42"><defs><path id="a" d="M133.46 2928.24v-.22a1.57 1.57 0 0 0-1.78-1.44 1.57 1.57 0 0 0-1.37 1.65v4.6a1.57 1.57 0 0 0 0 .32 1.57 1.57 0 0 0 1.65 1.4c.8-.05 1.44-.67 1.5-1.45v-4.86z"/><path id="b" d="M145.26 2932.46a12.44 12.44 0 0 0-12.5-12.37h-.09v5.51a2.71 2.71 0 0 1 1.95 2.4v8.81a2.73 2.73 0 0 1-2.59 2.5l-.14.01h-.15a2.73 2.73 0 0 1-2.58-3v-8.3c.07-1.08.79-2 1.77-2.36v-5.57h-.06a12.41 12.41 0 0 0-12.5 12.37v16.48a12.4 12.4 0 0 0 12.5 12.37h1.9a12.43 12.43 0 0 0 12.5-12.37v-16.48z"/></defs><use fill="#fff" xlink:href="#a" transform="translate(-118 -2920)"/><use fill="#fff" xlink:href="#b" transform="translate(-118 -2920)"/></svg>