<svg xmlns="http://www.w3.org/2000/svg" width="37" height="38" viewBox="0 0 37 38"><path fill="#fff" d="M35.72 28.52l-.48-.49-.92-.92c-3.68-3.56-5.13-5.02-5.28-5.12l-.5-.48c-1.81-1.67-3.07-.34-4.71 2.11l-.43.63-.01.02-.13.21c-1.85 2.83-1.7 2.89-2.35 2.74l-.07-.02c-2.11-.65-1.86-.77-5.94-4.86-4.15-4.01-4.28-3.77-4.94-5.84a.19.19 0 0 0-.02-.07c-.15-.64-.09-.49 2.79-2.31l.21-.13.02-.01.65-.42c2.48-1.62 3.84-2.86 2.13-4.64l-.48-.49c-.1-.15-1.59-1.57-5.21-5.2l-.93-.9-.5-.47C6.6-.01 4.74 1.33 2.8 4.3A24.6 24.6 0 0 0 .25 9.03c-.87 2.7.77 5.99 1.45 7.13 2.38 3.94 3.31 5.59 8.6 10.71 5.2 5.2 6.88 6.11 10.89 8.45 1.15.68 4.5 2.29 7.24 1.44.01-.01 1.82-.63 4.81-2.51 3.02-1.91 4.38-3.75 2.48-5.73z"/></svg>