<svg xmlns="http://www.w3.org/2000/svg" width="24" height="24" viewBox="0 0 24 24"><path fill="#795548" d="M22.53 17.61l-.31-.31-.57-.59c-2.33-2.28-3.24-3.21-3.34-3.28l-.31-.3c-1.14-1.07-1.94-.22-2.97 1.34l-.27.41-.01.01-.08.14c-1.17 1.81-1.07 1.85-1.48 1.75l-.05-.01c-1.33-.42-1.17-.5-3.74-3.11-2.62-2.57-2.7-2.41-3.12-3.74l-.01-.05c-.1-.4-.06-.31 1.76-1.47l.13-.09.01-.01.41-.26C10.14 7 11 6.21 9.93 5.07l-.31-.31c-.06-.1-1-1.01-3.28-3.33L5.75.85l-.31-.3C4.16-.64 2.99.21 1.77 2.11A15.76 15.76 0 0 0 .16 5.14c-.55 1.73.48 3.84.92 4.56 1.5 2.52 2.08 3.58 5.41 6.86 3.28 3.32 4.34 3.91 6.87 5.41.73.43 2.84 1.46 4.57.91.01 0 1.15-.4 3.03-1.6 1.9-1.22 2.76-2.4 1.57-3.67z"/></svg>