<svg xmlns="http://www.w3.org/2000/svg" width="38" height="34" viewBox="0 0 38 34"><path fill="#fff" d="M30.1 0H7.9A7.89 7.89 0 0 0 0 7.89v11.04a7.9 7.9 0 0 0 7.94 7.93c1.1 0 1.98.87 1.98 1.97v3.6c0 1.41 1.71 2.09 2.7 1.1l5.77-5.72a3.13 3.13 0 0 1 2.24-.91h9.47c4.37 0 7.9-3.53 7.9-7.89V7.89A7.89 7.89 0 0 0 30.1 0zm-19 15.78a2.4 2.4 0 0 1-2.4-2.35 2.38 2.38 0 0 1 4.75 0 2.36 2.36 0 0 1-2.35 2.35zm7.9 0a2.4 2.4 0 0 1-2.39-2.35A2.37 2.37 0 0 1 19 11.08a2.37 2.37 0 0 1 2.36 2.35A2.37 2.37 0 0 1 19 15.78zm7.9 0a2.4 2.4 0 0 1-2.39-2.35 2.37 2.37 0 0 1 2.39-2.35c1.3 0 2.36 1.06 2.36 2.35a2.34 2.34 0 0 1-2.36 2.35z"/></svg>