<svg xmlns="http://www.w3.org/2000/svg" width="50" height="48" viewBox="0 0 50 48"><path fill="#242424" d="M49.85 35.75a7.96 7.96 0 0 0-2.33-4.57 8.23 8.23 0 0 0-4.38-2.24 9.77 9.77 0 0 0-5.19.48l-7.43-7.28a.86.86 0 0 0-.64-.25.86.86 0 0 0-.64.25.83.83 0 0 0 0 1.2l7.89 7.69c.1.13.24.22.43.25s.37.02.54-.05a7.97 7.97 0 0 1 4.43-.63c1.48.22 2.74.83 3.76 1.83a6.21 6.21 0 0 1 1.72 3.07c.29 1.2.26 2.42-.08 3.66l-4.2-4.11a.9.9 0 0 0-.46-.26.79.79 0 0 0-.46.05l-3.89 1.41a.56.56 0 0 0-.33.2.8.8 0 0 0-.18.3l-1.49 3.82a.72.72 0 0 0-.02.5c.05.17.12.32.23.45l4.25 4.12c-1.3.3-2.56.31-3.79.03a6.58 6.58 0 0 1-3.13-1.68 6.32 6.32 0 0 1-1.81-3.67 7.82 7.82 0 0 1 .59-4.37.97.97 0 0 0 .05-.5 1.17 1.17 0 0 0-.21-.45l-7.83-7.69a.87.87 0 0 0-.64-.25.86.86 0 0 0-.64.25.83.83 0 0 0 0 1.21l7.42 7.33a9.3 9.3 0 0 0-.43 5.05 8.14 8.14 0 0 0 2.28 4.34A7.8 7.8 0 0 0 36 47a9.35 9.35 0 0 0 5.33.4c.68-.13 1.34-.33 1.99-.6.14-.07.25-.15.34-.25.08-.1.14-.24.18-.41a.7.7 0 0 0-.03-.4 1.01 1.01 0 0 0-.23-.35l-4.81-4.72 1.12-2.91 2.97-1.11 4.82 4.72a.82.82 0 0 0 .82.25c.13-.03.26-.09.38-.17.12-.08.2-.19.23-.33a9.3 9.3 0 0 0 .74-5.37zm-30.34-11.6c.07.1.16.16.28.2.12.03.23.05.34.05.1 0 .21-.02.33-.05.12-.04.21-.1.28-.2a.83.83 0 0 0 0-1.21l-6.45-6.33a1 1 0 0 0-.46-.25 1.04 1.04 0 0 0-.52.05 7.96 7.96 0 0 1-4.43.63 6.66 6.66 0 0 1-3.76-1.83 6.28 6.28 0 0 1-1.71-3.07 7.56 7.56 0 0 1 .02-3.66l4.2 4.12c.14.1.29.17.46.22.17.05.34.04.51-.02l3.9-1.41c.1-.07.2-.14.3-.23.1-.08.17-.19.21-.32l1.43-3.82a.62.62 0 0 0 .05-.45.85.85 0 0 0-.25-.45L10.04 2a7.65 7.65 0 0 1 3.74-.08c1.22.29 2.27.87 3.12 1.74a6.14 6.14 0 0 1 1.87 3.64 7.8 7.8 0 0 1-.64 4.39.8.8 0 0 0-.05.5c.03.17.12.32.25.46l6.46 6.32c.17.17.37.26.61.26s.44-.09.61-.26a.76.76 0 0 0 .26-.6.79.79 0 0 0-.26-.6l-6.04-5.98c.65-1.67.81-3.35.49-5.05a8.32 8.32 0 0 0-2.28-4.34A8.24 8.24 0 0 0 13.52.12a9.85 9.85 0 0 0-5.48.72.96.96 0 0 0-.33.25.77.77 0 0 0-.18.36.76.76 0 0 0 .02.45c.05.13.13.25.23.35l4.82 4.72-1.13 2.91-2.97 1.11-4.81-4.72c-.11-.1-.22-.18-.36-.23a.64.64 0 0 0-.41-.02.9.9 0 0 0-.41.17c-.1.09-.19.19-.26.33a9.2 9.2 0 0 0-.71 5.37 7.85 7.85 0 0 0 2.35 4.52 8.1 8.1 0 0 0 4.38 2.29 9.7 9.7 0 0 0 5.2-.48zm-1.69 7.23l20.74-20.34.72.7c.07.1.16.17.28.2.12.04.23.05.33.05a.8.8 0 0 0 .36-.07c.1-.05.21-.11.31-.18l5.02-5.47a.82.82 0 0 0 .25-.61.67.67 0 0 0-.25-.55L43.43 3a.95.95 0 0 0-.62-.27.76.76 0 0 0-.61.22l-5.53 4.97a.63.63 0 0 0-.23.26.65.65 0 0 0-.08.35c0 .1.02.21.08.32.05.12.11.21.18.28l.71.7-20.74 20.34-3.12-3.06a.87.87 0 0 0-.64-.25.86.86 0 0 0-.64.25L1.43 37.66A4.55 4.55 0 0 0 0 41.02c0 1.31.48 2.41 1.43 3.32l2 1.96a4.94 4.94 0 0 0 5.25 1c.6-.23 1.12-.57 1.56-1L21 35.75c.1-.1.17-.2.2-.3.04-.1.05-.22.05-.35 0-.1-.01-.21-.05-.31a.75.75 0 0 0-.2-.3zM42.76 4.81l.97.91-3.89 4.16-1.33-1.3zM9.01 45.09c-.58.57-1.3.85-2.17.85-.87 0-1.6-.28-2.18-.85l-2-1.96a2.84 2.84 0 0 1-.87-2.11c0-.84.29-1.55.87-2.16l6.66-6.53 6.3 6.23zm7.89-7.73l-6.3-6.23 2.2-2.21 6.35 6.23z"/></svg>