<svg xmlns="http://www.w3.org/2000/svg" width="36" height="51" viewBox="0 0 36 51"><path fill="#242424" d="M9.76 38.59c.1-.18.13-.37.08-.58a.7.7 0 0 0-.38-.46.65.65 0 0 0-.54-.08.68.68 0 0 0-.43.39L1.88 49.48a.7.7 0 0 0-.07.57c.05.2.17.36.38.46.03.04.08.06.15.08a.7.7 0 0 0 .58-.08.65.65 0 0 0 .28-.31zm17.14-.73a.68.68 0 0 0-.43-.39.65.65 0 0 0-.54.08.7.7 0 0 0-.38.46c-.05.21-.03.4.08.58l6.56 11.61c.06.14.16.24.28.31a.7.7 0 0 0 .58.08c.07-.02.12-.04.15-.08.21-.1.33-.26.38-.46a.74.74 0 0 0-.07-.57zm-3 4.04c.2 0 .37-.07.51-.23.13-.15.2-.34.2-.54a.73.73 0 0 0-.2-.52.7.7 0 0 0-.51-.21H11.49a.7.7 0 0 0-.51.21.73.73 0 0 0-.2.52c0 .2.07.39.2.54.14.16.31.23.51.23zM8.64 45.12c0 .21.08.39.23.54.16.16.33.24.54.24h16.57c.21 0 .38-.08.54-.24a.73.73 0 0 0 .22-.54.73.73 0 0 0-.22-.54.73.73 0 0 0-.54-.24H9.41a.73.73 0 0 0-.54.24.74.74 0 0 0-.23.54zm20.44 3.27H6.3a.8.8 0 0 0-.53.2.7.7 0 0 0-.23.52c0 .21.08.39.23.55.15.15.33.23.53.23h22.78c.21 0 .39-.08.54-.23a.78.78 0 0 0 .23-.55.7.7 0 0 0-.23-.52.8.8 0 0 0-.54-.2zM8.69 29.56c-.54.55-1.18.83-1.93.83-.78 0-1.44-.28-1.98-.83a2.72 2.72 0 0 1-.81-1.97c0-.79.27-1.47.81-2.02.54-.56 1.2-.83 1.98-.83.75 0 1.39.27 1.93.83.55.55.82 1.23.82 2.02 0 .76-.27 1.42-.82 1.97zm-1.04-2.93a1.2 1.2 0 0 0-.89-.39c-.37 0-.68.13-.91.39-.24.26-.36.58-.36.96 0 .35.12.65.36.91.23.26.54.39.91.39.34 0 .64-.13.89-.39.26-.26.38-.56.38-.91 0-.38-.12-.7-.38-.96zm22.96 2.93c-.54.55-1.2.83-1.98.83-.75 0-1.39-.28-1.94-.83a2.72 2.72 0 0 1-.81-1.97c0-.79.27-1.47.81-2.02a2.61 2.61 0 0 1 1.94-.83c.78 0 1.44.27 1.98.83.54.55.81 1.23.81 2.02 0 .76-.27 1.42-.81 1.97zm-1.07-2.93a1.18 1.18 0 0 0-.91-.39c-.34 0-.64.13-.89.39a1.3 1.3 0 0 0-.38.96c0 .35.12.65.38.91.25.26.55.39.89.39.37 0 .67-.13.91-.39s.36-.56.36-.91c0-.38-.12-.7-.36-.96zm-4.78.39a.7.7 0 0 1 .21.52c0 .21-.07.39-.21.54a.63.63 0 0 1-.51.24H11.19a.71.71 0 0 1-.54-.24.74.74 0 0 1-.23-.54c0-.21.08-.38.23-.52a.76.76 0 0 1 .54-.21h13.06c.21 0 .38.07.51.21zm10.63-9.08v-.13a.21.21 0 0 0-.05-.13l-.15-1.81a10.5 10.5 0 0 0-.31-1.87 490.74 490.74 0 0 1-1.63-5.24l-.94-3c-.29-.9-.43-1.39-.43-1.46a5.1 5.1 0 0 0-3.15-3.16 20.04 20.04 0 0 0-5.09-.91A85.35 85.35 0 0 0 17.69 0c-1.83 0-3.81.08-5.94.23-2.14.16-3.84.46-5.09.91A5.1 5.1 0 0 0 3.51 4.3c0 .11-.15.6-.43 1.48-.29.88-.61 1.88-.94 2.98l-1 3.19A136.4 136.4 0 0 0 .51 14a10.5 10.5 0 0 0-.31 1.87l-.15 1.81a.21.21 0 0 0-.05.13v7.91a19.8 19.8 0 0 0 2.59 9.81.9.9 0 0 0 .26.31c.1.07.22.1.35.1h28.99a.6.6 0 0 0 .35-.1.9.9 0 0 0 .26-.31 20.03 20.03 0 0 0 2.59-9.81zm-7.12-15.4c.58.21 1.04.49 1.4.86.35.36.62.82.79 1.37 0 .04.39 1.32 1.19 3.84.8 2.52 1.35 4.32 1.65 5.39H18.46V1.56c1.45 0 3.17.07 5.13.2 1.97.14 3.53.4 4.68.78zM2.08 14c.31-1.07.86-2.87 1.66-5.39.79-2.52 1.19-3.8 1.19-3.84a3.1 3.1 0 0 1 .82-1.37 3.9 3.9 0 0 1 1.37-.86c1.15-.38 2.71-.64 4.68-.78 1.96-.13 3.67-.2 5.13-.2V14zm31.83 11.72c0 1.52-.18 3.02-.56 4.49a17.87 17.87 0 0 1-1.62 4.17H3.66a18.34 18.34 0 0 1-2.19-8.66V18.2a.7.7 0 0 1 .03-.2.76.76 0 0 0 .03-.21c0-.24.02-.58.07-1.01l.13-1.27h31.93a12.96 12.96 0 0 1 .2 2.28l.03.21c.02.07.02.13.02.2z"/></svg>