<?xml version="1.0" encoding="UTF-8"?>
<!DOCTYPE svg PUBLIC "-//W3C//DTD SVG 1.1//EN" "http://www.w3.org/Graphics/SVG/1.1/DTD/svg11.dtd">
<!-- Creator: CorelDRAW X8 -->
<svg xmlns="http://www.w3.org/2000/svg" xml:space="preserve" width="100%" height="100%" version="1.1" style="shape-rendering:geometricPrecision; text-rendering:geometricPrecision; image-rendering:optimizeQuality; fill-rule:evenodd; clip-rule:evenodd"
viewBox="0 0 6335 6335"
 xmlns:xlink="http://www.w3.org/1999/xlink">
 <defs>
  <style type="text/css">
   <![CDATA[
    .fil0 {fill:none}
    .fil1 {fill:#9AC516}
   ]]>
  </style>
 </defs>
 <g id="Слой_x0020_1">
  <metadata id="CorelCorpID_0Corel-Layer"/>
  <rect class="fil0" width="6335" height="6335"/>
  <path class="fil1" d="M3229 1390c-447,0 -811,363 -811,810 0,447 364,811 811,811 447,0 810,-364 810,-811 0,-447 -363,-810 -810,-810zm-66 4538l-1587 -2292c-602,-802 -516,-2121 185,-2822 376,-375 875,-582 1406,-582 532,0 1031,207 1407,582 513,513 713,1384 497,2166 -17,62 20,126 81,143 62,17 126,-20 143,-81 237,-860 13,-1821 -557,-2391 -420,-420 -977,-651 -1571,-651 -593,0 -1150,231 -1570,651 -776,776 -873,2236 -209,3121l1775 2563 1774 -2563c89,-142 -99,-254 -187,-136l-1587 2292zm66 -3149c-319,0 -579,-259 -579,-579 0,-319 260,-579 579,-579 319,0 579,260 579,579 0,320 -260,579 -579,579z"/>
 </g>
</svg>
