<?xml version="1.0" encoding="UTF-8"?>
<!DOCTYPE svg PUBLIC "-//W3C//DTD SVG 1.1//EN" "http://www.w3.org/Graphics/SVG/1.1/DTD/svg11.dtd">
<!-- Creator: CorelDRAW X8 -->
<svg xmlns="http://www.w3.org/2000/svg" xml:space="preserve" width="100%" height="100%" version="1.1" style="shape-rendering:geometricPrecision; text-rendering:geometricPrecision; image-rendering:optimizeQuality; fill-rule:evenodd; clip-rule:evenodd"
viewBox="0 0 6335 6335"
 xmlns:xlink="http://www.w3.org/1999/xlink">
 <defs>
  <style type="text/css">
   <![CDATA[
    .fil0 {fill:none}
    .fil1 {fill:#9AC516}
   ]]>
  </style>
 </defs>
 <g id="Слой_x0020_1">
  <metadata id="CorelCorpID_0Corel-Layer"/>
  <rect class="fil0" width="6335" height="6335"/>
  <path class="fil1" d="M4857 3272c-59,0 -106,48 -106,106l0 1479 -3167 0 0 -4012 3167 0 0 1477c0,59 47,106 106,106 58,0 105,-47 105,-106l0 -1857c0,-256 -209,-465 -465,-465l-2659 0c-257,0 -466,209 -466,465l0 5404c0,257 209,466 466,466l2659 0c256,0 465,-209 465,-465l0 -2492c0,-58 -47,-106 -105,-106zm-1373 -2744l106 0c58,0 105,-47 105,-106 0,-58 -47,-105 -105,-105l-106 0c-58,0 -106,47 -106,105 0,59 48,106 106,106zm-739 0l422 0c59,0 106,-47 106,-106 0,-58 -47,-105 -106,-105l-422 0c-58,0 -106,47 -106,105 0,59 48,106 106,106zm422 4645c-233,0 -422,190 -422,423 0,233 189,422 422,422 233,0 423,-189 423,-422 0,-233 -190,-423 -423,-423zm0 634c-116,0 -211,-95 -211,-211 0,-117 95,-212 211,-212 117,0 211,95 211,212 0,116 -94,211 -211,211zm-1329 -5596l2659 0c140,0 254,114 254,254l0 168 -3167 0 0 -168c0,-140 114,-254 254,-254zm2659 5912l-2659 0c-140,0 -254,-113 -254,-253l0 -802 3167 0 0 802c0,140 -114,253 -254,253z"/>
 </g>
</svg>
