<?xml version="1.0" encoding="UTF-8"?>
<!DOCTYPE svg PUBLIC "-//W3C//DTD SVG 1.1//EN" "http://www.w3.org/Graphics/SVG/1.1/DTD/svg11.dtd">
<!-- Creator: CorelDRAW X8 -->
<svg xmlns="http://www.w3.org/2000/svg" xml:space="preserve" width="100%" height="100%" version="1.1" style="shape-rendering:geometricPrecision; text-rendering:geometricPrecision; image-rendering:optimizeQuality; fill-rule:evenodd; clip-rule:evenodd"
viewBox="0 0 6335 6335"
 xmlns:xlink="http://www.w3.org/1999/xlink">
 <defs>
  <style type="text/css">
   <![CDATA[
    .fil0 {fill:none}
    .fil1 {fill:#9AC516}
   ]]>
  </style>
 </defs>
 <g id="Слой_x0020_1">
  <metadata id="CorelCorpID_0Corel-Layer"/>
  <rect class="fil0" width="6335" height="6335"/>
  <path class="fil1" d="M3166 0c874,0 1665,355 2240,927 572,575 927,1366 927,2240 0,874 -355,1666 -927,2240 -575,572 -1366,928 -2240,928 -874,0 -1665,-356 -2237,-928 -575,-574 -928,-1366 -928,-2240 0,-874 353,-1665 928,-2240 572,-572 1363,-927 2237,-927l0 0zm1614 2994c95,0 171,78 171,173 0,95 -76,173 -171,173l-1609 0 -5 0c-63,0 -119,-36 -148,-87l-3 -3 0 0 -2 -5 0 0 0 -2 0 0 -3 -5 0 0 -2 -5 0 0 0 -3 0 0 -3 -4 0 0 -2 -3 0 0 0 -5 0 0 -3 -5 0 0 0 -2 0 0 -2 -5 0 0 0 -5 0 0 0 -2 0 -3 -2 -2 0 0 0 -5 0 0 0 -5 0 0 0 -4 0 0 0 -3 0 0 0 -5 0 0 0 -5 0 0 0 -2062c0,-95 75,-170 170,-170 95,0 173,75 173,170l0 1889 1441 0zm382 -1823c-511,-511 -1217,-825 -1996,-825 -779,0 -1485,314 -1996,825 -509,511 -825,1217 -825,1996 0,779 316,1485 825,1997 511,511 1217,825 1996,825 779,0 1485,-314 1996,-825 512,-512 828,-1218 828,-1997 0,-779 -316,-1485 -828,-1996l0 0z"/>
 </g>
</svg>
