<svg id="Слой_1" xmlns="http://www.w3.org/2000/svg" viewBox="0 0 59 52"><style>.st0{fill:none}.st1{fill:#ba936a}.st2{fill:#fff}</style><title>car-icon</title><circle class="st0" cx="14.5" cy="36" r="3.3"/><path class="st0" d="M40.9 11c.4.4 1 .4 1.4 0l4.3-4.2c.5-.3.6-.9.3-1.4-.3-.5-.9-.6-1.4-.3l-.3.3-3.6 3.5-1.8-1.8c-.5-.3-1.1-.2-1.4.3-.2.3-.2.8 0 1.1l2.5 2.5z"/><circle class="st0" cx="45.3" cy="36" r="3.3"/><path class="st0" d="M46.8 50.3h5.9c.3 0 .6-.1.9-.3.3-.4.4-.8.4-1.3V29.4c-.1-1-.4-1.9-1.1-2.6H6.2c-.7.7-1 1.7-1.1 2.6v19.3c0 .5.1.9.4 1.3.2.2.5.3.9.3h5.9c1.2-.2 2.1-1.2 2.3-2.4v-3.8h30v3.8c0 1.2 1 2.2 2.2 2.4zm-32.3-9.5c-2.7 0-4.8-2.2-4.8-4.8 0-2.7 2.2-4.8 4.8-4.8 2.7 0 4.8 2.2 4.8 4.8 0 2.7-2.2 4.8-4.8 4.8zm26-4.8c0-2.7 2.2-4.8 4.8-4.8 2.7 0 4.8 2.2 4.8 4.8 0 2.7-2.2 4.8-4.8 4.8-2.6 0-4.8-2.1-4.8-4.8z"/><path class="st1" d="M42.5 16.4c4.5 0 8.2-3.7 8.2-8.2S47.1 0 42.5 0c-4.5 0-8.2 3.7-8.2 8.2 0 4.5 3.7 8.2 8.2 8.2zm-4.1-9.3c.4-.4 1-.4 1.4 0l1.8 1.8 3.6-3.5c.3-.5.9-.6 1.4-.3.5.3.6.9.3 1.4l-.3.3-4.3 4.2c-.4.4-1 .4-1.4 0l-2.4-2.4c-.4-.4-.4-1-.1-1.5z"/><path class="st2" d="M50.2 36c0-2.7-2.2-4.8-4.8-4.8-2.7 0-4.8 2.2-4.8 4.8 0 2.7 2.2 4.8 4.8 4.8 2.6 0 4.7-2.1 4.8-4.8zM42 36c0-1.8 1.5-3.3 3.3-3.3 1.8 0 3.3 1.5 3.3 3.3 0 1.8-1.5 3.3-3.3 3.3-1.8 0-3.3-1.5-3.3-3.3zm-27.5-4.8c-2.7 0-4.8 2.2-4.8 4.8 0 2.7 2.2 4.8 4.8 4.8 2.7 0 4.8-2.2 4.8-4.8 0-2.7-2.2-4.8-4.8-4.8zm0 8.1c-1.8 0-3.3-1.5-3.3-3.3 0-1.8 1.5-3.3 3.3-3.3 1.8 0 3.3 1.5 3.3 3.3 0 1.8-1.5 3.3-3.3 3.3z"/><path class="st2" d="M54.4 22.8c1.6 0 4.5-.8 4.5-3.9s-2.9-4-4.5-4.2h-4.1v1.7h4c.1 0 2.8.3 2.8 2.4S54.3 21 54.3 21H51v4l.1.1H7.9L8 25v-3.9H4.6c-.1 0-2.8 0-2.8-2.2s2.5-2.4 2.8-2.4h6.5v-2c.1-2 1-4 2.5-5.3 5.2-4.5 16.7-3.5 16.8-3.5h.3L31 4h-.3c-.5 0-12.3-1.2-18.1 3.9-1.9 1.6-3.1 4-3.1 6.5v.4h-5C3 14.9.1 15.9.1 19s3 3.9 4.5 3.9h1.7v1.4c-.8.7-2.9 2.8-2.9 5.2v19.3c0 .9.3 1.8.9 2.5.5.6 1.3.9 2.1.8h5.9c2.1-.2 3.8-1.9 4-4.1v-2.1h26.6V48c.2 2.1 1.8 3.9 4 4.1h5.9c.8 0 1.5-.3 2.1-.8.6-.7.9-1.6.9-2.5V29.4c0-2.4-2.1-4.5-2.9-5.2v-1.4h1.5zM14.5 44.1v3.8c-.2 1.2-1.1 2.2-2.3 2.4H6.3c-.3 0-.6-.1-.9-.3-.3-.4-.4-.8-.4-1.3V29.4c.1-1 .5-1.9 1.1-2.6h46.7c.6.7 1 1.7 1.1 2.6v19.3c0 .5-.1.9-.4 1.3-.2.2-.5.3-.9.3h-5.9c-1.2-.2-2.1-1.2-2.3-2.4v-3.8H14.5z"/></svg>