<svg id="Слой_1" xmlns="http://www.w3.org/2000/svg" viewBox="0 0 373.3 369.7"><style>.st0{fill:#fff}.st1{fill:#ba936a}</style><path class="st0" d="M203.3 17.3c2.8.3 5.6.6 8.3 1 5.2.8 10.5 1.9 14.7 4.9 4.2 3.1 7 8.7 5.3 13.6-3 8.8-15.4 8.3-24.6 7-51.6-7.3-106.4 16.6-136.1 59.4s-33.2 102.4-8.5 148.3 76.4 75.8 128.5 74.5c52.1-1.3 102.2-33.9 124.5-81s15.8-106.5-16.1-147.6c-.9-1.2-2.2-2.5-3.7-2.5-1.2.1-2.2 1-3 1.8l-19.7 19.7c-5.9 5.9-14.5 12.1-21.6 7.8-4.8-3-5.9-9.8-4-15.1 1.9-5.3 6.1-9.4 10.1-13.3 9.8-9.4 19.5-18.9 29.3-28.3 2.3-2.3 4.9-4.6 8.1-5.2 4.8-.8 9.2 2.8 12.6 6.4 37.7 38.7 54.8 96.5 44.2 149.5-7.4 37.1-28.2 71.1-57 95.5-30.8 26.1-71.1 39.2-111.4 38.2-27.7-.6-55.3-7.9-79.4-21.7-44.9-25.6-76.7-73-83.4-124.2s12-105.2 48.9-141.4c34.9-34.3 85.4-52 134-47.3z"/><path class="st1" d="M200.1 132.7c0 15.6-.1 31.3 0 46.9.1 6.3-1.8 11.4-6.5 16-16.8 16.4-33.3 33.1-49.9 49.7-6 6-13.1 6.4-18.5 1.2-5.5-5.4-5.2-12.8.9-18.9 15.1-15.1 30.1-30.2 45.2-45.2 2.2-2.2 3.1-4.4 3.1-7.4-.1-30.6-.1-61.3 0-91.9 0-9.1 4.5-14.6 11.9-15 8.3-.5 13.7 5.1 13.8 14.6v50z"/></svg>