<svg class="lds-spinner" width="100" height="100" xmlns="http://www.w3.org/2000/svg" viewBox="0 0 100 100" preserveAspectRatio="xMidYMid"><rect x="47" y="24" rx="9.4" ry="4.8" width="6" height="12" fill="#fff" fill-opacity=".087" transform="rotate(30 50 50)"/><rect x="47" y="24" rx="9.4" ry="4.8" width="6" height="12" fill="#fff" fill-opacity=".17" transform="rotate(60 50 50)"/><rect x="47" y="24" rx="9.4" ry="4.8" width="6" height="12" fill="#fff" fill-opacity=".253" transform="rotate(90 50 50)"/><rect x="47" y="24" rx="9.4" ry="4.8" width="6" height="12" fill="#fff" fill-opacity=".336" transform="rotate(120 50 50)"/><rect x="47" y="24" rx="9.4" ry="4.8" width="6" height="12" fill="#fff" fill-opacity=".419" transform="rotate(150 50 50)"/><rect x="47" y="24" rx="9.4" ry="4.8" width="6" height="12" fill="#fff" fill-opacity=".502" transform="rotate(180 50 50)"/><rect x="47" y="24" rx="9.4" ry="4.8" width="6" height="12" fill="#fff" fill-opacity=".585" transform="rotate(210 50 50)"/><rect x="47" y="24" rx="9.4" ry="4.8" width="6" height="12" fill="#fff" fill-opacity=".668" transform="rotate(240 50 50)"/><rect x="47" y="24" rx="9.4" ry="4.8" width="6" height="12" fill="#fff" fill-opacity=".751" transform="rotate(270 50 50)"/><rect x="47" y="24" rx="9.4" ry="4.8" width="6" height="12" fill="#fff" fill-opacity=".834" transform="rotate(300 50 50)"/><rect x="47" y="24" rx="9.4" ry="4.8" width="6" height="12" fill="#fff" fill-opacity=".917" transform="rotate(330 50 50)"/><rect x="47" y="24" rx="9.4" ry="4.8" width="6" height="12" fill="#fff"/></svg>