<?xml version="1.0" encoding="UTF-8"?>
<svg width="36px" height="40px" viewBox="0 0 36 40" version="1.1" xmlns="http://www.w3.org/2000/svg" xmlns:xlink="http://www.w3.org/1999/xlink">
    <!-- Generator: Sketch 48.1 (47250) - http://www.bohemiancoding.com/sketch -->
    <title>Group 5</title>
    <desc>Created with Sketch.</desc>
    <defs>
        <path d="M17.8247236,35.2630032 C7.97953022,35.2630032 0,27.3699675 0,17.6315016 C6.02843947e-16,7.89303574 7.97953022,1.19261866e-15 17.8247236,0 C27.6699169,0 35.6494471,7.89303574 35.6494471,17.6315016 C35.6494471,27.3699675 27.6699169,35.2630032 17.8247236,35.2630032 Z" id="path-1"></path>
        <path d="M17.99718,22.920928 C20.1668658,22.9275366 21.8926649,21.5719291 23.0077318,19.5147468 C24.1227987,17.4575644 24.5531521,13.6703327 25.34804,12.4184752 C26.1429279,11.1666177 27.0239674,9.30124872 27.3312428,8.22803409 C27.6385181,7.15481946 27.9254002,5.28945048 26.1429279,3.52630032 C23.1721406,-4.06072146e-14 15.0841424,-1.13686838e-13 13.9416873,-1.13686838e-13 C12.7992321,-1.12652883e-13 11.8698778,0.922715072 11.8698778,2.05700852 C11.8698778,2.3176459 11.9226411,2.85102172 11.5860703,3.23244196 C11.2494995,3.6138622 9.95501963,4.41017848 9.53340018,4.8544014 C8.4250469,6.02217469 8.18279697,7.04451287 8.3808055,8.27898347 C8.57881403,9.51345408 9.09339024,10.7005746 10.1360367,12.4184752 C11.1786831,14.1363758 11.3612729,17.4304063 12.4763449,19.5147468 C13.5914169,21.5990872 15.8274943,22.9143195 17.99718,22.920928 Z" id="path-3"></path>
    </defs>
    <g id="2.-Home" stroke="none" stroke-width="1" fill="none" fill-rule="evenodd" transform="translate(-142.000000, -8.000000)">
        <g id="Шапка">
            <g id="Group-5" transform="translate(142.000000, 8.000000)">
                <g id="Group-4">
                    <g id="Group-3" transform="translate(0.000000, 4.701734)">
                        <mask id="mask-2" fill="white">
                            <use xlink:href="#path-1"></use>
                        </mask>
                        <g id="Mask">
                            <use fill="#FFFFFF" fill-rule="evenodd" xlink:href="#path-1"></use>
                            <path stroke="#c0aa83" stroke-width="1.76315016" d="M17.8247236,34.3814282 C27.1851727,34.3814282 34.767872,26.8809248 34.767872,17.6315016 C34.767872,8.38207844 27.1851727,0.881575081 17.8247236,0.881575081 C8.46427441,0.881575081 0.881575081,8.38207844 0.881575081,17.6315016 C0.881575081,26.8809248 8.46427441,34.3814282 17.8247236,34.3814282 Z"></path>
                        </g>
                        <g mask="url(#mask-2)">
                            <g transform="translate(0.000000, 14.692918)">
                                <path d="M17.8247236,34.6752865 C27.3467536,34.6752865 35.0617304,27.0439395 35.0617304,17.6315016 C35.0617304,8.21906369 27.3467536,0.587716721 17.8247236,0.587716721 C8.30269353,0.587716721 0.587716721,8.21906369 0.587716721,17.6315016 C0.587716721,27.0439395 8.30269353,34.6752865 17.8247236,34.6752865 Z" id="Path-4-Copy" stroke="#c0aa83" stroke-width="1.17543344"></path>
                                <g id="Group-2" stroke="none" stroke-width="1" fill-rule="evenodd" transform="translate(9.506519, 0.587717)">
                                    <path d="M2.97722799,1.06050006 L0.587716721,1.88776251 L0.587716721,9.40346753 L2.97722799,9.40346753 L2.97722799,1.06050006 Z" id="Path-6" stroke="#c0aa83" stroke-width="1.17543344"></path>
                                    <path d="M16.0486919,1.06050006 L13.6591807,1.88776251 L13.6591807,9.40346753 L16.0486919,9.40346753 L16.0486919,1.06050006 Z" id="Path-6-Copy" stroke="#c0aa83" stroke-width="1.17543344" transform="translate(14.853936, 5.113136) scale(-1, 1) translate(-14.853936, -5.113136) "></path>
                                </g>
                                <g id="Group" stroke="none" stroke-width="1" fill-rule="evenodd" transform="translate(8.318204, 9.403468)">
                                    <path d="M18.4253217,10.578901 L18.4253217,1.76315016 C18.4253217,1.1139762 17.8990623,0.587716721 17.2498883,0.587716721 L1.76315016,0.587716721 C1.1139762,0.587716721 0.587716721,1.1139762 0.587716721,1.76315016 L0.587716721,10.578901 C1.9265853,10.578901 2.12054736,10.578901 3.80260769,10.578901 C6.65456346,10.578901 6.65456346,10.578901 9.50651923,10.578901 C11.883149,10.578901 11.883149,10.578901 14.2597788,10.578901 C16.4223857,10.578901 16.6171352,10.578901 18.4253185,10.578901 Z" id="Path-5" stroke="#c0aa83" stroke-width="1.17543344"></path>
                                    <ellipse id="Oval" fill="#c0aa83" cx="3.26786598" cy="3.23244196" rx="1" ry="1"></ellipse>
                                    <ellipse id="Oval" fill="#c0aa83" cx="15.7451725" cy="3.23244196" rx="1" ry="1"></ellipse>
                                </g>
                            </g>
                        </g>
                    </g>
                    <path d="M5.94157452,34.6752865 L7.12988942,28.7981193" id="Path-4" stroke="#c0aa83" stroke-width="1.17543344" stroke-linecap="round"></path>
                    <path d="M28.5195577,34.6752865 L29.7078726,28.7981193" id="Path-4-Copy-2" stroke="#c0aa83" stroke-width="1.17543344" stroke-linecap="round" transform="translate(29.113715, 31.736703) scale(-1, 1) translate(-29.113715, -31.736703) "></path>
                    <g id="Path-7">
                        <use fill="#FFFFFF" fill-rule="evenodd" xlink:href="#path-3"></use>
                        <path stroke="#c0aa83" stroke-width="1.76315016" d="M17.9998652,22.0393571 C19.7192536,22.0445941 21.2017281,20.9966631 22.2326898,19.0946461 C22.5864004,18.4420868 22.8909028,17.5486523 23.2445501,16.2162047 C23.3302904,15.8931585 23.668979,14.5597466 23.755905,14.2347095 C24.054862,13.1168382 24.2926632,12.4359535 24.6038185,11.9459193 C25.3536444,10.7650293 26.200529,8.97447832 26.4837214,7.98537765 C26.8941393,6.55191903 26.72855,5.34557075 25.468721,4.09429654 C24.3223478,2.73356088 22.1078102,1.81372847 19.2057269,1.30934202 C18.1133971,1.11949345 16.9857661,0.999377042 15.862101,0.935241005 C15.1177527,0.892755429 14.5718359,0.881575081 13.9416873,0.881575081 C13.2847033,0.881575081 12.7514528,1.41101603 12.7514528,2.05700852 C12.7517031,2.08947387 12.7517031,2.08947387 12.752785,2.1438988 C12.7596903,2.49446083 12.7464226,2.72010595 12.6706743,3.0082525 C12.5923096,3.30635201 12.4555109,3.57953845 12.2470885,3.815734 C12.0356478,4.05535006 11.8414767,4.2041549 11.0497373,4.77649021 C11.0276285,4.7924744 11.0276285,4.7924744 11.0055952,4.80841553 C10.5295932,5.15288243 10.2838271,5.34433423 10.1728235,5.46128887 C9.31129734,6.3690024 9.08368404,7.09465901 9.25125423,8.13936389 C9.42569991,9.22693347 9.88638089,10.3080248 10.889667,11.9610739 C11.3773699,12.7646302 11.6501716,13.6255758 12.0974158,15.4635823 C12.1788061,15.7989487 12.2200296,15.9684808 12.260413,16.1323161 C12.6142735,17.5679251 12.8830076,18.4060279 13.2536744,19.0988941 C14.198509,20.8650195 16.1184388,22.0336265 17.9998652,22.0393571 Z"></path>
                    </g>
                    <path d="M10.5601154,11.6833728 C11.883149,10.578901 13.6656214,10.578901 13.6656214,7.05260065 C16.0422512,8.81575081 18.418881,10.8727593 24.3604555,11.1666177" id="Path-8" stroke="#c0aa83" stroke-width="1.76315016" stroke-linecap="round" stroke-linejoin="round"></path>
                    <path d="M8.91236178,15.7402253 C10.0580094,16.1407001 11.3314965,15.5706126 11.7494356,14.4728444 C12.1673746,13.3750762 11.5724255,12.1548074 10.4267798,11.7543344" id="Path-9-Copy" stroke="#c0aa83" stroke-width="1.76315016" stroke-linecap="round" stroke-linejoin="round" transform="translate(10.397755, 13.811343) scale(-1, 1) translate(-10.397755, -13.811343) "></path>
                    <path d="M23.7662981,15.7402253 C24.9119457,16.1407001 26.1854328,15.5706126 26.6033719,14.4728444 C27.0213109,13.3750762 26.4263618,12.1548074 25.2807161,11.7543344" id="Path-9-Copy" stroke="#c0aa83" stroke-width="1.76315016" stroke-linecap="round" stroke-linejoin="round"></path>
                </g>
            </g>
        </g>
    </g>
</svg>