<?xml version="1.0" encoding="UTF-8"?>
<!DOCTYPE svg PUBLIC "-//W3C//DTD SVG 1.1//EN" "http://www.w3.org/Graphics/SVG/1.1/DTD/svg11.dtd">
<!-- Creator: CorelDRAW X8 -->
<svg xmlns="http://www.w3.org/2000/svg" xml:space="preserve" width="100%" height="100%" version="1.1" style="shape-rendering:geometricPrecision; text-rendering:geometricPrecision; image-rendering:optimizeQuality; fill-rule:evenodd; clip-rule:evenodd"
viewBox="0 0 11811 2413"
 xmlns:xlink="http://www.w3.org/1999/xlink">
 <defs>
  <style type="text/css">
   <![CDATA[
    .fil0 {fill:#4A3427}
    .fil1 {fill:#4A3427;fill-rule:nonzero}
   ]]>
  </style>
 </defs>
 <g id="Слой_x0020_1">
  <metadata id="CorelCorpID_0Corel-Layer"/>
  <g id="_2419538689488">
   <path class="fil0" d="M928 2c560,17 749,438 749,898l-1499 0c1,-460 189,-881 750,-898zm-62 738l203 -309 -127 1 48 -196 -203 309 127 -1 -48 196zm-69 885c-101,120 -390,74 -390,74 0,0 164,199 425,114 40,-13 70,-28 92,-46 23,18 53,33 92,46 262,85 425,-114 425,-114 0,0 -289,46 -390,-74 -42,-51 -91,-58 -127,-42 -36,-16 -84,-9 -127,42zm913 -392c0,27 -1,54 -3,80 35,-15 74,-23 113,-20 21,2 41,6 61,14 20,8 38,18 54,32 107,85 114,245 67,364 -25,65 -68,125 -125,167 -49,36 -110,59 -172,54 -21,-1 -42,-6 -61,-14 -20,-7 -38,-18 -55,-31 -17,-14 -31,-30 -44,-47 -56,91 -124,169 -201,231 240,33 401,93 401,161 0,103 -366,187 -817,187 -451,0 -817,-84 -817,-187 0,-65 145,-122 365,-156 -223,-176 -371,-484 -372,-835l87 0c2,432 241,793 562,882l308 0c320,-89 560,-450 562,-882l87 0zm-372 835c-32,26 -67,49 -102,69l0 72 -653 0 0 -70c-35,-19 -68,-41 -100,-65 -153,29 -251,73 -251,122 0,88 311,160 696,160 384,0 696,-72 696,-160 0,-52 -113,-99 -286,-128zm355 -638c-18,109 -50,211 -94,303 9,29 25,54 49,73 9,7 19,13 30,18 11,4 22,6 34,7 93,7 172,-83 204,-162 31,-79 34,-199 -39,-258 -9,-7 -19,-13 -30,-17 -11,-4 -23,-7 -34,-8 -44,-3 -85,15 -120,44zm-545 -177c36,0 65,44 65,98 0,55 -29,99 -65,99 -36,0 -66,-44 -66,-99 0,-54 30,-98 66,-98zm-467 0c37,0 66,44 66,98 0,55 -29,99 -66,99 -36,0 -65,-44 -65,-99 0,-54 29,-98 65,-98zm1081 -102c66,-59 94,-127 94,-196l-1857 0c0,69 29,137 94,196l1669 0z"/>
   <path class="fil1" d="M2834 712l-2 -1 0 -7c0,-3 0,-5 -1,-6 0,-3 -1,-6 -2,-8l0 -6 -1 0 0 -6c-4,-13 -12,-29 -22,-48 -11,-19 -28,-36 -52,-49 -11,-7 -17,-15 -17,-27 0,-3 0,-7 1,-11 5,-17 15,-25 32,-25l271 0c13,0 24,7 31,20l437 1052 357 -1048c2,-8 6,-14 12,-18 6,-4 12,-6 20,-6l296 0c16,0 27,8 33,25 1,3 1,6 1,9 0,13 -6,22 -19,29 -24,13 -41,30 -51,49 -11,19 -17,35 -21,48 -1,1 -1,2 -1,4l0 2c-2,6 -3,11 -3,14l0 3c-1,1 -2,2 -2,3l0 8c0,2 0,4 -1,5l0 974c2,39 16,74 42,105 13,16 28,28 42,36 13,7 19,16 19,29 0,3 -1,6 -2,9 -5,17 -16,25 -33,25l-361 0c-17,0 -28,-8 -32,-25 -1,-4 -1,-8 -1,-13 0,-10 5,-18 17,-25 17,-10 31,-22 44,-36 2,-2 3,-4 4,-6 2,-2 3,-4 4,-6 3,-3 5,-8 7,-13 3,-2 4,-4 5,-6 14,-25 21,-50 21,-74l0 -947 -384 1127c-2,8 -6,14 -12,18 -6,4 -12,6 -20,6l-73 0c-15,0 -25,-7 -32,-20l-448 -1078 0 904 2 4 0 10c1,2 2,3 2,5 0,1 0,2 1,4l0 5c1,2 2,4 2,6 4,13 11,29 22,48 10,19 27,36 51,49 12,7 18,15 18,25 0,5 -1,9 -2,13 -4,17 -15,25 -31,25l-232 0c-17,0 -27,-8 -32,-25 -1,-4 -1,-8 -1,-13 0,-10 6,-18 17,-25 24,-13 41,-30 52,-49 10,-19 18,-35 22,-48l0 -5 1 -1c0,-2 1,-5 1,-7 1,-3 1,-5 1,-7l0 -2 1 0 0 -11 2 -4 0 -986zm2787 1117c8,2 15,6 20,13 3,6 5,12 5,19l0 4c-2,20 -13,30 -33,30l-52 0c-78,0 -146,-8 -203,-25 -92,-26 -164,-74 -216,-144l-271 -364 -157 0 0 328c1,18 5,36 12,55 8,18 17,35 29,50 11,14 26,27 43,37 12,6 18,14 18,25 0,5 -1,9 -2,13 -4,17 -15,25 -31,25l-362 0c-17,0 -27,-8 -31,-25 -1,-4 -2,-8 -2,-13 0,-11 6,-19 17,-25 18,-10 33,-23 44,-37 12,-15 21,-32 28,-50 8,-19 12,-37 13,-55l0 -968c-1,-18 -5,-36 -13,-55 -7,-19 -16,-36 -28,-50 -12,-14 -27,-26 -44,-36 -11,-7 -17,-15 -17,-27 0,-3 1,-7 2,-11 4,-17 14,-25 31,-25l512 0c86,0 162,14 229,41 60,24 112,58 153,103 34,37 60,78 80,125 19,46 30,94 32,145l0 17c-2,38 -10,77 -22,114 -12,38 -29,73 -50,107 -28,39 -60,73 -99,101 -39,27 -83,49 -132,65l204 269c23,32 45,59 67,84 22,25 45,46 68,64 23,18 47,34 72,46 26,13 55,23 86,30zm-887 -1222c-13,2 -20,9 -20,21l0 617c0,5 2,10 8,16l199 0c31,0 63,-5 96,-13 33,-8 63,-24 89,-47 27,-23 49,-55 67,-96 18,-40 27,-93 28,-158l0 -14c-2,-122 -36,-208 -102,-258l-1 -2c-39,-30 -81,-49 -125,-56 -44,-6 -88,-10 -132,-10l-107 0zm1133 1142c19,0 35,7 48,20 14,13 21,28 21,46 0,18 -7,33 -20,46 -13,12 -28,19 -46,20l-6 0c-19,-1 -35,-8 -47,-20 -13,-13 -19,-28 -19,-46 0,-18 7,-33 20,-46 14,-13 30,-20 49,-20zm1009 -134c7,4 12,11 15,22l0 4c0,8 -2,15 -8,22 -59,78 -132,139 -217,180 -3,2 -7,4 -10,4 -3,1 -6,2 -9,4 -2,1 -5,2 -8,3 -3,1 -6,2 -8,3 -9,5 -20,8 -31,11 -6,2 -13,4 -19,6 -6,1 -13,3 -20,5 -18,6 -36,9 -54,11 -19,2 -37,4 -56,5l-25 0c-82,-2 -161,-21 -235,-58 -2,-1 -4,-2 -6,-3 -2,-1 -4,-2 -6,-3 -46,-25 -88,-55 -124,-90l-22 -21c-5,-6 -11,-11 -16,-17 -5,-6 -10,-12 -15,-18 -40,-47 -73,-99 -99,-157 -26,-57 -45,-118 -57,-183l0 -1c-1,-3 -1,-5 -1,-8 0,-2 0,-4 -1,-6 0,-1 -1,-3 -1,-5l-1 -2c-5,-38 -8,-74 -8,-108l0 -30c2,-40 5,-72 8,-94l0 -1c1,-2 1,-4 1,-6 0,-2 1,-3 2,-5 11,-66 30,-128 56,-187 26,-59 60,-113 101,-163 55,-64 118,-115 189,-151 72,-37 149,-56 232,-58l20 0c35,0 69,3 102,11 34,7 66,17 99,31 38,14 70,22 94,22 18,0 32,-4 44,-13 6,-6 13,-9 22,-9 4,0 8,1 14,3 12,7 18,18 18,31l0 171c0,18 -8,29 -25,33l-7 0c-14,0 -24,-6 -30,-19 -12,-24 -25,-45 -41,-62 -16,-18 -31,-33 -45,-45 -15,-12 -28,-21 -39,-27 -11,-5 -17,-9 -18,-10 -47,-19 -96,-28 -149,-28 -17,0 -34,1 -50,5 -104,15 -188,66 -252,153 -25,32 -46,70 -64,113 -18,43 -32,89 -42,139 0,1 -2,12 -6,33 -4,21 -6,49 -9,83 -2,22 -3,46 -3,72 0,16 1,32 2,49 1,45 6,91 16,139 10,50 24,97 42,140 18,42 39,80 63,112 65,87 150,138 253,154 16,3 33,5 50,5l30 0c2,-1 5,-2 8,-2l5 0c3,0 5,0 8,-1l4 0c2,0 4,-1 5,-1 1,-1 3,-1 5,-1l1 0c2,-1 4,-2 7,-2 2,0 4,0 6,-1l3 0c2,0 4,0 5,-1 1,0 2,-1 3,-1 1,0 2,0 3,-1l1 0c3,0 4,-1 4,-1 1,-1 2,-1 4,-1 1,0 2,0 3,-1 0,0 1,0 2,0 1,0 2,-1 3,-1 1,-1 2,-1 3,-1l2 -2 3 0c2,-1 4,-1 5,-1 1,0 2,-1 3,-2l3 -1c3,0 7,-1 11,-3l1 -2c3,-1 4,-2 5,-2 1,0 3,0 5,-1 1,0 1,-1 1,-2l2 0c4,-2 7,-3 8,-3 1,-1 2,-1 5,-1 1,-1 2,-2 3,-3 1,0 2,-1 3,-2l1 0 2 -2c4,-2 7,-3 8,-4l3 -2 9 -5 2 -1c4,-2 7,-4 9,-6l3 -2c2,-1 4,-2 4,-2 1,-1 2,-2 4,-3l3 -3c1,-1 2,-2 3,-2 2,-1 3,-1 4,-3 1,-1 2,-1 3,-1 1,-2 2,-3 3,-4 1,-1 2,-1 3,-2l2 -2 1 0c3,-3 6,-6 10,-9 3,-2 6,-5 9,-8l1 -2 8 -8 2 -1c3,-3 5,-6 6,-8 1,0 2,0 2,-1l1 0c1,-3 2,-4 3,-4 1,-1 3,-2 4,-4 1,-1 1,-2 1,-3 2,-3 4,-4 5,-4 1,-1 2,-2 3,-4l0 -2 2 0c1,-2 2,-4 3,-5 1,-2 2,-4 4,-6l0 -1c2,-2 4,-4 4,-5 1,-1 2,-3 4,-5l2 -3c3,-3 5,-6 6,-8l2 -3c1,-2 3,-5 6,-8l1 -4c5,-8 12,-13 22,-16 2,-1 5,-2 8,-2 5,0 11,2 17,7l18 11zm827 -895c65,31 121,76 171,135 48,58 84,124 110,196 26,73 38,149 38,230 0,80 -12,157 -38,230 -26,73 -62,139 -110,196 -50,58 -106,103 -171,135 -65,33 -134,51 -209,53l-12 0c-75,-2 -145,-20 -210,-53 -65,-33 -121,-78 -169,-135 -48,-57 -85,-123 -111,-196 -25,-73 -38,-150 -38,-230 0,-81 13,-157 38,-230 26,-72 63,-138 111,-196 48,-58 104,-103 169,-135 66,-32 135,-50 208,-52l16 0c74,2 143,20 207,52zm-215 1087c13,0 25,-1 38,-4 43,-8 81,-24 116,-51 34,-26 64,-59 88,-101 25,-41 44,-90 59,-146 15,-56 23,-119 25,-186l0 -2c1,-5 2,-11 2,-17l0 -38c0,-5 -1,-11 -2,-17l0 -2c-2,-68 -10,-130 -25,-186 -15,-57 -34,-105 -59,-147 -24,-41 -54,-75 -88,-101 -35,-26 -73,-42 -116,-50 -13,-3 -25,-4 -36,-4l-3 0c-12,0 -24,1 -36,4 -43,8 -82,24 -117,50 -35,26 -65,60 -89,101 -25,42 -44,90 -58,147 -14,56 -23,118 -25,186l0 2c-1,6 -1,12 -1,17l0 38c0,6 0,12 1,17l0 2c2,67 11,130 25,186 14,56 33,105 58,146 24,42 54,75 89,101 35,27 74,43 117,51 12,3 24,4 36,4l1 0zm641 -6c10,-13 19,-27 25,-43 6,-16 9,-32 9,-48l0 -857c0,-14 -3,-30 -9,-47 -6,-16 -15,-31 -25,-44 -12,-13 -24,-24 -38,-31 -11,-6 -17,-15 -17,-27 0,-3 1,-6 2,-11 4,-16 14,-25 31,-25l717 0c10,0 18,4 25,11 6,6 10,14 10,24l0 161c0,9 -2,16 -7,21 -5,6 -11,10 -20,12l-8 0c-13,0 -23,-6 -29,-19 -8,-15 -17,-32 -29,-48 -28,-35 -56,-55 -86,-61l-277 0c-10,0 -17,0 -21,0 -4,1 -7,2 -9,4 -2,2 -3,5 -3,8l0 439c0,3 1,6 3,8 2,1 5,2 7,3 3,1 5,1 6,1l174 0c2,-1 4,-1 7,-1 3,0 5,-1 7,-2 2,0 3,0 4,-1 43,-10 74,-30 93,-60 7,-10 16,-16 25,-16 4,0 8,1 12,2 16,5 24,16 24,33l0 191c0,17 -8,28 -24,33 -4,1 -8,1 -12,1 -9,0 -18,-5 -25,-15 -19,-30 -50,-50 -93,-60 -1,-1 -2,-1 -4,-1l-2 0c-2,-1 -4,-2 -6,-2 -2,0 -4,0 -6,-1l-8 0c-1,0 -2,-1 -3,-1 0,-1 -1,-1 -2,-1l-161 0c-11,2 -16,7 -16,14l0 365c2,34 14,64 36,91 12,14 24,24 38,31 11,7 17,16 17,29 0,3 -1,6 -2,9 -5,17 -16,25 -32,25l-320 0c-7,0 -14,-2 -20,-6 -5,-4 -9,-11 -11,-19 -1,-4 -2,-8 -2,-13 0,-10 6,-18 17,-25 14,-7 26,-17 38,-31zm952 0c11,-13 19,-27 25,-43 7,-16 10,-32 10,-48l0 -857c0,-14 -3,-30 -10,-47 -6,-16 -14,-31 -25,-44 -11,-13 -24,-24 -37,-31 -12,-6 -18,-15 -18,-27 0,-3 1,-6 2,-11 4,-16 15,-25 31,-25l718 0c9,0 17,4 24,11 7,6 10,14 10,24l0 161c0,9 -2,16 -7,21 -4,6 -11,10 -19,12l-8 0c-14,0 -24,-6 -30,-19 -7,-15 -17,-32 -28,-48 -28,-35 -57,-55 -86,-61l-278 0c-10,0 -17,0 -21,0 -3,1 -6,2 -8,4 -2,2 -3,5 -3,8l0 439c0,3 1,6 3,8 2,1 4,2 7,3 2,1 4,1 5,1l174 0c2,-1 5,-1 8,-1 2,0 4,-1 6,-2 2,0 4,0 5,-1 43,-10 74,-30 92,-60 8,-10 16,-16 25,-16 5,0 9,1 13,2 16,5 23,16 23,33l0 191c0,17 -7,28 -23,33 -4,1 -8,1 -13,1 -9,0 -17,-5 -25,-15 -18,-30 -49,-50 -92,-60 -1,-1 -3,-1 -5,-1l-1 0c-2,-1 -5,-2 -7,-2 -2,0 -4,0 -6,-1l-8 0c-1,0 -2,-1 -2,-1 -1,-1 -1,-1 -2,-1l-162 0c-10,2 -15,7 -15,14l0 365c2,34 14,64 36,91 11,14 24,24 37,31 12,7 17,16 17,29 0,3 0,6 -1,9 -5,17 -16,25 -33,25l-320 0c-7,0 -13,-2 -19,-6 -6,-4 -10,-11 -12,-19 -1,-4 -2,-8 -2,-13 0,-10 6,-18 18,-25 13,-7 26,-17 37,-31zm915 -1070c-11,-6 -17,-15 -17,-27 0,-3 0,-6 1,-11 5,-16 15,-25 32,-25l673 0c10,0 18,4 24,11 6,6 9,14 9,24l0 161c0,9 -2,16 -7,21 -4,6 -11,10 -19,12l-8 0c-13,0 -23,-6 -30,-19 -7,-15 -17,-32 -28,-48 -26,-35 -55,-55 -86,-61l-232 0c-11,0 -18,0 -21,0 -4,1 -7,2 -9,4 -2,5 -3,7 -3,8l0 439c0,2 2,5 5,8 2,1 4,2 6,3 2,1 4,1 6,1l173 0c2,-1 4,-1 6,-1 2,0 4,-1 6,-2l2 0c2,0 3,0 4,-1 43,-10 74,-30 93,-60 7,-10 15,-16 25,-16 4,0 8,1 12,2 16,5 24,16 24,33l0 191c0,17 -8,28 -24,33 -4,1 -7,1 -11,1 -11,0 -20,-5 -26,-15 -19,-29 -50,-50 -93,-61l-6 0c-2,-1 -4,-2 -6,-2 -2,0 -4,0 -6,-1l-8 0c-1,-1 -3,-2 -5,-2l-158 0c-5,0 -10,1 -14,4 -3,3 -5,6 -5,10l0 439c0,4 2,7 5,10 4,3 9,4 14,4l327 0c26,-1 53,-12 80,-31 27,-20 51,-47 72,-80 4,-8 10,-13 17,-16 4,-1 7,-2 11,-2 5,0 9,1 13,4 7,2 13,6 17,12 3,5 5,11 5,16 0,2 -1,4 -2,8l-25 158c-2,12 -9,21 -20,26 -2,1 -6,2 -13,2l-764 0c-7,0 -14,-2 -20,-6 -6,-4 -9,-11 -12,-19 -1,-4 -1,-8 -1,-13 0,-10 6,-18 17,-25 14,-7 26,-17 38,-31 10,-13 19,-27 25,-43 6,-16 9,-32 9,-48l0 -857c0,-15 -3,-31 -9,-48 -6,-16 -15,-30 -25,-43 -12,-13 -24,-24 -38,-31zm976 0c-11,-6 -17,-15 -17,-27 0,-3 0,-6 1,-11 5,-16 15,-25 32,-25l673 0c10,0 18,4 24,11 6,6 9,14 9,24l0 161c0,9 -2,16 -7,21 -4,6 -11,10 -19,12l-8 0c-13,0 -23,-6 -30,-19 -7,-15 -17,-32 -28,-48 -26,-35 -55,-55 -86,-61l-232 0c-11,0 -18,0 -21,0 -4,1 -7,2 -9,4 -2,5 -3,7 -3,8l0 439c0,2 2,5 5,8 2,1 4,2 6,3 2,1 4,1 6,1l172 0c3,-1 5,-1 7,-1 2,0 4,-1 6,-2l2 0c2,0 3,0 4,-1 43,-10 74,-30 93,-60 7,-10 15,-16 25,-16 4,0 8,1 12,2 16,5 24,16 24,33l0 191c0,17 -8,28 -24,33 -4,1 -8,1 -11,1 -11,0 -20,-5 -26,-15 -19,-29 -50,-50 -93,-61l-6 0c-2,-1 -4,-2 -6,-2 -2,0 -4,0 -7,-1l-7 0c-1,-1 -3,-2 -5,-2l-158 0c-5,0 -10,1 -14,4 -3,3 -5,6 -5,10l0 439c0,4 2,7 5,10 4,3 9,4 14,4l327 0c26,-1 53,-12 80,-31 27,-20 51,-47 72,-80 4,-8 10,-13 17,-16 3,-1 7,-2 11,-2 4,0 9,1 13,4 7,2 13,6 17,12 3,5 5,11 5,16 0,2 -1,4 -2,8l-25 158c-2,12 -9,21 -20,26 -2,1 -7,2 -13,2l-764 0c-8,0 -14,-2 -20,-6 -6,-4 -9,-11 -12,-19 -1,-4 -1,-8 -1,-13 0,-10 6,-18 17,-25 14,-7 26,-17 38,-31 10,-13 18,-27 25,-43 6,-16 9,-32 9,-48l0 -857c0,-15 -3,-31 -9,-48 -7,-16 -15,-30 -25,-43 -12,-13 -24,-24 -38,-31z"/>
  </g>
 </g>
</svg>
