<?xml version="1.0" encoding="UTF-8"?>
<!DOCTYPE svg PUBLIC "-//W3C//DTD SVG 1.1//EN" "http://www.w3.org/Graphics/SVG/1.1/DTD/svg11.dtd">
<!-- Creator: CorelDRAW X7 -->
<svg xmlns="http://www.w3.org/2000/svg" xml:space="preserve" width="100%" height="100%" version="1.1" style="shape-rendering:geometricPrecision; text-rendering:geometricPrecision; image-rendering:optimizeQuality; fill-rule:evenodd; clip-rule:evenodd"
viewBox="0 0 2723 3230"
 xmlns:xlink="http://www.w3.org/1999/xlink">
 <defs>
  <style type="text/css">
   <![CDATA[
    .fil0 {fill:#FEFEFE}
   ]]>
  </style>
 </defs>
 <g id="Слой_x0020_1">
  <metadata id="CorelCorpID_0Corel-Layer"/>
  <path class="fil0" d="M1245 0c752,23 1005,586 1005,1205l-2009 0c0,-619 253,-1182 1004,-1205l0 0zm-83 990l273 -414 -171 1 65 -264 -273 415 171 -1 -65 263zm-93 1186c-135,161 -522,98 -522,98 0,0 220,268 571,154 52,-17 92,-37 123,-62 29,25 69,45 123,62 351,114 570,-154 570,-154 0,0 -388,63 -523,-98 -58,-68 -122,-79 -170,-56 -50,-23 -114,-12 -172,56zm1225 -526c0,37 -1,73 -4,107 47,-20 99,-30 151,-26 29,2 55,8 82,18 27,11 51,26 74,43 142,114 152,330 89,489 -34,87 -92,167 -167,223 -67,49 -148,79 -231,74 -29,-3 -57,-9 -83,-19 -26,-10 -51,-25 -73,-43 -22,-18 -43,-40 -59,-63 -75,122 -166,227 -270,311 323,43 538,123 538,216 0,137 -491,250 -1096,250 -605,0 -1095,-113 -1095,-250 0,-87 194,-165 490,-209 -299,-236 -498,-649 -499,-1121l117 0c2,580 323,1063 753,1184l413 0c430,-121 751,-604 752,-1184l118 0zm-498 1119c-44,35 -89,66 -138,93l0 97 -875 0 0 -93c-47,-26 -91,-55 -134,-89 -206,41 -337,99 -337,165 0,118 418,214 933,214 515,0 933,-96 933,-214 0,-71 -150,-134 -382,-173zm475 -855c-24,146 -66,284 -125,407 12,39 33,72 64,98 13,9 27,17 41,24 14,5 30,8 46,9 124,10 230,-111 273,-217 41,-107 45,-267 -52,-345 -12,-11 -26,-17 -40,-24 -15,-5 -30,-9 -46,-11 -59,-4 -114,22 -161,59l0 0zm-730 -237c48,0 87,59 87,133 0,72 -39,131 -87,131 -50,0 -89,-59 -89,-131 0,-74 39,-133 89,-133zm-625 0c48,0 87,59 87,133 0,72 -39,131 -87,131 -50,0 -89,-59 -89,-131 0,-74 39,-133 89,-133zm1448 -136c88,-79 126,-170 126,-264l-2490 0c0,94 39,185 126,264l2238 0z"/>
 </g>
</svg>
