<?xml version="1.0" encoding="UTF-8"?>
<!DOCTYPE svg PUBLIC "-//W3C//DTD SVG 1.1//EN" "http://www.w3.org/Graphics/SVG/1.1/DTD/svg11.dtd">
<!-- Creator: CorelDRAW X7 -->
<svg xmlns="http://www.w3.org/2000/svg" xml:space="preserve" width="100%" height="100%" version="1.1" style="shape-rendering:geometricPrecision; text-rendering:geometricPrecision; image-rendering:optimizeQuality; fill-rule:evenodd; clip-rule:evenodd"
viewBox="0 0 15837 3230"
 xmlns:xlink="http://www.w3.org/1999/xlink">
 <defs>
  <style type="text/css">
   <![CDATA[
    .fil0 {fill:#FEFEFE}
    .fil1 {fill:#FEFEFE;fill-rule:nonzero}
   ]]>
  </style>
 </defs>
 <g id="Слой_x0020_1">
  <metadata id="CorelCorpID_0Corel-Layer"/>
  <g id="_2168223894784">
   <path class="fil0" d="M1245 0c752,23 1005,586 1005,1205l-2009 0c0,-619 253,-1182 1004,-1205l0 0zm-83 990l273 -414 -171 1 65 -264 -273 415 171 -1 -65 263zm-93 1186c-135,161 -522,98 -522,98 0,0 220,268 571,154 52,-17 92,-37 123,-62 29,25 69,45 123,62 351,114 570,-154 570,-154 0,0 -388,63 -523,-98 -58,-68 -122,-79 -170,-56 -50,-23 -114,-12 -172,56zm1225 -526c0,37 -1,73 -4,107 47,-20 99,-30 151,-26 29,2 55,8 82,18 27,11 51,26 74,43 142,114 152,330 89,489 -34,87 -92,167 -167,223 -67,49 -148,79 -231,74 -29,-3 -57,-9 -83,-19 -26,-10 -51,-25 -73,-43 -22,-18 -43,-40 -59,-63 -75,122 -166,227 -270,311 323,43 538,123 538,216 0,137 -491,250 -1096,250 -605,0 -1095,-113 -1095,-250 0,-87 194,-165 490,-209 -299,-236 -498,-649 -499,-1121l117 0c2,580 323,1063 753,1184l413 0c430,-121 751,-604 752,-1184l118 0zm-498 1119c-44,35 -89,66 -138,93l0 97 -875 0 0 -93c-47,-26 -91,-55 -134,-89 -206,41 -337,99 -337,165 0,118 417,214 933,214 515,0 933,-96 933,-214 0,-71 -150,-134 -382,-173zm475 -855c-24,146 -66,284 -125,407 12,39 33,72 64,98 13,9 27,17 41,24 14,5 30,8 46,9 124,10 230,-111 273,-217 41,-107 45,-267 -52,-345 -12,-11 -26,-17 -40,-24 -15,-5 -30,-9 -46,-11 -59,-4 -114,22 -161,59l0 0zm-730 -237c48,0 87,59 87,133 0,72 -39,131 -87,131 -50,0 -89,-59 -89,-131 0,-74 39,-133 89,-133zm-625 0c48,0 87,59 87,133 0,72 -39,131 -87,131 -50,0 -89,-59 -89,-131 0,-74 39,-133 89,-133zm1448 -136c88,-79 126,-170 126,-264l-2490 0c0,94 39,185 126,264l2238 0z"/>
   <path class="fil1" d="M3801 952l-2 -2 0 -8c0,-5 0,-8 -2,-9 0,-4 -1,-7 -2,-11l0 -8 -3 0 0 -8c-5,-17 -15,-39 -29,-64 -14,-26 -37,-48 -69,-66 -16,-9 -24,-21 -24,-36 0,-4 2,-9 3,-15 5,-22 20,-33 41,-33l364 0c18,0 33,9 42,27l586 1409 479 -1405c3,-10 8,-18 16,-23 7,-5 17,-8 26,-8l397 0c22,0 37,11 45,33 1,4 1,8 1,13 0,17 -8,29 -25,38 -33,18 -55,40 -69,66 -14,25 -24,47 -28,64 -1,2 -1,4 -1,7l0 1c-3,8 -4,15 -4,19l0 4c-3,3 -3,4 -3,5l0 10c0,4 -1,5 -3,6l0 1307c3,52 23,99 58,140 17,22 36,38 56,48 18,10 26,22 26,39 0,4 -2,8 -3,12 -7,23 -21,34 -44,34l-485 0c-23,0 -36,-11 -41,-34 -2,-5 -3,-10 -3,-17 0,-13 8,-24 23,-33 23,-14 43,-30 59,-49 2,-2 5,-5 6,-8 2,-2 3,-5 4,-8 4,-4 8,-10 11,-17 3,-3 5,-5 7,-8 17,-34 27,-67 27,-99l0 -1270 -514 1512c-4,9 -8,17 -16,23 -8,5 -17,8 -27,8l-99 0c-19,0 -34,-10 -42,-27l-601 -1446 0 1213 3 6 0 13c1,3 1,4 1,5 0,2 2,4 3,7l0 7c1,2 3,5 3,8 5,17 14,38 29,64 13,25 36,48 68,65 16,10 24,21 24,34 0,7 -1,12 -2,17 -6,23 -20,34 -42,34l-312 0c-21,0 -36,-11 -41,-34 -1,-5 -3,-10 -3,-17 0,-13 8,-24 24,-34 32,-17 55,-40 69,-65 14,-26 24,-47 29,-64l0 -7 3 -1c0,-3 0,-7 1,-10 0,-4 1,-6 1,-9l0 -3 2 0 0 -15 2 -6 0 -1321 0 0zm3736 1497c12,3 20,9 28,18 4,8 6,16 6,25l0 6c-3,26 -18,40 -45,40l-68 0c-106,0 -197,-11 -273,-34 -123,-34 -221,-99 -290,-192l-363 -488 -210 0 0 439c1,23 7,49 16,73 11,25 23,48 37,68 16,19 36,36 59,49 16,9 24,19 24,34 0,7 -1,12 -2,17 -6,23 -20,34 -42,34l-486 0c-21,0 -36,-11 -41,-34 -2,-5 -3,-10 -3,-17 0,-15 8,-25 24,-34 23,-13 43,-30 58,-49 16,-20 28,-43 39,-68 9,-24 14,-50 16,-73l0 -1298c-2,-24 -7,-48 -16,-74 -11,-25 -23,-48 -39,-66 -16,-19 -36,-35 -58,-49 -16,-9 -24,-21 -24,-36 0,-4 1,-9 3,-15 5,-22 20,-33 41,-33l687 0c115,0 217,17 306,55 82,32 150,78 207,138 45,49 80,104 105,167 27,63 42,127 45,194l0 23c-3,52 -14,103 -30,154 -16,51 -39,98 -68,143 -36,52 -81,98 -131,135 -53,38 -111,66 -177,87l273 362c31,41 60,79 90,112 29,32 60,62 91,86 30,24 63,45 97,61 34,18 73,31 114,40l0 0zm-1188 -1638c-19,3 -27,12 -27,28l0 827c0,7 2,14 11,22l266 0c41,0 84,-7 128,-18 45,-10 85,-32 121,-62 35,-31 65,-74 88,-129 24,-55 38,-124 39,-211l0 -19c-3,-165 -48,-280 -137,-347l-2 -3c-52,-40 -107,-65 -168,-73 -58,-10 -117,-15 -176,-15l-143 0 0 0zm1519 1531c24,0 47,10 64,27 19,18 28,38 28,62 0,24 -9,44 -27,61 -17,16 -38,26 -61,27l-10 0c-24,-1 -45,-11 -62,-27 -17,-17 -26,-37 -26,-61 0,-24 9,-44 28,-62 18,-17 40,-27 66,-27l0 0zm1352 -180c9,5 17,16 21,29l0 7c0,9 -4,20 -11,29 -80,105 -176,185 -291,241 -4,3 -10,6 -14,6 -4,1 -8,2 -12,5 -3,1 -7,3 -11,4 -4,1 -8,3 -10,4 -12,7 -27,11 -42,15 -8,4 -17,5 -25,8 -8,2 -18,4 -27,6 -24,8 -48,12 -72,15 -26,4 -50,5 -75,7l-34 0c-111,-3 -215,-28 -316,-78 -2,-1 -5,-3 -8,-4 -2,-1 -5,-3 -8,-4 -61,-33 -117,-73 -166,-120l-29 -30c-7,-6 -15,-13 -21,-21 -7,-8 -14,-16 -22,-24 -52,-63 -96,-134 -131,-210 -36,-78 -60,-160 -76,-247l0 -1c-2,-3 -2,-7 -2,-11 0,-2 -1,-5 -1,-8 -1,-1 -1,-4 -1,-7l-3 -2c-7,-51 -9,-99 -9,-145l0 -40c2,-53 5,-96 9,-126l0 -1c1,-3 3,-7 3,-9 0,-2 1,-3 2,-6 15,-88 40,-172 75,-251 35,-79 81,-152 134,-217 75,-87 159,-156 254,-205 98,-48 201,-74 312,-78l27 0c46,0 91,6 137,15 44,11 88,24 132,43 52,19 94,29 126,29 24,0 43,-5 59,-17 8,-8 17,-12 29,-12 6,0 12,1 19,4 17,9 25,24 25,41l0 229c0,24 -12,39 -33,44l-11 0c-18,0 -32,-8 -40,-25 -15,-32 -33,-59 -55,-83 -20,-24 -41,-44 -60,-60 -20,-16 -37,-28 -52,-36 -15,-7 -23,-12 -24,-14 -63,-25 -130,-37 -200,-37 -24,0 -45,1 -67,6 -140,21 -253,90 -338,205 -34,44 -62,94 -86,151 -24,58 -43,121 -56,188 0,1 -3,16 -8,44 -6,28 -8,66 -11,111 -4,30 -5,62 -5,97 0,21 1,42 2,65 2,60 8,122 22,188 13,66 32,128 56,186 24,57 52,108 84,151 89,116 201,185 340,206 22,4 43,7 67,7l40 0c3,-2 7,-3 11,-3l7 0c4,0 7,0 9,-1l7 0c3,0 5,-2 7,-2 1,-1 2,-1 6,-1l2 0c2,-1 5,-3 8,-3 2,0 6,0 9,-1l4 0c3,0 4,0 5,-1 3,0 4,-2 6,-2 1,0 2,0 4,-1l1 0c3,0 5,-1 5,-1 2,-2 3,-2 6,-2 1,0 3,0 4,-1 0,0 1,0 3,0 1,0 2,-1 4,-1 1,-2 2,-2 4,-2l2 -2 4 0c3,-2 6,-2 7,-2 1,0 3,-1 4,-3l4 -1c4,0 9,-1 15,-4l1 -3c3,-1 5,-2 7,-2 1,0 4,0 6,-2 2,0 2,-1 2,-2l2 0c6,-3 10,-4 11,-4 2,-2 3,-2 7,-2 1,-1 3,-2 4,-4 1,0 3,-1 4,-2l1 0 3 -3c5,-3 9,-4 11,-5l4 -3 12 -7 2 -1c6,-3 10,-5 12,-9l4 -2c4,-1 6,-2 6,-2 1,-2 2,-3 5,-4l4 -4c2,-2 4,-3 6,-3 1,-2 2,-3 4,-4 1,-2 2,-2 4,-2 1,-2 2,-5 4,-5 1,-1 2,-1 4,-3l2 -2 2 0c4,-4 9,-8 13,-12 4,-3 8,-7 12,-11l3 -3 10 -10 2 -2c4,-4 6,-8 8,-10 1,0 3,-2 3,-3l1 0c3,-3 4,-4 5,-5 2,0 3,-2 4,-6 2,-1 2,-2 2,-4 2,-3 5,-4 6,-5 2,0 3,-2 4,-6l0 -1 3 0c1,-3 3,-5 4,-8 1,-1 4,-4 7,-7l0 -2c2,-3 4,-4 5,-6 0,-1 1,-4 4,-6l3 -4c4,-4 6,-8 8,-11l2 -4c2,-3 4,-7 8,-11l3 -6c5,-10 15,-17 30,-21 2,-1 5,-2 10,-2 7,0 14,2 23,8l23 15 0 0zm1109 -1200c86,43 162,103 229,181 64,79 114,166 147,264 35,97 53,199 53,308 0,108 -18,210 -53,309 -33,98 -83,185 -147,262 -67,78 -143,138 -229,181 -87,44 -180,68 -279,71l-18 0c-100,-3 -194,-27 -281,-71 -87,-44 -162,-105 -226,-181 -66,-77 -114,-164 -149,-262 -34,-99 -52,-201 -52,-309 0,-109 18,-211 52,-308 35,-98 83,-185 149,-264 64,-76 139,-136 226,-181 88,-42 181,-65 280,-68l20 0c100,3 193,26 278,68zm-287 1458c16,0 33,-1 49,-5 58,-11 110,-34 155,-69 47,-34 86,-80 119,-135 34,-55 59,-120 79,-197 19,-74 31,-157 34,-248l0 -3c1,-7 1,-15 1,-23l0 -51c0,-6 0,-15 -1,-23l0 -2c-3,-91 -15,-174 -34,-249 -20,-76 -45,-142 -79,-197 -33,-55 -72,-100 -119,-135 -45,-35 -97,-58 -155,-67 -16,-5 -32,-7 -48,-7l-4 0c-16,0 -32,2 -48,7 -58,9 -110,32 -157,67 -47,35 -87,80 -119,135 -34,55 -59,121 -78,197 -20,75 -30,158 -33,249l0 2c-1,8 -1,17 -1,23l0 51c0,8 0,16 1,23l0 3c3,91 13,174 33,248 19,77 44,142 78,197 32,55 72,101 119,135 47,35 99,58 157,69 16,4 32,5 48,5l3 0zm858 -8c14,-17 25,-36 33,-58 9,-21 13,-42 13,-64l0 -1148c0,-20 -4,-42 -13,-63 -8,-23 -19,-43 -33,-59 -15,-19 -33,-32 -50,-43 -16,-8 -24,-20 -24,-35 0,-5 1,-9 3,-14 5,-23 20,-34 41,-34l962 0c13,0 25,4 33,14 9,9 14,20 14,32l0 216c0,11 -4,21 -10,29 -6,8 -15,13 -26,16l-11 0c-18,0 -32,-10 -40,-26 -9,-21 -22,-43 -37,-65 -38,-46 -76,-74 -115,-82l-372 0c-15,0 -24,0 -28,1 -6,0 -10,3 -13,6 -2,2 -4,5 -4,9l0 589c0,4 2,8 4,11 3,1 7,2 10,4 4,1 7,1 8,1l233 0c2,-1 6,-1 10,-1 3,0 6,-2 8,-3 3,0 6,0 7,-1 58,-14 98,-40 123,-81 11,-13 22,-21 34,-21 6,0 12,1 17,3 22,6 31,21 31,44l0 255c0,23 -9,38 -31,45 -5,1 -11,2 -17,2 -12,0 -23,-6 -34,-21 -25,-40 -65,-67 -123,-79 -1,-3 -4,-3 -7,-3l-2 0c-3,-1 -6,-2 -8,-2 -3,0 -6,0 -8,-2l-11 0c-1,0 -3,0 -3,-1 -1,0 -2,-1 -4,-1l-215 0c-15,2 -22,9 -22,18l0 490c3,44 19,86 49,122 16,19 32,32 50,41 15,10 23,22 23,39 0,4 -1,8 -2,12 -7,23 -22,34 -45,34l-428 0c-9,0 -19,-3 -25,-8 -8,-6 -14,-15 -16,-26 -2,-5 -3,-10 -3,-17 0,-13 8,-24 24,-33 17,-10 35,-23 49,-42l1 0zm1276 0c15,-17 26,-36 34,-58 9,-21 13,-42 13,-64l0 -1148c0,-20 -4,-42 -13,-63 -8,-23 -19,-43 -34,-59 -14,-19 -32,-32 -49,-43 -16,-8 -24,-20 -24,-35 0,-5 1,-9 3,-14 5,-23 20,-34 41,-34l962 0c12,0 25,4 33,14 9,9 14,20 14,32l0 216c0,11 -4,21 -10,29 -6,8 -15,13 -26,16l-11 0c-18,0 -32,-10 -40,-26 -9,-21 -22,-43 -37,-65 -38,-46 -77,-74 -115,-82l-372 0c-15,0 -25,0 -29,1 -5,0 -9,3 -12,6 -2,2 -4,5 -4,9l0 589c0,4 2,8 4,11 3,1 7,2 10,4 4,1 6,1 8,1l233 0c2,-1 6,-1 10,-1 3,0 6,-2 8,-3 3,0 6,0 7,-1 58,-14 98,-40 123,-81 11,-13 22,-21 34,-21 6,0 12,1 17,3 22,6 31,21 31,44l0 255c0,23 -9,38 -31,45 -5,1 -11,2 -17,2 -12,0 -23,-6 -34,-21 -25,-40 -65,-67 -123,-79 -1,-3 -4,-3 -7,-3l-2 0c-3,-1 -6,-2 -8,-2 -3,0 -6,0 -8,-2l-11 0c-1,0 -3,0 -3,-1 -1,0 -2,-1 -4,-1l-215 0c-15,2 -22,9 -22,18l0 490c3,44 19,86 49,122 16,19 32,32 50,41 15,10 23,22 23,39 0,4 -1,8 -3,12 -6,23 -21,34 -44,34l-428 0c-9,0 -17,-3 -25,-8 -8,-6 -14,-15 -16,-26 -2,-5 -3,-10 -3,-17 0,-13 8,-24 24,-33 17,-10 35,-23 49,-42l0 0zm1228 -1435c-16,-8 -24,-20 -24,-35 0,-5 1,-9 3,-14 5,-23 20,-34 41,-34l903 0c14,0 23,4 33,14 8,9 12,20 12,32l0 216c0,11 -3,21 -10,29 -6,8 -14,13 -26,16l-10 0c-17,0 -31,-10 -40,-26 -11,-21 -23,-43 -39,-65 -35,-46 -72,-74 -115,-82l-310 0c-15,0 -25,0 -29,1 -5,0 -9,3 -12,6 -2,5 -4,8 -4,9l0 589c0,3 3,7 7,11 3,1 5,2 8,4 3,1 5,1 8,1l232 0c2,-1 5,-1 8,-1 2,0 5,-2 8,-3l2 0c3,0 6,0 7,-1 58,-14 98,-40 123,-81 11,-13 22,-21 34,-21 6,0 12,1 17,3 22,6 31,21 31,44l0 255c0,23 -9,38 -31,45 -5,1 -11,2 -15,2 -16,0 -26,-6 -36,-21 -25,-39 -65,-67 -123,-82l-9 0c-3,-1 -6,-2 -8,-2 -3,0 -6,0 -8,-2l-11 0c-1,-1 -4,-2 -7,-2l-211 0c-7,0 -14,2 -19,5 -4,4 -7,8 -7,13l0 589c0,6 3,10 7,14 5,4 12,5 19,5l439 0c35,-1 71,-16 107,-43 36,-25 68,-61 96,-107 6,-9 14,-16 23,-20 4,-1 9,-3 15,-3 5,0 12,2 17,4 9,3 18,10 23,18 4,6 7,13 7,21 0,3 -2,6 -3,10l-34 212c-2,16 -12,28 -26,36 -3,2 -10,2 -18,2l-1025 0c-9,0 -17,-3 -25,-8 -9,-6 -14,-15 -17,-26 -1,-5 -2,-10 -2,-17 0,-13 8,-24 24,-33 17,-10 35,-23 49,-42 15,-17 26,-36 34,-58 9,-21 13,-42 13,-64l0 -1148c0,-22 -4,-43 -13,-64 -8,-22 -19,-42 -34,-58 -14,-19 -32,-32 -49,-43l0 0zm1308 0c-15,-8 -23,-20 -23,-35 0,-5 1,-9 3,-14 5,-23 18,-34 41,-34l904 0c12,0 22,4 30,14 8,9 14,20 14,32l0 216c0,11 -4,21 -10,29 -6,8 -16,13 -26,16l-11 0c-16,0 -30,-10 -40,-26 -10,-21 -22,-43 -38,-65 -35,-46 -73,-74 -115,-82l-312 0c-13,0 -22,0 -28,1 -4,0 -8,3 -11,6 -2,5 -4,8 -4,9l0 589c0,3 2,7 6,11 2,1 5,2 9,4 3,1 6,1 8,1l230 0c3,-1 7,-1 10,-1 2,0 5,-2 8,-3l2 0c3,0 5,0 6,-1 57,-14 99,-40 124,-81 10,-13 22,-21 34,-21 5,0 10,1 16,3 21,6 32,21 32,44l0 255c0,23 -11,38 -32,45 -6,1 -10,2 -15,2 -15,0 -27,-6 -35,-21 -25,-39 -67,-67 -124,-82l-8 0c-3,-1 -6,-2 -8,-2 -3,0 -7,0 -10,-2l-9 0c-1,-1 -4,-2 -7,-2l-212 0c-7,0 -13,2 -18,5 -5,4 -7,8 -7,13l0 589c0,6 2,10 7,14 5,4 11,5 18,5l439 0c34,-1 70,-16 107,-43 37,-25 69,-61 97,-107 6,-9 12,-16 23,-20 4,-1 9,-3 15,-3 5,0 11,2 16,4 11,3 17,10 24,18 4,6 5,13 5,21 0,3 0,6 -1,10l-33 212c-3,16 -13,28 -29,36 -2,2 -8,2 -16,2l-1025 0c-9,0 -19,-3 -27,-8 -6,-6 -12,-15 -14,-26 -2,-5 -3,-10 -3,-17 0,-13 8,-24 23,-33 18,-10 34,-23 50,-42 14,-17 26,-36 34,-58 8,-21 12,-42 12,-64l0 -1148c0,-22 -4,-43 -12,-64 -8,-22 -20,-42 -34,-58 -16,-19 -32,-32 -50,-43l0 0z"/>
  </g>
 </g>
</svg>
