<svg id="Capa_1" xmlns="http://www.w3.org/2000/svg" viewBox="0 0 512 512"><style>.st0{fill:#fff}.st1{fill:#ba936a}</style><path class="st0" d="M256 0C114.8 0 0 103.4 0 230.4c0 44.4 14.1 87.4 40.7 124.6-5 55.8-18.6 97.2-38.2 116.8-2.6 2.6-3.2 6.6-1.6 9.8 1.5 2.9 4.4 4.7 7.6 4.7.4 0 .8 0 1.2-.1 3.5-.5 83.7-12 141.8-45.6 33 13.3 68.1 20 104.5 20 141.2 0 256-103.4 256-230.4S397.2 0 256 0zm0 443.7c-29.8 0-58.6-4.9-86-14.3 34.8-21.7 34.9-23.3 34.8-28.3 0-3-1.6-5.8-4.2-7.4-3.9-2.3-8.9-1.2-11.4 2.5-4.7 3.7-24.8 16.6-42.8 27.7-38.1 23-89.4 35.8-117.8 41.6C47.4 434.3 55 388.9 58 353.3c.2-2.1-.4-4.1-1.6-5.8-25.7-34.8-39.3-75.3-39.3-117.1C17.1 112.8 124.3 17.1 256 17.1s238.9 95.7 238.9 213.3S387.8 443.7 256 443.7z"/><path class="st1" d="M136.5 170.8h128c4.7 0 8.5-3.8 8.5-8.5s-3.8-8.5-8.5-8.5h-128c-4.7 0-8.5 3.8-8.5 8.5s3.8 8.5 8.5 8.5zm239 51.2h-239c-4.7 0-8.5 3.8-8.5 8.5s3.8 8.5 8.5 8.5h238.9c4.7 0 8.5-3.8 8.5-8.5.1-4.7-3.7-8.5-8.4-8.5zm0 68.3h-239c-4.7 0-8.5 3.8-8.5 8.5s3.8 8.5 8.5 8.5h238.9c4.7 0 8.5-3.8 8.5-8.5s-3.7-8.5-8.4-8.5z"/></svg>