<?xml version="1.0" encoding="UTF-8"?>
<!DOCTYPE svg PUBLIC "-//W3C//DTD SVG 1.1//EN" "http://www.w3.org/Graphics/SVG/1.1/DTD/svg11.dtd">
<!-- Creator: CorelDRAW 2017 -->
<svg xmlns="http://www.w3.org/2000/svg" xml:space="preserve" width="100%" height="100%" version="1.1" style="shape-rendering:geometricPrecision; text-rendering:geometricPrecision; image-rendering:optimizeQuality; fill-rule:evenodd; clip-rule:evenodd"
viewBox="0 0 8594.8 8594.8"
 xmlns:xlink="http://www.w3.org/1999/xlink">
 <defs>
  <style type="text/css">
   <![CDATA[
    .fil0 {fill:#FEFEFE}
    .fil1 {fill:#FEFEFE;fill-rule:nonzero}
   ]]>
  </style>
 </defs>
 <g id="Слой_x0020_1">
  <metadata id="CorelCorpID_0Corel-Layer"/>
  <g id="_990901642752">
   <path class="fil0" d="M8594.8 4297.4c0,-2373.16 -1924.24,-4297.4 -4297.4,-4297.4 -2373.16,0 -4297.4,1924.24 -4297.4,4297.4 0,2373.16 1924.24,4297.4 4297.4,4297.4 2373.16,0 4297.4,-1924.24 4297.4,-4297.4zm-289.76 0c0,-2211.96 -1793.64,-4005.6 -4007.64,-4005.6 -2211.96,0 -4005.6,1793.64 -4005.6,4005.6 0,2214 1793.64,4007.64 4005.6,4007.64 2214,0 4007.64,-1793.64 4007.64,-4007.64z"/>
   <path class="fil0" d="M4297.4 601.96c-77.54,0 -142.84,63.26 -142.84,140.8l0 567.28c0,79.58 65.3,142.83 142.84,142.83 79.58,0 142.84,-63.25 142.84,-142.83l0 -567.28c0,-77.54 -63.26,-140.8 -142.84,-140.8z"/>
   <path class="fil0" d="M4297.4 7141.93c-77.54,0 -142.84,63.25 -142.84,142.83l0 567.28c0,77.54 65.3,140.8 142.84,140.8 79.58,0 142.84,-63.26 142.84,-140.8l0 -567.28c0,-79.58 -63.26,-142.83 -142.84,-142.83z"/>
   <path class="fil0" d="M7852.04 4154.56l-567.27 0c-79.58,0 -142.84,65.3 -142.84,142.84 0,79.58 63.26,142.84 142.84,142.84l567.27 0c77.54,0 140.8,-63.26 140.8,-142.84 0,-77.54 -63.26,-142.84 -140.8,-142.84z"/>
   <path class="fil0" d="M1310.03 4440.24c79.58,0 142.84,-63.26 142.84,-142.84 0,-77.54 -63.26,-142.84 -142.84,-142.84l-567.27 0c-77.54,0 -140.8,65.3 -140.8,142.84 0,79.58 63.26,142.84 140.8,142.84l567.27 0z"/>
   <path class="fil0" d="M6709.33 1683.46l-399.95 401.98c-55.1,55.1 -55.1,144.88 0,199.97 28.57,28.57 63.26,42.86 99.99,42.86 36.73,0 73.46,-14.29 99.98,-42.86l401.99 -399.94c55.1,-55.1 55.1,-144.88 0,-202.02 -55.1,-55.1 -144.88,-55.1 -202.01,0l0 0.01z"/>
   <path class="fil0" d="M2285.42 6309.38c-55.1,-55.1 -144.88,-55.1 -199.97,0l-401.99 399.95c-55.1,57.14 -55.1,146.92 0,202.01 28.57,28.57 65.3,40.82 102.03,40.82 34.69,0 71.42,-12.24 99.98,-40.82l399.95 -401.98c57.14,-55.1 57.14,-144.88 0,-199.97l0 -0.01z"/>
   <path class="fil0" d="M6509.36 6309.38c-55.1,-55.1 -144.88,-55.1 -199.97,0 -55.1,55.1 -55.1,144.88 0,199.97l399.94 401.99c28.57,28.57 65.3,40.81 102.03,40.81 34.69,0 71.42,-12.24 99.99,-40.81 55.1,-55.1 55.1,-144.88 0,-202.01l-401.99 -399.95 0 0z"/>
   <path class="fil0" d="M2085.44 2285.42c26.53,28.57 63.26,42.85 99.99,42.85 36.73,0 73.46,-14.28 99.98,-42.85 57.14,-55.1 57.14,-144.88 0,-199.97l-399.94 -401.99c-55.1,-55.1 -146.92,-55.1 -202.02,0 -55.1,55.1 -55.1,146.92 0,202.01l401.99 399.95 0 0z"/>
   <path class="fil1" d="M4171.46 4945.45l0 206.94 -1167.75 0c-1.64,-52.15 6.98,-102.24 25.46,-150.69 29.98,-79.25 78.02,-157.67 144.12,-234.45 66.11,-76.78 160.55,-165.47 283.32,-266.07 190.93,-157.26 320.67,-281.67 388.42,-373.65 68.16,-91.97 102.24,-179.02 102.24,-261.14 0,-85.81 -30.79,-158.08 -92.38,-217.21 -61.59,-58.71 -142.07,-88.28 -241.02,-88.28 -104.71,0 -188.47,31.21 -251.29,93.62 -62.82,62 -94.44,148.23 -95.26,258.68l-221.72 -22.17c15.19,-165.89 72.67,-292.35 172.04,-379.4 99.77,-87.04 233.22,-130.57 401.15,-130.57 169.17,0 303.44,46.81 401.98,140.84 98.96,94.02 148.23,210.64 148.23,349.42 0,70.62 -14.37,140.01 -43.53,208.17 -28.74,68.57 -76.78,140.43 -143.71,215.98 -67.33,75.14 -178.61,179.02 -333.81,310.41 -130.16,109.22 -213.93,183.13 -250.88,222.14 -36.95,39 -67.34,78.01 -91.56,117.43l865.95 0zm234.45 -663.53c0,-208.18 21.35,-376.52 64.05,-503.81 43.12,-127.69 106.76,-225.83 191.34,-294.4 84.18,-68.57 190.52,-102.65 318.63,-102.65 94.44,0 177.38,18.89 249.23,57.08 71.45,38.18 130.57,93.2 176.56,165.06 45.99,71.44 82.12,158.9 108.4,261.96 26.69,103.06 39.83,242.25 39.83,416.76 0,206.94 -21.35,374.47 -63.64,501.75 -42.3,127.7 -105.94,225.83 -190.52,294.81 -84.18,68.98 -190.93,103.47 -319.86,103.47 -169.58,0 -303.02,-60.35 -399.92,-181.48 -116.2,-147.82 -174.1,-387.2 -174.1,-718.55zm221.73 0.82c0,290.29 33.66,483.28 101.41,578.53 67.75,95.67 151.51,143.3 250.88,143.3 99.37,0 183.13,-48.04 250.88,-143.71 67.75,-96.08 101.41,-288.65 101.41,-578.12 0,-290.29 -33.66,-483.28 -101.41,-578.54 -67.34,-95.67 -151.93,-143.3 -253.34,-143.3 -99.37,0 -179.03,42.3 -238.56,126.47 -74.32,107.17 -111.27,305.9 -111.27,595.37z"/>
  </g>
 </g>
</svg>
