<?xml version="1.0" encoding="iso-8859-1"?>
<!-- Generator: Adobe Illustrator 19.0.0, SVG Export Plug-In . SVG Version: 6.00 Build 0)  -->
<svg version="1.1" id="Capa_1" xmlns="http://www.w3.org/2000/svg" xmlns:xlink="http://www.w3.org/1999/xlink" x="0px" y="0px"
	 viewBox="0 0 512 512" style="enable-background:new 0 0 512 512;" xml:space="preserve">
<path style="fill:#32D736;" d="M451,196v240c0,41.4-33.6,76-75,76H136c-41.4,0-75-34.6-75-76V196c0-16.5,5.7-32.1,15.601-45l60.3-30
	h238.198l60.3,30C445.3,163.9,451,179.5,451,196z"/>
<path style="fill:#0CA656;" d="M451,196v240c0,41.4-33.6,76-75,76H256V121h119.099l60.3,30C445.3,163.9,451,179.5,451,196z"/>
<path style="fill:#E50027;" d="M316,271c-8.291,0-15-6.709-15-15s6.709-15,15-15c8.276,0,15-6.724,15-15c0-24.814,20.186-45,45-45
	c8.291,0,15,6.709,15,15s-6.709,15-15,15c-8.276,0-15,6.724-15,15C361,250.814,340.814,271,316,271z"/>
<path style="fill:#E1E4FB;" d="M256,211.899c-4.799-0.599-9.901-0.899-15-0.899c-66.301,0-120,53.699-120,120
	c0,66.299,53.699,120,120,120c5.099,0,10.201-0.3,15-0.901c59.099-7.5,105-57.9,105-119.099
	C361,269.799,315.099,219.399,256,211.899z"/>
<path style="fill:#C5C9F7;" d="M361,331c0,61.199-45.901,111.599-105,119.099v-238.2C315.099,219.399,361,269.799,361,331z"/>
<path style="fill:#1689FC;" d="M256,303.699C243.1,293.5,227.199,287.5,209.5,287.5c-41.4,0-75,33.6-75,75s33.6,75,75,75
	c17.699,0,33.6-6,46.5-16.199c17.401-13.801,28.5-35.101,28.5-58.801S273.401,317.5,256,303.699z"/>
<path style="fill:#136EF1;" d="M284.5,362.5c0,23.699-11.1,45-28.5,58.801V303.699C273.401,317.5,284.5,338.8,284.5,362.5z"/>
<circle style="fill:#063E8B;" cx="209.5" cy="362.5" r="15"/>
<path style="fill:#E1E4FB;" d="M435.399,151H76.601c13.2-17.701,17.399-14.101,30.3-30c7.5-9.3,14.099-22.601,14.099-38.2V45
	c0-8.401,6.599-15,15-15h240c8.401,0,15,6.599,15,15v37.8c0,15.599,6.599,28.9,14.099,38.2
	C418.001,136.899,422.199,133.299,435.399,151z"/>
<path style="fill:#994C0F;" d="M421,30c0,16.5-13.5,30-30,30H121c-16.5,0-30-13.5-30-30s13.5-30,30-30h270C407.5,0,421,13.5,421,30z
	"/>
<path style="fill:#C5C9F7;" d="M435.399,151H256V30h120c8.401,0,15,6.599,15,15v37.8c0,15.599,6.599,28.9,14.099,38.2
	C418.001,136.899,422.199,133.299,435.399,151z"/>
<path style="fill:#713708;" d="M421,30c0,16.5-13.5,30-30,30H256V0h135C407.5,0,421,13.5,421,30z"/>
<g>
</g>
<g>
</g>
<g>
</g>
<g>
</g>
<g>
</g>
<g>
</g>
<g>
</g>
<g>
</g>
<g>
</g>
<g>
</g>
<g>
</g>
<g>
</g>
<g>
</g>
<g>
</g>
<g>
</g>
</svg>
