<?xml version="1.0" encoding="UTF-8"?>
<!DOCTYPE svg PUBLIC "-//W3C//DTD SVG 1.1//EN" "http://www.w3.org/Graphics/SVG/1.1/DTD/svg11.dtd">
<!-- Creator: CorelDRAW X8 -->
<svg xmlns="http://www.w3.org/2000/svg" xml:space="preserve" width="100%" height="100%" version="1.1" style="shape-rendering:geometricPrecision; text-rendering:geometricPrecision; image-rendering:optimizeQuality; fill-rule:evenodd; clip-rule:evenodd"
viewBox="0 0 21000 14579"
 xmlns:xlink="http://www.w3.org/1999/xlink">
 <defs>
  <style type="text/css">
   <![CDATA[
    .fil3 {fill:#20120A}
    .fil0 {fill:#462917}
    .fil4 {fill:#FEFEFE}
    .fil5 {fill:#20120A;fill-rule:nonzero}
    .fil1 {fill:#462917;fill-rule:nonzero}
    .fil2 {fill:#FEFEFE;fill-rule:nonzero}
   ]]>
  </style>
 </defs>
 <g id="Слой_x0020_1">
  <metadata id="CorelCorpID_0Corel-Layer"/>
  <g id="_2249874498800">
   <path class="fil0" d="M9179 14514c658,14 1316,114 1975,34 109,-15 179,-30 279,-54 184,-40 159,-5 299,0 439,15 1850,-429 2204,-599 413,-209 842,-209 1186,-548 279,-284 160,-85 728,-344 244,-110 304,-195 494,-314l314 -274c224,-215 618,-394 673,-723 289,0 -5,174 543,-354 389,-374 723,-978 928,-1167 274,-249 648,-912 807,-1291l165 -349c55,-95 135,-265 179,-374 409,-878 215,-579 310,-973 24,-104 69,30 39,-189 -39,-294 -89,-85 -15,-464 70,100 55,235 135,329 50,-174 25,-264 45,-428 25,-185 105,-205 110,-409 10,-259 59,-294 49,-399 -9,-160 -124,-190 -109,-404l95 0c5,0 14,0 24,0 -24,-80 -89,-259 -89,-334 10,-379 30,25 164,-254l-154 0c20,-574 -40,-1067 -45,-1616 110,275 154,634 294,913l194 234c-39,-1182 -284,-3016 -703,-4128l-15 -35 -19284 0c-35,100 -75,204 -130,324 -50,105 -254,394 -264,469 -25,204 84,104 20,244 -35,65 -125,115 -160,209 -40,125 10,180 -40,295 -94,229 -204,-50 -314,787 -75,579 -159,1686 -75,2284l40 414c-65,354 -70,154 10,618 75,464 200,1511 389,1815 100,169 120,354 180,553 54,165 149,349 224,514 294,663 723,1376 1102,1844l1346 1561c249,234 499,314 623,449l225 179c189,145 418,384 638,469 174,70 104,0 259,109 120,90 1017,609 1192,594 334,-30 364,124 603,229l678 244c259,85 324,-10 618,125 145,60 454,125 578,90 110,-35 379,-135 434,70 0,5 0,19 5,24l0 1zm10844 -13632c80,-129 -80,-214 -134,-344 25,110 59,260 134,344z"/>
   <path class="fil1" d="M5335 10271c55,0 100,5 135,20 40,15 70,34 90,64 20,30 34,60 44,100 5,40 10,85 10,135 0,45 -5,89 -10,129 -10,40 -24,75 -44,105 -25,30 -55,55 -90,70 -40,15 -85,25 -145,25l-114 0 0 458 -100 0 0 -1106 224 0zm-124 558l109 0c40,0 75,-5 100,-15 25,-15 45,-30 60,-50 15,-20 25,-45 30,-75 5,-29 10,-59 10,-94 0,-35 -5,-65 -10,-95 -5,-30 -15,-55 -30,-75 -10,-20 -30,-35 -60,-50 -25,-10 -55,-20 -95,-20l-114 0 0 474 0 0zm523 548l0 -1106 464 0 0 84 -364 0 0 414 319 0 0 85 -319 0 0 434 364 0 0 89 -464 0zm1177 -837c-5,10 -10,30 -20,55 -10,25 -20,50 -30,79 -10,30 -20,55 -30,80 -10,25 -20,45 -25,55 0,5 -5,15 -10,30 -5,15 -10,30 -20,55 -10,20 -20,45 -30,65 -10,25 -15,50 -25,69 -10,20 -15,40 -25,55 -5,15 -10,25 -10,30l-54 0c-5,-15 -10,-35 -25,-65 -10,-25 -20,-54 -35,-84 -10,-30 -25,-60 -35,-90 -10,-25 -20,-45 -25,-60l-100 -274 -5 0 0 837 -100 0 0 -1106 100 0c5,15 15,39 30,69 10,35 25,70 40,105 10,35 25,70 40,105 10,35 20,60 25,75l114 309 5 0c5,-15 15,-40 25,-65 10,-30 25,-60 35,-95 10,-30 25,-60 35,-90 10,-29 20,-49 25,-64 0,-5 5,-15 10,-35 10,-15 15,-35 25,-60 10,-25 20,-55 35,-80 10,-30 20,-55 30,-80 5,-25 15,-45 20,-64 10,-15 15,-30 15,-30l99 0 0 1106 -99 0 0 -837 -5 0 0 0zm763 563c0,95 -20,165 -60,215 -45,45 -110,69 -190,69 -85,0 -149,-19 -189,-69 -40,-45 -60,-110 -60,-190l0 -583c0,-40 0,-75 10,-110 10,-35 25,-65 40,-95 20,-24 50,-44 80,-59 34,-15 74,-20 119,-20 45,0 85,5 120,20 30,10 60,30 75,54 20,25 35,55 45,90 5,35 10,75 10,115l0 563 0 0zm-95 -578c0,-20 -5,-45 -10,-65 -5,-20 -15,-40 -25,-55 -10,-20 -25,-30 -45,-40 -20,-10 -45,-15 -75,-15 -30,0 -55,5 -75,20 -19,10 -34,30 -49,50 -10,20 -20,40 -25,65 -5,25 -5,45 -5,65l0 578c0,25 5,45 10,65 5,20 15,35 25,55 15,15 29,25 49,35 20,10 40,15 70,15 55,0 95,-15 120,-55 20,-35 35,-80 35,-130l0 -588 0 0zm658 852l0 -523 -304 0 0 523 -100 0 0 -1106 100 0 0 498 304 0 0 -498 95 0 0 1106 -95 0zm484 -1022l0 1022 -100 0 0 -1022 -200 0 0 -84 499 0 0 84 -199 0zm583 1022l0 -1106 100 0 0 488 89 0c15,0 35,0 50,-5 20,-5 40,-15 55,-25 20,-10 35,-30 50,-50 15,-24 25,-49 35,-89l75 -319 89 0 -69 319c-15,55 -30,99 -55,134 -25,40 -55,65 -90,75 45,15 80,40 105,75 20,40 40,85 49,145l80 358 -99 0 -75 -349c-10,-34 -20,-64 -30,-89 -15,-20 -30,-40 -45,-55 -20,-10 -35,-20 -55,-25 -20,0 -40,-5 -60,-5l-99 0 0 523 -100 0zm1152 -274c0,95 -20,165 -60,215 -45,45 -105,69 -190,69 -84,0 -149,-19 -189,-69 -40,-45 -60,-110 -60,-190l0 -583c0,-40 5,-75 10,-110 10,-35 25,-65 45,-95 20,-24 45,-44 75,-59 35,-15 74,-20 119,-20 50,0 90,5 120,20 35,10 60,30 80,54 15,25 30,55 40,90 10,35 10,75 10,115l0 563 0 0zm-95 -578c0,-20 -5,-45 -10,-65 -5,-20 -10,-40 -25,-55 -10,-20 -25,-30 -45,-40 -20,-10 -45,-15 -75,-15 -30,0 -55,5 -75,20 -19,10 -34,30 -44,50 -15,20 -20,40 -25,65 -5,25 -10,45 -10,65l0 578c0,25 5,45 10,65 5,20 15,35 25,55 15,15 30,25 49,35 20,10 45,15 70,15 55,0 95,-15 120,-55 25,-35 35,-80 35,-130l0 -588 0 0zm513 -100l0 0c-25,0 -45,5 -64,10 -20,10 -40,20 -55,35 -15,10 -30,30 -40,50 -10,25 -15,50 -15,75l0 428c0,30 5,55 15,75 10,25 20,40 35,55 20,15 35,25 60,35 19,10 39,10 64,15l0 -778zm95 778c55,-5 95,-20 130,-50 30,-30 45,-70 45,-130l0 -428c0,-25 -5,-50 -15,-75 -10,-20 -25,-40 -40,-50 -15,-15 -35,-25 -55,-35 -20,-10 -45,-10 -65,-10l0 778zm0 174l-95 0 0 -84 0 0c-40,-5 -74,-10 -104,-20 -35,-15 -65,-30 -85,-50 -25,-25 -45,-50 -60,-85 -15,-30 -20,-70 -20,-115l0 -423c0,-45 5,-80 20,-115 20,-30 40,-60 65,-80 25,-25 55,-40 85,-55 35,-10 64,-15 99,-15l0 -64 95 0 0 64c35,0 65,5 100,20 30,10 60,25 90,50 24,20 44,45 59,80 15,30 25,70 25,115l0 423c0,45 -10,85 -20,115 -15,35 -35,60 -59,80 -25,25 -55,40 -90,50 -30,15 -65,20 -105,25l0 84 0 0zm424 0l0 -1106 464 0 0 84 -364 0 0 414 319 0 0 85 -319 0 0 434 364 0 0 89 -464 0zm1177 -837c-5,10 -10,30 -20,55 -10,25 -20,50 -30,79 -10,30 -20,55 -30,80 -10,25 -20,45 -20,55 -5,5 -5,15 -15,30 -5,15 -10,30 -20,55 -10,20 -15,45 -25,65 -10,25 -20,50 -30,69 -10,20 -15,40 -20,55 -10,15 -15,25 -15,30l-55 0c-5,-15 -10,-35 -25,-65 -10,-25 -20,-54 -34,-84 -10,-30 -20,-60 -35,-90 -10,-25 -15,-45 -25,-60l-100 -274 -5 0 0 837 -100 0 0 -1106 100 0c5,15 15,39 30,69 10,35 25,70 40,105 15,35 25,70 40,105 10,35 20,60 25,75l119 309 0 0c10,-15 15,-40 25,-65 10,-30 25,-60 35,-95 15,-30 25,-60 35,-90 10,-29 20,-49 25,-64 0,-5 5,-15 15,-35 5,-15 15,-35 20,-60 10,-25 20,-55 35,-80 10,-30 20,-55 30,-80 10,-25 15,-45 25,-64 5,-15 10,-30 10,-30l99 0 0 1106 -94 0 0 -837 -10 0 0 0zm693 837l-60 -269 -275 0 -59 269 -90 0 234 -1106 100 0 244 1106 -94 0zm-200 -947l-55 269 -65 320 240 0 -65 -325 -50 -264 -5 0 0 0zm1192 -159l0 1106 -798 0 0 -1106 95 0 0 1012 254 0 0 -1012 95 0 0 1012 254 0 0 -1012 100 0zm583 234l-324 872 -95 0 0 -1106 100 0 0 872 5 0 324 -872 95 0 0 1106 -100 0 0 -872 -5 0zm668 872l0 -523 -304 0 0 523 -95 0 0 -1106 95 0 0 498 304 0 0 -498 95 0 0 1106 -95 0z"/>
   <path class="fil2" d="M5255 10201c55,0 105,10 140,25 35,15 65,35 85,65 25,25 35,59 45,99 10,40 15,85 15,135 0,45 -5,90 -15,130 -10,39 -25,74 -45,104 -20,30 -50,50 -90,70 -35,15 -85,25 -140,25l-119 0 0 459 -95 0 0 -1112 219 0 0 0zm-124 563l114 0c40,0 70,-5 95,-20 30,-10 50,-25 65,-45 15,-20 25,-44 30,-74 5,-30 5,-65 5,-100 0,-30 0,-65 -5,-90 -5,-30 -15,-55 -30,-75 -15,-20 -35,-40 -60,-49 -25,-15 -60,-20 -100,-20l-114 0 0 473 0 0zm528 549l0 -1112 464 0 0 90 -369 0 0 408 319 0 0 90 -319 0 0 434 369 0 0 90 -464 0 0 0zm1177 -838c-5,10 -15,30 -25,55 -10,25 -20,50 -30,80 -10,25 -20,55 -30,79 -10,25 -15,40 -20,55 0,5 -5,10 -10,25 -5,20 -15,35 -20,60 -10,20 -20,40 -30,65 -10,25 -20,50 -30,70 -4,20 -14,40 -19,54 -5,15 -10,25 -10,30l-55 0c-5,-15 -15,-35 -25,-64 -10,-25 -25,-55 -35,-85 -15,-35 -25,-60 -35,-90 -10,-30 -20,-50 -25,-60l-105 -274 -5 0 0 838 -94 0 0 -1112 94 0c10,15 20,40 30,75 15,35 25,69 40,104 15,35 30,70 40,105 15,30 25,55 30,75l115 309 5 0c5,-15 15,-40 25,-70 10,-25 20,-55 34,-90 10,-30 20,-59 35,-89 10,-30 15,-50 25,-65 0,-5 5,-15 10,-35 5,-15 15,-40 25,-65 10,-20 20,-50 30,-80 10,-25 20,-54 30,-79 10,-20 20,-45 25,-60 5,-20 10,-30 10,-35l100 0 0 1112 -95 0 0 -838 -5 0 0 0zm763 563c0,90 -20,165 -65,210 -40,50 -105,75 -190,75 -84,0 -144,-25 -189,-70 -40,-45 -60,-110 -60,-190l0 -583c0,-40 5,-75 15,-110 5,-35 20,-69 40,-94 20,-25 45,-45 80,-60 30,-15 70,-25 114,-25 50,0 90,10 120,20 35,15 60,35 80,60 20,25 30,54 40,89 10,35 15,70 15,115l0 563 0 0zm-100 -578c0,-25 0,-45 -5,-65 -5,-25 -15,-40 -25,-60 -15,-15 -30,-29 -50,-39 -20,-10 -45,-15 -70,-15 -29,0 -59,10 -79,20 -20,15 -35,29 -45,49 -10,20 -20,45 -25,70 -5,20 -5,45 -5,65l0 578c0,20 0,45 5,65 10,20 15,35 30,50 10,20 25,30 45,40 20,10 45,15 69,15 60,0 100,-20 120,-55 25,-35 35,-80 35,-130l0 -588 0 0zm658 853l0 -524 -304 0 0 524 -95 0 0 -1112 95 0 0 498 304 0 0 -498 100 0 0 1112 -100 0zm489 -1022l0 1022 -100 0 0 -1022 -199 0 0 -90 498 0 0 90 -199 0zm583 1022l0 -1112 95 0 0 493 90 0c19,0 34,-5 54,-5 20,-5 35,-15 55,-24 15,-15 30,-30 45,-50 15,-25 25,-55 35,-90l80 -324 89 0 -74 324c-10,55 -30,100 -55,135 -20,39 -50,59 -85,74 45,10 80,35 100,75 25,40 40,85 55,140l79 364 -99 0 -75 -349c-10,-35 -20,-65 -35,-90 -10,-25 -25,-40 -45,-55 -15,-10 -35,-20 -55,-25 -20,-5 -40,-5 -60,-5l-99 0 0 524 -95 0 0 0zm1152 -275c0,90 -20,165 -65,210 -40,50 -105,75 -189,75 -85,0 -145,-25 -185,-70 -40,-45 -65,-110 -65,-190l0 -583c0,-40 5,-75 15,-110 10,-35 25,-69 40,-94 20,-25 50,-45 80,-60 30,-15 70,-25 120,-25 44,0 84,10 119,20 30,15 55,35 75,60 20,25 35,54 40,89 10,35 15,70 15,115l0 563 0 0zm-95 -578c0,-25 -5,-45 -10,-65 -5,-25 -15,-40 -25,-60 -10,-15 -30,-29 -45,-39 -20,-10 -45,-15 -75,-15 -29,0 -54,10 -74,20 -20,15 -35,29 -50,49 -10,20 -20,45 -25,70 -5,20 -5,45 -5,65l0 578c0,20 0,45 10,65 5,20 15,35 25,50 10,20 30,30 50,40 20,10 40,15 69,15 55,0 95,-20 120,-55 20,-35 35,-80 35,-130l0 -588 0 0zm509 -105l0 0c-20,0 -45,5 -65,15 -20,5 -35,20 -55,30 -15,15 -25,35 -35,55 -10,20 -15,45 -15,75l0 429c0,30 5,55 10,74 10,20 25,40 40,55 15,15 35,25 55,35 20,5 45,10 65,10l0 -778 0 0zm99 778c50,0 95,-15 125,-45 35,-30 50,-69 50,-129l0 -429c0,-30 -5,-55 -15,-75 -10,-20 -25,-40 -40,-55 -20,-10 -35,-25 -60,-30 -20,-10 -40,-15 -60,-15l0 778 0 0zm0 180l-99 0 0 -90 0 0c-35,0 -70,-5 -105,-15 -30,-15 -60,-30 -85,-55 -25,-20 -45,-50 -60,-80 -10,-35 -20,-69 -20,-114l0 -429c0,-40 10,-80 25,-110 15,-35 35,-60 60,-85 25,-19 55,-34 90,-49 30,-10 65,-20 95,-20l0 -65 99 0 0 65c30,5 65,10 100,20 30,15 60,30 85,49 25,25 50,50 65,85 15,30 25,70 25,110l0 429c0,45 -10,79 -25,114 -15,30 -35,60 -60,80 -25,25 -50,40 -85,50 -35,15 -70,20 -105,20l0 90zm424 0l0 -1112 464 0 0 90 -369 0 0 408 324 0 0 90 -324 0 0 434 369 0 0 90 -464 0 0 0zm1177 -838c-5,10 -15,30 -25,55 -5,25 -15,50 -25,80 -15,25 -25,55 -35,79 -10,25 -15,40 -20,55 0,5 -5,10 -10,25 -5,20 -15,35 -20,60 -10,20 -20,40 -30,65 -10,25 -20,50 -25,70 -10,20 -20,40 -25,54 -5,15 -10,25 -10,30l-54 0c-5,-15 -15,-35 -25,-64 -10,-25 -25,-55 -35,-85 -10,-35 -25,-60 -35,-90 -10,-30 -20,-50 -25,-60l-100 -274 -10 0 0 838 -95 0 0 -1112 100 0c5,15 15,40 25,75 15,35 30,69 40,104 15,35 30,70 40,105 15,30 25,55 30,75l114 309 5 0c5,-15 15,-40 25,-70 10,-25 20,-55 35,-90 10,-30 25,-59 35,-89 10,-30 20,-50 25,-65 0,-5 5,-15 10,-35 5,-15 15,-40 25,-65 10,-20 20,-50 30,-80 15,-25 25,-54 30,-79 10,-20 20,-45 25,-60 10,-20 10,-30 15,-35l99 0 0 1112 -99 0 0 -838 -5 0 0 0zm688 838l-60 -270 -274 0 -55 270 -95 0 239 -1112 100 0 244 1112 -99 0zm-200 -948l-50 270 -69 314 244 0 -70 -319 -50 -265 -5 0 0 0zm1197 -164l0 1112 -803 0 0 -1112 100 0 0 1012 249 0 0 -1012 100 0 0 1012 254 0 0 -1012 100 0 0 0zm583 239l-329 873 -90 0 0 -1112 100 0 0 872 5 5 319 -877 95 0 0 1112 -95 0 0 -873 -5 0 0 0zm668 873l0 -524 -304 0 0 524 -100 0 0 -1112 100 0 0 498 304 0 0 -498 95 0 0 1112 -95 0z"/>
   <path class="fil3" d="M9792 1067c310,85 733,169 928,429 254,334 -75,638 -264,862 -135,160 -265,309 -399,479 -424,538 -170,743 169,1117 30,35 80,79 115,109 409,394 459,444 498,1017 150,-114 210,-498 200,-648 -35,-613 -753,-673 -60,-1500 65,-75 145,-145 209,-230 474,-603 275,-1306 -553,-1560 -209,-65 -603,-120 -843,-75z"/>
   <path class="fil3" d="M11293 4422c0,240 -60,349 -124,549 109,-55 274,-269 359,-379 99,-130 189,-349 139,-539 -80,-314 -484,-573 -498,-952 -85,60 -135,215 -150,294 -70,439 274,534 274,1027z"/>
   <path class="fil3" d="M9563 3296c45,-315 30,-429 244,-644 90,-84 389,-264 270,-583 -155,214 -25,85 -255,254 -109,85 -204,145 -299,230 -179,169 -104,573 40,743z"/>
   <path class="fil4" d="M9748 932c304,85 728,170 927,429 249,334 -75,638 -264,863 -140,159 -270,309 -404,478 -424,539 -170,743 169,1117 35,40 80,80 115,110 409,394 464,443 499,1017 149,-115 209,-499 204,-643 -40,-619 -758,-678 -65,-1501 65,-80 145,-150 210,-234 473,-604 274,-1307 -554,-1561 -209,-65 -603,-120 -837,-75z"/>
   <path class="fil4" d="M11243 4288c0,239 -60,349 -124,548 109,-55 274,-269 359,-379 99,-129 189,-349 139,-538 -75,-314 -483,-574 -498,-952 -80,59 -135,214 -145,294 -75,438 269,533 269,1027l0 0z"/>
   <path class="fil4" d="M9513 3161c50,-314 30,-429 245,-643 89,-85 393,-264 269,-584 -155,215 -25,85 -254,255 -110,85 -205,144 -295,229 -184,170 -104,578 35,743z"/>
   <path class="fil5" d="M3167 7090c261,-25 461,-92 598,-203 109,-87 163,-182 163,-286 0,-89 -50,-158 -150,-206 -91,-42 -209,-63 -355,-63 -89,0 -168,6 -237,19 -13,96 -19,342 -19,739zm774 1289c-49,-48 -136,-217 -262,-505 -116,-261 -180,-423 -193,-485 -27,15 -132,39 -316,70 4,445 15,704 33,777 -53,54 -165,80 -336,80 -51,0 -91,-6 -119,-20 0,-326 6,-965 20,-1918 -85,-106 -127,-222 -127,-346 0,-6 1,-11 4,-13 20,-24 236,-37 648,-37 716,0 1074,201 1074,602 0,275 -173,497 -519,665 0,36 68,188 203,459 144,295 257,483 339,565 2,2 3,4 3,7 0,15 -40,36 -119,63 -87,29 -170,43 -250,43 -24,0 -52,-2 -83,-7zm1453 -1220c0,-64 -34,-96 -103,-96 -91,0 -171,46 -240,140 -68,93 -103,205 -103,335 0,31 5,47 14,47 80,-2 169,-46 269,-130 109,-95 163,-194 163,-296zm-146 1134c-224,0 -397,-69 -519,-206 -113,-124 -170,-289 -170,-495 0,-231 67,-423 200,-576 148,-168 350,-252 605,-252 104,0 194,23 269,70 100,64 150,161 150,292 0,146 -59,285 -176,416 -124,139 -291,245 -499,315 0,16 19,34 57,54 48,24 110,36 186,36 168,0 301,-30 399,-90 2,-2 4,-3 6,-3 7,0 10,21 10,63 0,129 -27,229 -83,300 -75,50 -220,76 -435,76zm1924 -981c7,71 10,235 10,492 0,147 -4,234 -13,263 0,11 -29,24 -86,40 -65,18 -129,26 -193,26 -42,0 -78,-5 -106,-16 19,-180 29,-348 29,-506 0,-155 -6,-259 -19,-312 -20,-73 -64,-110 -130,-110 -76,0 -141,40 -196,120 -42,62 -63,112 -63,150l3 422c0,217 -5,331 -13,342 -56,53 -172,80 -349,80 -18,0 -27,-3 -27,-10 15,-95 23,-258 23,-489l-10 -781c0,-142 6,-218 17,-229 71,-67 167,-100 289,-100 47,0 70,4 70,13 -9,98 -13,192 -13,283 0,11 2,16 6,16 5,0 9,-2 14,-6 119,-131 239,-196 359,-196 144,0 252,64 325,192 127,-177 266,-266 419,-266 184,0 307,122 369,366 38,153 57,418 57,795 0,146 -5,276 -14,389 0,11 -29,24 -89,40 -67,17 -132,26 -196,26 -43,0 -78,-5 -107,-16 25,-220 37,-415 37,-586 0,-201 -10,-340 -30,-415 -29,-109 -87,-163 -173,-163 -53,0 -102,22 -146,66 -36,38 -54,65 -54,80zm1703 991c-218,0 -389,-69 -516,-206 -122,-133 -183,-306 -183,-519 0,-219 74,-409 220,-568 162,-175 373,-263 635,-263 106,5 166,13 179,27 5,4 7,20 7,46 0,40 -3,80 -10,120 60,7 127,45 203,116 117,116 176,272 176,469 0,211 -61,390 -183,539 -133,159 -309,239 -528,239zm329 -748c0,-208 -85,-313 -253,-313l-27 0c-4,-8 -6,-23 -6,-43 0,-37 3,-70 10,-96 -91,0 -173,37 -246,113 -84,88 -127,206 -127,352 0,78 14,149 40,213 51,124 144,186 280,186 88,0 162,-32 222,-96 71,-73 107,-179 107,-316zm661 -502c0,-137 6,-212 17,-223 62,-62 163,-93 302,-93 47,0 70,6 70,17 -6,53 -10,111 -10,173 0,44 4,66 10,66 2,0 6,-2 10,-7 107,-139 243,-209 409,-209 186,0 309,114 369,342 38,147 57,404 57,772 0,146 -4,276 -10,389 0,11 -30,24 -90,40 -67,17 -132,26 -196,26 -42,0 -79,-5 -110,-16 22,-200 33,-389 33,-569 0,-195 -10,-331 -30,-409 -28,-111 -84,-166 -166,-166 -144,0 -236,79 -276,236l4 422c0,237 -5,360 -14,369 -60,60 -174,90 -342,90 -33,0 -50,-3 -50,-10 15,-100 23,-264 23,-492l-10 -748zm1955 -1014c-4,51 -10,191 -17,419 167,0 250,3 250,10 0,75 -11,143 -33,203 -23,57 -44,86 -64,86l-156 0c-4,328 -7,575 -7,741 0,242 4,398 10,469 14,115 59,210 137,283 0,24 -41,58 -123,103 -89,49 -171,73 -246,73 -14,0 -36,-27 -67,-80 -40,-66 -64,-144 -73,-233 -4,-35 -7,-154 -7,-355 0,-397 4,-728 10,-994 -68,0 -130,1 -186,3 -11,-11 -16,-50 -16,-116 0,-107 10,-168 30,-183l176 -7c-2,-100 -6,-179 -10,-239l-10 -77c0,-22 39,-47 116,-76 76,-29 143,-43 203,-43 55,0 83,4 83,13z"/>
   <path class="fil5" d="M14107 8363c-111,-111 -243,-363 -396,-755 -144,-368 -215,-552 -212,-552 -11,0 -47,46 -107,137 -57,93 -86,148 -86,166l0 216c0,381 7,604 20,668 4,11 -26,28 -90,50 -73,24 -151,37 -233,37 -37,0 -75,-6 -113,-17 -6,-7 -10,-61 -10,-163 0,-109 7,-358 20,-748 11,-392 17,-660 17,-804 0,-160 -6,-248 -17,-263 -68,-104 -103,-190 -103,-256 0,-16 49,-37 146,-63 105,-27 200,-40 286,-40 60,0 92,3 97,10 4,4 6,44 6,119 0,87 -5,296 -16,629 0,13 3,20 10,20 2,0 6,-5 13,-14 410,-547 663,-821 758,-821 62,0 139,25 229,73 82,47 123,79 123,97l0 3c-124,80 -268,202 -432,366 -144,144 -216,226 -216,246 0,82 88,315 263,698 186,408 337,670 452,788 13,11 -24,41 -113,90 -100,55 -198,83 -296,83zm1243 -60c-217,0 -389,-69 -515,-206 -122,-133 -183,-306 -183,-519 0,-219 73,-409 220,-568 161,-175 373,-263 635,-263 106,5 166,13 179,27 5,4 7,20 7,46 0,40 -4,80 -10,120 60,7 127,45 203,116 117,116 176,272 176,469 0,211 -61,390 -183,539 -133,159 -309,239 -529,239zm330 -748c0,-208 -85,-313 -253,-313l-27 0c-4,-8 -6,-23 -6,-43 0,-37 3,-70 10,-96 -91,0 -173,37 -246,113 -85,88 -127,206 -127,352 0,78 14,149 40,213 51,124 144,186 279,186 89,0 163,-32 223,-96 71,-73 107,-179 107,-316zm757 964c-28,0 -59,-6 -93,-17 34,-246 50,-700 50,-1363 0,-166 -1,-288 -3,-365l-146 6c-11,-11 -17,-47 -17,-109 0,-111 10,-177 30,-196l130 -7 -7 -402c-4,-36 76,-95 243,-177 170,-82 309,-123 415,-123 14,0 31,25 53,74 20,51 30,96 30,136 0,15 -1,26 -3,33 -18,0 -73,26 -166,77 -107,57 -162,105 -166,142 -9,58 -16,137 -20,237l13 0c179,0 269,3 269,10 0,73 -13,142 -40,209 -22,60 -43,90 -63,90 -71,-5 -132,-7 -183,-7l0 166c0,180 4,428 10,745l7 585c0,86 -2,141 -7,163 -84,62 -196,93 -336,93zm1656 -1360c0,-64 -34,-96 -103,-96 -91,0 -171,46 -239,140 -69,93 -103,205 -103,335 0,31 4,47 13,47 80,-2 169,-46 269,-130 109,-95 163,-194 163,-296zm-146 1134c-224,0 -397,-69 -519,-206 -113,-124 -169,-289 -169,-495 0,-231 66,-423 199,-576 149,-168 350,-252 605,-252 104,0 194,23 269,70 100,64 150,161 150,292 0,146 -59,285 -176,416 -124,139 -291,245 -499,315 0,16 19,34 57,54 48,24 110,36 186,36 168,0 301,-30 399,-90 2,-2 4,-3 6,-3 7,0 10,21 10,63 0,129 -27,229 -83,300 -75,50 -220,76 -435,76z"/>
   <path class="fil2" d="M3042 7020c261,-25 461,-92 598,-203 109,-87 163,-182 163,-286 0,-89 -50,-157 -149,-206 -91,-42 -210,-63 -356,-63 -89,0 -167,6 -236,20 -13,95 -20,341 -20,738zm774 1290c-48,-49 -136,-218 -262,-506 -115,-261 -180,-423 -193,-485 -27,15 -132,39 -316,70 5,445 16,705 33,778 -53,53 -165,79 -335,79 -51,0 -91,-6 -120,-20 0,-325 7,-965 20,-1918 -84,-106 -126,-221 -126,-345 0,-7 1,-12 3,-14 20,-24 236,-36 648,-36 716,0 1074,200 1074,601 0,275 -173,497 -519,665 0,36 68,189 203,459 144,295 257,483 339,565 3,2 4,5 4,7 0,15 -40,36 -120,63 -86,29 -170,43 -249,43 -25,0 -52,-2 -84,-6zm1453 -1220c0,-65 -34,-97 -103,-97 -91,0 -170,47 -239,140 -69,93 -103,205 -103,336 0,31 4,46 13,46 80,-2 170,-45 269,-130 109,-95 163,-194 163,-295zm-146 1133c-224,0 -397,-69 -519,-206 -113,-124 -169,-289 -169,-495 0,-231 66,-423 199,-575 149,-169 350,-253 605,-253 105,0 194,23 270,70 99,64 149,162 149,292 0,147 -58,285 -176,416 -124,139 -290,245 -499,316 0,15 19,33 57,53 49,24 111,36 186,36 168,0 301,-30 399,-89 2,-3 4,-4 7,-4 6,0 10,21 10,63 0,129 -28,229 -83,300 -76,51 -221,76 -436,76zm1925 -981c6,71 10,235 10,492 0,147 -5,234 -13,263 0,11 -29,24 -87,40 -64,18 -128,27 -193,27 -42,0 -77,-6 -106,-17 20,-180 30,-348 30,-505 0,-155 -7,-260 -20,-313 -20,-73 -63,-110 -130,-110 -75,0 -141,40 -196,120 -42,62 -63,112 -63,150l3 422c0,217 -4,331 -13,342 -55,54 -172,80 -349,80 -18,0 -27,-3 -27,-10 16,-95 24,-258 24,-489l-10 -781c0,-142 5,-218 16,-229 71,-67 168,-100 289,-100 47,0 70,5 70,13 -9,98 -13,192 -13,283 0,11 2,17 7,17 4,0 8,-3 13,-7 120,-131 239,-196 359,-196 144,0 253,64 326,193 126,-178 266,-266 419,-266 184,0 307,122 369,365 37,153 56,418 56,795 0,146 -4,276 -13,389 0,11 -30,24 -90,40 -66,17 -132,26 -196,26 -42,0 -78,-5 -106,-16 24,-220 36,-415 36,-585 0,-202 -10,-341 -30,-416 -29,-109 -86,-163 -173,-163 -53,0 -102,22 -146,67 -35,37 -53,64 -53,79zm1702 991c-217,0 -389,-69 -515,-206 -122,-133 -183,-306 -183,-519 0,-219 73,-409 219,-568 162,-175 374,-263 635,-263 107,5 166,14 180,27 4,4 6,20 6,46 0,40 -3,80 -10,120 60,7 128,46 203,116 118,116 176,272 176,469 0,211 -61,390 -182,539 -133,159 -310,239 -529,239zm329 -748c0,-208 -84,-312 -253,-312l-26 0c-5,-9 -7,-24 -7,-44 0,-37 3,-69 10,-96 -91,0 -173,38 -246,113 -84,89 -126,206 -126,352 0,78 13,149 40,213 51,124 144,186 279,186 89,0 163,-32 223,-96 71,-73 106,-178 106,-316zm662 -502c0,-137 5,-212 16,-223 62,-62 163,-93 303,-93 46,0 70,6 70,17 -7,53 -10,111 -10,173 0,44 3,66 10,66 2,0 5,-2 10,-6 106,-140 242,-210 408,-210 187,0 310,114 369,343 38,146 57,403 57,771 0,146 -3,276 -10,389 0,11 -30,24 -90,40 -66,17 -132,26 -196,26 -42,0 -79,-5 -110,-16 23,-200 34,-389 34,-569 0,-195 -10,-331 -30,-409 -29,-110 -84,-166 -166,-166 -145,0 -237,79 -276,236l3 422c0,238 -5,361 -13,369 -60,60 -174,90 -343,90 -33,0 -50,-3 -50,-10 16,-100 24,-264 24,-492l-10 -748zm1954 -1014c-4,51 -10,191 -16,419 166,0 249,3 249,10 0,75 -11,143 -33,203 -22,57 -43,86 -63,86l-157 0c-4,328 -6,575 -6,742 0,241 3,397 10,468 13,116 59,210 136,283 0,24 -41,59 -123,103 -89,49 -171,73 -246,73 -13,0 -35,-26 -66,-80 -40,-66 -65,-144 -74,-232 -4,-36 -6,-154 -6,-356 0,-397 3,-728 10,-994 -69,0 -131,1 -186,3 -11,-11 -17,-50 -17,-116 0,-106 10,-167 30,-183l176 -7c-2,-99 -5,-179 -10,-239l-10 -76c0,-23 39,-48 117,-77 75,-29 142,-43 202,-43 56,0 83,4 83,13z"/>
   <path class="fil2" d="M13987 8293c-110,-111 -242,-362 -395,-755 -144,-368 -215,-552 -213,-552 -11,0 -47,46 -106,137 -58,93 -87,148 -87,166l0 216c0,381 7,604 20,668 5,11 -25,28 -90,50 -73,25 -150,37 -232,37 -38,0 -76,-6 -113,-17 -7,-7 -10,-61 -10,-163 0,-108 6,-358 20,-748 11,-392 16,-660 16,-804 0,-160 -5,-247 -16,-263 -69,-104 -103,-189 -103,-256 0,-15 48,-36 146,-63 104,-27 199,-40 286,-40 60,0 92,3 96,10 5,4 7,44 7,120 0,86 -6,296 -17,628 0,13 4,20 10,20 2,0 7,-4 13,-13 410,-548 663,-821 758,-821 62,0 139,24 230,73 82,46 123,78 123,96l0 3c-124,80 -268,202 -432,366 -144,144 -216,226 -216,246 0,82 87,315 262,698 186,408 337,671 452,788 14,11 -24,41 -113,90 -99,55 -198,83 -296,83zm1244 -60c-217,0 -389,-69 -516,-206 -121,-133 -182,-306 -182,-519 0,-219 73,-409 219,-568 162,-175 373,-263 635,-263 106,5 166,14 180,27 4,4 6,20 6,46 0,40 -3,80 -10,120 60,7 128,46 203,116 117,116 176,272 176,469 0,211 -61,390 -183,539 -133,159 -309,239 -528,239zm329 -748c0,-208 -84,-312 -253,-312l-26 0c-5,-9 -7,-24 -7,-44 0,-37 3,-69 10,-96 -91,0 -173,38 -246,113 -84,89 -126,206 -126,352 0,78 13,149 39,213 51,124 145,186 280,186 88,0 163,-32 222,-96 71,-73 107,-178 107,-316zm758 964c-29,0 -60,-5 -93,-16 33,-246 50,-701 50,-1363 0,-167 -2,-289 -4,-366l-146 7c-11,-12 -17,-48 -17,-110 0,-111 10,-176 30,-196l130 -7 -7 -402c-4,-36 77,-94 243,-176 171,-82 309,-123 416,-123 13,0 31,24 53,73 20,51 30,96 30,136 0,16 -1,27 -4,33 -17,0 -73,26 -166,77 -106,57 -162,105 -166,143 -9,57 -16,136 -20,236l13 0c180,0 270,3 270,10 0,73 -14,143 -40,209 -23,60 -44,90 -64,90 -70,-5 -131,-7 -182,-7l0 166c0,180 3,428 10,745l6 585c0,87 -2,141 -6,163 -85,62 -197,93 -336,93zm1655 -1359c0,-65 -34,-97 -103,-97 -91,0 -170,47 -239,140 -69,93 -103,205 -103,336 0,31 4,46 13,46 80,-2 170,-45 269,-130 109,-95 163,-194 163,-295zm-146 1133c-224,0 -397,-69 -518,-206 -114,-124 -170,-289 -170,-495 0,-231 66,-423 199,-575 149,-169 351,-253 605,-253 105,0 194,23 270,70 99,64 149,162 149,292 0,147 -58,285 -176,416 -124,139 -290,245 -499,316 0,15 19,33 57,53 49,24 111,36 186,36 169,0 302,-30 399,-89 2,-3 5,-4 7,-4 6,0 10,21 10,63 0,129 -28,229 -83,300 -76,51 -221,76 -436,76z"/>
  </g>
 </g>
</svg>
