<?xml version="1.0" encoding="UTF-8"?>
<!DOCTYPE svg PUBLIC "-//W3C//DTD SVG 1.1//EN" "http://www.w3.org/Graphics/SVG/1.1/DTD/svg11.dtd">
<!-- Creator: CorelDRAW X8 -->
<svg xmlns="http://www.w3.org/2000/svg" xml:space="preserve" width="100%" height="100%" version="1.1" style="shape-rendering:geometricPrecision; text-rendering:geometricPrecision; image-rendering:optimizeQuality; fill-rule:evenodd; clip-rule:evenodd"
viewBox="0 0 20566 3111"
 xmlns:xlink="http://www.w3.org/1999/xlink">
 <defs>
  <style type="text/css">
   <![CDATA[
    .fil0 {fill:#20120A}
    .fil1 {fill:#FEFEFE}
    .fil2 {fill:#20120A;fill-rule:nonzero}
    .fil3 {fill:#FEFEFE;fill-rule:nonzero}
   ]]>
  </style>
 </defs>
 <g id="Слой_x0020_1">
  <metadata id="CorelCorpID_0Corel-Layer"/>
  <path class="fil0" d="M310 155c219,56 534,124 675,310 180,241 -56,461 -192,624 -101,118 -196,225 -292,349 -309,393 -124,539 124,815 22,22 56,56 79,78 298,287 337,321 365,737 107,-84 152,-360 147,-467 -29,-450 -552,-495 -46,-1091 46,-56 107,-107 152,-168 343,-439 197,-951 -399,-1137 -158,-44 -439,-84 -613,-50l0 0 0 0z"/>
  <path class="fil0" d="M1401 2590c0,175 -45,253 -96,400 85,-40 203,-198 265,-276 72,-96 134,-253 101,-394 -56,-225 -355,-416 -360,-686 -62,40 -101,152 -107,208 -56,320 197,394 197,748l0 0 0 0z"/>
  <path class="fil0" d="M141 1769c34,-225 22,-309 180,-461 62,-68 281,-197 191,-428 -112,158 -17,62 -186,186 -78,62 -145,101 -213,163 -135,124 -73,422 28,540l0 0 0 0z"/>
  <path class="fil1" d="M276 54c219,62 529,124 669,309 186,247 -50,467 -191,630 -96,118 -191,225 -292,349 -304,393 -118,539 129,809 22,29 56,57 78,85 299,281 338,320 366,736 107,-84 152,-365 146,-472 -27,-444 -551,-489 -45,-1091 45,-56 102,-107 152,-169 343,-438 197,-944 -405,-1130 -152,-50 -433,-90 -607,-56l0 0 0 0z"/>
  <path class="fil1" d="M1361 2494c0,175 -39,253 -89,400 78,-40 202,-197 264,-276 73,-95 135,-258 101,-394 -56,-224 -354,-416 -365,-691 -56,45 -96,152 -107,213 -51,316 202,389 196,748l0 0 0 0z"/>
  <path class="fil1" d="M107 1674c34,-225 17,-310 175,-467 67,-62 286,-192 197,-428 -113,158 -17,62 -186,192 -79,56 -146,100 -214,162 -135,124 -78,423 28,541l0 0z"/>
  <g id="_2249881269984">
   <path class="fil2" d="M3686 1535c288,-27 508,-101 659,-224 120,-95 180,-200 180,-315 0,-97 -55,-173 -165,-227 -100,-46 -231,-69 -392,-69 -98,0 -184,7 -260,22 -15,105 -22,376 -22,813l0 0zm854 1422c-54,-54 -151,-240 -290,-557 -127,-289 -198,-467 -212,-535 -30,17 -146,42 -349,77 5,491 18,776 37,857 -59,59 -182,88 -370,88 -56,0 -100,-7 -132,-22 0,-359 7,-1064 22,-2114 -93,-117 -139,-244 -139,-381 0,-8 1,-12 4,-15 22,-27 260,-40 714,-40 789,0 1184,221 1184,663 0,303 -191,547 -572,733 0,39 74,207 223,506 159,324 284,532 374,622 3,3 4,5 4,8 0,17 -44,40 -132,69 -95,32 -187,48 -275,48 -27,0 -57,-2 -91,-7l0 0zm1601 -1345c0,-71 -38,-106 -114,-106 -100,0 -188,51 -264,154 -75,102 -113,226 -113,370 0,34 5,51 14,51 88,-3 187,-50 297,-143 120,-105 180,-214 180,-326l0 0zm-161 1249c-247,0 -438,-75 -572,-227 -125,-137 -187,-319 -187,-546 0,-254 73,-465 220,-634 164,-185 386,-278 667,-278 115,0 214,26 297,77 110,71 165,178 165,322 0,161 -65,314 -195,458 -136,154 -320,270 -549,348 0,17 20,37 62,59 54,27 122,40 205,40 186,0 332,-33 440,-99 2,-2 5,-3 7,-3 8,0 11,23 11,69 0,142 -30,252 -91,330 -83,56 -243,84 -480,84l0 0zm2121 -1081c7,79 11,259 11,543 0,161 -5,257 -15,289 0,12 -31,27 -95,44 -71,20 -141,30 -212,30 -47,0 -86,-7 -118,-19 22,-198 33,-383 33,-557 0,-171 -7,-286 -22,-344 -22,-81 -69,-121 -142,-121 -84,0 -156,44 -217,132 -46,68 -69,123 -69,165l3 465c0,239 -4,365 -14,377 -61,59 -190,88 -385,88 -20,0 -29,-3 -29,-11 17,-105 25,-284 25,-538l-11 -861c0,-157 6,-241 19,-253 78,-73 184,-110 318,-110 52,0 77,5 77,15 -9,107 -14,211 -14,311 0,12 2,18 7,18 5,0 10,-2 15,-7 132,-144 264,-216 395,-216 159,0 279,71 360,212 139,-195 293,-293 461,-293 203,0 339,135 407,403 41,169 62,461 62,876 0,161 -5,304 -14,429 0,12 -33,27 -99,44 -74,19 -146,29 -217,29 -46,0 -85,-6 -117,-18 27,-242 41,-457 41,-645 0,-222 -11,-375 -33,-458 -32,-120 -96,-180 -191,-180 -59,0 -112,25 -161,74 -39,41 -59,70 -59,87l0 0zm1876 1092c-239,0 -428,-75 -568,-227 -134,-146 -201,-337 -201,-571 0,-242 80,-451 242,-627 178,-193 411,-289 699,-289 118,4 184,14 198,29 5,5 8,22 8,51 0,44 -4,88 -11,132 66,7 140,50 223,128 130,127 194,300 194,517 0,232 -67,430 -201,594 -147,175 -341,263 -583,263l0 0zm363 -824c0,-230 -93,-344 -278,-344l-30 0c-5,-10 -7,-26 -7,-48 0,-42 4,-77 11,-106 -100,0 -191,41 -271,124 -93,98 -140,227 -140,389 0,85 15,163 44,234 57,137 159,205 308,205 98,0 180,-35 246,-106 78,-81 117,-197 117,-348l0 0zm729 -553c0,-152 6,-234 18,-246 69,-68 180,-102 334,-102 51,0 77,6 77,18 -7,58 -11,122 -11,190 0,49 4,74 11,74 2,0 6,-3 11,-8 117,-154 267,-230 451,-230 205,0 340,125 406,377 42,161 63,445 63,850 0,161 -4,304 -11,429 0,12 -33,27 -99,44 -74,19 -146,29 -217,29 -46,0 -86,-6 -120,-18 24,-220 36,-429 36,-627 0,-215 -11,-365 -33,-451 -32,-122 -93,-183 -183,-183 -159,0 -260,87 -304,260l4 466c0,261 -5,397 -15,406 -66,66 -192,99 -378,99 -36,0 -54,-3 -54,-11 17,-110 25,-290 25,-542l-11 -824 0 0zm2155 -1118c-5,56 -11,210 -19,462 184,0 275,3 275,11 0,83 -12,157 -36,223 -25,64 -48,96 -70,96l-172 0c-5,361 -8,633 -8,817 0,266 4,438 11,516 15,127 65,231 151,312 0,27 -46,65 -136,113 -98,54 -188,81 -271,81 -15,0 -39,-29 -73,-88 -44,-73 -71,-159 -81,-256 -5,-40 -7,-170 -7,-393 0,-437 3,-802 11,-1095 -76,0 -144,1 -206,4 -12,-13 -18,-55 -18,-129 0,-117 11,-184 33,-201l194 -8c-2,-109 -6,-197 -11,-263l-11 -85c0,-24 43,-52 129,-84 83,-32 157,-48 223,-48 61,0 92,5 92,15l0 0z"/>
   <path class="fil2" d="M15745 2938c-122,-122 -267,-399 -436,-831 -158,-406 -237,-609 -234,-609 -12,0 -51,50 -117,151 -64,102 -96,163 -96,183l0 238c0,420 8,666 22,736 5,13 -28,31 -99,55 -80,27 -166,41 -256,41 -42,0 -83,-6 -125,-19 -7,-7 -11,-67 -11,-179 0,-120 8,-395 22,-825 13,-432 19,-728 19,-886 0,-176 -6,-273 -19,-290 -75,-115 -113,-209 -113,-282 0,-17 53,-40 161,-70 115,-29 220,-44 315,-44 66,0 101,4 106,11 5,5 8,49 8,132 0,96 -6,326 -19,693 0,15 4,22 11,22 3,0 8,-5 15,-15 452,-603 730,-905 835,-905 69,0 153,27 253,81 91,51 136,86 136,106l0 4c-137,88 -296,222 -477,403 -158,159 -238,249 -238,271 0,90 97,347 290,769 205,450 371,739 498,869 15,12 -27,45 -124,99 -110,61 -219,91 -327,91l0 0zm1370 -66c-240,0 -428,-75 -567,-227 -135,-146 -202,-337 -202,-571 0,-242 81,-451 242,-627 178,-193 411,-289 699,-289 117,4 183,14 198,29 5,5 7,22 7,51 0,44 -3,88 -11,132 66,7 141,50 224,128 129,127 194,300 194,517 0,232 -67,430 -202,594 -146,175 -340,263 -582,263l0 0zm363 -824c0,-230 -93,-344 -279,-344l-29 0c-5,-10 -8,-26 -8,-48 0,-42 4,-77 11,-106 -100,0 -190,41 -271,124 -93,98 -138,227 -138,389 0,85 15,163 44,234 56,137 158,205 307,205 98,0 179,-35 245,-106 78,-81 118,-197 118,-348l0 0zm835 1063c-32,0 -66,-7 -103,-19 37,-271 55,-772 55,-1502 0,-183 -1,-318 -3,-403l-162 7c-12,-12 -18,-52 -18,-121 0,-122 11,-194 33,-216l143 -7 -7 -444c-5,-39 84,-103 267,-194 188,-90 341,-135 458,-135 15,0 34,26 59,80 22,56 33,106 33,150 0,18 -1,30 -4,37 -19,0 -80,28 -183,84 -117,64 -178,116 -183,158 -10,63 -17,150 -22,260l14 0c198,0 297,4 297,11 0,81 -14,158 -44,231 -24,66 -47,99 -69,99 -79,-5 -146,-7 -202,-7l0 183c0,198 4,471 11,821l7 644c0,96 -2,156 -7,180 -93,68 -216,103 -370,103l0 0zm1825 -1499c0,-71 -38,-106 -114,-106 -100,0 -188,51 -264,154 -75,102 -113,226 -113,370 0,34 5,51 14,51 88,-3 187,-50 297,-143 120,-105 180,-214 180,-326l0 0zm-161 1249c-247,0 -438,-75 -572,-227 -125,-137 -187,-319 -187,-546 0,-254 73,-465 220,-634 164,-185 386,-278 667,-278 115,0 214,26 297,77 110,71 164,178 164,322 0,161 -64,314 -194,458 -137,154 -320,270 -549,348 0,17 20,37 62,59 54,27 122,40 205,40 186,0 332,-33 440,-99 2,-2 5,-3 7,-3 7,0 11,23 11,69 0,142 -30,252 -91,330 -84,56 -244,84 -480,84l0 0z"/>
   <path class="fil3" d="M3549 1458c289,-27 508,-101 660,-223 120,-96 179,-201 179,-315 0,-98 -54,-174 -164,-228 -101,-46 -231,-69 -392,-69 -98,0 -185,7 -261,22 -14,105 -22,376 -22,813l0 0zm854 1422c-54,-54 -150,-239 -289,-557 -127,-288 -198,-467 -213,-535 -29,17 -145,43 -348,77 5,491 17,777 37,857 -59,59 -182,88 -370,88 -57,0 -101,-7 -132,-22 0,-359 7,-1064 22,-2114 -93,-117 -140,-244 -140,-381 0,-7 2,-12 4,-15 22,-27 260,-40 715,-40 789,0 1183,221 1183,663 0,303 -190,547 -571,733 0,39 74,208 223,506 159,325 283,532 374,623 2,2 3,5 3,7 0,17 -43,40 -131,70 -96,31 -187,47 -275,47 -27,0 -58,-2 -92,-7l0 0zm1601 -1345c0,-71 -37,-106 -113,-106 -100,0 -188,51 -264,154 -76,102 -114,226 -114,370 0,34 5,51 15,51 88,-2 187,-50 297,-143 120,-105 179,-213 179,-326l0 0zm-161 1250c-247,0 -437,-76 -571,-228 -125,-136 -187,-318 -187,-545 0,-255 73,-466 220,-634 163,-186 385,-279 666,-279 115,0 214,26 297,77 110,71 165,178 165,323 0,161 -65,313 -194,458 -137,153 -320,269 -550,348 0,17 21,36 63,58 53,27 122,41 205,41 185,0 332,-33 439,-99 3,-3 5,-4 8,-4 7,0 11,23 11,70 0,141 -31,251 -92,329 -83,57 -243,85 -480,85l0 0zm2122 -1081c7,78 11,259 11,542 0,161 -5,258 -15,289 0,13 -32,27 -95,44 -71,20 -142,30 -213,30 -46,0 -85,-6 -117,-19 22,-197 33,-383 33,-557 0,-170 -7,-285 -22,-344 -22,-81 -70,-121 -143,-121 -83,0 -155,44 -216,132 -46,68 -70,123 -70,165l4 465c0,240 -5,365 -15,378 -61,58 -189,88 -384,88 -20,0 -30,-4 -30,-11 17,-105 26,-285 26,-539l-11 -861c0,-156 6,-241 18,-253 78,-73 185,-110 319,-110 51,0 77,5 77,15 -10,107 -15,211 -15,311 0,13 3,19 8,19 5,0 9,-3 14,-8 132,-144 264,-216 396,-216 159,0 279,71 359,213 139,-196 293,-294 462,-294 203,0 338,135 407,404 41,168 62,460 62,875 0,162 -5,304 -15,429 0,12 -33,27 -99,44 -73,20 -145,29 -216,29 -46,0 -85,-6 -117,-18 27,-242 40,-457 40,-645 0,-222 -11,-375 -33,-458 -32,-120 -95,-180 -190,-180 -59,0 -113,25 -162,74 -39,41 -58,71 -58,88l0 0zm1876 1092c-240,0 -429,-76 -568,-228 -134,-146 -202,-337 -202,-571 0,-242 81,-451 242,-627 178,-193 412,-289 700,-289 117,5 183,14 198,29 5,5 7,22 7,51 0,44 -3,88 -11,132 66,8 141,50 224,129 129,127 194,299 194,516 0,232 -67,430 -202,594 -146,176 -340,264 -582,264l0 0zm363 -825c0,-229 -93,-344 -279,-344l-29 0c-5,-10 -8,-26 -8,-48 0,-41 4,-77 11,-106 -100,0 -190,41 -271,124 -93,98 -139,228 -139,389 0,85 15,164 44,234 56,137 159,206 308,206 98,0 179,-36 245,-107 78,-80 118,-196 118,-348l0 0zm729 -553c0,-152 6,-233 18,-246 68,-68 180,-102 334,-102 51,0 76,6 76,18 -7,59 -11,122 -11,191 0,49 4,73 11,73 3,0 7,-2 11,-7 118,-154 268,-231 451,-231 205,0 341,126 407,377 41,161 62,445 62,850 0,162 -3,304 -11,429 0,12 -33,27 -99,44 -73,20 -145,29 -216,29 -46,0 -87,-6 -121,-18 25,-220 37,-429 37,-627 0,-215 -11,-365 -33,-450 -32,-122 -93,-184 -183,-184 -159,0 -261,87 -305,261l4 465c0,261 -5,397 -15,407 -65,66 -191,99 -377,99 -37,0 -55,-4 -55,-11 17,-110 26,-291 26,-543l-11 -824 0 0zm2154 -1118c-5,57 -11,210 -18,462 183,0 275,4 275,11 0,83 -12,158 -37,224 -24,63 -47,95 -69,95l-173 0c-5,361 -7,634 -7,817 0,266 4,438 11,517 15,127 65,230 150,311 0,27 -45,65 -135,114 -98,53 -188,80 -272,80 -14,0 -39,-29 -73,-88 -44,-73 -71,-158 -80,-256 -5,-39 -8,-170 -8,-392 0,-438 4,-803 11,-1096 -75,0 -144,1 -205,4 -12,-12 -18,-55 -18,-128 0,-118 11,-185 33,-202l194 -7c-3,-110 -6,-198 -11,-264l-11 -84c0,-25 43,-53 128,-85 83,-31 158,-47 224,-47 61,0 91,5 91,14l0 0z"/>
   <path class="fil3" d="M15609 2862c-122,-123 -268,-400 -436,-832 -159,-406 -237,-608 -235,-608 -12,0 -51,50 -117,150 -63,102 -95,163 -95,183l0 238c0,420 7,666 22,737 5,12 -28,30 -99,55 -81,27 -166,40 -257,40 -41,0 -83,-6 -124,-18 -7,-8 -11,-68 -11,-180 0,-120 7,-394 22,-824 12,-433 18,-728 18,-887 0,-176 -6,-272 -18,-290 -76,-114 -114,-208 -114,-282 0,-17 54,-40 162,-69 114,-30 219,-44 315,-44 66,0 101,3 106,11 5,5 7,49 7,132 0,95 -6,326 -18,692 0,15 4,22 11,22 2,0 7,-5 15,-15 451,-603 730,-905 835,-905 68,0 153,27 253,81 90,51 135,87 135,106l0 4c-136,88 -295,222 -476,403 -159,159 -238,249 -238,271 0,91 96,347 289,770 206,449 372,739 499,868 14,12 -27,45 -125,99 -110,61 -219,92 -326,92l0 0zm1369 -66c-238,0 -427,-76 -567,-228 -134,-146 -201,-337 -201,-571 0,-242 81,-451 242,-627 178,-193 411,-289 699,-289 117,5 183,14 197,29 5,5 8,22 8,51 0,44 -4,88 -11,132 66,8 140,50 223,129 130,127 195,299 195,516 0,232 -68,430 -202,594 -147,176 -341,264 -582,264l-1 0zm363 -825c0,-229 -93,-344 -278,-344l-30 0c-5,-10 -7,-26 -7,-48 0,-41 4,-77 11,-106 -100,0 -191,41 -271,124 -93,98 -138,228 -138,389 0,85 14,164 44,234 56,137 157,206 306,206 98,0 180,-36 246,-107 78,-80 117,-196 117,-348l0 0zm836 1063c-32,0 -66,-6 -103,-18 37,-272 55,-772 55,-1503 0,-183 -1,-317 -4,-403l-161 7c-12,-12 -18,-52 -18,-120 0,-123 11,-195 33,-217l143 -7 -8 -443c-5,-39 85,-104 268,-195 188,-90 341,-135 458,-135 14,0 34,27 58,80 22,57 33,107 33,151 0,17 -1,29 -3,36 -20,0 -81,28 -183,85 -118,63 -179,116 -184,157 -9,64 -17,150 -22,260l15 0c198,0 297,4 297,11 0,81 -15,158 -44,231 -25,66 -48,99 -70,99 -78,-5 -145,-7 -201,-7l0 183c0,198 3,471 11,821l7 645c0,95 -2,155 -7,179 -93,69 -217,103 -370,103l0 0zm1824 -1499c0,-71 -38,-106 -113,-106 -100,0 -188,51 -264,154 -76,102 -114,226 -114,370 0,34 5,51 15,51 88,-2 187,-50 297,-143 120,-105 179,-213 179,-326l0 0zm-161 1250c-247,0 -437,-76 -571,-228 -125,-136 -187,-318 -187,-545 0,-255 73,-466 219,-634 164,-186 386,-279 667,-279 115,0 214,26 297,77 110,71 165,178 165,323 0,161 -65,313 -194,458 -137,153 -320,269 -550,348 0,17 21,36 63,58 53,27 122,41 205,41 185,0 332,-33 439,-99 3,-3 5,-4 8,-4 7,0 11,23 11,70 0,141 -31,251 -92,329 -83,57 -243,85 -480,85l0 0z"/>
  </g>
 </g>
</svg>
