<?xml version="1.0" encoding="UTF-8"?>
<!DOCTYPE svg PUBLIC "-//W3C//DTD SVG 1.1//EN" "http://www.w3.org/Graphics/SVG/1.1/DTD/svg11.dtd">
<!-- Creator: CorelDRAW X8 -->
<svg xmlns="http://www.w3.org/2000/svg" xml:space="preserve" width="100%" height="100%" version="1.1" style="shape-rendering:geometricPrecision; text-rendering:geometricPrecision; image-rendering:optimizeQuality; fill-rule:evenodd; clip-rule:evenodd"
viewBox="0 0 3541 2354"
 xmlns:xlink="http://www.w3.org/1999/xlink">
 <defs>
  <style type="text/css">
   <![CDATA[
    .fil3 {fill:#FEFEFE}
    .fil2 {fill:#20120A}
    .fil1 {fill:#FEFEFE;fill-rule:nonzero}
    .fil0 {fill:#20120A;fill-rule:nonzero}
   ]]>
  </style>
 </defs>
 <g id="Слой_x0020_1">
  <metadata id="CorelCorpID_0Corel-Layer"/>
  <g id="_3079851288864">
   <path class="fil0" d="M718 2118c12,0 22,1 29,5 8,3 14,7 18,13 5,6 8,13 10,22 2,8 2,17 2,28 0,10 0,19 -2,27 -2,9 -5,16 -10,22 -4,7 -10,11 -18,15 -8,3 -18,5 -31,5l-24 0 0 97 -21 0 0 -234 47 0zm-26 118l23 0c9,0 16,-1 21,-3 5,-3 10,-6 13,-10 3,-5 5,-10 6,-16 1,-6 2,-13 2,-21 0,-7 -1,-13 -2,-19 -1,-6 -3,-12 -6,-16 -3,-4 -7,-8 -12,-10 -6,-3 -13,-4 -21,-4l-24 0 0 99zm111 116l0 -234 98 0 0 19 -78 0 0 86 68 0 0 19 -68 0 0 91 78 0 0 19 -98 0zm248 -177c-1,3 -3,7 -5,12 -2,5 -4,11 -6,17 -2,5 -4,11 -6,16 -2,6 -4,10 -5,12 0,1 -1,3 -2,6 -1,3 -3,7 -4,12 -2,4 -4,9 -6,14 -2,5 -4,10 -6,15 -2,4 -4,8 -5,11 -1,3 -2,5 -2,6l-12 0c-1,-3 -3,-7 -5,-13 -2,-6 -5,-12 -7,-19 -3,-6 -5,-12 -8,-18 -2,-6 -4,-10 -5,-13l-21 -57 -2 0 0 176 -20 0 0 -234 21 0c1,3 3,8 6,15 2,7 5,15 8,22 3,8 6,15 8,22 3,7 5,12 6,16l25 65 1 0c1,-3 3,-8 5,-14 2,-6 4,-12 7,-19 3,-7 5,-13 7,-19 3,-6 4,-11 6,-14 0,-1 1,-3 2,-7 2,-4 3,-8 5,-13 2,-5 5,-11 7,-17 2,-6 4,-12 6,-17 2,-5 4,-10 5,-13 2,-4 3,-6 3,-7l21 0 0 234 -20 0 0 -177 -2 0zm161 119c0,20 -4,35 -13,45 -9,10 -22,15 -40,15 -18,0 -31,-5 -40,-14 -8,-10 -13,-23 -13,-41l0 -123c0,-8 1,-16 3,-23 2,-8 5,-14 9,-19 4,-6 9,-10 16,-13 7,-4 15,-5 25,-5 10,0 19,1 26,4 6,3 12,7 16,12 4,5 7,12 9,19 1,7 2,15 2,24l0 119zm-20 -122c0,-5 -1,-9 -2,-14 -1,-4 -3,-8 -5,-12 -3,-3 -6,-6 -10,-8 -4,-2 -9,-3 -15,-3 -7,0 -12,1 -16,4 -5,3 -8,6 -11,10 -2,5 -4,9 -5,14 -1,5 -1,10 -1,15l0 122c0,4 0,9 2,13 1,4 3,8 5,11 3,4 6,6 10,8 5,2 9,3 15,3 12,0 20,-3 25,-11 5,-8 8,-17 8,-28l0 -124zm139 180l0 -111 -65 0 0 111 -20 0 0 -234 20 0 0 105 65 0 0 -105 20 0 0 234 -20 0zm102 -215l0 215 -21 0 0 -215 -42 0 0 -19 106 0 0 19 -43 0zm124 215l0 -234 20 0 0 103 19 0c4,0 7,0 11,-1 4,-1 8,-2 12,-5 3,-2 7,-6 10,-10 3,-5 5,-11 7,-19l16 -68 19 0 -15 68c-3,11 -6,21 -11,29 -6,7 -12,13 -19,15 9,3 17,8 22,16 4,8 8,18 10,30l17 76 -21 0 -15 -73c-2,-8 -4,-15 -7,-19 -3,-5 -6,-9 -10,-12 -3,-2 -7,-4 -11,-5 -4,-1 -8,-1 -13,-1l-21 0 0 110 -20 0zm243 -58c0,20 -4,35 -13,45 -9,10 -22,15 -40,15 -18,0 -31,-5 -40,-14 -9,-10 -13,-23 -13,-41l0 -123c0,-8 1,-16 3,-23 2,-8 5,-14 9,-19 4,-6 9,-10 16,-13 7,-4 15,-5 25,-5 10,0 19,1 25,4 7,3 13,7 17,12 4,5 7,12 8,19 2,7 3,15 3,24l0 119zm-20 -122c0,-5 -1,-9 -2,-14 -1,-4 -3,-8 -5,-12 -3,-3 -6,-6 -10,-8 -5,-2 -10,-3 -16,-3 -6,0 -11,1 -16,4 -4,3 -7,6 -10,10 -2,5 -4,9 -5,14 -1,5 -1,10 -1,15l0 122c0,4 0,9 1,13 2,4 4,8 6,11 3,4 6,6 10,8 4,2 9,3 15,3 12,0 20,-3 25,-11 5,-8 8,-17 8,-28l0 -124zm108 -22l-1 0c-4,1 -9,2 -13,3 -4,2 -8,4 -12,7 -3,3 -6,7 -8,11 -2,5 -3,10 -3,16l0 91c0,6 1,11 3,15 2,5 5,9 8,12 3,3 7,5 12,7 4,2 9,3 14,3l0 -165zm20 165c11,-1 20,-4 27,-10 7,-6 10,-15 10,-27l0 -91c0,-6 -1,-11 -3,-16 -2,-4 -5,-8 -9,-11 -3,-3 -7,-5 -12,-7 -4,-2 -8,-3 -13,-3l0 165zm0 37l-20 0 0 -18 -1 0c-7,0 -15,-2 -22,-4 -6,-3 -12,-6 -18,-11 -5,-5 -9,-10 -12,-17 -3,-7 -4,-15 -4,-24l0 -91c0,-9 1,-16 5,-23 3,-7 7,-13 13,-18 5,-4 11,-8 18,-10 7,-3 14,-4 20,-4l0 -14 21 0 0 14c7,0 14,2 21,4 7,2 13,6 18,10 6,5 10,11 14,17 3,7 5,15 5,24l0 91c0,9 -2,17 -5,24 -3,7 -7,12 -12,17 -5,4 -12,8 -19,10 -6,3 -14,4 -22,5l0 18zm90 0l0 -234 98 0 0 19 -78 0 0 86 68 0 0 19 -68 0 0 91 78 0 0 19 -98 0zm248 -177c-1,3 -2,7 -4,12 -2,5 -5,11 -7,17 -2,5 -4,11 -6,16 -2,6 -4,10 -5,12 0,1 -1,3 -2,6 -1,3 -3,7 -4,12 -2,4 -4,9 -6,14 -2,5 -4,10 -6,15 -2,4 -3,8 -5,11 -1,3 -2,5 -2,6l-12 0c-1,-3 -2,-7 -5,-13 -2,-6 -5,-12 -7,-19 -3,-6 -5,-12 -8,-18 -2,-6 -4,-10 -5,-13l-21 -57 -2 0 0 176 -20 0 0 -234 21 0c1,3 3,8 6,15 2,7 5,15 8,22 3,8 6,15 9,22 2,7 4,12 5,16l25 65 1 0c1,-3 3,-8 5,-14 2,-6 4,-12 7,-19 3,-7 5,-13 7,-19 3,-6 5,-11 6,-14 0,-1 1,-3 2,-7 2,-4 3,-8 5,-13 2,-5 5,-11 7,-17 2,-6 4,-12 6,-17 2,-5 4,-10 5,-13 2,-4 3,-6 3,-7l21 0 0 234 -20 0 0 -177 -2 0zm146 177l-13 -57 -58 0 -12 57 -19 0 50 -234 21 0 51 234 -20 0zm-42 -200l-11 57 -14 67 51 0 -14 -68 -11 -56 -1 0zm252 -34l0 234 -169 0 0 -234 21 0 0 214 53 0 0 -214 20 0 0 214 54 0 0 -214 21 0zm123 50l-69 184 -19 0 0 -234 20 0 0 184 2 0 68 -184 20 0 0 234 -21 0 0 -184 -1 0zm141 184l0 -111 -64 0 0 111 -21 0 0 -234 21 0 0 105 64 0 0 -105 20 0 0 234 -20 0z"/>
   <path class="fil1" d="M702 2104c12,0 21,2 29,5 8,3 14,7 18,13 5,6 8,13 10,22 1,8 2,18 2,28 0,10 -1,19 -2,27 -2,9 -5,16 -10,22 -4,7 -11,11 -19,15 -8,3 -18,5 -30,5l-25 0 0 97 -20 0 0 -234 47 0zm-27 118l24 0c9,0 15,-1 21,-3 5,-3 9,-6 13,-10 3,-5 5,-10 6,-16 1,-6 2,-13 2,-21 0,-7 -1,-13 -2,-19 -1,-6 -3,-12 -6,-16 -3,-4 -7,-8 -12,-10 -6,-3 -13,-4 -21,-4l-25 0 0 99zm111 116l0 -234 98 0 0 19 -77 0 0 86 68 0 0 19 -68 0 0 91 77 0 0 19 -98 0zm249 -177c-1,3 -3,7 -5,12 -2,5 -4,11 -6,17 -2,6 -4,11 -6,16 -3,6 -4,10 -5,12 0,1 -1,3 -2,6 -1,3 -3,7 -5,12 -1,4 -3,9 -6,14 -2,5 -4,10 -5,15 -2,4 -4,8 -5,11 -1,4 -2,5 -2,6l-12 0c-1,-3 -3,-7 -5,-13 -2,-6 -5,-12 -8,-18 -2,-7 -5,-13 -7,-19 -2,-6 -4,-10 -5,-13l-22 -57 -1 0 0 176 -21 0 0 -234 21 0c2,3 4,8 6,15 3,7 6,15 9,22 3,8 6,16 8,22 3,7 5,13 6,16l24 65 1 0c2,-3 3,-8 6,-14 2,-6 4,-12 7,-19 2,-7 5,-13 7,-19 2,-6 4,-11 5,-14 1,-1 1,-3 3,-7 1,-4 3,-8 5,-13 2,-5 4,-11 7,-17 2,-6 4,-12 6,-17 2,-5 4,-9 5,-13 2,-4 2,-6 3,-7l21 0 0 234 -21 0 0 -177 -1 0zm161 119c0,20 -4,35 -13,45 -9,10 -22,15 -40,15 -18,0 -31,-4 -40,-14 -9,-10 -13,-23 -13,-40l0 -124c0,-8 1,-16 3,-23 2,-7 5,-14 9,-19 4,-6 9,-10 16,-13 7,-4 15,-5 25,-5 10,0 19,1 25,4 7,3 13,7 17,12 4,6 7,12 8,19 2,7 3,15 3,24l0 119zm-21 -122c0,-5 0,-9 -1,-14 -1,-4 -3,-8 -6,-12 -2,-3 -5,-6 -9,-8 -5,-2 -10,-3 -16,-3 -6,0 -11,1 -16,4 -4,3 -7,6 -10,11 -2,4 -4,8 -5,14 -1,5 -1,9 -1,14l0 122c0,4 0,9 1,13 2,4 4,8 6,11 3,4 6,6 10,8 4,2 9,4 15,4 12,0 20,-4 25,-12 5,-8 7,-17 7,-28l0 -124zm139 180l0 -111 -64 0 0 111 -20 0 0 -234 20 0 0 105 64 0 0 -105 21 0 0 234 -21 0zm103 -215l0 215 -21 0 0 -215 -42 0 0 -19 105 0 0 19 -42 0zm123 215l0 -234 21 0 0 104 19 0c3,0 7,-1 11,-2 4,0 8,-2 11,-5 4,-2 7,-6 10,-10 3,-5 6,-11 8,-19l16 -68 19 0 -15 68c-3,11 -7,21 -12,29 -5,7 -11,13 -18,15 9,3 16,8 21,16 5,8 9,18 11,30l17 76 -21 0 -16 -73c-1,-8 -4,-15 -7,-19 -2,-5 -5,-9 -9,-12 -3,-2 -7,-4 -11,-5 -5,-1 -9,-1 -13,-1l-21 0 0 110 -21 0zm244 -58c0,20 -5,35 -13,45 -9,10 -23,15 -41,15 -17,0 -31,-4 -39,-14 -9,-10 -13,-23 -13,-40l0 -124c0,-8 1,-16 3,-23 1,-7 4,-14 8,-19 5,-6 10,-10 17,-13 7,-4 15,-5 25,-5 10,0 18,1 25,4 7,3 12,7 16,12 4,6 7,12 9,19 2,7 3,15 3,24l0 119zm-21 -122c0,-5 0,-9 -1,-14 -2,-4 -3,-8 -6,-12 -2,-3 -6,-6 -10,-8 -4,-2 -9,-3 -15,-3 -6,0 -12,1 -16,4 -4,3 -7,6 -10,11 -2,4 -4,8 -5,14 -1,5 -2,9 -2,14l0 122c0,4 1,9 2,13 1,4 3,8 6,11 2,4 6,6 10,8 4,2 9,4 15,4 12,0 20,-4 25,-12 5,-8 7,-17 7,-28l0 -124zm109 -21l-1 0c-4,0 -9,1 -13,2 -5,2 -8,4 -12,7 -3,3 -6,7 -8,11 -2,5 -3,10 -3,16l0 91c0,6 1,11 3,15 2,5 5,9 8,12 3,3 7,5 12,7 4,2 9,3 14,3l0 -164zm20 164c11,0 20,-4 27,-10 7,-6 10,-15 10,-27l0 -91c0,-6 -1,-11 -3,-16 -3,-4 -5,-8 -9,-11 -3,-3 -7,-5 -12,-7 -4,-2 -9,-2 -13,-2l0 164zm0 37l-20 0 0 -18 -1 0c-8,0 -15,-2 -22,-4 -7,-3 -13,-6 -18,-11 -5,-5 -9,-10 -12,-17 -3,-7 -5,-15 -5,-24l0 -91c0,-8 2,-16 5,-23 4,-7 8,-13 14,-17 5,-5 11,-9 18,-11 7,-3 13,-4 20,-4l0 -14 21 0 0 14c7,0 14,2 21,4 7,2 13,6 18,10 6,5 10,11 14,17 3,7 5,15 5,24l0 91c0,9 -2,17 -5,24 -3,7 -7,12 -12,17 -6,4 -12,8 -19,10 -7,3 -14,4 -22,5l0 18zm90 0l0 -234 97 0 0 19 -77 0 0 86 68 0 0 19 -68 0 0 91 77 0 0 19 -97 0zm248 -177c-1,3 -3,7 -5,12 -2,5 -4,11 -6,17 -2,6 -4,11 -6,16 -2,6 -4,10 -5,12 0,1 -1,3 -2,6 -1,3 -3,7 -5,12 -1,4 -3,9 -5,14 -3,5 -5,10 -6,15 -2,4 -4,8 -5,11 -1,4 -2,5 -2,6l-12 0c-1,-3 -3,-7 -5,-13 -2,-6 -5,-12 -7,-18 -3,-7 -5,-13 -8,-19 -2,-6 -4,-10 -5,-13l-22 -57 -1 0 0 176 -20 0 0 -234 20 0c2,3 4,8 6,15 3,7 6,15 9,22 3,8 6,16 8,22 3,7 5,13 6,16l25 65 1 0c1,-3 2,-8 5,-14 2,-6 4,-12 7,-19 2,-7 5,-13 7,-19 3,-6 4,-11 5,-14 1,-1 1,-3 3,-7 1,-4 3,-8 5,-13 2,-5 4,-11 7,-17 2,-6 4,-12 6,-17 2,-5 4,-9 5,-13 2,-4 2,-6 3,-7l21 0 0 234 -21 0 0 -177 -1 0zm146 177l-13 -57 -58 0 -12 57 -20 0 51 -234 21 0 51 234 -20 0zm-42 -200l-12 57 -14 67 51 0 -14 -68 -10 -56 -1 0zm251 -34l0 234 -168 0 0 -234 20 0 0 214 54 0 0 -214 20 0 0 214 54 0 0 -214 20 0zm124 50l-69 184 -19 0 0 -234 20 0 0 184 2 1 68 -185 19 0 0 234 -20 0 0 -184 -1 0zm141 184l0 -111 -64 0 0 111 -21 0 0 -234 21 0 0 105 64 0 0 -105 20 0 0 234 -20 0z"/>
   <path class="fil2" d="M1614 34c68,18 162,37 206,94 56,74 -17,142 -59,191 -30,36 -59,69 -89,107 -94,120 -37,164 38,248 7,8 17,17 25,24 91,87 102,98 111,225 33,-25 46,-110 44,-143 -8,-136 -167,-150 -13,-333 14,-17 32,-32 46,-51 105,-134 61,-290 -122,-346 -47,-14 -134,-27 -187,-16z"/>
   <path class="fil2" d="M1946 777c0,54 -13,78 -28,122 25,-12 62,-59 80,-84 22,-29 42,-78 31,-120 -17,-69 -107,-126 -110,-210 -19,13 -30,47 -33,65 -16,97 61,118 60,227z"/>
   <path class="fil2" d="M1562 528c11,-70 7,-96 55,-143 20,-19 87,-59 59,-130 -34,48 -5,19 -56,57 -24,18 -45,32 -66,51 -40,38 -23,128 8,165z"/>
   <path class="fil3" d="M1603 4c68,18 163,37 206,94 56,74 -17,142 -59,192 -30,36 -59,68 -89,106 -94,120 -37,164 38,248 7,8 17,17 25,25 91,86 103,98 111,225 33,-26 47,-111 45,-143 -9,-137 -168,-150 -14,-333 14,-18 32,-33 47,-52 104,-134 60,-290 -123,-346 -47,-14 -134,-27 -187,-16z"/>
   <path class="fil3" d="M1936 748c0,53 -14,78 -28,121 24,-11 61,-59 80,-84 22,-29 41,-77 31,-120 -18,-68 -108,-126 -111,-210 -18,13 -30,47 -33,65 -16,97 61,119 61,228z"/>
   <path class="fil3" d="M1552 498c10,-70 6,-95 54,-142 20,-20 87,-59 60,-131 -35,48 -6,19 -57,57 -24,19 -45,32 -66,51 -40,38 -23,128 9,165z"/>
   <path class="fil0" d="M144 1369c58,-5 102,-20 132,-45 24,-19 36,-40 36,-63 0,-20 -11,-35 -33,-46 -20,-9 -46,-14 -79,-14 -19,0 -37,2 -52,5 -3,21 -4,75 -4,163zm171 286c-11,-10 -30,-48 -58,-112 -26,-58 -40,-94 -43,-107 -6,3 -29,8 -70,15 1,99 4,156 8,173 -12,11 -37,17 -75,17 -11,0 -20,-1 -26,-4 0,-72 1,-214 4,-426 -19,-23 -28,-49 -28,-76 0,-2 0,-3 1,-3 4,-6 52,-8 144,-8 158,0 238,44 238,133 0,61 -39,110 -115,148 0,8 15,41 45,101 32,66 57,108 75,126 0,0 1,1 1,1 0,4 -9,8 -27,14 -19,7 -38,10 -55,10 -6,0 -12,-1 -19,-2zm323 -270c0,-15 -8,-22 -23,-22 -20,0 -38,11 -53,31 -16,21 -23,46 -23,75 0,7 1,10 3,10 17,0 37,-10 59,-29 25,-21 37,-43 37,-65zm-33 251c-50,0 -88,-15 -115,-46 -25,-27 -38,-64 -38,-109 0,-52 15,-94 45,-128 33,-37 77,-56 134,-56 23,0 43,5 60,15 22,15 33,36 33,65 0,33 -13,64 -39,93 -28,31 -65,54 -111,70 0,3 4,7 13,11 10,6 24,8 41,8 37,0 67,-6 88,-19 1,-1 1,-1 2,-1 1,0 2,5 2,14 0,28 -6,50 -18,66 -17,12 -49,17 -97,17zm427 -217c2,15 2,52 2,109 0,32 -1,52 -3,58 0,2 -6,5 -19,9 -14,4 -28,6 -43,6 -9,0 -17,-1 -23,-4 4,-40 6,-77 6,-112 0,-34 -1,-57 -4,-69 -4,-17 -14,-25 -29,-25 -16,0 -31,9 -43,27 -10,14 -14,25 -14,33l0 94c0,48 -1,73 -2,76 -13,11 -39,17 -78,17 -4,0 -6,0 -6,-2 4,-21 5,-57 5,-108l-2 -174c0,-31 1,-48 4,-50 16,-15 37,-23 64,-23 10,0 15,1 15,3 -2,22 -2,43 -2,63 0,3 0,4 1,4 1,0 2,-1 3,-2 26,-29 53,-43 80,-43 32,0 56,14 72,43 28,-40 59,-59 93,-59 41,0 68,27 82,81 8,34 12,92 12,176 0,32 -1,61 -3,86 0,3 -6,6 -20,9 -14,4 -29,6 -43,6 -10,0 -17,-1 -24,-4 6,-48 8,-92 8,-129 0,-45 -2,-76 -6,-93 -7,-24 -20,-36 -39,-36 -11,0 -22,5 -32,15 -8,8 -12,14 -12,18zm378 219c-49,0 -87,-15 -115,-45 -27,-30 -40,-68 -40,-115 0,-49 16,-91 48,-126 36,-39 83,-59 141,-59 24,1 37,3 40,6 1,1 2,5 2,11 0,8 -1,17 -3,26 14,2 29,10 45,26 26,25 39,60 39,104 0,47 -13,86 -40,119 -30,36 -69,53 -117,53zm73 -166c0,-46 -19,-69 -56,-69l-6 0c-1,-2 -2,-5 -2,-9 0,-9 1,-16 2,-22 -20,0 -38,9 -54,25 -19,20 -28,46 -28,78 0,18 3,33 9,48 11,27 32,41 62,41 19,0 36,-7 49,-21 16,-17 24,-40 24,-71zm146 -111c0,-30 2,-47 4,-49 14,-14 36,-21 67,-21 10,0 16,1 16,4 -2,12 -3,24 -3,38 0,10 1,15 3,15 0,0 1,-1 2,-2 23,-31 54,-46 91,-46 41,0 68,25 81,76 9,32 13,89 13,171 0,32 -1,61 -2,86 0,3 -7,6 -20,9 -15,4 -29,6 -44,6 -9,0 -17,-1 -24,-4 5,-44 7,-86 7,-126 0,-43 -2,-73 -6,-90 -7,-25 -19,-37 -37,-37 -32,0 -53,17 -61,52l0 94c0,52 -1,80 -3,81 -13,14 -38,20 -76,20 -7,0 -11,0 -11,-2 4,-22 6,-58 6,-109l-3 -166zm434 -225c-1,12 -2,43 -4,93 37,0 56,1 56,2 0,17 -3,32 -8,45 -5,13 -9,20 -14,20l-34 0c-1,72 -2,127 -2,164 0,54 1,88 2,104 3,25 13,46 30,63 0,5 -9,13 -27,22 -19,11 -38,17 -54,17 -3,0 -8,-6 -15,-18 -9,-15 -14,-32 -16,-52 -1,-8 -2,-34 -2,-79 0,-88 1,-161 2,-220 -15,0 -29,0 -41,1 -2,-3 -4,-11 -4,-26 0,-24 3,-37 7,-41l39 -1c0,-22 -1,-40 -2,-53l-2 -17c0,-5 8,-11 26,-17 16,-7 31,-10 45,-10 12,0 18,1 18,3zm508 516c-25,-25 -54,-81 -88,-168 -32,-81 -47,-122 -47,-122 -2,0 -10,10 -24,30 -12,21 -19,33 -19,37l0 48c0,84 2,134 5,148 1,3 -6,6 -20,11 -16,6 -34,8 -52,8 -8,0 -17,-1 -25,-3 -1,-2 -2,-14 -2,-37 0,-24 1,-79 4,-165 3,-87 4,-147 4,-179 0,-35 -1,-55 -4,-58 -15,-23 -23,-42 -23,-57 0,-3 11,-8 33,-14 23,-6 44,-9 63,-9 14,0 21,1 22,2 1,1 1,10 1,27 0,19 -1,66 -3,139 0,3 0,5 2,5 0,0 1,-1 3,-3 91,-122 147,-182 168,-182 14,0 31,5 51,16 18,10 27,17 27,21l0 1c-28,18 -60,45 -96,81 -32,32 -48,50 -48,55 0,18 20,70 58,155 42,90 75,148 101,174 3,3 -6,9 -25,20 -22,13 -44,19 -66,19zm276 -14c-48,0 -86,-15 -114,-45 -28,-30 -41,-68 -41,-115 0,-49 16,-91 49,-126 36,-39 82,-59 140,-59 24,1 37,3 40,6 1,1 2,5 2,11 0,8 -1,17 -2,26 13,2 28,10 45,26 26,25 39,60 39,104 0,47 -14,86 -41,119 -29,36 -69,53 -117,53zm73 -166c0,-46 -19,-69 -56,-69l-6 0c-1,-2 -2,-5 -2,-9 0,-9 1,-16 3,-22 -21,0 -39,9 -55,25 -19,20 -28,46 -28,78 0,18 3,33 9,48 11,27 32,41 62,41 19,0 36,-7 49,-21 16,-17 24,-40 24,-71zm168 214c-6,0 -13,-1 -21,-3 8,-55 11,-156 11,-303 0,-37 0,-64 0,-81l-33 2c-2,-3 -4,-11 -4,-25 0,-24 3,-39 7,-43l29 -2 -2 -89c-1,-8 17,-21 54,-39 38,-18 69,-27 92,-27 3,0 7,5 12,16 5,11 7,21 7,30 0,4 0,6 -1,8 -4,0 -16,5 -37,17 -23,12 -36,23 -37,31 -2,13 -3,30 -4,53l3 0c40,0 60,0 60,2 0,16 -3,32 -9,46 -5,14 -10,20 -14,20 -16,-1 -29,-1 -41,-1l0 37c0,39 1,94 2,165l2 130c0,19 -1,31 -2,36 -18,13 -43,20 -74,20zm367 -301c0,-15 -7,-22 -23,-22 -20,0 -38,11 -53,31 -15,21 -23,46 -23,75 0,7 1,10 3,10 18,0 38,-10 60,-29 24,-21 36,-43 36,-65zm-32 251c-50,0 -88,-15 -115,-46 -25,-27 -38,-64 -38,-109 0,-52 15,-94 44,-128 33,-37 78,-56 135,-56 23,0 43,5 59,15 22,15 33,36 33,65 0,33 -13,64 -39,93 -27,31 -64,54 -110,70 0,3 4,7 12,11 11,6 25,8 42,8 37,0 66,-6 88,-19 1,-1 1,-1 2,-1 1,0 2,5 2,14 0,28 -6,50 -19,66 -16,12 -49,17 -96,17z"/>
   <path class="fil1" d="M117 1354c58,-6 102,-21 132,-45 24,-19 36,-40 36,-64 0,-19 -11,-34 -33,-45 -20,-10 -46,-14 -79,-14 -19,0 -37,1 -52,4 -3,21 -4,76 -4,164zm171 286c-10,-11 -30,-48 -58,-112 -25,-58 -40,-94 -43,-108 -6,4 -29,9 -70,16 1,99 4,156 8,172 -12,12 -37,18 -75,18 -11,0 -20,-2 -26,-4 0,-73 1,-215 4,-426 -19,-24 -28,-49 -28,-77 0,-1 0,-2 1,-3 4,-5 52,-8 144,-8 158,0 238,45 238,134 0,61 -39,110 -115,147 0,8 15,42 45,102 32,65 57,107 75,125 0,1 1,1 1,2 0,3 -9,8 -27,14 -19,6 -38,9 -55,9 -6,0 -12,0 -19,-1zm323 -271c0,-14 -8,-21 -23,-21 -20,0 -38,10 -53,31 -16,21 -23,45 -23,74 0,7 1,11 3,11 17,-1 37,-10 59,-29 25,-21 37,-43 37,-66zm-33 252c-50,0 -88,-15 -115,-46 -25,-27 -38,-64 -38,-110 0,-51 15,-93 45,-127 33,-38 77,-56 134,-56 23,0 43,5 60,15 22,14 33,36 33,65 0,32 -13,63 -39,92 -28,31 -65,54 -111,70 0,4 4,8 13,12 10,5 24,8 41,8 37,0 67,-7 88,-20 1,0 1,-1 2,-1 1,0 2,5 2,14 0,29 -6,51 -18,67 -17,11 -49,17 -97,17zm427 -218c2,16 2,52 2,109 0,33 -1,52 -3,59 0,2 -6,5 -19,9 -14,3 -28,5 -43,5 -9,0 -17,-1 -23,-3 4,-40 6,-77 6,-112 0,-35 -1,-58 -4,-70 -4,-16 -14,-24 -29,-24 -16,0 -31,9 -43,27 -10,13 -14,24 -14,33l0 93c0,49 -1,74 -2,76 -13,12 -39,18 -78,18 -4,0 -6,-1 -6,-2 4,-21 5,-57 5,-109l-2 -173c0,-31 1,-48 4,-51 16,-15 37,-22 64,-22 10,0 15,1 15,3 -1,22 -2,43 -2,63 0,2 0,3 1,3 1,0 2,0 3,-1 26,-29 53,-44 80,-44 32,0 56,15 72,43 28,-39 59,-59 93,-59 41,0 68,27 82,81 8,34 12,93 12,177 0,32 -1,61 -3,86 0,2 -6,5 -20,9 -14,4 -29,6 -43,6 -10,0 -17,-2 -24,-4 6,-49 8,-92 8,-130 0,-45 -2,-75 -6,-92 -7,-24 -20,-36 -39,-36 -11,0 -22,5 -32,15 -8,8 -12,14 -12,17zm378 220c-49,0 -87,-15 -115,-46 -27,-29 -40,-68 -40,-115 0,-48 16,-90 48,-126 36,-39 83,-58 141,-58 24,1 37,3 40,6 1,1 2,4 2,10 0,9 -1,18 -3,27 14,1 29,10 45,25 26,26 39,61 39,104 0,47 -13,87 -40,120 -30,35 -69,53 -117,53zm73 -166c0,-46 -19,-69 -56,-69l-6 0c-1,-2 -2,-5 -2,-10 0,-8 1,-15 2,-21 -20,0 -38,8 -54,25 -19,20 -28,46 -28,78 0,17 3,33 9,47 11,28 32,42 62,42 19,0 36,-8 49,-22 16,-16 24,-39 24,-70zm146 -111c0,-31 2,-47 4,-50 14,-13 36,-20 67,-20 10,0 16,1 16,3 -2,12 -3,25 -3,39 0,10 1,14 3,14 0,0 1,0 2,-1 23,-31 54,-46 91,-46 41,0 68,25 81,76 9,32 13,89 13,171 0,32 -1,61 -2,86 0,2 -7,5 -20,9 -15,4 -29,6 -44,6 -9,0 -17,-2 -24,-4 5,-44 7,-86 7,-126 0,-43 -2,-74 -6,-91 -7,-24 -19,-37 -37,-37 -32,0 -53,18 -61,53l0 93c0,53 -1,80 -3,82 -13,13 -38,20 -76,20 -7,0 -11,-1 -11,-2 4,-22 6,-59 6,-109l-3 -166zm434 -225c-1,11 -2,42 -4,93 37,0 56,0 56,2 0,17 -3,32 -8,45 -5,13 -9,19 -14,19l-34 0c-1,73 -2,128 -2,165 0,53 1,88 2,104 3,25 13,46 31,62 0,6 -10,13 -28,23 -19,11 -38,16 -54,16 -3,0 -8,-6 -15,-17 -9,-15 -14,-32 -16,-52 -1,-8 -2,-34 -2,-79 0,-88 1,-161 2,-220 -15,0 -29,0 -41,0 -2,-2 -4,-11 -4,-25 0,-24 3,-38 7,-41l39 -2c0,-22 -1,-39 -2,-53l-2 -17c0,-4 8,-10 26,-17 16,-6 31,-9 45,-9 12,0 18,1 18,3zm508 515c-25,-24 -54,-80 -88,-167 -32,-82 -47,-123 -47,-123 -2,0 -10,11 -24,31 -12,20 -19,33 -19,37l0 48c0,84 2,133 5,148 1,2 -6,6 -20,11 -16,5 -34,8 -52,8 -8,0 -17,-1 -25,-4 -1,-1 -2,-13 -2,-36 0,-24 1,-79 4,-166 3,-87 4,-146 4,-178 0,-36 -1,-55 -4,-59 -15,-23 -23,-42 -23,-56 0,-4 11,-8 33,-14 23,-6 44,-9 63,-9 14,0 21,1 22,2 1,1 1,10 1,27 0,19 -1,65 -3,139 0,3 0,4 2,4 0,0 1,-1 3,-3 91,-121 147,-182 168,-182 14,0 31,6 51,17 18,10 27,17 27,21l0 1c-28,17 -60,44 -96,81 -32,32 -48,50 -48,54 0,19 20,70 58,155 42,91 75,149 101,175 3,2 -6,9 -25,20 -22,12 -44,18 -66,18zm276 -13c-48,0 -86,-15 -114,-46 -28,-29 -41,-68 -41,-115 0,-48 16,-90 49,-126 36,-39 82,-58 140,-58 24,1 37,3 40,6 1,1 2,4 2,10 0,9 -1,18 -2,27 13,1 28,10 45,25 26,26 39,61 39,104 0,47 -14,87 -41,120 -29,35 -69,53 -117,53zm73 -166c0,-46 -19,-69 -56,-69l-6 0c-1,-2 -2,-5 -2,-10 0,-8 1,-15 3,-21 -21,0 -39,8 -55,25 -19,20 -28,46 -28,78 0,17 3,33 9,47 11,28 32,42 62,42 19,0 36,-8 49,-22 16,-16 24,-39 24,-70zm168 214c-6,0 -13,-1 -21,-4 8,-54 11,-155 11,-302 0,-37 0,-64 0,-81l-33 1c-2,-2 -4,-10 -4,-24 0,-25 3,-39 7,-44l29 -1 -2 -89c-1,-8 17,-21 54,-39 38,-19 69,-28 92,-28 3,0 7,6 12,17 5,11 7,21 7,30 0,3 0,6 -1,7 -4,0 -16,6 -37,17 -23,13 -36,24 -37,32 -2,13 -3,30 -4,52l3 0c40,0 60,1 60,2 0,17 -3,32 -9,47 -5,13 -10,20 -14,20 -16,-1 -29,-2 -41,-2l0 37c0,40 1,95 2,165l2 130c0,19 -1,31 -2,36 -18,14 -43,21 -74,21zm367 -302c0,-14 -7,-21 -23,-21 -20,0 -38,10 -53,31 -15,21 -23,45 -23,74 0,7 1,11 3,11 18,-1 38,-10 60,-29 24,-21 36,-43 36,-66zm-32 252c-50,0 -88,-15 -115,-46 -25,-27 -38,-64 -38,-110 0,-51 15,-93 44,-127 33,-38 78,-56 135,-56 23,0 43,5 59,15 22,14 33,36 33,65 0,32 -13,63 -39,92 -27,31 -64,54 -110,70 0,4 4,8 12,12 11,5 25,8 42,8 37,0 66,-7 88,-20 1,0 1,-1 2,-1 1,0 2,5 2,14 0,29 -6,51 -19,67 -16,11 -49,17 -96,17z"/>
  </g>
 </g>
</svg>
