<?xml version="1.0" encoding="UTF-8"?>
<!DOCTYPE svg PUBLIC "-//W3C//DTD SVG 1.1//EN" "http://www.w3.org/Graphics/SVG/1.1/DTD/svg11.dtd">
<!-- Creator: CorelDRAW X8 -->
<svg xmlns="http://www.w3.org/2000/svg" xml:space="preserve" width="100%" height="100%" version="1.1" style="shape-rendering:geometricPrecision; text-rendering:geometricPrecision; image-rendering:optimizeQuality; fill-rule:evenodd; clip-rule:evenodd"
viewBox="0 0 928 1404"
 xmlns:xlink="http://www.w3.org/1999/xlink">
 <defs>
  <style type="text/css">
   <![CDATA[
    .fil1 {fill:#1E98FF}
    .fil0 {fill:#FEFEFE;fill-rule:nonzero}
   ]]>
  </style>
 </defs>
 <g id="Слой_x0020_1">
  <metadata id="CorelCorpID_0Corel-Layer"/>
  <g id="_1536070567824">
   <path class="fil0" d="M464 0c128,0 244,52 328,136 84,84 136,200 136,328 0,11 0,22 -1,35l0 0c-1,11 -2,23 -4,34l0 1c-1,8 -2,15 -3,22l-1 2c-1,7 -3,14 -5,21 -18,69 -93,207 -179,349 -106,174 -231,356 -285,414 -63,68 -105,74 -136,46 -36,-33 -17,-82 1,-129 4,-12 9,-23 10,-28l1 -3c4,-12 9,-25 15,-41 23,-64 65,-179 84,-260 -112,-10 -214,-59 -289,-135 -84,-84 -136,-200 -136,-328 0,-128 52,-244 136,-328 84,-84 200,-136 328,-136zm244 220c-62,-63 -148,-101 -244,-101 -95,0 -182,38 -244,101 -63,62 -101,149 -101,244 0,96 38,182 101,244 62,63 149,102 244,102l13 0 13 -1 0 0c2,0 4,0 6,0 33,1 58,29 57,61 -2,48 -21,121 -44,192 41,-61 84,-129 125,-196 81,-132 150,-259 165,-316l1 -3c1,-4 2,-8 3,-12l0 -2c1,-5 2,-9 2,-13l1 -4c1,-9 2,-17 3,-26 0,-8 1,-16 1,-26 0,-95 -39,-182 -102,-244zm-314 1080c10,10 3,3 -6,-7 -1,1 1,3 6,7zm70 -1167c91,0 174,37 234,97 60,60 97,143 97,234 0,91 -37,174 -97,234 -60,60 -143,97 -234,97 -91,0 -174,-37 -234,-97 -60,-60 -97,-143 -97,-234 0,-91 37,-174 97,-234 60,-60 143,-97 234,-97zm150 181c-38,-39 -91,-62 -150,-62 -59,0 -112,23 -150,62 -39,38 -62,91 -62,150 0,59 23,112 62,150 38,39 91,62 150,62 59,0 112,-23 150,-62 39,-38 62,-91 62,-150 0,-59 -23,-112 -62,-150z"/>
   <path class="fil1" d="M464 59c224,0 405,182 405,405 0,21 -2,41 -5,61 -1,12 -4,26 -8,39l0 0c-36,143 -357,638 -450,738 -92,101 -42,-1 -25,-53 17,-48 109,-283 113,-381 -10,1 -20,1 -30,1 -223,0 -405,-181 -405,-405 0,-223 182,-405 405,-405zm0 133c150,0 272,122 272,272 0,150 -122,272 -272,272 -150,0 -272,-122 -272,-272 0,-150 122,-272 272,-272z"/>
  </g>
 </g>
</svg>
