<?xml version="1.0" encoding="UTF-8"?>
<!DOCTYPE svg PUBLIC "-//W3C//DTD SVG 1.1//EN" "http://www.w3.org/Graphics/SVG/1.1/DTD/svg11.dtd">
<!-- Creator: CorelDRAW X8 -->
<svg xmlns="http://www.w3.org/2000/svg" xml:space="preserve" width="100%" height="100%" version="1.1" style="shape-rendering:geometricPrecision; text-rendering:geometricPrecision; image-rendering:optimizeQuality; fill-rule:evenodd; clip-rule:evenodd"
viewBox="0 0 1028 512"
 xmlns:xlink="http://www.w3.org/1999/xlink">
 <defs>
  <style type="text/css">
   <![CDATA[
    .fil0 {fill:#462917}
   ]]>
  </style>
 </defs>
 <g id="Слой_x0020_1">
  <metadata id="CorelCorpID_0Corel-Layer"/>
  <path class="fil0" d="M950 512c4,-7 7,-15 10,-21l8 -17c3,-5 6,-13 9,-18 20,-43 10,-29 15,-48 1,-5 3,2 2,-9 -2,-14 -5,-4 -1,-23 3,5 3,12 7,16 2,-8 1,-13 2,-21 1,-9 5,-10 5,-20 1,-12 3,-14 3,-19 -1,-8 -7,-9 -6,-20l5 0c0,0 1,0 1,0 -1,-4 -4,-13 -4,-16 0,-19 1,1 8,-13l-8 0c1,-28 -2,-52 -2,-79 5,14 7,31 14,45l10 11c-2,-58 -14,-147 -35,-202 -5,-14 -18,-37 -31,-58l-893 0c-15,30 -13,44 -27,72 -2,5 -12,20 -12,23 -2,10 4,5 0,12 -1,3 -6,6 -7,10 -2,7 0,9 -2,15 -5,11 -10,-2 -16,38 -3,29 -7,83 -3,112l2 20c-3,18 -4,8 0,31 4,22 10,74 19,89 5,8 6,17 9,27 3,8 7,17 11,25 6,13 12,26 19,38l888 0zm30 -412c4,-7 -4,-11 -6,-17 1,5 2,13 6,17z"/>
 </g>
</svg>
