<?xml version="1.0" encoding="UTF-8"?>
<!DOCTYPE svg PUBLIC "-//W3C//DTD SVG 1.1//EN" "http://www.w3.org/Graphics/SVG/1.1/DTD/svg11.dtd">
<!-- Creator: CorelDRAW X8 -->
<svg xmlns="http://www.w3.org/2000/svg" xml:space="preserve" width="100%" height="100%" version="1.1" style="shape-rendering:geometricPrecision; text-rendering:geometricPrecision; image-rendering:optimizeQuality; fill-rule:evenodd; clip-rule:evenodd"
viewBox="0 0 7394 1928"
 xmlns:xlink="http://www.w3.org/1999/xlink">
 <defs>
  <style type="text/css">
   <![CDATA[
    .fil0 {fill:#007845}
   ]]>
  </style>
 </defs>
 <g id="Слой_x0020_1">
  <metadata id="CorelCorpID_0Corel-Layer"/>
  <path class="fil0" d="M261 0l6872 0c143,0 261,117 261,261l0 1406c0,144 -118,261 -261,261l-6872 0c-144,0 -261,-117 -261,-261l0 -1406c0,-144 117,-261 261,-261zm5646 1395c44,0 89,0 133,0 111,0 103,10 103,-33 -4,-255 11,-598 -1,-827l-237 -2c-7,58 -6,834 2,862zm-3711 -675l0 220 33 0c94,0 163,-24 154,-126 -10,-101 -91,-99 -187,-99l0 5zm4396 -3c-279,50 -236,550 78,497 121,-20 201,-142 182,-289 -15,-123 -119,-233 -260,-208zm-5753 35c-12,64 -279,357 -311,426 -30,65 -16,136 35,185 105,103 275,31 279,-116 1,-67 4,-455 -3,-495zm241 408l13 -17c32,-52 203,-263 252,-327 18,-23 37,-42 49,-71 31,-69 9,-136 -33,-179 -100,-101 -274,-39 -282,107l1 487zm1851 -88l228 0 -116 -391c-23,131 -84,262 -112,391zm-2366 -338c-18,46 -213,250 -255,350 -151,357 221,680 536,527 130,-63 228,-181 234,-373 1,1 2,2 3,4 6,27 286,296 315,324 31,32 63,83 132,82 62,-1 106,-45 114,-100 10,-75 -42,-109 -73,-139 -37,-37 -70,-70 -107,-107 -26,-26 -93,-86 -108,-113l133 -172c45,-58 89,-103 123,-178 76,-168 3,-369 -93,-452 -201,-173 -479,-133 -612,74 -60,93 -50,126 -68,242 -8,-49 -66,-93 -92,-118l-216 -217c-30,-29 -67,-86 -128,-90 -63,-4 -111,38 -124,88 -19,80 37,118 68,150 72,72 145,150 218,218zm1410 660l219 1 2 -328c4,4 5,5 9,10l139 237c15,26 33,60 49,81l438 0c19,-33 28,-138 55,-154l325 0c7,26 13,50 21,77 6,22 15,72 29,77l225 0 -295 -861 -294 -1 -277 801c-19,-23 -33,-46 -49,-70 -25,-35 -138,-200 -143,-216 60,-28 143,-41 176,-157 28,-97 4,-211 -50,-268 -64,-68 -125,-84 -243,-88 -95,-4 -242,-8 -335,-1l-1 860zm4579 -873c-228,39 -423,245 -378,522 37,222 258,411 530,368 226,-35 424,-247 378,-521 -37,-224 -255,-417 -530,-369zm-3051 874l220 0c7,-25 5,-459 5,-522 20,17 130,215 155,257 22,36 147,244 153,265l238 0 0 -862 -224 0 -1 522 -80 -130c-52,-87 -189,-326 -233,-392l-235 0c-7,59 -6,834 2,862zm1467 -34l0 -254c-34,20 -37,48 -109,81 -141,65 -321,-30 -315,-229 3,-115 63,-200 155,-229 132,-40 211,39 268,92l1 -254c-125,-78 -340,-70 -459,9 -274,182 -266,598 -6,771 124,82 327,94 465,13zm891 -165c-37,-10 -236,-3 -289,-3l-2 -659 -235 -1c-7,126 -1,269 -1,395 0,134 0,268 0,402 0,77 -29,65 128,65 39,0 386,6 395,-4 11,-11 4,-166 4,-195zm-594 199c7,-28 9,-803 1,-862l-236 1c-13,226 2,574 -1,828 0,43 -9,33 97,33 46,0 93,0 139,0z"/>
 </g>
</svg>
