<?xml version="1.0" encoding="UTF-8"?>
<!DOCTYPE svg PUBLIC "-//W3C//DTD SVG 1.1//EN" "http://www.w3.org/Graphics/SVG/1.1/DTD/svg11.dtd">
<!-- Creator: CorelDRAW X8 -->
<svg xmlns="http://www.w3.org/2000/svg" xml:space="preserve" width="100%" height="100%" version="1.1" style="shape-rendering:geometricPrecision; text-rendering:geometricPrecision; image-rendering:optimizeQuality; fill-rule:evenodd; clip-rule:evenodd"
viewBox="0 0 5729 5729"
 xmlns:xlink="http://www.w3.org/1999/xlink">
 <defs>
  <style type="text/css">
   <![CDATA[
    .fil0 {fill:none}
    .fil1 {fill:#673B14}
   ]]>
  </style>
 </defs>
 <g id="Слой_x0020_1">
  <metadata id="CorelCorpID_0Corel-Layer"/>
  <rect class="fil0" width="5729" height="5729"/>
  <path class="fil1" d="M3064 2908l-1021 -738c-31,-23 -74,-19 -102,8 -27,28 -30,71 -8,102l739 1021c48,67 123,108 205,115 7,0 15,1 22,1 74,0 146,-30 199,-83 58,-58 88,-138 81,-220 -6,-82 -48,-157 -115,-206zm1857 -357c0,0 0,-1 0,-1 0,0 0,0 0,-1 -48,-179 -120,-350 -211,-507 -1,-2 -1,-4 -1,-5 -1,-2 -3,-3 -4,-4 -80,-137 -174,-264 -281,-380l169 -169 112 112 334 -335 -334 -334 -335 334 112 112 -170 169c-115,-107 -242,-202 -379,-281 -1,-1 -2,-3 -4,-4 -1,-1 -3,-1 -5,-1 -158,-91 -328,-163 -507,-211 -1,0 -1,0 -1,0 -1,0 -1,0 -1,0 -102,-28 -207,-48 -314,-59l0 -93 118 0c109,0 198,-88 198,-197 0,-109 -89,-197 -198,-197l-709 0c-109,0 -197,88 -197,197 0,109 88,197 197,197l118 0 0 93c-107,11 -212,31 -314,59 0,0 0,0 0,0 -1,0 -1,0 -1,0 -180,48 -350,120 -508,211 -1,0 -3,0 -5,1 -2,1 -2,3 -4,4 -137,80 -264,174 -379,281l-169 -169 111 -112 -335 -334 -334 334 334 335 112 -112 169 169c-107,116 -201,243 -281,380 -1,1 -2,2 -3,4 -1,1 -1,3 -2,5 -91,157 -162,328 -210,507 -1,1 -1,1 -1,1 0,0 0,1 0,1 -47,176 -73,360 -73,550 0,190 26,375 73,550 0,1 0,1 0,1 0,1 0,1 1,1 48,180 119,350 210,508 1,1 1,3 2,5 1,2 3,4 4,6 92,157 203,302 331,430 1,1 2,3 3,5 2,1 3,2 5,3 129,128 274,240 432,332 2,1 2,2 4,3 2,1 5,2 7,3 157,90 327,161 506,209 0,0 0,1 1,1 0,0 0,0 1,0 175,47 359,72 550,72 190,0 374,-25 549,-72 1,0 1,0 2,0 0,0 0,-1 1,-1 178,-48 348,-119 505,-209 2,-1 5,-2 7,-3 2,-1 3,-2 4,-3 158,-92 303,-204 432,-332 2,-1 4,-2 5,-3 2,-2 2,-4 3,-5 128,-128 239,-273 331,-430 1,-2 3,-4 5,-6 0,-2 0,-4 1,-5 91,-158 162,-328 211,-508 0,0 0,0 0,-1 0,0 0,0 0,-1 47,-175 73,-360 73,-550 0,-190 -26,-374 -73,-550zm-216 -1401l111 111 -111 112 -112 -112 112 -111zm-3792 111l111 -111 112 111 -112 112 -111 -112zm3683 2386l151 40c-36,115 -82,226 -138,330l-134 -77c-38,-22 -86,-9 -108,29 -22,37 -9,86 29,107l134 78c-64,101 -137,196 -218,283l-109 -109c-31,-31 -81,-31 -112,0 -31,31 -31,81 0,111l110 110c-88,81 -183,154 -284,218l-77 -135c-22,-37 -70,-50 -108,-28 -38,21 -51,70 -29,107l78 135c-105,55 -215,102 -330,138l-41 -151c-11,-42 -54,-67 -96,-56 -42,11 -67,54 -56,97l40 150c-115,26 -233,42 -355,47l0 -156c0,-44 -35,-79 -78,-79 -44,0 -79,35 -79,79l0 156c-122,-5 -240,-21 -355,-47l40 -150c12,-42 -13,-86 -55,-97 -42,-11 -86,14 -97,56l-40 151c-115,-36 -226,-83 -331,-138l78 -135c22,-38 9,-86 -29,-107 -38,-22 -86,-9 -108,28l-77 135c-101,-64 -196,-137 -284,-218l110 -110c31,-30 31,-80 0,-111 -31,-31 -81,-31 -112,0l-109 109c-81,-87 -154,-182 -218,-283l134 -78c38,-21 51,-70 29,-107 -22,-38 -70,-51 -107,-29l-135 77c-55,-104 -102,-215 -138,-330l151 -40c42,-11 67,-55 56,-97 -11,-42 -55,-67 -97,-56l-150 41c-26,-115 -42,-234 -47,-355l156 0c44,0 79,-35 79,-79 0,-43 -35,-79 -79,-79l-156 0c5,-121 21,-240 47,-354l150 40c7,2 14,3 21,3 35,0 66,-24 76,-59 11,-42 -14,-85 -56,-96l-151 -41c36,-115 83,-225 138,-330l135 78c12,7 25,10 39,10 27,0 54,-14 68,-39 22,-38 9,-86 -29,-108l-134 -77c64,-102 137,-197 218,-284l109 109c16,16 36,24 56,24 20,0 40,-8 56,-24 31,-30 31,-80 0,-111l-110 -110c88,-80 183,-153 284,-217l77 134c15,25 41,39 69,39 13,0 27,-3 39,-10 38,-22 51,-70 29,-108l-78 -135c105,-55 215,-101 330,-137l41 151c9,35 41,58 76,58 7,0 14,-1 21,-3 42,-11 67,-54 55,-96l-40 -151c92,-20 187,-35 284,-42 24,-2 46,-3 68,-4 1,0 2,0 3,0l0 155c0,44 35,79 79,79 43,0 78,-35 78,-79l0 -155c1,0 2,0 3,0 22,1 44,2 68,4 97,7 192,22 284,42l-40 151c-11,42 14,85 56,96 7,2 13,3 20,3 35,0 67,-23 76,-58l41 -151c115,36 225,82 330,137l-78 135c-22,38 -9,86 29,108 12,7 26,10 39,10 28,0 54,-14 69,-39l77 -134c101,64 196,137 284,217l-110 110c-30,31 -30,81 0,111 16,16 36,24 56,24 20,0 41,-8 56,-24l109 -109c81,87 154,182 218,284l-134 77c-38,22 -51,70 -29,108 15,25 41,39 68,39 14,0 27,-3 40,-10l134 -78c56,105 102,215 138,330l-151 41c-42,11 -67,54 -56,96 10,35 42,59 76,59 7,0 14,-1 21,-3l151 -40c25,114 41,233 46,354l-156 0c-43,0 -79,36 -79,79 0,44 36,79 79,79l156 0c-5,121 -21,240 -47,355l-150 -40c-42,-12 -85,13 -97,55 -11,42 14,86 56,97zm-1810 -2673l0 -239 -276 0c-22,0 -40,-17 -40,-39 0,-22 18,-39 40,-39l709 0c22,0 40,17 40,39 0,22 -18,39 -40,39l-276 0 0 239c-27,-1 -53,-2 -78,-2 -26,0 -52,1 -79,2zm200 2249c-25,25 -61,38 -97,35 -36,-2 -68,-21 -90,-50l-450 -622 622 450c30,21 48,54 51,90 3,36 -10,71 -36,97z"/>
 </g>
</svg>
