<?xml version="1.0" encoding="UTF-8"?>
<!DOCTYPE svg PUBLIC "-//W3C//DTD SVG 1.1//EN" "http://www.w3.org/Graphics/SVG/1.1/DTD/svg11.dtd">
<!-- Creator: CorelDRAW X8 -->
<svg xmlns="http://www.w3.org/2000/svg" xml:space="preserve" width="100%" height="100%" version="1.1" style="shape-rendering:geometricPrecision; text-rendering:geometricPrecision; image-rendering:optimizeQuality; fill-rule:evenodd; clip-rule:evenodd"
viewBox="0 0 9644 4737"
 xmlns:xlink="http://www.w3.org/1999/xlink">
 <defs>
  <style type="text/css">
   <![CDATA[
    .fil0 {fill:#000}
   ]]>
  </style>
 </defs>
 <g id="Слой_x0020_1">
  <metadata id="CorelCorpID_0Corel-Layer"/>
  <path class="fil0" d="M3102 4132c-204,-92 -296,-218 -496,-412 -169,52 -803,320 -1032,390 -152,47 -171,-126 -275,-397 -66,-169 -130,-339 -197,-507l-587 -1509c-47,-124 -185,-409 -177,-528 28,-59 1493,-606 1772,-715 110,-44 171,-79 226,49 239,568 570,1459 800,2061 72,191 393,911 347,1068 -24,85 -130,131 -228,98 -212,-72 -870,-1001 -995,-1163 -62,-85 -124,-133 -87,-244 136,-403 -311,-892 -626,-692 51,82 214,278 272,383 -39,51 -215,176 -275,207 -48,-43 -103,-131 -143,-186 -44,-60 -98,-119 -148,-186 -207,180 -70,691 335,779 285,62 104,-131 507,303l158 179c33,42 37,48 78,90l153 169c167,192 297,320 491,503 274,259 759,128 754,-297 -2,-189 -256,-774 -332,-965 -126,-314 -247,-632 -369,-948l-552 -1421c-101,-252 -72,-293 -350,-185 -628,241 -1256,491 -1884,732 -343,133 -301,44 -1,830l1101 2831c150,380 36,365 807,67 47,-18 872,-345 953,-384zm1380 -805l121 0 0 -884 355 884 130 0 355 -884 0 884 122 0 0 -1032 -191 0 -351 884 -351 -884 -190 0 0 1032zm1281 -369c0,236 146,375 358,375 211,0 356,-139 356,-375 0,-235 -145,-374 -356,-374 -212,0 -358,139 -358,374zm122 0c0,-187 94,-293 236,-293 140,0 234,106 234,293 0,188 -94,294 -234,294 -142,0 -236,-106 -236,-294zm777 369l115 0 7 -140c49,94 134,146 243,146 193,0 329,-139 329,-375 0,-235 -136,-374 -329,-374 -109,0 -194,50 -243,142l0 -468 -122 0 0 1069zm122 -369c0,-187 88,-293 218,-293 137,0 231,106 231,293 0,188 -94,294 -231,294 -130,0 -218,-106 -218,-294l0 0zm756 -504l122 0 0 -159 -122 0 0 159zm0 873l122 0 0 -737 -122 0 0 737zm339 -146c0,102 65,152 196,152l0 -81c-45,0 -74,-30 -74,-80l0 -914 -122 0 0 923zm695 -597c-216,0 -358,139 -358,374 0,236 146,375 358,375 179,0 310,-92 310,-236l-118 0c0,93 -83,155 -193,155 -136,0 -230,-98 -233,-264l548 0c12,-273 -125,-404 -314,-404zm-1 81c110,0 194,90 194,249l-426 0c0,-158 99,-249 232,-249zm476 430c0,145 125,238 297,238 176,0 298,-76 298,-205 0,-289 -457,-146 -457,-336 0,-80 64,-127 156,-127 93,0 164,58 164,142l113 0c0,-135 -116,-223 -275,-223 -165,0 -280,77 -280,208 0,274 457,135 457,333 0,81 -71,127 -173,127 -104,0 -181,-62 -181,-157l-119 0zm-5657 -1276l0 -1372 584 0c146,0 253,13 319,37 67,25 120,69 160,132 40,63 60,135 60,216 0,103 -30,188 -90,255 -61,67 -151,109 -271,127 60,34 109,73 148,115 39,41 91,116 157,222l167 268 -331 0 -199 -299c-71,-107 -120,-174 -146,-202 -26,-27 -54,-46 -83,-56 -30,-11 -77,-16 -141,-16l-56 0 0 573 -278 0zm278 -791l205 0c133,0 216,-6 249,-17 33,-11 59,-31 78,-58 18,-28 28,-62 28,-103 0,-47 -13,-84 -37,-112 -25,-29 -60,-47 -105,-54 -22,-3 -90,-5 -202,-5l-216 0 0 349zm1679 477l262 44c-33,96 -87,169 -159,220 -73,50 -164,75 -273,75 -173,0 -301,-57 -383,-170 -66,-90 -99,-205 -99,-343 0,-165 43,-294 129,-387 86,-94 195,-140 327,-140 147,0 264,49 349,146 86,98 126,248 123,449l-658 0c2,78 23,139 64,182 40,44 91,66 151,66 41,0 75,-12 103,-34 28,-22 49,-58 64,-108zm15 -266c-2,-77 -21,-135 -59,-174 -37,-40 -82,-60 -136,-60 -57,0 -104,21 -142,63 -37,42 -55,99 -55,171l392 0zm468 -414l245 0 0 146c32,-50 75,-90 129,-121 54,-31 115,-46 181,-46 115,0 213,45 293,136 81,90 121,216 121,378 0,166 -40,295 -121,388 -82,92 -180,138 -296,138 -54,0 -104,-11 -149,-33 -44,-22 -92,-59 -141,-112l0 497 -262 0 0 -1371zm258 482c0,112 22,194 67,248 44,53 98,80 161,80 61,0 112,-24 152,-74 41,-49 61,-129 61,-241 0,-105 -21,-183 -63,-233 -41,-51 -93,-76 -154,-76 -65,0 -118,24 -160,74 -43,50 -64,124 -64,222zm1115 -176l-237 -42c26,-97 73,-169 138,-215 66,-47 163,-70 292,-70 117,0 205,13 262,41 57,28 98,63 121,106 23,43 35,121 35,235l-4 307c0,87 4,151 13,193 8,41 24,86 47,133l-261 0c-7,-17 -15,-43 -25,-77 -4,-15 -7,-25 -9,-30 -45,44 -93,77 -144,99 -51,22 -105,33 -163,33 -102,0 -182,-28 -241,-83 -59,-56 -88,-126 -88,-211 0,-56 13,-106 40,-150 27,-44 64,-77 113,-101 48,-23 117,-44 208,-61 123,-23 208,-45 256,-65l0 -26c0,-51 -13,-88 -38,-110 -25,-21 -72,-32 -142,-32 -46,0 -83,9 -109,28 -27,18 -48,51 -64,98zm353 213c-34,11 -87,25 -160,40 -73,16 -121,31 -143,46 -35,24 -52,55 -52,92 0,37 14,69 41,96 28,27 63,40 105,40 47,0 93,-16 136,-47 31,-23 52,-52 62,-87 7,-22 11,-65 11,-128l0 -52zm517 -653l0 -244 263 0 0 244 -263 0zm0 1128l0 -994 263 0 0 994 -263 0zm783 0l-262 0 0 -994 243 0 0 141c42,-67 80,-111 113,-131 34,-21 72,-31 114,-31 60,0 118,16 174,49l-82 229c-44,-28 -85,-43 -123,-43 -37,0 -69,11 -94,31 -26,20 -46,56 -61,109 -14,53 -22,165 -22,334l0 306zm-7848 -1186l294 -115c24,-9 50,2 60,26l0 0c9,23 -3,50 -26,59l-295 115c-23,9 -50,-3 -59,-26l0 0c-9,-24 3,-50 26,-59zm412 -162l0 0c24,-9 51,3 60,26l0 1c9,24 -2,50 -26,59l0 0c-23,9 -50,-2 -59,-26l-1 -1c-9,-23 3,-50 26,-59zm1136 3420c83,0 150,67 150,150 0,84 -67,151 -150,151 -84,0 -151,-67 -151,-151 0,-83 67,-150 151,-150z"/>
 </g>
</svg>
