<?xml version="1.0" encoding="UTF-8"?>
<!DOCTYPE svg PUBLIC "-//W3C//DTD SVG 1.1//EN" "http://www.w3.org/Graphics/SVG/1.1/DTD/svg11.dtd">
<!-- Creator: CorelDRAW X8 -->
<svg xmlns="http://www.w3.org/2000/svg" xml:space="preserve" width="100%" height="100%" version="1.1" style="shape-rendering:geometricPrecision; text-rendering:geometricPrecision; image-rendering:optimizeQuality; fill-rule:evenodd; clip-rule:evenodd"
viewBox="0 0 5729 5729"
 xmlns:xlink="http://www.w3.org/1999/xlink">
 <defs>
  <style type="text/css">
   <![CDATA[
    .fil0 {fill:none}
    .fil1 {fill:#673B14}
   ]]>
  </style>
 </defs>
 <g id="Слой_x0020_1">
  <metadata id="CorelCorpID_0Corel-Layer"/>
  <rect class="fil0" width="5729" height="5729"/>
  <path class="fil1" d="M2269 1790c-270,0 -488,216 -488,484 0,267 218,483 488,483 269,0 487,-216 487,-483 0,-268 -218,-484 -487,-484zm1715 -65c-42,-42 -110,-42 -152,0l-2127 2127c-42,42 -42,110 0,152 42,42 110,42 152,0l2127 -2127c42,-42 42,-110 0,-152zm-1715 817c-150,0 -271,-120 -271,-268 0,-149 121,-269 271,-269 149,0 271,120 271,269 0,148 -122,268 -271,268zm1192 430c-270,0 -488,217 -488,484 0,267 218,483 488,483 269,0 488,-216 488,-483 0,-267 -219,-484 -488,-484zm0 752c-150,0 -271,-120 -271,-268 0,-149 121,-269 271,-269 149,0 271,120 271,269 0,148 -122,268 -271,268zm1738 -934l-600 -595 0 -942c0,-60 -49,-108 -109,-108l-950 0 -600 -595c-42,-41 -109,-41 -151,0l-600 595 -950 0c-60,0 -109,48 -109,108l0 942 -600 595c-42,41 -42,108 0,149l600 595 0 943c0,59 49,107 109,107l950 0 600 595c42,41 109,41 151,0l600 -595 951 0c59,0 108,-48 108,-107l0 -943 600 -595c42,-41 42,-108 0,-149l0 0zm-817 698l0 881 -889 0 -611 606 -612 -606 -923 0 0 -915 -594 -589 594 -590 0 -915 923 0 612 -606 611 606 889 0 0 881 629 624 -629 623 0 0z"/>
 </g>
</svg>
