<?xml version="1.0" encoding="UTF-8"?>
<!DOCTYPE svg PUBLIC "-//W3C//DTD SVG 1.1//EN" "http://www.w3.org/Graphics/SVG/1.1/DTD/svg11.dtd">
<!-- Creator: CorelDRAW X8 -->
<svg xmlns="http://www.w3.org/2000/svg" xml:space="preserve" width="100%" height="100%" version="1.1" style="shape-rendering:geometricPrecision; text-rendering:geometricPrecision; image-rendering:optimizeQuality; fill-rule:evenodd; clip-rule:evenodd"
viewBox="0 0 5729 5729"
 xmlns:xlink="http://www.w3.org/1999/xlink">
 <defs>
  <style type="text/css">
   <![CDATA[
    .fil0 {fill:none}
    .fil1 {fill:#673B14}
   ]]>
  </style>
 </defs>
 <g id="Слой_x0020_1">
  <metadata id="CorelCorpID_0Corel-Layer"/>
  <rect class="fil0" width="5729" height="5729"/>
  <path class="fil1" d="M2865 1638c-677,0 -1227,550 -1227,1227 0,676 550,1226 1227,1226 676,0 1226,-550 1226,-1226 0,-677 -550,-1227 -1226,-1227zm0 350c-484,0 -877,393 -877,877 0,483 393,876 877,876 483,0 876,-393 876,-876 0,-484 -393,-877 -876,-877zm0 1578c-387,0 -701,-315 -701,-701 0,-387 314,-701 701,-701 386,0 701,314 701,701 0,386 -315,701 -701,701zm2122 -1227l-177 0c-45,-168 -112,-328 -198,-478l125 -125c46,-46 71,-107 71,-172 0,-66 -25,-127 -71,-173l-399 -399c-92,-92 -253,-92 -345,0l-125 125c-150,-86 -310,-153 -478,-198l0 -177c0,-134 -109,-243 -243,-243l-565 0c-134,0 -243,109 -243,243l0 177c-168,45 -328,112 -478,198l-125 -125c-92,-92 -253,-92 -345,0l-399 399c-46,46 -71,108 -71,173 0,65 25,126 71,172l125 125c-86,150 -153,310 -198,478l-177 0c-134,0 -243,109 -243,243l0 565c0,134 109,243 243,243l177 0c45,168 112,328 198,478l-125 125c-46,46 -71,108 -71,173 0,65 25,126 71,172l399 399c92,92 253,92 345,0l125 -125c150,86 310,153 478,198l0 177c0,134 109,243 244,243l564 0c134,0 243,-109 243,-243l0 -177c168,-45 328,-111 478,-198l125 125c93,92 253,92 345,0l399 -399c46,-46 71,-107 71,-172 0,-65 -25,-127 -71,-173l-125 -125c86,-150 153,-310 198,-478l177 0c134,0 243,-109 243,-243l0 -565c0,-134 -109,-243 -243,-243zm68 808c0,37 -31,68 -68,68l-315 0 -16 68c-45,196 -122,382 -229,553l-37 59 223 222c27,27 27,70 0,97l-399 399c-27,27 -70,27 -97,0l-222 -223 -59 37c-171,107 -357,184 -553,229l-68 16 0 315c0,37 -31,68 -68,68l-565 0c-37,0 -68,-31 -68,-68l0 -315 -68 -16c-196,-45 -382,-122 -553,-229l-59 -37 -222 223c-27,27 -70,27 -97,0l-399 -399c-27,-27 -27,-70 0,-97l223 -222 -37 -59c-106,-171 -183,-357 -229,-553l-16 -68 -315 0c-37,0 -68,-31 -68,-68l0 -565c0,-37 31,-68 68,-68l315 0 16 -68c46,-196 123,-382 229,-553l37 -59 -223 -222c-27,-27 -27,-70 0,-97l399 -399c27,-26 70,-27 97,0l222 223 59 -37c171,-106 357,-183 553,-229l68 -16 0 -315c0,-37 31,-68 68,-68l565 0c37,0 68,31 68,68l0 315 68 16c196,46 382,123 553,229l59 37 222 -223c27,-27 70,-26 97,0l399 399c27,27 27,70 0,97l-223 222 37 59c107,171 184,357 229,553l16 68 315 0c37,0 68,31 68,68l0 565zm-2190 769c-580,0 -1052,-472 -1052,-1051 0,-580 472,-1052 1052,-1052 579,0 1051,472 1051,1052 0,579 -472,1051 -1051,1051z"/>
 </g>
</svg>
