<?xml version="1.0" encoding="UTF-8"?>
<!DOCTYPE svg PUBLIC "-//W3C//DTD SVG 1.1//EN" "http://www.w3.org/Graphics/SVG/1.1/DTD/svg11.dtd">
<!-- Creator: CorelDRAW X8 -->
<svg xmlns="http://www.w3.org/2000/svg" xml:space="preserve" width="100%" height="100%" version="1.1" style="shape-rendering:geometricPrecision; text-rendering:geometricPrecision; image-rendering:optimizeQuality; fill-rule:evenodd; clip-rule:evenodd"
viewBox="0 0 4870 3381"
 xmlns:xlink="http://www.w3.org/1999/xlink">
 <defs>
  <style type="text/css">
   <![CDATA[
    .fil0 {fill:#FEFEFE}
    .fil1 {fill:#AE0917}
   ]]>
  </style>
 </defs>
 <g id="Слой_x0020_1">
  <metadata id="CorelCorpID_0Corel-Layer"/>
  <path class="fil0" d="M0 1673c0,282 54,506 175,748 36,72 80,140 127,206 31,43 65,83 100,124l139 139 60 51c25,21 53,39 78,60 6,5 11,7 17,12 6,4 10,7 16,11l85 56c12,7 22,13 35,20 48,28 96,53 146,78 50,24 105,47 157,66 14,5 26,9 40,14 153,51 293,85 452,105 32,4 67,9 100,11l79 5c14,1 36,2 51,2l9 0c7,0 15,0 22,0l1 0c372,0 745,-2 1117,0l5 0c16,0 34,-1 50,-2 24,-1 54,-5 78,-5 116,-13 223,-26 338,-53 30,-7 59,-14 88,-22 28,-8 57,-17 85,-26 127,-42 210,-78 331,-141l124 -72c34,-21 66,-44 98,-68l124 -100c5,-4 9,-9 14,-13 30,-25 57,-54 85,-82 6,-6 7,-9 13,-15 21,-21 39,-44 59,-66 3,-3 4,-4 7,-7l106 -144c23,-34 43,-69 63,-104 4,-6 6,-12 10,-18 4,-6 6,-12 10,-19 6,-13 11,-24 18,-36l18 -39c13,-25 22,-51 33,-77 45,-116 74,-230 92,-355 9,-68 14,-136 15,-205l0 -36c-1,-135 -19,-270 -52,-397 -4,-14 -7,-28 -12,-42 -22,-69 -44,-138 -75,-203 -6,-14 -11,-25 -18,-38 -43,-86 -80,-147 -134,-226 -29,-44 -64,-85 -98,-125l-26 -30c-4,-5 -10,-10 -14,-15 -6,-5 -8,-9 -13,-14l-42 -42c-42,-42 -87,-79 -133,-117 -6,-5 -11,-8 -17,-13 -10,-8 -20,-15 -30,-23 -12,-9 -22,-16 -33,-24 -11,-8 -21,-15 -32,-22 -80,-53 -162,-99 -249,-142 -12,-6 -25,-10 -37,-17 -72,-36 -207,-80 -287,-103 -45,-13 -89,-24 -134,-33 -49,-10 -92,-18 -142,-25 -111,-17 -203,-21 -311,-25 -374,0 -748,0 -1122,0 -93,1 -186,11 -278,24 -63,9 -125,21 -188,36 -100,23 -200,53 -296,92 -65,26 -128,55 -190,87l-240 150c-11,8 -22,16 -32,24 -11,9 -21,16 -32,25 -20,16 -39,35 -60,51 -18,14 -81,77 -99,95 -5,5 -7,9 -13,14l-53 59c-61,72 -114,148 -162,229 -7,12 -13,24 -20,36 -40,65 -95,195 -118,270l-26 87c-17,58 -29,126 -37,186 -9,66 -15,135 -15,208z"/>
  <path class="fil1" d="M2635 1317c-100,9 -157,49 -188,125 -30,74 -21,206 -21,293 0,98 -8,200 43,271 43,62 118,93 226,85 241,-19 208,-239 208,-418 0,-101 9,-196 -42,-272 -42,-61 -122,-93 -226,-84zm-1157 765l145 0 0 -2 0 -754 -145 0 0 756zm480 -1l165 1 192 -755 -141 -1 -131 538c-6,-11 -60,-236 -68,-268 -12,-45 -22,-89 -34,-135 -11,-43 -25,-92 -33,-135l-143 0 193 755zm1716 1l139 0 40 -159 200 0 37 158 138 0 -182 -754 -183 -1c-5,2 -23,83 -25,93 -8,31 -16,63 -24,95 -16,63 -31,125 -47,189l-70 283c-8,32 -17,64 -23,96zm206 -287l142 0 -71 -303c-7,17 -14,54 -18,75 -6,26 -12,50 -18,76 -6,26 -12,50 -18,75 -5,23 -14,55 -17,77zm-808 286l132 0 0 -483c2,2 1,1 3,4l164 358c9,20 18,40 27,60 9,19 21,42 28,61l139 1 0 -756 -132 0 0 445c-7,-8 -95,-206 -102,-221 -17,-37 -33,-75 -50,-111 -9,-19 -17,-38 -26,-56 -7,-16 -20,-41 -25,-57l-158 0 0 755zm-1930 -825l0 583 -223 -384c-11,-19 -71,-119 -75,-129l-151 0 0 755 136 0 0 -535 310 535 139 0 0 -893c-6,1 -98,47 -119,57 -10,5 -13,4 -17,11zm1498 189c-55,9 -69,49 -69,108 -1,59 0,118 0,176 0,45 -5,134 4,172 12,51 54,71 115,62 55,-9 69,-49 69,-108 0,-59 0,-118 0,-176 0,-45 5,-134 -5,-173 -6,-26 -17,-42 -36,-52 -20,-11 -54,-13 -78,-9z"/>
 </g>
</svg>
