<?xml version="1.0" encoding="UTF-8"?>
<!DOCTYPE svg PUBLIC "-//W3C//DTD SVG 1.1//EN" "http://www.w3.org/Graphics/SVG/1.1/DTD/svg11.dtd">
<!-- Creator: CorelDRAW X8 -->
<svg xmlns="http://www.w3.org/2000/svg" xml:space="preserve" width="100%" height="100%" version="1.1" style="shape-rendering:geometricPrecision; text-rendering:geometricPrecision; image-rendering:optimizeQuality; fill-rule:evenodd; clip-rule:evenodd"
viewBox="0 0 12585 4064"
 xmlns:xlink="http://www.w3.org/1999/xlink">
 <defs>
  <style type="text/css">
   <![CDATA[
    .fil0 {fill:#DD281E}
   ]]>
  </style>
 </defs>
 <g id="Слой_x0020_1">
  <metadata id="CorelCorpID_0Corel-Layer"/>
  <path class="fil0" d="M0 4064l4194 0 0 -4064 -4194 0 0 4064zm2046 -2762l-1 287 190 0c5,19 2,539 2,606l0 368 -162 1 -1 357 1016 0c3,-96 1,-259 0,-361l-167 0 1 -354 187 0c18,50 130,309 152,360l115 269c5,12 32,84 42,87l670 -1 0 -356 -174 -1c-12,-3 -58,-106 -67,-123 -21,-42 -185,-362 -188,-377 37,-28 59,-37 109,-79 36,-30 62,-58 92,-96 61,-80 89,-171 53,-292 -56,-185 -211,-290 -402,-353 -130,-42 -199,-45 -333,-45 -378,0 -756,0 -1135,0l1 103zm-1756 291l162 0 0 975 -162 0 -1 352c19,3 910,5 1045,1 3,-98 1,-256 0,-361l-195 0 0 -345 321 0c3,-80 2,-284 0,-370l-319 0 -2 -284c35,-3 324,-1 382,-1l0 166 360 1c4,-30 2,-516 2,-528l-1593 0 0 394zm11578 290l-297 -2 1 -357c31,-4 247,-1 312,-1 32,0 37,-5 41,6l0 194 395 0 0 -524 -1598 0 0 325 198 0 2 1007 -198 1 -2 390 1597 0 1 -590 -390 1 0 202 -362 1 0 -329 299 -1 1 -323zm-7222 -319l176 0c4,19 -296,890 -326,996l-77 0 0 361 687 0 0 -356 -169 -1 34 -191 448 1 37 190 -163 1 0 357 942 0c4,-97 1,-254 1,-357l-185 -1c-12,-21 -29,-92 -38,-121l-223 -753c-11,-39 -30,-90 -37,-130l193 0 1 -361 -1301 0 0 365zm397 512l351 0 -173 -480c-11,14 -124,328 -134,356 -11,29 -40,98 -44,124zm1327 -518c41,3 91,-2 133,0 2,332 -1,672 -1,1004 -20,7 -106,2 -135,3l-1 356 719 0 0 -360 -155 -1 0 -540c7,3 529,749 599,851 20,29 29,51 49,51l551 -1 0 -1364 122 -1 1 -357 -683 0 0 365 153 1c5,59 1,389 1,475 -14,-9 -576,-717 -655,-816 -7,-10 -12,-21 -24,-25l-674 0 0 359zm2178 0c54,0 141,-3 191,0 3,319 0,683 0,1001l-195 1 0 361 1008 0c3,-97 1,-259 0,-360l-142 -1 0 -451c20,11 284,300 323,337 25,24 83,92 106,113l-161 1 0 360c23,4 918,4 951,0l0 -387c-30,-6 -114,-1 -149,-1 -51,0 -34,3 -96,-58l-464 -458c4,-9 110,-119 127,-139 78,-87 178,-188 260,-277 11,-13 20,-23 32,-35 11,-12 23,-27 32,-35 16,-14 102,-5 128,-6l0 -325 -813 1 0 307c0,2 0,8 1,10 3,22 -4,-14 1,5l117 8c-8,15 -273,279 -308,315 -18,18 -87,94 -104,103l0 -12c-1,-83 -3,-339 1,-407l162 -1 0 -329 -1008 0 0 359zm-5621 291l0 97c142,8 330,-41 321,-202 -5,-74 -53,-119 -107,-144 -59,-26 -140,-43 -214,-39l0 288zm1372 2215l4047 0 0 -4064 -4047 0 0 4064zm4153 0l4133 0 0 -4064 -4133 0 0 4064z"/>
 </g>
</svg>
