<?xml version="1.0" encoding="UTF-8"?>
<!DOCTYPE svg PUBLIC "-//W3C//DTD SVG 1.1//EN" "http://www.w3.org/Graphics/SVG/1.1/DTD/svg11.dtd">
<!-- Creator: CorelDRAW X8 -->
<svg xmlns="http://www.w3.org/2000/svg" xml:space="preserve" width="100%" height="100%" version="1.1" style="shape-rendering:geometricPrecision; text-rendering:geometricPrecision; image-rendering:optimizeQuality; fill-rule:evenodd; clip-rule:evenodd"
viewBox="0 0 7394 1817"
 xmlns:xlink="http://www.w3.org/1999/xlink">
 <defs>
  <style type="text/css">
   <![CDATA[
    .fil0 {fill:#FC0204}
   ]]>
  </style>
 </defs>
 <g id="Слой_x0020_1">
  <metadata id="CorelCorpID_0Corel-Layer"/>
  <path class="fil0" d="M0 1817l7394 0 0 -1817 -7394 0 0 1817zm239 -1336l1 15 136 0 0 786 -135 1 -2 191 495 1 1 -190 -137 -3 -1 -507c10,13 21,27 31,41l448 614c9,13 22,36 36,44 8,-18 397,-548 440,-610 9,-12 54,-77 66,-87 5,145 1,354 1,506l-137 0c-4,17 -4,173 0,192l895 0 1 -191 -137 -1c-6,-36 -2,-693 -2,-787l139 0 0 -193 -686 0c-13,6 -35,41 -44,54l-126 173c-14,20 -153,217 -168,229l-166 -230c-11,-15 -157,-223 -170,-226l-781 0 2 178zm3783 468l189 1c5,-21 3,-132 -2,-151 -28,-93 -157,-88 -184,-2 -7,22 -8,128 -3,152zm2358 0l192 1c4,-22 3,-131 -2,-150 -28,-93 -159,-90 -186,-2 -7,22 -7,126 -4,151zm-3602 -551l88 172c21,-6 177,-92 212,-109 11,-6 59,-29 69,-39l-87 -167 -282 143zm-276 389l138 0 0 496 -137 0 -1 192 897 0 0 -191 -136 -1 -2 -689 -759 0 0 193zm2333 -292l137 1 0 787 -136 0 -1 192 922 0 2 -191 -138 -2 -1 -979 -785 0 0 192zm2291 675l-341 0c-84,218 -320,183 -378,103 -33,-47 -32,-105 -27,-171l757 -2c13,-188 -62,-319 -161,-396 -96,-75 -259,-133 -413,-151 -169,-19 -336,14 -476,74 -125,53 -226,156 -261,306 -40,170 36,338 120,420 89,84 243,138 405,158 176,22 336,-6 485,-64 103,-40 185,-90 243,-179 14,-21 42,-70 47,-98zm-2361 0l-342 0c-40,104 -118,171 -236,165 -147,-8 -179,-103 -166,-234l755 -1c14,-189 -61,-319 -161,-396 -98,-76 -258,-133 -412,-151 -169,-18 -340,15 -478,74 -311,134 -350,522 -139,724 14,13 23,21 38,33 96,72 247,112 366,127 174,22 338,-6 485,-63 78,-31 127,-58 178,-104 32,-28 100,-110 112,-174z"/>
 </g>
</svg>
