<?xml version="1.0" encoding="UTF-8"?>
<!DOCTYPE svg PUBLIC "-//W3C//DTD SVG 1.1//EN" "http://www.w3.org/Graphics/SVG/1.1/DTD/svg11.dtd">
<!-- Creator: CorelDRAW X8 -->
<svg xmlns="http://www.w3.org/2000/svg" xml:space="preserve" width="100%" height="100%" version="1.1" style="shape-rendering:geometricPrecision; text-rendering:geometricPrecision; image-rendering:optimizeQuality; fill-rule:evenodd; clip-rule:evenodd"
viewBox="0 0 8761 1417"
 xmlns:xlink="http://www.w3.org/1999/xlink">
 <defs>
  <style type="text/css">
   <![CDATA[
    .fil0 {fill:#FEFEFE}
   ]]>
  </style>
 </defs>
 <g id="Слой_x0020_1">
  <metadata id="CorelCorpID_0Corel-Layer"/>
  <path class="fil0" d="M4370 537l131 117c63,-77 150,-110 283,-91 146,20 156,109 156,253 -206,2 -659,-61 -609,339 32,257 338,347 608,170l6 73 201 5c1,-163 1,-326 1,-489 0,-157 19,-307 -75,-411 -156,-174 -618,-157 -702,34zm2887 271l444 1c14,-344 -456,-349 -444,-1zm-2317 151c-84,-1 -265,-12 -331,18 -198,87 -32,368 241,241 100,-46 90,-127 90,-259zm575 -147l448 4c-10,-147 -70,-259 -223,-260 -152,-1 -222,106 -225,256zm2758 -324c-27,-32 -22,-32 -30,-98l-185 3 0 998 204 5c-3,-176 -16,-462 3,-622 10,-90 53,-157 115,-192 105,-58 172,6 231,40 44,-24 129,-108 150,-152 -113,-131 -400,-121 -488,18zm-1739 1l-21 -98 -185 1 0 1002 206 1c-2,-181 -15,-454 2,-621 10,-91 54,-158 117,-192 103,-55 173,7 230,42 44,-28 130,-111 153,-158 -144,-126 -364,-121 -502,23zm-3332 785c-16,-40 -34,-48 -67,-78 -26,-24 -48,-46 -74,-61 -46,36 -56,62 -119,80 -63,18 -135,11 -187,-20 -216,-127 -177,-720 181,-626 81,21 70,62 142,83 36,-57 77,-88 119,-131 -138,-207 -775,-266 -777,368 -2,508 448,664 782,385zm-1629 -144l-121 128c322,312 1007,115 817,-301 -104,-228 -423,-110 -535,-202 -82,-67 -41,-264 268,-192 72,16 81,38 132,58 33,-41 97,-92 117,-141 -93,-42 -119,-79 -259,-96 -523,-65 -586,377 -399,513 162,117 527,12 498,216 -14,97 -136,124 -250,118 -154,-8 -173,-58 -268,-101zm1992 -1130l-203 0 1 1394 200 -1c21,-245 -95,-810 196,-823 309,-15 168,430 207,824l196 0c15,-144 19,-699 -24,-807 -74,-181 -271,-235 -431,-182 -62,21 -94,61 -142,81l0 -486zm2572 1257c-19,-35 -93,-100 -130,-118 -86,62 -172,137 -333,83 -96,-32 -176,-137 -154,-262l646 -1c1,-289 -63,-497 -305,-560 -607,-159 -692,731 -370,942 207,135 533,71 646,-84zm1745 -8c-43,-39 -78,-70 -117,-120 -52,18 -147,144 -336,91 -116,-32 -168,-128 -175,-264l651 -4c2,-149 1,-255 -63,-374 -148,-273 -658,-312 -770,132 -65,257 7,532 179,637 93,57 236,72 360,53 146,-22 196,-83 271,-151z"/>
  <path class="fil0" d="M237 394l526 0c130,0 237,107 237,237l0 529c0,130 -107,237 -237,237l-526 0c-130,0 -237,-107 -237,-237l0 -529c0,-130 107,-237 237,-237zm143 383l-237 1 0 237 238 4 0 234 238 -1 0 -234 238 0 0 -241 -238 0 0 -236 -235 -3 -4 239z"/>
 </g>
</svg>
