<?xml version="1.0" encoding="UTF-8"?>
<!DOCTYPE svg PUBLIC "-//W3C//DTD SVG 1.1//EN" "http://www.w3.org/Graphics/SVG/1.1/DTD/svg11.dtd">
<!-- Creator: CorelDRAW X8 -->
<svg xmlns="http://www.w3.org/2000/svg" xml:space="preserve" width="100%" height="100%" version="1.1" style="shape-rendering:geometricPrecision; text-rendering:geometricPrecision; image-rendering:optimizeQuality; fill-rule:evenodd; clip-rule:evenodd"
viewBox="0 0 11180 4988"
 xmlns:xlink="http://www.w3.org/1999/xlink">
 <defs>
  <style type="text/css">
   <![CDATA[
    .fil0 {fill:#FEFEFE}
   ]]>
  </style>
 </defs>
 <g id="Слой_x0020_1">
  <metadata id="CorelCorpID_0Corel-Layer"/>
  <path class="fil0" d="M1683 9c-302,34 -480,87 -716,208 -399,206 -710,575 -861,993 -90,249 -126,524 -95,814 44,415 239,818 523,1096 40,39 79,72 124,112 67,59 179,138 273,188 419,225 674,233 1161,233 2317,0 4633,0 6950,0 147,0 318,8 463,-6 371,-35 722,-172 989,-392 255,-209 465,-476 582,-811 265,-765 5,-1570 -553,-2019 -160,-129 -353,-255 -595,-331 -301,-95 -506,-91 -837,-91 -2316,0 -4633,0 -6949,0 -141,0 -325,-10 -459,6zm83 219c-1001,59 -1682,967 -1491,1923 96,484 395,829 708,1030 465,301 863,254 1482,254 2028,0 4056,0 6083,0 284,0 586,9 867,-3 470,-21 872,-249 1152,-581 260,-310 447,-802 336,-1342 -48,-230 -146,-447 -261,-604 -122,-168 -271,-317 -446,-427 -480,-301 -850,-253 -1483,-253l-6516 0c-140,0 -293,-6 -431,3z"/>
  <path class="fil0" d="M1781 561c-483,37 -806,297 -990,582 -229,354 -274,825 -73,1239 154,317 459,601 882,688 218,44 523,26 756,26l6669 0c126,0 268,6 391,-2 484,-32 807,-301 989,-581 229,-352 275,-831 73,-1242 -158,-322 -454,-593 -882,-686 -209,-45 -530,-26 -757,-26l-6670 0c-123,0 -268,-7 -388,2zm-472 655c12,30 41,17 54,77 7,37 9,753 2,807 -7,51 -22,60 -55,83l-1 263c59,6 383,1 471,1 138,0 318,12 440,-34 298,-113 242,-428 242,-709 0,-319 47,-621 -238,-714 -123,-40 -300,-29 -439,-29 -155,0 -320,-6 -474,0l-2 255zm1322 -13l880 1 1 -75 -881 -1 0 75zm6962 -254c-291,41 -203,378 84,337 288,-42 206,-378 -84,-337zm-196 652c59,27 50,107 50,185 0,79 0,158 0,236 0,209 -33,130 -49,188 -6,23 -1,197 -1,236l511 0 0 -243c-61,-52 -52,-71 -52,-175 0,-105 5,-610 -1,-671l-456 -3 -2 247zm-5849 456l-407 -2c-3,42 3,83 -13,120 -13,29 -49,50 -93,34 -66,-23 -48,-146 -48,-219l562 -1c4,-129 12,-376 -35,-478 -55,-119 -180,-163 -346,-176 -153,-12 -330,-7 -452,61 -126,70 -138,201 -138,385 1,398 -59,626 356,684 151,22 325,-6 456,-50 45,-15 152,-61 159,-97 6,-39 2,-214 -1,-261zm-561 -319l21 2 116 -1 23 0c0,-72 1,-151 -78,-152 -85,-1 -82,74 -82,151zm3366 -319l-2 -63 -439 -1 -3 246c60,42 51,94 51,185 0,79 0,158 0,236 0,34 2,80 -4,113 -10,50 -40,50 -46,75 -6,26 -1,195 -1,235l510 1 0 -243c-70,-42 -50,-148 -50,-252 0,-100 -2,-203 1,-303 197,-57 152,178 152,325 0,71 -11,443 30,473l427 0 0 -244c-50,-25 -49,-76 -48,-147 0,-128 13,-484 -25,-568 -84,-184 -317,-186 -485,-106 -26,13 -45,28 -68,38zm-1161 -84c-430,40 -361,301 -361,693 0,191 16,299 148,377 108,64 326,73 470,60 411,-38 355,-320 355,-695 -1,-183 -19,-304 -147,-377 -101,-58 -332,-71 -465,-58zm97 257c-51,18 -51,86 -49,145 1,66 0,132 0,198 0,90 -31,325 105,274 49,-18 49,-83 49,-143 0,-66 0,-131 0,-197 0,-92 33,-326 -105,-277zm-1646 587l0 267 1082 0 0 -720 -407 -1c-5,94 2,192 -1,286 -4,107 -52,130 -160,119 -9,-150 -1,-328 -1,-481 0,-80 0,-161 0,-241 0,-37 -3,-81 4,-116 10,-52 43,-57 46,-76l0 -255 -563 0 0 250c6,37 11,6 34,49 28,49 16,243 16,313 0,109 0,219 0,329 0,93 21,242 -50,277zm4583 -975c39,29 52,45 53,111 0,56 -1,113 -1,170 0,92 8,614 -6,661 -21,72 -44,-4 -44,129 0,57 0,114 0,171l510 0 -1 -243c-35,-29 -47,-40 -49,-99l0 -453c68,-41 138,10 149,71 13,67 -5,466 10,620 2,19 4,37 7,55 5,36 3,45 18,49l426 0 0 -243c-51,-36 -49,-72 -49,-142 1,-129 12,-479 -21,-565 -59,-156 -249,-189 -402,-150 -81,21 -113,47 -137,53 -9,-93 13,-377 -5,-438l-456 0 -2 243zm-570 1190c1,68 14,178 -32,218 -30,26 -121,44 -124,-103l-380 -1 0 255c25,33 158,78 207,90 91,24 174,32 272,32 532,0 466,-290 466,-731 0,-101 0,-201 0,-302 0,-98 -20,-213 50,-252l0 -245 -447 0 -2 59c-55,-24 -86,-68 -222,-80 -386,-36 -354,276 -354,551 0,198 -27,400 95,513 97,90 288,92 419,24 19,-10 32,-21 52,-28zm-156 -619l0 236c0,48 3,103 31,129 28,27 90,21 120,0 14,-33 7,-423 4,-492 -129,-48 -155,-9 -155,127zm-5669 356c111,16 163,-21 167,-126l0 -592c-5,-113 -51,-135 -165,-128l-2 846z"/>
  <path class="fil0" d="M3894 4681c-17,92 -63,166 -137,196 -117,49 -216,-13 -271,-19 -13,17 -32,81 -37,106 128,19 216,48 340,-11 183,-88 223,-310 292,-509l101 -301 -97 -1 -11 24c-42,-17 -64,-46 -155,-41 -111,5 -192,71 -256,148 -40,47 -51,59 -79,124 -39,95 -82,231 -3,310 41,41 97,45 168,35 68,-10 90,-40 145,-61zm4973 -647l119 1 33 -103 -115 -2 -37 104zm-4037 0l118 1 34 -103 -115 -2 -37 104zm-3027 -1l118 3 34 -104 -115 -2 -37 103zm935 1l24 2 71 0 23 -1 35 -104 -115 -1 -38 104zm-233 719c130,3 88,30 150,-144l159 -467c-133,0 -96,-26 -154,148l-104 308c-15,48 -40,108 -51,155zm-937 2l102 0 211 -612 -108 -1 -205 613zm3027 0c131,1 90,25 151,-145l107 -310c18,-50 41,-107 53,-156l-106 -2 -205 613zm4037 0l26 1 55 -1 22 -1 210 -611 -24 -1 -60 0 -23 1 -206 612zm-223 -613l-70 1 -24 82 69 1c-29,116 -90,238 -123,356 -74,262 223,177 236,164 17,-18 26,-59 31,-86 -54,10 -127,36 -165,-10 -17,-76 101,-337 122,-424l189 0 33 -83 -185 -1c-3,-34 47,-138 50,-180l-98 -1c-23,55 -40,138 -65,181zm-1304 612l96 1c21,-45 419,-572 434,-613l-102 1c-26,30 -59,83 -82,117 -24,33 -224,329 -248,346l-5 -461 -115 -3 22 612zm-5065 -2c122,4 75,26 200,-146 33,-45 317,-432 330,-463l-106 0c-11,29 -319,459 -327,464l-4 -462 -115 -3 22 610zm-1085 3l468 0c22,-14 32,-69 36,-96l-359 0c-1,-27 102,-311 119,-362l122 -361 -110 -1 -276 820zm2157 -553l17 -58 -99 -2 -213 611c129,4 96,34 155,-145l105 -307c32,-50 269,-138 270,-19 1,48 -76,255 -96,313 -17,49 -43,111 -53,160 114,1 100,14 120,-48l59 -172c26,-73 62,-158 75,-232 33,-188 -113,-205 -237,-154 -37,16 -74,43 -103,53zm2780 0l16 -59 -97 -1c-18,27 -134,378 -160,457 -18,51 -41,106 -53,155l106 1c21,-91 70,-210 101,-304 8,-26 42,-136 52,-151 14,-22 98,-59 132,-70 52,-16 136,-15 138,52 1,42 -31,124 -44,161 -19,53 -98,276 -105,312l102 0c18,-31 140,-396 150,-444 39,-194 -106,-214 -234,-162 -41,16 -71,41 -104,53zm-692 0l21 -59 -103 -1 -210 613c112,1 104,10 117,-31l142 -422c29,-47 270,-143 272,-20 0,47 -77,257 -97,315 -17,49 -41,109 -53,158l106 0c51,-213 298,-622 27,-631 -106,-3 -194,77 -222,78zm4710 3l18 -62c-126,-1 -89,-31 -151,145 -18,53 -34,101 -53,155 -18,53 -35,101 -54,155 -16,48 -41,109 -52,156l105 2 102 -305c7,-24 42,-138 52,-151 29,-44 273,-145 270,-13 -2,45 -78,255 -98,311 -17,50 -39,106 -52,156l103 1c25,-48 59,-168 79,-225 41,-120 173,-396 -46,-406 -94,-4 -161,49 -223,81zm-2190 50c23,-1 342,-109 321,47 -1,4 -5,20 -7,25 -26,60 -144,3 -293,69 -85,38 -141,78 -173,161 -38,99 -16,199 81,213 115,17 195,-47 256,-76l-17 57c28,10 65,4 95,4 16,-8 9,0 17,-23l74 -221c57,-167 189,-412 -144,-385 -58,4 -94,9 -146,22 -38,9 -43,26 -64,107zm274 179c-107,3 -261,17 -314,115 -68,125 70,175 223,80 47,-29 37,-25 57,-85 11,-33 27,-74 34,-110zm1332 -303c-262,52 -410,424 -320,566 40,64 134,88 235,69 154,-30 261,-161 313,-306 71,-201 17,-377 -228,-329zm13 83c-116,14 -183,110 -219,212 -44,122 -61,279 114,257 112,-14 172,-120 211,-217 46,-115 63,-271 -106,-252zm-2645 -88c-175,19 -283,151 -340,288 -79,192 -52,381 192,356 170,-17 282,-155 335,-290 73,-184 52,-379 -187,-354zm-20 88c-118,14 -182,112 -219,212 -43,119 -62,279 113,257 113,-14 172,-119 212,-217 47,-116 63,-272 -106,-252zm-2633 35c-43,-14 -88,-42 -166,-27 -170,33 -258,307 -215,385 40,72 162,36 227,5 31,-15 40,-17 51,-52 16,-51 100,-280 103,-311z"/>
 </g>
</svg>
