<?xml version="1.0" encoding="UTF-8"?>
<!DOCTYPE svg PUBLIC "-//W3C//DTD SVG 1.1//EN" "http://www.w3.org/Graphics/SVG/1.1/DTD/svg11.dtd">
<!-- Creator: CorelDRAW X8 -->
<svg xmlns="http://www.w3.org/2000/svg" xml:space="preserve" width="100%" height="100%" version="1.1" style="shape-rendering:geometricPrecision; text-rendering:geometricPrecision; image-rendering:optimizeQuality; fill-rule:evenodd; clip-rule:evenodd"
viewBox="0 0 4775 5729"
 xmlns:xlink="http://www.w3.org/1999/xlink">
 <defs>
  <style type="text/css">
   <![CDATA[
    .fil0 {fill:#F1F1F2}
   ]]>
  </style>
 </defs>
 <g id="Слой_x0020_1">
  <metadata id="CorelCorpID_0Corel-Layer"/>
  <path class="fil0" d="M1297 3606c-154,20 -265,61 -374,131 -456,292 -209,748 347,681 532,-63 807,-528 449,-740 -113,-67 -272,-92 -422,-72zm397 345c-225,61 -183,92 -524,158 -68,13 -269,12 -304,37 -80,57 -83,143 70,166 192,29 420,-27 584,-85 418,-149 285,-306 174,-276zm-246 -246c-194,17 -395,67 -543,146 -48,25 -189,106 -149,181 35,66 199,52 288,45 102,-7 193,-29 286,-52 73,-18 491,-147 403,-266 -43,-58 -201,-61 -285,-54z"/>
  <path class="fil0" d="M3602 3685c-482,67 -414,566 74,785 119,53 281,91 434,70 492,-67 393,-586 -77,-785 -126,-53 -275,-92 -431,-70zm-95 84c-51,9 -101,27 -84,89 27,101 229,100 379,158 85,32 176,67 250,107 98,53 175,126 237,120 135,-14 90,-114 4,-193 -54,-49 -142,-102 -219,-140 -127,-61 -397,-171 -567,-141zm-82 222c-151,24 -58,143 0,193 286,248 939,392 866,184 -41,-118 -440,-297 -566,-329 -65,-16 -240,-58 -300,-48z"/>
  <path class="fil0" d="M3033 1736c-250,53 -337,405 -270,697 53,231 241,544 502,492 339,-66 390,-697 111,-1034 -58,-71 -190,-187 -343,-155zm131 72c-101,28 -47,168 -22,239 48,134 47,122 75,265 20,99 36,198 35,304 0,56 -12,103 18,146 16,23 67,68 109,39 107,-75 61,-438 29,-572 -22,-92 -47,-172 -82,-252 -23,-53 -97,-187 -162,-169zm-229 55c-209,69 -5,1025 193,1002 36,-4 64,-56 71,-95 23,-124 -6,-348 -31,-468 -23,-114 -45,-163 -80,-260 -22,-57 -79,-203 -153,-179z"/>
  <path class="fil0" d="M1058 1307c-403,73 -731,584 -589,881 55,113 176,182 348,152 251,-43 472,-268 559,-462 152,-337 15,-632 -318,-571zm227 203c-44,13 -58,45 -95,93 -28,37 -49,73 -77,114 -60,88 -182,229 -264,297l-106 85c-39,28 -76,47 -80,111 -15,201 272,-6 337,-64 130,-116 255,-253 336,-415 44,-88 97,-265 -51,-221zm-179 -149c-206,50 -479,366 -576,555 -33,67 -110,271 57,224 59,-17 180,-117 223,-153 17,-15 32,-26 47,-42 20,-22 29,-32 47,-49 82,-76 292,-350 299,-458 5,-70 -31,-94 -97,-77z"/>
  <path class="fil0" d="M4775 85c-168,55 -324,158 -414,297 -60,93 -99,241 3,364 90,109 245,152 411,144l0 -111c-117,22 -234,29 -296,-4 -55,-29 -45,-72 -18,-111 30,-43 75,-51 121,-55 63,-5 128,-16 193,-33l0 -50c-140,37 -345,75 -402,14 -83,-89 146,-237 402,-328l0 -127z"/>
  <path class="fil0" d="M641 188c-135,-158 -401,-180 -641,-103l0 127c215,-77 449,-113 533,-42 141,118 -385,311 -426,325 -25,8 -63,20 -107,31l0 50c22,-6 45,-12 67,-19 98,-30 186,-60 280,-109 50,-26 91,-45 142,-66 67,-28 76,-29 124,4 83,59 -53,165 -118,206 -86,55 -188,100 -281,131 -61,21 -137,42 -214,56l0 111c247,-12 519,-138 641,-334 59,-94 107,-243 0,-368z"/>
  <path class="fil0" d="M1870 0c21,113 70,232 151,344 87,119 194,208 303,246 342,118 497,-237 393,-590l-130 0c39,94 68,190 80,275 10,69 15,212 -97,171 -86,-33 -85,-136 -113,-220 -26,-82 -58,-150 -95,-226l-48 0c62,123 105,259 135,376 13,48 23,81 12,125 -57,219 -361,-160 -479,-501l-112 0z"/>
  <path class="fil0" d="M2584 5465c-97,-129 -184,-202 -304,-246 -299,-111 -475,174 -410,510l112 0c-20,-58 -35,-116 -42,-169 -8,-59 -25,-218 79,-193 72,17 135,123 191,194 40,51 74,108 104,168l48 0c-8,-15 -15,-30 -23,-45 -46,-95 -198,-293 -198,-342 0,-62 43,-118 124,-68 72,44 132,123 186,202 51,75 98,163 136,253l130 0c-27,-91 -71,-182 -133,-264z"/>
 </g>
</svg>
