<?xml version="1.0" encoding="UTF-8"?>
<!DOCTYPE svg PUBLIC "-//W3C//DTD SVG 1.1//EN" "http://www.w3.org/Graphics/SVG/1.1/DTD/svg11.dtd">
<!-- Creator: CorelDRAW X8 -->
<svg xmlns="http://www.w3.org/2000/svg" xml:space="preserve" width="100%" height="100%" version="1.1" style="shape-rendering:geometricPrecision; text-rendering:geometricPrecision; image-rendering:optimizeQuality; fill-rule:evenodd; clip-rule:evenodd"
viewBox="0 0 4535 1769"
 xmlns:xlink="http://www.w3.org/1999/xlink">
 <defs>
  <style type="text/css">
   <![CDATA[
    .fil0 {fill:#151515}
    .fil1 {fill:#afb42b}
    .fil3 {fill:#151515;fill-rule:nonzero}
    .fil2 {fill:#afb42b;fill-rule:nonzero}
   ]]>
  </style>
 </defs>
 <g id="Слой_x0020_1">
  <metadata id="CorelCorpID_0Corel-Layer"/>
  <g id="_1668166403120">
   <g>
    <g>
     <path class="fil0" d="M66 0l1153 0c36,0 66,30 66,66l0 1117 -436 -325 299 182 0 -922 -1011 0 0 83 160 119c4,2 4,5 4,9 1,3 2,9 -1,9l-10 18c82,60 131,97 277,202l0 0 50 21c0,0 1,3 4,3l38 42c0,3 1,6 1,6l-19 25c-2,4 -5,4 -9,1l-51 -24c0,0 0,0 0,-3l-35 -42 0 0c-150,-111 -189,-140 -278,-206l-10 17c-3,4 -6,4 -12,5 -3,0 -6,1 -10,-2l-99 -73 0 0 -51 -38 -17 -12c0,-1 -1,-1 -1,-1l-68 -51 0 -160c0,-36 30,-66 66,-66zm71 228l0 22 115 86 11 -11 -126 -97zm0 49l0 22 94 68 11 -14 -105 -76zm412 -211l198 0 0 -9 -198 0 0 9zm289 -5c0,6 -5,12 -11,12 -6,0 -11,-6 -11,-12 0,-6 5,-11 11,-11 6,0 11,5 11,11zm-369 0c0,6 -5,12 -12,12 -6,0 -11,-6 -11,-12 0,-6 5,-11 11,-11 7,0 12,5 12,11z"/>
     <path class="fil1" d="M1167 1296l0 0 33 24 0 0 85 64 0 319c0,36 -30,66 -66,66l-1153 0c-36,0 -66,-30 -66,-66l0 -1276 436 324 -299 -181 0 1044 1011 0 0 -220 -37 -25 -192 -148 -36 -25c-41,21 -89,20 -126,-8 -36,-28 -53,-69 -48,-110l2 -12 90 68 56 -73 -90 -68 14 -6c38,-16 82,-11 115,14 37,27 54,76 42,122l33 24 0 0 196 149 0 0zm-522 388c0,1 -1,2 -3,2l0 0c-1,0 -2,-1 -2,-2l0 -23c0,-1 1,-2 2,-2l0 0c2,0 3,1 3,2l0 23zm-3 20c-5,0 -10,-2 -14,-6 -8,-8 -8,-20 0,-28 1,-2 3,-2 5,0 1,1 1,3 0,4 -6,5 -6,14 0,20 5,5 14,5 19,0 3,-3 4,-6 4,-10 0,-4 -1,-7 -4,-10 -1,-1 -1,-3 0,-4 1,-2 3,-2 4,0 4,3 6,9 6,14 0,5 -2,10 -6,14 -3,4 -9,6 -14,6zm37 -20c0,20 -17,36 -37,36 -20,0 -36,-16 -36,-36 0,-20 16,-37 36,-37 20,0 37,17 37,37z"/>
    </g>
    <path class="fil2" d="M1775 1380l0 235 -140 0 0 -596 262 0c48,0 87,5 116,16 29,12 54,32 73,62 19,30 29,64 29,101 0,72 -35,123 -104,154l110 263 -154 0 -92 -235 -100 0zm0 -254l0 152 86 0c28,0 48,-2 61,-6 13,-4 24,-13 34,-26 10,-14 15,-29 15,-47 0,-16 -5,-31 -15,-44 -10,-13 -21,-22 -33,-25 -11,-3 -33,-4 -65,-4l-83 0zm872 6l-283 0 0 122 222 0 0 112 -222 0 0 131 283 0 0 118 -425 0 0 -596 425 0 0 113zm226 261l0 222 -142 0 0 -596 235 0c52,0 92,5 120,16 28,12 52,32 74,60 22,29 33,64 33,106 0,30 -6,58 -17,86 -12,28 -28,50 -50,66 -21,16 -41,27 -61,32 -20,5 -51,8 -94,8l-98 0zm-4 -108l90 0c35,0 59,-8 73,-24 14,-16 21,-35 21,-55 0,-24 -8,-44 -24,-58 -15,-14 -39,-21 -70,-21l-90 0 0 158zm659 -266l185 596 -150 0 -36 -124 -192 0 -38 124 -122 0 190 -596 163 0zm-160 362l126 0 -62 -208 -64 208zm549 -362l0 596 -139 0 0 -596 139 0zm260 361l0 235 -141 0 0 -596 262 0c48,0 87,5 116,16 30,12 54,32 73,62 20,30 29,64 29,101 0,72 -35,123 -104,154l110 263 -154 0 -91 -235 -100 0zm0 -254l0 152 85 0c28,0 49,-2 61,-6 13,-4 24,-13 34,-26 10,-14 15,-29 15,-47 0,-16 -5,-31 -15,-44 -10,-13 -20,-22 -32,-25 -12,-3 -34,-4 -66,-4l-82 0z"/>
   </g>
   <path class="fil3" d="M1635 153l417 0c7,0 13,6 13,13l0 15c0,7 -6,13 -13,13l-188 0 0 525c0,7 -6,13 -13,13l-15 0c-7,0 -13,-6 -13,-13l0 -525 -188 0c-7,0 -13,-6 -13,-13l0 -15c0,-7 6,-13 13,-13zm563 0l15 0c5,0 10,3 12,8l222 552c0,2 1,4 1,6 0,7 -6,13 -13,13l-18 0c-5,0 -10,-3 -12,-9l-70 -174 -263 0 -71 173c-1,6 -6,10 -12,10l-18 0 0 0c-2,0 -3,-1 -5,-1 -7,-3 -10,-11 -7,-17l227 -552c2,-5 6,-9 12,-9zm-110 356l232 0 -115 -291 -117 291zm368 210l0 -553c0,-7 6,-13 13,-13l221 0c51,0 101,11 136,39 30,24 50,60 50,111 0,37 -14,70 -37,95 -12,13 -26,24 -43,32 21,8 41,20 57,36 24,24 40,58 40,103 0,46 -18,82 -45,109 -30,29 -73,47 -118,50 -10,1 -23,2 -35,3 -11,0 -21,1 -29,1l-197 0c-7,0 -13,-6 -13,-13zm226 -526l-184 0 0 219 160 0 0 0 9 0c36,1 75,1 107,-14l1 -1c19,-9 33,-22 43,-38 10,-16 16,-35 16,-56 0,-38 -15,-64 -37,-81 -29,-22 -72,-29 -115,-29zm9 260l-193 0 0 238 182 0c83,0 171,-25 171,-124 0,-39 -16,-66 -39,-84 -31,-22 -76,-30 -121,-30zm285 238l311 0c7,0 13,6 13,13l0 15c0,7 -6,13 -13,13l-340 0c-8,0 -13,-6 -13,-13l0 -553c0,-7 5,-13 13,-13l16 0c7,0 13,6 13,13l0 525zm340 -538l778 0c7,0 13,6 13,13l0 15c0,7 -6,13 -13,13l-188 0 0 525c0,7 -6,13 -13,13l-16 0c-7,0 -13,-6 -13,-13l0 -525 -520 0 0 216 319 0c7,0 13,6 13,13l0 15c0,7 -6,13 -13,13l-319 0 0 240 343 0c7,0 13,6 13,13l0 15c0,7 -6,13 -13,13l-371 0c-7,0 -13,-6 -13,-13l0 -553c0,-7 6,-13 13,-13zm1149 35c35,29 57,72 59,132l0 1c0,7 -5,13 -13,13l-16 0 0 0c-7,0 -12,-5 -13,-12 -1,-48 -18,-82 -45,-104 -30,-25 -75,-35 -128,-35 -50,0 -89,11 -115,31 -25,19 -39,47 -39,82 0,84 87,102 158,117 10,2 19,4 28,6l18 4c86,19 176,38 176,154 0,52 -20,93 -58,122 -37,28 -90,43 -156,43 -64,0 -122,-16 -163,-51l-1 -1c-37,-32 -60,-80 -60,-144l0 -11c0,-7 6,-12 13,-12l16 0c7,0 13,5 13,12l0 3c0,53 16,95 46,123 30,28 76,42 135,42 56,0 100,-12 130,-34 28,-21 44,-53 44,-92 0,-83 -75,-99 -142,-114 -8,-1 -16,-3 -26,-6l-1 0c-10,-2 -16,-3 -22,-5 -87,-19 -190,-42 -190,-157 0,-48 19,-87 54,-113 33,-26 82,-41 141,-41 63,0 117,15 157,47z"/>
  </g>
 </g>
</svg>
