<?xml version="1.0" encoding="UTF-8"?>
<!DOCTYPE svg PUBLIC "-//W3C//DTD SVG 1.1//EN" "http://www.w3.org/Graphics/SVG/1.1/DTD/svg11.dtd">
<!-- Creator: CorelDRAW X8 -->
<svg xmlns="http://www.w3.org/2000/svg" xml:space="preserve" width="100%" height="100%" version="1.1" style="shape-rendering:geometricPrecision; text-rendering:geometricPrecision; image-rendering:optimizeQuality; fill-rule:evenodd; clip-rule:evenodd"
viewBox="0 0 23875 3494"
 xmlns:xlink="http://www.w3.org/1999/xlink">
 <defs>
  <style type="text/css">
   <![CDATA[
    .fil0 {fill:#eba74a}
    .fil1 {fill:#fff;fill-rule:nonzero}
   ]]>
  </style>
 </defs>
 <g id="Слой_x0020_1">
  <metadata id="CorelCorpID_0Corel-Layer"/>
  <g id="_1558792277376">
   <path class="fil0" d="M362 2080c114,-28 154,-139 340,-79 157,51 125,135 218,225 104,-33 210,-32 297,44 110,93 108,153 105,328 235,77 239,90 292,348 101,41 154,25 228,106 82,89 55,143 80,268l80 23c348,32 832,-240 1030,-580 242,-414 240,-933 -40,-1322 -34,-47 -39,-64 -83,-114 -647,-743 -379,-533 -834,-414 -213,56 -570,39 -572,-195 -3,-221 322,-393 346,-517 -128,-174 -648,-224 -888,-170 -322,72 -545,234 -699,427 -159,199 -280,500 -260,849 19,317 188,633 360,773zm1232 1002c-266,64 -266,483 32,401 64,-18 178,-141 177,-234 -2,-114 -95,-195 -209,-167zm-373 -333c-55,38 -202,180 -219,270 -31,158 125,268 264,190 51,-29 203,-203 218,-268 38,-166 -139,-280 -263,-192zm-686 -631c-47,21 -218,206 -239,264 -56,160 84,293 233,232 47,-19 214,-201 239,-264 63,-156 -84,-298 -233,-232zm437 220c-91,40 -228,220 -300,311 -142,177 31,382 212,284 20,-11 270,-293 288,-318 107,-151 -20,-358 -200,-277zm2265 -1448c-71,47 -192,44 -288,37 -93,-7 -191,-62 -263,-61 18,162 640,505 637,1278 0,104 -33,199 -2,260 76,-40 416,-469 476,-569 643,-1075 -628,-2384 -1770,-1593 -82,57 -564,453 -309,564 175,77 475,-14 623,-123 274,-202 86,-70 466,103 132,61 268,98 430,104zm-920 1573c14,-334 -313,-713 -632,-875 -156,-80 -335,-175 -471,-279 -244,-190 -311,-311 -384,-373 -42,164 129,447 198,541 253,340 677,397 1099,792 148,139 101,175 190,194zm-1498 -1936l-70 -4c-113,227 -56,601 57,820 121,236 289,399 504,530 343,207 831,398 959,824 19,61 7,175 76,186 145,24 257,-874 -496,-1335 -283,-173 -840,-418 -974,-807 -26,-74 -22,-152 -56,-214z"/>
   <path class="fil1" d="M5127 562l-304 306 0 1763 304 305 783 0 305 -305 0 -403 -397 0 0 310 -597 0 0 -1578 597 0 0 311 397 0 0 -403 -305 -306 -783 0zm2276 1976l-567 0 0 -1578 567 0 0 1578zm-660 -1976l-305 306 0 1763 305 305 753 0 305 -305 0 -1763 -305 -306 -753 0zm1833 1385l518 0 0 -397 -518 0 0 -591 401 0 0 312 395 0 0 -711 -1349 0 0 399 147 0 0 1580 -147 0 0 397 708 0 0 -397 -155 0 0 -592zm1572 0l518 0 0 -397 -518 0 0 -591 401 0 0 312 395 0 0 -711 -1349 0 0 399 147 0 0 1580 -147 0 0 397 708 0 0 -397 -155 0 0 -592zm1572 591l0 -591 519 0 0 -397 -519 0 0 -591 401 0 0 312 396 0 0 -711 -1349 0 0 399 147 0 0 1580 -147 0 0 397 1349 0 0 -708 -396 0 0 310 -401 0zm1573 0l0 -591 518 0 0 -397 -518 0 0 -591 401 0 0 312 395 0 0 -711 -1349 0 0 399 147 0 0 1580 -147 0 0 397 1349 0 0 -708 -395 0 0 310 -401 0zm2508 -938l-491 0 0 -640 491 0 0 640zm0 939l-155 0 0 397 708 0 0 -397 -155 0 0 -682 -110 -105 110 -109 0 -775 -306 -311 -1135 0 0 402 147 0 0 1580 -147 0 0 397 707 0 0 -397 -155 0 0 -542 491 0 0 542zm1328 -1l0 -591 518 0 0 -397 -518 0 0 -591 401 0 0 312 395 0 0 -711 -1349 0 0 399 147 0 0 1580 -147 0 0 397 1349 0 0 -708 -395 0 0 310 -401 0zm1019 -1978l0 399 155 0 0 1580 -155 0 0 397 708 0 0 -397 -155 0 0 -542 586 0 304 -305 0 -826 -304 -306 -1139 0zm1045 1040l-492 0 0 -641 492 0 0 641zm933 713l-50 226 107 0 0 397 -651 0 0 -397 149 0 462 -1979 404 0 438 1979 141 0 0 397 -651 0 0 -397 113 0 -50 -226 -412 0zm324 -395l-117 -521 -117 521 234 0zm1054 -959l-155 0 0 -397 708 0 0 397 -155 0 0 1580 155 0 0 397 -708 0 0 -397 155 0 0 -1580zm1818 641l-490 0 0 -640 490 0 0 640zm0 939l-154 0 0 397 707 0 0 -397 -154 0 0 -682 -111 -105 111 -109 0 -775 -307 -311 -1135 0 0 402 147 0 0 1580 -147 0 0 397 708 0 0 -397 -155 0 0 -542 490 0 0 542z"/>
  </g>
 </g>
</svg>
