<?xml version="1.0" encoding="UTF-8"?>
<!DOCTYPE svg PUBLIC "-//W3C//DTD SVG 1.1//EN" "http://www.w3.org/Graphics/SVG/1.1/DTD/svg11.dtd">
<!-- Creator: CorelDRAW X8 -->
<svg xmlns="http://www.w3.org/2000/svg" xml:space="preserve" width="100%" height="100%" version="1.1" style="shape-rendering:geometricPrecision; text-rendering:geometricPrecision; image-rendering:optimizeQuality; fill-rule:evenodd; clip-rule:evenodd"
viewBox="0 0 23875 3848"
 xmlns:xlink="http://www.w3.org/1999/xlink">
 <defs>
  <style type="text/css">
   <![CDATA[
    .fil0 {fill:#040707}
    .fil1 {fill:#CBAB82}
    .fil2 {fill:#040707;fill-rule:nonzero}
   ]]>
  </style>
 </defs>
 <g id="Слой_x0020_1">
  <metadata id="CorelCorpID_0Corel-Layer"/>
  <g id="_1593401781152">
   <path class="fil0" d="M2138 1801l-509 1483 1151 -1366c471,149 786,416 786,721 0,468 -738,846 -1648,846 -910,0 -1648,-378 -1648,-846 0,-467 738,-846 1648,-846 74,0 148,3 220,8z"/>
   <path class="fil1" d="M1477 3848l-1304 0c-95,0 -173,-78 -173,-173l0 -628c229,400 787,707 1477,801zm-1304 -3848l1671 0 -286 864c-707,94 -1258,431 -1391,854 343,-295 930,-490 1596,-490 15,0 31,0 46,0l298 -923 459 0 -317 923 632 0 -192 268 -245 341 -83 116 34 -124 104 -373c-182,-33 -375,-50 -575,-50 -891,0 -1647,347 -1924,830l0 -2063c0,-95 78,-173 173,-173zm2895 0l607 0c95,0 173,78 173,173l0 2063c-149,-259 -436,-480 -807,-628l629 -746 -928 0 326 -862zm780 3047l0 628c0,95 -78,173 -173,173l-1304 0c690,-94 1248,-401 1477,-801z"/>
   <path class="fil2" d="M5745 954l0 1030 292 0c38,0 58,-21 58,-62l0 -906c0,-41 -20,-62 -58,-62l-292 0zm939 1248c0,66 -23,126 -68,181 -46,55 -112,83 -200,83l313 951 -618 0 -288 -951 -78 0 0 951 -598 0 0 -2986 1133 0c140,0 242,35 307,105 64,70 97,164 97,282l0 1384zm255 -1771l1161 0 103 556 -650 0 0 708 494 0 0 515 -494 0 0 651 626 0 -103 556 -1137 0 0 -2986zm2063 523l0 1174 297 0c25,0 41,-5 47,-15 7,-9 11,-25 11,-47l0 -1054c0,-39 -18,-58 -54,-58l-301 0zm581 -523c118,0 207,33 266,99 59,66 88,154 88,263l0 1430c0,57 -6,110 -18,158 -12,48 -35,90 -68,126 -33,35 -77,64 -132,84 -55,21 -123,31 -206,31l-511 0 0 795 -593 0 0 -2986 1174 0zm1046 2615l-53 371 -601 0 539 -2986 638 0 540 2986 -601 0 -54 -371 -408 0zm66 -473l276 0 -136 -1059 -140 1059zm1162 -2142l597 0 0 2986 -597 0 0 -2986zm1441 523l0 1030 293 0c38,0 57,-21 57,-62l0 -906c0,-41 -19,-62 -57,-62l-293 0zm939 1248c0,66 -22,126 -68,181 -45,55 -111,83 -199,83l313 951 -618 0 -288 -951 -79 0 0 951 -597 0 0 -2986 1133 0c140,0 242,35 307,105 64,70 96,164 96,282l0 1384zm1236 1215c-173,0 -294,-36 -362,-107 -69,-71 -103,-190 -103,-354l0 -2159c0,-118 33,-208 100,-271 68,-63 151,-95 250,-95l786 0 103 556 -572 0c-36,0 -54,19 -54,58l0 1758c0,39 18,58 54,58l572 0 -107 556 -667 0zm1627 -2463c-36,0 -54,19 -54,58l0 1820c0,22 4,38 11,48 7,9 22,14 47,14l227 0c24,0 40,-5 47,-14 7,-10 10,-26 10,-48l0 -1820c0,-39 -18,-58 -53,-58l-235 0zm894 2039c0,57 -7,112 -21,162 -14,51 -37,96 -70,134 -33,39 -77,70 -132,93 -55,23 -123,35 -206,35l-692 0c-82,0 -151,-12 -206,-35 -54,-23 -98,-54 -131,-93 -33,-38 -57,-83 -70,-134 -14,-50 -21,-105 -21,-162l0 -2175c0,-118 32,-212 97,-282 64,-70 167,-105 307,-105l741 0c140,0 242,35 307,105 64,70 97,164 97,282l0 2175zm247 -2562l1161 0 103 556 -651 0 0 708 495 0 0 515 -495 0 0 1207 -613 0 0 -2986zm1450 0l1161 0 103 556 -651 0 0 708 495 0 0 515 -495 0 0 1207 -613 0 0 -2986zm1449 0l1162 0 103 556 -651 0 0 708 494 0 0 515 -494 0 0 651 626 0 -103 556 -1137 0 0 -2986zm1471 0l1161 0 103 556 -651 0 0 708 495 0 0 515 -495 0 0 651 626 0 -102 556 -1137 0 0 -2986z"/>
  </g>
 </g>
</svg>
