<?xml version="1.0" encoding="UTF-8"?>
<!DOCTYPE svg PUBLIC "-//W3C//DTD SVG 1.1//EN" "http://www.w3.org/Graphics/SVG/1.1/DTD/svg11.dtd">
<!-- Creator: CorelDRAW X8 -->
<svg xmlns="http://www.w3.org/2000/svg" xml:space="preserve" width="100%" height="100%" version="1.1" style="shape-rendering:geometricPrecision; text-rendering:geometricPrecision; image-rendering:optimizeQuality; fill-rule:evenodd; clip-rule:evenodd"
viewBox="0 0 21000 21000"
 xmlns:xlink="http://www.w3.org/1999/xlink">
 <defs>
  <style type="text/css">
   <![CDATA[
    .fil0 {fill:none}
    .fil1 {fill:#FEFEFE}
   ]]>
  </style>
 </defs>
 <g id="Слой_x0020_1">
  <metadata id="CorelCorpID_0Corel-Layer"/>
  <rect class="fil0" width="21000" height="21000"/>
  <g id="_2215708659312">
   <g>
    <path class="fil1" d="M15556 387l-10112 0c-522,0 -949,427 -949,948l0 18330c0,521 427,948 949,948l10112 0c522,0 949,-427 949,-948l0 -18330c0,-521 -427,-948 -949,-948zm633 19278c0,348 -284,632 -633,632l-10112 0c-349,0 -633,-284 -633,-632l0 -18330c0,-348 284,-632 633,-632l10112 0c349,0 633,284 633,632l0 18330z"/>
    <path class="fil1" d="M10500 10816c-2094,0 -3792,1698 -3792,3792 0,2095 1698,3793 3792,3793 2094,0 3792,-1698 3792,-3793 0,-2094 -1698,-3792 -3792,-3792zm0 7269c-1917,0 -3476,-1560 -3476,-3477 0,-1917 1559,-3476 3476,-3476 1917,0 3476,1559 3476,3476 0,1917 -1559,3477 -3476,3477z"/>
    <path class="fil1" d="M10500 13344c-698,0 -1264,566 -1264,1264 0,698 566,1264 1264,1264 698,0 1264,-566 1264,-1264 0,-698 -566,-1264 -1264,-1264zm0 2370c-610,0 -1106,-496 -1106,-1106 0,-610 496,-1106 1106,-1106 610,0 1106,496 1106,1106 0,610 -496,1106 -1106,1106z"/>
    <path class="fil1" d="M14924 1335l-8848 0c-348,0 -632,285 -632,632l0 6321c0,347 284,632 632,632l8848 0c348,0 632,-285 632,-632l0 -6321c0,-347 -284,-632 -632,-632zm474 6953c0,261 -212,474 -474,474l-8848 0c-262,0 -474,-213 -474,-474l0 -6321c0,-261 212,-474 474,-474l8848 0c262,0 474,213 474,474l0 6321z"/>
   </g>
   <g>
   </g>
   <g>
   </g>
   <g>
   </g>
   <g>
   </g>
   <g>
   </g>
   <g>
   </g>
   <g>
   </g>
   <g>
   </g>
   <g>
   </g>
   <g>
   </g>
   <g>
   </g>
   <g>
   </g>
   <g>
   </g>
   <g>
   </g>
   <g>
   </g>
  </g>
 </g>
</svg>
