<?xml version="1.0" encoding="UTF-8"?>
<!DOCTYPE svg PUBLIC "-//W3C//DTD SVG 1.1//EN" "http://www.w3.org/Graphics/SVG/1.1/DTD/svg11.dtd">
<!-- Creator: CorelDRAW X8 -->
<svg xmlns="http://www.w3.org/2000/svg" xml:space="preserve" width="100%" height="100%" version="1.1" style="shape-rendering:geometricPrecision; text-rendering:geometricPrecision; image-rendering:optimizeQuality; fill-rule:evenodd; clip-rule:evenodd"
viewBox="0 0 21000 21000"
 xmlns:xlink="http://www.w3.org/1999/xlink">
 <defs>
  <style type="text/css">
   <![CDATA[
    .fil0 {fill:none}
    .fil1 {fill:#FEFEFE}
   ]]>
  </style>
 </defs>
 <g id="Слой_x0020_1">
  <metadata id="CorelCorpID_0Corel-Layer"/>
  <rect class="fil0" width="21000" height="21000"/>
  <g id="_2215704142960">
   <g>
    <path class="fil1" d="M17070 20846l-13140 0c-433,0 -785,-352 -785,-785l0 -19122c0,-432 352,-785 785,-785l13140 0c433,0 785,352 785,785l0 19122c0,433 -352,785 -785,785zm-13140 -20495c-324,0 -589,264 -589,588l0 19122c0,325 264,589 589,589l13140 -1c325,0 589,-263 589,-588l0 -19122c0,-324 -264,-588 -589,-588l-13140 0zm6570 19988c-342,0 -621,-279 -621,-621 0,-343 278,-621 621,-621 343,0 621,278 621,621 0,342 -279,621 -621,621zm0 -1046c-234,0 -425,190 -425,425 0,234 191,425 425,425 234,0 425,-191 425,-425 0,-235 -191,-425 -425,-425zm6472 -556l-12973 0 0 -16670 12973 0 0 16670zm-12777 -196l12581 0 0 -16278 -12581 0 0 16278zm6714 -17095l-818 0c-108,0 -196,-88 -196,-196 0,-109 88,-197 196,-197l818 0c108,0 196,88 196,197 0,108 -88,196 -196,196z"/>
   </g>
   <g>
   </g>
   <g>
   </g>
   <g>
   </g>
   <g>
   </g>
   <g>
   </g>
   <g>
   </g>
   <g>
   </g>
   <g>
   </g>
   <g>
   </g>
   <g>
   </g>
   <g>
   </g>
   <g>
   </g>
   <g>
   </g>
   <g>
   </g>
   <g>
   </g>
  </g>
 </g>
</svg>
