<?xml version="1.0" encoding="UTF-8"?>
<!DOCTYPE svg PUBLIC "-//W3C//DTD SVG 1.1//EN" "http://www.w3.org/Graphics/SVG/1.1/DTD/svg11.dtd">
<!-- Creator: CorelDRAW X8 -->
<svg xmlns="http://www.w3.org/2000/svg" xml:space="preserve" width="100%" height="100%" version="1.1" style="shape-rendering:geometricPrecision; text-rendering:geometricPrecision; image-rendering:optimizeQuality; fill-rule:evenodd; clip-rule:evenodd"
viewBox="0 0 21000 21000"
 xmlns:xlink="http://www.w3.org/1999/xlink">
 <defs>
  <style type="text/css">
   <![CDATA[
    .fil0 {fill:none}
    .fil1 {fill:#FEFEFE}
   ]]>
  </style>
 </defs>
 <g id="Слой_x0020_1">
  <metadata id="CorelCorpID_0Corel-Layer"/>
  <rect class="fil0" width="21000" height="21000"/>
  <g id="_2215708654864">
   <path id="Apple-Watch" class="fil1" d="M15523 14713c0,1072 -872,1944 -1944,1944l-6482 0c-1072,0 -1944,-872 -1944,-1944l0 -8426c0,-1072 872,-1944 1944,-1944l6482 0c1072,0 1944,872 1944,1944l0 8426zm-1944 3565l0 1199c0,641 -204,699 -1291,888 -23,3 -52,8 -102,17 -238,40 -963,164 -1848,164 -425,0 -1097,-29 -1887,-170 -23,-4 -39,-7 -53,-9 -1120,-220 -1301,-299 -1301,-890l0 -1199c0,-404 -35,-865 -230,-1251l6950 0c-205,403 -238,875 -238,1251l0 0zm-6482 -15556l0 -1199c0,-591 181,-670 1301,-890 14,-2 30,-5 53,-9 790,-141 1462,-170 1887,-170 885,0 1610,124 1848,164 50,9 79,14 102,17 1086,189 1291,246 1291,888l0 1199c0,376 33,848 238,1251l-6950 0c195,-386 230,-846 230,-1251l0 0zm8960 6158c63,0 114,-52 114,-115l0 -1715c0,-63 -51,-115 -114,-115l-210 0 0 -648c0,-970 -618,-1801 -1479,-2123 -340,-300 -465,-792 -465,-1442l0 -1199c0,-939 -520,-1027 -1573,-1210 -46,0 -893,-183 -1992,-183 -1099,0 -1969,183 -1992,183 -1053,206 -1573,317 -1573,1210l0 1199c0,647 -108,1137 -454,1438 -867,319 -1490,1153 -1490,2127l0 8426c0,974 623,1808 1490,2127 346,301 454,791 454,1438l0 1199c0,893 520,1004 1573,1210 23,0 893,183 1992,183 1099,0 1946,-183 1992,-183 1053,-183 1573,-271 1573,-1210l0 -1199c0,-650 125,-1142 465,-1442 861,-322 1479,-1153 1479,-2123l0 -1296 162 0c90,0 162,-73 162,-162l0 -2269c0,-89 -72,-162 -162,-162l-162 0 0 -1944 210 0zm-1020 5833c0,804 -654,1458 -1458,1458l-6482 0c-804,0 -1458,-654 -1458,-1458l0 -8426c0,-804 654,-1458 1458,-1458l6482 0c804,0 1458,654 1458,1458l0 8426zm-1458 -10046l-6482 0c-895,0 -1620,725 -1620,1620l0 8426c0,895 725,1620 1620,1620l6482 0c895,0 1620,-725 1620,-1620l0 -8426c0,-895 -725,-1620 -1620,-1620l0 0z"/>
   <g>
   </g>
   <g>
   </g>
   <g>
   </g>
   <g>
   </g>
   <g>
   </g>
   <g>
   </g>
   <g>
   </g>
   <g>
   </g>
   <g>
   </g>
   <g>
   </g>
   <g>
   </g>
   <g>
   </g>
   <g>
   </g>
   <g>
   </g>
   <g>
   </g>
  </g>
 </g>
</svg>
