<?xml version="1.0" encoding="UTF-8"?>
<!DOCTYPE svg PUBLIC "-//W3C//DTD SVG 1.1//EN" "http://www.w3.org/Graphics/SVG/1.1/DTD/svg11.dtd">
<!-- Creator: CorelDRAW X8 -->
<svg xmlns="http://www.w3.org/2000/svg" xml:space="preserve" width="100%" height="100%" version="1.1" style="shape-rendering:geometricPrecision; text-rendering:geometricPrecision; image-rendering:optimizeQuality; fill-rule:evenodd; clip-rule:evenodd"
viewBox="0 0 3254 3254"
 xmlns:xlink="http://www.w3.org/1999/xlink">
 <defs>
  <style type="text/css">
   <![CDATA[
    .fil0 {fill:#90BF00}
   ]]>
  </style>
 </defs>
 <g id="Слой_x0020_1">
  <metadata id="CorelCorpID_0Corel-Layer"/>
  <path class="fil0" d="M3209 440l-476 477 -312 -83 -84 -313 477 -476c-244,-93 -530,-42 -727,155 -201,201 -250,495 -149,742l-1194 1194c-197,-62 -420,-15 -577,141 -164,164 -207,404 -130,608l400 -399 261 70 70 261 -399 400c204,77 444,34 608,-130 157,-156 203,-380 141,-577l1194 -1194c247,102 542,52 742,-149 197,-196 248,-483 155,-727z"/>
 </g>
</svg>
