<?xml version="1.0" encoding="UTF-8"?>
<!DOCTYPE svg PUBLIC "-//W3C//DTD SVG 1.1//EN" "http://www.w3.org/Graphics/SVG/1.1/DTD/svg11.dtd">
<!-- Creator: CorelDRAW X8 -->
<svg xmlns="http://www.w3.org/2000/svg" xml:space="preserve" width="100%" height="100%" version="1.1" style="shape-rendering:geometricPrecision; text-rendering:geometricPrecision; image-rendering:optimizeQuality; fill-rule:evenodd; clip-rule:evenodd"
viewBox="0 0 21000 21000"
 xmlns:xlink="http://www.w3.org/1999/xlink">
 <defs>
  <style type="text/css">
   <![CDATA[
    .fil0 {fill:none}
    .fil1 {fill:#FEFEFE}
   ]]>
  </style>
 </defs>
 <g id="Слой_x0020_1">
  <metadata id="CorelCorpID_0Corel-Layer"/>
  <rect class="fil0" width="21000" height="21000"/>
  <g id="_2215706940016">
   <g>
    <path class="fil1" d="M18925 15360l0 -10044c0,-535 -438,-972 -973,-972l-14904 0c-535,0 -973,437 -973,972l0 10044 -1944 0 0 648c0,357 292,648 648,648l19442 0c356,0 648,-291 648,-648l0 -648 -1944 0zm-16525 -10044c0,-358 290,-648 648,-648l14904 0c358,0 648,290 648,648l0 10044 -16200 0 0 -10044zm18145 10692c0,179 -146,324 -324,324l-19442 0c-178,0 -324,-145 -324,-324l0 -324 1621 0 7128 0c0,179 146,324 324,324l1944 0c178,0 324,-145 324,-324l7129 0 1620 0 0 324z"/>
    <path class="fil1" d="M17790 4992l-14580 0c-269,0 -486,217 -486,486l0 9072c0,269 217,486 486,486l14580 0c269,0 486,-217 486,-486l0 -9072c0,-269 -217,-486 -486,-486zm324 9558c0,179 -145,324 -324,324l-14580 0c-179,0 -324,-145 -324,-324l0 -9072c0,-179 145,-324 324,-324l14580 0c179,0 324,145 324,324l0 9072z"/>
   </g>
   <g>
   </g>
   <g>
   </g>
   <g>
   </g>
   <g>
   </g>
   <g>
   </g>
   <g>
   </g>
   <g>
   </g>
   <g>
   </g>
   <g>
   </g>
   <g>
   </g>
   <g>
   </g>
   <g>
   </g>
   <g>
   </g>
   <g>
   </g>
   <g>
   </g>
  </g>
 </g>
</svg>
