<?xml version="1.0" encoding="UTF-8"?>
<!DOCTYPE svg PUBLIC "-//W3C//DTD SVG 1.1//EN" "http://www.w3.org/Graphics/SVG/1.1/DTD/svg11.dtd">
<!-- Creator: CorelDRAW X8 -->
<svg xmlns="http://www.w3.org/2000/svg" xml:space="preserve" width="100%" height="100%" version="1.1" style="shape-rendering:geometricPrecision; text-rendering:geometricPrecision; image-rendering:optimizeQuality; fill-rule:evenodd; clip-rule:evenodd"
viewBox="0 0 6584 8929"
 xmlns:xlink="http://www.w3.org/1999/xlink">
 <defs>
  <style type="text/css">
   <![CDATA[
    .fil0 {fill:#9AC516}
   ]]>
  </style>
 </defs>
 <g id="Слой_x0020_1">
  <metadata id="CorelCorpID_0Corel-Layer"/>
  <path class="fil0" d="M5220 696c-556,-453 -1224,-696 -1928,-696 -887,0 -1717,388 -2341,1092 -1268,1431 -1268,3761 0,5191l2341 2646 2342 -2646c1166,-1318 1260,-3397 277,-4835l-371 436c759,1230 654,2938 -316,4034l-1932 2182 -1930 -2182c-1090,-1230 -1090,-3231 0,-4462 517,-584 1203,-907 1930,-907 570,0 1114,199 1573,564l355 -417 0 0zm-1928 953c-908,0 -1647,738 -1647,1647 0,908 739,1648 1647,1648 909,0 1649,-740 1649,-1648 0,-909 -740,-1647 -1649,-1647zm0 2745c-606,0 -1098,-492 -1098,-1098 0,-607 492,-1098 1098,-1098 607,0 1098,491 1098,1098 0,606 -491,1098 -1098,1098z"/>
 </g>
</svg>
