<?xml version="1.0" encoding="UTF-8"?>
<!DOCTYPE svg PUBLIC "-//W3C//DTD SVG 1.1//EN" "http://www.w3.org/Graphics/SVG/1.1/DTD/svg11.dtd">
<!-- Creator: CorelDRAW X8 -->
<svg xmlns="http://www.w3.org/2000/svg" xml:space="preserve" width="100%" height="100%" version="1.1" style="shape-rendering:geometricPrecision; text-rendering:geometricPrecision; image-rendering:optimizeQuality; fill-rule:evenodd; clip-rule:evenodd"
viewBox="0 0 900 900"
 xmlns:xlink="http://www.w3.org/1999/xlink">
 <defs>
  <style type="text/css">
   <![CDATA[
    .fil0 {fill:#9AC516;fill-rule:nonzero}
   ]]>
  </style>
 </defs>
 <g id="Слой_x0020_1">
  <metadata id="CorelCorpID_0Corel-Layer"/>
  <path class="fil0" d="M828 13c16,-16 43,-16 59,0 17,17 17,44 0,60l-377 377 377 378c16,16 16,43 -1,59 -16,17 -43,17 -59,0l-377 -377 -378 377c-17,16 -43,16 -60,-1 -16,-16 -16,-43 0,-59l378 -377 -377 -378c-16,-17 -16,-43 0,-60 17,-16 44,-16 60,0l377 378 378 -377z"/>
 </g>
</svg>
