<?xml version="1.0" encoding="UTF-8"?>
<!DOCTYPE svg PUBLIC "-//W3C//DTD SVG 1.1//EN" "http://www.w3.org/Graphics/SVG/1.1/DTD/svg11.dtd">
<!-- Creator: CorelDRAW X8 -->
<svg xmlns="http://www.w3.org/2000/svg" xml:space="preserve" width="100%" height="100%" version="1.1" style="shape-rendering:geometricPrecision; text-rendering:geometricPrecision; image-rendering:optimizeQuality; fill-rule:evenodd; clip-rule:evenodd"
viewBox="0 0 17218 6356"
 xmlns:xlink="http://www.w3.org/1999/xlink">
 <defs>
  <style type="text/css">
   <![CDATA[
    .fil1 {fill:#FEFEFE;fill-rule:nonzero}
    .fil0 {fill:#9DA2B6;fill-rule:nonzero}
   ]]>
  </style>
 </defs>
 <g id="Слой_x0020_1">
  <metadata id="CorelCorpID_0Corel-Layer"/>
  <path class="fil0" d="M1582 1825l-319 -263c64,-64 128,-128 192,-192l276 298c18,-17 35,-33 53,-49l-264 -292c64,-64 149,-129 214,-193l0 0 232 341c18,-13 35,-24 53,-36l-221 -326c85,-64 150,-107 235,-150l179 363c22,-12 45,-23 68,-34l-183 -372c86,-21 193,-64 278,-85l1 0 119 370c22,-8 43,-14 65,-21l-120 -371c85,-43 171,-64 278,-85l0 0 67 401c21,-4 42,-8 63,-11l-66 -390c86,-22 193,-22 278,-22l0 0 11 390c21,-1 43,-1 64,-2l-10 -388c107,0 192,0 299,0l-50 398c24,2 48,5 71,8l43 -384c86,0 193,21 278,42l1 0 -99 385c22,5 43,11 65,17l98 -380c85,21 192,64 278,85l0 0 -160 369c23,9 46,19 68,29l156 -355c86,22 171,65 257,129l0 0 -207 332c16,9 32,19 47,29l203 -340c85,64 171,107 235,171l0 0 -248 302c20,16 40,33 59,49l253 -308c65,64 129,128 193,193l0 0 -287 265c16,18 33,35 49,54l281 -255 0 0c64,64 128,128 192,214l-328 224c14,20 28,40 41,60l330 -220c43,64 86,150 129,235l-350 173c12,22 23,45 33,68l359 -176c43,85 65,171 107,256l0 0 -382 128c9,26 18,52 26,79l378 -121 0 0c21,86 43,171 64,257l-392 72c5,25 9,51 13,77l379 -64c21,86 43,172 43,279l0 0 -401 11c1,21 2,43 2,64l399 -11c0,107 0,193 -22,278l-387 -44c-2,27 -5,54 -9,80l396 50c-21,85 -42,171 -64,278l0 0 -375 -103c-5,20 -10,41 -16,61l391 106c-43,86 -64,171 -107,278l-362 -159c-7,16 -14,33 -21,49l362 153c-43,107 -86,193 -129,257l0 0 -339 -203c-12,22 -25,43 -39,64l336 203c-43,86 -107,171 -150,235l-314 -257c-16,20 -32,40 -49,59l320 263c-64,64 -128,128 -214,192l0 0 -263 -290c-16,15 -32,29 -48,43l268 290c-64,64 -150,128 -214,193l0 0 -233 -341c-21,15 -42,29 -63,43l232 340c-86,43 -171,86 -257,129l-172 -355c-18,9 -36,18 -54,26l183 372c-107,42 -192,64 -278,107l0 0 -124 -390c-21,7 -43,14 -65,20l125 391c-86,21 -193,43 -278,64l0 0 -68 -401c-22,4 -44,8 -66,11l70 412c-107,0 -193,21 -279,21l0 0 -11 -411c-28,1 -57,2 -86,2l12 409c-86,0 -193,0 -278,0l46 -420c-22,-2 -44,-4 -65,-7l-46 406c-107,0 -192,-22 -299,-43l0 0 110 -408c-21,-6 -43,-11 -65,-17l-109 403c-86,-21 -172,-64 -257,-85l0 0 162 -389c-23,-9 -45,-18 -68,-28l-158 374c-86,-43 -172,-86 -257,-128l0 0 210 -352c-22,-13 -43,-26 -64,-39l-210 348c-86,-43 -150,-86 -236,-150l267 -325c-20,-16 -39,-32 -59,-49l-272 331c-64,-64 -128,-128 -193,-214l0 0 302 -273c-15,-15 -29,-31 -44,-48l-300 278 0 0c-65,-64 -129,-149 -193,-214l353 -241c-15,-21 -30,-42 -44,-63l-352 240c-43,-85 -85,-171 -128,-257l369 -176c-12,-22 -23,-45 -34,-68l-378 180c-43,-85 -64,-171 -107,-256l0 -1 403 -128c-8,-21 -14,-43 -21,-64l-404 128 1 0c-22,-107 -43,-192 -65,-278l414 -70c-4,-22 -8,-45 -12,-68l-402 74c-21,-107 -21,-193 -42,-300l421 -11c-1,-22 -1,-43 -1,-65l-420 12c0,-107 0,-193 21,-278l408 45c2,-26 5,-52 9,-79l-417 -52c21,-85 43,-171 64,-278l0 0 395 107c6,-21 11,-42 17,-64l-390 -107c21,-86 42,-171 85,-278l380 167c9,-22 18,-43 28,-64l-386 -168c42,-85 85,-171 128,-235l0 0 355 212c13,-22 26,-44 40,-66l-352 -210c64,-86 107,-171 171,-236l0 0 314 258c15,-20 32,-40 48,-59zm-362 -755l0 0 -278 -171 -86 107 -85 107 171 257c-86,107 -171,235 -257,363l-300 -64 -64 107 -64 129 257 192c-65,150 -107,278 -150,428l-321 22 0 128 -22 150 279 107c0,150 0,299 0,449l-300 107 21 129 22 149 321 22c21,150 64,278 128,428l-257 192 65 129 64 107 299 -64c65,128 150,256 257,363l-192 279 85 85 107 107 278 -150c107,107 214,193 343,279l-107 299 128 64 107 65 214 -214c150,64 278,107 428,149l0 321 129 43 128 22 150 -279c128,22 278,43 428,43l85 300 150 -22 129 0 42 -321c150,-21 300,-42 450,-85l171 257 128 -43 129 -43 -43 -321c128,-64 257,-128 385,-214l236 193 107 -86 107 -86 -129 -278 0 0c107,-107 214,-214 300,-321l299 107 86 -107 64 -107 -214 -235c86,-129 150,-257 193,-407l321 22 43 -129 42 -128 -278 -150c43,-150 64,-300 64,-449l322 -65 0 -128 0 -128 -322 -86c0,-150 -21,-300 -42,-428l257 -171 -22 -129 -43 -128 -321 21c-42,-128 -107,-278 -192,-406l214 -236 -65 -107 -85 -107 -300 107c-43,-64 -85,-107 -128,-171 -64,-43 -107,-107 -150,-150l128 -299 -107 -64 -107 -86 -256 193c-107,-86 -236,-172 -364,-236l43 -321 -129 -43 -128 -42 -171 256c-150,-42 -300,-85 -428,-107l-65 -321 -128 0 -128 -21 -107 321c-150,0 -300,0 -428,21l-150 -278 -129 22 -128 21 0 321c-150,43 -278,107 -428,171l-214 -235 -107 64 -128 64 85 300c-107,85 -214,171 -342,278l0 0z"/>
  <path class="fil1" d="M7829 2795l217 0 0 56 -749 0 0 -56 217 0 0 -1735 -217 0 0 -53 763 0c38,0 77,0 118,1 42,1 84,3 127,7 131,9 252,41 362,96 110,54 165,157 165,307 0,116 -46,216 -137,300 -91,83 -238,133 -441,150l0 12c214,33 350,92 406,174 56,83 96,226 118,431 2,15 4,30 6,45 2,15 4,31 5,48 2,9 4,19 5,30 1,10 1,20 1,29 6,36 15,69 27,99 12,30 32,45 60,45 10,0 19,-2 29,-5 9,-2 18,-7 28,-12 9,-6 19,-12 29,-20 11,-7 20,-15 30,-22 7,-6 14,-12 21,-19 6,-6 12,-12 15,-18l43 45c-53,71 -105,114 -157,128 -51,14 -99,21 -142,21 -112,0 -192,-27 -238,-81 -46,-55 -78,-168 -97,-341 -28,-270 -68,-430 -120,-479 -51,-49 -140,-73 -266,-73l-228 0 0 890zm-3466 -736c-212,154 -449,440 -712,554 -200,195 -429,429 -375,481 64,83 1030,-848 1087,-1035zm-349 288c83,-112 173,-186 300,-317 -105,27 -549,443 -651,567 82,-35 229,-151 351,-250zm-1261 422c2,-3 8,0 13,6l217 258c4,5 7,11 4,14 -3,2 -8,-1 -13,-7l-217 -257c-5,-6 -7,-12 -4,-14zm44 -38c6,-5 13,-3 18,3l217 257c5,6 5,13 0,18 -6,5 -13,3 -18,-3l-217 -257c-5,-6 -5,-13 0,-18zm45 -38c3,-2 8,1 13,7l217 257c5,6 7,12 4,14 -3,3 -8,0 -13,-6l-217 -258c-5,-5 -7,-11 -4,-14zm-350 -288l202 240 -26 24 21 25 13 -10 35 41c-11,21 -14,42 -5,59 1,2 1,2 2,3l238 283 0 0 1 1c21,25 66,22 101,-7 34,-29 45,-73 24,-98l-2 -2 -233 -277c-2,-2 -5,-6 -7,-9 -14,-11 -32,-11 -53,-6l-37 -42 11 -9 -21 -26 -30 25 -204 -243 5 -29 -68 -47 -32 26 33 77 32 1zm675 678c53,0 96,42 96,95 0,53 -43,95 -96,95 -52,0 -95,-42 -95,-95 0,-53 43,-95 95,-95zm-1201 95l0 0c0,57 -47,104 -104,104l-496 0c-57,0 -104,-47 -104,-104l0 0c0,-57 47,-104 104,-104l496 0c57,0 104,47 104,104zm3106 0l0 0c0,57 -46,104 -103,104l-497 0c-57,0 -103,-47 -103,-104l0 0c0,-57 46,-104 103,-104l497 0c57,0 103,47 103,104zm-1905 1201l0 0c57,0 104,47 104,104l0 496c0,57 -47,104 -104,104l0 0c-57,0 -103,-47 -103,-104l0 -496c0,-57 46,-104 103,-104zm0 -3106l0 0c57,0 104,47 104,104l0 496c0,57 -47,104 -104,104l0 0c-57,0 -103,-47 -103,-104l0 -496c0,-57 46,-104 103,-104zm4662 576l197 0c115,0 219,-26 311,-76 93,-51 140,-170 140,-358 0,-139 -37,-233 -110,-282 -73,-49 -181,-73 -324,-73l-214 0 0 789zm1605 946l0 -1735 -217 0 0 -53 1389 0 31 532 -68 0c-20,-150 -67,-268 -139,-352 -73,-85 -181,-127 -325,-127l-355 0 0 777 101 0c17,0 34,0 52,-1 18,-1 37,-4 58,-10 43,-13 83,-43 121,-89 38,-46 62,-125 73,-238l57 0 0 738 -57 0c0,-4 0,-8 -1,-12 -1,-5 -3,-9 -4,-13 -21,-120 -49,-203 -84,-249 -34,-46 -100,-69 -198,-69l-118 0 0 901 402 0c19,0 38,-1 58,-3 20,-2 40,-5 61,-8 75,-15 147,-58 215,-129 69,-70 119,-196 151,-378l67 0 -59 574 -1428 0 0 -56 217 0zm1693 0l0 -1735 -217 0 0 -53 811 0c39,0 87,2 144,8 56,6 114,18 174,37 100,30 192,84 276,162 85,77 127,195 127,353 0,137 -49,263 -147,379 -97,115 -290,173 -577,173l-276 0 0 676 217 0 0 56 -749 0 0 -56 217 0zm315 -730l194 0c137,0 237,-24 299,-73 62,-49 103,-103 124,-163 9,-26 16,-53 20,-80 3,-28 6,-52 8,-72 0,-17 0,-34 0,-51 0,-17 0,-35 0,-53 0,-6 0,-12 0,-17 0,-6 0,-12 0,-17 0,-11 0,-23 0,-34 0,-11 0,-23 0,-34 0,-20 -1,-48 -4,-81 -3,-34 -11,-69 -24,-105 -21,-56 -63,-108 -125,-155 -63,-46 -162,-70 -298,-70l-194 0 0 1005zm2332 730l-209 -569 -551 0 -102 251c-4,7 -7,16 -11,25 -4,9 -8,19 -11,28 -8,17 -15,37 -22,59 -6,23 -9,47 -9,73 0,38 10,68 31,92 20,23 70,37 149,41l0 56 -479 0 0 -56c51,-4 94,-22 131,-54 37,-32 64,-66 83,-104 4,-6 7,-11 10,-17 3,-5 5,-11 7,-17l622 -1596 51 0 642 1788 192 0 0 56 -775 0 0 -56 251 0zm-228 -625l-242 -699 -276 699 518 0zm1087 625l0 -1735 -217 0 0 -53 749 0 0 53 -217 0 0 1735 217 0 0 56 -749 0 0 -56 217 0zm1301 0l217 0 0 56 -749 0 0 -56 216 0 0 -1735 -216 0 0 -53 763 0c37,0 77,0 118,1 41,1 83,3 127,7 131,9 252,41 362,96 109,54 164,157 164,307 0,116 -45,216 -136,300 -91,83 -238,133 -441,150l0 12c214,33 349,92 405,174 57,83 96,226 119,431 2,15 4,30 5,45 2,15 4,31 6,48 2,9 3,19 4,30 1,10 2,20 2,29 5,36 14,69 26,99 13,30 33,45 61,45 9,0 19,-2 28,-5 10,-2 19,-7 28,-12 10,-6 20,-12 30,-20 10,-7 20,-15 29,-22 8,-6 15,-12 22,-19 6,-6 11,-12 15,-18l42 45c-52,71 -104,114 -156,128 -52,14 -99,21 -142,21 -113,0 -192,-27 -238,-81 -46,-55 -79,-168 -97,-341 -29,-270 -68,-430 -120,-479 -52,-49 -140,-73 -266,-73l-228 0 0 890zm0 -946l197 0c114,0 218,-26 311,-76 93,-51 139,-170 139,-358 0,-139 -36,-233 -109,-282 -74,-49 -182,-73 -324,-73l-214 0 0 789zm-8716 1625l701 0 0 53 -208 0 481 1293 344 -884 -149 -409 -195 0 0 -53 747 0 0 53 -214 0 487 1313 366 -916c17,-41 29,-75 37,-102 7,-28 11,-51 11,-69 0,-89 -27,-148 -82,-179 -54,-31 -122,-47 -203,-47l0 -53 640 0 0 53c-79,6 -138,33 -178,82 -39,49 -75,111 -107,186 -5,13 -11,27 -17,43 -5,16 -12,33 -19,50l-586 1461 -504 -1315 -521 1315 -682 -1822 -149 0 0 -53zm4016 1788l-209 -569 -552 0 -101 251c-4,7 -7,16 -11,25 -4,9 -8,19 -11,28 -8,17 -15,37 -22,59 -6,23 -9,47 -9,74 0,37 10,68 31,91 20,24 70,37 149,41l0 56 -479 0 0 -56c51,-4 94,-22 131,-54 37,-31 64,-66 83,-104 4,-5 7,-11 10,-17 3,-5 5,-11 7,-17l622 -1596 51 0 642 1788 192 0 0 56 -775 0 0 -56 251 0zm-228 -625l-243 -699 -276 699 519 0zm1487 625l0 -1735c-207,-3 -352,36 -437,120 -84,83 -137,219 -158,407l-79 0 15 -580 1633 0 14 580 -79 0c-22,-212 -78,-353 -166,-423 -88,-69 -231,-104 -428,-104l0 1735 217 0 0 56 -749 0 0 -56 217 0zm2565 -558l68 0 -23 614 -73 0c0,-5 -1,-13 -3,-22 -2,-10 -5,-19 -8,-28 -6,-17 -15,-32 -27,-44 -12,-12 -30,-18 -52,-18 -19,0 -38,4 -58,12 -20,9 -40,20 -61,33 -9,5 -20,12 -33,19 -14,8 -29,15 -48,23 -32,13 -71,25 -117,37 -46,11 -99,16 -159,16 -207,0 -383,-77 -528,-230 -146,-154 -227,-354 -244,-600 0,-15 0,-30 -1,-45 -1,-15 -2,-30 -2,-45 0,-15 1,-30 2,-45 1,-15 1,-31 1,-46 17,-249 101,-460 251,-633 150,-173 342,-259 577,-259 47,0 89,4 127,14 37,9 71,19 101,28 30,11 57,22 82,31 24,9 46,14 65,14 7,0 16,0 25,-1 9,-1 20,-5 31,-10 11,-6 22,-14 31,-26 9,-11 18,-28 25,-50l68 0 5 600 -61 0c-19,-164 -63,-296 -131,-396 -69,-100 -186,-151 -351,-151 -26,0 -55,3 -86,9 -31,5 -63,16 -97,31 -77,34 -147,102 -211,204 -64,102 -96,260 -96,474l0 457c0,172 29,303 86,391 57,88 121,149 190,183 39,21 77,34 114,41 37,6 68,10 94,10 17,0 35,-1 52,-3 18,-2 37,-5 55,-9 87,-22 169,-76 248,-163 79,-86 136,-225 172,-417zm797 -343l0 901 197 0 0 56 -729 0 0 -56 217 0 0 -1735 -217 0 0 -53 729 0 0 53 -197 0 0 778 831 0 0 -778 -197 0 0 -53 729 0 0 53 -217 0 0 1735 217 0 0 56 -729 0 0 -56 197 0 0 -901 -831 0z"/>
 </g>
</svg>
