<?xml version="1.0" encoding="UTF-8"?>
<!DOCTYPE svg PUBLIC "-//W3C//DTD SVG 1.1//EN" "http://www.w3.org/Graphics/SVG/1.1/DTD/svg11.dtd">
<!-- Creator: CorelDRAW X8 -->
<svg xmlns="http://www.w3.org/2000/svg" xml:space="preserve" width="100%" height="100%" version="1.1" style="shape-rendering:geometricPrecision; text-rendering:geometricPrecision; image-rendering:optimizeQuality; fill-rule:evenodd; clip-rule:evenodd"
viewBox="0 0 6228 4422"
 xmlns:xlink="http://www.w3.org/1999/xlink">
 <defs>
  <style type="text/css">
   <![CDATA[
    .fil2 {fill:none}
    .fil10 {fill:#FEFEFE}
    .fil7 {fill:#008CC7}
    .fil4 {fill:#1F2772}
    .fil5 {fill:#22419E}
    .fil1 {fill:#5A0B67}
    .fil3 {fill:#93D3EC}
    .fil9 {fill:#A44DC0}
    .fil8 {fill:#B737A8}
    .fil6 {fill:#CF92DF}
    .fil0 {fill:#D1C6F0}
    .fil12 {fill:#FEFEFE;fill-rule:nonzero}
    .fil16 {fill:#008CC7;fill-rule:nonzero}
    .fil17 {fill:#151515;fill-rule:nonzero}
    .fil13 {fill:#22419E;fill-rule:nonzero}
    .fil11 {fill:#5A0B67;fill-rule:nonzero}
    .fil15 {fill:#93D4EA;fill-rule:nonzero}
    .fil14 {fill:#B737A8;fill-rule:nonzero}
   ]]>
  </style>
        <clipPath id="id0">
         <path d="M3184 21l1402 0c184,0 334,150 334,334l0 2804c0,184 -150,335 -334,335l-1402 0 0 -3473z"/>
        </clipPath>
        <clipPath id="id1">
         <path d="M1782 21l1402 0 0 3473 -1402 0c-184,0 -335,-151 -335,-335l0 -2804c0,-184 151,-334 335,-334z"/>
        </clipPath>
 </defs>
 <g id="Слой_x0020_1">
  <metadata id="CorelCorpID_0Corel-Layer"/>
  <g id="_1667966944544">
   <g>
    <g>
     <g>
      <g>
       <path class="fil0" d="M3184 21l1402 0c184,0 334,150 334,334l0 2804c0,184 -150,335 -334,335l-1402 0 0 -3473z"/>
       <g style="clip-path:url(#id0)">
        <g>
         <rect class="fil1" x="3003" y="2469" width="2580" height="1614"/>
        </g>
       </g>
       <path class="fil2" d="M3184 21l1402 0c184,0 334,150 334,334l0 2804c0,184 -150,335 -334,335l-1402 0 0 -3473z"/>
       <path class="fil3" d="M1782 21l1402 0 0 3473 -1402 0c-184,0 -335,-151 -335,-335l0 -2804c0,-184 151,-334 335,-334z"/>
       <g style="clip-path:url(#id1)">
        <g>
         <rect class="fil4" x="533" y="2111" width="2814" height="2083"/>
        </g>
       </g>
       <path class="fil2" d="M1782 21l1402 0 0 3473 -1402 0c-184,0 -335,-151 -335,-335l0 -2804c0,-184 151,-334 335,-334z"/>
      </g>
      <polygon class="fil5" points="1447,2128 1985,2128 1985,1504 1878,1504 1878,1314 1150,1314 1150,1938 1447,1938 "/>
      <g>
       <rect class="fil6" x="3322" y="716" width="1766" height="466"/>
       <rect class="fil7" x="1279" y="722" width="1900" height="906"/>
       <rect class="fil7" x="1279" y="2128" width="1675" height="614"/>
      </g>
      <path class="fil1" d="M3045 586l139 0 0 2353 -139 0c-567,0 -1031,-465 -1031,-1032l0 -289c0,-568 464,-1032 1031,-1032z"/>
      <path class="fil8" d="M3184 614l75 0c567,0 1031,464 1031,1031l0 290c0,567 -464,1031 -1031,1031l-75 0 0 -2352z"/>
      <rect class="fil1" x="4800" y="1780" width="438" height="710"/>
      <polygon class="fil9" points="5088,1971 4073,1971 4073,2211 3581,2211 3581,1971 3188,1971 3188,2906 5088,2906 "/>
      <rect class="fil8" x="3835" y="1181" width="1086" height="798"/>
      <path class="fil10" d="M3170 954c0,0 0,0 0,0 445,0 806,359 806,803 0,157 -45,303 -122,426 242,-178 454,-537 319,-903 -144,-387 -561,-630 -1003,-630 -611,0 -1107,492 -1111,1101 0,2 0,4 0,6 17,763 645,1107 1111,1107 466,0 710,-128 911,-277 96,-74 155,20 99,71 -160,154 -448,370 -1010,370 -562,0 -1279,-463 -1275,-1271 0,-2 0,-4 0,-7 3,-699 573,-1264 1275,-1264 490,0 915,276 1129,680 2,5 5,12 7,17 230,797 -372,1378 -1136,1378 -445,0 -806,-360 -806,-804 0,-444 361,-803 806,-803z"/>
      <path class="fil10" d="M3184 236c240,0 463,65 652,155l27 145c-184,-109 -427,-184 -679,-184l0 0 0 0c-252,0 -496,75 -680,184l28 -145c188,-90 412,-155 652,-155z"/>
      <path class="fil10" d="M3184 0c207,0 400,25 562,103l24 125c-159,-94 -369,-115 -586,-115l0 0 0 0c-218,0 -428,21 -587,115l24 -125c162,-78 355,-103 563,-103z"/>
      <path class="fil10" d="M3184 3278c240,0 463,-65 652,-154l27 -146c-184,109 -427,184 -679,184l0 0 0 0c-252,0 -496,-75 -680,-184l28 146c188,89 412,154 652,154z"/>
      <path class="fil10" d="M3184 3515c207,0 400,-26 562,-103l24 -126c-159,94 -369,115 -586,115l0 0 0 0c-218,0 -428,-21 -587,-115l24 126c162,77 355,103 563,103z"/>
      <polygon class="fil1" points="3187,1778 3754,1400 3191,1971 2793,1544 "/>
      <path class="fil6" d="M4183 985c7,-88 175,-113 204,-60 1,3 34,139 63,256l-162 0c-24,-59 -68,-146 -105,-196z"/>
      <path class="fil8" d="M4450 1181c22,88 40,164 41,167 17,58 -156,-49 -148,7 -14,-60 -33,-118 -55,-174l162 0z"/>
     </g>
     <path class="fil11" d="M5161 1328c6,0 11,6 9,12l-4 19c-1,4 -5,7 -9,7 -13,1 -27,5 -39,13 -31,19 -44,57 -33,90 1,4 -1,9 -4,11l-17 10c-5,4 -12,1 -14,-5 -19,-50 0,-109 48,-139 19,-12 41,-18 63,-18zm54 13c18,10 33,24 45,42 12,20 18,41 18,63 0,6 -6,11 -12,10l-19 -5c-4,-1 -7,-4 -7,-9 -1,-13 -5,-26 -12,-38 -7,-12 -17,-20 -27,-26 -4,-3 -6,-7 -5,-11l5 -19c1,-6 8,-10 14,-7zm14 145c2,-3 6,-5 10,-4l19 4c6,1 10,8 7,14 -10,18 -24,34 -42,45 -46,29 -105,22 -143,-13 -4,-5 -4,-12 2,-16l16 -10c4,-2 9,-2 12,1 25,21 63,24 93,6 11,-7 19,-16 26,-27zm-123 -6c-18,-30 -9,-70 20,-88 30,-19 70,-10 89,20 18,30 9,69 -21,88 -29,19 -69,10 -88,-20zm-15 -157l-13 -8 2 15c1,5 -5,10 -10,8l-14 -6 4 15c2,5 -3,10 -9,9l-15 -3 8 14c2,5 -1,11 -7,11l-15 0 9 12c4,4 1,11 -5,12l-15 2 12 10c4,4 3,11 -2,13l-15 5 14 8c4,3 4,10 0,13l-13 8 14 5c5,2 7,9 2,13l-11 10 15 2c6,1 8,8 5,12l-10 12 16 0c5,0 9,6 6,11l-6 14 15 -4c5,-1 10,4 8,10l-4 15 14 -6c5,-2 11,2 10,7l-1 16 13 -9c4,-3 11,0 11,6l1 15 12 -10c4,-4 10,-2 12,3l4 15 9 -13c3,-4 10,-3 13,2l6 13 7 -14c2,-5 9,-5 13,-1l9 13 4 -15c1,-6 8,-8 12,-4l11 11 1 -16c1,-5 7,-8 12,-5l13 8 -2 -16c-1,-5 5,-9 10,-7l14 5 -4 -14c-2,-6 3,-11 8,-10l15 3 -7 -13c-2,-5 1,-11 7,-11l15 0 -9 -12c-4,-5 -1,-11 4,-12l15 -3 -11 -10c-4,-4 -3,-11 2,-13l15 -5 -14 -8c-4,-3 -5,-10 0,-13l13 -8 -14 -5c-5,-2 -7,-9 -2,-12l11 -11 -15 -2c-6,-1 -8,-8 -5,-12l9 -12 -15 0c-5,0 -9,-6 -7,-11l7 -13 -15 3c-5,1 -10,-4 -8,-10l4 -14 -14 6c-5,2 -11,-3 -10,-8l1 -15 -13 8c-5,3 -11,0 -11,-6l-2 -15 -11 11c-4,4 -10,2 -12,-4l-4 -15 -9 13c-3,4 -10,4 -13,-1l-6 -14 -7 14c-2,5 -9,6 -13,1l-9 -12 -4 15c-1,5 -8,7 -12,3l-11 -10 -1 15c-1,6 -7,9 -12,6z"/>
     <path class="fil12" d="M1474 807c2,1 4,3 5,4 7,5 13,10 19,16 -6,2 -12,4 -17,8 -7,-7 -15,-12 -23,-17 5,-4 10,-8 16,-11zm38 -12c1,2 2,4 3,6 5,6 8,14 11,21 -6,0 -12,0 -18,1 -4,-8 -9,-17 -15,-24 6,-2 12,-3 19,-4zm40 3c2,10 3,21 3,31 -5,-3 -11,-5 -17,-6 0,-10 -2,-19 -4,-29 6,1 12,2 18,4zm36 18c-2,10 -5,20 -9,29 -4,-4 -9,-8 -14,-11 3,-9 6,-19 7,-28 6,3 11,6 16,10zm27 32c-6,8 -13,16 -20,23 -2,-5 -5,-11 -8,-16 6,-7 12,-15 17,-23 4,5 8,10 11,16zm-56 105c-31,19 -71,10 -90,-21 -20,-30 -10,-70 20,-90 31,-19 71,-10 90,21 19,31 10,71 -20,90zm64 -86c2,6 3,12 4,18 -9,6 -18,11 -27,15 0,-6 -1,-12 -2,-18 9,-4 17,-9 25,-15zm4 41c0,6 -2,12 -3,18 -11,2 -21,4 -31,3 2,-5 4,-11 5,-17 10,0 20,-2 29,-4zm-11 38c-3,5 -7,11 -11,16 -10,-2 -20,-5 -29,-9 4,-4 8,-9 12,-14 9,3 18,6 28,7zm-26 32c-5,4 -11,7 -16,10 -9,-5 -17,-12 -24,-19 6,-2 11,-5 17,-9 6,7 14,13 23,18zm-54 23c-6,-9 -11,-18 -14,-28 6,1 12,0 18,-1 4,9 9,17 15,25 -7,2 -13,3 -19,4zm-41 -4c-2,-10 -3,-20 -3,-30 6,2 12,4 18,5 0,10 2,19 4,29 -6,-1 -12,-2 -19,-4zm-35 -18c2,-10 5,-20 9,-29 4,4 9,8 14,11 -3,10 -6,19 -7,29 -6,-3 -11,-7 -16,-11zm-27 -31c6,-9 12,-17 20,-24 2,6 5,11 8,16 -6,7 -12,15 -17,24 -4,-5 -8,-11 -11,-16zm-8 -19c-2,-6 -3,-13 -4,-19 9,-6 18,-11 27,-15 0,6 0,13 2,19 -9,4 -17,9 -25,15zm-4 -41c0,-7 2,-13 3,-19 10,-2 21,-3 31,-3 -3,6 -5,12 -6,18 -9,0 -19,1 -28,4zm11 -38c3,-6 6,-11 10,-16 10,2 20,5 30,9 -5,4 -9,9 -12,14 -9,-4 -18,-6 -28,-7zm34 -54l-10 -7 1 12c1,5 -4,9 -8,7l-12 -5 3 12c2,5 -2,9 -7,8l-12 -2 6 11c2,4 -1,9 -6,9l-13 0 8 10c3,4 1,9 -3,10l-13 2 10 9c3,3 2,8 -2,10l-12 5 11 6c4,2 4,8 0,11l-11 6 12 5c4,1 5,7 2,10l-10 9 13 2c5,0 7,6 4,10l-8 10 13 -1c5,0 8,5 6,9l-6 12 12 -3c5,-1 9,4 7,8l-3 12 12 -5c4,-1 9,2 8,7l-1 12 11 -6c3,-3 9,0 9,4l1 13 9 -9c4,-3 9,-2 11,3l3 12 8 -10c2,-4 8,-3 10,1l6 11 5 -11c2,-4 8,-5 11,-1l7 10 4 -12c1,-5 6,-7 10,-3l9 8 1 -12c0,-5 6,-8 10,-5l10 7 -1 -13c-1,-5 4,-8 8,-6l12 4 -4 -12c-1,-4 3,-9 8,-8l12 3 -6 -12c-2,-4 1,-9 6,-9l12 0 -7 -10c-3,-3 -1,-9 3,-10l13 -2 -10 -8c-3,-3 -2,-9 2,-11l12 -4 -11 -7c-4,-2 -4,-8 0,-10l11 -7 -12 -4c-4,-2 -6,-8 -2,-11l9 -8 -12 -2c-5,-1 -7,-7 -4,-10l8 -10 -13 0c-5,0 -8,-5 -6,-9l6 -11 -12 2c-5,1 -9,-3 -8,-8l4 -12 -12 5c-4,2 -9,-2 -8,-6l1 -13 -11 7c-4,2 -9,0 -9,-5l-1 -12 -10 8c-3,3 -9,2 -10,-3l-3 -12 -8 10c-2,4 -8,4 -10,0l-6 -12 -5 12c-2,4 -8,4 -11,1l-7 -11 -4 13c-1,4 -6,6 -10,3l-9 -9 -1 13c-1,4 -6,7 -10,5z"/>
     <path class="fil12" d="M1418 1099l7 11c3,5 2,12 -2,16l-11 14c-2,5 -9,8 -15,6l-12 -3c-6,-1 -8,-6 -6,-11l26 -34c4,-4 10,-4 13,1zm16 -18l41 -6c5,0 9,4 8,10l-3 12c-1,6 -7,10 -13,10l-15 2c-6,2 -13,-1 -16,-6l-7 -11c-3,-4 -1,-10 5,-11zm73 2l33 23c4,4 3,10 -2,13l-10 7c-5,3 -12,2 -17,-2l-11 -9c-5,-2 -9,-9 -7,-15l3 -12c1,-6 6,-8 11,-5zm-14 69c-4,-5 -9,-9 -15,-11l4 -19c11,3 20,10 27,20l-16 10zm25 28l-19 -5c1,-6 0,-12 -3,-18l16 -10c6,10 8,22 6,33zm27 -50c5,-3 11,-1 12,5l8 39c0,6 -5,10 -10,8l-13 -3c-5,-1 -10,-6 -10,-12l-3 -15c-2,-5 1,-12 6,-15l10 -7zm7 65c6,2 8,7 6,12l-24 34c-3,4 -9,4 -12,-1l-7 -11c-3,-5 -2,-12 1,-16l9 -13c3,-6 9,-9 15,-7l12 2zm-45 65l-42 8c-6,0 -10,-5 -8,-10l3 -13c1,-5 6,-10 12,-10l17 -4c5,-2 12,1 15,6l7 10c3,5 1,11 -4,13zm-75 1l-36 -25c-4,-4 -3,-10 2,-13l10 -7c5,-3 12,-2 17,2l14 10c6,3 9,9 7,15l-2 12c-2,6 -7,8 -12,6zm11 -71c4,6 9,9 15,11l-4 19c-11,-3 -21,-10 -27,-20l16 -10zm16 31l5 -19c6,1 12,0 18,-3l10 17c-10,5 -22,7 -33,5zm38 -8l-10 -17c5,-4 9,-9 11,-15l19 4c-3,11 -10,21 -20,28zm-79 -50l19 4c-1,6 0,13 3,18l-16 11c-6,-11 -8,-22 -6,-33zm31 -17c-6,4 -9,9 -11,15l-19 -4c3,-11 10,-20 20,-27l10 16zm27 -25l-4 19c-6,-1 -13,0 -19,3l-10 -16c11,-6 22,-8 33,-6zm-86 91c-4,3 -10,1 -11,-5l-8 -43c1,-5 5,-9 11,-8l12 3c6,1 10,7 10,13l3 18c2,5 -1,12 -6,15l-11 7zm-1 -156c-3,2 -4,6 -1,9l2 2c3,4 3,10 0,14 -4,4 -12,4 -15,0l-2 -2c-3,-3 -7,-3 -10,-1 -1,2 -2,3 -3,5 -3,3 -2,7 1,9l3 2c4,2 6,8 4,12 -3,6 -10,8 -15,5l-2 -2c-4,-2 -8,-1 -10,3 0,1 -1,3 -2,5 -1,3 0,7 4,8l3 1c6,2 9,8 7,13 3,4 -1,10 -7,8l-8 -2c-4,-1 -8,1 -8,5 -1,2 -1,3 -1,5 0,4 2,7 6,7l4 0c5,0 10,5 10,10 -1,6 -5,10 -11,10l-2 0c-4,0 -7,4 -7,7 1,2 1,4 1,6 1,4 4,6 8,5l3 -1c6,-1 11,2 13,7l0 0c1,5 -2,11 -7,12l-3 1c-4,1 -5,5 -4,9 1,1 2,3 2,5 2,3 6,4 9,2l3 -1c5,-3 11,-2 14,3 3,4 2,11 -3,14l-2 1c-4,2 -4,7 -2,9 1,2 3,3 4,5 2,2 7,2 9,0l2 -3c4,-3 9,-4 13,-2 6,4 7,11 3,15l-2 2c-3,3 -2,8 1,10 2,1 3,2 5,3 3,2 7,1 9,-3l1 -3c3,-5 9,-7 14,-5l0 0c5,3 7,9 4,14l-1 2c-1,4 0,8 4,9 2,0 4,1 5,1 4,1 8,-1 8,-5l1 -3c1,-6 6,-9 11,-9 6,1 9,6 9,12l-1 3c0,3 2,7 6,7 2,0 4,0 6,0 4,0 6,-4 6,-7l0 -4c-1,-5 3,-10 8,-11l0 0c6,-1 11,3 11,9l1 2c0,4 4,7 8,6 2,-1 3,-1 5,-2 4,-1 5,-5 4,-9l-1 -3c-3,-5 0,-11 5,-13 5,-2 11,0 13,5l1 3c2,3 6,5 9,3l0 -1c2,-1 3,-2 5,-3 3,-2 3,-6 1,-9l-2 -2c-4,-5 -3,-11 1,-15 4,-3 11,-3 14,2l2 2c2,3 7,3 9,0 2,-2 3,-3 4,-4 2,-3 2,-8 -1,-10l-3 -2c-5,-3 -6,-9 -3,-14 3,-4 9,-5 14,-2l2 1c3,2 8,1 9,-2 1,-2 2,-4 3,-6 1,-3 -1,-7 -4,-8l-4 -1c-5,-2 -8,-7 -6,-13 -3,-4 1,-10 6,-8l9 3c4,1 7,-2 8,-5 0,-2 0,-4 1,-6 0,-4 -3,-7 -6,-7l-4 0c-5,0 -9,-4 -10,-9 -1,-6 4,-11 10,-11l3 0c4,0 7,-3 6,-7 0,-2 0,-4 0,-6 -1,-3 -5,-6 -8,-5l-3 1c-5,1 -10,-1 -12,-5 -3,-6 0,-13 6,-14l3 -1c3,-1 5,-5 4,-9 -1,-1 -2,-3 -3,-5 -1,-3 -6,-4 -9,-2l-3 2c-4,3 -11,1 -13,-4 -3,-4 -2,-10 3,-13l2 -2c3,-2 4,-6 1,-9 -1,-2 -2,-3 -3,-4 -3,-3 -7,-3 -10,0l-2 2c-3,4 -8,5 -13,2 -5,-3 -6,-11 -2,-15l2 -2c3,-3 2,-8 -1,-10 -2,-1 -3,-2 -5,-3 -3,-2 -7,0 -9,3l-1 3c-2,4 -7,7 -12,6 -6,-2 -9,-9 -7,-14l2 -3c1,-3 -1,-7 -4,-9 -2,0 -4,-1 -6,-1 -3,-1 -7,1 -8,5l0 3c-1,5 -5,9 -10,9 -6,0 -11,-6 -10,-12l1 -2c0,-4 -3,-8 -7,-8 -1,0 -3,0 -5,0 -4,1 -7,4 -6,8l0 3c1,5 -3,10 -8,11 -5,3 -11,0 -11,-5l-1 -6c-1,-4 -4,-6 -8,-5 -2,0 -4,1 -5,1 -4,1 -6,5 -4,9l1 3c3,5 0,12 -7,14 -4,1 -9,-2 -11,-6l-1 -2c-2,-4 -6,-5 -9,-3l0 0c-2,1 -4,2 -5,3z"/>
     <path class="fil13" d="M984 2443c-16,3 -30,13 -38,26 2,-13 7,-27 14,-39 7,-13 16,-24 27,-33 -7,14 -9,31 -3,46zm40 -53c18,-8 40,0 49,18 8,19 0,41 -19,49 -18,9 -40,0 -48,-18 -9,-19 -1,-40 18,-49zm72 -22c14,3 27,8 39,15 -16,-2 -32,2 -45,12 -8,-15 -21,-24 -36,-28 13,-2 28,-2 42,1zm57 49c14,15 13,38 -2,52 -15,13 -39,12 -52,-3 -14,-15 -13,-38 2,-52 15,-13 38,-12 52,3zm43 61c2,14 1,29 -2,42 -3,-15 -11,-30 -25,-39 11,-12 17,-28 16,-43 5,12 9,26 11,40zm-78 83c-18,-10 -24,-32 -14,-50 10,-17 32,-24 50,-14 18,10 24,33 14,51 -10,17 -33,23 -50,13zm39 23c-10,10 -21,18 -34,23 -14,6 -27,10 -41,11 14,-7 25,-19 29,-35 15,7 32,7 46,1zm-109 18c-20,-4 -33,-23 -29,-43 4,-20 24,-33 44,-29 19,4 32,24 28,43 -4,20 -23,33 -43,29zm-71 -24c-10,-11 -17,-23 -23,-36 11,11 26,18 43,17 -2,17 3,32 13,44 -12,-6 -23,-15 -33,-25zm79 -102c9,-8 22,-7 30,2 8,8 8,22 -1,30 -9,8 -23,8 -31,-1 -8,-9 -7,-23 2,-31zm-97 29c-2,-20 12,-39 32,-41 21,-2 39,12 41,33 2,20 -12,38 -32,40 -21,2 -39,-12 -41,-32zm18 -115c-3,3 -9,2 -14,-3 -2,1 -4,3 -5,5 5,4 7,11 4,14 -2,3 -9,3 -14,-1 -2,2 -3,4 -5,6 6,3 9,9 7,13 -2,3 -8,4 -14,1 -2,2 -3,4 -4,6 6,3 10,8 8,12 -1,4 -7,5 -13,3 -1,3 -2,5 -2,8 6,1 10,6 9,10 -1,4 -6,6 -13,5 0,3 0,5 -1,8 7,1 11,4 11,8 0,4 -5,7 -11,8 0,2 0,5 0,7 6,0 11,3 11,7 1,4 -3,7 -10,9 1,2 1,5 2,7 6,-1 11,1 12,5 1,4 -2,8 -8,10 1,3 1,5 2,8 6,-2 11,-1 13,2 2,4 -1,9 -6,12 1,2 2,4 3,7 6,-3 11,-3 13,1 2,3 0,8 -4,12 1,2 3,4 4,6 5,-3 11,-4 13,-1 3,3 2,8 -2,13 2,1 3,3 5,5 4,-4 10,-6 13,-3 3,2 2,8 -1,13 2,1 4,3 6,4 4,-4 9,-7 12,-5 4,2 4,8 2,13 2,2 4,3 7,4 2,-6 7,-9 11,-7 3,1 5,7 3,13 3,0 5,1 8,2 1,-6 6,-10 9,-9 4,1 7,6 6,12 2,1 5,1 7,2 1,-6 5,-11 9,-11 4,0 7,5 7,12 3,0 5,0 8,0 0,-7 2,-12 6,-12 4,-1 8,4 10,10 2,0 5,0 7,-1 -1,-6 1,-12 5,-13 4,-1 8,3 11,9 2,0 4,-1 7,-2 -3,-6 -2,-12 2,-14 4,-2 9,2 12,8 3,-1 5,-2 7,-3 -3,-6 -3,-13 0,-15 4,-2 10,0 14,6 2,-1 4,-3 6,-4 -5,-6 -6,-12 -3,-15 4,-3 10,-1 15,4 2,-2 4,-3 5,-5 -5,-5 -7,-11 -4,-14 2,-4 9,-3 15,1l0 1c1,-2 3,-4 4,-7l0 0c-6,-3 -9,-9 -7,-13 2,-4 9,-4 15,-1l1 1c1,-3 2,-5 3,-7l0 0c-7,-3 -11,-8 -10,-12 2,-5 9,-6 15,-3 1,0 1,0 1,0 1,-3 2,-5 3,-7 -1,-1 -1,-1 -1,-1 -7,-1 -12,-6 -11,-10 1,-4 7,-7 14,-5 1,0 1,0 1,0 1,-3 1,-5 2,-8 -1,0 -1,0 -2,0 -7,0 -12,-4 -12,-9 0,-4 6,-7 13,-7 1,0 1,0 2,0 0,-2 0,-5 0,-8 -1,0 -1,0 -2,0 -7,1 -13,-2 -13,-6 -1,-5 4,-9 11,-10 1,0 2,0 2,0 0,-2 0,-5 -1,-8 0,1 -1,1 -2,1 -6,2 -13,0 -14,-4 -1,-5 3,-10 10,-12 1,0 2,0 2,0 -1,-3 -1,-5 -2,-8 -1,1 -1,1 -2,1 -7,3 -13,2 -15,-2 -2,-4 2,-10 8,-13 1,0 2,0 2,0 -1,-3 -2,-5 -3,-8 -1,1 -1,1 -2,2 -6,4 -13,4 -15,0 -3,-4 0,-10 6,-14 1,0 1,-1 2,-1 -1,-2 -3,-4 -5,-6 0,0 -1,0 -1,1 -6,5 -12,6 -15,3 -3,-4 -1,-10 4,-15 0,0 1,-1 2,-1 -2,-2 -4,-4 -6,-6 -1,1 -1,1 -1,2 -5,5 -11,7 -15,5 -3,-3 -2,-10 2,-15 1,-1 1,-2 2,-2 -3,-2 -5,-3 -7,-5 0,1 -1,1 -1,2 -4,6 -10,9 -13,7 -4,-2 -5,-9 -1,-15 0,-1 1,-1 1,-2 -2,-1 -5,-2 -7,-3 0,0 -1,1 -1,1 -2,7 -8,11 -12,10 -4,-2 -5,-8 -3,-15 0,-1 1,-1 1,-2 -3,-1 -5,-2 -8,-2 0,0 0,1 0,1 -1,7 -6,12 -10,11 -5,0 -7,-7 -6,-14 0,0 1,-1 1,-2 -3,0 -6,0 -8,-1 0,1 0,1 0,2 -1,7 -4,13 -9,12 -4,0 -8,-6 -7,-13 0,0 0,-1 0,-1 -3,0 -5,0 -8,0 0,0 0,1 0,1 1,7 -2,13 -6,14 -5,0 -9,-5 -10,-12 0,-1 0,-1 0,-1 -3,0 -5,0 -8,1 0,0 0,1 1,1 1,7 0,13 -5,14 -4,2 -9,-3 -11,-10 0,0 0,-1 0,-1 -3,1 -5,2 -7,3l0 0c3,7 2,14 -2,15 -4,2 -10,-2 -13,-8l0 -1c-2,2 -5,3 -7,4l0 0c4,6 4,13 1,16 -4,2 -10,-1 -14,-7l0 0c-2,1 -4,3 -6,5 4,5 6,12 2,14z"/>
     <path class="fil12" d="M4799 2707c-8,43 -37,79 -59,75 -22,-5 -27,-48 -18,-90 8,-42 29,-80 51,-76 22,5 35,49 26,91zm-117 5c-16,6 -34,-3 -40,-20 -6,-17 3,-35 20,-40 17,-6 35,3 40,20 6,16 -3,34 -20,40zm29 84c-6,2 -13,-1 -15,-7 -2,-6 1,-13 7,-15 6,-2 13,1 15,7 2,6 -1,13 -7,15zm-32 6c-15,17 -60,5 -92,-23 -33,-29 -50,-72 -35,-89 15,-17 55,1 87,30 32,28 55,65 40,82zm-124 -143c1,-6 8,-10 14,-9 6,1 10,7 9,14 -1,6 -7,10 -14,9 -6,-2 -10,-8 -9,-14zm76 -100c41,-14 87,-7 94,14 7,22 -28,47 -69,61 -41,14 -84,15 -91,-7 -7,-21 25,-54 66,-68zm104 35c4,-5 12,-5 17,-1 5,4 5,11 1,16 -5,5 -12,6 -17,1 -5,-4 -5,-11 -1,-16zm76 41c-1,-4 3,-10 11,-12 -1,-3 -2,-5 -4,-8 -6,3 -13,3 -15,-1 -2,-4 1,-10 8,-14 -2,-2 -3,-5 -5,-7 -6,4 -12,5 -15,1 -3,-4 0,-10 5,-15 -2,-2 -3,-4 -5,-6 -5,5 -12,6 -15,3 -3,-3 -2,-9 3,-15 -2,-1 -4,-3 -6,-5 -5,6 -11,8 -14,5 -4,-2 -4,-9 0,-15 -3,-1 -5,-2 -7,-4 -4,6 -9,9 -13,7 -4,-2 -5,-8 -2,-14 -3,-1 -5,-2 -8,-3 -2,6 -7,9 -11,8 -4,-1 -6,-7 -5,-14 -2,0 -5,-1 -8,-1 -1,6 -5,10 -9,9 -5,0 -7,-6 -7,-12 -3,0 -5,0 -8,-1 -1,7 -4,11 -8,12 -5,0 -8,-5 -9,-12 -3,0 -5,1 -8,1 0,6 -2,11 -6,12 -5,1 -9,-3 -11,-9 -2,0 -5,1 -7,1 1,7 -1,12 -5,13 -4,2 -9,-2 -11,-7 -3,0 -5,1 -8,3 2,5 1,11 -2,13 -4,2 -9,-1 -13,-6 -2,1 -4,3 -7,4 3,6 3,11 0,14 -3,2 -9,1 -13,-4 -3,2 -5,3 -7,5 4,5 5,11 2,14 -3,3 -9,2 -14,-2 -1,2 -3,4 -5,6 5,4 7,10 4,13 -2,4 -8,4 -14,0 -2,3 -3,5 -4,7 5,4 8,9 6,13 -2,4 -8,4 -14,2 -1,2 -2,5 -3,7 6,3 9,8 8,12 -1,4 -7,6 -14,4 -1,3 -1,6 -2,8 7,2 11,6 11,10 -1,5 -7,8 -14,7 0,3 -1,5 -1,8 7,0 13,4 13,8 0,5 -6,9 -13,9 0,3 0,5 0,8 7,-1 14,2 14,6 1,5 -4,10 -11,11 0,3 1,5 1,8 7,-2 14,-1 16,4 1,4 -4,10 -11,12 1,3 2,5 3,8 7,-4 14,-3 16,1 2,4 -1,10 -8,14l0 0c1,3 2,5 4,7l0 0c6,-4 13,-5 16,-1 3,4 0,10 -6,15 0,0 0,0 -1,0 2,2 4,5 6,7 0,0 0,-1 0,-1 5,-5 13,-7 16,-4 3,4 2,11 -4,16 0,1 0,1 0,1 2,2 4,4 6,6 0,-1 0,-1 0,-1 5,-6 11,-9 15,-7 4,3 4,10 -1,17 0,0 0,0 -1,1 3,1 5,3 8,4 0,0 0,0 0,-1 3,-7 10,-10 14,-8 4,2 5,9 1,16 0,0 0,1 0,1 2,2 5,3 7,4 0,-1 1,-1 1,-2 2,-7 8,-12 12,-10 5,1 6,8 4,15 0,1 0,2 -1,2 3,1 6,2 9,2 0,0 0,-1 0,-1 1,-8 6,-14 10,-13 5,1 8,8 7,15 0,1 0,2 -1,2 3,1 6,1 9,1 0,-1 0,-1 0,-2 0,-8 4,-14 8,-14 5,0 9,6 9,14 0,1 0,1 0,2 3,0 6,0 9,0 0,-1 -1,-2 -1,-2 -1,-8 2,-15 6,-16 5,0 10,5 11,13 0,1 0,1 0,2 3,0 6,-1 9,-2 0,-1 -1,-1 -1,-2 -2,-7 -1,-14 4,-16 4,-1 10,3 12,11 1,0 1,1 1,2 3,-1 5,-2 8,-3 0,-1 -1,-1 -1,-2 -4,-7 -3,-14 1,-16 4,-3 11,1 14,8 1,1 1,1 1,2 3,-1 5,-3 8,-4 -1,-1 -1,-1 -2,-2 -4,-6 -5,-13 -1,-16 4,-3 10,0 15,6 0,0 1,1 1,2 3,-2 5,-4 7,-6 -1,0 -1,-1 -2,-1 -5,-6 -7,-13 -3,-16 3,-3 10,-2 15,3 1,1 1,1 2,2 2,-2 4,-4 5,-7 0,0 -1,0 -1,-1 -6,-4 -9,-11 -6,-15 2,-3 10,-3 16,2 0,0 1,0 1,1 2,-3 3,-5 5,-8 -1,0 -1,0 -2,0 -6,-4 -10,-10 -8,-14 2,-4 9,-5 16,-2 0,1 1,1 1,1 2,-2 3,-5 4,-8 -1,0 -1,0 -2,0 -7,-2 -12,-8 -10,-12 1,-5 8,-7 16,-4 0,0 0,0 1,0 0,-3 1,-5 2,-8 -1,0 -1,0 -1,0 -8,-1 -13,-6 -13,-11 1,-4 8,-7 15,-6 1,0 1,0 1,0 0,-3 1,-5 1,-8 0,0 -1,0 -1,0 -7,0 -14,-4 -14,-9 0,-4 6,-8 14,-8 0,0 0,0 1,0 -1,-3 -1,-6 -1,-8l0 0c-8,1 -15,-2 -15,-7 -1,-4 4,-9 12,-10l0 0c-1,-3 -1,-6 -2,-8 -7,2 -14,0 -16,-4z"/>
     <path class="fil12" d="M4801 2523c-2,-4 0,-9 5,-10l18 -7c4,-1 9,1 10,5l1 3c2,4 -1,9 -5,10l-18 6c-5,2 -9,0 -11,-5l0 -2zm5 -82l1 -2c2,-4 7,-6 11,-4l18 9c4,2 5,6 3,10l-1 3c-2,4 -7,5 -11,3l-17 -8c-4,-2 -6,-7 -4,-11zm78 -15c35,-12 73,7 85,42 12,35 -7,72 -42,84 -35,12 -73,-7 -85,-42 -11,-35 7,-73 42,-84zm-20 -31c-1,-4 1,-9 5,-10l3 -1c4,-2 8,1 10,5l6 18c1,5 -1,9 -5,10l-2 1c-5,2 -9,-1 -11,-5l-6 -18zm70 15l9 -17c2,-4 7,-6 11,-4l2 2c4,1 6,6 4,10l-9 18c-2,4 -7,5 -11,3l-2 -1c-4,-2 -6,-7 -4,-11zm66 37c4,-1 9,1 10,5l1 3c1,4 -1,9 -5,10l-19 6c-4,2 -9,-1 -10,-5l-1 -2c-1,-4 1,-9 5,-10l19 -7zm5 90l-1 2c-2,4 -7,6 -11,4l-17 -9c-4,-2 -6,-7 -4,-11l1 -2c2,-4 7,-6 11,-4l18 9c4,2 5,7 3,11zm-58 46c2,4 -1,9 -5,10l-2 1c-5,1 -9,-1 -11,-5l-6 -19c-1,-4 1,-8 5,-10l3 -1c4,-1 9,1 10,5l6 19zm-70 -16l-9 18c-2,4 -6,5 -10,3l-3 -1c-4,-2 -5,-7 -3,-11l8 -17c2,-4 7,-6 11,-4l3 2c3,1 5,6 3,10zm-87 -45l-9 9 13 1c5,1 7,6 4,10l-7 11 13 -1c5,0 8,5 6,9l-6 12 13 -3c5,-1 9,3 8,8l-3 12 12 -5c4,-2 9,1 8,6l0 13 10 -8c4,-2 10,0 10,5l2 13 9 -10c3,-3 9,-2 11,3l4 12 7 -11c2,-4 8,-3 11,1l6 11 5 -12c2,-4 8,-5 11,-1l8 10 3 -13c1,-4 6,-6 10,-3l10 8 0 -13c1,-5 6,-7 10,-5l11 6 -2 -12c-1,-5 4,-9 9,-7l12 4 -4 -12c-2,-5 2,-10 6,-9l13 2 -6 -11c-3,-4 0,-9 5,-10l13 0 -8 -10c-3,-4 -2,-9 3,-10l13 -3 -10 -8c-4,-3 -3,-9 1,-11l12 -5 -11 -6c-5,-3 -5,-9 -1,-11l11 -7 -12 -4c-5,-2 -6,-8 -3,-11l9 -9 -13 -2c-4,0 -7,-6 -4,-10l8 -10 -13 0c-5,1 -9,-4 -7,-8l6 -12 -13 3c-4,1 -9,-3 -8,-8l4 -12 -12 5c-5,2 -9,-1 -9,-6l1 -13 -11 7c-4,3 -9,1 -10,-4l-2 -13 -9 9c-3,4 -9,2 -10,-2l-4 -13 -7 11c-3,4 -9,4 -11,0l-7 -12 -5 12c-2,5 -7,6 -10,2l-9 -10 -2 12c-1,5 -7,7 -11,4l-10 -8 0 13c0,4 -5,7 -10,5l-11 -7 2 13c1,5 -4,9 -8,7l-13 -4 5 12c1,5 -2,9 -7,9l-13 -2 6 11c3,4 0,9 -5,9l-13 1 9 10c3,3 1,9 -4,10l-13 3 11 8c3,3 3,9 -2,11l-12 5 12 6c4,2 4,8 0,11l-11 7 13 4c4,2 6,7 2,11z"/>
     <path class="fil12" d="M4983 2697c-1,1 -2,2 -3,3 -4,3 -8,6 -12,9 -1,-4 -2,-8 -3,-12 5,-3 9,-7 14,-11 1,3 3,7 4,11zm2 25c-2,0 -3,1 -4,1 -5,2 -10,3 -15,4 1,-4 2,-8 2,-12 6,-1 12,-3 17,-5 0,4 0,8 0,12zm-8 24c-7,0 -13,-1 -19,-3 2,-3 4,-6 6,-10 6,2 12,2 18,2 -2,4 -3,7 -5,11zm-16 19c-6,-3 -12,-6 -17,-10 3,-2 6,-4 9,-7 5,4 11,6 16,9 -2,3 -5,5 -8,8zm-23 11c-5,-4 -9,-9 -12,-15 4,0 8,-1 11,-3 4,5 7,10 12,14 -4,2 -8,3 -11,4zm-56 -49c-7,-21 4,-44 26,-52 21,-7 44,5 51,26 7,21 -4,44 -26,52 -21,7 -44,-5 -51,-26zm43 52c-4,0 -8,0 -12,-1 -2,-6 -4,-12 -5,-18 4,1 7,1 11,1 1,6 3,12 6,18zm-26 -4c-3,-1 -7,-3 -10,-5 0,-6 1,-13 2,-19 3,3 7,5 10,6 -1,6 -2,12 -2,18zm-21 -12c-3,-3 -6,-6 -8,-9 2,-6 6,-11 9,-17 2,4 5,7 7,10 -3,5 -6,10 -8,16zm-16 -21c-1,-3 -3,-7 -4,-11 5,-4 10,-8 16,-11 0,3 1,7 2,11 -5,3 -10,7 -14,11zm-6 -36c6,-2 13,-3 19,-4 -1,3 -2,7 -2,11 -6,1 -12,3 -17,5 0,-4 0,-8 0,-12zm8 -24c7,0 13,1 19,3 -2,3 -4,6 -6,10 -6,-2 -12,-2 -18,-2 2,-4 3,-7 5,-11zm16 -19c6,3 12,6 17,10 -3,2 -6,4 -9,7 -5,-3 -11,-6 -16,-8 2,-3 5,-6 8,-9zm23 -11c5,4 9,10 12,15 -4,1 -8,1 -11,3 -3,-5 -7,-10 -12,-14 4,-2 7,-3 11,-4zm13 -2c4,-1 8,-1 12,0 2,6 4,12 5,18 -4,-1 -7,-1 -11,-1 -1,-6 -3,-12 -6,-17zm26 3c3,1 7,3 10,5 0,6 -1,12 -2,19 -3,-3 -7,-5 -10,-6 1,-6 2,-12 2,-18zm21 12c3,3 6,6 8,9 -2,6 -6,11 -9,16 -2,-3 -5,-6 -7,-9 3,-5 6,-10 8,-16zm28 29l6 -6 -8 -1c-3,0 -5,-3 -3,-6l5 -6 -8 0c-3,1 -5,-2 -4,-5l3 -7 -8 2c-2,0 -5,-2 -4,-5l2 -8 -8 4c-2,1 -5,-1 -5,-4l0 -8 -6 4c-2,2 -6,1 -6,-2l-1 -8 -6 6c-2,2 -5,1 -6,-2l-2 -7 -5 6c-1,3 -5,2 -7,0l-3 -7 -3 7c-2,3 -5,3 -7,1l-5 -6 -2 8c0,3 -4,4 -6,2l-6 -5 0 8c0,3 -3,4 -6,3l-7 -4 1 8c1,3 -2,5 -5,4l-7 -3 2 8c1,3 -1,5 -4,5l-8 -1 4 7c2,2 0,5 -3,5l-8 1 5 6c2,2 1,5 -2,6l-8 2 7 5c2,2 1,5 -1,6l-8 3 7 4c3,2 3,5 1,7l-7 4 8 3c2,1 3,4 1,6l-6 6 8 1c3,0 5,3 3,6l-5 6 8 0c3,0 5,3 4,5l-3 7 8 -2c2,0 5,2 4,5l-2 8 8 -3c2,-2 5,0 5,3l0 8 6 -4c2,-2 6,-1 6,2l1 8 6 -6c2,-2 5,-1 6,2l3 8 4 -7c2,-3 5,-2 7,0l3 7 3 -7c2,-3 5,-3 7,-1l5 6 2 -8c0,-2 4,-4 6,-2l6 5 0 -8c0,-2 4,-4 6,-3l7 4 -1 -8c-1,-3 2,-5 5,-4l7 3 -2 -8c-1,-3 1,-5 4,-5l8 1 -4 -7c-2,-2 0,-5 3,-5l8 -1 -5 -6c-2,-2 -1,-5 2,-6l8 -2 -7 -5c-2,-1 -1,-5 1,-6l8 -3 -7 -4c-3,-1 -3,-5 -1,-7l7 -4 -8 -3c-2,0 -3,-4 -1,-6z"/>
     <path class="fil14" d="M5315 2679c-1,1 -2,1 -2,2l-56 -46c3,-3 6,-6 9,-9l49 53zm-36 -64l41 60c-1,1 -2,1 -3,2l-48 -53c3,-3 7,-6 10,-9zm14 -8l32 65c-1,0 -2,1 -3,1l-40 -59c4,-3 7,-5 11,-7zm16 -6l22 68c-1,1 -2,1 -3,1l-32 -65c4,-1 9,-3 13,-4zm16 -5l12 72c-1,0 -2,0 -3,0l-22 -68c4,-2 8,-3 13,-4zm16 -1l2 72c-1,0 -2,0 -3,0l-12 -71c4,-1 9,-1 13,-1zm17 0l-9 72c-1,0 -2,0 -3,0l-2 -72c5,0 9,0 14,0zm16 3l-18 70c-1,0 -2,-1 -3,-1l8 -71c4,0 9,1 13,2zm16 5l-29 67c0,-1 -1,-1 -2,-1l18 -70c4,1 9,3 13,4zm15 8l-38 61c-1,0 -2,-1 -3,-1l29 -66c4,1 8,3 12,6zm13 9l-46 56c0,-1 -1,-1 -2,-2l37 -62c4,3 8,5 11,8zm12 11l-53 49c-1,-1 -1,-2 -2,-2l46 -56c3,3 6,6 9,9zm-72 93c-8,7 -19,7 -26,-1 -7,-7 -6,-19 1,-26 8,-6 19,-6 26,2 7,7 6,19 -1,25zm74 -90c3,3 6,6 9,10l-60 41c-1,-1 -1,-2 -2,-3l53 -48zm11 13c2,3 4,7 6,11l-65 32c0,-1 -1,-2 -1,-3l60 -40zm13 26l-69 23c0,-1 -1,-2 -1,-3l65 -32c2,4 3,8 5,12zm1 4c1,4 2,8 3,12l-71 13c-1,-1 -1,-2 -1,-3l69 -22zm5 29l-72 2c-1,-1 -1,-2 -1,-3l71 -12c1,4 2,8 2,13zm-1 16l-71 -8c0,-1 0,-2 0,-3l72 -2c0,5 0,9 -1,13zm-3 17l-69 -19c0,-1 0,-2 0,-3l72 9c-1,4 -2,8 -3,13zm0 3c-2,4 -3,8 -5,13l-66 -29c0,-1 1,-2 1,-3l70 19zm-12 27l-62 -37c1,-1 1,-2 2,-3l66 28c-2,5 -4,9 -6,12zm-9 14l-56 -46c1,-1 1,-1 2,-2l61 37c-2,4 -5,8 -7,11zm-12 12l-48 -53c1,-1 1,-1 2,-2l56 46c-3,3 -6,6 -10,9zm-12 11l-41 -60c1,0 2,-1 2,-2l49 53c-3,3 -7,6 -10,9zm-15 8l-31 -64c1,-1 2,-1 2,-2l41 60c-4,2 -8,4 -12,6zm-15 7l-22 -69c1,0 2,-1 3,-1l32 65c-5,2 -9,3 -13,5zm-16 4l-12 -71c1,0 2,-1 3,-1l22 69c-4,1 -9,2 -13,3zm-16 2l-2 -72c1,0 2,0 3,0l12 71c-5,0 -9,1 -13,1zm-17 0l8 -72c1,0 2,0 3,0l2 72c-4,0 -9,0 -13,0zm-17 -3l19 -70c1,0 2,0 3,0l-8 72c-5,0 -9,-1 -14,-2zm-15 -5l28 -67c1,0 2,1 3,1l-19 70c-4,-1 -8,-3 -12,-4zm-15 -8l37 -62c1,1 2,1 3,2l-28 66c-4,-2 -8,-4 -12,-6zm-14 -9l46 -56c1,1 2,1 2,2l-37 61c-4,-2 -7,-4 -11,-7zm-12 -12l53 -48c1,1 2,1 2,2l-46 56c-3,-3 -6,-6 -9,-10zm-2 -2c-3,-3 -6,-7 -9,-10l60 -41c1,1 1,2 2,2l-53 49zm-17 -25l65 -31c0,0 1,1 1,2l-60 41c-2,-4 -4,-8 -6,-12zm-7 -15l69 -22c0,1 1,2 1,3l-65 31c-2,-4 -3,-8 -5,-12zm-1 -3c-1,-5 -2,-9 -3,-13l71 -12c0,1 1,2 1,3l-69 22zm-5 -30l72 -2c1,1 1,2 1,3l-71 13c-1,-5 -1,-9 -2,-14zm1 -16l72 8c-1,1 -1,2 -1,3l-72 2c0,-5 0,-9 1,-13zm3 -17l70 19c-1,1 -1,2 -1,3l-72 -9c1,-4 2,-8 3,-13zm1 -3c1,-4 2,-8 4,-13l66 29c0,1 0,2 -1,3l-69 -19zm11 -27l62 37c0,1 -1,2 -1,3l-67 -29c2,-4 4,-8 6,-11zm10 -14l56 46c-1,1 -2,1 -2,2l-62 -37c3,-4 5,-8 8,-11zm0 -26l0 0 -13 -8 -4 5 -4 5 8 12c-4,5 -8,11 -12,17l-14 -3 -3 5 -3 6 12 9c-3,7 -5,13 -7,20l-15 1 0 6 -1 7 13 5c0,7 0,14 0,21l-14 5 1 6 1 7 15 1c1,7 3,13 6,20l-12 9 3 6 3 5 14 -3c3,6 7,12 12,17l-9 13 4 4 5 5 13 -7c5,5 10,9 16,13l-5 14 6 3 5 3 10 -10c7,3 13,5 20,7l0 15 6 2 6 1 7 -13c6,1 13,2 20,2l4 14 7 -1 6 0 2 -15c7,-1 14,-2 21,-4l8 12 6 -2 6 -2 -2 -15c6,-3 12,-6 18,-10l11 9 5 -4 5 -4 -6 -13 0 0c5,-5 10,-10 14,-15l14 5 4 -5 3 -5 -10 -11c4,-6 7,-12 9,-19l15 1 2 -6 2 -6 -13 -7c2,-7 3,-14 3,-21l15 -3 0 -6 0 -6 -15 -4c0,-7 -1,-14 -2,-20l12 -8 -1 -6 -2 -6 -15 1c-2,-6 -5,-13 -9,-19l10 -11 -3 -5 -4 -5 -14 5c-2,-3 -4,-5 -6,-8 -3,-2 -5,-5 -7,-7l6 -14 -5 -3 -5 -4 -12 9c-5,-4 -11,-8 -17,-11l2 -15 -6 -2 -6 -2 -8 12c-7,-2 -14,-4 -20,-5l-3 -15 -6 0 -6 -1 -5 15c-7,0 -14,0 -20,1l-7 -13 -6 1 -6 1 0 15c-7,2 -13,5 -20,8l-10 -11 -5 3 -6 3 4 14c-5,4 -10,8 -16,13z"/>
     <path class="fil12" d="M1773 961l-35 61c-2,5 -8,7 -14,6l-68 -14c5,-8 11,-15 19,-22 27,-25 63,-35 98,-31zm72 39c16,17 26,38 30,59l-65 -13c-7,-2 -13,-8 -14,-15l-7 -66c21,6 40,17 56,35zm32 75c1,35 -12,70 -39,95 -8,7 -16,13 -24,17l-8 -69c-1,-6 2,-12 8,-14l63 -29zm-204 93l63 -29c6,-2 12,-1 16,3l47 52c-43,16 -92,7 -126,-26zm70 -75c-6,-7 -6,-18 1,-25 8,-7 19,-6 25,1 7,7 6,18 -1,25 -7,7 -18,6 -25,-1zm-95 -65l47 52c4,4 4,10 2,16l-35 60c-30,-37 -34,-87 -14,-128zm15 -50l-1 0 -13 -8 -4 5 -5 5 9 13c-5,5 -9,11 -13,17l-6 -1 0 0 -9 -2 -3 6 -2 6 11 10c-2,6 -4,13 -6,20l-15 1 -1 7 -1 6 14 6c-1,7 -1,14 0,21l-15 6 1 6 1 7 16 1c1,7 3,14 6,21l-12 9 2 6 3 6 15 -3c4,6 8,12 12,18l-8 13 4 4 4 5 14 -7c5,5 11,9 16,13l-4 15 6 3 5 4 11 -12c6,4 13,6 20,8l0 16 6 1 6 2 7 -14c7,1 15,2 22,2l4 15 7 -1 6 0 3 -16c7,-1 14,-2 21,-4l8 13 7 -3 6 -2 -2 -9 0 0 0 -6c6,-3 12,-7 18,-11l12 10 5 -4 6 -4 -7 -14 0 -1c6,-4 10,-10 15,-15l14 6 4 -6 4 -5 -11 -11c4,-7 7,-13 10,-20l15 1 2 -6 2 -6 -13 -8c1,-7 3,-14 3,-21l15 -4 0 -6 0 -7 -15 -3c0,-2 0,-3 0,-5l-1 -4c0,-4 -1,-8 -2,-12l14 -8 -2 -6 -2 -7 -15 1c-3,-6 -6,-13 -10,-19l11 -11 -4 -6 -3 -5 -15 5c-2,-3 -4,-5 -7,-8 -2,-3 -5,-5 -7,-8l6 -14 -5 -4 -5 -4 -12 10c-6,-5 -12,-8 -18,-11l2 -16 -6 -2 -6 -2 -9 12c-4,-1 -8,-2 -13,-3l-3 -1c-2,0 -3,0 -5,-1l-2 -15 -7 -1 -6 0 -5 15c-7,0 -14,0 -21,1l-7 -14 -7 2 -6 1 0 15c-7,2 -14,5 -20,8l-11 -11 -5 3 -6 3 4 15c-5,4 -11,8 -16,13z"/>
     <path class="fil15" d="M859 1657l3 8c-8,4 -17,9 -25,15l8 9c-4,2 -7,4 -9,7 -2,1 -3,2 -4,4l-8 -9c-10,10 -17,21 -23,32l-8 -3c7,-15 16,-28 29,-39 11,-10 24,-18 37,-24zm103 -2l-4 9c-9,-4 -19,-7 -29,-8l-1 11c-5,0 -11,-1 -17,-1l1 -11c-13,0 -26,2 -38,6l-4 -8c30,-10 63,-9 92,2zm49 35c11,11 19,24 25,37l-9 3c-4,-10 -10,-19 -17,-28l-8 8c-2,-2 -4,-5 -6,-7 -1,-2 -3,-4 -5,-6l8 -7c-9,-9 -19,-16 -30,-21l4 -9c14,7 27,17 38,30zm26 140l-8 -4c4,-11 7,-22 8,-34l-11 0c0,-6 0,-12 0,-17l11 0c0,-11 -2,-23 -6,-34l9 -3c10,30 9,63 -3,92zm-72 73l-3 -8c11,-5 21,-11 31,-19l-8 -8c1,-1 3,-3 4,-4 3,-2 6,-5 8,-8l8 8c8,-8 14,-17 19,-27l8 4c-7,14 -17,27 -29,38 -11,11 -24,19 -38,24zm-102 2l3 -8c11,4 23,7 34,8l1 -12c6,1 11,1 17,1l-1 11c12,0 23,-2 34,-6l3 9c-30,9 -62,8 -91,-3zm-50 -34c-10,-12 -18,-24 -24,-38l9 -3c4,10 9,19 16,28l9 -8c1,3 3,5 5,7 2,2 4,4 6,6l-8 8c9,8 19,15 30,21l-4 8c-14,-7 -27,-17 -39,-29zm177 -62l-9 -5c5,-14 5,-29 1,-44l10 -3c1,5 2,11 3,16l22 1c0,6 0,12 0,17l-23 -1c0,6 -2,13 -4,19zm-49 -55c15,16 14,40 -2,55 -16,15 -41,13 -56,-2 -14,-16 -13,-41 3,-56 16,-14 41,-13 55,3zm-132 11l22 1c1,-5 2,-10 4,-14l9 4c-5,14 -6,30 -1,44l-10 4c-2,-7 -3,-14 -3,-21l-23 -1c0,-6 1,-12 2,-17zm28 50l10 -4c3,7 7,13 12,18 5,6 11,11 18,15l-4 9c-6,-3 -11,-7 -16,-11l-16 15c-2,-2 -4,-4 -6,-6 -2,-2 -4,-4 -6,-7l17 -15c-4,-4 -6,-9 -9,-14zm81 70c-5,0 -11,0 -17,0l1 -23c-6,-1 -12,-2 -18,-4l4 -9c14,5 30,5 44,1l4 9c-6,2 -11,3 -17,4l-1 22zm65 -27c-1,1 -3,2 -4,3l-15 -16c-5,4 -11,7 -17,10l-3 -9c6,-3 12,-7 17,-12 6,-6 11,-12 15,-19l9 4c-2,5 -5,10 -9,14l15 16c-2,3 -5,6 -8,9zm4 -113l-9 4c-3,-6 -7,-12 -12,-18 -6,-6 -12,-11 -18,-14l4 -10c5,3 11,7 15,11l17 -15c2,2 4,4 6,6 2,2 4,5 5,7l-16 15c3,5 6,9 8,14zm-76 -70c5,0 11,0 17,1l-1 23c5,1 9,2 14,3l-4 10c-15,-5 -30,-6 -45,-2l-3 -9c7,-2 14,-3 21,-3l1 -23zm-69 28c2,-3 5,-6 9,-8l15 17c4,-3 7,-5 12,-7l3 10c-6,3 -12,7 -18,12 -6,5 -10,11 -14,18l-9 -4c3,-7 7,-13 13,-18l-15 -17c1,-1 2,-2 4,-3zm-54 28l8 3c-4,10 -6,20 -8,30l12 0c-1,6 -2,12 -2,17l-11 0c0,13 2,25 6,38l-8 3c-10,-30 -9,-62 3,-91zm-14 -90c-3,3 -3,10 1,13l3 3c6,4 8,12 4,18 -4,7 -15,9 -21,4l-3 -3c-4,-3 -10,-2 -13,2 -2,3 -3,5 -4,7 -3,5 -1,11 4,13l4 1c6,3 10,10 9,17 -2,8 -12,13 -20,9l-3 -1c-5,-2 -11,1 -12,6 -1,2 -1,5 -2,7 -1,6 2,11 8,11l4 1c8,1 14,8 13,15 5,6 0,15 -7,14l-13 -2c-5,0 -10,4 -10,9 0,3 1,5 1,8 0,5 5,9 10,8l5 -1c7,-1 15,4 16,12 1,8 -4,15 -12,16l-3 1c-6,1 -9,6 -7,11 1,3 1,5 2,8 2,5 8,7 12,5l5 -3c7,-3 15,0 19,7l0 0c3,7 0,15 -7,19l-3 1c-5,3 -7,9 -4,13 2,3 3,5 5,7 3,4 9,5 13,1l3 -3c6,-5 15,-5 20,1l0 0c5,5 5,14 -1,20l-3 2c-3,4 -3,10 1,14 2,1 4,3 6,4 4,4 10,2 13,-2l2 -4c4,-6 11,-8 18,-6 8,3 11,13 6,21l-2 3c-2,4 0,10 5,13 2,1 4,2 7,2 5,2 10,0 12,-6l1 -4c2,-8 9,-12 17,-10l0 0c7,2 12,10 10,17l-1 4c-1,5 2,10 7,11 3,0 6,0 8,1 6,0 10,-4 10,-9l0 -5c0,-8 6,-14 13,-15 8,0 15,6 15,14l0 4c0,5 5,9 10,8 3,0 5,-1 8,-1 5,-1 8,-6 7,-11l-2 -5c-2,-7 2,-15 9,-18 8,-2 16,2 18,9l1 4c2,5 8,8 12,5 3,-1 5,-2 7,-3 5,-3 6,-9 4,-13l-3 -4c-5,-6 -3,-15 4,-20 6,-4 15,-2 19,4l2 3c3,5 10,6 13,2l1 0c1,-2 3,-4 5,-6 4,-3 4,-9 0,-13l-4 -3c-6,-5 -7,-13 -2,-19 5,-6 14,-7 20,-2l3 2c4,3 10,2 13,-2 1,-2 3,-5 4,-7 2,-5 0,-10 -4,-12l-5 -2c-7,-3 -10,-12 -7,-19 3,-7 11,-10 18,-7l4 1c5,2 10,0 12,-6 1,-2 1,-5 2,-7 1,-5 -3,-10 -8,-11l-5 0c-7,-1 -13,-8 -12,-16 -5,-6 0,-14 7,-13l12 1c6,1 10,-4 10,-9 0,-3 0,-5 0,-8 0,-5 -5,-9 -10,-8l-5 1c-6,1 -13,-3 -16,-9 -3,-9 3,-17 11,-19l4 -1c5,0 9,-6 7,-11 -1,-2 -2,-5 -3,-7 -1,-5 -7,-8 -12,-5l-4 2c-6,3 -13,1 -18,-4 -5,-8 -2,-18 6,-21l3 -2c5,-3 7,-9 3,-13 -1,-2 -3,-4 -4,-7 -3,-4 -9,-4 -13,-1l-4 3c-5,6 -14,5 -20,0 -5,-6 -4,-15 1,-20l3 -3c4,-4 4,-10 0,-13 -2,-2 -4,-4 -6,-5 -4,-3 -10,-2 -13,2l-2 4c-4,6 -11,9 -18,6 -8,-3 -11,-13 -7,-20l2 -4c3,-4 1,-10 -4,-12 -2,-1 -5,-2 -7,-3 -5,-2 -10,1 -12,6l-1 4c-2,7 -8,11 -15,11 -9,-1 -14,-10 -12,-18l1 -4c1,-5 -2,-10 -8,-11 -2,0 -5,0 -8,0 -5,-1 -9,3 -9,9l0 4c0,7 -4,13 -11,15 -9,1 -17,-5 -17,-14l0 -4c0,-5 -5,-9 -11,-8 -2,0 -5,1 -7,1 -5,1 -8,7 -7,12l2 4c2,8 -2,16 -9,18 -6,5 -14,3 -17,-4l-2 -9c-2,-5 -8,-7 -13,-5 -2,1 -4,2 -7,4 -4,2 -6,8 -3,12l3 4c5,7 2,17 -6,21 -6,3 -14,0 -18,-5l-2 -3c-3,-5 -9,-5 -13,-2l0 0c-2,2 -4,4 -6,6z"/>
     <path class="fil16" d="M1107 553c5,-1 11,1 12,6 2,5 0,10 -5,12 -5,2 -11,-1 -12,-6 -2,-4 0,-10 5,-12zm-46 60c-5,-2 -7,-8 -5,-13 2,-4 8,-6 13,-4 4,2 6,8 4,13 -2,4 -8,6 -12,4zm46 -18c2,3 2,7 -1,9 -2,2 -6,2 -9,0 -2,-3 -2,-7 1,-9 2,-2 6,-2 9,0zm34 -16c3,0 6,3 6,6 0,4 -3,7 -7,6 -3,0 -6,-3 -6,-6 0,-4 3,-6 7,-6zm36 -23c5,2 7,8 4,13 -2,5 -8,7 -12,4 -5,-2 -7,-8 -5,-12 2,-5 8,-7 13,-5zm-17 64c11,12 10,31 -2,42 -12,11 -31,10 -42,-2 -11,-12 -11,-31 2,-42 12,-11 31,-10 42,2zm22 -22c3,3 3,6 0,9 -3,2 -7,2 -9,-1 -2,-2 -2,-6 1,-8 2,-3 6,-3 8,0zm30 4c5,-2 10,1 12,5 2,5 -1,11 -6,13 -5,1 -10,-1 -12,-6 -2,-5 1,-11 6,-12zm-14 39c0,3 -3,6 -6,6 -4,0 -6,-3 -6,-7 0,-3 3,-6 6,-6 4,1 7,3 6,7zm-62 58c-3,-1 -6,-4 -6,-7 1,-3 3,-6 7,-6 3,0 6,3 6,7 0,3 -3,6 -7,6zm-36 22c-5,-2 -7,-8 -4,-12 2,-5 8,-7 12,-5 5,2 7,8 5,13 -2,4 -8,6 -13,4zm-5 -42c-3,-2 -2,-6 0,-8 3,-3 7,-3 9,0 2,3 2,7 0,9 -3,2 -7,2 -9,-1zm-30 -3c-5,2 -10,-1 -12,-6 -2,-5 1,-10 6,-12 5,-2 10,1 12,6 2,5 -1,10 -6,12zm20 -45c4,0 6,3 6,6 0,4 -3,6 -6,6 -4,0 -6,-3 -6,-6 0,-4 3,-7 6,-6zm95 43c2,2 2,6 -1,9 -2,2 -6,2 -9,-1 -2,-2 -2,-6 1,-9 2,-2 6,-2 9,1zm37 -10c4,3 6,8 4,13 -2,5 -8,7 -13,5 -4,-3 -6,-8 -4,-13 2,-5 8,-7 13,-5zm-47 60c-5,2 -11,-1 -12,-6 -2,-5 0,-10 5,-12 5,-2 11,1 13,6 1,5 -1,10 -6,12zm-128 -183c-3,3 -3,7 0,9l3 2c3,3 5,9 2,13 -3,5 -10,7 -15,3l-2 -2c-3,-2 -7,-2 -9,1 -1,2 -2,4 -3,5 -2,4 0,8 3,9l3 1c4,2 7,7 6,12 -1,6 -8,9 -13,7l-3 -2c-3,-1 -7,1 -8,5 -1,1 -1,3 -2,5 0,4 2,7 6,8l3 0c5,1 9,6 9,11 3,4 0,10 -5,9l-9 -1c-4,0 -7,3 -7,7 0,1 0,3 0,5 1,4 4,6 8,6l3 -1c5,-1 11,3 11,8 1,6 -2,11 -8,12l-2 0c-4,1 -6,5 -5,8 0,2 1,4 2,6 1,3 5,5 8,3l3 -1c5,-3 11,-1 14,4l0 0c2,5 0,11 -5,13l-2 2c-4,1 -5,5 -3,9 1,1 2,3 3,4 3,3 7,4 10,1l2 -2c4,-4 10,-4 14,1 4,4 4,10 0,13l-2 2c-3,3 -3,7 0,10 1,1 3,2 4,3 3,2 7,2 9,-2l2 -2c2,-4 7,-6 12,-4 6,2 8,9 5,14l-2 2c-1,3 0,8 3,9 2,1 4,2 6,2 3,2 7,0 8,-4l1 -3c1,-5 6,-9 12,-7l0 0c5,1 8,7 7,12l-1 3c-1,3 2,7 5,7 2,1 4,1 6,1 4,0 7,-3 7,-6l-1 -4c0,-5 5,-10 10,-10 5,0 10,4 10,10l0 3c0,3 4,6 8,6 1,-1 3,-1 5,-1 4,-1 6,-5 5,-8l-1 -4c-2,-5 1,-10 6,-12 5,-2 11,1 12,6l1 3c1,4 5,5 9,4 2,-1 3,-2 5,-3 3,-2 4,-6 2,-9l-2 -3c-3,-4 -2,-10 3,-13 4,-3 10,-2 13,2l2 3c2,3 6,3 9,1l0 0c2,-2 3,-3 4,-4 3,-3 3,-7 0,-9l-3 -2c-4,-4 -5,-10 -1,-14 3,-5 10,-5 14,-2l2 2c3,2 7,2 9,-2 1,-1 2,-3 3,-4 2,-4 0,-8 -3,-9l-3 -1c-5,-3 -8,-8 -6,-13 3,-5 8,-8 13,-6l3 1c3,2 7,0 8,-4 1,-1 1,-3 2,-5 0,-4 -2,-7 -6,-8l-3 0c-6,-1 -9,-6 -9,-11 -3,-4 0,-10 5,-9l9 1c4,0 7,-3 7,-7 0,-1 0,-3 -1,-5 0,-4 -3,-6 -7,-6l-3 1c-5,0 -9,-2 -11,-7 -2,-6 2,-12 8,-13l2 0c4,-1 6,-5 5,-8 -1,-2 -1,-4 -2,-6 -1,-3 -5,-5 -8,-3l-3 1c-4,2 -10,1 -13,-3 -3,-5 -2,-12 4,-14l2 -2c4,-1 5,-6 3,-9 -1,-1 -2,-3 -4,-4 -2,-3 -6,-4 -9,-1l-2 2c-4,4 -10,3 -14,-1 -4,-4 -4,-10 0,-14l2 -1c3,-3 3,-7 0,-10 -1,-1 -3,-2 -4,-3 -3,-2 -7,-2 -9,1l-2 3c-2,4 -8,6 -12,4 -6,-2 -8,-9 -5,-14l1 -2c2,-4 1,-8 -2,-9 -2,-1 -4,-2 -6,-2 -3,-2 -7,0 -8,4l-1 3c-1,5 -5,8 -10,7 -6,0 -10,-6 -9,-12l1 -3c1,-3 -2,-7 -5,-7 -2,-1 -4,-1 -6,-1 -4,0 -7,3 -7,6l0 3c1,5 -3,10 -7,11 -7,1 -12,-4 -12,-10l0 -3c0,-3 -4,-6 -8,-6 -1,1 -3,1 -5,1 -4,1 -6,5 -5,8l1 4c2,5 -1,10 -6,12 -4,3 -10,2 -11,-3l-2 -6c-1,-4 -6,-5 -9,-4 -2,1 -3,2 -5,3 -3,2 -4,6 -2,9l2 3c3,5 2,12 -4,14 -5,2 -10,0 -13,-4l-1 -2c-2,-3 -7,-3 -9,-1l0 0c-2,2 -3,3 -4,4z"/>
    </g>
    <path class="fil17" d="M146 4144l0 245 -146 0 0 -622 273 0c50,0 91,6 121,18 31,12 56,33 76,65 20,31 30,66 30,104 0,75 -36,129 -108,161l115 274 -161 0 -95 -245 -105 0zm0 -265l0 159 90 0c29,0 50,-2 63,-7 14,-4 25,-13 36,-27 10,-14 15,-30 15,-48 0,-18 -5,-33 -15,-47 -11,-13 -22,-22 -34,-25 -12,-3 -35,-5 -68,-5l-87 0zm910 7l-296 0 0 127 232 0 0 117 -232 0 0 136 296 0 0 123 -444 0 0 -622 444 0 0 119zm235 272l0 231 -148 0 0 -622 245 0c55,0 96,6 125,18 29,12 55,32 78,63 23,30 34,66 34,110 0,31 -6,61 -18,90 -12,29 -29,52 -52,68 -22,17 -43,28 -64,34 -21,5 -53,8 -97,8l-103 0zm-4 -113l94 0c36,0 61,-8 76,-25 14,-17 22,-36 22,-57 0,-25 -8,-45 -25,-60 -16,-15 -40,-23 -73,-23l-94 0 0 165zm687 -278l194 622 -157 0 -38 -129 -200 0 -40 129 -127 0 199 -622 169 0zm-167 379l132 0 -65 -218 -67 218zm573 -379l0 622 -145 0 0 -622 145 0zm271 377l0 245 -147 0 0 -622 274 0c50,0 90,6 121,18 30,12 56,33 76,65 20,31 30,66 30,104 0,75 -36,129 -108,161l114 274 -160 0 -96 -245 -104 0zm0 -265l0 159 89 0c29,0 51,-2 64,-7 13,-4 25,-13 35,-27 11,-14 16,-30 16,-48 0,-18 -5,-33 -16,-47 -10,-13 -21,-22 -34,-25 -12,-3 -35,-5 -68,-5l-86 0zm414 224l218 0 0 99 -218 0 0 -99z"/>
   </g>
   <path class="fil17" d="M4098 3708l19 0c1,0 3,0 5,1 9,2 14,12 12,22l-195 662c-1,8 -8,14 -17,14l-25 0 0 0c-8,0 -15,-5 -17,-13l-180 -590 -175 589c-2,8 -9,14 -18,14l-24 0 0 0c-7,0 -14,-5 -17,-13l-201 -662c-1,-2 -2,-4 -2,-6 0,-10 8,-18 18,-18l22 0c8,0 15,5 17,13l175 584 173 -583c2,-8 9,-14 17,-14l29 0 0 0c8,0 15,5 17,12l178 585 172 -583c1,-8 9,-14 17,-14zm250 0l17 0c8,0 14,4 17,11l266 662c1,2 2,5 2,8 0,10 -8,18 -18,18l-21 0c-7,0 -14,-5 -17,-11l-83 -208 -314 0 -84 206c-2,7 -9,13 -17,13l-21 0 0 0c-2,0 -5,-1 -7,-2 -9,-3 -13,-14 -10,-23l273 -662c2,-7 9,-12 17,-12zm-130 427l272 0 -134 -341 -138 341zm317 -427l501 0c10,0 18,8 18,18l0 17c0,10 -8,18 -18,18l-223 0 0 628c0,10 -8,18 -18,18l-19 0c-9,0 -17,-8 -17,-18l0 -628 -224 0c-10,0 -18,-8 -18,-18l0 -17c0,-10 8,-18 18,-18zm1085 402l17 0 2 0c9,1 17,10 16,19 -6,85 -41,158 -95,210 -55,52 -128,83 -211,83 -99,0 -176,-39 -230,-101 -59,-67 -89,-162 -89,-263 0,-108 32,-199 89,-263 57,-65 139,-103 235,-103 73,0 141,25 192,65 51,41 87,99 96,164 0,1 0,3 0,4 0,10 -8,18 -18,18l-17 0c-9,0 -16,-6 -18,-15 -11,-56 -40,-101 -80,-132 -43,-33 -98,-51 -158,-51 -79,0 -146,31 -192,86 -48,55 -75,133 -75,227 0,87 25,170 75,228 44,50 107,82 190,82 71,0 128,-24 171,-65 46,-43 74,-106 82,-176 0,-9 8,-17 18,-17zm571 -402l19 0c10,0 18,8 18,18l0 663c0,10 -8,18 -18,18l-19 0c-10,0 -18,-8 -18,-18l0 -320 -428 0 0 320c0,10 -8,18 -18,18l-20 0c-10,0 -18,-8 -18,-18l0 -663c0,-10 8,-18 18,-18l20 0c10,0 18,8 18,18l0 290 428 0 0 -290c0,-10 8,-18 18,-18z"/>
  </g>
 </g>
</svg>
