<?xml version="1.0" encoding="UTF-8"?>
<!DOCTYPE svg PUBLIC "-//W3C//DTD SVG 1.1//EN" "http://www.w3.org/Graphics/SVG/1.1/DTD/svg11.dtd">
<!-- Creator: CorelDRAW X8 -->
<svg xmlns="http://www.w3.org/2000/svg" xml:space="preserve" width="100%" height="100%" version="1.1" style="shape-rendering:geometricPrecision; text-rendering:geometricPrecision; image-rendering:optimizeQuality; fill-rule:evenodd; clip-rule:evenodd"
viewBox="0 0 9221 2697"
 xmlns:xlink="http://www.w3.org/1999/xlink">
 <defs>
  <style type="text/css">
   <![CDATA[
    .fil0 {fill:#301d0f}
    .fil1 {fill:#301d0f;fill-rule:nonzero}
   ]]>
  </style>
 </defs>
 <g id="Слой_x0020_1">
  <metadata id="CorelCorpID_0Corel-Layer"/>
  <g id="_2065194142480">
   <path class="fil0" d="M2190 777l0 351 423 0 0 103 -733 0 0 170 -104 0 0 -170 -310 0 0 -451 -235 0 0 1419 336 0 -36 -52c-42,-60 -65,-132 -65,-206l0 -306 1062 0 0 52c0,198 -149,365 -346,388l-18 2 -8 16c-9,19 -19,37 -31,54l-36 52 383 0 0 498 -2472 0 0 -2697 2472 0 0 447c0,154 -107,289 -257,324l-25 6zm0 1195l43 -15c82,-29 146,-93 175,-175l15 -43 -233 0 0 233zm-104 -233l-516 0 0 202c0,142 116,258 258,258 142,0 258,-116 258,-258l0 -202zm-855 854l1137 0 0 -290 -1137 0 0 290zm339 -1465l516 0 0 -348 -516 0 0 348zm798 -1024l-2264 0 0 2489 1024 0 0 -1916 1010 0c127,0 230,-104 230,-230l0 -343z"/>
   <path class="fil1" d="M3407 1220l0 -1005c90,-8 217,-13 382,-13 140,0 236,23 288,69 52,45 78,132 78,259 0,127 -25,213 -74,260 -49,46 -136,69 -263,69 -64,0 -127,-4 -189,-12l0 373 -222 0zm222 -532l154 0c59,-1 98,-12 118,-33 21,-21 31,-63 31,-125 0,-62 -10,-104 -31,-125 -20,-22 -59,-32 -118,-32l-154 1 0 314zm1342 358l9 163c-90,10 -246,15 -466,15 -67,0 -120,-18 -160,-55 -40,-36 -60,-85 -60,-147l0 -609c0,-62 20,-111 61,-147 40,-37 93,-55 159,-55 220,0 376,5 466,15l-9 164 -387 0c-24,0 -42,6 -52,18 -11,11 -16,30 -16,56l0 153 400 0 0 160 -400 0 0 194c0,27 5,46 16,58 10,12 28,17 52,17l387 0zm980 -831l213 0c53,0 81,28 83,83l38 922 -209 0 -32 -831 -27 0 -151 621c-10,48 -39,71 -89,71l-145 0c-50,0 -80,-23 -92,-71l-153 -621 -24 0 -30 831 -208 0 37 -922c2,-55 29,-83 83,-83l214 0c46,0 75,24 87,72l122 500c4,20 9,47 15,82 7,35 10,55 11,60l19 0c1,-5 5,-25 11,-60 7,-35 12,-62 15,-82l121 -500c11,-48 41,-72 91,-72zm581 93c63,-74 174,-111 335,-111 161,0 274,37 337,111 63,74 94,211 94,410 0,198 -31,335 -94,409 -63,74 -176,112 -337,112 -161,0 -272,-38 -335,-112 -63,-74 -94,-211 -94,-409 0,-199 31,-336 94,-410zm490 139c-27,-48 -79,-71 -155,-71 -75,0 -127,23 -155,71 -27,47 -41,138 -41,271 0,132 14,223 41,270 28,48 80,72 155,72 76,0 128,-24 155,-72 28,-47 42,-138 42,-270 0,-133 -14,-224 -42,-271zm1245 -232l0 1005 -222 0 0 -449 -354 0 0 449 -221 0 0 -1005 221 0 0 385 354 0 0 -385 222 0zm954 181l-300 0 0 824 -223 0 0 -824 -300 0 0 -181 823 0 0 181zm-4767 1998l19 165c-87,27 -194,40 -321,40 -156,0 -265,-38 -328,-116 -63,-78 -94,-212 -94,-403 0,-191 31,-326 94,-403 63,-78 172,-117 328,-117 112,0 213,11 301,34l-19 166c-79,-5 -173,-8 -282,-8 -73,0 -123,23 -149,69 -27,47 -41,133 -41,259 0,126 14,212 41,258 26,46 76,69 149,69 135,0 235,-4 302,-13zm208 -724c62,-74 174,-111 335,-111 161,0 273,37 336,111 64,74 95,211 95,410 0,199 -31,335 -95,409 -63,75 -175,112 -336,112 -161,0 -273,-37 -335,-112 -63,-74 -94,-210 -94,-409 0,-199 31,-336 94,-410zm490 139c-27,-47 -79,-71 -155,-71 -75,0 -127,24 -155,71 -27,48 -41,138 -41,271 0,133 14,223 41,270 28,48 80,72 155,72 76,0 128,-24 155,-72 28,-47 42,-137 42,-270 0,-133 -14,-223 -42,-271zm1103 -57l-360 0c-28,0 -48,6 -60,18 -12,11 -18,30 -18,57l0 171 384 0 0 162 -384 0 0 422 -223 0 0 -801c0,-64 20,-114 60,-152 41,-37 94,-56 161,-56 214,0 364,6 451,16l-11 163zm806 0l-360 0c-28,0 -48,6 -60,18 -12,11 -18,30 -18,57l0 171 384 0 0 162 -384 0 0 422 -223 0 0 -801c0,-64 20,-114 61,-152 40,-37 93,-56 160,-56 214,0 364,6 452,16l-12 163zm816 657l11 163c-92,9 -247,14 -466,14 -67,0 -120,-18 -160,-54 -40,-37 -60,-86 -61,-148l0 -608c1,-63 21,-112 61,-148 40,-37 93,-55 160,-55 219,0 374,5 466,15l-11 164 -385 0c-25,0 -42,6 -53,18 -10,11 -16,30 -16,57l0 152 401 0 0 160 -401 0 0 194c0,27 6,47 16,58 11,12 28,18 53,18l385 0zm839 0l10 163c-91,9 -247,14 -466,14 -67,0 -120,-18 -160,-54 -40,-37 -60,-86 -61,-148l0 -608c1,-63 21,-112 61,-148 40,-37 93,-55 160,-55 219,0 375,5 466,15l-10 164 -386 0c-24,0 -42,6 -52,18 -11,11 -16,30 -16,57l0 152 400 0 0 160 -400 0 0 194c0,27 5,47 16,58 10,12 28,18 52,18l386 0zm-5263 -47l58 0c28,0 48,5 59,16 11,11 17,30 17,58l0 70c0,28 -6,48 -17,59 -11,11 -31,17 -59,17l-58 0c-28,0 -48,-6 -59,-17 -11,-11 -17,-31 -17,-59l0 -70c0,-28 6,-47 17,-58 11,-11 31,-16 59,-16z"/>
   <path class="fil0" d="M1000 2124l-14 -12c0,-3 0,-7 0,-10l15 -10c2,-1 3,-3 2,-5l-6 -18c-1,-2 -3,-3 -5,-3l-18 2c-2,-2 -4,-5 -6,-7l3 -19c1,-2 0,-4 -2,-5l-17 -7c-1,-1 -4,-1 -5,1l-12 14c-3,0 -6,0 -10,0l-10 -15c-1,-2 -3,-3 -5,-2l-17 6c-2,1 -4,3 -3,5l1 18c-2,2 -5,4 -7,6l-18 -3c-2,0 -4,1 -5,2l-8 17c-1,2 0,4 2,5l14 12c-1,3 -1,7 -1,10l-15 10c-2,1 -3,3 -2,5l6 17c1,2 3,4 5,3l18 -1c2,2 4,5 7,7l-4 18c0,2 1,4 3,5l16 8c2,1 4,0 6,-1l11 -14c3,0 7,0 10,0l10 15c1,2 3,3 5,2l18 -6c2,-1 3,-3 3,-5l-2 -18c3,-2 5,-4 7,-7l19 4c2,1 4,0 5,-2l7 -17c1,-2 1,-4 -1,-5zm-83 0c-11,-5 -16,-19 -10,-30 5,-11 19,-16 30,-11 11,6 16,19 11,31 -6,11 -19,16 -31,10zm85 -239l-18 -4c-1,-3 -3,-6 -4,-9l9 -16c1,-2 1,-4 -1,-5l-13 -13c-1,-2 -3,-2 -5,-1l-16 9c-3,-1 -6,-3 -9,-4l-4 -18c-1,-2 -3,-3 -5,-3l-18 0c-2,0 -4,1 -4,3l-5 18c-3,1 -6,3 -9,4l-15 -9c-2,-1 -5,-1 -6,1l-13 13c-1,1 -2,3 -1,5l10 16c-2,3 -3,6 -4,9l-18 4c-2,1 -3,3 -3,5l0 18c0,2 1,4 3,4l18 5c1,3 2,6 4,9l-10 16c-1,1 0,4 1,5l13 13c1,2 4,2 6,1l15 -10c3,2 6,3 9,4l5 18c0,2 2,3 4,3l18 0c2,0 4,-1 5,-3l4 -18c3,-1 6,-2 9,-4l16 10c2,1 4,1 5,-1l13 -13c2,-1 2,-4 1,-5l-9 -16c1,-3 3,-6 4,-9l18 -5c2,0 3,-2 3,-4l0 -18c0,-2 -1,-4 -3,-5zm-75 37c-12,0 -23,-11 -23,-23 0,-13 11,-23 23,-23 13,0 23,10 23,23 0,12 -10,23 -23,23zm-58 -1417l-64 -16c-4,-12 -9,-23 -14,-33l33 -55c4,-7 3,-15 -2,-20l-46 -46c-5,-5 -13,-6 -20,-2l-55 33c-11,-5 -21,-10 -33,-14l-15 -64c-2,-7 -9,-12 -16,-12l-65 0c-7,0 -14,5 -16,12l-15 64c-11,4 -22,9 -33,14l-55 -33c-6,-4 -15,-3 -20,2l-46 46c-5,5 -6,13 -2,20l33 55c-5,10 -10,21 -13,33l-63 16c-7,1 -12,8 -12,15l0 65c0,7 5,14 12,15l63 16c3,11 8,22 13,33l-33 55c-4,6 -3,15 2,20l46 46c5,5 14,6 20,2l55 -33c11,5 22,10 33,13l15 63c2,7 9,12 16,12l65 0c7,0 14,-5 16,-12l15 -63c12,-3 22,-8 33,-13l55 33c7,4 15,3 20,-2l46 -46c5,-5 6,-14 2,-20l-33 -55c5,-11 10,-22 14,-33l64 -16c7,-1 12,-8 12,-15l0 -65c0,-7 -5,-14 -12,-15zm-264 128c-45,0 -81,-36 -81,-81 0,-44 36,-80 81,-80 44,0 80,36 80,80 0,45 -36,81 -80,81z"/>
  </g>
 </g>
</svg>
