<svg
        xmlns="http://www.w3.org/2000/svg"
        xmlns:xlink="http://www.w3.org/1999/xlink"
        width="48px" height="30px">
    <path fill-rule="evenodd"  fill="rgb(232, 61, 51)"
          d="M1.415,0.001 C0.817,0.001 0.332,0.481 0.332,1.072 C0.332,1.664 0.817,2.144 1.415,2.144 L31.698,2.144 L37.335,10.765 C37.463,10.957 37.657,11.106 37.876,11.183 L45.832,14.130 L45.832,24.642 L42.548,24.642 C42.282,22.236 40.208,20.357 37.708,20.357 C35.207,20.357 33.132,22.236 32.866,24.642 L15.465,24.642 C15.198,22.236 13.124,20.357 10.624,20.357 C8.123,20.357 6.049,22.236 5.783,24.642 L2.498,24.642 L2.498,1.214 C2.498,0.623 2.014,0.143 1.415,0.143 C0.817,0.143 0.332,0.623 0.332,1.214 L0.332,25.713 C0.332,26.274 0.848,26.785 1.415,26.785 L6.036,26.785 C6.711,28.652 8.515,29.999 10.624,29.999 C12.733,29.999 14.537,28.652 15.211,26.785 L33.119,26.785 C33.794,28.652 35.598,29.999 37.708,29.999 C39.816,29.999 41.620,28.652 42.294,26.785 L46.915,26.785 C47.483,26.785 47.999,26.274 47.999,25.713 L47.999,13.393 C47.999,12.958 47.701,12.538 47.287,12.389 L38.976,9.308 L33.205,0.487 C33.007,0.188 32.651,-0.001 32.290,0.001 L1.415,0.001 ZM10.624,22.500 C12.132,22.500 13.332,23.686 13.332,25.178 C13.332,26.670 12.132,27.856 10.624,27.856 C9.115,27.856 7.916,26.670 7.916,25.178 C7.916,23.686 9.115,22.500 10.624,22.500 ZM37.708,22.500 C39.216,22.500 40.415,23.686 40.415,25.178 C40.415,26.670 39.216,27.856 37.708,27.856 C36.198,27.856 34.999,26.670 34.999,25.178 C34.999,23.686 36.198,22.500 37.708,22.500 Z"/>
</svg>