<svg
        xmlns="http://www.w3.org/2000/svg"
        xmlns:xlink="http://www.w3.org/1999/xlink"
        width="35px" height="35px">
    <path fill-rule="evenodd"  fill="rgb(232, 61, 51)"
          d="M34.028,28.215 C34.564,28.215 34.999,28.649 34.999,29.186 C34.999,29.723 34.564,30.159 34.028,30.159 L29.170,30.159 C28.738,30.159 28.342,29.856 28.230,29.438 L26.973,24.743 C26.834,24.224 27.142,23.691 27.661,23.552 C28.179,23.414 28.711,23.721 28.850,24.239 L29.643,27.197 C31.840,24.451 33.035,21.068 33.035,17.500 C33.035,8.923 26.061,1.944 17.489,1.944 C8.916,1.944 1.942,8.923 1.942,17.500 C1.942,26.077 8.916,33.055 17.489,33.055 C18.025,33.055 18.460,33.490 18.460,34.027 C18.460,34.565 18.025,35.000 17.489,35.000 C7.845,35.000 -0.001,27.149 -0.001,17.500 C-0.001,7.850 7.845,-0.000 17.489,-0.000 C27.133,-0.000 34.979,7.850 34.979,17.500 C34.979,21.430 33.688,25.160 31.314,28.215 L34.028,28.215 ZM10.353,28.204 C9.406,28.204 8.516,27.835 7.847,27.166 C7.178,26.496 6.810,25.605 6.810,24.658 C6.810,23.711 7.178,22.820 7.848,22.151 L16.586,13.408 C16.296,11.118 17.402,8.798 19.399,7.622 C21.245,6.534 23.534,6.549 25.372,7.659 C25.733,7.877 25.956,8.276 25.952,8.700 C25.948,9.123 25.718,9.517 25.352,9.729 L23.321,10.902 L23.326,12.088 L24.350,12.685 L26.381,11.512 C26.747,11.300 27.203,11.299 27.572,11.507 C27.940,11.715 28.174,12.108 28.182,12.530 C28.224,14.658 27.109,16.638 25.272,17.700 C24.149,18.348 22.861,18.600 21.590,18.430 L12.859,27.166 C12.189,27.835 11.299,28.204 10.353,28.204 ZM21.482,16.436 C22.444,16.659 23.446,16.509 24.301,16.016 C25.105,15.551 25.701,14.821 26.008,13.973 L24.345,14.933 L21.388,13.208 L21.373,9.783 L23.037,8.821 C22.810,8.780 22.581,8.760 22.351,8.760 C21.671,8.760 20.992,8.939 20.384,9.297 C18.949,10.143 18.206,11.880 18.577,13.524 L18.695,14.047 L9.221,23.526 C8.919,23.828 8.753,24.231 8.753,24.658 C8.753,25.086 8.919,25.488 9.221,25.790 C9.524,26.093 9.926,26.260 10.353,26.260 C10.780,26.260 11.183,26.093 11.484,25.791 L20.956,16.314 L21.482,16.436 Z"/>
</svg>