<svg
        xmlns="http://www.w3.org/2000/svg"
        xmlns:xlink="http://www.w3.org/1999/xlink"
        width="17px" height="17px">
    <path fill-rule="evenodd"  fill="rgb(232, 61, 51)"
          d="M8.498,16.998 C3.812,16.998 -0.002,13.185 -0.002,8.499 C-0.002,3.811 3.812,-0.002 8.498,-0.002 C13.185,-0.002 16.999,3.811 16.999,8.499 C16.999,13.185 13.185,16.998 8.498,16.998 ZM8.498,0.953 C4.338,0.953 0.953,4.338 0.953,8.499 C0.953,12.658 4.338,16.044 8.498,16.044 C12.658,16.044 16.043,12.658 16.043,8.499 C16.043,4.338 12.658,0.953 8.498,0.953 ZM10.597,11.998 C9.977,11.998 9.317,11.822 8.636,11.476 C8.009,11.157 7.388,10.699 6.842,10.154 C6.296,9.607 5.840,8.986 5.520,8.358 C5.174,7.678 4.998,7.018 4.998,6.398 C4.998,5.997 5.373,5.608 5.534,5.460 C5.765,5.248 6.129,4.998 6.395,4.998 C6.526,4.998 6.680,5.084 6.881,5.269 C7.029,5.407 7.197,5.594 7.364,5.809 C7.466,5.939 7.970,6.605 7.970,6.923 C7.970,7.185 7.674,7.367 7.361,7.560 C7.240,7.633 7.115,7.709 7.025,7.783 C6.928,7.860 6.910,7.901 6.908,7.910 C7.240,8.738 8.257,9.754 9.084,10.085 C9.092,10.083 9.132,10.066 9.212,9.969 C9.285,9.878 9.362,9.753 9.436,9.632 C9.629,9.320 9.810,9.024 10.071,9.024 C10.391,9.024 11.056,9.528 11.186,9.629 C11.402,9.797 11.589,9.964 11.727,10.114 C11.912,10.313 11.997,10.466 11.997,10.598 C11.997,10.864 11.749,11.229 11.536,11.461 C11.388,11.622 11.000,11.998 10.597,11.998 ZM10.597,11.998 C10.597,11.998 10.597,11.998 10.597,11.998 C10.597,11.998 10.598,11.998 10.598,11.998 L10.597,11.998 Z"/>
</svg>