<svg
        xmlns="http://www.w3.org/2000/svg"
        xmlns:xlink="http://www.w3.org/1999/xlink"
        width="17px" height="17px">
    <path fill-rule="evenodd"  fill="rgb(232, 61, 51)"
          d="M8.498,-0.002 C3.811,-0.002 -0.002,3.811 -0.002,8.498 C-0.002,13.185 3.811,16.998 8.498,16.998 C13.185,16.998 16.998,13.185 16.998,8.498 C16.998,3.811 13.185,-0.002 8.498,-0.002 ZM8.498,16.044 C4.338,16.044 0.954,12.658 0.954,8.498 C0.954,4.338 4.338,0.953 8.498,0.953 C12.658,0.953 16.043,4.338 16.043,8.498 C16.043,12.658 12.658,16.044 8.498,16.044 ZM8.880,2.641 C8.617,2.641 8.403,2.854 8.403,3.117 L8.403,8.594 L4.200,8.594 C3.937,8.594 3.723,8.807 3.723,9.071 C3.723,9.335 3.937,9.549 4.200,9.549 L8.880,9.549 C9.144,9.549 9.358,9.335 9.358,9.071 L9.358,3.117 C9.358,2.854 9.144,2.641 8.880,2.641 Z"/>
</svg>