<?xml version="1.0" encoding="UTF-8"?>
<!DOCTYPE svg PUBLIC "-//W3C//DTD SVG 1.1//EN" "http://www.w3.org/Graphics/SVG/1.1/DTD/svg11.dtd">
<!-- Creator: CorelDRAW X8 -->
<svg xmlns="http://www.w3.org/2000/svg" xml:space="preserve" width="100%" height="100%" version="1.1" style="shape-rendering:geometricPrecision; text-rendering:geometricPrecision; image-rendering:optimizeQuality; fill-rule:evenodd; clip-rule:evenodd"
viewBox="0 0 21000 23808"
 xmlns:xlink="http://www.w3.org/1999/xlink">
 <defs>
  <style type="text/css">
   <![CDATA[
    .fil0 {fill:none}
    .fil1 {fill:#FEFEFE}
    .fil3 {fill:#96989A}
    .fil2 {fill:#434A54}
    .fil4 {fill:#8CC153}
    .fil8 {fill:#D0D7DA}
    .fil7 {fill:#E2E4E6}
    .fil6 {fill:#F6BB42}
    .fil5 {fill:#FFCE54}
   ]]>
  </style>
 </defs>
 <g id="Слой_x0020_1">
  <metadata id="CorelCorpID_0Corel-Layer"/>
  <rect class="fil0" width="21000" height="23808"/>
  <path class="fil1" d="M19503 9840l0 9825c378,99 656,444 656,852 0,411 0,821 0,1231 0,804 -652,1456 -1456,1456 -5660,0 -11320,0 -16980,0 -487,0 -882,-395 -882,-882l0 -1805c0,-408 278,-753 656,-852l0 -9825c-395,-261 -656,-709 -656,-1217l0 -6563c0,-804 652,-1456 1456,-1456l16406 0c804,0 1456,652 1456,1456l0 6563c0,509 -261,956 -656,1217z"/>
  <g id="_2400820921696">
   <path class="fil2" d="M18703 1404l-16406 0c-363,0 -656,294 -656,656l0 6563c0,362 293,656 656,656l16406 0c363,0 656,-294 656,-656l0 -6563c0,-362 -293,-656 -656,-656zm-5250 5250l-5906 0c-181,0 -328,-147 -328,-328l0 -2297c0,-181 147,-328 328,-328l5906 0c181,0 328,147 328,328l0 2297c0,181 -147,328 -328,328z"/>
   <polygon class="fil2" points="2297,20435 18703,20435 18703,9279 2297,9279 "/>
   <path class="fil3" d="M16078 5670c-305,0 -560,-210 -633,-492 -14,52 -23,107 -23,164 0,362 294,656 656,656 363,0 656,-294 656,-656 0,-57 -9,-112 -23,-164 -73,282 -327,492 -633,492z"/>
   <path class="fil4" d="M16734 5214c0,362 -293,656 -656,656 -362,0 -656,-294 -656,-656 0,-363 294,-657 656,-657 363,0 656,294 656,657z"/>
   <path class="fil3" d="M4922 5670c-306,0 -560,-210 -633,-492 -14,52 -23,107 -23,164 0,362 293,656 656,656 362,0 656,-294 656,-656 0,-57 -9,-112 -23,-164 -73,282 -328,492 -633,492z"/>
   <path class="fil4" d="M5578 5214c0,362 -294,656 -656,656 -363,0 -656,-294 -656,-656 0,-363 293,-657 656,-657 362,0 656,294 656,657z"/>
   <path class="fil5" d="M13453 6654l-5906 0c-181,0 -328,-147 -328,-328l0 -1969 6562 0 0 1969c0,181 -147,328 -328,328z"/>
   <path class="fil6" d="M13781 4357l-6562 0 0 -328c0,-181 147,-328 328,-328l5906 0c181,0 328,147 328,328l0 328z"/>
   <path class="fil6" d="M18703 22404l-16980 0c-46,0 -82,-37 -82,-82l0 -1805c0,-45 36,-82 82,-82l17554 0c46,0 82,37 82,82l0 1231 -656 0 0 656z"/>
   <path class="fil7" d="M7547 14529l0 5250c0,363 294,656 656,656l4594 0c362,0 656,-293 656,-656l0 -984 656 0c905,0 1641,-736 1641,-1641 0,-904 -736,-1640 -1641,-1640l-656 0 0 -985 -5906 0zm5906 1641l656 0c543,0 985,441 985,984 0,543 -442,985 -985,985l-656 0 0 -1969z"/>
   <path class="fil3" d="M9516 13545l0 0c-182,0 -329,-147 -329,-328l0 -985 657 0 0 985c0,181 -147,328 -328,328z"/>
   <path class="fil3" d="M11484 13545l0 0c-181,0 -328,-147 -328,-328l0 -985 657 0 0 985c0,181 -147,328 -329,328z"/>
   <path class="fil4" d="M17555 10592l-2789 0c-725,0 -1313,-588 -1313,-1313l0 0 -5906 0 0 2625c0,181 147,328 328,328l5250 0c181,0 328,-147 328,-328l0 0c0,-181 147,-328 328,-328l3774 0c272,0 492,-220 492,-492 0,-272 -220,-492 -492,-492z"/>
   <path class="fil3" d="M18703 2717l0 5250c0,362 -294,656 -656,656l-15094 0c-362,0 -656,294 -656,656l0 0 12141 0 656 0 3609 0c363,0 656,-294 656,-656l0 -6563 0 0c-362,0 -656,294 -656,657z"/>
   <path class="fil3" d="M18703 21748l0 0 -15750 0c-362,0 -656,294 -656,656l0 0 12469 0 656 0 3281 0c363,0 656,-294 656,-656l0 -656 0 0c-362,0 -656,293 -656,656z"/>
   <path class="fil8" d="M14036 15514l-255 0c-181,0 -328,-147 -328,-329l0 -656 -328 0c-725,0 -1312,588 -1312,1313l0 3609c0,181 -147,328 -329,328l-3937 0c0,363 294,656 656,656l4594 0c362,0 656,-293 656,-656l0 -656c0,-181 147,-328 328,-328l328 0c959,0 1728,-827 1633,-1805 -83,-852 -850,-1476 -1706,-1476zm35 2625l-290 0c-181,0 -328,-147 -328,-329l0 -1312c0,-181 147,-328 328,-328l328 0c607,0 1088,552 966,1180 -91,468 -528,789 -1004,789z"/>
  </g>
 </g>
</svg>
