<svg id="Слой_1" xmlns="http://www.w3.org/2000/svg" viewBox="0 0 48 53"><style>.st0{fill:none}.st1{fill:#fff}.st2{fill:#ba936a}</style><title>calendar-icon</title><path class="st0" d="M2.1 48.6c0 1.4 1.2 2.6 2.6 2.6h38.6c1.4 0 2.6-1.2 2.6-2.6V19H2.1v29.6zM30 28.4h3.5v3.5H30v-3.5zm0 8h3.5v3.5H30v-3.5zm-7.9-8h3.5v3.5h-3.5v-3.5zm0 8h3.5v3.5h-3.5v-3.5zm-7.9-8h3.5v3.5h-3.5v-3.5zm0 8h3.5v3.5h-3.5v-3.5z"/><path class="st1" d="M43.3 5.6h-7.6V0h-1.8v5.6h-5.1v1.8h5.1v5h1.8v-5h7.6c1.4 0 2.6 1.2 2.6 2.6v7.1H2.1V10c0-1.4 1.2-2.6 2.6-2.6h7.5v5H14V0h-1.8v5.6H4.7C2.3 5.6.3 7.6.3 10v38.6c0 2.4 2 4.4 4.4 4.4h38.6c2.4 0 4.4-2 4.4-4.4V10c0-2.4-2-4.4-4.4-4.4zm2.6 43c0 1.4-1.2 2.6-2.6 2.6H4.7c-1.4 0-2.6-1.2-2.6-2.6V19h43.7l.1 29.6z"/><path class="st1" d="M23.1 12.4h1.8V0h-1.8v5.6h-5.3v1.8h5.3z"/><path class="st2" d="M14.2 28.4h3.5v3.5h-3.5zm7.9 0h3.5v3.5h-3.5zm7.9 0h3.5v3.5H30zm0 7.9h3.5v3.5H30zm-7.9 0h3.5v3.5h-3.5zm-7.9 0h3.5v3.5h-3.5z"/></svg>