<svg id="Слой_1" xmlns="http://www.w3.org/2000/svg" viewBox="0 0 71 46"><style>.st0{fill:#ba936a}.st1{fill:#fff}.st2{fill:none;stroke:#fff;stroke-width:1.2;stroke-miterlimit:10}</style><title>credit-icon</title><circle class="st0" cx="9.3" cy="32.6" r="2.8"/><circle class="st0" cx="14.2" cy="32.6" r="2.8"/><path class="st1" d="M67.1 10.4c-.8-1.9-16.3-8.6-29.9-8.7-5.5 0-12.5 1.1-14.8 6.6l-1.6-.7c2.1-5 7.8-7.7 16.4-7.6 13 .1 30.1 6.5 31.5 9.8l-1.6.6z"/><path class="st1" d="M40.9 41.9H3c-1.7 0-3-1.4-3-3V10.5c0-1.7 1.4-3 3-3h39.6c1.7 0 3 1.4 3 3v4H44v-4c0-.7-.6-1.3-1.3-1.3H3c-.7 0-1.3.6-1.3 1.3v28.4c0 .7.6 1.3 1.3 1.3h38l-.1 1.7zm4.8-3.7h-1.8l1.8-.1zm-1.8-.7h1.7v.4h-1.7z"/><path class="st1" d="M43.9 26.6h1.7v10.9h-1.7zM33.2 15.8h.5v1.7h-.5zm-.3 0h.3v1.7h-.3zm-31.7 0h31.7v1.7H1.2zm0 7h26v1.7h-26z"/><path class="st1" d="M36.4 46c-1.2 0-4-.5-4-4.9h1.7c0 2.9 1.3 3.2 2.3 3.2s1.9-.9 3-2.7c2-2.3 4.4-4.2 7-5.7 3.7-2 7.9-3.2 12.1-3.3-3.1-1.3-6-3.2-8.6-5.5-2.9.4-12.9 1.8-14.8 1.7-5.6-.2-8.9-2.4-9.2-6.1-.3-4 4.5-6 7.4-6.9l.5 1.6c-1.9.6-6.4 2.2-6.2 5.1.3 3.8 5.4 4.4 7.6 4.5 1.8 0 12.7-1.4 14.9-1.8l.5-.1.3.4c3.8 3.5 8.5 5.9 13.5 6.9 1.1 0 1.7.1 1.9.1l-.1 1.7c-.6 0-1.2-.1-1.8-.1-3.6-.1-11.8-.1-17.2 3.2-2.4 1.4-4.5 3.1-6.4 5.1-.5 1-2.1 3.6-4.4 3.6z"/><path class="st1" d="M33.8 17.5l-.5-1.6c1-.3 1.6-.4 1.6-.4L51.7 12l.3 1.7-16.8 3.4c.1 0-.5.1-1.4.4z"/></svg>