<svg id="Слой_1" xmlns="http://www.w3.org/2000/svg" viewBox="0 0 42 61"><style>.st0{fill:none}.st1{fill:#ba936a}.st2{fill:#fff}</style><title>phone-icon</title><path class="st0" d="M1.8 54.9c0 2.1 1.7 3.9 3.9 3.9h23c2.1 0 3.9-1.7 3.9-3.9v-5.8H1.8v5.8zM17.1 52c1.1 0 1.9.9 1.9 1.9 0 1.1-.9 1.9-1.9 1.9-1.1 0-1.9-.9-1.9-1.9 0-1 .9-1.9 1.9-1.9z"/><circle class="st0" cx="33.4" cy="26" r="3.4"/><path class="st0" d="M32.5 6.1c0-2.1-1.7-3.9-3.9-3.9h-23C3.5 2.2 1.8 4 1.8 6.1v5.8h30.7V6.1z"/><path class="st1" d="M42 25c-.1-.3-.3-.4-.5-.4-1.1 0-1.9-.8-1.9-1.9 0-.5.2-1.1.6-1.4.2-.2.2-.5 0-.7-.4-.5-.9-1-1.4-1.4-.2-.2-.5-.2-.7 0-.6.6-1.4.8-2.1.5-.7-.3-1.2-1.1-1.2-1.9 0-.3-.2-.5-.4-.5-.6-.1-1.3-.1-1.9 0-.2 0-.4.2-.4.5 0 .8-.4 1.5-1.2 1.8-.7.3-1.6.1-2.1-.5-.2-.2-.5-.2-.7 0-.5.4-1 .9-1.4 1.4-.2.2-.2.5 0 .7.6.5.8 1.4.5 2.2-.3.7-1.1 1.2-1.9 1.2-.3 0-.5.2-.5.4-.1.7-.1 1.3 0 2 .1.3.3.4.6.4.8 0 1.5.5 1.8 1.2.3.7.1 1.6-.5 2.1-.2.2-.2.5 0 .7.4.5.9 1 1.4 1.4.2.2.5.2.7 0 .6-.6 1.4-.8 2.1-.5.7.3 1.2 1.1 1.2 1.9 0 .3.2.5.4.5.6.1 1.3.1 1.9 0 .2 0 .4-.2.4-.5 0-.8.4-1.5 1.2-1.8.7-.3 1.6-.1 2.1.5.2.2.5.2.7 0 .5-.4 1-.9 1.4-1.4.2-.2.2-.5 0-.7-.8-.7-.8-1.9-.1-2.7.4-.4.9-.6 1.4-.6h.1c.3 0 .5-.2.5-.4-.1-.8-.1-1.4-.1-2.1zm-8.6 4.5c-1.9 0-3.4-1.5-3.4-3.4s1.5-3.4 3.4-3.4 3.4 1.5 3.4 3.4c0 1.8-1.5 3.3-3.4 3.4z"/><circle class="st2" cx="17.1" cy="53.9" r="1.9"/><path class="st2" d="M32.5 47.4H1.8V13.7h32.5V6.1C34.3 3 31.8.4 28.6.4h-23C2.5.5 0 3 0 6.1v48.8c0 3.1 2.5 5.7 5.7 5.7h23c3.1 0 5.7-2.5 5.7-5.7V38.6h-1.8l-.1 8.8zM1.8 11.9V6.2c0-2.1 1.7-3.9 3.9-3.9h23c2.1 0 3.9 1.7 3.9 3.9v5.7H1.8zm30.7 43c0 2.1-1.7 3.9-3.9 3.9h-23c-2.1 0-3.9-1.7-3.9-3.9v-5.8h30.7v5.8z"/></svg>