<svg id="Слой_1" xmlns="http://www.w3.org/2000/svg" viewBox="0 0 652 647"><style>.st0{fill:#040404}.st1{fill:#ba936a}</style><path class="st0" d="M650.1-523.5c-16.8-6.4-35.7-13.6-39.5-30.6-1.7-7.4.2-15.2-.4-22.8-.5-7.6-5-16.1-12.6-16.8-10.1-.9-15.4 12-15 22.1.4 10.1 3 21.5-3.3 29.4-5.9 7.4-16.7 8-26.1 7.9-140.9-.3-281.7-.7-422.6-1-7.7 0-15.9.1-22.5 4.1s-10.4 13.6-5.8 19.7c3.9 5.2 11.3 5.6 17.8 5.6 119.5 0 239 0 358.5.1 4.2 0 8.7.1 12 2.8 3.9 3.3 4.3 9 4.4 14.1 1.3 106-29.7 214.9-100 294.2-15.7 17.7-33.6 34.1-55.3 43.3-18.6 7.9-39 10.2-59.2 10.4-28.4.2-57.5-3.8-82.9-16.7-28.6-14.5-50.7-39.1-69.7-64.9-68.2-93.1-103.2-210-97.3-325.2.3-4.9.7-10.1 3.5-14.1 4.9-6.8 14.5-7.4 22.9-7.4 142.9.3 285.9.7 428.8 1 8.9 0 18.7-.2 25.7-5.7s8.4-18.5.4-22.5c-2.8-1.4-6-1.4-9-1.4l-473.4-.6c-5.4 0-11 0-16.1 2C-.9-590.8.9-576.5.3-564.1c-1 18.2 0 36.7 1 54.9 2 36.9 6.7 73.7 14.9 109.7 4.1 18 9 35.8 14.9 53.3C54.7-275.2 94.4-209 150-159.3c21.2 19 45.6 35.9 73.5 41.6 25.6 5.2 52.1.4 78.3.3 30.1-.1 60.6 6 90.2.3 36.5-7 67.7-31.4 91.2-60.1 8.6-10.4 16.5-21.7 27.4-29.6 29-21.3 69.1-13.6 104.9-17.6 68-7.4 127.3-65.3 136.3-133.2 9-67.9-33.1-139.2-96.9-164.1-1.7-.6-3.2-1.2-4.8-1.8zm-230 365.2c-9.1 6.7-17.7 15.9-32.5 13.2 1.3-4.2 1.3-7.7 3.1-9.2 95.2-84.6 128.7-195 132.5-317.7 1-30.5 23.4-44.6 51.3-33.4 7.8 3.1 7.3 8.6 6.8 14.5-13.1 130.5-48.5 250.3-161.2 332.6zm302.3-201.8c-5.8 54.7-53.8 102.9-110.3 108.7-21.9 2.2-44.2.4-66.4.4 1.2-27.3 18.8-27.3 38.4-27.5 59.3-.4 98.3-30 109.5-80.6 5.1-23 .6-44.3-9.8-64.5-3.1-6-5.2-18.1-16.1-12.4-8 4.2-15.7 9.1-10.6 23.7 24.3 69-11.8 112.2-87.5 103.9 22.8-58.1 35.2-118.2 40.1-179.8 2-25.4 18.2-12.9 27.8-9.8 57.4 18.2 91.6 74.8 84.9 137.9zM-1294.7-91.9h449.5c23.2 0 49-1 65.5-17.2 15.9-15.6 18-40.2 18.8-62.5 2.4-64.5 2.8-129.1 1.2-193.6-.3-10.6-.6-21.4 2-31.7 3.8-15.1 13.4-27.9 21.1-41.4 19.1-33.5 26.8-73.4 21.6-111.7-1.1-8.3-3-16.7-8-23.4-10.6-14-30.8-15.2-48.3-15.1l-361.1 1.8c-11.4.1-24.6-.8-31.1-10.2-4.3-6.2-4.2-14.4-3.9-22 .8-18.8 1.5-37.6 2.3-56.4.2-4.1.4-8.4 2.5-11.9 4.3-7.1 14.1-7.9 22.4-7.8l291.7.6c7.5 0 15.3-.1 21.7-3.9 6.4-3.8 10.4-12.7 6.4-19-3.8-5.8-11.9-6.4-18.8-6.4l-300.9.3c-7.1 0-14.9-.2-20.3-4.9-3.7-3.3-5.6-8.2-6.5-13-3.4-17.9 5.7-37.5 21.6-46.4 13-7.3 28.6-7.6 43.6-7.7 87.5-.4 175-.4 262.6.1 15.4.1 33 1.3 42.2 13.5 5.7 7.5 6.7 17.5 7.3 26.9 2.3 35.4 2.2 70.9-.2 106.2-.6 9-1.3 18.5 2.9 26.4 4.2 7.9 15.3 12.9 22.4 7.5 5.7-4.3 6.2-12.6 6.1-19.8-.2-32-.4-64.1-.5-96.1-.2-28.5-2.1-61-24.1-79.1-17.3-14.3-41.8-15-64.3-15-83.9-.1-167.8-.1-251.6-.2-27.6 0-58.6 1.4-77.4 21.6-16.9 18.3-17.9 45.9-17.9 70.8 0 41.3.1 82.6.1 123.9 0 6.9-.5 14.8-5.9 19-6.4 5-16 2.1-23.2 5.8-5.7 3-8.6 9.4-10.5 15.5-6.2 20-6.5 41.4-4.4 62.2 2.6 26.5 9.1 53.4 24.3 75.3 22.9 33 64.8 50.9 104.8 47.2 40-3.7 77-27.9 98.6-61.7 13.3-20.8 21.2-44.9 36.2-64.6 12.7 32.5 26 66.1 50.8 90.7 29.9 29.8 75.3 43 116.5 33.9 6-1.3 13.6-2.5 17.1 2.6a456079976187900900 456079976187900900 0 0 1-13 137.4c-101.7 0-203.4 0-305.1-.1-9 0-20.4 1.6-23 10.3-1.9 6.3 2.7 13.1 8.5 16 5.9 2.9 12.7 3 19.3 2.9 97.5-.4 194.9-.7 292.4-1.1 5.6 0 11.5.1 16.2 3 4 2.5 6.5 6.9 8.4 11.3 12.2 29-3.7 66.6-33.1 78-13.7 5.3-28.8 5.3-43.4 5.3-84.5-.2-169-.4-253.6-.7-12.7 0-26.6-.5-36.2-8.7-11.9-10.1-12.9-27.9-12.9-43.6 0-56.3-.1-112.7-.1-169 0-9-1.8-20.4-10.5-22.6-11.9-3.1-17.8 14-18 26.3-1.1 71.8-2.1 144 7.5 215.2-23.3 3.8-51.9 5.5-65.6-13.7-7.7-10.8-8-25-8-38.3.4-190.9.9-381.7 1.3-572.6 0-15.2 1.8-33.5 15.3-40.4 7.2-3.7 16.5-3.3 22.1-9.1 7.5-7.7 2.2-22.1-7.7-26.2-9.9-4.1-21.6-.2-30.1 6.3-26.4 20.2-28.7 58.3-28.8 91.6-.2 167.8-.5 335.5-.7 503.3 0 33.6 0 67.7 9.7 99.8-19.5 1.8-42.7 2.1-54.6-13.5-7.8-10.1-8.1-24-8.1-36.7l.3-569.4c0-17.4 1.8-38 16.9-46.6 8.9-5.1 21.7-5.5 26.1-14.7 4.2-8.7-3.8-19.5-13.3-21.3-9.5-1.8-19.1 2.9-26.7 8.8-38.1 29.5-31.4 76.7-31.5 119.4-.1 51.5-.1 103-.1 154.6.1 103 .5 206.1 1.2 309.1.1 17.5.3 35 .4 52.5.2 28.1 2.7 60.7 25.6 76.9 14 9.8 31.3 11 48 11.2zm484.8-320c-42.3 5.1-80.7-3.3-106.6-41.9-11.4-17-18.3-35.8-25.5-54.7-6-15.7-15-30-34-30s-27.6 14.8-34.6 29.8c-6.4 13.7-11 28.3-18.4 41.4-23 41.2-62.5 60.6-109.2 54.6-22.5-2.9-39.6-14.3-51.8-33.2-8.9-13.9-13.2-29.4-16.6-45.3-13.2-62.5-9-67.9 52.9-67.9h176c68.8 0 137.6 1.2 206.3-.7 24.1-.7 30.3 9.1 29.2 29.4-.8 14.1-1.7 28.3-4.2 42.2-7.5 42.3-31.3 72.5-63.5 76.3zM-3480.4-118c58.4-.1 90.2-31.8 90.5-89.9.5-84 .5-168 .4-252-.1-57.3-28.7-87.9-86.3-90.5-15.7-.7-20-5.9-22.3-20.6-20.6-132.8-127.6-227.8-257-229.2-141-1.6-249.7 86.9-273.6 224.3-3.4 19.4-9.4 25.9-29.9 25.5-53.7-.9-77.8 17.7-91.3 65.3 0 28.7 0 57.5.1 86.2l.9 218.9c14.9 43.4 39.1 61.7 85.6 61.8 194.3.4 388.6.5 582.9.2zm-521-451.7c14-99.2 96.7-182.6 198.5-199.1 129.4-21 257.4 68.6 275 193.1 1.2 8.2 13.2 22.4-8.4 25-17.4 2.1-15.6-9.3-17.8-20.3-29.7-148.1-192.3-221-319.9-143.5-10.9 6.6-28.9 11.7-10.3 30.1 12.6 12.5 17.9-1.5 25-5.6 105.9-61.7 241.5-7.7 273.3 108.6 6.2 22.6 4.6 32.8-23.1 31.2-38.3-2.3-77-1.4-115.4-.2-17.5.6-22.4-5.3-21.7-22.3 1.3-34.9.4-69.9.4-111.9-26.5 22.5-46.6 39.4-66.6 56.4-8.2 7-18.8 12-6.6 25.9 13.1 14.9 18.4.3 26.6-4.6 4.9-2.9 7.3-10 17.9-8.6 0 16.4-.9 33.2.3 50 1.1 16.2-9 14.7-19.4 14.7-63.8-.1-127.6-.5-191.4.3-15.6.1-18.5-4.5-16.4-19.2zm418.6 70.4c-14.9 80.5-93.1 144-179.4 144.2-89.1.2-166.2-61.9-182-144.3-4.1-21.1 3.3-23.4 21.1-23.2 53.6.9 107.2.3 160.8.3 52.6 0 105.2.7 157.8-.4 18.4-.3 25.4 3.1 21.7 23.4zm-541 285.9v-244.1c0-21 2.7-47.3 25.1-55.1 29.2-10 61.5-13.1 92.1-10.6 9 .7 18.5 2.2 25.5 7.9 9.4 7.7 11.9 20.8 14.9 32.6 15.3 61.2 60.6 113.9 118.4 138.9s127 22 182.8-7.5c55.7-29.5 97.1-84.5 110.5-146.1 1.5-7 2.9-14.5 7.6-19.9 4.7-5.4 14.2-7.4 18.9-1.9 3.4 3.9 3 9.7 2.2 14.8-11.9 79.1-66.2 150.5-139.2 183.2-73 32.7-162.4 25.6-229.4-18.3-7.7-5-15.7-10.7-24.9-10.4-9.1.3-18.2 10.3-13.7 18.3 1.3 2.3 3.4 4 5.5 5.5 53.7 40.4 122.8 59.9 189.7 53.3 66.9-6.6 130.9-39.1 175.6-89.3 12.3-13.8 23.4-29 38.4-39.8-.5 63.6-.9 127.1-1.4 190.7-.1 9.1 1.5 20.6 10.2 23.3 6.4 2 13.4-2.6 16.4-8.6 3-6 3.1-13 3-19.7l-1.2-282.3c0-5.9.1-12.3 3.9-16.8 4.1-4.9 11-6 17.4-6.1 20-.4 41.8 7.8 50.7 25.7 4.9 10 5.2 21.5 5.4 32.7 1.4 86 1.4 172 0 257.9-.2 14.1-.8 29.2-9.2 40.5-12.7 17.3-37.5 18.9-59 18.9l-492.8.6c-5.1 0-10.5-.1-14.6-3.1-5.9-4.4-6.4-12.8-6.4-20.1-.3-96.9-.5-193.9-.8-290.8 0-5.3-.2-11.2-3.8-15.2-6-6.7-18-3.4-23 4.1s-5 17.1-4.8 26.1c1.9 89.5 3.9 178.9 5.8 268.4.2 10.3-.5 22.5-9.2 28-4.6 2.9-10.3 3.1-15.7 3-24.3-.3-52.1-5.8-64.1-26.9-6.8-11.9-7-26.4-7-40.1.2-.6.2-1.2.2-1.7zM-2771.2-360c19.7-10.6 39.4-20.3 58.1-31.5 12-7.1 19-6.8 25.6 6.9 6.2 12.9 8.1 21-7.8 28.2-20.1 9.1-39 21.1-58.5 31.8 33.8 51.2 111.5 54.6 149.6 16.4 24.7-24.8 36.7-15.8 54.2 6 49.3 61.4 100.2 121.6 152 184.2 52.1-61.9 103.4-121.7 153.1-182.8 13.5-16.6 20.1-19.2 39.1-4.9 36.3 27.3 78.5 32.2 119.9 9.6 37-20.2 54.2-53.5 53.5-95.2-.5-30.5-4-31.9-30.1-17.7-10.6 5.8-21.5 11.3-31.9 17.4-11.1 6.6-19.7 11.9-28.2-5.2-7.7-15.5-5.7-22.3 10.1-29.2 18.2-8 34.9-19.1 55.8-30.9-38.2-16-29.4-34.6-9.1-55.1 9.2-9.3 15.8-21.1 24.7-30.7 9.5-10.2 8.4-17.6-.4-28.2-49.2-59-97.8-118.5-146.2-178.2-8.5-10.5-18-14.2-31.3-14.2-118.4.4-236.8.5-355.2.1-13.1 0-22.3 3-31 13.9-47.7 60.2-96 120-145.1 179.1-9.1 11-9.5 17.3.5 27.4 17.2 17.5 32.9 36.4 49.7 55.1-63.6 33.4-85.1 71.9-71.1 127.7zm430.2 131.5c-1.1-33.5 8.9-62.8 22.6-89.5 8.9-17.3 31.4-3.8 47.4-7.6 1.7 2.2 3.3 4.3 5 6.5l-75 90.6zm122.5-463.8c1.6-10.1-1.2-25.1 10.7-28.5 10.9-3.1 15.7 10.9 21.8 18.1 35.7 42.4 70.5 85.4 110.5 134.2-38.7 0-70.8-.1-102.9 0-8.9 0-18.8-2-18.8 12.5 0 13.8 8.4 13.4 18.2 13.3 32.2-.3 64.3-.1 104.6-.1-26.1 26-34.3 60.4-76 57.9-20.5-1.2-38.5 10.5-53.4 25.4-5.7 5.7-11.5 14.5-18.1 15.4-16.8 2.3-37.2 7.7-49.9-2.4-8.8-7 2.8-24.4 7.6-36.4 26.7-67.3 34.5-138.7 45.7-209.4zm-38.5-41.4c12.6-.2 15.8 4.7 14 16.2-6.3 38.8-12.1 77.7-18.3 116.6-.7 4.5.9 10.7-6.2 11.8-6.1.9-9.1-3.6-11.8-7.8-28.8-43.6-57.5-87.3-90.1-136.6 42 .1 77.2.5 112.4-.2zm-22.4 187.8c10.6 15.9-1.6 29.2-6 42.7-19.1 59.6-19.5 59.4-81.1 59.4-23.3 0-46.6.9-69.8-.3-17.6-.9-42.2 9.4-51.4-5.7-14.8-24.4-22-54-29.7-82.1-3.7-13.3 10-9 16.7-9.1 42.5-.4 85 .2 127.4-.5 10.1-.2 26.3 7.2 25.5-14.6-.8-21.7-17.1-12.8-26.8-13.1-36.4-1-72.8-.7-109.2-.4-15 .1-18.6-4.7-9.5-17.4 31.5-44.1 62.8-88.3 96.2-135.2 40.5 60.8 79.1 118.5 117.7 176.3zm-257.1-187.8c35.1.3 70.2.1 112 .1-35.9 50.9-68.1 96.6-103.7 147-8-47.7-14.5-89.9-22.4-131.8-2.6-13.7 3.2-15.3 14.1-15.3zm-163.4 146.9c34.1-42.4 68.4-84.8 102.8-127 11.2-13.7 17.6-4.7 19.6 6.2 7.6 41.7 13.6 83.6 21 125.4 2.2 12.2-3.7 13.5-13.1 13.3-20.2-.3-40.4-.1-60.6-.1h-60.6c-14.9.1-18.9-5.6-9.1-17.8zm-4.6 45.8h140.8c7.2 0 13.5.3 16.4 9.4 9.1 28.6 19 56.9 29 86.5-37.3 2.8-66.8 2.1-97.4-23.2-28.2-23.2-68.9-31.3-88.8-72.7zm88.6 108.8c10.4 12.6 20.6 16.4 35.8 16.3 115.4-.4 230.9-.5 346.3 0 18.1.1 31.8-2.9 43.8-19.2 14.2-19.3 35.9-27 63.5-23.3-11 20.1-42.6 21.1-39.8 33 5.9 25.6 23.4 48.5 35.9 72.7 5.7 11 12.3 6.4 19.9 2.3 14.6-8.1 29.6-15.5 48.4-25.3-7.2 32.6-23.3 52.1-50.2 60.2-32.3 9.8-63.9 3.6-86.5-21.2-12.8-14.1-24.8-17.7-41.7-17.1-21.2.8-42.8 2.3-63.7-.3-26.7-3.2-37.4 9.8-44.8 32.6-13.1 40.2-28.2 79.8-42.5 119.6-.3.7-1.6 1.1-5.2 3.5-14.9-22.7-17.5-50-27.6-74-4.2-10-3.6-23.1-20.9-17.4-17.6 5.8-9.3 16.3-6 26.5 4.3 13 8.1 26.2 12.1 39.2-2.2 1.5-4.5 2.9-6.7 4.4-27.4-33.2-54.8-66.5-86.9-105.5 40.7 0 74.6.2 108.4-.2 9.1-.1 21 3.9 21.8-12.9.9-18.8-12.1-15.2-22.5-15.2-52.7-.2-105.3 0-158-.1-11.4 0-19.9 1.5-28.4 12-23.6 29.3-46.8 34.7-88.2 24.3 11.7-15.7 29.6-20.5 44.8-28.7 12.7-6.9 15.5-13.7 6.6-25.6-4.8-6.4-8-14-11.9-21-7.9-14-12.7-33-24.7-40.7-12.8-8.2-25.6 11-39.7 15-3.5 1-7.6-.5-11.9-.9 27.4-48.8 85.5-55.4 120.5-13zm1577.5 1176.9c-205.8.8-371.8 166.9-372.2 372.5-.4 205.1 166.9 372.8 372.3 373.1 204.5.3 373-168.4 372.4-373-.7-205.5-168.5-373.4-372.5-372.6zm-241.2 128.8c7.9-7.8 16.1-15.2 24.7-22.1 28.1-22.8 59.7-41.2 93.4-54.2 18.9-7.3 38.4-13 58.2-16.8 78.9-15.2 163-1.5 233 37.9 4.1 2.3 8.6 5.5 8.7 10.2.1 3-1.7 5.6-3.5 8.1-10.2 14.3-20.6 28.7-33.9 40.2s-29.9 20-47.5 20.2c-21.9.2-41.8-12.2-63-17.8-32.1-8.5-66.4-1.2-97.5 10.3-13.6 5.1-28.2 11-42.2 7-11.6-3.3-20.2-12.9-27-22.9-4.7-6.8-9.5-14.6-17.5-17-11-3.3-23.5 8.3-20.9 19.5 2.1 9.2 11.3 14.7 19.3 19.6s16.6 12.2 16.2 21.6c-.5 9.4-9.5 15.6-17 21.4-9.1 7-17.2 15.3-23.9 24.7-5.5 7.7-11.8 17-21.3 16.7-6.5-.3-11.6-5.2-16.1-9.9-12.6-13-25.1-26-37.7-39-5.5-5.7-12.2-13.4-12.2-21.8 0-8.3 7.9-14.7 13-20.5 4.9-5.4 9.7-10.5 14.7-15.4zm451.4 245c-.2 116.6-93.6 210.1-210.4 210.6-115.7.6-209.7-94.2-209.3-211.1.4-116.8 94.8-211.8 209.8-211 116 .8 210.1 95.6 209.9 211.5zm-448.1 248.4c-1.5-1.4-3-2.7-4.4-4.2-32.3-31.8-32.3-31.8 1.4-63.5 5.9-5.5 12-10.9 17.6-16.7 7.5-7.9-.2-12.4-4.4-17.6-4.6-5.7-9.3-7.2-14.9-1.4-2.1 2.2-4.3 4.2-6.7 6.2-43.6 36.9-43.6 36.9-66.5-15.9-44.2-101.8-34.6-228.6 27.6-319.1 5.2 7.6 7.7 13.9 12.3 17.5 42.3 33.3 61.5 66.2 43.5 128-24.7 84.6 11.6 161.4 78.6 218.9 19.9 17.1 18.5 26.5 1.1 41.2-9.2 7.8-16.9 17.4-25.3 26.2-28.7 30-28.7 30-59.9.4zm475.4.3c-66.1 62.2-144.8 94-235.7 95.6-56.5-.3-109.6-13.4-160.4-38.5-21.7-10.7-21.5-19.6-4.6-33.3 1.6-1.3 3.1-2.7 4.3-4.3 28-40.7 58.7-58.9 111.9-36 40.7 17.6 88.3 8.7 130.2-9.3 19.6-8.5 31.2-6.2 42.8 10.8 7.9 11.6 18.5 21.3 27.4 32.4 7 8.8 12.1 2.6 17-1.7 5-4.3 12.8-8.6 4.3-16.7-.7-.7-1.4-1.5-2-2.3-12.2-15.9-40.6-34.7-35-45.7 10.9-21.7 37.7-34.9 53-56.5 6.1-8.5 11-5.8 16.8.4 10.4 11 21.3 21.6 31.8 32.5 35.7 36.5 36.1 36.9-1.8 72.6zm-3.9-389c7.3 7.8 13 7.9 19.7-.2 3.9-4.6 8.5-8.6 12.8-12.9 28.6-28.9 28.6-28.9 45.9 9.3 20.7 45.7 31.3 93.6 31.8 143.8-.7 58.6-14.6 113.8-42 165.8-8.8 16.7-17.1 21.7-29.6 4.1-1.2-1.6-2.7-3.1-4.3-4.3-38.9-30.3-53.8-60.4-37.1-116.1 27-90.1-6.8-171.1-78.5-233.3-12.7-11-16.6-17.5-2.5-29.5 9.9-8.4 17.9-19.2 27-28.7 32.9-34.7 32.9-34.7 67.5.1 2.1 2.2 4.2 4.3 6.3 6.6 27.6 29.7 27.6 29.7-1.1 58.5-5.7 5.7-10.9 12-17.1 17.2-8.9 7.5-5.3 12.7 1.2 19.6zm-1433.7-215c-31.9-31.6-69.4-30.9-101.5 1.6-60.5 61.2-120.4 122.9-180.3 184.8-6.5 6.7-20.5 12-6.3 26.1 13.5 13.3 18.8 1.8 26.1-5.6 41.3-41.7 83.6-82.6 123.3-125.8 16.3-17.8 24.2-15 39.6.8 64.1 66.2 129.8 130.9 195 195.9 7 7 12.3 19 25.8 5.1 13.8-14 .8-18.9-5.9-25.7-64.1-64.8-128.5-129.3-192.7-194-21.8-21.9-20.8-31.9 4.5-48.9 22.3-14.9 39.9-5.9 56.4 10.6 60 60.3 120.2 120.3 180.1 180.7 29.1 29.4 29.2 45.3.7 74-111.4 112-223.2 223.7-334.1 336.2-13.9 14.2-21.2 14.5-35.1.2-64.9-66.8-130.9-132.7-197-198.3-5.9-5.9-9.8-23-25.2-8.9-15.5 14.2-1.9 20.7 5.9 28.6 65.1 65.3 130.4 130.3 195.4 195.6 6.1 6.1 19.2 13.4 14.3 20.8-11.5 17.5-25.5 34.7-45.8 42.8-16.7 6.7-31.6-.1-44-12.5-62.8-63.2-126-126.1-188.4-189.7-21.6-22-21.3-41.4-.1-63.5 24.5-25.6 50.8-49.5 74.6-75.7 11.9-13.2 18.6-12.3 30.3-.1 34.3 35.8 70.1 70.2 104.8 105.7 9.6 9.9 15.5 15 28.3 2 73.1-74.4 147.1-147.9 221.3-221.3 9.1-9 10.6-14.7.6-24.2-22.1-20.9-43.3-42.6-64.4-64.5-8-8.3-13.5-9-22.1-.1-33.9 34.8-68.5 68.9-102.9 103.3-6.6 6.6-12.9 11.8-3.3 22.3 10.4 11.3 17.4 5.8 24.9-1.6 20.7-20.7 40.9-41.8 61.5-62.6 31.7-32 31.1-31.3 62.6.3 11.1 11.1 12.5 17.3 1 28.7-59.8 59.1-119 118.7-178.1 178.5-9.4 9.5-16.2 12.9-27.2 1.6-58-59.3-116.5-118.1-175.3-176.7-9.3-9.2-10-15.7.4-23.9 7.1-5.6 14.3-11.8 19.4-19.2 11.6-16.9 19.9-12.4 32.3.3 40.3 41.4 82 81.3 122.8 122.1 8.1 8.1 13.6 12.8 24.3 2 10.5-10.7 2.9-15.4-3.3-21.6-49.4-49.4-99.1-98.5-148.3-148.1-9-9-15.1-9.7-24.3.1-20 21.5-40.4 42.6-62 62.5-12.6 11.7-9.5 18.9 1.4 29 19.2 17.9 36.4 38 56 55.3 13.6 12.1 11.5 19.7-.5 31.1-25.7 24.3-50.2 50-75.2 75.1-14.1 14.2-23.2 30.5-22.7 54.7-.1 16.9 8.6 33.5 22.8 47.6 63.1 62.9 125.8 126.2 189.3 188.7 33.6 33.2 70 32.7 103.8-1 134.8-134.4 269.5-269.1 403.9-403.9 36.7-36.8 37.3-71.3 1.1-108.4-62.2-63.3-125.2-126.2-188.5-188.9zm-81.1-708.6c-9.2-8.5-23.3-13.7-29.9-3.9-7.1 10.6 5.2 23 13.8 32.4 25.3 27.4 23.9 72 5.4 104.4s-50.5 54.7-83.1 72.8c10.2-91.3 14-183.4 11.2-275.3-.2-6.2-.9-13.4-6-17-3.4-2.4-7.8-2.5-12-2.5-134.6.1-269.2.2-403.8.2-12.5 0-29 3.3-30.3 15.7-.6 5.5 2.3 10.7 2.9 16.1 1.1 10.1-6.2 19.5-14.9 24.8-8.7 5.2-18.9 7.4-28.5 10.7-22.3 7.8-40.7 22.1-55.4 40.4-12.8 16-15.4 37.8-15.2 58.1.5 41.6 18.2 83.3 49.1 111.4 5.5 5.1 11.5 9.7 17.8 13.7 5.5 3.5 11.6 6.8 18.1 6.3s12.9-6.2 11.8-12.6c-.7-4.3-4.4-7.4-7.8-10.1-23.3-18.8-46.6-40-56.6-68.2-15.7-44.6 11.5-99.6 56.5-114.2 6.5-2.1 14.8-3 19.3 2.2 2.6 3 3.1 7.3 3.5 11.3 6.9 74.7 7 150.4 24 223.4s53.9 145.2 117.5 185.1c20.4 12.8 46.4 27.7 44.4 51.7-1.1 13.4-11.3 24-20.2 34.1-9 10-17.8 22.5-15.4 35.8 2.4 13.3 22.9 21.2 29.5 9.4 2.8-5 2-11.7 5.8-15.9 3.6-4 9.6-4.3 15-4.3 17.4.1 34.9.1 52.3.2 5.3 0 11.2.3 15 3.9 8.1 7.8 0 22.1 4.4 32.5 5.4 12.7 23.7 10.7 37.3 8.4 13.6-2.3 33.3 3.1 31.1 16.7-1.8 10.8-15.8 13.5-26.8 13.7-60.5.8-121 .4-181.4-1.3-7.5-.2-17-2.1-18.2-9.5-.8-5.2 3.3-9.9 3.7-15.2.8-10.9-15.9-15.7-24.4-8.8-8.5 6.9-10.3 19.1-10.8 30-.5 11-.8 22.9-7.7 31.4l298.7-.3c2-21.9.9-45.2-10.7-63.9-11.6-18.7-36.5-30.4-56.4-21.3 1.7-31.4-41.3-52.7-37.3-83.9 3.1-24.7 32.2-34.9 54.5-46 24.5-12.2 45.4-31.3 59.7-54.6 22.8-37.3 28.6-83.9 55.7-118.2 25.4-32.2 66-48.9 93.2-79.6 39.8-44.9 42.3-118.4 5.6-165.9-1-1.3-2.4-2.9-4-4.3zm-151.5 306.1c-36.2 92.7-109.5 132.6-198.6 108.2-34.8-9.5-60.6-31-80.8-60.3-36-52.1-50.6-112-59.4-172.9-7.5-51.9-8.2-104.7-13.4-157-2.3-22.7 4.5-32.2 27.7-28.1 5.9 1 12.1-.1 18.2.4 11.8 1.1 15.6-3.8 15.6-15.6 0-13.1-6.7-15.1-17.1-14.7-8.1.3-16.2.7-24.3.3-9.2-.4-21.4 3.9-20.3-13.5.9-14.2 10.3-12.2 19.3-12.2h352.1c9.7 0 21.6-2.8 21.5 13.3-.1 17.1-13.3 12-22.1 12.1-58.7.4-117.4.1-176 .2-11.6 0-25-3.7-24.7 16.4.3 20.1 14.7 13 23.7 13.1 58.7.6 117.4.4 176 .2 12.7 0 24.6-1.6 23.8 17.5-4 99-4.4 198.4-41.2 292.6zm-1022 259.4c.2-97.2 0-194.3 0-291.5h-.3c0-98.2.2-196.4-.1-294.5-.1-52.1-23.5-78.2-74.6-78.9-97.1-1.2-194.3-1.2-291.5.1-49.2.7-73.5 27-73.7 77-.6 196.3-.8 392.7-.7 589 0 53.2 27.1 80.6 80 80.9 93.1.6 186.2.4 279.3 0 55.6-.2 81.5-26.6 81.6-82.1zm-29.5-101.6v2.6c0 6.2-.2 12.9-4.1 17.7-5.1 6.3-14.4 6.8-22.5 6.8-99.7-.4-199.5-.7-299.2-1.1-7.8 0-17 .7-21.1 7.3-4.3 6.9.2 16.5 7.3 20.6s15.6 4.2 23.7 4.1c95.9-.6 191.9-1.1 287.8-1.7 8.9-.1 19.2.5 24.5 7.7 3.1 4.2 3.7 9.6 4 14.8.7 14.9-.7 29.9-4.2 44.5-1.8 7.6-4.4 15.3-9.9 20.8-9 8.9-23 9.4-35.7 9.4-93.6 0-187.3-.1-280.9-.1-13.6 0-28.7-.5-38.7-9.9-10.7-10.1-11.5-26.6-11.6-41.3-.6-169.8-1.3-339.6-1.9-509.5 0-7 .2-14.8 5.1-19.7a823632153700311800 823632153700311800 0 0 0 316.6-34.3l-306.2.9c-3.2 0-6.5 0-9.2-1.7-3.4-2.1-4.9-6.2-5.8-10.1-3.7-16-.8-41.3 12.6-52.8 13.9-12 38.9-11.1 55.9-11.1l256 .3c17.2 0 36.7 1 48 14 9.4 10.9 9.9 26.7 9.9 41.1-.1 160.3-.2 320.5-.4 480.7zm2496.7-563.6c-133.1-5.1-235.7 53.8-297.4 172.3-62.6 120.3-40.9 238.5 23.2 352.2 4.9 8.6 9.8 11.1 19.2 4.8 9.1-6.1 12.3-10.9 6.2-21.7-10.8-19.3-21.1-39-29.2-59.5-59.7-150.9-14.8-304.4 120.3-381.7 95.1-54.5 194.4-53.4 288.4 2.5 94.7 56.4 141.4 143.4 142.3 278C-768.1 460.4-867.1 585-1022.7 671c-15.3 8.4-26.8 2.5-39.3-4.3-61.1-33.1-114.1-76.2-159-129.2-7.5-8.9-12.7-17.3-26-5.8-12.9 11.1-3.9 16.9 2.5 24.1 44.4 50.3 94.1 94 151.7 129.3 36.4 22.3 69.8 24.9 106.6 1.8 133.3-83.3 227.3-194.3 257-353.1 35.7-190.7-103.1-371.5-296.7-378.9zm-2651.7 973.2c-62-1.3-123.7-10.7-174.6-48-27.9-20.5-47.1-30.3-72.9-.2-8.3 9.7-23.2 14.1-35.8 19.5-45.9 19.6-94.5 27-143.9 28.7-16.3.5-19.7 5.8-19.4 20.9.7 38 1.3 75.9 5.5 113.7 15.4 140.9 84 245 212.6 307.7 8.6 4.2 16.2 8.1 27.1 3.2 105.5-47.9 182.3-120.5 208.8-237.8 9.8-43.6 13.1-87.7 12.9-132.2 0-17.8-1-35.6.3-53.3 1.1-16-2.7-21.8-20.6-22.2zm-2.1 49.2c-1.8 13.5-.3 27.4-.3 41.2-1.5 76.1-10.8 150.1-55.1 215-36.1 52.9-86.4 88.3-143.3 115.8-12.3 5.9-20 .7-29-3.9-113.2-58.7-173.6-153-187.7-278.5-3.6-32.2-4.9-64.4-5.3-96.8-.2-13.6 2-19.9 17.9-20.8 66.3-3.6 129.2-19.3 183.8-59.3 9.1-6.7 14.3-2.7 21.1 2.1 51.5 36.5 109.8 54 172.1 57 21 1.1 28.7 7.1 25.8 28.2zM54.9 160.9c-1.8 2.9-3.4 5.9-4.5 9.2-3.7 10.3 8.8 19.4 14.9 26.1 8.8 9.5 17.9 18.8 27.3 27.8 3 2.9 6 5.7 9.1 8.5 3.4 3.1 7.3 6.4 11.8 6 6.6-.5 10.3-8.7 8.6-15.1s-6.8-11.2-11.7-15.6c-7.7-7-15.5-14-23.2-21-2.4-2.1-4.8-4.3-6.2-7.2-2.7-5.6-.7-12.7 3.5-17.4 8.8-9.7 23.9-9.5 37-8.6 42.9 3.1 85.7 6.2 128.6 9.3l-38.4 35.7c-2.9 2.7-5.9 5.7-6.4 9.5-.8 6.9 7.4 12 14.2 10.8s12.1-6.4 16.9-11.3c38.2-39.1 76.5-78.2 114.7-117.3 2.9-2.9 6-6 10-7 7.7-2 14.9 4.2 20.5 9.9l145.8 148.5c4.9 5 10.3 10.3 17.2 11.6s15.4-3.5 15-10.5c-.2-4.3-3.4-7.7-6.5-10.7C499.8 179 446.4 126 393 72.9c-3.6-3.6-7.6-8-7-13.1.3-2.4 1.5-4.5 2.8-6.5 6.9-10.3 18-18.9 30.3-18.4 12.3.6 22.2 9.9 30.8 18.6 45.8 46.1 91.6 92.1 137.4 138.2 8.5 8.6 17.6 18.6 17.2 30.6-.4 11.1-8.9 20-16.9 27.8-30 29.3-59.9 58.7-89.9 88-4.2 4.1-8.6 8.5-10.4 14.1s0 12.8 5.4 15.2c6.6 2.9 13.6-2.7 18.7-7.8 30-30.1 60-60.2 90-90.4 14.9-15 31.1-33.5 27.7-54.4-2.1-12.8-11.2-23.1-20-32.7-48.1-52-98.3-102.2-149.9-150.6-9.6-9-20.1-18.4-33-20.6C404.9 7.3 386 23.8 370.7 39l-83.9 83.6c-6.6 6.5-13.5 13.3-22.3 16-7.5 2.3-15.6 1.5-23.4.7l-76.8-8.1c-22-2.3-44.5-4.6-65.9.6-16.5 4.4-34 14.3-43.5 29.1zm400.6 423.9c5.3 5 11.8 9.5 18.6 7.8 3.3-.8 6-3 8.6-5.2 12.3-10.1 24.8-21 30.4-35.9 4.8-12.5 4.1-26.3 3.3-39.6-1.6-28-3.2-55.9-4.7-83.9-.3-5.8-1.2-12.5-6.2-15.4-5.4-3.1-12.6.6-15.6 6.1-2.9 5.5-2.7 12.1-2.4 18.3 1.3 26.9 2.6 53.7 3.8 80.6.7 13.9.6 29.7-9.7 39.1-4.1 3.8-10.4 6-15.4 3.5-2-1-3.5-2.6-5.1-4.1l-52.5-53.7c-5.5-5.7-11.5-12.3-11-20.2.5-9.5 9.8-15.7 16.9-22s12.8-18 6-24.7c-3.8-3.7-10-3.9-14.9-1.8-4.9 2.1-8.7 6-12.4 9.8-21.5 22.2-42.9 44.5-64.4 66.7-3.4 3.5-7.2 7.2-12 7.6-5.7.4-10.6-4-14.6-8.1-51-51.6-102-103.2-153.1-154.8-5.5-5.5-13.2-11.5-20.2-8-5.3 2.6-6.8 9.8-5 15.4 1.8 5.6 6.2 10 10.3 14.1l154.3 152.8c2.7 2.7 5.5 5.6 6.4 9.3.8 3.8-.6 7.7-2.4 11-10.6 19.5-37.9 27.8-57.5 17.3A239116208113866850 239116208113866850 0 0 0 66.1 385.2c1.1-6.6 5.7-12 10.2-17 21.2-23.6 43.6-46.1 67.1-67.4 6-5.4 12.4-11.4 13.4-19.4s-7.4-16.9-14.5-13.2c-1.4.7-2.5 1.8-3.6 2.9-14.5 14.1-28.9 28.2-43.4 42.3-14.7 14.4-29.6 28.8-41.7 45.5-12.4 17.1-15.3 34.4-4.4 53.8 6.1 10.8 14.9 19.7 23.6 28.5l125.1 125.7c14.7 14.8 31.4 30.5 52.2 31.4 23.5 1 42.9-17.2 59.3-34.1 16.2-16.7 32.4-33.4 48.7-50.2 3.7-3.8 8-7.9 13.4-8.1 5.6-.1 10.2 4.2 14.1 8.1l67.3 68.2c1 1 1.7 1.8 2.6 2.6z"/><path class="st0" d="M-1202.4 116.9c-16-12.8-19.7 3.6-24.8 10.6-59.1 81.4-70 169.3-26.1 259.9 43.4 89.7 118 134.9 193.7 137.6 157.2.2 261.3-104.8 263.5-241.6 2.6-161.2-150.4-282.2-304-239.9-10.3 2.8-29.6-1.3-24.7 20.3 5 21.7 19.6 10.3 30.7 7.2 41.2-11.4 82-10 122.3 3.7C-867.6 110-806.1 220.2-830 328.8c-23.9 108.8-125.3 179.3-237.6 164.9-158.6-20.2-235.2-213.4-137.5-347.1 6.9-9.5 18.2-17.4 2.7-29.7z"/><path class="st0" d="M-983.7 157.3c14.3 6.2 21.7 6.2 28.1-7.5 7.6-16.5-9.2-15.8-15.8-19-97-46.8-211.2 19.2-224.4 129.1-8 66.2 28.7 131.4 90.3 160.7 60.3 28.6 135.3 15.4 181.7-32 47.8-48.9 60.4-123 30.2-181.6-3.7-7.2-3.9-21.8-20.4-13-14.1 7.5-11.5 15.6-5.7 26.6 8.9 17.2 13.7 35.7 12.7 47-1.2 20.4-1.1 32.2-5 44.2-24 73.5-96.6 111.1-168.2 86.3-68.5-23.7-104.5-98.9-79.7-166.7 26-71.1 104.6-105 176.2-74.1z"/><path class="st1" d="M169.9 574.8c-5.1-2.2-10.8-12.2-16-3.2-23.9 40.7-65.1 28-100.4 33.9-5.9 1-9.2-1.6-10.9-6.9-11.4-34.1-16.5-83.2 19.6-108.9 11-7.8 11.1-15 3.3-23.7-9.1-10.1-14.2 1.4-19.3 5.4C9.6 500 .4 550.1 20.2 607c6.7 19.3 11.8 39 39.6 22 6.7-4.1 17.4-1.6 22.9-1.9 38.4 3 66.9-9.1 87.9-37.6 3.8-5 8.9-10.5-.7-14.7z"/><path class="st0" d="M-3671.7 748c-29.1-1.2-62.7 6.4-86.2 38-3.6 4.9-14.6 11.5-2.7 19.7 8.9 6.1 14.6 5 21.2-4.8 16.6-24.7 42.8-28.8 70.3-29.5 14.2-.3 18.7 5.8 15.4 19-6.2 25.1-20.7 42.9-45 52.8-18.3 7.5-37.2 10.3-56.7 9.6-10.4-.4-11.3 6.2-12.6 13.7-1.3 7.4 1.9 9.2 8.8 10.4 55.8 9.2 117.5-30 128.6-82.2 8.1-38 4.7-42.8-41.1-46.7zm338.5-326.3c14.7 6.6 14.5-4 17.3-12.4 8-24.2 11.8-49.1 11-64.6-.3-77.3-26.7-133.5-73.1-180.8-5.7-5.9-11.3-18.8-23.5-5.3-9 9.8-7.9 15.6 1.3 24.6 62 60.9 78.5 134.6 56.2 217-4 14.3.2 16.8 10.8 21.5zm-751.5-143.1c-12.8-1.6-15.4 4.5-17.1 15-13.2 86.2 11.7 159.5 74.1 220.2 7.3 7.1 13.2 12 21.5.7 6-8.2 9.5-13.5-.1-22.4-55.6-52-77.5-116.1-66.3-191.3 1.8-10.7 3.2-20.3-12.1-22.2z"/><path class="st0" d="M-3976.2 221.3c-8.8-9.9-13.8-.3-18.9 5.1-29.7 31.4-44.3 69-46.1 111.5 1.3 44.4 15.1 83.4 45.4 115.7 4.6 4.9 10 15.8 18.9 5.7 5.9-6.7 13.8-11.9 4.6-25.1-52.7-75.1-52.7-118.2-.1-188 9.5-12.8 2.5-17.9-3.8-24.9zm542.9 210.3c-10.3 10-6.5 16.8 1.4 25 9.9 10.4 14.4 3.2 21-4.3 28-31.5 41.1-68.6 43.8-109.9-1.7-40.5-12.8-77.6-39.8-108.5-5.8-6.6-9.8-22.9-24.9-11-14 11.1-6 19 2.3 29.3 31 38.8 40.1 82.6 25.2 130.5-5.6 18.6-15.1 35.5-29 48.9zm1138.5 672c-6.8-7-12.5-8.4-20.1-.7-52.6 53.3-105.5 106.3-158.4 159.4-4.3 4.3-9.2 8.7-3.1 15 4.1 4.2 8.6 8.1 13 12.2 3.1-2.1 6-3.4 8.1-5.5 54.5-54.3 108.9-108.7 163.3-163 7.3-7.1 2.6-11.9-2.8-17.4z"/><path class="st1" d="M307.8 323.2c-25.7-2.4-51.3-6.3-76.9-9.6-9.1-.2-18-1.9-18.2 12.3-.1 12.6 8.1 11.6 16.1 12.3 17.7 1.6 35.3 3.8 53 5 12.3.9 18.7 5.2 19.3 19 .8 19.3 4.5 38.5 6.3 57.7 1 11.1 6.6 12.3 16.2 11.3 10.1-1 8.6-6.2 7.8-13.3-2.8-24.9-4.8-49.8-7.7-74.7-1.1-9.3-2.2-18.7-15.9-20zm102.9-70.8c1.9 20.2 4.7 40.3 6.2 60.5.6 8.5 3.8 11.2 12 10.5 8.8-.7 14.1-3.5 11.3-17.5-2.6-23.2-5.7-50.6-8.8-78-1.3-11.3-9.3-14.1-18.9-15.2-25-2.6-50-4.9-75-8.2-8.9-1.2-13 0-15.1 9.7-2.3 10.6 2.4 12.4 10.8 13.3 20.1 2.3 40.1 6.3 60.3 7.1 13.5.7 16.2 7.1 17.2 17.8z"/><path class="st1" d="M359.1 329.3c1 12.1 3.8 24.1 4.2 36.2.3 10.1 4.6 12.1 13.6 11.4 10.2-.8 12-6.3 9.5-22-2.1-16.8-6.4-40.9-7.4-65.1-.7-17.1-8.3-22.7-23.5-24-23.4-1.9-46.8-4.2-70.1-7.2-8.2-1.1-14.3-4.8-16.2 8.4-1.7 11.7 2.4 13.9 12.1 14.5 12.1.8 24.2 2.6 36.2 3.9 38.5 4.3 38.4 4.3 41.6 43.9z"/><path class="st0" d="M255.1-639.3c5.6-6.1 12-10.8 3.2-19.2-26.3-25-18.8-49.2.4-74.6 12.8-16.9 23.4-35.9 12.4-58.3-2.9-5.8-6.3-15.3-14.5-11.8-6.7 2.8-17.1 10.5-14 17.5 9.8 22.1-8.2 33-16.2 47.8-7.8 14.3-14.9 28.4-15.4 45.6.7 20.9 12 37.3 24.7 53.2 7 8.7 12.6 7.4 19.4-.2zm65.7 2.3c11.4-9.8 8.6-17.2-.3-27-17.6-19.3-16.9-39.5-.9-60.1 9.3-11.9 17.5-24.7 20.9-40 1.5-7 4.8-15.7-2.9-18.7-5.2-2-16.8.7-19 4.8-14.9 28-40.7 51-40.8 86 .1 18.3 8.6 33.2 19.8 46.4 5.4 6.4 9.7 20.2 23.2 8.6z"/><path class="st1" d="M55.8 552.2c.9 21.2 8.9 34.7 32 28.6 17.3 2.3 32.3-.3 44.9-10.5 6-5 18-10 10-20.3-6.3-8.2-13.8-7.7-24.4-.1-12.5 9-30.9 19.3-40.7-6.7-3-8-11.3-5.1-17.2-4.4-9 1.1-4.8 8.5-4.6 13.4z"/><path class="st0" d="M393.1-637.3c4.5-5.4 15.3-9.9 6.5-19.2-24.3-25.8-21.1-51.2-.6-77.2 2.8-3.5 8-8.6 3.4-13-4.9-4.7-11.8-7.3-17.9-10.8-3 1.9-5.7 3.2-8 5-32.3 25.7-32.5 84.8-.7 113.5 6 5.2 11 9.3 17.3 1.7zM-2373.3 1245c-19.3 19.3-38.3 38.9-57.8 57.9-6.9 6.7-8.6 11.2-1.4 19.5 8.4 9.7 14.1 8.2 21.9.1 19-19.6 38.5-38.7 57.8-58 2.8-2.8 5.1-6 8.9-10.4-4.3-4.7-8.1-9-12.2-13.1-7.8-8-12.3-.9-17.2 4zM-940.9-172.2c-1.1-18.9-13.5-28.2-31.7-29.5-18.8 2.9-30.4 13.2-30 32.1.4 18.9 12.4 30.5 30.8 30.3 19.8-.2 32.1-12.3 30.9-32.9zm-3103.2 395.9c14.8-16.4 30-32.5 43.9-49.7 6.1-7.6-3.4-12.4-7.1-17.7-5.9-8.5-11.9-4.9-17.2 1-12.8 14.2-25.8 28.3-38 43-14.5 17.5 4.4 18.5 12.2 24.8 2.5-.5 5.1-.2 6.2-1.4zM176.4 489.4c13.3.1 21-7.5 21.5-20.9.5-13.9-8.7-19.6-20.5-22.4-12.8 2.2-22.2 8.8-22.2 21.8 0 12.6 7.7 21.4 21.2 21.5zm-2751.7 837.4c.6-16.2-7.7-27.3-24.8-27.7-17-.4-26.4 10.4-26.4 26.4 0 15.1 10.8 22.8 25.2 25.5 14-2.4 25.5-8.4 26-24.2zm-819.5-806.1c11.1-1.5 41.3-34.6 38-38.9-5.2-6.7-13.4-17.8-20.9-12.9-12.6 8.2-26.9 18.2-30.2 34.1-1.1 5.3 9.3 12.9 13.1 17.7zm2562.6-985.3c-30-5.9-44.1-25.3-48.5-54-2-13-12.6-6.4-19.4-7.1-8.5-.9-8.3 5.5-8.2 12.1.7 33.3 31.8 68.9 64.6 74.7 12 2.1 17.4-.4 16.3-12.3.3-5.7 1.4-12.1-4.8-13.4zm-275.1.5c-32.2-5.7-44.9-26.8-49.8-56.7-1.3-8.3-12.1-4.9-18.7-5.1-9.3-.3-7.8 6.9-7.8 12.8 0 32.6 33.3 69.7 65.3 74.5 11.3 1.7 15-1.7 14.5-15.7-.4-1.2-1.3-9.4-3.5-9.8zm-2937.3 133.9c-2.1-16-11.2-28.2-30.4-28.2-18.8 0-30.1 10.9-30.5 29.9-.4 19.4 11.9 30.3 29.9 30.7 18.3.3 29.1-11.1 31-32.4zm2989 1298.9c-1.6-30.6-20.8-17-33.7-13-14.3 4.4-27.5 12.3-41 19.2-10.5 5.4-19.4 11.1-7.8 24.8 5.3 6.2 5.4 15.5-1.9 22-4.8 4.2-11.3 6.7-16.7 2.2-18-14.9-24.1-1.2-29.9 12.1-5.7 12.9-10.8 26.1-15.3 39.4-4.4 12.9-7.1 22.8 12.8 28.6 18.5 5.4 19.1 24 .4 29.4-21.4 6.2-14.7 16-11 28.6 4.4 14.6 10.6 28.2 18.2 41.4 5.9 10.3 11.1 16.4 22.6 6.1 6.7-6 14.8-5.4 22.2.4 7.7 6.1 9 15.3 4 21.6-13.6 17.3-.5 23.5 11.3 29 14.6 6.7 30.1 11.3 45.1 17.3 10.3 4.1 17 4.2 18.1-9.7.7-10 6.3-17 17.5-17.3 10.9-.3 18.1 5.9 18.6 15.9.8 16.3 8.7 15 19.8 10.7 13.1-5.1 26.8-8.9 39.6-14.6 13.1-5.8 24.6-10.8 14.4-30.9-6.7-13.2-.1-26.6 19.7-16.4 15.2 7.8 24.3 1 30.3-12.6 6.5-14.7 13.1-29.4 19-44.4 4.5-11.2 6.2-21.3-10.8-23.8-7-1-12.7-6.4-13.2-14.6-.6-9.9 6-14.4 14-17.4 6.8-2.6 17.9-.6 14-12.1-3.1-22.1-10.3-40.9-20.1-58.8-6.5-12-12.8-23.6-28.7-9.9-6 5.2-13.3 3.4-19.4-1.8-7.2-6.2-9.4-15.7-3.8-21.7 15.4-16.8 2.5-22.2-9.7-27.8-13.7-6.3-27.9-11.5-41.9-17.1-12.1-4.8-23.6-9.4-24.1 11.7-.2 8.8-7.1 13.9-16.6 14.4-8.3.3-15.6-3.7-16-10.9zm49.4 25.5c5.3-4.9 9-11 17.6-7.4 9.3 3.9 8.8 11.2 9.4 19.8 2.2 27.7 16.4 45.3 45.7 46.5 9.9.4 16.7 2.1 21.7 11.8 5.9 11.4-1.5 15.9-7.7 22.7-17.7 19.1-17.1 39.4-2.6 60.5 15.3 22.3 11.9 29-15.1 32.9-25.3 3.7-41 17.6-42.2 43.6-1.1 23.8-8.5 29.3-27 12.3-22.4-20.7-45.3-20.4-67.3-.2-6.4 5.9-10.6 10.9-20.3 6.3-8.6-4.1-7.4-10.3-7.7-17.4-1.4-29.9-16.4-46.7-47.2-47.6-21.4-.6-25.3-11-12.4-26.4 18.8-22.5 16.2-43.2.9-66.2-11.2-16.8-14.4-31.1 15.4-32.1 26.4-.9 40.2-19.2 38.4-45-1.1-15.9 8.3-18.3 18.4-22.4 7.7-1.7 10.1 4.9 14.5 8.8 22.6 19.9 45.4 20.1 67.5-.5zm-1570.3-671.1c.1-14.6-7.1-18-18.8-15.9-21.4 3.9-22-8.2-21.8-24.4.7-49.5.3-99.1.3-155-23.5 19.5-42.9 35-61.7 51.3-7.2 6.3-20.3 10.1-7.9 25.1 11.9 14.4 18 4.9 26.4-1.9 3.5-2.8 6.7-8.2 13.2-3.5 0 26.8-.6 54.1.2 81.4.5 16.8.3 30.6-22.8 26.5-11.8-2.1-15.7 4-16 15.6-.4 14 8 13.6 17.6 13.5 24.3-.2 48.5 0 72.8-.2 9 .2 18.3 2.4 18.5-12.5zm53.8 31c-6.9-1.3-16.3-9.5-20.6 2.6-11.3 32.1-34 48.2-67.1 52-12.5 1.4-7.7 11.6-8 19-.4 10 5.3 11.8 13.1 10.4 34.7-.2 79.5-35.2 88.8-68.1 2.4-8 3.4-14.1-6.2-15.9zm41.7-246.7c-22.4-1.6-18.8 19.7-20 36-1.6 21.2-3.2 42.4-4.7 63.5-.3 3.5-.3 7.4 2.1 9.9 1.7 1.7 4.3 2.3 6.7 2.7 6.3 1.1 13.9 1.7 17.7-3.4 1.7-2.3 2.1-5.2 2.5-7.9 4.2-29.6 6.7-59.5 7.5-89.4.1-2.2.1-4.5-.9-6.4-1.9-3.7-6.7-4.7-10.8-5h-.1zM-3620.3 183c-27.3-10.9-59.2 2.2-83.2 34.3-25.8 34.5-6.5 91.9 34.9 104.1 9.3 2.7 12-5.2 17.2-9.3 6.7-5.3 4.2-10-.7-14.7-7.3-7-14.5-14.1-21.6-21.3-20.5-20.8-19.3-31.9 5.7-54.2 21.4-19.2 36.4-18.3 53.6 3.2 21.9 27.4 23.6 60 2 92.7-31 46.9-70.4 85.8-117.8 116.3-22.7 14.6-47.3 17.4-72.3 7.2-39.2-16-43.5-42.3-13-71 19.7-18.6 34.6-12.9 50.5 5.7 10.9 12.7 22.2 31.8 43.4 12.1 8.1-7.5 17.4-13.8 25.8-21.1 5.4-4.7 11.3-10.2 2.1-16.8-5.8-4.1-11.6-16.8-19.3-7.2-20.8 26-34.4 11.5-49.5-5.7-5.2-5.9-12.7-9-21.5-9.7-28.1-2.3-67 25.7-78.5 57.3-9.9 27.3 2.1 56.9 30.7 74.8 17.4 10.9 36.6 16.4 57.1 17.6 22.5-1.1 43.7-6.5 62.8-19.1 49.6-32.8 90.3-74.5 124.3-123 10.6-15 16.1-32.6 19.2-50.6 6.3-37.9-19.8-88.7-51.9-101.6zm-86.9 471c18.4-.8 30.7-13.1 30.9-35.5-2.3-17.8-12-29.5-32.8-29.5-21-.1-32.3 12.8-32.6 31.5-.2 20.8 14.2 34.4 34.5 33.5zm-42 334.4c-31 0-61.2-5.2-90.1-16.1-9.9-3.7-12.5-.2-15.8 7.4-3.7 8.4-.4 11.8 7.3 13.9 14.8 4.1 29.2 9.5 44.2 12.4 47.4 9.2 47 8.8 42.8 57.6-7.2 84-40.1 152.2-116.6 194.7-9.5 5.3-17.8 9.4-29 2.7-25.1-15.1-48.8-31.2-67.3-54.6-40.7-51.4-46.4-111.9-48.5-174-.5-16.4 4-22.3 20.4-23.5 39.1-2.9 76.2-13.4 108.6-36.6 4.5-3.2 15.9-5.9 7.3-15.7-5.5-6.2-11.1-10.2-20.3-3.1-28.5 22-62.7 28.6-97.2 33.3-42.5 5.8-42.6 5.6-40.7 50.9 0 4.8-.2 9.7 0 14.5 2.9 71.3 16.8 139.9 73.6 188.5 75.5 64.6 78.1 63.5 151.9.8 74.6-63.3 83.5-152.8 82.6-243.8-.1-9.9-6.6-9.3-13.2-9.3z"/><path class="st0" d="M-3897.6 1217.4c6.9 11.6 12 2.9 16.9-.1 50.7-31.1 72.2-79.8 81.1-133.9 1.1-9.5 1.6-15.9-9.4-17.1-12.1-1.3-12.4 5.6-13.7 14.3-7.3 48.7-25.6 91.2-69.9 118-8.4 5-10.7 9.2-5 18.8zm2794.2-121.5c-11.4 31.1 2.3 67 32.6 82.7 9.6 5 22.9 15.6 30.7 1.1 5.9-11.1-.1-20.6-15.3-26.4-20.4-7.8-26.9-27.1-20-48 6.5-19.6 22.3-29.2 42.5-26.1 21.5 3.3 35.8 17.6 33.7 39.6-1.6 17 3.7 27.8 18.7 26.5 12.1-1 8.5-17.2 11.4-24.6.1-35.1-25-64.7-57.8-70.4-32.9-5.8-64.5 13.1-76.5 45.6z"/></svg>