<svg id="Слой_1" xmlns="http://www.w3.org/2000/svg" viewBox="0 0 356 356"><style>.st0{fill:#fff}.st1{fill:#ba936a}</style><path class="st0" d="M9.2 335.6l.6-1.2c29.7-52.4 67.8-99.9 112.5-140.2 5.3-4.8 14-9.4 18.8-4 4.6 5.2-.5 13-5.4 17.9-13.5 13.4-27 26.9-40.5 40.3-3.1 3.1-6.3 6.4-7 10.7-.7 4.3 2.6 9.5 6.9 8.9 2.3-.3 4.1-2 5.7-3.6 20.9-21.1 41.8-42.1 62.7-63.2 1.1-1.2 2.4-2.5 2.4-4.1 0-1.7-1.2-3.1-2.4-4.3l-43.9-44.5c-2.8-2.9-5.9-6.2-5.7-10.3.1-3.2 2.2-5.9 4.5-8.2 9.3-9.5 22.5-15.2 35.8-15.4 3.4-.1 7.1.2 10-1.8 2.2-1.5 3.4-3.9 4.7-6.2 13-23.5 35.4-40.1 54.1-59.5 12.4-12.9 23.9-27.5 39.9-35.4 25-12.4 58.2-4 75 18.3 16.8 22.3 15.9 55.9-1.4 77.9-4.1 5.3-11.8 10.1-17 5.9-3.1-2.5-3.5-7.3-2.1-11.1s4-6.9 6.1-10.3c9.5-14.9 9.1-35.6-1.4-49.8S291.3 22 274.8 28.2c-10.1 3.8-18.2 11.5-26 19.1-16.4 16.1-32.6 32.4-48.5 49-6.5 6.8-13.2 14.1-15.5 23.2-1.2 4.8-1.4 10.5-5.4 13.6-4.7 3.7-11.4 1.3-17.3.3-8.4-1.3-17.3.9-24 6.1 26.6 27 53.3 54 79.9 81 5.1-7.1 7.2-16.3 5.6-24.8-.8-4.3-2.5-8.8-1.1-13 2-5.9 9-8.1 14.9-10.3 13.6-5 25.6-14 34.2-25.6 3.8-5.2 7.2-11.1 12.9-14.1s14.5-1.2 15.9 5.1c.9 4.3-1.9 8.4-4.7 11.8a185.48 185.48 0 0 1-43.7 38.7c-3.2 2-6.7 4.2-8.2 7.6-1.3 2.8-1.1 6-1.1 9.1-.2 10.7-3.9 21.4-10.2 30-2.5 3.5-6.6 9.4-11.1 10.1-5.5.8-10.6-3.9-14.1-7.5-6.8-7-13.5-14-20.3-20.9-1.3-1.3-2.6-2.6-4.3-3.2-4.2-1.4-8.3 2.4-11.2 5.8-41.5 48.6-90.6 90.8-145 124.4-3.2 2-6.6 4-10.4 4.2-3.8.2-8-2-8.6-5.8-.3-2.3.6-4.5 1.7-6.5z"/><path class="st1" d="M201.8 117.7c-.2-2.8 1-5.2 3.1-7.3 21.7-21.9 43.3-43.9 65-65.8 4.4-4.5 10.3-4.6 14.2-.6 4 4 3.7 9.7-.7 14.2-21.6 22-43.3 43.9-64.9 65.9-3.3 3.3-6.9 4.5-11.3 2.6-3.7-1.7-5.5-4.6-5.4-9zm28.1 27.9c-.1-2.1 1.3-4.5 3.4-6.6 21.5-21.8 43-43.6 64.6-65.4 4.5-4.6 10.1-5 14.2-1.3s4.4 9.7 0 14.1c-16.7 17.2-33.6 34.2-50.4 51.3-5.1 5.2-10.3 10.5-15.5 15.6-3 3-6.8 3.6-10.6 1.8-3.7-1.5-5.6-4.4-5.7-9.5z"/></svg>