<svg id="Слой_1" xmlns="http://www.w3.org/2000/svg" viewBox="0 0 54 54"><style>.st0{fill:#fff}.st1{fill:#ba936a}</style><title>serv-icon</title><path class="st0" d="M31.5 54h-9c-.5 0-.9-.4-.9-.9v-6.8l-1.1-.4c-1.1-.4-2.3-.8-3.4-1.3l-4.8 4.7c-.3.3-.9.3-1.2 0l-6.4-6.4c-.3-.3-.3-.9 0-1.2L9.5 37c-1-2-1.6-4.1-1.9-6.3H.9c-.5 0-.9-.4-.9-.9v-7.2c0-.5.4-.9.9-.9h6.7c.5-1.6 1.1-3.1 1.9-4.5l-4.7-4.7c-.3-.3-.3-.9 0-1.2l6.4-6.4c.3-.3.9-.3 1.2 0l4.7 4.7c1.4-.8 3-1.4 4.5-1.9V.9c0-.5.4-.9.9-.9h9c.5 0 .9.4.9.9v7.4h-1.8V1.8h-7.2v6.5c0 .4-.3.8-.7.9-1.8.5-3.6 1.2-5.3 2.2-.3.2-.8.2-1.1-.1l-4.6-4.6-5.2 5.2 4.6 4.6c.3.3.3.7.1 1.1-.9 1.7-1.7 3.4-2.2 5.3-.1.4-.4.7-.9.7H1.8V29h6.5c.4 0 .8.3.9.8.3 2.4 1 4.8 2.2 7 .2.3.2.8-.1 1.1l-4.6 4.7 5.2 5.2 4.6-4.6c.3-.3.7-.3 1.1-.1 1.2.6 2.4 1.1 3.6 1.5.6.2 1.3.4 1.9.7.3.2.5.5.5.8v6.5h7.2v-6.5c0-.3.2-.6.5-.8.6-.3 1.2-.5 1.9-.7 1.2-.4 2.5-.9 3.6-1.5.3-.2.8-.2 1.1.1l4.6 4.6 5.2-5.2-4.6-4.6c-.3-.3-.3-.7-.1-1.1 1.4-2.1 2.1-4.5 2.2-7 0-.5.4-.8.9-.8h6.5v-5.4h-6.5c-.4 0-.8-.3-.9-.7-.5-1.9-1.2-3.6-2.2-5.3-.2-.3-.2-.8.1-1.1l4.6-4.6-5.2-5.2-11.2 11.6c-.3.3-.7.4-1 .2h-.1c-1-.4-2-.6-3-.5-5 0-9 4-9 9s4 9 9 9 9-4 9-9c0-1.9-.6-3.7-1.6-5.2l1.5-1c3.4 4.9 2.3 11.6-2.6 15-4.9 3.4-11.6 2.3-15-2.6-3.4-4.9-2.3-11.6 2.6-15 1.8-1.3 4-2 6.2-2 1.1 0 2.3.1 3.3.5l11.3-12c.2-.2.4-.3.6-.3.2 0 .5.1.6.3l6.4 6.4c.3.3.3.9 0 1.2L44.7 17c.8 1.4 1.4 2.9 1.9 4.5h6.7c.5 0 .9.4.9.9v7.2c0 .5-.4.9-.9.9h-6.6c-.1 2.2-.8 4.4-2 6.3l4.7 4.7c.3.3.3.9 0 1.2L43 49.1c-.3.3-.9.3-1.2 0L37 44.4c-1.1.5-2.2 1-3.3 1.3l-1.2.4v6.8c-.1.7-.5 1.1-1 1.1z"/><circle class="st1" cx="27.4" cy="27" r="5.5"/></svg>