<?xml version="1.0" encoding="iso-8859-1"?>
<!-- Generator: Adobe Illustrator 19.0.0, SVG Export Plug-In . SVG Version: 6.00 Build 0)  -->
<svg version="1.1" id="Layer_1" xmlns="http://www.w3.org/2000/svg" xmlns:xlink="http://www.w3.org/1999/xlink" x="0px" y="0px"
	 viewBox="0 0 511.999 511.999" style="enable-background:new 0 0 511.999 511.999;" xml:space="preserve">
<path style="fill:#ECF1F8;" d="M498.637,59.28h-33.335v42.873c0,9.051-7.339,16.392-16.392,16.392
	c-9.054,0-16.394-7.34-16.394-16.392V59.28h-33.6v42.873c0,9.051-7.339,16.392-16.394,16.392c-9.052,0-16.392-7.34-16.392-16.392
	V59.28H145.867v42.873c0,9.051-7.337,16.392-16.39,16.392c-9.054,0-16.394-7.34-16.394-16.392V59.28H79.482v42.873
	c0,9.051-7.339,16.392-16.394,16.392c-9.052,0-16.392-7.34-16.392-16.392V59.28H13.362c-7.377,0-13.355,5.981-13.355,13.356
	c0,20.655,0,405.355,0,426.006c0,7.376,5.978,13.356,13.355,13.356c8.051,0,482.652,0,485.274,0c7.376,0,13.355-5.981,13.355-13.356
	c0-20.64,0-405.143,0-426.006C511.991,65.261,506.013,59.28,498.637,59.28z"/>
<path style="fill:#F2F7FC;" d="M498.637,59.28h-33.335v42.873c0,9.051-7.339,16.392-16.392,16.392
	c-9.054,0-16.394-7.34-16.394-16.392V59.28h-33.6v42.873c0,9.051-7.339,16.392-16.394,16.392c-9.052,0-16.392-7.34-16.392-16.392
	V59.28H260.344c-29.121,165.213,89.03,316.932,251.648,333.41c0-10.423,0-310.106,0-320.053
	C511.991,65.261,506.013,59.28,498.637,59.28z"/>
<path style="fill:#AFCBD8;" d="M31.315,498.636c0-20.64,0-405.144,0-426.007c0-7.376,5.98-13.356,13.357-13.356h-31.31
	c-7.377,0-13.355,5.98-13.355,13.356c0,19.767,0,406.191,0,426.007c0,7.376,5.978,13.356,13.355,13.356h31.31
	C37.295,511.992,31.315,506.012,31.315,498.636z"/>
<path style="fill:#FFCA54;" d="M256.001,239.32c-21.227,9.169-21.23,39.349,0,48.516C277.182,278.684,277.26,248.509,256.001,239.32
	z"/>
<path style="fill:#57BAE5;" d="M268.234,308.664c-17.048-4.836-37.426-0.251-37.426,16.812v34.407h50.381v-34.407
	C281.189,316.153,275.384,311.241,268.234,308.664z"/>
<path style="fill:#7C5437;" d="M378.035,360.777H133.963c-9.83,0-17.802,7.963-17.812,17.791v83.074h279.696v-83.074
	C395.836,368.74,387.866,360.777,378.035,360.777z"/>
<path style="fill:#31A8BC;" d="M271.653,310.153c-11.869-6.147-40.844-5.198-40.844,15.322v34.407h31.31v-34.407
	C262.119,317.699,266.164,312.998,271.653,310.153z"/>
<path style="fill:#603D26;" d="M165.273,360.777h-31.31c-9.83,0-17.802,7.963-17.812,17.791v83.074h31.31v-83.074
	C147.471,368.74,155.443,360.777,165.273,360.777z"/>
<path style="fill:#FFC373;" d="M378.035,360.777H133.963c-9.157,0-16.789,6.932-17.722,15.991c-0.123,1.213-0.09,0.716-0.09,15.475
	l33.144,21.535c11.697,7.599,21.937,3.027,25.552,0.904l22.676-14.734h0.002c10.363-6.735,19.511-2.55,22.603-0.724
	c39.559,25.7,31.822,25.937,71.745,0c3.09-1.826,12.238-6.011,22.601,0.724c0.002,0,0.002,0,0.002,0l22.676,14.734
	c3.615,2.122,13.857,6.695,25.554-0.904l33.143-21.534V378.59C395.848,368.754,387.873,360.777,378.035,360.777z"/>
<path style="fill:#EF9A4D;" d="M147.461,378.569c0.01-9.829,7.982-17.791,17.812-17.791c-33.344,0-34.545-0.675-39.739,2.12
	c-5.864,3.188-9.384,9.212-9.384,15.693v13.653l31.31,20.342V378.569z"/>
<path style="fill:#FC3842;" d="M426.165,198.4h85.827V72.638c0-7.376-5.978-13.356-13.355-13.356h-33.335v42.873
	c0,9.051-7.339,16.392-16.392,16.392c-9.054,0-16.394-7.34-16.394-16.392V59.28h-33.6v42.873c0,9.051-7.339,16.392-16.394,16.392
	c-9.052,0-16.392-7.34-16.392-16.392V59.28H145.867v42.873c0,9.051-7.337,16.392-16.39,16.392c-9.054,0-16.394-7.34-16.394-16.392
	V59.28H79.482v42.873c0,9.051-7.339,16.392-16.394,16.392c-9.052,0-16.392-7.34-16.392-16.392V59.28H13.362
	c-7.377,0-13.355,5.981-13.355,13.356v125.763h397.22"/>
<path style="fill:#FC4F60;" d="M498.637,59.28h-33.335v42.873c0,9.051-7.339,16.392-16.392,16.392
	c-9.054,0-16.394-7.34-16.394-16.392V59.28h-33.6v42.873c0,9.051-7.339,16.392-16.394,16.392c-9.052,0-16.392-7.34-16.392-16.392
	V59.28H260.344c-7.879,44.698-5.33,92.775,9.948,139.12c8.657,0,226.929,0,241.7,0V72.638
	C511.991,65.261,506.013,59.28,498.637,59.28z"/>
<path style="fill:#C6122C;" d="M31.315,71.523c0-5.48,3.303-10.183,8.025-12.243H13.362c-7.377,0-13.355,5.981-13.355,13.356
	c0,7.238,0,118.694,0,125.763h31.308C31.315,193.01,31.315,76.506,31.315,71.523z"/>
<g>
	<path style="fill:#FFCA54;" d="M79.482,102.154c0,9.051-7.339,16.392-16.394,16.392l0,0c-9.052,0-16.392-7.34-16.392-16.392V16.407
		c0-9.055,7.341-16.393,16.392-16.393c9.054,0,16.394,7.339,16.394,16.393V102.154z"/>
	<path style="fill:#FFCA54;" d="M145.867,102.154c0,9.051-7.337,16.392-16.39,16.392l0,0c-9.054,0-16.394-7.34-16.394-16.392V16.407
		c0-9.042,7.328-16.393,16.394-16.393c9.052,0,16.39,7.339,16.39,16.393V102.154z"/>
	<path style="fill:#FFCA54;" d="M398.917,102.154c0,9.051-7.339,16.392-16.394,16.392l0,0c-9.052,0-16.392-7.34-16.392-16.392
		V16.407c0-9.053,7.339-16.393,16.392-16.393c9.05,0,16.394,7.335,16.394,16.393V102.154z"/>
	<path style="fill:#FFCA54;" d="M465.302,102.154c0,9.051-7.339,16.392-16.392,16.392l0,0c-9.054,0-16.394-7.34-16.394-16.392
		V16.407c0-9.053,7.339-16.393,16.394-16.393c9.055,0,16.392,7.342,16.392,16.393V102.154z"/>
</g>
<g>
	<path style="fill:#F99830;" d="M63.76,102.154V16.407c0-5.923,3.153-11.096,7.861-13.977C60.698-4.253,46.696,3.647,46.696,16.407
		v85.747c0,9.051,7.339,16.392,16.392,16.392c3.131,0,6.044-0.893,8.533-2.415C66.912,113.249,63.76,108.076,63.76,102.154z"/>
	<path style="fill:#F99830;" d="M130.147,102.154V16.407c0-5.923,3.153-11.096,7.861-13.977
		c-10.924-6.683-24.925,1.217-24.925,13.977v85.747c0,9.051,7.339,16.392,16.394,16.392c3.129,0,6.042-0.893,8.531-2.415
		C133.299,113.249,130.147,108.076,130.147,102.154z"/>
	<path style="fill:#F99830;" d="M383.195,102.154V16.407c0-5.923,3.153-11.096,7.861-13.977c-2.488-1.523-5.402-2.416-8.533-2.416
		c-9.052,0-16.392,7.339-16.392,16.393v85.747c0,12.758,14.002,20.659,24.925,13.977
		C386.347,113.249,383.195,108.076,383.195,102.154z"/>
	<path style="fill:#F99830;" d="M449.581,102.154V16.407c0-5.923,3.153-11.096,7.861-13.977c-2.488-1.523-5.402-2.416-8.531-2.416
		c-9.054,0-16.394,7.339-16.394,16.393v85.747c0,12.755,14.001,20.659,24.925,13.977
		C452.733,113.249,449.581,108.076,449.581,102.154z"/>
</g>
<g>
	<path style="fill:#C6122C;" d="M303.577,125.78h-95.156c-4.611,0-8.348-3.738-8.348-8.347c0-4.612,3.739-8.347,8.348-8.347h95.156
		c4.611,0,8.348,3.737,8.348,8.347S308.187,125.78,303.577,125.78z"/>
	<path style="fill:#C6122C;" d="M303.577,161.269h-95.156c-4.611,0-8.348-3.737-8.348-8.346c0-4.612,3.739-8.347,8.348-8.347h95.156
		c4.611,0,8.348,3.737,8.348,8.347C311.926,157.534,308.187,161.269,303.577,161.269z"/>
</g>
<path style="fill:#9EC6D8;" d="M419.057,469.991H92.943c-4.609,0-8.346-3.737-8.346-8.347s3.738-8.347,8.346-8.347h326.114
	c4.609,0,8.346,3.738,8.346,8.347C427.403,466.254,423.665,469.991,419.057,469.991z"/>
<g>
</g>
<g>
</g>
<g>
</g>
<g>
</g>
<g>
</g>
<g>
</g>
<g>
</g>
<g>
</g>
<g>
</g>
<g>
</g>
<g>
</g>
<g>
</g>
<g>
</g>
<g>
</g>
<g>
</g>
</svg>
