<?xml version="1.0" encoding="UTF-8"?>
<!DOCTYPE svg PUBLIC "-//W3C//DTD SVG 1.1//EN" "http://www.w3.org/Graphics/SVG/1.1/DTD/svg11.dtd">
<!-- Creator: CorelDRAW X8 -->
<svg xmlns="http://www.w3.org/2000/svg" xml:space="preserve" width="100%" height="100%" version="1.1" style="shape-rendering:geometricPrecision; text-rendering:geometricPrecision; image-rendering:optimizeQuality; fill-rule:evenodd; clip-rule:evenodd"
viewBox="0 0 21000 23808"
 xmlns:xlink="http://www.w3.org/1999/xlink">
 <defs>
  <style type="text/css">
   <![CDATA[
    .fil0 {fill:none}
    .fil1 {fill:#FEFEFE}
    .fil2 {fill:#434A54}
    .fil5 {fill:#8CC153}
    .fil4 {fill:#F6BB42}
    .fil3 {fill:#FFCE54}
   ]]>
  </style>
 </defs>
 <g id="Слой_x0020_1">
  <metadata id="CorelCorpID_0Corel-Layer"/>
  <rect class="fil0" width="21000" height="23808"/>
  <g id="_2400820932736">
   <path class="fil1" d="M19612 21967c0,683 -554,1237 -1237,1237l-15750 0c-683,0 -1237,-554 -1237,-1237l0 -20125c0,-683 554,-1238 1237,-1238 5250,0 10500,0 15750,0 683,0 1237,555 1237,1238l0 20125z"/>
   <g>
    <path class="fil2" d="M18812 21967c0,242 -195,437 -437,437l-15750 0c-241,0 -437,-195 -437,-437l0 -20125c0,-242 196,-438 437,-438l15750 0c242,0 437,196 437,438l0 20125 0 0zm-3937 -5688l-3937 0c-242,0 -438,197 -438,438 0,242 196,437 438,437l3937 0c242,0 438,-195 438,-437 0,-241 -196,-438 -438,-438zm-3937 -7875l3937 0c242,0 438,-196 438,-437 0,-242 -196,-437 -438,-437l-3937 0c-242,0 -438,195 -438,437 0,241 196,437 438,437zm3937 3500l-3937 0c-242,0 -438,196 -438,438 0,242 196,438 438,438l3937 0c242,0 438,-196 438,-438 0,-242 -196,-438 -438,-438zm-11375 9187l13999 0 0 -18375 -13999 0 0 18375z"/>
    <polygon class="fil3" points="13562,3154 7438,3154 6563,1404 14438,1404 "/>
    <path class="fil4" d="M11376 2280l-1751 0c-242,0 -437,-197 -437,-438 0,-242 195,-438 437,-438l1751 0c241,0 437,196 437,438 0,241 -196,438 -437,438z"/>
    <path class="fil5" d="M8600 15426l-1 1 -1546 1546 -618 -618c0,0 0,-1 0,-1 -171,-170 -449,-171 -619,0 -171,172 -171,448 0,619l0 0 928 928 0 0c171,171 448,171 618,0l0 0 1857 -1856 0 0 0 0c171,-171 171,-447 0,-619 -171,-171 -448,-171 -619,0zm0 -8749l-1 0 -1546 1546 -618 -618c0,0 0,0 0,0 -171,-172 -449,-172 -619,0 -171,170 -171,447 0,618l0 0 928 928 0 0c171,171 448,171 618,0l0 0 1856 -1856 1 0c171,-171 171,-448 0,-618 -171,-172 -448,-172 -619,0zm0 4374c0,1 0,1 0,1l-1547 1546 -618 -618c0,0 0,0 0,0 -171,-171 -449,-171 -619,-1 -171,171 -171,448 0,619l0 0 928 928 0 0c171,171 448,171 618,0l0 0 1857 -1856 0 0 0 0c171,-171 171,-448 0,-619 -171,-170 -448,-170 -619,0z"/>
   </g>
  </g>
 </g>
</svg>
