<?xml version="1.0" encoding="UTF-8"?>
<!DOCTYPE svg PUBLIC "-//W3C//DTD SVG 1.1//EN" "http://www.w3.org/Graphics/SVG/1.1/DTD/svg11.dtd">
<!-- Creator: CorelDRAW X8 -->
<svg xmlns="http://www.w3.org/2000/svg" xml:space="preserve" width="100%" height="100%" version="1.1" style="shape-rendering:geometricPrecision; text-rendering:geometricPrecision; image-rendering:optimizeQuality; fill-rule:evenodd; clip-rule:evenodd"
viewBox="0 0 21000 23808"
 xmlns:xlink="http://www.w3.org/1999/xlink">
 <defs>
  <style type="text/css">
   <![CDATA[
    .fil0 {fill:none}
    .fil5 {fill:#FEFEFE}
    .fil6 {fill:#96989A}
    .fil7 {fill:#96989A}
    .fil9 {fill:#373435}
    .fil1 {fill:#434A54}
    .fil4 {fill:#8CC153}
    .fil8 {fill:#8CC153}
    .fil3 {fill:#F6BB42}
    .fil2 {fill:#FFCE54}
   ]]>
  </style>
 </defs>
 <g id="Слой_x0020_1">
  <metadata id="CorelCorpID_0Corel-Layer"/>
  <rect class="fil0" width="21000" height="23808"/>
  <g id="_2400820931104">
   <path class="fil1" d="M-70757 21967c0,242 -196,437 -437,437l-15750 0c-242,0 -438,-195 -438,-437l0 -20125c0,-242 196,-438 438,-438l15750 0c241,0 437,196 437,438l0 20125 0 0zm-3938 -5688l-3937 0c-241,0 -437,197 -437,438 0,242 196,437 437,437l3937 0c243,0 439,-195 439,-437 0,-241 -196,-438 -439,-438zm-3937 -7875l3937 0c243,0 439,-196 439,-437 0,-242 -196,-437 -439,-437l-3937 0c-241,0 -437,195 -437,437 0,241 196,437 437,437zm3937 3500l-3937 0c-241,0 -437,196 -437,438 0,242 196,438 437,438l3937 0c243,0 439,-196 439,-438 0,-242 -196,-438 -439,-438zm-11374 9187l13999 0 0 -18375 -13999 0 0 18375z"/>
   <polygon class="fil2" points="-76007,3154 -82132,3154 -83007,1404 -75132,1404 "/>
   <path class="fil3" d="M-78194 2280l-1750 0c-242,0 -438,-197 -438,-438 0,-242 196,-438 438,-438l1750 0c241,0 437,196 437,438 0,241 -196,438 -437,438z"/>
   <path class="fil4" d="M-80969 15426l-1 1 -1546 1546 -618 -618c-1,0 -1,-1 -1,-1 -171,-170 -448,-171 -619,0 -170,172 -170,448 0,619l0 0 929 928 0 0c170,171 447,171 618,0l0 0 1856 -1856 0 0 0 0c171,-171 171,-447 0,-619 -170,-171 -448,-171 -618,0zm0 -8749l-1 0 -1546 1546 -618 -618c-1,0 -1,0 -1,0 -171,-172 -448,-172 -619,0 -170,170 -170,447 0,618l0 0 929 928 0 0c170,171 447,171 618,0l0 0 1856 -1856 0 0c171,-171 171,-448 0,-618 -170,-172 -448,-172 -618,0zm0 4374c0,1 -1,1 -1,1l-1546 1546 -618 -618c-1,0 -1,0 -1,0 -171,-171 -448,-171 -619,-1 -170,171 -170,448 0,619l0 0 929 928 0 0c170,171 447,171 618,0l0 0 1856 -1856 0 0 0 0c171,-171 171,-448 0,-619 -170,-170 -448,-170 -618,0z"/>
  </g>
  <path class="fil5" d="M6402 7312l1188 0 291 -979 104 -1088 797 -1690 1819 540 -240 1851 -504 975 -116 391 3308 0c92,-167 199,-328 321,-481 647,-818 1618,-1304 2661,-1335 381,-11 734,200 905,541 17,33 32,67 44,101l2679 0 0 2195 0 0 0 5293 477 0 0 5880c0,2030 -1646,3677 -3677,3677l-10939 0c-2030,0 -3677,-1647 -3677,-3677l0 -5880 476 0 0 -2801 -2027 -2027 524 -524c300,-300 605,-624 931,-896 192,-160 404,-306 634,-388 63,-89 133,-174 209,-250l218 -218c193,-193 429,-334 686,-413l57 -45c4,-3 7,-6 11,-9l9 -8 125 -88c79,-58 161,-109 244,-160 22,-13 44,-26 65,-39l24 -15 9 -5c9,-5 17,-9 25,-14l59 -31c98,-52 195,-102 298,-145l13 -6c128,-53 253,-104 387,-142l39 -12c53,-16 107,-32 161,-45l16 -4 153 -31c121,-28 241,-41 365,-51l38 -3c115,-14 226,-13 341,-8 19,1 38,2 57,2l13 0 13 1c6,0 13,0 20,0 67,2 133,6 200,17l125 19 4 1c18,3 37,5 55,8 84,13 164,26 246,50l271 78c419,119 699,519 670,952 -15,224 -111,434 -269,593 -141,141 -324,232 -521,261l-254 37c-5,2 -10,3 -15,5 -28,8 -57,16 -85,23l-59 17c-1,0 -1,0 -2,0zm13243 1040l-53 -13c5,23 9,45 13,68l40 -55zm-3284 4185c-152,10 -306,11 -460,0l-125 0 -799 1089 1733 0 0 -1089 -349 0zm348 -5300l-60 75 60 0 0 -75z"/>
  <g id="_2400820930720">
   <path class="fil1" d="M16200 8713l976 189 995 -1256c181,-228 483,-332 765,-265l0 -541 -1468 0 0 1175 -1582 0 314 698zm1268 5615l-3442 0 -492 0 -119 0 -5778 0 0 0 -770 0 0 0 -524 0 0 0 -770 0 0 0 -290 0 -524 0 -212 0 -1 0 0 -2569 975 0 174 -588c44,-147 74,-187 162,-310l-1574 -1613c-216,297 -429,605 -761,935l-444 443 0 3702 -477 0 0 5140c0,1621 1315,2936 2937,2936l10939 0c1622,0 2937,-1314 2937,-2936l0 -5140 -478 0 0 -3763c-26,36 -52,73 -81,108 -408,517 -951,888 -1558,1086l171 0 0 2569zm-8153 -6313l-569 1912 1833 1832 982 0 1633 -1943c-224,-580 -275,-1205 -164,-1801l-3715 0 0 0zm-1980 1015l301 -1015 -1316 0 1015 1015z"/>
   <path class="fil6" d="M13786 13985l1591 -2170c34,-43 65,-87 93,-133 1030,259 2163,-85 2864,-970 512,-646 711,-1479 545,-2288 -18,-91 -88,-164 -179,-186 -91,-21 -186,12 -245,85l-1188 1500 -1545 -299 -645 -1436 1189 -1500c58,-73 68,-174 26,-257 -42,-84 -128,-135 -221,-133 -825,25 -1591,409 -2103,1054 -700,885 -776,2066 -290,3009 -37,39 -73,80 -108,123l-2385 2838 577 578c57,57 108,119 152,185l1872 0z"/>
   <path class="fil7" d="M4041 8809c35,-17 70,-36 103,-55 17,22 34,44 55,64l1951 1952c123,-143 302,-234 497,-234 63,0 126,9 186,27l244 73 151 -510 -2168 -2168c-35,-34 -72,-63 -112,-87l5 -23c6,-20 12,-36 18,-54 5,-13 11,-27 16,-41 6,-15 12,-30 19,-45 10,-27 22,-55 37,-84l40 -83 47 -81c19,-38 41,-71 67,-108 13,-20 27,-41 40,-61 13,-17 25,-33 38,-51 32,-41 61,-81 93,-115l22 -25c43,-46 85,-94 134,-134 16,-14 28,-25 40,-36 17,-16 34,-31 52,-46l95 -69c3,-2 5,-4 7,-6 38,-30 84,-56 133,-83 19,-11 38,-21 57,-33 41,-26 83,-43 128,-61 23,-9 45,-18 67,-28 13,-5 27,-11 40,-17 14,-6 28,-13 42,-16l105 -30c20,-5 44,-12 69,-19 34,-10 67,-19 89,-22l280 -41c40,-6 76,-25 104,-52 30,-31 51,-72 54,-118 6,-87 -50,-166 -133,-191l-276 -78c-48,-15 -99,-22 -148,-29 -22,-4 -44,-7 -68,-11l-121 -19c-37,-6 -73,-7 -104,-7 -13,-1 -25,-1 -39,-2 -31,0 -54,-1 -78,-2 -70,-3 -150,-7 -234,5l-54 4c-80,7 -173,14 -266,36l-149 30c-46,12 -85,24 -123,36l-47 14c-108,30 -210,73 -309,114l-13 6c-85,35 -162,76 -236,116l-62 33c-4,2 -7,4 -12,6 -24,15 -48,30 -72,44 -64,39 -131,80 -193,126l-103 73c-2,2 -12,9 -15,12l-102 81c-28,21 -53,43 -77,64 -184,31 -361,116 -502,258l-219 218c-101,101 -195,242 -273,401 -342,-66 -807,440 -1501,1133l1551 1550c531,-532 1199,-1159 1133,-1501z"/>
   <path class="fil3" d="M11601 13985c-4,-4 -8,-8 -12,-12l-3284 -3285 137 353c168,50 306,161 389,315 83,153 101,330 52,498 -27,89 -73,172 -134,242 17,153 4,309 -41,458l-295 993 438 438 2750 0z"/>
   <polygon class="fil7" points="7853,11089 9254,6373 9298,6386 9661,5683 9803,4587 9199,4408 8728,5407 8652,6194 8697,6208 7296,10924 "/>
   <path class="fil4" d="M7950 13985l479 -1610c49,-166 45,-335 -2,-490 82,-42 148,-116 176,-211 54,-184 -50,-377 -235,-432l-1072 -318 0 0 -261 -77 -279 -84c-183,-52 -375,53 -429,236 -26,89 -15,180 23,257 -129,104 -229,248 -280,420l-685 2309 290 0 545 -1835c58,-196 263,-307 459,-249 195,58 307,263 248,459l-482 1625 524 0 440 -1482c58,-196 264,-307 459,-249 195,58 307,264 249,459l-378 1272 211 0z"/>
   <path class="fil8" d="M3184 15314l15646 0c58,0 106,-48 106,-107l0 0c0,-58 -48,-106 -106,-106l-15646 0c-58,0 -106,48 -106,106l0 0c0,59 48,107 106,107z"/>
  </g>
  <path class="fil9" d="M-51335 21967c0,683 -554,1237 -1237,1237l-15750 0c-683,0 -1237,-554 -1237,-1237l0 -20125c0,-683 554,-1238 1237,-1238 5250,0 10500,0 15750,0 683,0 1237,555 1237,1238l0 20125z"/>
  <path class="fil1" d="M-52135 21967c0,242 -195,437 -437,437l-15750 0c-242,0 -437,-195 -437,-437l0 -20125c0,-242 195,-438 437,-438 5250,0 10500,0 15750,0 242,0 437,196 437,438l0 20125z"/>
 </g>
</svg>
