<svg width="112" height="105" viewBox="0 0 112 105" xmlns="http://www.w3.org/2000/svg"><title>Layer_1</title><g fill="#f88225" fill-rule="evenodd"><path d="M109.2 21.3c-3.1-3.1-8.2-3.1-11.3 0L55 64.2 32.2 41.3c-3.1-3.1-8.2-3.1-11.3 0-3.1 3.1-3.1 8.2 0 11.3l28.5 28.5c1.6 1.6 3.6 2.3 5.7 2.3s4.1-.8 5.7-2.3l48.6-48.6c3-3 3-8.1-.2-11.2zm-1.4 9.9L59.3 79.7c-1.1 1.1-2.6 1.8-4.2 1.8s-3.1-.6-4.2-1.8L22.3 51.2c-1.1-1.1-1.8-2.6-1.8-4.2s.6-3.1 1.8-4.2c1.1-1.1 2.6-1.8 4.2-1.8s3.1.6 4.2 1.8L55 67l44.3-44.3c1.1-1.1 2.6-1.8 4.2-1.8s3.1.6 4.2 1.8c1.1 1.1 1.8 2.6 1.8 4.2s-.5 3.1-1.7 4.3z"/><path d="M99.4 45.2c.4 2.4.6 5 .6 7.5 0 26.5-21.5 48-48 48S4 79.2 4 52.7s21.5-48 48-48c16.2 0 30.5 8.1 39.2 20.4l2.9-2.9C84.7 9.2 69.3.7 52 .7 23.3.7 0 24 0 52.7s23.3 52 52 52 52-23.3 52-52c0-3.8-.4-7.4-1.2-10.9l-3.4 3.4z"/></g></svg>