<?xml version="1.0" encoding="UTF-8"?>
<!DOCTYPE svg PUBLIC "-//W3C//DTD SVG 1.1//EN" "http://www.w3.org/Graphics/SVG/1.1/DTD/svg11.dtd">
<!-- Creator: CorelDRAW X8 -->
<svg xmlns="http://www.w3.org/2000/svg" xml:space="preserve" width="100%" height="100%" version="1.1" style="shape-rendering:geometricPrecision; text-rendering:geometricPrecision; image-rendering:optimizeQuality; fill-rule:evenodd; clip-rule:evenodd"
viewBox="0 0 20900 7272"
 xmlns:xlink="http://www.w3.org/1999/xlink">
 <defs>
  <style type="text/css">
   <![CDATA[
    .fil0 {fill:#151515}
    .fil1 {fill:#F88225}
    .fil2 {fill:#373435;fill-rule:nonzero}
   ]]>
  </style>
 </defs>
 <g id="Слой_x0020_1">
  <metadata id="CorelCorpID_0Corel-Layer"/>
  <g id="_1684926604992">
   <g>
    <path class="fil0" d="M271 0l4740 0c148,0 272,123 272,271l0 4592 -1793 -1336 1229 748 0 -3790 -4156 0 0 341 658 489c16,9 16,21 16,37 4,13 9,38 -4,38l-41 73c337,247 539,399 1139,831l0 0 205 86c0,0 5,13 17,13l156 172c0,13 4,25 4,25l-78 103c-8,16 -20,16 -37,4l-210 -99c0,0 0,0 0,-12l-143 -173 0 0c-617,-456 -777,-575 -1143,-847l-41 70c-13,17 -25,17 -50,21 -12,0 -24,4 -41,-9l-407 -300 0 0 -209 -156 -70 -49c0,-4 -4,-4 -4,-4l-280 -210 0 -658c0,-148 123,-271 271,-271l0 0zm292 937l0 91 473 353 45 -45 -518 -399zm0 202l0 90 387 280 45 -58 -432 -312 0 0zm1694 -868l814 0 0 -37 -814 0 0 37zm1188 -20c0,24 -21,49 -45,49 -25,0 -45,-25 -45,-49 0,-25 20,-45 45,-45 24,0 45,20 45,45zm-1517 0c0,24 -21,49 -49,49 -25,0 -46,-25 -46,-49 0,-25 21,-45 46,-45 28,0 49,20 49,45z"/>
    <path class="fil1" d="M4797 5328l0 0 136 98 0 0 350 264 0 1311c0,148 -124,271 -272,271l-4740 0c-148,0 -271,-123 -271,-271l0 -5246 1792 1332 -1229 -744 0 4292 4156 0 0 -904 -152 -103 -789 -609 -148 -102c-169,86 -366,82 -518,-33 -148,-115 -218,-284 -197,-452l8 -50 370 280 230 -300 -370 -280 58 -25c156,-65 337,-45 472,58 153,111 222,312 173,502l136 98 0 0 805 613 0 0 0 0zm-2145 1595c0,4 -5,8 -13,8l0 0c-4,0 -8,-4 -8,-8l0 -95c0,-4 4,-8 8,-8l0 0c8,0 13,4 13,8l0 95zm-13 82c-20,0 -41,-8 -57,-25 -33,-33 -33,-82 0,-115 4,-8 12,-8 20,0 4,4 4,13 0,17 -24,20 -24,57 0,82 21,20 58,20 78,0 13,-12 17,-25 17,-41 0,-17 -4,-29 -17,-41 -4,-4 -4,-13 0,-17 4,-8 13,-8 17,0 16,13 24,37 24,58 0,20 -8,41 -24,57 -13,17 -37,25 -58,25l0 0zm152 -82c0,82 -70,148 -152,148 -82,0 -148,-66 -148,-148 0,-82 66,-152 148,-152 82,0 152,70 152,152z"/>
   </g>
   <path class="fil2" d="M8408 2990l-323 0c-33,0 -58,-14 -75,-42l-559 -971 -299 0 0 927c0,23 -8,44 -25,60 -16,17 -36,26 -60,26l-303 0c-24,0 -44,-9 -61,-26 -17,-16 -26,-37 -26,-60l0 -2281c0,-24 9,-44 26,-61 17,-16 37,-24 61,-24l831 0c193,0 361,48 505,142 98,66 174,149 229,249 54,100 81,210 81,329 0,118 -27,227 -81,328 -85,155 -215,265 -390,330l544 945c9,14 13,28 13,43 0,14 -4,28 -13,44 -16,28 -41,42 -75,42zm-813 -1453c94,0 172,-22 234,-64 71,-51 107,-123 107,-215 0,-94 -36,-166 -107,-215 -62,-44 -140,-66 -234,-66l-443 0 0 560 443 0zm2910 1453l-1443 0c-24,0 -44,-9 -61,-26 -17,-16 -26,-37 -26,-60l0 -2281c0,-24 9,-44 26,-61 17,-16 37,-24 61,-24l1443 0c23,0 43,8 60,24 18,17 26,37 26,61l0 267c0,24 -8,44 -26,61 -17,17 -37,26 -60,26l-1055 0 0 556 955 0c24,0 45,9 61,26 17,17 25,37 25,61l0 268c0,23 -8,44 -25,60 -16,18 -37,26 -61,26l-955 0 0 575 1055 0c23,0 43,9 60,26 18,17 26,37 26,61l0 268c0,23 -8,44 -26,60 -17,17 -37,26 -60,26zm2957 0l-294 0c-24,0 -44,-9 -62,-26 -16,-16 -25,-37 -25,-60l0 -1543 -669 1053c-16,27 -41,41 -73,41 -30,0 -53,-14 -71,-41l-668 -1053 0 1543c0,23 -9,44 -26,60 -16,17 -37,26 -60,26l-297 0c-24,0 -44,-9 -61,-26 -17,-16 -26,-37 -26,-60l0 -2281c0,-24 9,-44 26,-61 17,-16 37,-24 61,-24l317 0c31,0 55,13 73,39l732 1149 736 -1149c16,-26 41,-39 72,-39l315 0c24,0 44,8 61,24 17,17 25,37 25,61l0 2281c0,23 -8,44 -25,60 -17,17 -37,26 -61,26zm1782 38c-178,0 -340,-31 -488,-94 -156,-67 -289,-166 -398,-296 -98,-118 -172,-255 -222,-410 -46,-146 -69,-301 -69,-464 0,-164 23,-319 69,-464 50,-157 124,-294 222,-412 109,-129 242,-227 398,-294 148,-63 310,-95 488,-95 177,0 339,32 487,95 156,67 289,165 398,294 98,118 172,255 222,412 46,145 69,300 69,464 0,163 -23,318 -69,464 -50,155 -124,292 -222,410 -109,130 -242,229 -398,296 -148,63 -310,94 -487,94zm0 -431c234,0 416,-92 545,-274 105,-150 157,-337 157,-559 0,-223 -52,-409 -157,-561 -130,-181 -312,-272 -545,-272 -234,0 -416,91 -545,272 -106,151 -158,337 -158,561 0,224 52,410 158,559 128,182 310,274 545,274zm3467 393l-299 0c-32,0 -56,-13 -73,-39l-992 -1556 0 1509c0,23 -9,44 -26,60 -17,17 -37,26 -61,26l-296 0c-24,0 -44,-9 -61,-26 -17,-16 -26,-37 -26,-60l0 -2281c0,-24 9,-44 26,-61 17,-16 37,-24 61,-24l298 0c31,0 56,13 73,39l994 1556 0 -1510c0,-24 8,-44 25,-61 17,-16 37,-24 61,-24l296 0c24,0 45,8 61,24 17,17 26,37 26,61l0 2281c0,23 -9,44 -26,60 -16,17 -37,26 -61,26zm1482 0l-304 0c-23,0 -43,-9 -60,-26 -16,-16 -24,-37 -24,-60l0 -1927 -537 0c-23,0 -44,-9 -60,-26 -18,-17 -26,-37 -26,-61l0 -267c0,-24 8,-44 26,-61 16,-16 37,-24 60,-24l1546 0c24,0 44,8 61,24 17,17 25,37 25,61l0 267c0,24 -8,44 -25,61 -17,17 -37,26 -61,26l-537 0 0 1927c0,23 -8,44 -24,60 -17,17 -36,26 -60,26zm-12699 3743l-303 0c-24,0 -44,-9 -60,-26 -17,-16 -25,-36 -25,-60l0 -1927 -537 0c-23,0 -43,-9 -60,-25 -18,-18 -26,-38 -26,-62l0 -267c0,-24 8,-44 26,-60 17,-17 37,-25 60,-25l1546 0c24,0 44,8 61,25 17,16 25,36 25,60l0 267c0,24 -8,44 -25,62 -17,16 -37,25 -61,25l-537 0 0 1927c0,24 -8,44 -24,60 -17,17 -36,26 -60,26zm2025 -1053l-283 -805 -284 805 567 0zm-918 995c-15,39 -42,58 -81,58l-322 0c-34,0 -58,-13 -71,-38 -7,-13 -10,-28 -10,-45 0,-17 8,-46 23,-86l808 -2227c6,-17 16,-30 30,-41 15,-9 31,-15 49,-15l415 0c40,0 67,19 82,56l807 2227c16,40 24,69 24,86 0,17 -4,32 -10,45 -14,25 -38,38 -71,38l-322 0c-39,0 -66,-19 -81,-58l-196 -555 -878 0 -196 555zm3159 58l-894 0c-23,0 -44,-9 -61,-26 -17,-16 -25,-36 -25,-60l0 -2281c0,-24 8,-44 25,-60 17,-17 38,-25 61,-25l830 0c193,0 361,48 505,143 99,65 175,148 230,249 54,100 81,209 81,328 0,212 -89,368 -266,467 227,152 340,332 340,538 0,120 -27,231 -82,332 -56,102 -134,186 -234,253 -144,95 -314,142 -510,142zm-64 -1453c94,0 171,-21 234,-64 72,-51 108,-123 108,-215 0,-94 -36,-165 -108,-215 -63,-44 -140,-66 -234,-66l-442 0 0 560 442 0zm64 1013c97,0 177,-22 241,-66 74,-52 111,-126 111,-221 0,-94 -37,-168 -111,-220 -64,-44 -144,-66 -241,-66l-506 0 0 573 506 0zm2884 440l-1441 0c-24,0 -44,-9 -61,-26 -17,-16 -26,-36 -26,-60l0 -2281c0,-24 9,-44 26,-60 17,-17 37,-25 61,-25l301 0c24,0 44,8 61,25 17,16 26,36 26,60l0 1927 1053 0c23,0 44,8 61,25 17,17 25,38 25,61l0 268c0,24 -8,44 -25,60 -17,17 -38,26 -61,26zm2041 0l-1442 0c-24,0 -44,-9 -61,-26 -17,-16 -26,-36 -26,-60l0 -2281c0,-24 9,-44 26,-60 17,-17 37,-25 61,-25l1442 0c24,0 44,8 61,25 17,16 26,36 26,60l0 267c0,24 -9,44 -26,62 -17,16 -37,25 -61,25l-1054 0 0 557 954 0c25,0 46,8 62,25 16,17 25,38 25,61l0 268c0,24 -9,44 -25,61 -16,17 -37,25 -62,25l-954 0 0 576 1054 0c24,0 44,8 61,25 17,17 26,38 26,61l0 268c0,24 -9,44 -26,60 -17,17 -37,26 -61,26zm1443 0l-303 0c-24,0 -44,-9 -61,-26 -16,-16 -24,-36 -24,-60l0 -1927 -537 0c-23,0 -44,-9 -60,-25 -18,-18 -26,-38 -26,-62l0 -267c0,-24 8,-44 26,-60 16,-17 37,-25 60,-25l1546 0c24,0 44,8 61,25 17,16 25,36 25,60l0 267c0,24 -8,44 -25,62 -17,16 -37,25 -61,25l-537 0 0 1927c0,24 -8,44 -24,60 -17,17 -36,26 -60,26zm1668 -1036c-190,-103 -327,-191 -412,-264 -78,-68 -135,-151 -172,-249 -31,-78 -46,-159 -46,-244 0,-123 27,-235 81,-336 128,-240 363,-360 708,-360 280,0 523,72 730,217 27,18 40,43 40,74 0,14 -4,27 -12,41l-133 232c-18,29 -43,44 -75,44 -18,0 -35,-6 -51,-17 -48,-35 -118,-73 -209,-113 -91,-41 -187,-63 -290,-65 -84,0 -155,17 -212,53 -69,44 -103,101 -103,171 0,111 84,219 251,323 59,35 133,77 221,125 181,100 312,185 395,256 78,68 135,150 173,249 30,78 45,159 45,244 0,123 -27,234 -81,335 -127,240 -364,360 -708,360 -280,0 -523,-72 -730,-216 -27,-18 -40,-43 -40,-75 0,-13 4,-26 11,-40l135 -232c17,-30 42,-44 74,-44 18,0 35,5 51,17 48,34 118,73 209,113 91,40 187,62 290,64 100,0 177,-23 232,-69 56,-44 83,-96 83,-154 0,-110 -65,-207 -194,-291 -65,-40 -152,-89 -261,-149z"/>
  </g>
 </g>
</svg>
