<?xml version="1.0" encoding="UTF-8"?>
<!DOCTYPE svg PUBLIC "-//W3C//DTD SVG 1.1//EN" "http://www.w3.org/Graphics/SVG/1.1/DTD/svg11.dtd">
<!-- Creator: CorelDRAW X8 -->
<svg xmlns="http://www.w3.org/2000/svg" xml:space="preserve" width="100%" height="100%" version="1.1" style="shape-rendering:geometricPrecision; text-rendering:geometricPrecision; image-rendering:optimizeQuality; fill-rule:evenodd; clip-rule:evenodd"
viewBox="0 0 12433 6021"
 xmlns:xlink="http://www.w3.org/1999/xlink">
 <defs>
  <style type="text/css">
   <![CDATA[
    .fil1 {fill:#373435}
    .fil2 {fill:#F88225}
    .fil0 {fill:#373435;fill-rule:nonzero}
   ]]>
  </style>
 </defs>
 <g id="Слой_x0020_1">
  <metadata id="CorelCorpID_0Corel-Layer"/>
  <g id="_1973548680848">
   <path class="fil0" d="M5137 1949l-188 0c-20,0 -34,-8 -44,-25l-327 -567 -174 0 0 542c0,13 -5,25 -15,35 -9,10 -21,15 -35,15l-177 0c-14,0 -26,-5 -36,-15 -9,-10 -15,-22 -15,-35l0 -1332c0,-14 6,-26 15,-36 10,-9 22,-14 36,-14l485 0c113,0 211,28 295,83 58,38 102,87 134,145 32,59 47,123 47,192 0,69 -15,133 -47,192 -50,91 -125,155 -228,193l318 552c5,8 8,16 8,25 0,8 -3,16 -8,25 -9,17 -24,25 -44,25l0 0zm-475 -849c55,0 101,-12 137,-37 42,-30 63,-72 63,-126 0,-54 -21,-97 -63,-125 -36,-26 -82,-39 -137,-39l-258 0 0 327 258 0 0 0zm1700 849l-843 0c-14,0 -26,-5 -35,-15 -10,-10 -16,-22 -16,-35l0 -1332c0,-14 6,-26 16,-36 9,-9 21,-14 35,-14l843 0c13,0 25,5 35,14 10,10 15,22 15,36l0 156c0,14 -5,25 -15,35 -10,10 -22,15 -35,15l-616 0 0 325 557 0c14,0 27,5 36,15 10,10 15,22 15,36l0 156c0,14 -5,26 -15,35 -9,11 -22,16 -36,16l-557 0 0 335 616 0c13,0 25,6 35,16 10,9 15,21 15,35l0 157c0,13 -5,25 -15,35 -10,10 -22,15 -35,15l0 0zm1727 0l-172 0c-14,0 -26,-5 -36,-15 -9,-10 -15,-22 -15,-35l0 -901 -390 615c-10,15 -24,23 -43,23 -18,0 -31,-8 -42,-23l-390 -615 0 901c0,13 -5,25 -15,35 -9,10 -21,15 -35,15l-173 0c-14,0 -26,-5 -36,-15 -10,-10 -15,-22 -15,-35l0 -1332c0,-14 5,-26 15,-36 10,-9 22,-14 36,-14l185 0c18,0 32,8 42,23l428 671 430 -671c9,-15 24,-23 42,-23l184 0c14,0 25,5 35,14 10,10 15,22 15,36l0 1332c0,13 -5,25 -15,35 -10,10 -21,15 -35,15l0 0zm1040 22c-103,0 -198,-18 -285,-55 -91,-39 -168,-97 -232,-173 -57,-69 -100,-149 -130,-239 -26,-85 -40,-176 -40,-271 0,-96 14,-186 40,-271 30,-92 73,-172 130,-241 64,-75 141,-132 232,-171 87,-37 182,-56 285,-56 104,0 198,19 285,56 91,39 169,96 232,171 58,69 101,149 130,241 27,85 40,175 40,271 0,95 -13,186 -40,271 -29,90 -72,170 -130,239 -63,76 -141,134 -232,173 -87,37 -181,55 -285,55zm0 -252c137,0 243,-53 319,-160 61,-87 91,-196 91,-326 0,-130 -30,-239 -91,-328 -76,-105 -182,-159 -319,-159 -136,0 -242,54 -318,159 -62,88 -92,197 -92,328 0,131 30,239 92,326 75,107 181,160 318,160zm2025 230l-174 0c-19,0 -33,-8 -43,-23l-579 -909 0 882c0,13 -6,25 -16,35 -10,10 -21,15 -35,15l-173 0c-14,0 -26,-5 -36,-15 -10,-10 -15,-22 -15,-35l0 -1332c0,-14 5,-26 15,-36 10,-9 22,-14 36,-14l174 0c18,0 33,8 43,23l580 908 0 -881c0,-14 5,-26 15,-36 10,-9 21,-14 35,-14l173 0c14,0 26,5 36,14 10,10 15,22 15,36l0 1332c0,13 -5,25 -15,35 -10,10 -22,15 -36,15zm866 0l-178 0c-13,0 -25,-5 -35,-15 -9,-10 -14,-22 -14,-35l0 -1126 -314 0c-13,0 -25,-5 -35,-15 -10,-10 -15,-21 -15,-35l0 -156c0,-14 5,-26 15,-36 10,-9 22,-14 35,-14l903 0c14,0 26,5 36,14 10,10 15,22 15,36l0 156c0,14 -5,25 -15,35 -10,10 -22,15 -36,15l-313 0 0 1126c0,13 -5,25 -14,35 -10,10 -21,15 -35,15l0 0zm-7417 2186l-177 0c-14,0 -25,-5 -35,-15 -9,-10 -14,-21 -14,-35l0 -1126 -314 0c-13,0 -25,-5 -35,-14 -10,-11 -15,-23 -15,-37l0 -155c0,-15 5,-26 15,-36 10,-9 22,-14 35,-14l903 0c14,0 26,5 36,14 10,10 14,21 14,36l0 155c0,14 -4,26 -14,37 -10,9 -22,14 -36,14l-314 0 0 1126c0,14 -4,25 -14,35 -9,10 -21,15 -35,15l0 0zm1183 -615l-165 -470 -166 470 331 0 0 0zm-536 581c-9,23 -25,34 -47,34l-188 0c-20,0 -34,-8 -42,-22 -4,-8 -6,-17 -6,-27 0,-10 5,-26 14,-50l472 -1300c3,-10 9,-18 17,-24 9,-6 18,-9 29,-9l242 0c23,0 39,11 48,33l471 1300c10,24 14,40 14,50 0,10 -2,19 -6,27 -8,14 -22,22 -41,22l-188 0c-23,0 -39,-11 -47,-34l-115 -324 -513 0 -114 324 0 0zm1845 34l-522 0c-14,0 -26,-5 -36,-15 -10,-10 -15,-21 -15,-35l0 -1332c0,-15 5,-26 15,-36 10,-9 22,-14 36,-14l484 0c113,0 211,28 295,83 58,38 103,87 135,146 31,58 47,122 47,191 0,124 -52,215 -155,273 132,89 198,194 198,314 0,70 -16,135 -48,194 -32,60 -78,109 -136,148 -84,55 -184,83 -298,83l0 0zm-38 -849c55,0 100,-12 137,-37 42,-30 63,-72 63,-126 0,-55 -21,-96 -63,-125 -37,-26 -82,-39 -137,-39l-258 0 0 327 258 0 0 0zm38 592c56,0 103,-13 141,-39 43,-30 64,-73 64,-129 0,-55 -21,-98 -64,-128 -38,-26 -85,-39 -141,-39l-296 0 0 335 296 0zm1684 257l-841 0c-15,0 -26,-5 -36,-15 -10,-10 -15,-21 -15,-35l0 -1332c0,-15 5,-26 15,-36 10,-9 21,-14 36,-14l175 0c14,0 26,5 36,14 10,10 15,21 15,36l0 1125 615 0c13,0 26,5 36,14 10,10 14,23 14,36l0 157c0,14 -4,25 -14,35 -10,10 -23,15 -36,15l0 0zm1192 0l-842 0c-14,0 -26,-5 -36,-15 -10,-10 -15,-21 -15,-35l0 -1332c0,-15 5,-26 15,-36 10,-9 22,-14 36,-14l842 0c14,0 26,5 36,14 10,10 15,21 15,36l0 155c0,14 -5,26 -15,37 -10,9 -22,14 -36,14l-616 0 0 326 558 0c14,0 26,4 36,14 9,10 14,22 14,36l0 156c0,14 -5,26 -14,36 -10,10 -22,14 -36,14l-558 0 0 337 616 0c14,0 26,5 36,14 10,10 15,23 15,36l0 157c0,14 -5,25 -15,35 -10,10 -22,15 -36,15l0 0zm843 0l-177 0c-14,0 -26,-5 -36,-15 -9,-10 -14,-21 -14,-35l0 -1126 -313 0c-14,0 -26,-5 -36,-14 -10,-11 -15,-23 -15,-37l0 -155c0,-15 5,-26 15,-36 10,-9 22,-14 36,-14l902 0c14,0 26,5 36,14 10,10 15,21 15,36l0 155c0,14 -5,26 -15,37 -10,9 -22,14 -36,14l-313 0 0 1126c0,14 -5,25 -14,35 -10,10 -21,15 -35,15l0 0zm974 -605c-111,-60 -191,-112 -241,-154 -45,-40 -79,-89 -100,-146 -18,-45 -27,-93 -27,-142 0,-72 16,-138 47,-196 75,-141 212,-211 414,-211 163,0 305,42 426,127 16,11 23,25 23,43 0,8 -2,16 -7,24l-77 136c-11,17 -25,25 -44,25 -11,0 -21,-3 -30,-10 -28,-20 -69,-42 -122,-66 -53,-24 -109,-36 -169,-38 -49,0 -91,10 -124,31 -40,26 -60,59 -60,100 0,65 49,128 146,189 35,20 78,45 129,73 106,58 183,108 231,149 46,40 79,88 101,146 18,45 26,93 26,142 0,72 -15,137 -47,196 -74,140 -213,210 -413,210 -164,0 -306,-42 -427,-126 -15,-10 -23,-25 -23,-44 0,-7 2,-15 6,-23l79 -136c10,-17 25,-25 43,-25 11,0 21,3 30,10 28,19 69,42 122,66 53,23 109,36 170,37 58,0 103,-13 135,-40 33,-26 49,-56 49,-90 0,-64 -38,-121 -114,-170 -38,-24 -88,-52 -152,-87l0 0z"/>
   <path class="fil1" d="M3412 121l-289 0 -2 -2 0 252 378 0 0 4164 -91 0 -3055 0 -90 0 0 -4164 375 0 0 -250 -289 0c-194,0 -349,156 -349,349l0 4443c0,192 155,349 349,349l1280 0 0 1 0 0c0,57 47,103 103,103l114 0c-1,317 523,1266 2513,62l-25 -65c-1872,1107 -2405,337 -2423,3l118 0c56,0 103,-46 103,-103l0 0 0 -1 1280 0c193,0 349,-157 349,-349l0 -4443c0,-193 -156,-349 -349,-349zm-1514 4812c0,6 -7,11 -18,11l0 0c-5,0 -10,-5 -10,-11l0 -128c0,-6 5,-11 10,-11l0 0c11,0 18,5 18,11l0 128zm-18 111c-27,0 -55,-11 -77,-34 -44,-44 -44,-111 0,-155 6,-11 17,-11 27,0 6,5 6,17 0,23 -32,27 -32,77 0,111 29,27 79,27 106,0 17,-17 23,-34 23,-56 0,-23 -6,-39 -23,-55 -6,-6 -6,-18 0,-23 5,-11 17,-11 23,0 21,17 32,50 32,78 0,27 -11,56 -32,77 -18,23 -50,34 -79,34l0 0 0 0zm1 87c-115,0 -208,-93 -208,-207 0,-115 93,-208 208,-208 114,0 207,93 207,208 0,114 -93,207 -207,207z"/>
   <path class="fil2" d="M4736 4537c291,0 527,236 527,526 0,291 -236,527 -527,527 -291,0 -527,-236 -527,-527 0,-290 236,-526 527,-526z"/>
   <path class="fil2" d="M3121 119c-20,-15 -46,-26 -72,-34l-264 -82c-61,-19 -116,52 -116,115l0 261c0,63 55,135 116,115l264 -89c26,-9 51,-20 72,-34l0 -252zm-2483 252l3 0c20,14 45,25 71,34l265 89c60,20 115,-52 115,-115l0 -261c0,-63 -55,-134 -115,-115l-265 82c-27,9 -53,20 -74,36l0 250z"/>
  </g>
 </g>
</svg>
