<?xml version="1.0" encoding="UTF-8"?>
<!DOCTYPE svg PUBLIC "-//W3C//DTD SVG 1.1//EN" "http://www.w3.org/Graphics/SVG/1.1/DTD/svg11.dtd">
<!-- Creator: CorelDRAW X8 -->
<svg xmlns="http://www.w3.org/2000/svg" xml:space="preserve" width="100%" height="100%" version="1.1" style="shape-rendering:geometricPrecision; text-rendering:geometricPrecision; image-rendering:optimizeQuality; fill-rule:evenodd; clip-rule:evenodd"
viewBox="0 0 229 229"
 xmlns:xlink="http://www.w3.org/1999/xlink">
 <defs>
  <style type="text/css">
   <![CDATA[
    .fil0 {fill:#f88225}
   ]]>
  </style>
 </defs>
 <g id="Слой_x0020_1">
  <metadata id="CorelCorpID_0Corel-Layer"/>
  <path class="fil0" d="M211 105c4,-4 6,-9 4,-15 -2,-5 -6,-9 -12,-10l-49 -7c-2,0 -4,-1 -5,-3l-22 -45c-2,-5 -7,-8 -13,-8 -5,0 -10,3 -13,8l-22 45c-1,2 -2,3 -5,3l-49 7c-5,1 -10,5 -12,10 -1,6 0,11 4,15l36 35c1,1 2,3 2,6l-9 49c-1,5 1,10 6,14 5,3 10,3 15,1l44 -23c2,-1 4,-1 6,0l44 23c2,1 5,2 7,2 3,0 6,-1 9,-3 4,-4 6,-9 5,-14l-8 -49c0,-3 0,-5 2,-6l35 -35zm-45 42l8 49c1,2 0,5 -2,6 -2,2 -5,2 -7,1l-44 -23c-2,-2 -4,-2 -7,-2 -2,0 -4,0 -6,2l-44 23c-3,1 -5,1 -7,-1 -2,-1 -3,-4 -3,-6l9 -49c0,-5 -1,-10 -5,-13l-35 -35c-2,-1 -3,-4 -2,-6 1,-3 3,-4 5,-5l50 -7c4,0 8,-3 11,-8l22 -44c1,-3 3,-4 5,-4 3,0 5,1 6,4l22 44c2,5 6,8 11,8l49 7c3,1 5,2 5,5 1,2 1,5 -1,6l-36 35c-3,3 -5,8 -4,13z"/>
 </g>
</svg>
