<svg xmlns="http://www.w3.org/2000/svg" width="24.44" height="24.437" viewBox="0 0 24.44 24.437"><defs><style>.cls-1{fill:#82b93a;stroke:#82b93a;stroke-width:.44px;fill-rule:evenodd}</style></defs><path id="reaction-happy.svg" class="cls-1" d="M1493 982a12 12 0 1 0 12 12 12.011 12.011 0 0 0-12-12zm0 23.2a11.2 11.2 0 1 1 11.2-11.2 11.214 11.214 0 0 1-11.2 11.2zm-4.2-15.8a1.683 1.683 0 0 0-1.8 1.8h.8a1 1 0 1 1 2 0h.8a1.683 1.683 0 0 0-1.8-1.8zm8.4.8a.874.874 0 0 1 1 1h.8a1.8 1.8 0 1 0-3.6 0h.8a.874.874 0 0 1 1-1zm-3.33 10.711a5.036 5.036 0 0 1-2.21-.6l-.35.74a5.717 5.717 0 0 0 2.56.65 5.991 5.991 0 0 0 5.8-5.7h-.8a5.171 5.171 0 0 1-5 4.909z" transform="translate(-1480.78 -981.783)"/></svg>