<?xml version="1.0" encoding="UTF-8"?>
<!DOCTYPE svg PUBLIC "-//W3C//DTD SVG 1.1//EN" "http://www.w3.org/Graphics/SVG/1.1/DTD/svg11.dtd">
<!-- Creator: CorelDRAW X8 -->
<svg xmlns="http://www.w3.org/2000/svg" xml:space="preserve" width="100%" height="100%" version="1.1" style="shape-rendering:geometricPrecision; text-rendering:geometricPrecision; image-rendering:optimizeQuality; fill-rule:evenodd; clip-rule:evenodd"
viewBox="0 0 4497 1109"
 xmlns:xlink="http://www.w3.org/1999/xlink">
 <defs>
  <style type="text/css">
   <![CDATA[
    .fil1 {fill:#607D8B}
    .fil0 {fill:#373435;fill-rule:nonzero}
   ]]>
  </style>
 </defs>
 <g id="Слой_x0020_1">
  <metadata id="CorelCorpID_0Corel-Layer"/>
  <g id="_2169250219136">
   <path class="fil0" d="M2009 534l-49 0c-6,0 -9,-2 -12,-7l-86 -148 -45 0 0 142c0,3 -2,6 -4,9 -3,3 -6,4 -9,4l-47 0c-3,0 -7,-1 -9,-4 -3,-3 -4,-6 -4,-9l0 -350c0,-3 1,-6 4,-9 2,-2 6,-4 9,-4l128 0c29,0 55,8 77,22 15,10 27,23 35,38 8,16 12,32 12,51 0,18 -4,34 -12,50 -13,24 -33,40 -60,50l84 145c1,2 2,4 2,7 0,2 -1,4 -2,6 -3,5 -7,7 -12,7zm-124 -223c14,0 26,-3 35,-10 11,-7 17,-18 17,-32 0,-15 -6,-26 -17,-33 -9,-7 -21,-11 -35,-11l-68 0 0 86 68 0zm445 223l-221 0c-3,0 -6,-1 -9,-4 -3,-3 -4,-6 -4,-9l0 -350c0,-3 1,-6 4,-9 3,-2 6,-4 9,-4l221 0c4,0 7,2 10,4 2,3 4,6 4,9l0 41c0,4 -2,7 -4,10 -3,2 -6,3 -10,3l-161 0 0 86 146 0c4,0 7,1 9,4 3,2 4,5 4,9l0 41c0,4 -1,7 -4,9 -2,3 -5,4 -9,4l-146 0 0 88 161 0c4,0 7,2 10,4 2,3 4,6 4,10l0 41c0,3 -2,6 -4,9 -3,3 -6,4 -10,4zm454 0l-46 0c-3,0 -6,-1 -9,-4 -3,-3 -4,-6 -4,-9l0 -237 -102 162c-3,4 -7,6 -12,6 -4,0 -8,-2 -10,-6l-103 -162 0 237c0,3 -1,6 -4,9 -2,3 -5,4 -9,4l-45 0c-4,0 -7,-1 -10,-4 -2,-3 -4,-6 -4,-9l0 -350c0,-3 2,-6 4,-9 3,-2 6,-4 10,-4l48 0c5,0 9,2 11,6l112 176 113 -176c3,-4 6,-6 11,-6l49 0c3,0 6,2 9,4 2,3 4,6 4,9l0 350c0,3 -2,6 -4,9 -3,3 -6,4 -9,4zm272 6c-27,0 -52,-5 -74,-15 -24,-10 -44,-25 -61,-45 -15,-18 -27,-39 -34,-63 -7,-22 -11,-46 -11,-71 0,-25 4,-49 11,-71 7,-24 19,-45 34,-63 17,-20 37,-35 61,-45 22,-10 47,-15 74,-15 28,0 53,5 75,15 24,10 44,25 61,45 15,18 27,39 34,63 7,22 11,46 11,71 0,25 -4,49 -11,71 -7,24 -19,45 -34,63 -17,20 -37,35 -61,45 -22,10 -47,15 -75,15zm0 -66c36,0 64,-14 84,-42 16,-23 24,-52 24,-86 0,-34 -8,-63 -24,-86 -20,-28 -48,-42 -84,-42 -35,0 -63,14 -83,42 -16,23 -24,52 -24,86 0,34 8,63 24,86 20,28 48,42 83,42zm608 60l-45 0c-4,0 -7,-1 -9,-4 -3,-3 -4,-6 -4,-9l0 -237 -103 162c-2,4 -6,6 -11,6 -5,0 -8,-2 -11,-6l-102 -162 0 237c0,3 -2,6 -4,9 -3,3 -6,4 -9,4l-46 0c-4,0 -7,-1 -9,-4 -3,-3 -4,-6 -4,-9l0 -350c0,-3 1,-6 4,-9 2,-2 5,-4 9,-4l49 0c4,0 8,2 11,6l112 176 113 -176c2,-4 6,-6 11,-6l48 0c4,0 7,2 9,4 3,3 4,6 4,9l0 350c0,3 -1,6 -4,9 -2,3 -5,4 -9,4zm227 0l-46 0c-4,0 -7,-1 -9,-4 -3,-3 -4,-6 -4,-9l0 -296 -82 0c-4,0 -7,-1 -10,-3 -2,-3 -4,-6 -4,-10l0 -41c0,-3 2,-6 4,-9 3,-2 6,-4 10,-4l236 0c4,0 7,2 10,4 2,3 4,6 4,9l0 41c0,4 -2,7 -4,10 -3,2 -6,3 -10,3l-82 0 0 296c0,3 -1,6 -4,9 -2,3 -5,4 -9,4zm-2088 487l-46 0c-3,0 -7,-1 -9,-3 -3,-3 -4,-6 -4,-10l0 -349c0,-4 1,-7 4,-9 2,-3 6,-4 9,-4l128 0c29,0 55,7 77,22 15,10 27,22 35,38 8,15 12,32 12,50 0,18 -4,35 -12,50 -8,16 -20,28 -35,39 -22,14 -48,21 -77,21l-68 0 0 142c0,4 -2,7 -4,10 -3,2 -6,3 -10,3zm82 -222c14,0 26,-3 35,-10 11,-8 17,-19 17,-33 0,-14 -6,-25 -17,-33 -9,-7 -21,-10 -35,-10l-68 0 0 86 68 0zm461 222l-49 0c-5,0 -9,-2 -12,-6l-85 -149 -46 0 0 142c0,4 -2,7 -4,10 -3,2 -6,3 -9,3l-47 0c-3,0 -6,-1 -9,-3 -3,-3 -4,-6 -4,-10l0 -349c0,-4 1,-7 4,-9 3,-3 6,-4 9,-4l128 0c29,0 55,7 77,22 15,10 27,22 35,38 8,15 12,32 12,50 0,18 -4,35 -12,50 -13,24 -33,41 -60,51l84 145c1,2 2,4 2,6 0,2 -1,5 -2,7 -3,4 -7,6 -12,6zm-124 -222c14,0 26,-3 35,-10 11,-8 17,-19 17,-33 0,-14 -6,-25 -17,-33 -9,-7 -21,-10 -35,-10l-68 0 0 86 68 0zm372 228c-27,0 -52,-4 -75,-14 -24,-10 -44,-25 -61,-45 -15,-19 -26,-39 -34,-63 -7,-23 -10,-46 -10,-71 0,-25 3,-49 10,-71 8,-24 19,-46 34,-64 17,-19 37,-34 61,-45 23,-9 48,-14 75,-14 27,0 52,5 75,14 24,11 44,26 61,45 15,18 26,40 34,64 7,22 10,46 10,71 0,25 -3,48 -10,71 -8,24 -19,44 -34,63 -17,20 -37,35 -61,45 -23,10 -48,14 -75,14zm0 -66c36,0 64,-14 83,-42 17,-23 25,-51 25,-85 0,-34 -8,-63 -25,-86 -19,-28 -47,-42 -83,-42 -36,0 -64,14 -84,42 -16,23 -24,51 -24,86 0,34 8,62 24,85 20,28 48,42 84,42zm485 60l-221 0c-4,0 -7,-1 -10,-3 -2,-3 -4,-6 -4,-10l0 -349c0,-4 2,-7 4,-9 3,-3 6,-4 10,-4l221 0c3,0 6,1 9,4 3,2 4,5 4,9l0 41c0,3 -1,6 -4,9 -3,3 -6,4 -9,4l-162 0 0 85 146 0c4,0 7,2 10,4 2,3 4,6 4,10l0 41c0,3 -2,6 -4,9 -3,3 -6,4 -10,4l-146 0 0 88 162 0c3,0 6,1 9,4 3,2 4,6 4,9l0 41c0,4 -1,7 -4,10 -3,2 -6,3 -9,3zm365 0l-56 0c-4,0 -8,-1 -10,-4l-131 -164 0 155c0,4 -1,7 -4,10 -2,2 -5,3 -9,3l-46 0c-4,0 -7,-1 -10,-3 -2,-3 -3,-6 -3,-10l0 -349c0,-4 1,-7 3,-9 3,-3 6,-4 10,-4l46 0c4,0 7,1 9,4 3,2 4,5 4,9l0 152 133 -161c3,-3 6,-4 10,-4l52 0c2,0 5,0 7,2 4,2 6,6 6,11 0,3 -1,6 -3,8l-139 165 141 168c2,2 3,5 3,8 0,2 0,4 -1,6 -1,2 -3,4 -5,5 -2,2 -4,2 -7,2zm206 0l-46 0c-4,0 -7,-1 -9,-3 -3,-3 -4,-6 -4,-10l0 -295 -82 0c-4,0 -7,-1 -10,-4 -2,-3 -3,-6 -3,-9l0 -41c0,-4 1,-7 3,-9 3,-3 6,-4 10,-4l237 0c3,0 6,1 9,4 3,2 4,5 4,9l0 41c0,3 -1,6 -4,9 -3,3 -6,4 -9,4l-83 0 0 295c0,4 -1,7 -3,10 -3,2 -6,3 -10,3zm318 6c-27,0 -52,-4 -74,-14 -24,-10 -45,-25 -61,-45 -15,-19 -27,-39 -34,-63 -8,-23 -11,-46 -11,-71 0,-25 3,-49 11,-71 7,-24 19,-46 34,-64 16,-19 37,-34 61,-45 22,-9 47,-14 74,-14 27,0 52,5 75,14 24,11 44,26 61,45 15,18 26,40 34,64 7,22 11,46 11,71 0,25 -4,48 -11,71 -8,24 -19,44 -34,63 -17,20 -37,35 -61,45 -23,10 -48,14 -75,14zm0 -66c36,0 64,-14 84,-42 16,-23 24,-51 24,-85 0,-34 -8,-63 -24,-86 -20,-28 -48,-42 -84,-42 -36,0 -63,14 -83,42 -16,23 -24,51 -24,86 0,34 8,62 24,85 19,28 47,42 83,42zm516 60l-50 0c-5,0 -9,-2 -11,-6l-86 -149 -46 0 0 142c0,4 -1,7 -4,10 -2,2 -5,3 -9,3l-46 0c-4,0 -7,-1 -10,-3 -2,-3 -3,-6 -3,-10l0 -349c0,-4 1,-7 3,-9 3,-3 6,-4 10,-4l127 0c30,0 56,7 78,22 15,10 26,22 35,38 8,15 12,32 12,50 0,18 -4,35 -12,50 -13,24 -33,41 -60,51l83 145c2,2 2,4 2,6 0,2 0,5 -2,7 -2,4 -6,6 -11,6zm-125 -222c15,0 27,-3 36,-10 11,-8 16,-19 16,-33 0,-14 -5,-25 -16,-33 -9,-7 -21,-10 -36,-10l-68 0 0 86 68 0z"/>
   <path class="fil1" d="M986 191c-52,0 -101,13 -144,36 0,0 0,0 0,0l0 0c-96,52 -161,153 -161,269 0,168 137,304 305,304 168,0 304,-136 304,-304 0,-168 -136,-305 -304,-305zm0 -191c-218,0 -410,143 -473,350l-484 0c-16,0 -29,13 -29,29l0 584c0,16 13,29 29,29l99 0 50 101c5,10 15,16 26,16l292 0c11,0 21,-6 26,-16l51 -101 430 0 51 101c5,10 15,16 26,16l292 0c11,0 21,-6 26,-16l50 -101 94 0c9,2 19,-1 26,-8 0,-1 0,-1 0,-1 7,-7 9,-16 8,-25l0 -579c0,-16 -13,-29 -29,-29l-87 0c-64,-207 -255,-350 -474,-350l0 0zm0 58c200,0 374,135 424,329 4,13 15,22 29,22l79 0 0 525 -1460 0 0 -525 476 0c14,0 25,-9 29,-22 50,-194 224,-329 423,-329l0 0zm0 59c-209,0 -379,170 -379,379 0,209 170,380 379,380 210,0 380,-171 380,-380 0,-209 -170,-379 -380,-379zm0 58c178,0 321,144 321,321 0,178 -143,321 -321,321 -177,0 -321,-143 -321,-321 0,-177 144,-321 321,-321zm-840 409c-16,-1 -29,12 -30,28 0,17 13,30 29,30 0,0 1,0 1,0l350 0c16,0 30,-13 30,-29 0,-16 -13,-29 -29,-29 0,0 -1,0 -1,0l-350 0zm0 116c-16,0 -29,13 -30,29 0,16 13,30 29,30 0,0 1,0 1,0l350 0c16,0 30,-13 30,-29 0,-16 -13,-29 -29,-30 0,0 -1,0 -1,0l-350 0zm0 117c-16,0 -29,13 -30,29 0,16 13,29 29,30 0,0 1,0 1,0l350 0c16,0 30,-13 30,-29 0,-16 -13,-30 -29,-30 0,0 -1,0 -1,0l-350 0zm47 175l314 0 -29 59 -256 0c0,0 -29,-59 -29,-59zm876 0l314 0 -29 59 -256 0 -29 -59zm97 -620c-43,0 -79,35 -79,79 0,43 36,79 79,79 21,0 41,-9 56,-24l-16 -15c-10,10 -25,16 -40,16 -31,0 -56,-25 -56,-56 0,-31 25,-57 56,-57 31,0 57,26 57,57 0,9 -3,18 -7,26l20 11c6,-12 9,-24 9,-37 0,-44 -35,-79 -79,-79zm-65 316c0,-2 -1,-4 -2,-5l30 -30 -63 -64 -30 30c-2,-1 -4,-1 -5,-2l0 -42 -90 0 0 42c-2,1 -3,1 -5,2l-30 -30 -64 64 30 30c0,1 -1,3 -2,5l-42 0 0 41c-67,-45 -113,-117 -122,-201 32,23 70,35 111,35 105,0 191,-86 191,-191 0,-61 -28,-117 -76,-153 18,-3 36,-5 54,-5 90,0 170,42 221,108 -9,-3 -19,-5 -29,-6l0 -23 -23 0 0 23c-16,1 -32,6 -46,12l-12 -20 -19 12 11 20c-13,9 -25,20 -34,34l-20 -12 -11 19 20 12c-7,14 -11,30 -13,46l-23 0 0 23 24 0c1,16 5,32 12,46l-20 12 11 19 20 -11c9,13 21,25 34,34l-11 20 19 11 12 -20c14,7 30,11 46,12l0 24 23 0 0 -24c16,-1 31,-5 46,-12l11 20 19 -11c-19,61 -59,112 -110,147l0 -41 -43 0zm-61 60c-2,7 -5,14 -10,20l-9 -7c-8,10 -21,17 -35,17 -25,0 -45,-20 -45,-45 0,-25 20,-45 45,-45 25,0 45,20 45,45 0,4 -1,8 -2,12l11 3zm228 -249c-19,39 -59,64 -102,64 -62,0 -113,-50 -113,-112 0,-63 51,-113 113,-113 24,0 47,7 67,22 22,40 35,86 35,136 0,1 0,2 0,3zm-5 46c-2,12 -5,24 -8,36l-12 -19c8,-5 14,-11 20,-17zm-360 -319c51,31 83,86 83,146 0,93 -76,169 -169,169 -42,0 -82,-16 -113,-43 0,-1 0,-2 0,-2 0,-10 0,-19 1,-29 28,32 68,51 112,51 80,0 146,-65 146,-146 0,-60 -36,-113 -89,-135 9,-4 19,-8 29,-11zm37 157c-2,26 -12,49 -28,68l-65 -65c1,-1 1,-2 1,-3l25 0 0 -23 -25 0c0,-1 0,-2 -1,-3l65 -65c16,19 26,43 28,68l-44 0 0 23 44 0 0 0zm-123 -23c6,0 11,5 11,12 0,6 -5,11 -11,11 -7,0 -12,-5 -12,-11 0,-7 5,-12 12,-12zm-15 42c1,1 2,1 3,1l0 92c-25,-2 -49,-12 -68,-28l65 -65zm26 1c1,0 2,0 3,-1l65 65c-19,16 -42,26 -68,28l0 -92 0 0zm3 -62c-1,0 -2,-1 -3,-1l0 -78c6,-4 12,-7 18,-11 19,5 36,13 50,25l-65 65zm-46 19l-46 0c5,-10 12,-21 19,-31l28 28c0,1 -1,2 -1,3zm0 23c0,1 1,2 1,3l-65 65c-4,-5 -7,-10 -11,-16 4,-18 10,-35 17,-52l58 0zm20 -104l0 61c-1,0 -2,1 -3,1l-29 -29c10,-12 21,-23 32,-33z"/>
  </g>
 </g>
</svg>
