<?xml version="1.0" encoding="UTF-8"?>
<!DOCTYPE svg PUBLIC "-//W3C//DTD SVG 1.1//EN" "http://www.w3.org/Graphics/SVG/1.1/DTD/svg11.dtd">
<!-- Creator: CorelDRAW X8 -->
<svg xmlns="http://www.w3.org/2000/svg" xml:space="preserve" width="100%" height="100%" version="1.1" style="shape-rendering:geometricPrecision; text-rendering:geometricPrecision; image-rendering:optimizeQuality; fill-rule:evenodd; clip-rule:evenodd"
viewBox="0 0 525 525"
 xmlns:xlink="http://www.w3.org/1999/xlink">
 <defs>
  <style type="text/css">
   <![CDATA[
    .fil0 {fill:none;fill-rule:nonzero}
    .fil3 {fill:#4c525e;fill-rule:nonzero}
    .fil1 {fill:#4c525e;fill-rule:nonzero}
    .fil2 {fill:#5F3E29;fill-rule:nonzero}
   ]]>
  </style>
 </defs>
 <g id="Слой_x0020_1">
  <metadata id="CorelCorpID_0Corel-Layer"/>
  <g id="_3079850103456">
   <path class="fil0" d="M141 172c1,19 0,39 1,59 2,-1 5,-2 7,-3 0,-1 0,-1 1,-1 -2,-13 1,-26 2,-39 0,-6 -1,-14 0,-20 -4,2 -7,3 -11,4z"/>
   <path class="fil0" d="M164 305c4,-1 7,-3 10,-4 -4,-6 -5,-15 -7,-21 -5,-12 -12,-25 -15,-38 -2,1 -5,2 -8,3 6,20 13,41 20,60z"/>
   <path class="fil0" d="M65 35c-1,2 -2,3 0,5 1,1 2,2 4,3 2,2 5,4 8,6 0,-1 1,-2 2,-2 -6,-2 -10,-7 -14,-12z"/>
   <path class="fil0" d="M114 307c-1,-7 0,-13 -1,-20 0,-7 0,-15 0,-22 0,-3 -1,-15 1,-18 0,0 0,0 0,0 0,0 0,0 0,0 -3,0 -5,0 -7,0 0,1 0,2 -1,3 1,13 -1,27 -2,40 0,7 1,16 -1,23 1,0 3,1 4,1 3,0 5,0 7,0 0,-2 -1,-4 -1,-6 0,0 0,-1 1,-1z"/>
   <path class="fil0" d="M98 58c-4,-4 -9,-7 -15,-9 4,12 9,23 17,32 -2,-8 -4,-15 -2,-23z"/>
   <path class="fil0" d="M319 88c0,1 -1,1 -2,0 -1,7 -3,14 1,20 4,4 5,-6 5,-7 0,-2 0,-4 0,-6 0,-3 1,-6 0,-8 -1,-3 -3,0 -4,1z"/>
   <path class="fil0" d="M111 67c0,0 0,0 0,0 3,-1 5,-1 8,-1 5,-1 8,-4 12,-6 5,-3 9,-5 14,-5 -5,-4 -11,-6 -18,-7 -8,6 -19,4 -28,9 4,3 8,7 12,10z"/>
   <path class="fil0" d="M108 52c6,-1 11,-2 16,-5 -2,0 -3,0 -5,-1 -12,-1 -24,-2 -36,3 6,2 11,4 15,8 3,-3 7,-4 10,-5z"/>
   <path class="fil0" d="M142 73c-5,2 -8,4 -11,9 1,0 1,0 1,0 3,2 6,3 9,5 4,-8 16,-7 23,-9 0,0 0,0 0,0 -7,3 -15,3 -21,9 4,2 8,4 11,5 0,0 0,0 1,0 3,-2 6,-2 9,-2 3,0 5,-1 8,-1 -5,-6 -9,-13 -13,-20 -5,-1 -13,2 -17,4z"/>
   <path class="fil0" d="M127 66c-2,0 -15,3 -15,1 0,1 0,1 0,1 5,4 11,9 17,12 0,0 0,0 0,0 4,-5 8,-8 14,-10 4,-1 11,-3 15,-2 -1,-1 -1,-2 -2,-3 -3,-3 -5,-6 -8,-8 -5,0 -10,1 -14,3 -2,2 -5,5 -7,6z"/>
   <path class="fil0" d="M114 247c4,20 1,40 3,60 0,1 1,1 1,1 0,2 0,4 0,5 5,0 10,0 15,-1 0,0 1,0 2,0 -4,-22 -6,-43 -10,-65 -4,0 -7,0 -11,0z"/>
   <path class="fil0" d="M103 314c1,0 1,0 2,0 -1,0 -1,0 -2,-1 0,1 0,1 0,1z"/>
   <path class="fil0" d="M352 453c-10,1 -21,0 -31,1 -5,0 -11,0 -17,1 -1,0 -8,1 -12,0 1,1 0,2 0,3 0,1 0,2 0,3 1,0 1,0 2,1 11,-2 24,0 36,0 7,0 16,-2 24,-1 0,0 1,-1 2,-1 -2,-2 -3,-5 -4,-8 0,0 0,0 0,1z"/>
   <path class="fil0" d="M345 394c15,15 25,47 18,67 -1,0 -1,1 -1,2 0,1 0,2 -1,3 -1,-1 -2,-3 -3,-5 0,0 0,0 0,0 -7,-21 -14,-45 -13,-67zm12 48l0 0c0,2 0,3 -1,5 0,0 1,0 1,0 1,-2 2,-3 2,-5 0,-1 -1,-1 -2,0zm-1 -14l0 0c-1,0 -3,0 -4,1 0,0 0,1 1,1 1,-1 2,-1 3,-1 1,1 2,-1 0,-1zm-6 -17l0 0c1,1 2,3 3,4 1,0 2,-1 1,-1 -1,-2 -2,-3 -3,-4 -1,-1 -2,0 -1,1z"/>
   <path class="fil0" d="M340 409c-18,6 -37,13 -55,18 0,5 2,10 3,15 18,-5 37,-9 55,-13 -1,-7 -3,-14 -3,-20z"/>
   <path class="fil0" d="M339 393c-6,4 -15,6 -21,9 -11,5 -22,11 -33,14 0,1 0,1 0,1 -1,2 -1,5 -1,8 19,-6 37,-14 55,-21 0,-3 0,-7 0,-11z"/>
   <path class="fil0" d="M345 433c-19,3 -38,6 -57,11 1,3 2,6 3,10 0,0 0,0 0,0 0,0 0,0 0,0 19,-4 40,-3 59,-6 -2,-5 -4,-10 -5,-15z"/>
   <path class="fil0" d="M149 163c-20,9 -46,12 -68,12 0,0 -1,0 -1,0 -1,-1 -1,-1 -2,-1 -1,0 -2,0 -3,0 1,-1 2,-1 3,-2 1,0 1,-1 1,-1 17,-14 50,-16 70,-8zm-50 4l0 0c-2,1 -3,3 -4,4 0,0 0,1 1,0 1,-1 2,-2 4,-2 0,-1 0,-2 -1,-2zm14 -3l0 0c0,-1 -2,0 -1,2 1,0 1,2 1,3 0,0 0,0 1,0 0,-2 0,-3 -1,-5zm19 -1l0 0c-2,-1 -3,-1 -5,-2 -1,0 -1,1 0,2 1,1 3,1 4,2 2,1 2,-2 1,-2z"/>
   <path class="fil0" d="M96 178c5,19 13,37 16,57 0,0 1,0 1,0 0,0 0,0 0,0 3,0 7,0 10,-1 -3,-19 -7,-38 -10,-57 -6,1 -11,1 -17,1z"/>
   <path class="fil0" d="M111 234c-2,-3 -4,-10 -4,-11 -2,-6 -4,-11 -6,-17 -2,-9 -7,-19 -9,-28 0,0 0,0 0,0 -3,-1 -6,-1 -9,-1 0,0 0,1 0,2 3,6 4,13 6,19 5,12 12,24 15,37 0,0 1,1 1,1 1,0 2,0 3,0 1,-1 2,-2 3,-2z"/>
   <path class="fil0" d="M140 231c-3,-19 -2,-38 -3,-58 -7,2 -13,3 -20,4 3,19 6,38 8,57 5,0 10,-1 15,-3z"/>
   <path class="fil0" d="M111 68c-4,-4 -8,-7 -13,-10 0,9 2,17 5,26 0,0 0,0 0,0 3,4 7,8 11,11 -2,-5 -4,-9 -4,-15 -1,-3 -2,-9 1,-12z"/>
   <path class="fil0" d="M121 392c-2,-2 -3,-1 -4,1 0,1 0,2 0,3 0,0 0,0 0,0 2,0 5,-1 4,-4z"/>
   <path class="fil0" d="M504 202c0,0 0,0 0,0 0,0 0,0 0,-1 0,1 -1,1 -1,1 0,0 0,0 1,0 0,0 0,0 0,0z"/>
   <path class="fil0" d="M508 205c0,0 -1,-1 -1,-1 0,0 -1,0 -1,0 1,1 2,1 3,2 -1,0 -1,0 -1,-1z"/>
   <path class="fil0" d="M490 265c0,3 1,6 2,9 0,0 1,0 1,0 0,0 0,0 0,0 0,0 0,0 0,-1 -1,-1 -1,-3 -2,-4 0,-1 -1,-2 -1,-4z"/>
   <path class="fil0" d="M129 372c0,-3 0,-5 0,-7 0,-2 1,-5 0,-8 -2,-3 -3,0 -4,1 0,1 -1,1 -2,1 -2,6 -3,13 1,19 4,4 5,-6 5,-6z"/>
   <path class="fil0" d="M312 123c-1,1 -1,2 -1,3 0,0 0,0 0,0 2,0 6,-1 4,-4 -2,-2 -3,-1 -3,1z"/>
   <path class="fil0" d="M144 373c0,-2 0,-4 0,-7 0,-2 1,-5 0,-7 -2,-4 -3,0 -4,1 0,1 -1,1 -2,0 -2,7 -3,14 1,19 4,5 5,-5 5,-6z"/>
   <path class="fil0" d="M72 399c-3,-11 -2,-24 1,-35 3,-9 9,-22 18,-29 24,-13 53,-6 79,-3 0,0 1,0 1,0 12,3 20,21 24,32 4,12 4,26 0,38 -7,24 -26,28 -47,30 -1,0 -2,0 -2,1 0,0 -1,0 -1,1 -1,3 -2,6 -3,9 -1,3 -2,5 -3,7 0,2 0,6 -2,4 -3,-3 -5,-7 -7,-9 -3,-4 -5,-7 -8,-10 1,-1 0,-3 -2,-3 -10,-1 -20,-1 -29,-6 -10,-5 -16,-17 -19,-27zm91 0l0 0c1,2 2,5 5,6 3,1 5,-4 5,-7 0,0 0,0 0,0 0,0 1,-1 1,-2 0,-1 -2,-1 -2,-1 -1,1 -4,1 -3,3 0,0 1,0 1,0 0,0 0,0 1,0 -1,0 -1,0 -1,0 0,1 0,2 0,3 -2,2 -3,2 -4,0 0,0 0,-1 0,-2 -1,0 -1,-2 -1,-2 0,-2 0,-8 2,-8 1,-1 1,-1 0,-1 -4,-2 -4,9 -4,11zm-12 -20l0 0c0,0 1,1 2,0 0,1 0,1 1,1 8,0 12,-5 11,-12 -1,-7 -5,-12 -12,-13 0,0 0,0 0,0 0,0 0,0 0,0 0,0 0,0 0,0 0,1 0,1 0,1 0,0 0,0 0,0 0,0 0,0 0,0 0,7 -4,15 -2,23zm-3 13l0 0c0,5 1,9 1,13 0,1 1,1 1,0 0,-4 0,-7 1,-11 1,4 2,7 4,11 1,1 3,0 2,-2 1,-1 0,-3 0,-4 1,-3 1,-6 1,-8 0,-2 -3,-2 -3,0 0,2 0,4 1,6 0,1 0,3 0,4 0,0 0,0 0,0 -2,-3 -4,-6 -5,-9 0,0 0,0 -1,0 0,-1 -2,-1 -2,0zm-36 3l0 0c0,-4 -3,-7 -6,-4 0,1 0,1 0,2 -2,3 -1,8 0,12 0,2 2,5 5,3 1,-1 1,-3 1,-5 0,-3 1,-6 0,-8zm27 4l0 0c0,-3 0,-6 0,-8 0,-2 -3,-2 -3,0 1,2 1,4 1,6 0,1 0,3 0,4 0,0 0,0 0,0 -2,-3 -3,-6 -5,-9 0,0 0,0 -1,0 0,-1 -2,-1 -2,0 1,5 1,9 1,13 0,1 1,1 1,0 0,-4 1,-7 1,-11 1,4 2,7 4,11 1,1 3,0 3,-2 0,-1 0,-3 0,-4zm6 -9l0 0c1,-2 -3,-2 -2,0 0,5 0,9 0,14 0,0 2,0 2,0 0,-5 0,-9 0,-14zm-9 -11l0 0c2,3 5,6 8,2 2,-2 2,-5 3,-8 0,-4 1,-9 0,-13 -1,-2 -2,-5 -4,-6 -2,0 -3,1 -4,3 -1,0 -1,0 -1,0 -3,7 -5,14 -2,22zm-15 -2l0 0c2,4 5,6 8,3 2,-2 2,-6 3,-8 0,-5 1,-10 0,-14 0,-2 -1,-5 -4,-5 -2,-1 -3,1 -4,2 -1,0 -1,0 -1,1 -3,7 -5,14 -2,21zm-4 29l0 0c0,1 1,1 1,0 0,-3 -1,-5 -1,-8 0,0 0,0 0,0 2,0 3,0 4,-1 0,2 1,3 2,5 1,1 1,3 2,4 1,1 3,-1 1,-2 -1,0 -1,-2 -2,-3 -1,-1 -2,-3 -2,-4 1,-1 1,-2 1,-4 0,-3 -3,-5 -6,-4 -5,3 -1,13 0,17zm-4 -35l0 0c-1,0 -3,1 -5,0 -2,0 -2,3 -1,3 3,0 5,0 7,0 2,0 2,-4 -1,-3zm-11 10l0 0c5,6 8,1 10,-4 1,-3 -2,-3 -3,-1 -1,2 -2,3 -4,4 -1,-1 -2,-4 -3,-6 -1,-4 0,-9 1,-13 1,-2 2,-4 3,-6 5,-5 6,6 7,8 0,1 2,1 1,0 0,-3 0,-14 -5,-13 -6,1 -8,7 -9,12 -2,6 -2,14 2,19zm-9 30l0 0c0,0 0,0 0,0 1,-5 0,-10 0,-15 1,1 2,2 3,3 0,1 1,1 1,0 0,-1 1,-3 2,-4 0,5 0,10 2,14 1,2 3,1 2,-1 -2,-5 -1,-11 -3,-16 0,-1 -1,-1 -2,0 -1,1 -2,3 -2,5 -1,-2 -1,-3 -2,-5 -1,0 -2,0 -2,1 0,6 0,12 1,18z"/>
   <path class="fil0" d="M302 123c-1,0 -1,0 -1,0 -1,3 -1,7 0,9 0,2 0,4 1,5 3,2 3,-8 3,-9 0,-1 -1,-8 -3,-5z"/>
   <path class="fil0" d="M516 205c0,0 0,-1 0,-1 1,1 2,2 2,3 0,-1 -1,-1 -2,-2z"/>
   <path class="fil0" d="M173 91c0,0 0,0 0,-1 -3,0 -5,1 -8,1 -3,0 -6,1 -9,2 11,5 22,8 33,12 -5,-5 -11,-9 -16,-14z"/>
   <path class="fil0" d="M153 101c-2,-3 -4,-7 -6,-10 -4,-1 -7,-3 -11,-5 2,4 4,8 6,11 2,4 4,7 6,11 4,0 8,0 12,0 -3,-2 -5,-4 -7,-7z"/>
   <path class="fil0" d="M134 85c-1,-1 -3,-2 -5,-3 0,0 0,0 0,0 -2,-2 -5,-3 -7,-5 0,9 6,19 10,27 0,1 0,1 0,1 5,1 9,2 13,3 -2,-4 -4,-7 -6,-11 -1,-4 -3,-8 -5,-12z"/>
   <path class="fil0" d="M121 76c-3,-2 -7,-5 -10,-8 -2,4 0,12 1,16 1,4 3,8 4,13 4,2 8,4 12,6 0,0 1,1 2,1 -4,-8 -10,-18 -9,-28z"/>
   <path class="fil0" d="M162 99c0,-1 0,-1 0,-1 -5,-2 -9,-4 -14,-6 2,2 3,4 5,6 3,4 5,7 9,10 2,0 5,0 7,0 -1,-1 -2,-3 -3,-4 -1,-2 -2,-4 -4,-5z"/>
   <path class="fil0" d="M279 457c0,0 0,0 0,0 -1,3 -14,6 -17,7 -6,3 -13,5 -20,7 -6,3 -12,5 -19,7 0,1 0,1 -1,1 -2,1 -3,1 -5,1 1,2 1,4 2,6 1,2 2,3 3,4 6,-5 17,-7 24,-10 10,-5 21,-12 33,-15 1,-1 2,-1 3,-2 -1,-2 -2,-4 -3,-6 0,0 0,0 0,0z"/>
   <path class="fil0" d="M167 102c1,2 3,4 4,6 5,-1 10,-1 15,-1 -7,-3 -15,-5 -22,-8 1,1 2,2 3,3z"/>
   <path class="fil0" d="M154 377c3,0 7,0 8,-5 1,-2 1,-5 0,-7 -1,-5 -4,-8 -9,-9 2,7 -2,14 0,21 0,0 0,0 1,0z"/>
   <path class="fil0" d="M492 264c0,0 0,0 0,0 -1,0 -1,-1 -1,-1 -1,-4 -2,-7 -3,-11 0,0 0,1 -1,1 1,3 2,7 4,11 0,0 0,0 1,0z"/>
   <path class="fil0" d="M107 393c0,0 0,0 0,0 -1,3 -1,7 0,10 0,1 0,3 1,4 2,2 3,-8 3,-8 0,-1 -1,-9 -4,-6z"/>
   <path class="fil0" d="M133 247c-2,0 -4,0 -6,0 5,21 8,43 12,64 3,-1 5,-1 6,-1 3,-1 6,-1 9,-2 2,0 4,-1 6,-2 -7,-19 -14,-40 -18,-61 -3,1 -6,1 -9,2z"/>
   <path class="fil0" d="M20 365c0,0 0,0 0,0 0,0 0,0 0,0 0,-1 0,-1 0,-1 0,0 0,0 0,0 0,0 0,1 0,1z"/>
   <path class="fil0" d="M8 238c0,0 0,0 0,0 0,0 0,0 0,0 0,0 0,0 0,0z"/>
   <path class="fil0" d="M38 281c0,-1 0,-2 1,-4 0,0 0,-1 -1,-2 0,2 0,4 0,6z"/>
   <path class="fil0" d="M15 273c0,1 0,2 0,3 0,0 0,0 1,1 0,-1 0,-1 0,-1 0,0 0,0 0,0 0,-1 0,-1 0,-1 0,0 0,0 0,-1 0,0 -1,0 -1,-1z"/>
   <path class="fil0" d="M15 259c0,0 0,0 0,0 0,1 0,2 0,3 0,-1 0,-2 0,-3z"/>
   <path class="fil0" d="M12 285c0,0 0,0 0,0 0,0 0,1 0,1 0,2 0,3 1,5 0,1 0,1 1,2 -1,-2 -1,-4 -1,-6 0,-1 -1,-1 -1,-2z"/>
   <path class="fil0" d="M4 81c1,-1 2,-2 2,-2 1,-1 1,-1 2,-2 -1,0 -1,0 -2,-1 -1,2 -3,4 -4,5 1,0 1,0 2,0z"/>
   <path class="fil0" d="M40 110c0,0 0,0 0,0 0,0 -1,0 -1,0 2,0 4,-1 6,-3 2,-2 3,-4 4,-6 -1,1 -1,2 -2,3 -2,2 -4,5 -7,6z"/>
   <path class="fil0" d="M29 86c5,0 9,2 11,7 1,5 -2,9 -6,11 -4,2 -7,1 -10,-2 0,2 0,3 0,4 2,2 6,3 9,4 1,0 1,-1 1,-1 1,1 3,0 4,-1 0,0 0,0 1,-1 0,0 1,0 1,0 2,-2 3,-3 4,-5 3,-4 3,-7 2,-12 0,-1 1,-2 2,-2 -2,-6 -6,-12 -13,-12 0,0 0,0 0,0 -6,3 -10,8 -13,13 0,1 0,1 0,2 2,-2 4,-4 7,-5z"/>
   <path class="fil0" d="M10 78c0,1 -1,2 -2,2 0,0 0,0 0,0 1,0 3,0 4,-1 0,0 -1,0 -2,-1z"/>
   <path class="fil0" d="M44 451c-2,2 -4,4 -6,6 5,-1 10,-3 16,-4 -1,-1 -1,-1 0,-1 2,-2 3,-4 5,-6 0,-1 1,-2 3,-3 -3,0 -5,-1 -8,-1 -3,3 -6,5 -10,9z"/>
   <path class="fil0" d="M32 449c2,-3 4,-6 6,-8 -4,0 -9,0 -13,1 0,0 0,0 0,0 -5,8 -13,17 -14,26 4,-2 9,-5 14,-6 2,-4 4,-9 7,-13z"/>
   <path class="fil0" d="M0 477c0,0 0,0 0,0 0,0 0,0 0,0 0,0 0,0 0,0z"/>
   <path class="fil0" d="M27 461c3,-1 7,-2 10,-3 3,-3 6,-7 8,-10 3,-2 5,-4 7,-6 -3,-1 -7,-1 -11,-1 -3,4 -6,8 -9,12 -2,3 -4,5 -5,8z"/>
   <path class="fil0" d="M41 486c2,-1 3,-3 5,-5 -5,1 -11,-2 -14,-3 -7,-3 -10,-6 -13,-12 0,0 0,0 0,0 -1,0 -1,0 -1,0 -6,3 -12,7 -17,10 3,0 13,4 14,4 3,2 5,6 8,8 4,2 8,3 12,4 2,-2 4,-4 6,-6z"/>
   <path class="fil0" d="M31 100c3,-1 7,-4 5,-8 -2,-2 -6,-4 -9,-2 -2,1 -3,2 -4,4 0,0 0,1 0,2 0,0 1,0 1,0 2,2 4,5 7,4z"/>
   <path class="fil0" d="M31 461c-3,1 -6,2 -10,4 2,3 3,5 6,7 2,1 4,3 6,4 3,1 9,5 14,4 2,-2 4,-5 6,-8 -7,-2 -18,-3 -22,-11z"/>
   <path class="fil0" d="M56 460c2,0 5,1 7,1 0,0 0,0 1,0 5,-5 12,-9 17,-13 -11,3 -23,5 -34,8 3,2 6,3 9,4z"/>
   <path class="fil0" d="M46 457c-1,0 -1,0 -1,-1 -4,2 -8,3 -12,4 5,7 13,8 20,12 3,-4 6,-7 9,-10 -2,0 -5,-1 -8,-1 -3,-1 -6,-2 -8,-4z"/>
   <path class="fil0" d="M59 448c-1,2 -2,3 -4,4 8,-2 15,-4 23,-6 -5,-1 -9,-2 -14,-2 -2,1 -4,3 -5,4z"/>
   <path class="fil0" d="M493 73c-1,0 -2,0 -3,0 0,0 0,0 0,0 -1,3 -3,5 -5,7 -2,2 -4,4 -5,6 1,0 3,0 4,0 1,-3 4,-5 6,-8 1,-1 2,-3 3,-5z"/>
   <path class="fil0" d="M501 85c2,0 3,0 4,0 1,-1 2,-2 2,-3 1,-2 2,-3 3,-5 1,-1 2,-3 3,-4 -1,0 -1,0 -1,0 0,0 0,1 -1,1 -2,1 -4,5 -6,7 -1,2 -2,3 -4,4z"/>
   <path class="fil1" d="M426 515c0,1 0,1 -1,1 0,0 1,0 1,0 0,0 0,0 0,-1z"/>
   <path class="fil0" d="M478 497c-1,1 -5,3 -4,5 0,1 1,1 1,2 4,-5 8,-9 15,-10 -1,-1 -1,-2 -2,-2 -3,1 -7,2 -10,5z"/>
   <path class="fil0" d="M146 499c0,0 0,0 1,1 0,0 0,0 0,0 0,0 0,0 0,0 0,0 0,0 0,0 0,-1 -1,-1 -1,-1z"/>
   <path class="fil0" d="M222 475c19,-5 37,-15 57,-18 -2,-4 -3,-7 -4,-11 -21,4 -42,10 -63,14 0,3 1,6 2,9 0,3 1,5 2,7 1,0 3,0 5,-1 0,0 1,0 1,0z"/>
   <path class="fil0" d="M449 77c0,1 0,1 0,1 -1,1 -2,2 -2,3 -1,1 -2,2 -2,4 0,0 1,0 2,0 1,-3 3,-6 5,-9 -1,1 -2,1 -3,1z"/>
   <path class="fil0" d="M273 439c-1,-2 -2,-6 -3,-9 -20,3 -42,5 -63,5 0,4 1,8 2,13 0,3 1,5 2,8 21,-4 42,-8 63,-12 0,-1 -1,-3 -1,-5z"/>
   <path class="fil0" d="M420 11c0,0 0,0 0,0 0,0 0,0 0,0 -1,2 -2,5 -4,7 0,0 1,0 1,0 1,-2 2,-5 3,-7z"/>
   <path class="fil0" d="M270 427c0,-2 0,-5 1,-8 -12,2 -25,0 -38,0 -7,0 -18,3 -26,1 0,3 0,7 0,10 21,1 42,0 63,-3z"/>
   <path class="fil0" d="M494 492c6,-2 11,-4 16,-7 -1,-8 1,-15 4,-22 -8,8 -15,18 -20,29z"/>
   <path class="fil0" d="M500 73c-1,0 -2,0 -3,0 0,0 0,0 0,0 -3,2 -4,6 -6,8 -2,1 -4,3 -5,5 1,0 3,0 4,0 1,-3 4,-6 6,-8 1,-2 3,-3 4,-5z"/>
   <path class="fil0" d="M511 303c0,0 0,0 0,0 1,0 1,1 1,1 0,0 0,-1 -1,-1z"/>
   <path class="fil0" d="M508 73c-1,0 -2,0 -3,0 -2,2 -5,4 -7,6 -2,2 -4,4 -6,7 2,0 3,0 5,0 0,0 1,0 1,0 2,-3 4,-5 6,-7 1,-2 2,-4 4,-6z"/>
   <path class="fil0" d="M508 84c1,0 2,0 3,0 3,-3 5,-7 8,-10 -1,0 -2,-1 -3,-1 0,0 0,1 0,1 -3,2 -5,5 -6,8 -1,1 -2,2 -2,2z"/>
   <path class="fil0" d="M463 75c0,0 0,0 -1,0 -3,3 -5,7 -8,11 2,0 3,0 5,0 0,0 0,-1 0,-1 4,-2 5,-7 8,-11 -2,0 -3,0 -4,1z"/>
   <path class="fil0" d="M470 74c0,0 0,0 -1,0 -3,4 -4,9 -8,12 1,0 3,0 4,0 0,0 0,-1 0,-1 2,-4 5,-8 8,-11 -1,0 -2,0 -3,0z"/>
   <path class="fil0" d="M485 73c-1,0 -2,0 -3,0 -2,2 -4,6 -5,8 -1,2 -3,3 -4,5 2,0 4,0 5,0 0,0 0,-1 0,-1 2,-4 7,-7 9,-12 -1,0 -1,0 -2,0z"/>
   <path class="fil0" d="M457 76c-1,0 -1,0 -1,0 -2,3 -6,6 -8,9 2,0 3,0 5,1 2,-4 4,-7 6,-11 -1,0 -2,0 -2,1z"/>
   <path class="fil0" d="M479 74c-1,0 -2,0 -3,0 0,0 0,0 0,0 -3,4 -6,7 -9,13 0,0 0,0 0,0 1,0 3,-1 4,-1 2,-3 4,-6 6,-9 0,-1 1,-2 2,-3z"/>
   <path class="fil1" d="M220 491c1,0 1,-1 1,-1 0,0 -1,-1 -1,-1 0,0 0,1 0,2z"/>
   <path class="fil0" d="M224 160c-2,0 -4,-1 -5,-1 -1,0 -1,0 -1,1 0,0 1,0 1,0 1,0 2,1 3,1 1,1 1,1 1,1 0,1 1,1 1,1 0,0 1,0 1,0 2,2 4,4 5,6 0,0 0,0 0,0 1,0 1,1 1,1 1,0 1,0 1,0 1,0 1,1 0,1 0,0 0,0 1,0 0,0 0,0 0,0 0,1 0,1 0,1 1,0 1,0 1,1 0,0 1,1 2,2 0,0 0,0 0,1 1,1 2,2 3,4 0,-1 1,0 1,0 0,1 1,2 1,3 0,0 1,1 1,1 1,1 1,1 0,2 1,2 2,3 3,5 1,1 0,1 0,2 1,3 2,6 4,8 1,1 1,1 1,1 2,3 5,6 9,8 1,0 1,0 1,0 0,0 0,-1 0,-1 -1,0 -1,0 -1,0 -1,-1 -2,-2 -3,-3 -1,0 -1,0 -1,-1 -5,-6 -6,-18 -10,-24 -5,-9 -12,-17 -21,-21z"/>
   <path class="fil0" d="M271 237c-1,2 -2,3 -2,5 -2,3 -3,6 -4,9 1,0 2,0 2,1 1,-6 5,-11 9,-15 -1,-1 -3,-1 -5,0z"/>
   <path class="fil0" d="M235 327c1,-4 2,-8 3,-11 -2,2 -5,4 -8,6 -4,3 -7,6 -10,9 0,4 1,8 1,11 2,-2 4,-5 6,-7 3,-3 6,-5 8,-8z"/>
   <path class="fil0" d="M217 161c0,0 0,0 0,0 0,0 0,0 1,0 0,1 0,1 0,1 0,0 0,0 1,0 0,0 0,0 0,0 0,0 -1,0 -1,-1 0,0 -1,0 -1,0z"/>
   <path class="fil0" d="M444 299c0,0 -1,0 -2,0 2,0 3,0 5,0 3,0 6,-2 9,-4 -1,1 -2,1 -3,2 -2,1 -5,2 -9,2z"/>
   <path class="fil0" d="M440 285c2,1 6,2 8,-1 1,-3 0,-7 -3,-9 -3,-1 -5,0 -8,1 0,0 -1,1 -1,2 0,0 0,0 0,1 1,1 2,5 4,6z"/>
   <path class="fil0" d="M244 61c0,0 0,0 0,0 1,4 0,7 -1,11 -1,0 -1,0 -1,0 0,1 0,1 0,1 0,0 0,0 0,0 0,0 0,0 0,0 0,2 0,3 -1,5 0,0 0,0 0,0 -2,5 -6,9 -10,13 0,0 0,0 0,1 -1,0 -3,1 -4,2 0,1 0,1 0,1 -2,1 -3,1 -4,2 -2,0 -4,0 -6,0 0,-1 0,-1 0,-1 1,-2 1,-4 2,-7 0,0 0,-1 -1,-1 1,-2 3,-4 4,-5 1,-1 1,-1 0,-2 1,-1 2,-2 2,-3 1,0 1,-1 0,-1 1,-1 3,-2 4,-3 0,-1 0,-1 0,-2 1,0 1,-1 2,-2 0,0 0,0 1,-1 0,0 0,0 0,0 0,0 1,-1 1,-1 5,-5 6,-9 7,-14 1,0 2,1 2,1 1,1 2,1 2,2 0,0 1,0 1,0 0,0 0,0 0,0 0,2 0,3 0,4zm-8 12l0 0c1,-1 0,-1 0,0 -2,4 -4,8 -8,12 -2,2 -5,5 -7,8 -1,0 1,1 1,1 3,-4 6,-7 9,-10 3,-4 4,-7 5,-11zm4 -10l0 0c1,-1 -1,-1 -1,0 0,1 0,3 -1,4 0,1 1,1 1,1 1,-1 1,-3 1,-5z"/>
   <path class="fil0" d="M439 295c0,1 2,1 3,1 0,0 1,0 1,0 1,0 2,0 3,0 2,-1 4,-1 5,-2 4,-2 6,-5 7,-9 1,-1 3,-1 3,-1 2,-6 2,-13 -4,-17 0,0 0,0 -1,0 -6,-1 -12,2 -17,4 -1,1 -1,2 -1,2 3,-1 7,-1 10,1 3,3 5,8 3,12 -2,4 -7,6 -12,4 -3,-1 -5,-3 -6,-6 0,1 -1,2 -2,3 2,3 4,6 6,8 1,0 1,0 2,0z"/>
   <path class="fil0" d="M216 77c0,0 0,0 0,-1 1,-1 2,-3 3,-4 0,-1 0,-1 0,-1 1,0 1,0 1,0 1,-3 3,-6 5,-8 0,0 0,0 0,-1 1,0 2,-1 3,-1 0,-1 1,-1 1,0 0,-1 0,-1 0,-1 1,0 1,0 1,0 0,0 0,0 0,0 3,-2 5,-4 5,-8 -2,0 -5,0 -7,1 0,0 0,0 0,0 -3,2 -6,4 -9,7 0,0 0,0 0,0 -2,2 -3,5 -5,7 -1,2 -2,4 -3,6 0,0 0,0 -1,1 -1,3 -1,6 -1,9 0,0 0,0 -1,1 0,0 0,0 0,1 0,1 0,2 0,3 1,2 2,4 3,5 0,-2 0,-3 1,-5 0,0 0,0 0,-1 0,-1 1,-2 1,-3 0,0 0,0 0,0 0,0 0,-1 0,-1 0,-1 1,-1 1,-1 0,0 0,-1 1,-2 0,0 0,0 0,0 0,-1 0,-2 1,-3z"/>
   <path class="fil0" d="M239 323c-1,4 -2,8 -3,11 0,1 0,1 0,1 2,2 4,5 4,9 1,2 1,5 2,7 3,-3 6,-6 9,-9 0,0 0,0 0,0 -4,-7 -5,-15 -12,-19z"/>
   <path class="fil0" d="M228 349c-2,2 -3,3 -4,5 1,4 2,9 3,14 1,-8 3,-15 4,-22 -1,1 -2,2 -3,3z"/>
   <path class="fil0" d="M235 337c-2,11 -4,23 -6,34 4,-6 7,-13 12,-18 0,-1 0,-1 0,-1 -1,-2 -1,-5 -2,-7 -1,-3 -2,-6 -4,-8z"/>
   <path class="fil0" d="M231 343c0,0 0,0 1,0 1,-5 2,-10 3,-15 -2,2 -3,4 -5,6 -3,3 -6,7 -8,10 0,3 1,5 1,8 1,-2 2,-3 3,-4 2,-1 4,-3 5,-5z"/>
   <path class="fil0" d="M261 273c3,2 5,7 7,11 2,5 4,9 8,13 0,-14 -3,-30 -10,-40 -1,6 -3,11 -5,16z"/>
   <path class="fil0" d="M260 274c-2,5 -4,9 -7,14 0,0 0,0 0,0 3,3 2,7 4,10 2,4 6,6 8,10 3,3 5,7 6,11 3,-6 4,-12 4,-19 0,0 0,0 0,0 -8,-7 -8,-18 -15,-26z"/>
   <path class="fil0" d="M252 289c-3,6 -7,12 -9,18 0,0 0,0 0,0 3,2 6,3 8,6 2,2 4,5 5,8 2,4 4,9 4,13 2,-2 3,-4 5,-5 2,-2 3,-5 5,-7 -2,-9 -7,-13 -13,-19 -1,-1 -6,-12 -5,-14z"/>
   <path class="fil0" d="M242 310c0,0 0,0 0,0 0,0 0,1 0,1 -1,3 -2,6 -3,9 8,3 10,15 13,21 0,0 0,1 0,1 2,-3 5,-5 7,-8 1,-4 -3,-10 -5,-13 -4,-5 -6,-9 -12,-11z"/>
   <path class="fil0" d="M231 63c0,0 0,1 0,1 0,0 0,0 0,0 0,1 -1,1 -1,1 0,0 0,0 -1,0 -3,3 -6,5 -8,8 0,1 -1,2 -2,3 1,0 1,0 1,0 0,1 0,2 0,3 0,0 -1,0 -1,0 0,0 0,0 0,0 0,1 -1,1 -1,1 0,0 0,0 0,0 0,0 0,1 0,0 0,0 0,0 0,0 -2,4 -3,7 -3,11 0,0 0,0 0,0 0,0 0,0 0,0 0,0 0,-1 1,-1 1,-10 10,-18 16,-27 0,0 0,0 -1,0z"/>
   <path class="fil0" d="M392 225c-3,0 -6,2 -8,3 -2,1 -5,2 -7,3 2,1 3,2 5,3 0,-1 0,-1 0,-1 4,-3 10,-3 14,-6 -2,-1 -3,-1 -4,-2z"/>
   <path class="fil0" d="M421 242c0,0 -1,0 -1,0 -3,1 -6,3 -9,4 -1,0 -2,1 -3,2 1,0 2,0 3,1 4,-2 8,-4 12,-5 -1,-1 -2,-1 -2,-2z"/>
   <path class="fil0" d="M413 242c2,0 3,-1 5,-2 0,0 -1,0 -1,0 0,0 0,0 -1,0 -3,0 -6,3 -9,4 -2,0 -3,0 -5,1 1,0 2,1 3,2 2,-1 3,-2 4,-3 2,0 3,-1 4,-2z"/>
   <path class="fil0" d="M427 248c0,-1 -1,-1 -2,-2 -4,0 -8,2 -12,4 1,0 3,1 4,1 2,0 4,-1 7,-2 1,0 2,-1 3,-1z"/>
   <path class="fil0" d="M337 228c1,-1 2,-3 3,-4 2,-3 3,-5 4,-8 0,0 1,0 1,0 1,-2 1,-4 2,-6 0,0 0,0 0,0 -2,7 -7,14 -11,21 0,-1 1,-2 1,-3z"/>
   <path class="fil0" d="M389 223c-1,0 -2,-1 -3,-1 0,0 0,0 0,0 -5,2 -9,3 -14,5 0,0 0,1 0,1 1,0 3,1 4,2 3,-2 6,-4 10,-5 1,-1 2,-1 3,-2z"/>
   <path class="fil0" d="M408 234c-1,-1 -2,-1 -3,-2 -1,0 -1,0 -1,0 -3,0 -6,3 -9,3 -2,1 -5,2 -7,2 1,1 3,2 4,3 2,-2 5,-3 7,-4 3,-1 6,-1 9,-2z"/>
   <path class="fil0" d="M401 230c-1,0 -2,-1 -3,-1 0,0 0,0 0,0 -4,3 -10,3 -15,5 1,1 2,2 3,2 3,-1 6,-2 8,-3 2,-1 5,-2 7,-3z"/>
   <path class="fil0" d="M414 238c-1,-1 -2,-1 -2,-2 -4,1 -7,1 -10,2 -3,1 -6,1 -8,3 1,0 2,1 4,2 0,0 0,0 1,0 2,0 5,-1 7,-2 3,-1 5,-2 8,-3z"/>
   <path class="fil0" d="M368 213c0,0 0,1 0,1 -4,1 -8,2 -12,4 2,0 3,1 4,2 4,-2 7,-4 11,-6 -1,0 -2,0 -3,-1z"/>
   <path class="fil0" d="M361 211c0,1 0,1 0,1 -2,0 -3,1 -5,1 -1,1 -2,1 -3,2 1,1 2,1 2,2 3,-2 6,-4 9,-5 -1,0 -2,0 -3,-1z"/>
   <path class="fil0" d="M429 249c-1,1 -3,1 -4,1 -2,1 -4,2 -6,2 1,1 3,1 4,1 2,0 5,-1 7,-2 0,-1 -1,-1 -1,-2z"/>
   <path class="fil0" d="M374 216c0,0 0,0 -1,0 -4,1 -8,3 -12,5 2,1 3,2 4,3 0,-1 0,-1 1,-1 4,0 8,-4 12,-5 -1,-1 -3,-2 -4,-2z"/>
   <path class="fil0" d="M432 253c-2,0 -4,1 -7,1 1,1 2,1 3,1 0,0 1,0 2,0 1,-1 2,-1 3,-1 -1,-1 -1,-1 -1,-1z"/>
   <path class="fil0" d="M431 257c2,0 3,1 4,1 0,-1 0,-1 -1,-2 -1,0 -2,1 -3,1z"/>
   <path class="fil0" d="M380 219c0,0 0,0 0,0 -4,2 -8,5 -13,6 1,0 2,1 3,2 0,-1 1,-1 1,-1 4,-2 8,-4 13,-6 -1,0 -2,-1 -4,-1z"/>
   <path class="fil0" d="M219 78c0,0 0,0 0,0 0,0 0,0 0,0 0,0 0,0 0,0z"/>
   <path class="fil0" d="M334 90c0,0 -1,0 -2,0 -1,6 -3,14 1,19 4,5 5,-5 5,-6 0,-2 0,-4 0,-7 0,-2 1,-5 0,-7 -1,-4 -3,0 -4,1z"/>
   <path class="fil0" d="M330 248c0,0 0,0 0,0 0,1 0,2 0,2 0,0 0,-1 0,-2z"/>
   <path class="fil0" d="M424 319c-2,-7 -6,-13 -12,-18 -4,2 -9,2 -14,2 0,0 0,1 0,1 0,1 0,2 -1,2 -7,3 -16,-2 -22,-4 -3,-1 -7,-4 -11,-6 -2,-1 -5,-3 -7,-4 0,0 0,-1 0,-1 -9,-4 -17,-10 -25,-17 -3,-3 -2,-7 1,-6 -1,-3 -3,-6 -4,-10 -1,-2 -1,-5 -1,-7 -5,-2 -9,-3 -15,-3 -4,0 -20,2 -12,13 6,8 10,17 18,22 16,11 32,19 48,28 1,0 1,1 1,1 7,4 15,7 22,11 5,2 9,4 15,5 4,1 24,6 19,-9z"/>
   <path class="fil0" d="M430 413c0,0 0,0 0,0 0,-2 0,-4 1,-6 0,0 -1,0 -1,-1 1,-1 2,-3 2,-4 2,-2 3,-4 5,-5 1,0 1,1 1,1 1,1 1,1 2,2 0,2 1,3 2,5 0,1 1,1 1,0 1,3 1,6 1,9 0,0 1,1 2,1 0,1 0,3 0,4 0,1 1,1 1,1 0,0 0,1 0,1 0,2 0,3 0,5 0,1 0,1 1,1 0,3 0,6 0,8 0,8 2,13 6,18 -2,0 -5,0 -7,0 0,0 -1,0 -1,0 -1,-1 -2,-1 -3,-2 0,0 0,0 0,0 -4,-3 -6,-7 -7,-11 0,0 0,-1 -1,-1 0,0 0,0 0,0 0,0 0,0 0,0 0,0 0,-1 0,-1 -2,-1 -3,-3 -3,-4 0,0 0,-1 0,-1 -1,-2 -2,-4 -2,-6 0,0 0,0 0,0 0,0 0,0 0,0 -1,-5 -1,-9 0,-14zm12 28l0 0c0,1 2,3 2,5 1,1 3,0 2,-1 -1,-1 -1,-2 -2,-2 0,-1 -1,-2 -1,-2 0,-1 -1,-1 -1,0zm-7 -37l0 0c1,6 0,12 1,18 0,4 2,8 4,12 0,1 1,0 1,0 -2,-5 -3,-9 -3,-14 -1,-5 0,-11 0,-16 -1,-2 -3,-2 -3,0z"/>
   <path class="fil0" d="M437 90c0,0 0,0 1,0 -1,-2 -1,-4 -2,-6 2,9 1,21 3,32 -1,-4 -1,-8 -1,-11 0,-5 0,-10 -1,-15z"/>
   <path class="fil0" d="M503 286c0,0 -1,0 -1,0 -1,-1 -1,-2 -2,-2 2,2 3,5 5,8 0,-2 -1,-4 -2,-6z"/>
   <path class="fil0" d="M456 144c0,0 1,0 1,0 0,0 0,0 -1,0z"/>
   <path class="fil0" d="M389 94c4,12 4,26 0,38 -7,24 -26,28 -47,29 -1,1 -2,1 -2,2 0,0 0,0 -1,1 -1,3 -2,6 -3,9 -1,3 -2,5 -3,7 0,2 0,5 -2,4 -3,-3 -5,-7 -7,-10 -3,-3 -5,-6 -8,-9 1,-1 0,-4 -2,-4 -10,0 -20,-1 -29,-5 -10,-5 -16,-17 -19,-27 -3,-11 -2,-24 1,-35 3,-9 9,-22 18,-29 24,-13 53,-6 79,-3 0,0 1,0 1,0 12,3 21,21 24,32zm-93 17l0 0c5,6 8,1 10,-5 1,-2 -2,-3 -3,-1 0,2 -2,4 -3,5 -2,-2 -3,-5 -3,-7 -1,-4 -1,-8 0,-12 1,-3 2,-5 4,-7 4,-5 5,7 6,9 0,1 2,1 1,0 0,-3 1,-15 -5,-13 -6,1 -8,7 -9,12 -2,5 -2,14 2,19zm1 27l0 0c-2,-5 -1,-11 -3,-16 0,-1 -1,-1 -2,0 -1,1 -1,3 -2,5 -1,-2 -1,-3 -2,-5 -1,-1 -2,0 -2,1 0,5 0,12 1,18 0,0 0,0 0,0 1,-5 0,-10 1,-15 0,1 1,2 2,3 0,1 1,0 1,0 1,-2 1,-3 2,-4 1,5 0,10 2,14 1,2 3,0 2,-1zm9 -14l0 0c0,-3 -3,-6 -6,-3 0,1 0,1 0,2 -2,3 -1,8 0,12 0,2 2,5 5,3 1,-1 1,-4 1,-5 1,-3 1,-6 0,-9zm1 -24l0 0c-1,1 -3,1 -5,1 -1,0 -2,3 0,3 2,0 4,0 6,0 2,-1 2,-4 -1,-4zm13 34l0 0c-1,-1 -1,-2 -2,-3 -1,-1 -2,-3 -2,-4 1,-1 2,-2 1,-4 0,-3 -3,-5 -5,-4 -6,3 -1,13 -1,17 0,1 1,0 1,0 0,-3 0,-5 -1,-8 0,0 0,0 0,0 2,0 3,0 4,-1 0,2 1,3 2,5 1,1 1,3 2,4 1,1 3,-1 1,-2zm3 -25l0 0c2,-2 2,-5 3,-8 0,-4 1,-9 0,-13 0,-2 -1,-5 -4,-6 -2,0 -3,2 -4,3 -1,0 -1,0 -1,1 -3,7 -5,13 -2,21 2,4 5,6 8,2zm10 20l0 0c0,-3 0,-6 0,-9 0,-1 -3,-1 -3,0 1,3 1,5 1,7 0,1 0,3 0,4 0,0 0,0 0,0 -2,-3 -3,-6 -5,-9 0,-1 0,-1 0,-1 -1,0 -2,0 -2,1 0,4 0,9 0,13 0,1 1,1 1,0 1,-4 1,-7 1,-11 1,3 3,7 4,10 1,2 3,1 3,-1 0,-1 0,-3 0,-4zm7 -9l0 0c0,-2 -3,-2 -3,0 0,4 0,9 0,13 0,1 2,1 2,0 0,-4 0,-9 1,-13zm1 -30l0 0c0,-2 -1,-6 -4,-6 -2,0 -3,1 -4,3 -1,0 -1,0 -1,0 -3,7 -5,14 -2,21 2,4 5,7 8,3 2,-2 2,-5 3,-8 0,-4 1,-9 0,-13zm11 39l0 0c0,-3 0,-6 0,-9 0,-1 -3,-1 -3,0 0,3 1,5 1,7 0,1 0,3 0,4 0,0 0,0 0,0 -2,-3 -3,-6 -5,-9 0,-1 0,-1 -1,-1 0,0 -2,0 -2,1 0,4 1,9 1,13 0,1 1,1 1,0 0,-4 1,-7 1,-11 1,3 2,7 4,10 1,2 3,1 2,-1 1,-1 0,-3 1,-4zm7 -32l0 0c-1,-6 -5,-12 -12,-12 0,0 0,0 0,0 0,0 0,0 0,0 0,0 0,0 0,0 0,0 0,0 0,1 0,0 0,0 0,0 0,0 0,0 0,0 0,7 -4,15 -2,22 0,1 1,2 2,1 0,1 0,1 1,1 8,0 12,-5 11,-13zm9 29l0 0c0,-1 -2,-2 -2,-1 -1,1 -4,1 -3,3 0,0 1,0 1,0 0,0 0,0 1,-1 0,1 -1,1 -1,1 0,1 0,2 0,3 -1,1 -3,1 -4,0 0,-1 0,-1 0,-2 -1,-1 -1,-2 -1,-3 0,-2 0,-7 2,-8 1,0 1,0 0,0 -4,-2 -4,8 -4,10 1,3 2,6 5,6 4,2 5,-3 5,-6 0,0 0,0 0,0 1,-1 1,-1 1,-2z"/>
   <path class="fil0" d="M444 401c7,10 6,25 8,37 1,0 1,0 1,0 0,0 0,0 0,-1 0,0 0,0 0,0 -1,-1 -1,-1 -1,-1 1,-1 1,-1 1,-1 1,-3 1,-6 1,-9 -1,-3 -1,-6 -2,-9 0,0 0,0 0,0 -1,-1 -1,-1 -2,-2 0,-1 0,-1 0,-2 0,0 0,0 0,0 0,0 0,0 0,0 0,-1 0,-1 0,-1 1,0 1,0 1,0 -2,-5 -4,-8 -7,-12 0,0 0,0 0,0 0,0 0,0 0,0 0,1 0,1 0,1z"/>
   <path class="fil0" d="M357 285c-1,-1 -2,-2 -4,-3 0,0 0,0 0,0 2,1 3,2 4,3 0,0 0,0 0,0z"/>
   <path class="fil0" d="M449 400c1,0 1,0 1,1 0,1 1,2 2,3 0,0 0,0 0,0 0,1 0,1 1,2 0,0 0,1 -1,1 1,1 1,1 1,2 1,0 1,1 0,1 1,1 2,2 2,3 0,0 0,1 0,1 1,2 2,4 2,6 0,1 0,1 0,1 0,1 0,1 0,1 1,4 2,7 2,11 0,1 0,1 0,1 0,1 0,2 -1,4 0,0 0,1 -1,1 0,0 0,0 0,1 0,0 0,0 0,0 0,0 0,1 -1,1 0,0 0,0 0,0 0,2 0,3 0,4 0,2 1,4 2,6 3,-2 5,-5 7,-9 1,-3 1,-7 2,-11 -1,0 -1,0 -1,0 0,-4 -1,-7 -1,-10 -1,-3 -1,-6 -2,-8 -1,-1 -1,-1 0,-1 -1,-2 -2,-3 -3,-4 0,-1 0,-1 0,-1 -1,-2 -2,-3 -4,-5 0,0 0,-1 0,-1 0,0 0,0 0,-1 -2,-1 -3,-2 -4,-3 -2,-1 -4,-2 -6,-2 0,0 0,0 0,1 1,1 3,2 3,4z"/>
   <path class="fil0" d="M347 86c2,7 -2,14 0,21 0,0 1,0 1,0 4,0 7,-1 8,-5 1,-2 1,-5 0,-7 -1,-5 -4,-8 -9,-9z"/>
   <path class="fil0" d="M452 415c0,0 0,0 0,0 0,0 0,0 0,0 0,0 0,0 0,0z"/>
   <path class="fil0" d="M339 328c-1,0 -3,1 -4,2 -1,2 -2,3 -4,5 -1,2 -2,2 -3,1 -1,1 -2,3 -3,4 -1,2 -2,6 -2,9 1,6 8,-1 9,-2 4,-3 8,-8 10,-13 0,-1 3,-8 -3,-6z"/>
   <path class="fil0" d="M260 273c2,-5 4,-10 5,-16 -10,5 -20,13 -28,22 8,-3 15,-6 23,-6z"/>
   <path class="fil0" d="M442 125c0,0 0,0 -1,0 1,1 2,2 3,4 -1,-2 -2,-3 -2,-4z"/>
   <path class="fil0" d="M252 287c3,-4 6,-9 8,-14 -9,1 -17,5 -25,9 0,0 0,0 -1,0 -3,4 -6,8 -8,13 5,-2 9,-5 13,-7 4,-1 10,-2 13,-1z"/>
   <path class="fil0" d="M400 300c-2,-1 -5,-1 -7,-1 0,0 0,0 0,0 2,1 5,1 7,1z"/>
   <path class="fil0" d="M253 288c0,0 0,0 0,0 -1,0 -1,0 -1,1 0,-1 1,-1 1,-1z"/>
   <path class="fil0" d="M252 288c-5,-2 -14,2 -19,5 -3,1 -5,4 -8,5 -2,3 -3,6 -4,9 0,2 0,3 -1,5 8,-5 16,-12 26,-13 2,-4 4,-8 6,-11z"/>
   <path class="fil0" d="M343 274c0,0 0,0 0,0 1,1 1,1 2,2 -1,-1 -1,-2 -2,-2z"/>
   <path class="fil0" d="M466 140c0,0 0,0 0,0 1,1 2,1 2,1 0,0 -1,-1 -2,-1z"/>
   <path class="fil0" d="M334 263c0,0 0,-1 -1,-2 1,0 1,1 1,1 0,0 0,1 0,1z"/>
   <path class="fil0" d="M452 135c0,0 0,0 -1,-1 0,1 1,1 1,1 0,0 0,0 0,0z"/>
   <path class="fil0" d="M484 142c0,0 1,0 1,0 -2,0 -4,0 -6,0 0,0 0,0 0,0 2,0 3,0 5,0 0,0 0,0 0,0z"/>
   <path class="fil0" d="M239 314c1,-2 1,-4 2,-6 0,0 0,0 0,0 1,-3 3,-6 4,-8 -9,1 -18,10 -25,15 0,0 0,0 0,0 -1,4 -1,9 -1,13 3,-2 5,-5 8,-6 4,-3 9,-5 12,-8z"/>
   <path class="fil1" d="M14 316c-5,1 -10,1 -14,0l0 -8c1,0 1,0 2,1 0,0 0,0 0,0 0,0 0,0 0,0 0,0 1,0 1,0 1,1 3,1 5,2 0,0 0,0 0,0 1,0 1,0 1,0 4,-1 7,-2 10,-3 -11,-11 -13,-22 -15,-37 0,0 -1,-1 -1,-1 0,-4 0,-7 -1,-11 0,1 -2,1 -2,0 0,-4 0,-7 0,-10l0 -18c2,4 3,8 4,12 2,10 3,20 4,30 1,4 1,8 2,11 0,0 0,-1 0,-1 0,-1 1,-1 1,-1 0,0 0,0 0,0 0,0 0,0 0,0 -1,-1 0,-2 1,-1 0,0 0,0 1,0 -1,0 0,-1 0,-1 0,-1 0,-1 0,-2 0,-1 -1,-1 -1,-1 -1,-1 -1,-2 0,-2 0,0 1,-1 1,0 0,-9 0,-17 -2,-25 0,-4 -1,-7 -2,-10 0,0 0,0 -1,0 0,-1 -1,-1 -1,-2 -1,0 -2,-1 -3,-1 -1,-1 0,-3 1,-2 1,0 1,1 2,1 0,0 0,0 0,0 -1,-1 -2,-1 -3,-2 0,0 0,-1 1,0 0,0 1,0 2,0 0,0 0,0 0,1 0,-1 0,-1 0,-1 -1,0 -2,-1 -3,-1 -1,-1 0,-1 0,-2 1,0 1,1 2,1 0,-1 -1,-1 -1,-2 0,0 0,0 0,0 0,0 0,0 0,-1 -2,-3 -3,-6 -5,-9l0 -9c2,2 3,4 4,6 0,0 0,1 0,1 1,1 2,2 2,3 1,0 0,1 0,1 1,1 2,3 3,5 0,0 0,0 -1,1 2,1 3,3 4,5 0,1 0,1 0,2 2,3 3,7 4,11 1,1 0,2 0,2 0,1 0,1 0,2 3,6 5,13 5,20 0,0 0,1 0,1 0,2 0,5 0,7 0,1 -1,1 -2,1 0,0 0,1 0,1 0,0 0,1 0,1 0,0 0,1 0,2 0,1 -1,1 -1,0 0,0 0,-1 0,-1 -1,8 0,17 6,23 1,0 1,-1 2,-1 0,0 0,0 0,0 0,0 0,0 0,0 3,-3 5,-6 7,-10 1,-1 1,-2 1,-4 0,0 0,0 0,0 2,-8 3,-16 3,-25 0,0 0,0 0,0 0,0 0,0 0,-1 -1,-2 -1,-4 -2,-7 0,-1 -1,-2 -1,-4 0,0 0,0 0,0 -1,-3 -1,-5 -2,-7 -1,-4 -1,-8 -3,-12 0,-1 -1,-1 -1,-2 0,0 0,-1 -1,-1 0,-1 0,-1 0,-2 -3,-6 -7,-12 -13,-17 -1,-1 0,-1 0,-2 0,0 0,0 -1,0 -3,-4 -7,-7 -11,-10 0,0 -1,0 -2,0l0 -6c6,1 12,4 17,10 10,11 19,24 24,39 7,26 4,65 -27,73zm-6 -78l0 0c0,0 0,0 0,0 0,0 0,0 0,0 0,0 0,0 0,0zm6 55l0 0c-1,-2 -1,-4 -1,-6 0,-1 -1,-1 -1,-2 0,0 0,0 0,0 0,0 0,1 0,1 0,2 0,3 1,5 0,1 0,1 1,2zm1 -34l0 0c0,1 0,2 0,3 0,-1 0,-2 0,-3 0,0 0,0 0,0zm1 15l0 0c0,0 -1,0 -1,-1 0,1 0,2 0,3 0,0 0,0 1,1 0,-1 0,-1 0,-1 0,0 0,0 0,0 0,-1 0,-1 0,-1 0,0 0,0 0,-1zm23 3l0 0c0,0 0,-1 -1,-2 0,2 0,4 0,6 0,-1 0,-2 1,-4z"/>
   <path class="fil1" d="M362 0l7 0c-1,5 -2,10 -1,15 0,0 0,1 -1,1 1,3 1,7 1,10 2,3 4,5 6,7 0,-3 0,-7 0,-10 0,0 0,0 1,-1 0,-2 0,-3 0,-5 0,0 1,-1 1,-1 0,-1 0,-1 0,-2 0,-1 1,-1 1,-1 0,-1 0,-2 1,-4 0,0 0,0 0,0 1,-2 1,-3 1,-5 0,-1 1,-1 1,-1 0,-1 1,-2 1,-3l5 0c0,1 -1,1 -1,2 0,0 0,0 0,0 0,1 0,3 1,4 0,1 -1,1 -2,1 0,0 0,0 0,0 0,1 0,1 0,1 -1,-1 -1,-1 -1,-2 0,1 0,2 1,2 0,1 -1,1 -1,1 0,0 -1,0 -1,-1 0,1 0,1 0,1 0,0 0,0 0,0 0,1 0,1 0,1 -2,5 -3,11 -3,16 0,1 0,1 0,1 1,1 1,1 1,2 0,-1 0,-1 0,-2 1,0 1,0 1,0 1,-9 4,-17 7,-24 1,-1 1,-2 2,-3l6 0c-1,1 -2,2 -3,3 1,0 1,1 1,1 -2,2 -3,4 -4,6 1,0 2,1 1,2 -2,3 -5,7 -6,11 0,0 0,0 0,0 1,0 1,0 1,1 -1,4 -2,8 -2,12 0,1 0,1 0,2 3,0 6,0 9,-1 3,-1 5,-2 7,-4 0,0 0,-1 1,-1 2,-2 4,-4 6,-6 0,0 0,0 0,0 7,-7 12,-15 15,-24 0,0 1,0 1,0 0,-1 0,-1 0,-2l9 0c-2,7 -4,14 -7,18 -12,19 -28,28 -46,22 0,0 0,0 0,0 -1,1 -2,1 -4,1 -13,-9 -17,-25 -13,-41zm54 18l0 0c0,0 1,0 1,0 1,-2 2,-5 3,-7 0,0 0,0 0,0 0,0 0,0 0,0 -1,2 -2,5 -4,7z"/>
   <path class="fil1" d="M392 31c4,-6 8,-11 12,-17 4,-4 6,-9 8,-14l-2 0c-2,5 -4,9 -7,13 -4,6 -9,11 -13,17 0,1 1,2 2,1z"/>
   <path class="fil1" d="M118 104c-19,-13 -32,-30 -40,-52 -5,-2 -10,-5 -14,-9 -2,-2 -3,-3 -3,-5 -1,-2 2,-5 3,-6 0,-1 1,-1 2,-1 0,0 0,0 1,0 2,4 5,7 8,11 1,1 2,2 3,3 1,1 3,1 5,2 0,0 0,0 0,0 10,-5 21,-5 31,-4 10,1 23,1 32,6 10,7 16,19 23,29 4,7 9,13 16,19 4,3 9,6 13,10 1,2 0,4 -2,4 -26,-1 -55,8 -78,-7zm-39 -57l0 0c-6,-2 -10,-7 -14,-12 -1,2 -2,3 0,5 1,1 2,2 4,3 2,2 5,4 8,6 0,-1 1,-2 2,-2zm80 22l0 0c-5,-1 -13,2 -17,4 -5,2 -8,4 -11,9 1,0 1,0 1,0 3,2 6,3 9,5 4,-8 16,-7 23,-9 0,0 0,0 0,0 -7,3 -15,3 -21,9 4,2 8,4 11,5 0,0 0,0 1,0 3,-2 6,-2 9,-2 3,0 5,-1 8,-1 -5,-6 -9,-13 -13,-20zm-25 -9l0 0c-2,2 -5,5 -7,6 -2,0 -15,3 -15,1 0,1 0,1 0,1 5,4 11,9 17,12 0,0 0,0 0,0 4,-5 8,-8 14,-10 4,-1 11,-3 15,-2 -1,-1 -1,-2 -2,-3 -3,-3 -5,-6 -8,-8 -5,0 -10,1 -14,3zm-7 -12l0 0c-8,6 -19,4 -28,9 4,3 8,7 12,10 0,0 0,0 0,0 3,-1 5,-1 8,-1 5,-1 8,-4 12,-6 5,-3 9,-5 14,-5 -5,-4 -11,-6 -18,-7zm-44 1l0 0c6,2 11,4 15,8 3,-3 7,-4 10,-5 6,-1 11,-2 16,-5 -2,0 -3,0 -5,-1 -12,-1 -24,-2 -36,3zm17 32l0 0c-2,-8 -4,-15 -2,-23 -4,-4 -9,-7 -15,-9 4,12 9,23 17,32zm14 14l0 0c-2,-5 -4,-9 -4,-15 -1,-3 -2,-9 1,-12 -4,-4 -8,-7 -13,-10 0,9 2,17 5,26 0,0 0,0 0,0 3,4 7,8 11,11zm16 9l0 0c-4,-8 -10,-18 -9,-28 -3,-2 -7,-5 -10,-8 -2,4 0,12 1,16 1,4 3,8 4,13 4,2 8,4 12,6 0,0 1,1 2,1zm15 4l0 0c-2,-4 -4,-7 -6,-11 -1,-4 -3,-8 -5,-12 -1,-1 -3,-2 -5,-3 0,0 0,0 0,0 -2,-2 -5,-3 -7,-5 0,9 6,19 10,27 0,1 0,1 0,1 5,1 9,2 13,3zm15 0l0 0c-3,-2 -5,-4 -7,-7 -2,-3 -4,-7 -6,-10 -4,-1 -7,-3 -11,-5 2,4 4,8 6,11 2,4 4,7 6,11 4,0 8,0 12,0zm9 0l0 0c-1,-1 -2,-3 -3,-4 -1,-2 -2,-4 -4,-5 0,-1 0,-1 0,-1 -5,-2 -9,-4 -14,-6 2,2 3,4 5,6 3,4 5,7 9,10 2,0 5,0 7,0zm17 -1l0 0c-7,-3 -15,-5 -22,-8 1,1 2,2 3,3 1,2 3,4 4,6 5,-1 10,-1 15,-1zm3 -2l0 0c-5,-5 -11,-9 -16,-14 0,0 0,0 0,-1 -3,0 -5,1 -8,1 -3,0 -6,1 -9,2 11,5 22,8 33,12z"/>
   <path class="fil1" d="M268 256c6,9 8,20 9,31 1,10 4,25 -2,35 -7,11 -17,18 -26,27 -5,6 -10,12 -14,20 -3,4 -4,7 -7,11 -1,1 -3,1 -3,-1 -4,-26 -16,-51 -7,-78 7,-21 24,-38 43,-48 2,-6 4,-12 8,-17 3,-5 6,-3 10,-1 1,0 1,1 1,1 1,1 1,1 0,2 -2,3 -6,6 -8,9 -2,1 -3,3 -3,5 -1,1 -1,2 -1,4 0,0 0,0 0,0zm-31 23l0 0c8,-3 15,-6 23,-6 2,-5 4,-10 5,-16 -10,5 -20,13 -28,22zm-11 16l0 0c5,-2 9,-5 13,-7 4,-1 10,-2 13,-1 3,-4 6,-9 8,-14 -9,1 -17,5 -25,9 0,0 0,0 -1,0 -3,4 -6,8 -8,13zm27 -7l0 0c-1,0 -1,0 -1,1 0,-1 1,-1 1,-1 0,0 0,0 0,0zm-33 24l0 0c8,-5 16,-12 26,-13 2,-4 4,-8 6,-11 -5,-2 -14,2 -19,5 -3,1 -5,4 -8,5 -2,3 -3,6 -4,9 0,2 0,3 -1,5zm-1 16l0 0c3,-2 5,-5 8,-6 4,-3 9,-5 12,-8 1,-2 1,-4 2,-6 0,0 0,0 0,0 1,-3 3,-6 4,-8 -9,1 -18,10 -25,15 0,0 0,0 0,0 -1,4 -1,9 -1,13zm2 14l0 0c2,-2 4,-5 6,-7 3,-3 6,-5 8,-8 1,-4 2,-8 3,-11 -2,2 -5,4 -8,6 -4,3 -7,6 -10,9 0,4 1,8 1,11zm2 10l0 0c1,-2 2,-3 3,-4 2,-1 4,-3 5,-5 0,0 0,0 1,0 1,-5 2,-10 3,-15 -2,2 -3,4 -5,6 -3,3 -6,7 -8,10 0,3 1,5 1,8zm8 -6l0 0c-1,1 -2,2 -3,3 -2,2 -3,3 -4,5 1,4 2,9 3,14 1,-8 3,-15 4,-22zm10 6l0 0c-1,-2 -1,-5 -2,-7 -1,-3 -2,-6 -4,-8 -2,11 -4,23 -6,34 4,-6 7,-13 12,-18 0,-1 0,-1 0,-1zm10 -10l0 0c0,0 0,0 0,0 -4,-7 -5,-15 -12,-19 -1,4 -2,8 -3,11 0,1 0,1 0,1 2,2 4,5 4,9 1,2 1,5 2,7 3,-3 6,-6 9,-9zm8 -8l0 0c1,-4 -3,-10 -5,-13 -4,-5 -6,-9 -12,-11 0,0 0,0 0,0 0,0 0,1 0,1 -1,3 -2,6 -3,9 8,3 10,15 13,21 0,0 0,1 0,1 2,-3 5,-5 7,-8zm11 -12l0 0c-2,-9 -7,-13 -13,-19 -1,-1 -6,-12 -5,-14 -3,6 -7,12 -9,18 0,0 0,0 0,0 3,2 6,3 8,6 2,2 4,5 5,8 2,4 4,9 4,13 2,-2 3,-4 5,-5 2,-2 3,-5 5,-7zm5 -22l0 0c0,0 0,0 0,0 -8,-7 -8,-18 -15,-26 -2,5 -4,9 -7,14 0,0 0,0 0,0 3,3 2,7 4,10 2,4 6,6 8,10 3,3 5,7 6,11 3,-6 4,-12 4,-19zm-9 -43l0 0c-1,6 -3,11 -5,16 3,2 5,7 7,11 2,5 4,9 8,13 0,-14 -3,-30 -10,-40zm10 -20l0 0c-1,-1 -3,-1 -5,0 -1,2 -2,3 -2,5 -2,3 -3,6 -4,9 1,0 2,0 2,1 1,-6 5,-11 9,-15z"/>
   <path class="fil1" d="M0 502l0 -2c4,0 7,0 11,-1 -3,-2 -6,-4 -9,-5 -1,0 -1,0 -2,-1l0 -2c5,2 10,4 13,8 0,0 0,0 0,0 7,-1 13,-3 19,-6 -5,-1 -10,-3 -14,-6 -4,-4 -7,-8 -13,-8 -2,0 -3,0 -5,-1l0 -2c3,-3 7,-5 11,-7 0,-10 6,-19 11,-26 -3,0 -6,2 -9,3 -2,1 -4,2 -5,3 -2,4 -5,7 -6,11 -1,2 -1,4 -2,7l0 -5c1,-4 3,-8 5,-11 -2,1 -3,2 -5,3l0 -6c5,-3 9,-6 14,-8 24,-10 50,1 75,3 1,0 3,2 1,4 -4,4 -10,6 -14,9 -7,5 -13,11 -18,17 -8,9 -15,20 -26,26 -9,4 -22,4 -32,3zm53 -30l0 0c-7,-2 -18,-3 -22,-11 -3,1 -6,2 -10,4 2,3 3,5 6,7 2,1 4,3 6,4 3,1 9,5 14,4 2,-2 4,-5 6,-8zm9 -10l0 0c-2,0 -5,-1 -8,-1 -3,-1 -6,-2 -8,-4 -1,0 -1,0 -1,-1 -4,2 -8,3 -12,4 5,7 13,8 20,12 3,-4 6,-7 9,-10zm19 -14l0 0c-11,3 -23,5 -34,8 3,2 6,3 9,4 2,0 5,1 7,1 0,0 0,0 1,0 5,-5 12,-9 17,-13zm-17 -4l0 0c-2,1 -4,3 -5,4 -1,2 -2,3 -4,4 8,-2 15,-4 23,-6 -5,-1 -9,-2 -14,-2zm-10 -2l0 0c-3,3 -6,5 -10,9 -2,2 -4,4 -6,6 5,-1 10,-3 16,-4 -1,-1 -1,-1 0,-1 2,-2 3,-4 5,-6 0,-1 1,-2 3,-3 -3,0 -5,-1 -8,-1zm-13 -1l0 0c-3,4 -6,8 -9,12 -2,3 -4,5 -5,8 3,-1 7,-2 10,-3 3,-3 6,-7 8,-10 3,-2 5,-4 7,-6 -3,-1 -7,-1 -11,-1zm-30 27l0 0c4,-2 9,-5 14,-6 2,-4 4,-9 7,-13 2,-3 4,-6 6,-8 -4,0 -9,0 -13,1 0,0 0,0 0,0 -5,8 -13,17 -14,26zm-11 9l0 0c0,0 0,0 0,0 0,0 0,0 0,0 0,0 0,0 0,0zm35 15l0 0c2,-2 4,-4 6,-6 2,-1 3,-3 5,-5 -5,1 -11,-2 -14,-3 -7,-3 -10,-6 -13,-12 0,0 0,0 0,0 -1,0 -1,0 -1,0 -6,3 -12,7 -17,10 3,0 13,4 14,4 3,2 5,6 8,8 4,2 8,3 12,4z"/>
   <path class="fil1" d="M230 2c0,-1 0,-1 1,-2l-5 0c0,1 0,2 -1,2 -2,6 -3,14 0,19 1,2 3,6 6,6 4,1 5,-1 9,-1 3,-1 1,-7 -2,-6 -2,1 -5,3 -7,1 -4,-3 -3,-9 -3,-13 1,-2 1,-4 2,-6z"/>
   <path class="fil1" d="M254 2c0,0 0,-1 0,-2l-4 0c0,0 0,0 0,0 -2,8 -3,17 3,22 5,6 11,-4 12,-9 1,-3 3,-8 3,-13l-5 0c0,4 -1,8 -2,12 0,2 -1,3 -2,5 -2,5 -6,0 -7,-3 -1,-3 -1,-6 -1,-9 2,0 3,-1 3,-3z"/>
   <path class="fil1" d="M276 20c0,1 1,1 1,0 0,-6 -1,-12 -1,-18 2,0 4,-1 5,-2l-9 0c1,7 3,13 4,20z"/>
   <path class="fil1" d="M295 17c1,0 2,0 2,-1 -1,-5 -1,-11 -1,-16l-4 0c1,6 2,11 3,17z"/>
   <path class="fil1" d="M334 8c3,-1 2,-6 -1,-5 -3,1 -5,2 -8,2 -3,1 -4,-2 -4,-5l-4 0c0,1 1,3 1,4 2,9 10,5 16,4z"/>
   <path class="fil1" d="M323 316c-5,-3 -11,0 -15,3 -5,4 -11,11 -11,18 0,2 0,5 1,7 3,4 5,3 9,4 3,1 5,-5 1,-5 -2,-1 -5,0 -6,-4 -2,-4 1,-9 4,-12 2,-2 4,-4 7,-6 1,-1 3,-2 4,-3 4,-1 8,3 6,7 -1,1 1,2 2,1 2,-3 2,-8 -2,-10z"/>
   <path class="fil1" d="M346 325c5,9 -4,19 -10,24 -3,3 -7,6 -11,6 -4,0 -6,-4 -6,-6 1,-7 4,-13 9,-18 2,-3 5,-6 8,-8 4,-1 9,-1 10,2zm-7 3l0 0c-1,0 -3,1 -4,2 -1,2 -2,3 -4,5 -1,2 -2,2 -3,1 -1,1 -2,3 -3,4 -1,2 -2,6 -2,9 1,6 8,-1 9,-2 4,-3 8,-8 10,-13 0,-1 3,-8 -3,-6z"/>
   <path class="fil1" d="M367 337c2,1 4,-3 1,-4 -6,-1 -13,-2 -16,3 -6,8 -8,17 -11,26 0,1 1,1 1,0 3,-5 5,-11 8,-16 2,0 5,1 7,1 1,-1 1,-3 0,-4 -1,0 -3,0 -4,0 0,0 -1,0 -1,0 1,-2 2,-3 3,-5 2,-3 9,-1 12,-1z"/>
   <path class="fil1" d="M388 337c-6,0 -14,-3 -18,4 -2,4 -4,8 -5,13 -2,4 -5,9 -5,14 -1,1 1,2 1,1 3,-7 6,-13 9,-19 2,1 4,1 5,2 2,1 4,-3 1,-4 -1,0 -3,0 -5,0 1,-3 3,-7 5,-7 3,-2 9,1 12,1 3,0 3,-4 0,-5z"/>
   <path class="fil1" d="M399 347c2,1 4,3 6,3 2,0 2,-3 1,-3 -2,-1 -4,-1 -5,-2 -2,-1 -3,-1 -4,-2 -1,0 -1,0 -1,1 -3,3 -4,6 -5,9 -2,5 -4,11 -6,16 -3,9 6,9 12,11 3,1 5,-4 2,-4 -3,-1 -6,-2 -8,-2 -4,-1 0,-9 0,-11 0,-1 1,-1 1,-2 1,0 3,0 4,1 2,0 3,-3 0,-3 -1,-1 -2,0 -4,-1 1,-4 2,-9 4,-12 1,0 2,1 3,1z"/>
   <path class="fil2" d="M347 210c0,0 0,0 0,0 0,0 0,0 0,0 0,0 0,0 0,0z"/>
   <path class="fil3" d="M420 332c-13,0 -24,-4 -35,-9 -15,-7 -30,-14 -44,-23 -1,0 -1,0 -1,-1 -7,-4 -15,-9 -22,-14 -9,-6 -15,-17 -20,-26 -8,-15 23,-13 30,-9 0,-14 12,-27 19,-40 -2,7 -7,14 -11,21 0,-1 1,-2 1,-3 1,-1 2,-3 3,-4 2,-3 3,-5 4,-8 0,0 1,0 1,0 1,-2 1,-4 2,-6 0,0 0,0 0,0 0,0 0,0 0,0 0,0 0,0 0,-1 0,0 0,0 0,0 0,6 -1,11 -4,16 -4,7 -8,14 -10,22 -1,1 -1,2 -2,2 0,3 1,5 1,8 0,0 1,0 1,0 2,5 4,10 8,14 -1,-2 -2,-4 -3,-7 -1,0 0,-1 0,0 2,3 4,7 7,9 0,-1 1,-1 2,-1 2,3 4,6 7,8 3,2 6,3 9,4 1,1 0,3 -2,3 6,2 11,2 16,5 1,0 1,1 1,1 3,1 6,2 9,3 1,0 1,1 1,2 2,0 4,0 5,0 4,0 7,0 10,0 0,0 1,0 1,1 3,-1 6,-2 9,-3 0,0 0,1 0,1 -3,1 -6,1 -9,2 0,0 0,1 0,1 3,0 5,-1 8,-2 4,-1 7,-3 10,-6 0,0 0,0 0,0 -2,1 -4,3 -6,4 0,0 0,0 0,0 2,-2 4,-3 6,-4 0,-1 0,-1 0,-1 3,-3 5,-7 7,-10 0,-1 1,-1 1,0 3,-6 5,-12 8,-19 -1,0 -1,0 -1,0 -8,2 -27,-9 -33,-12 -13,-6 -25,-15 -37,-23 -5,-3 -9,-5 -12,-9 0,0 -1,0 -1,0 0,-1 -1,-2 -2,-2 0,0 0,-1 0,-1 -2,-2 -3,-3 -4,-5 0,0 0,-1 0,-1 2,2 3,4 4,5 1,-1 2,-2 3,-2 1,-1 2,-1 2,-1 -3,-1 -7,0 -10,-2 0,0 0,-1 1,-1 2,2 10,0 12,0 4,1 8,2 12,4 10,3 19,8 28,14 16,9 34,16 41,33 1,1 1,1 1,2 -1,3 -2,6 -3,8 6,-4 16,-7 22,-3 7,4 10,12 7,20 -4,8 -11,19 -21,18 -8,0 -15,-5 -19,-12 -3,4 -7,7 -12,9 -1,0 -2,0 -3,0 7,5 23,31 7,31zm-65 -115l0 0c3,-2 6,-4 9,-5 -1,0 -2,0 -3,-1 0,1 0,1 0,1 -2,0 -3,1 -5,1 -1,1 -2,1 -3,2 1,1 2,1 2,2zm5 3l0 0c4,-2 7,-4 11,-6 -1,0 -2,0 -3,-1 0,0 0,1 0,1 -4,1 -8,2 -12,4 2,0 3,1 4,2zm18 -2l0 0c-1,-1 -3,-2 -4,-2 0,0 0,0 -1,0 -4,1 -8,3 -12,5 2,1 3,2 4,3 0,-1 0,-1 1,-1 4,0 8,-4 12,-5zm-7 8l0 0c4,-2 8,-4 13,-6 -1,0 -2,-1 -4,-1 0,0 0,0 0,0 -4,2 -8,5 -13,6 1,0 2,1 3,2 0,-1 1,-1 1,-1zm5 4l0 0c3,-2 6,-4 10,-5 1,-1 2,-1 3,-2 -1,0 -2,-1 -3,-1 0,0 0,0 0,0 -5,2 -9,3 -14,5 0,0 0,1 0,1 1,0 3,1 4,2zm6 3l0 0c4,-3 10,-3 14,-6 -2,-1 -3,-1 -4,-2 -3,0 -6,2 -8,3 -2,1 -5,2 -7,3 2,1 3,2 5,3 0,-1 0,-1 0,-1zm4 3l0 0c3,-1 6,-2 8,-3 2,-1 5,-2 7,-3 -1,0 -2,-1 -3,-1 0,0 0,0 0,0 -4,3 -10,3 -15,5 1,1 2,2 3,2zm6 4l0 0c2,-2 5,-3 7,-4 3,-1 6,-1 9,-2 -1,-1 -2,-1 -3,-2 -1,0 -1,0 -1,0 -3,0 -6,3 -9,3 -2,1 -5,2 -7,2 1,1 3,2 4,3zm7 3l0 0c2,0 5,-1 7,-2 3,-1 5,-2 8,-3 -1,-1 -2,-1 -2,-2 -4,1 -7,1 -10,2 -3,1 -6,1 -8,3 1,0 2,1 4,2 0,0 0,0 1,0zm6 4l0 0c2,-1 3,-2 4,-3 2,0 3,-1 4,-2 2,0 3,-1 5,-2 0,0 -1,0 -1,0 0,0 0,0 -1,0 -3,0 -6,3 -9,4 -2,0 -3,0 -5,1 1,0 2,1 3,2zm6 2l0 0c4,-2 8,-4 12,-5 -1,-1 -2,-1 -2,-2 0,0 -1,0 -1,0 -3,1 -6,3 -9,4 -1,0 -2,1 -3,2 1,0 2,0 3,1zm6 2l0 0c2,0 4,-1 7,-2 1,0 2,-1 3,-1 0,-1 -1,-1 -2,-2 -4,0 -8,2 -12,4 1,0 3,1 4,1zm6 2l0 0c2,0 5,-1 7,-2 0,-1 -1,-1 -1,-2 -1,1 -3,1 -4,1 -2,1 -4,2 -6,2 1,1 3,1 4,1zm7 2l0 0c1,-1 2,-1 3,-1 -1,-1 -1,-1 -1,-1 -2,0 -4,1 -7,1 1,1 2,1 3,1 0,0 1,0 2,0zm5 3l0 0c0,-1 0,-1 -1,-2 -1,0 -2,1 -3,1 2,0 3,1 4,1zm21 37l0 0c-1,1 -2,1 -3,2 -2,1 -5,2 -9,2 0,0 -1,0 -2,0 2,0 3,0 5,0 3,0 6,-2 9,-4zm-20 -17l0 0c0,0 0,0 0,1 1,1 2,5 4,6 2,1 6,2 8,-1 1,-3 0,-7 -3,-9 -3,-1 -5,0 -8,1 0,0 -1,1 -1,2zm-5 9l0 0c2,3 4,6 6,8 1,0 1,0 2,0 0,1 2,1 3,1 0,0 1,0 1,0 1,0 2,0 3,0 2,-1 4,-1 5,-2 4,-2 6,-5 7,-9 1,-1 3,-1 3,-1 2,-6 2,-13 -4,-17 0,0 0,0 -1,0 -6,-1 -12,2 -17,4 -1,1 -1,2 -1,2 3,-1 7,-1 10,1 3,3 5,8 3,12 -2,4 -7,6 -12,4 -3,-1 -5,-3 -6,-6 0,1 -1,2 -2,3zm-38 12l0 0c0,0 0,0 0,0 2,1 5,1 7,1 -2,-1 -5,-1 -7,-1zm-40 -17l0 0c2,1 3,2 4,3 0,0 0,0 0,0 -1,-1 -2,-2 -4,-3 0,0 0,0 0,0zm-10 -8l0 0c1,1 1,1 2,2 -1,-1 -1,-2 -2,-2 0,0 0,0 0,0zm-10 -13l0 0c1,0 1,1 1,1 0,0 0,1 0,1 0,0 0,-1 -1,-2zm-3 -13l0 0c0,1 0,2 0,2 0,0 0,-1 0,-2 0,0 0,0 0,0zm94 71l0 0c-2,-7 -6,-13 -12,-18 -4,2 -9,2 -14,2 0,0 0,1 0,1 0,1 0,2 -1,2 -7,3 -16,-2 -22,-4 -3,-1 -7,-4 -11,-6 -2,-1 -5,-3 -7,-4 0,0 0,-1 0,-1 -9,-4 -17,-10 -25,-17 -3,-3 -2,-7 1,-6 -1,-3 -3,-6 -4,-10 -1,-2 -1,-5 -1,-7 -5,-2 -9,-3 -15,-3 -4,0 -20,2 -12,13 6,8 10,17 18,22 16,11 32,19 48,28 1,0 1,1 1,1 7,4 15,7 22,11 5,2 9,4 15,5 4,1 24,6 19,-9z"/>
   <path class="fil1" d="M415 196c-7,1 -10,4 -10,12 0,1 2,1 2,0 0,-11 8,-9 14,-11 3,-1 5,-3 6,-5 4,-5 2,-14 1,-20 0,-2 -3,-2 -3,0 2,10 4,22 -10,24z"/>
   <path class="fil1" d="M427 213c-4,0 -8,5 -6,9 1,1 2,1 2,0 -2,-7 6,-7 10,-7 2,0 4,-2 6,-3 4,-3 5,-9 4,-14 0,-2 -3,-1 -2,0 0,4 -1,8 -3,11 -3,3 -7,3 -11,4z"/>
   <path class="fil1" d="M389 190c-4,0 -8,5 -6,9 0,1 2,1 2,0 -2,-7 6,-7 9,-7 3,0 5,-2 6,-3 5,-3 6,-9 5,-15 0,-1 -3,-1 -3,1 1,4 0,8 -3,11 -2,3 -6,3 -10,4z"/>
   <path class="fil1" d="M0 70c6,1 12,3 18,7 1,0 1,1 2,2 0,2 1,5 1,8 4,-7 10,-15 18,-15 9,1 15,8 16,17 0,8 -1,18 -8,23 -7,5 -16,4 -24,0 -1,6 -3,11 -7,16 10,0 34,13 20,24 -8,6 -20,7 -29,8 -3,1 -5,1 -7,1l0 -2c2,-1 4,-1 7,-1 8,-1 15,-3 23,-6 16,-6 2,-17 -3,-20 -3,-2 -7,-3 -12,-4 0,1 0,1 -1,1 -3,3 -7,5 -10,7 0,1 0,1 0,2 1,1 1,2 0,3 -1,1 -2,2 -4,3l0 -11c2,-1 4,-2 5,-3 1,0 1,0 1,0 2,-2 4,-4 6,-7 1,0 2,1 1,1 -2,2 -4,4 -6,6 0,1 0,1 0,1 0,0 0,0 0,0 6,-5 10,-10 11,-16 0,0 0,0 0,0 -1,2 -2,4 -3,7 0,0 0,0 0,0 1,-3 2,-5 3,-7 0,0 0,-1 0,-1 1,-4 1,-8 1,-12 0,-1 0,-1 1,-1 -1,-6 -2,-13 -4,-19 0,0 0,0 0,0 -3,2 -9,4 -16,5l0 -6c1,-2 3,-4 4,-5 0,0 -1,-1 -2,-1 0,1 -1,2 -2,3l0 -3c0,0 0,0 0,0 0,0 0,0 0,0l0 -5zm24 26l0 0c2,2 4,5 7,4 3,-1 7,-4 5,-8 -2,-2 -6,-4 -9,-2 -2,1 -3,2 -4,4 0,0 0,1 0,2 0,0 1,0 1,0zm25 5l0 0c-1,1 -1,2 -2,3 -2,2 -4,5 -7,6 0,0 0,0 0,0 0,0 -1,0 -1,0 2,0 4,-1 6,-3 2,-2 3,-4 4,-6zm-27 -12l0 0c0,1 0,1 0,2 2,-2 4,-4 7,-5 5,0 9,2 11,7 1,5 -2,9 -6,11 -4,2 -7,1 -10,-2 0,2 0,3 0,4 2,2 6,3 9,4 1,0 1,-1 1,-1 1,1 3,0 4,-1 0,0 0,0 1,-1 0,0 1,0 1,0 2,-2 3,-3 4,-5 3,-4 3,-7 2,-12 0,-1 1,-2 2,-2 -2,-6 -6,-12 -13,-12 0,0 0,0 0,0 -6,3 -10,8 -13,13zm-14 -9l0 0c1,0 3,0 4,-1 0,0 -1,0 -2,-1 0,1 -1,2 -2,2 0,0 0,0 0,0zm-2 -4l0 0c-1,2 -3,4 -4,5 1,0 1,0 2,0 1,-1 2,-2 2,-2 1,-1 1,-1 2,-2 -1,0 -1,0 -2,-1z"/>
   <path class="fil1" d="M140 4c8,15 24,32 42,25 11,-5 12,-18 10,-29l-19 0c1,3 2,6 2,9 0,0 0,1 1,1 0,3 1,5 3,8 0,0 0,0 0,1 1,1 2,2 3,2 0,0 0,0 0,0 0,1 0,1 0,1 -4,-2 -6,-5 -8,-8 0,0 0,0 0,0 -2,-3 -3,-6 -4,-9 0,0 1,0 0,-1 0,-1 -1,-3 -1,-4l-31 0c1,1 1,3 2,4z"/>
   <path class="fil1" d="M423 525c0,-2 0,-4 0,-6 0,-1 0,-1 0,-1 0,0 0,-1 0,-1 0,0 0,0 0,0 0,-1 1,-1 1,-1 1,-6 2,-12 1,-18 0,0 0,0 0,0 -1,-2 -1,-4 -2,-6 0,0 0,0 0,0 0,0 0,0 0,0 0,-1 0,-1 0,-1 -1,0 -1,-1 -1,-2 -1,0 -1,0 -1,0 -3,-2 -5,-4 -7,-5 0,12 -4,19 -11,28 0,1 0,1 0,1 -2,2 -3,4 -5,6 1,0 2,1 1,2 -1,1 -2,2 -3,4l-6 0c3,-5 6,-10 9,-15 2,-2 4,-5 5,-7 0,0 -1,0 -1,-1 0,0 0,0 0,0 0,0 0,0 0,0 0,1 -1,1 -1,2 0,0 0,0 0,1 0,0 -1,1 -1,1 -1,0 -1,0 -1,0 -3,3 -6,6 -8,9 -2,3 -4,6 -6,10l-5 0c1,-2 1,-4 2,-6 1,-1 1,-1 2,-1 0,0 0,0 0,-1 2,-5 4,-9 8,-14 0,0 0,0 0,0 1,-1 2,-3 4,-4 1,0 1,0 2,0 0,0 0,0 0,0 0,0 0,0 1,-1 0,0 0,0 1,-1 0,0 0,0 1,1 0,0 0,0 0,0 4,-4 7,-9 7,-15 -4,0 -8,0 -11,2 -1,0 -1,0 -2,0 0,1 0,1 0,1 -5,4 -10,8 -14,12 0,1 0,1 0,1 -2,2 -3,4 -4,6 0,1 0,1 -1,2 0,0 0,0 0,0 0,1 -1,3 -2,5 -2,3 -5,6 -5,11 0,0 -1,0 -1,0 0,1 0,1 0,2l-7 0c6,-29 33,-59 60,-43 13,8 14,27 10,43l-9 0zm2 -9l0 0c0,0 1,0 1,0 0,0 0,0 0,-1 0,1 0,1 -1,1z"/>
   <path class="fil1" d="M412 518c0,2 -1,5 -2,7l2 0c0,-2 1,-4 1,-6 0,-1 -1,-1 -1,-1z"/>
   <path class="fil1" d="M417 509c1,0 1,-1 1,-2 0,-2 0,-4 0,-5 1,-2 -1,-2 -1,0 0,1 0,2 0,3 0,2 0,3 -1,4 0,0 1,1 1,0z"/>
   <path class="fil1" d="M242 89c-7,10 -18,14 -28,9 -1,1 -1,1 -2,1 -12,-9 -8,-26 -1,-37 6,-8 21,-20 31,-11 12,9 7,27 0,38zm-27 -9l0 0c0,-1 0,-2 1,-3 0,0 0,0 0,-1 1,-1 2,-3 3,-4 0,-1 0,-1 0,-1 1,0 1,0 1,0 1,-3 3,-6 5,-8 0,0 0,0 0,-1 1,0 2,-1 3,-1 0,-1 1,-1 1,0 0,-1 0,-1 0,-1 1,0 1,0 1,0 0,0 0,0 0,0 3,-2 5,-4 5,-8 -2,0 -5,0 -7,1 0,0 0,0 0,0 -3,2 -6,4 -9,7 0,0 0,0 0,0 -2,2 -3,5 -5,7 -1,2 -2,4 -3,6 0,0 0,0 -1,1 -1,3 -1,6 -1,9 0,0 0,0 -1,1 0,0 0,0 0,1 0,1 0,2 0,3 1,2 2,4 3,5 0,-2 0,-3 1,-5 0,0 0,0 0,-1 0,-1 1,-2 1,-3 0,0 0,0 0,0 0,0 0,-1 0,-1 0,-1 1,-1 1,-1 0,0 0,-1 1,-2 0,0 0,0 0,0zm4 -2l0 0c0,0 0,0 0,0 0,0 0,0 0,0 0,0 0,0 0,0zm-3 12l0 0c1,-10 10,-18 16,-27 0,0 0,0 -1,0 0,0 0,1 0,1 0,0 0,0 0,0 0,1 -1,1 -1,1 0,0 0,0 -1,0 -3,3 -6,5 -8,8 0,1 -1,2 -2,3 1,0 1,0 1,0 0,1 0,2 0,3 0,0 -1,0 -1,0 0,0 0,0 0,0 0,1 -1,1 -1,1 0,0 0,0 0,0 0,0 0,1 0,0 0,0 0,0 0,0 -2,4 -3,7 -3,11 0,0 0,0 0,0 0,0 0,0 0,0 0,0 0,-1 1,-1zm28 -29l0 0c0,0 0,0 0,0 0,-1 0,-2 0,-4 0,0 0,0 0,0 0,0 -1,0 -1,0 0,-1 -1,-1 -2,-2 0,0 -1,-1 -2,-1 -1,5 -2,9 -7,14 0,0 -1,1 -1,1 0,0 0,0 0,0 -1,1 -1,1 -1,1 -1,1 -1,2 -2,2 0,1 0,1 0,2 -1,1 -3,2 -4,3 1,0 1,1 0,1 0,1 -1,2 -2,3 1,1 1,1 0,2 -1,1 -3,3 -4,5 1,0 1,1 1,1 -1,3 -1,5 -2,7 0,0 0,0 0,1 2,0 4,0 6,0 1,-1 2,-1 4,-2 0,0 0,0 0,-1 1,-1 3,-2 4,-2 0,-1 0,-1 0,-1 4,-4 8,-8 10,-13 0,0 0,0 0,0 1,-2 1,-3 1,-5 0,0 0,0 0,0 0,0 0,0 0,0 0,0 0,0 0,-1 0,0 0,0 1,0 1,-4 2,-7 1,-11z"/>
   <path class="fil1" d="M236 73c-2,4 -4,8 -8,12 -2,2 -5,5 -7,8 -1,0 1,1 1,1 3,-4 6,-7 9,-10 3,-4 4,-7 5,-11 1,-1 0,-1 0,0z"/>
   <path class="fil1" d="M239 63c0,1 0,3 -1,4 0,1 1,1 1,1 1,-1 1,-3 1,-5 1,-1 -1,-1 -1,0z"/>
   <path class="fil1" d="M422 426c-2,-16 3,-29 17,-34 0,-1 0,-2 2,-2 18,-2 27,17 30,32 3,13 -2,36 -18,37 -18,1 -29,-17 -31,-33zm24 -31l0 0c0,0 0,0 0,1 1,1 3,2 3,4 1,0 1,0 1,1 0,1 1,2 2,3 0,0 0,0 0,0 0,1 0,1 1,2 0,0 0,1 -1,1 1,1 1,1 1,2 1,0 1,1 0,1 1,1 2,2 2,3 0,0 0,1 0,1 1,2 2,4 2,6 0,1 0,1 0,1 0,1 0,1 0,1 1,4 2,7 2,11 0,1 0,1 0,1 0,1 0,2 -1,4 0,0 0,1 -1,1 0,0 0,0 0,1 0,0 0,0 0,0 0,0 0,1 -1,1 0,0 0,0 0,0 0,2 0,3 0,4 0,2 1,4 2,6 3,-2 5,-5 7,-9 1,-3 1,-7 2,-11 -1,0 -1,0 -1,0 0,-4 -1,-7 -1,-10 -1,-3 -1,-6 -2,-8 -1,-1 -1,-1 0,-1 -1,-2 -2,-3 -3,-4 0,-1 0,-1 0,-1 -1,-2 -2,-3 -4,-5 0,0 0,-1 0,-1 0,0 0,0 0,-1 -2,-1 -3,-2 -4,-3 -2,-1 -4,-2 -6,-2zm6 20l0 0c0,0 0,0 0,0 0,0 0,0 0,0 0,0 0,0 0,0zm-8 -15l0 0c0,0 0,0 0,0 0,1 0,1 0,1 7,10 6,25 8,37 1,0 1,0 1,0 0,0 0,0 0,-1 0,0 0,0 0,0 -1,-1 -1,-1 -1,-1 1,-1 1,-1 1,-1 1,-3 1,-6 1,-9 -1,-3 -1,-6 -2,-9 0,0 0,0 0,0 -1,-1 -1,-1 -2,-2 0,-1 0,-1 0,-2 0,0 0,0 0,0 0,0 0,0 0,0 0,-1 0,-1 0,-1 1,0 1,0 1,0 -2,-5 -4,-8 -7,-12 0,0 0,0 0,0zm-14 13l0 0c-1,5 -1,9 0,14 0,0 0,0 0,0 0,0 0,0 0,0 0,2 1,4 2,6 0,0 0,1 0,1 0,1 1,3 3,4 0,0 0,1 0,1 0,0 0,0 0,0 0,0 0,0 0,0 1,0 1,1 1,1 1,4 3,8 7,11 0,0 0,0 0,0 1,1 2,1 3,2 0,0 1,0 1,0 2,0 5,0 7,0 -4,-5 -6,-10 -6,-18 0,-2 0,-5 0,-8 -1,0 -1,0 -1,-1 0,-2 0,-3 0,-5 0,0 0,-1 0,-1 0,0 -1,0 -1,-1 0,-1 0,-3 0,-4 -1,0 -2,-1 -2,-1 0,-3 0,-6 -1,-9 0,1 -1,1 -1,0 -1,-2 -2,-3 -2,-5 -1,-1 -1,-1 -2,-2 0,0 0,-1 -1,-1 -2,1 -3,3 -5,5 0,1 -1,3 -2,4 0,1 1,1 1,1 -1,2 -1,4 -1,6 0,0 0,0 0,0z"/>
   <path class="fil1" d="M440 434c0,1 1,0 1,0 -2,-5 -3,-9 -3,-14 -1,-5 0,-11 0,-16 -1,-2 -3,-2 -3,0 1,6 0,12 1,18 0,4 2,8 4,12z"/>
   <path class="fil1" d="M446 445c-1,-1 -1,-2 -2,-2 0,-1 -1,-2 -1,-2 0,-1 -1,-1 -1,0 0,1 2,3 2,5 1,1 3,0 2,-1z"/>
   <path class="fil1" d="M233 521c2,-5 5,-4 9,2 0,1 2,1 2,0 0,-5 -3,-9 -8,-9 -5,0 -8,6 -10,11l5 0c0,-1 0,-2 1,-3 0,0 0,-1 1,-1z"/>
   <path class="fil1" d="M268 525c0,-6 -1,-11 -5,-14 -9,-5 -13,7 -13,14l4 0c1,-1 1,-3 1,-4 1,-5 6,-7 8,-1 0,1 0,3 0,5l5 0z"/>
   <path class="fil1" d="M280 521c-1,1 -2,1 -3,2 0,0 -1,0 -1,1 0,-3 0,-5 0,-7 0,-3 8,-5 10,-6 3,-1 1,-5 -1,-4 -4,1 -13,4 -13,9 0,3 0,6 0,9l9 0c1,-1 1,-1 1,-1 1,-1 0,-3 -2,-3z"/>
   <path class="fil1" d="M295 520c2,0 4,-1 5,-1 3,0 2,-4 0,-3 -2,0 -3,1 -5,1 0,-3 -1,-7 3,-9 2,-2 6,-3 9,-4 2,-2 0,-5 -2,-4 -5,2 -15,4 -14,10 0,5 0,10 1,15l4 0c0,-2 0,-3 -1,-5z"/>
   <path class="fil1" d="M320 522c0,-1 0,-2 -1,-4 2,0 3,-1 4,-1 2,0 1,-4 -1,-3 -1,1 -2,2 -3,2 -2,-4 -3,-9 -3,-13 1,0 2,0 3,0 2,0 5,0 6,-1 2,-1 1,-3 -1,-3 -2,1 -3,1 -5,1 -1,0 -3,1 -4,1 -1,0 -1,0 -1,1 0,3 1,7 1,10 1,4 1,8 2,13l4 0c-1,-2 -1,-3 -1,-3z"/>
   <path class="fil1" d="M192 525l-19 0c0,-1 0,-1 0,-2 -4,-9 -11,-19 -21,-24 -1,-1 -3,-1 -4,-2 -1,0 -1,1 -1,1 0,0 1,0 1,0 1,1 2,1 3,2 0,0 1,0 0,1 1,0 1,0 2,1 0,0 0,0 0,0 2,1 3,3 5,5 0,0 0,0 0,0 0,0 1,1 1,1 0,0 1,0 1,0 0,1 0,1 0,1 0,0 0,0 0,0 0,0 0,0 0,1 0,0 0,0 1,0 0,0 0,0 0,1 0,1 1,1 2,2 0,0 0,1 0,1 1,1 2,2 2,3 1,0 1,1 1,1 0,1 1,2 1,3 0,0 1,1 1,1 0,1 0,1 0,1 0,1 0,1 1,2l-31 0c-4,-12 -1,-23 8,-30 -1,-1 0,-3 1,-3 16,-8 32,5 40,19 2,3 4,8 5,14zm-45 -25l0 0c0,-1 -1,-1 -1,-1 0,0 0,0 1,1 0,0 0,0 0,0 0,0 0,0 0,0 0,0 0,0 0,0z"/>
   <path class="fil1" d="M0 414l0 -21c7,-4 15,-10 19,-18 0,-1 2,-7 3,-10 0,0 0,0 -1,0 0,0 0,0 0,1 0,1 0,2 -1,3 0,0 0,0 -1,0 0,1 0,1 -1,2 0,0 0,0 0,0 -1,2 -2,4 -4,5 0,1 0,1 0,1 0,0 -1,0 -1,1 0,0 0,0 0,1 0,0 -1,0 -1,0 0,0 0,0 0,0 0,0 0,0 0,0 -1,0 -1,1 -1,1 0,0 0,0 0,0 -1,1 -2,1 -3,2 0,0 0,0 0,1 -1,1 -2,1 -3,2 0,1 0,1 -1,1 -1,1 -1,1 -2,2 -1,0 -1,0 -2,1 0,0 0,0 0,0l0 -31c9,-3 17,-2 24,5 1,-1 3,-1 4,1 12,18 -7,43 -28,50zm20 -50l0 0c0,0 0,0 0,0 0,0 0,1 0,1 0,0 0,0 0,0 0,0 0,0 0,0 0,-1 0,-1 0,-1z"/>
   <path class="fil1" d="M480 259c-2,-14 -3,-31 4,-43 5,-10 13,-15 22,-19 0,-1 1,-2 2,-2 6,-2 11,-2 17,-1l0 6c-4,-1 -7,-2 -11,-1 1,1 3,2 4,4 2,2 4,4 6,7 1,0 1,1 0,1 1,0 1,0 1,0l0 9c-3,-4 -5,-8 -9,-11 0,1 -1,1 -1,0 -1,0 -2,-1 -3,-2 0,0 0,0 0,1 1,0 1,0 1,0 0,0 0,0 0,0 0,1 1,2 2,3 0,1 0,1 0,1 4,6 7,13 10,19l0 18c-1,-1 -1,-2 -1,-3 0,1 -1,0 -1,0 -1,-4 -2,-7 -3,-10 0,1 -1,1 -2,0 0,-6 -1,-12 -3,-17 -1,0 -1,0 -1,0 0,1 -1,1 -2,0 -2,-5 -5,-9 -8,-13 -1,-1 -2,-1 -3,-2 0,0 0,0 0,0 -3,1 -5,3 -7,5 0,0 1,1 0,1 -2,5 -3,9 -4,14 0,0 0,0 0,1 0,4 0,7 -1,11 1,0 1,0 1,1 -1,13 1,25 6,37 0,0 0,1 0,0 -2,-3 -3,-5 -4,-8 1,2 2,4 2,6 2,4 5,7 8,11 0,0 1,0 1,0 0,1 0,1 1,2 0,0 0,0 0,0 0,0 0,0 0,0 3,7 7,13 13,18 2,2 5,3 8,5l0 8c-24,-5 -41,-37 -45,-57zm31 44l0 0c1,0 1,1 1,1 0,0 0,-1 -1,-1 0,0 0,0 0,0zm-11 -19l0 0c2,2 3,5 5,8 0,-2 -1,-4 -2,-6 0,0 -1,0 -1,0 -1,-1 -1,-2 -2,-2zm16 -80l0 0c1,1 2,2 2,3 0,-1 -1,-1 -2,-2 0,0 0,-1 0,-1zm-10 0l0 0c1,1 2,1 3,2 -1,0 -1,0 -1,-1 0,0 -1,-1 -1,-1 0,0 -1,0 -1,0zm-3 -2l0 0c0,0 0,0 1,0 0,0 0,0 0,0 0,0 0,0 0,0 0,0 0,0 0,-1 0,1 -1,1 -1,1zm-12 67l0 0c0,-1 -1,-2 -1,-4 0,3 1,6 2,9 0,0 1,0 1,0 0,0 0,0 0,0 0,0 0,0 0,-1 -1,-1 -1,-3 -2,-4zm-4 -16l0 0c1,3 2,7 4,11 0,0 0,0 1,0 0,0 0,0 0,0 -1,0 -1,-1 -1,-1 -1,-4 -2,-7 -3,-11 0,0 0,1 -1,1z"/>
   <path class="fil1" d="M503 218c-1,-2 -3,-1 -2,0 1,10 1,21 3,31 1,9 4,16 9,24 0,1 1,1 0,0 -4,-10 -7,-18 -8,-28 -1,-9 -1,-18 -2,-27z"/>
   <path class="fil1" d="M521 289c-1,-1 -3,-2 -3,-3 0,-1 -1,-1 -1,0 0,1 1,2 2,3 1,2 2,4 4,5 0,1 2,0 1,-1 -1,-1 -2,-2 -3,-4z"/>
   <path class="fil1" d="M511 486c4,2 9,4 14,5l0 2c-2,0 -4,-1 -6,-1 -3,-2 -7,-3 -9,-6 -5,3 -10,5 -16,6 8,5 19,7 31,8l0 2c-2,-1 -4,-1 -5,-1 -9,-1 -18,-2 -26,-7 0,0 0,0 -1,0 -1,1 -3,1 -4,2 -2,0 -3,1 -4,3 -3,3 -6,6 -9,9 0,0 -1,0 -1,0 -1,0 -2,0 -2,-1 -2,-5 -4,-7 1,-11 5,-4 10,-7 16,-8 8,-17 19,-31 35,-40l0 6c-3,2 -6,4 -8,6 -3,8 -6,16 -7,25 5,-3 9,-6 13,-9 -1,-3 0,-9 1,-12 0,-1 0,-2 1,-2l0 5c-1,3 -2,6 -1,9 0,0 0,0 1,0l0 2c-1,0 -1,0 -1,0 0,0 0,-1 0,-1 -4,3 -9,6 -13,9zm-21 8l0 0c-1,-1 -1,-2 -2,-2 -3,1 -7,2 -10,5 -1,1 -5,3 -4,5 0,1 1,1 1,2 4,-5 8,-9 15,-10zm24 -31l0 0c-8,8 -15,18 -20,29 6,-2 11,-4 16,-7 -1,-8 1,-15 4,-22z"/>
   <path class="fil1" d="M477 163c-9,1 -18,1 -27,0 -10,0 -20,-6 -29,-11 -17,-9 10,-23 20,-24 -7,-13 -3,-31 -5,-44 0,0 0,0 0,0 0,0 0,-1 0,-1 0,0 0,0 0,0 3,5 4,10 5,16 0,8 0,16 2,24 1,1 0,2 0,2 1,2 3,5 5,7 0,0 1,-1 1,0 4,3 9,6 14,7 -2,-1 -4,-2 -7,-4 0,0 0,-1 1,-1 3,2 7,4 10,4 0,0 1,-1 1,-1 7,3 13,3 20,2 1,0 2,2 1,3 5,-1 10,-3 15,-4 1,0 2,0 2,1 3,-1 6,-2 9,-2 1,-1 2,0 2,1 1,-1 3,-2 4,-3 1,-1 2,-1 4,-2l0 11c-5,2 -12,3 -16,4 -4,0 -9,1 -14,0 -2,0 -5,1 -7,0 -1,0 -1,0 -1,0 -5,1 -10,1 -15,1 -5,-1 -12,-1 -17,-3 -4,-2 -3,-5 0,-6 -3,-1 -6,-3 -9,-6 -2,-2 -3,-4 -5,-6 -5,1 -10,3 -14,6 -8,5 -6,16 3,19 9,4 15,8 25,8 17,0 34,0 51,-1 1,0 1,0 1,0 6,0 12,-1 18,-1l0 2c-16,2 -31,4 -47,3 -1,0 -1,0 -1,-1zm2 -21l0 0c2,0 3,0 5,0 0,0 0,0 0,0 0,0 1,0 1,0 -2,0 -4,0 -6,0 0,0 0,0 0,0zm-13 -2l0 0c1,1 2,1 2,1 0,0 -1,-1 -2,-1 0,0 0,0 0,0zm-10 4l0 0c0,0 1,0 1,0 0,0 0,0 -1,0zm-5 -10l0 0c0,1 1,1 1,1 0,0 0,0 0,0 0,0 0,0 -1,-1zm-10 -9l0 0c1,1 2,2 3,4 -1,-2 -2,-3 -2,-4 0,0 0,0 -1,0zm-2 -9l0 0c-1,-4 -1,-8 -1,-11 0,-5 0,-10 -1,-15 0,0 0,0 1,0 -1,-2 -1,-4 -2,-6 2,9 1,21 3,32z"/>
   <path class="fil1" d="M525 70l0 5c-1,-1 -2,-1 -3,-1 -2,2 -4,4 -6,7 -1,1 -2,2 -3,3 2,-1 3,-1 5,-1 1,-2 3,-4 4,-5 1,-1 2,-2 3,-3l0 3c-1,0 -1,0 -1,0 -1,2 -3,3 -4,4 1,0 3,0 4,0 0,-1 0,-1 1,-1l0 6c-8,1 -16,2 -19,2 -15,1 -29,0 -44,-1 -5,0 -10,0 -15,-1 0,0 0,0 0,-1 -1,0 -2,0 -3,0 0,0 -1,0 -1,0 -2,-1 -4,-2 -6,-3 0,0 0,-1 0,0 2,0 4,1 6,1 0,-1 1,-2 2,-3 0,-1 0,-2 1,-2 -3,1 -7,4 -10,3 0,0 0,0 0,0 2,0 6,-4 7,-5 4,-2 7,-3 11,-4 12,-3 24,-3 36,-3 11,0 23,-2 35,0zm-73 6l0 0c-1,1 -2,1 -3,1 0,1 0,1 0,1 -1,1 -2,2 -2,3 -1,1 -2,2 -2,4 0,0 1,0 2,0 1,-3 3,-6 5,-9zm1 10l0 0c2,-4 4,-7 6,-11 -1,0 -2,0 -2,1 -1,0 -1,0 -1,0 -2,3 -6,6 -8,9 2,0 3,0 5,1zm14 -12l0 0c-2,0 -3,0 -4,1 0,0 0,0 -1,0 -3,3 -5,7 -8,11 2,0 3,0 5,0 0,0 0,-1 0,-1 4,-2 5,-7 8,-11zm-2 11l0 0c2,-4 5,-8 8,-11 -1,0 -2,0 -3,0 0,0 0,0 -1,0 -3,4 -4,9 -8,12 1,0 3,0 4,0 0,0 0,-1 0,-1zm6 1l0 0c2,-3 4,-6 6,-9 0,-1 1,-2 2,-3 -1,0 -2,0 -3,0 0,0 0,0 0,0 -3,4 -6,7 -9,13 0,0 0,0 0,0 1,0 3,-1 4,-1zm7 -1l0 0c2,-4 7,-7 9,-12 -1,0 -1,0 -2,0 -1,0 -2,0 -3,0 -2,2 -4,6 -5,8 -1,2 -3,3 -4,5 2,0 4,0 5,0 0,0 0,-1 0,-1zm6 1l0 0c1,-3 4,-5 6,-8 1,-1 2,-3 3,-5 -1,0 -2,0 -3,0 0,0 0,0 0,0 -1,3 -3,5 -5,7 -2,2 -4,4 -5,6 1,0 3,0 4,0zm6 0l0 0c1,-3 4,-6 6,-8 1,-2 3,-3 4,-5 -1,0 -2,0 -3,0 0,0 0,0 0,0 -3,2 -4,6 -6,8 -2,1 -4,3 -5,5 1,0 3,0 4,0zm8 0l0 0c2,-3 4,-5 6,-7 1,-2 2,-4 4,-6 -1,0 -2,0 -3,0 -2,2 -5,4 -7,6 -2,2 -4,4 -6,7 2,0 3,0 5,0 0,0 1,0 1,0zm12 -4l0 0c-1,1 -2,2 -2,2 1,0 2,0 3,0 3,-3 5,-7 8,-10 -1,0 -2,-1 -3,-1 0,0 0,1 0,1 -3,2 -5,5 -6,8zm-5 -1l0 0c-1,2 -2,3 -4,4 2,0 3,0 4,0 1,-1 2,-2 2,-3 1,-2 2,-3 3,-5 1,-1 2,-3 3,-4 -1,0 -1,0 -1,0 0,0 0,1 -1,1 -2,1 -4,5 -6,7z"/>
   <path class="fil1" d="M484 40c-3,3 -1,8 1,12 1,0 2,0 2,-1 -7,-12 8,-14 9,-23 0,-8 -5,-13 -9,-19 -2,-2 -4,0 -3,2 3,4 7,8 9,13 2,7 -5,11 -9,16z"/>
   <path class="fil1" d="M511 25c3,4 4,9 2,14 -2,3 -5,5 -8,7 -2,3 -1,7 1,10 1,0 2,-1 2,-2 -5,-4 2,-8 5,-11 2,-1 2,-4 3,-6 2,-5 -1,-10 -4,-14 -1,-1 -3,1 -1,2z"/>
   <path class="fil1" d="M461 46c-3,3 -2,7 1,10 1,0 2,-1 1,-2 -5,-4 2,-8 5,-11 2,-1 3,-4 4,-6 1,-5 -1,-10 -4,-14 -1,-1 -3,1 -2,2 3,4 4,9 2,14 -1,3 -5,5 -7,7z"/>
   <path class="fil1" d="M525 414l0 -21c-1,1 -1,1 -2,1 -2,2 -5,3 -8,4 0,-1 -1,0 -1,0 -3,1 -5,3 -7,4 -1,0 -1,1 -1,1 -1,1 -2,2 -2,3 -1,0 -1,0 -1,0 0,0 0,0 0,0 1,-4 4,-7 6,-9 1,0 1,0 1,0 2,-2 5,-4 8,-5 0,0 0,0 1,0 2,-1 3,-2 5,-3 0,0 0,0 1,0l0 -31c-4,1 -8,3 -12,5 -11,7 -27,28 -18,43 7,10 19,12 30,8z"/>
   <path class="fil3" d="M257 218c-17,8 -38,-11 -44,-25 -7,-14 -7,-27 4,-37 -1,-1 -1,-2 1,-3 32,-18 75,48 39,65zm-38 -56l0 0c0,0 -1,0 -1,-1 0,0 -1,0 -1,0 0,0 0,0 0,0 0,0 0,0 1,0 0,1 0,1 0,1 0,0 0,0 1,0 0,0 0,0 0,0zm36 43l0 0c-5,-6 -6,-18 -10,-24 -5,-9 -12,-17 -21,-21 -2,0 -4,-1 -5,-1 -1,0 -1,0 -1,1 0,0 1,0 1,0 1,0 2,1 3,1 1,1 1,1 1,1 0,1 1,1 1,1 0,0 1,0 1,0 2,2 4,4 5,6 0,0 0,0 0,0 1,0 1,1 1,1 1,0 1,0 1,0 1,0 1,1 0,1 0,0 0,0 1,0 0,0 0,0 0,0 0,1 0,1 0,1 1,0 1,0 1,1 0,0 1,1 2,2 0,0 0,0 0,1 1,1 2,2 3,4 0,-1 1,0 1,0 0,1 1,2 1,3 0,0 1,1 1,1 1,1 1,1 0,2 1,2 2,3 3,5 1,1 0,1 0,2 1,3 2,6 4,8 1,1 1,1 1,1 2,3 5,6 9,8 1,0 1,0 1,0 0,0 0,-1 0,-1 -1,0 -1,0 -1,0 -1,-1 -2,-2 -3,-3 -1,0 -1,0 -1,-1z"/>
   <path class="fil1" d="M306 106c1,-2 -2,-3 -3,-1 0,2 -2,4 -3,5 -2,-2 -3,-5 -3,-7 -1,-4 -1,-8 0,-12 1,-3 2,-5 4,-7 4,-5 5,7 6,9 0,1 2,1 1,0 0,-3 1,-15 -5,-13 -6,1 -8,7 -9,12 -2,5 -2,14 2,19 5,6 8,1 10,-5z"/>
   <path class="fil1" d="M307 100c-1,1 -3,1 -5,1 -1,0 -2,3 0,3 2,0 4,0 6,0 2,-1 2,-4 -1,-4z"/>
   <path class="fil1" d="M326 101c-1,3 -1,6 -3,8 -3,4 -6,2 -8,-2 -3,-8 -1,-14 2,-21 0,-1 0,-1 1,-1 1,-1 2,-3 4,-3 3,1 4,4 4,6 1,4 0,9 0,13zm-3 -14l0 0c-1,-3 -3,0 -4,1 0,1 -1,1 -2,0 -1,7 -3,14 1,20 4,4 5,-6 5,-7 0,-2 0,-4 0,-6 0,-3 1,-6 0,-8z"/>
   <path class="fil1" d="M341 90c1,4 0,9 0,13 -1,3 -1,6 -3,8 -3,4 -6,1 -8,-3 -3,-7 -1,-14 2,-21 0,0 0,0 1,0 1,-2 2,-3 4,-3 3,0 4,4 4,6zm-3 -1l0 0c-1,-4 -3,0 -4,1 0,0 -1,0 -2,0 -1,6 -3,14 1,19 4,5 5,-5 5,-6 0,-2 0,-4 0,-7 0,-2 1,-5 0,-7z"/>
   <path class="fil1" d="M348 110c-1,0 -1,0 -1,-1 -1,1 -2,0 -2,-1 -2,-7 2,-15 2,-22 0,0 0,0 0,0 0,0 0,0 0,0 0,-1 0,-1 0,-1 0,0 0,0 0,0 0,0 0,0 0,0 0,0 0,0 0,0 7,0 11,6 12,12 1,8 -3,13 -11,13zm8 -15l0 0c-1,-5 -4,-8 -9,-9 2,7 -2,14 0,21 0,0 1,0 1,0 4,0 7,-1 8,-5 1,-2 1,-5 0,-7z"/>
   <path class="fil1" d="M294 122c0,-1 -1,-1 -2,0 -1,1 -1,3 -2,5 -1,-2 -1,-3 -2,-5 -1,-1 -2,0 -2,1 0,5 0,12 1,18 0,0 0,0 0,0 1,-5 0,-10 1,-15 0,1 1,2 2,3 0,1 1,0 1,0 1,-2 1,-3 2,-4 1,5 0,10 2,14 1,2 3,0 2,-1 -2,-5 -1,-11 -3,-16z"/>
   <path class="fil1" d="M306 124c1,3 1,6 0,9 0,1 0,4 -1,5 -3,2 -5,-1 -5,-3 -1,-4 -2,-9 0,-12 0,-1 0,-1 0,-2 3,-3 6,0 6,3zm-1 4l0 0c0,-1 -1,-8 -3,-5 -1,0 -1,0 -1,0 -1,3 -1,7 0,9 0,2 0,4 1,5 3,2 3,-8 3,-9z"/>
   <path class="fil1" d="M319 136c-1,-1 -1,-3 -2,-4 -1,-2 -2,-3 -2,-5 -1,1 -2,1 -4,1 0,0 0,0 0,0 1,3 1,5 1,8 0,0 -1,1 -1,0 0,-4 -5,-14 1,-17 2,-1 5,1 5,4 1,2 0,3 -1,4 0,1 1,3 2,4 1,1 1,2 2,3 2,1 0,3 -1,2zm-4 -14l0 0c-2,-2 -3,-1 -3,1 -1,1 -1,2 -1,3 0,0 0,0 0,0 2,0 6,-1 4,-4z"/>
   <path class="fil1" d="M333 120c0,-1 -3,-1 -3,0 1,3 1,5 1,7 0,1 0,3 0,4 0,0 0,0 0,0 -2,-3 -3,-6 -5,-9 0,-1 0,-1 0,-1 -1,0 -2,0 -2,1 0,4 0,9 0,13 0,1 1,1 1,0 1,-4 1,-7 1,-11 1,3 3,7 4,10 1,2 3,1 3,-1 0,-1 0,-3 0,-4 0,-3 0,-6 0,-9z"/>
   <path class="fil1" d="M352 120c0,-1 -3,-1 -3,0 0,3 1,5 1,7 0,1 0,3 0,4 0,0 0,0 0,0 -2,-3 -3,-6 -5,-9 0,-1 0,-1 -1,-1 0,0 -2,0 -2,1 0,4 1,9 1,13 0,1 1,1 1,0 0,-4 1,-7 1,-11 1,3 2,7 4,10 1,2 3,1 2,-1 1,-1 0,-3 1,-4 0,-3 0,-6 0,-9z"/>
   <path class="fil1" d="M337 120c0,4 0,9 0,13 0,1 2,1 2,0 0,-4 0,-9 1,-13 0,-2 -3,-2 -3,0z"/>
   <path class="fil1" d="M366 125c-1,1 -4,1 -3,3 0,0 1,0 1,0 0,0 0,0 1,-1 0,1 -1,1 -1,1 0,1 0,2 0,3 -1,1 -3,1 -4,0 0,-1 0,-1 0,-2 -1,-1 -1,-2 -1,-3 0,-2 0,-7 2,-8 1,0 1,0 0,0 -4,-2 -4,8 -4,10 1,3 2,6 5,6 4,2 5,-3 5,-6 0,0 0,0 0,0 1,-1 1,-1 1,-2 0,-1 -2,-2 -2,-1z"/>
   <path class="fil1" d="M389 85c5,14 8,30 4,45 -3,11 -9,23 -20,29 -10,4 -20,5 -31,6 0,0 0,0 0,1 -3,5 -3,12 -6,17 -1,2 -1,5 -4,4 -3,0 -6,-5 -7,-7 -2,-5 -6,-10 -10,-15 0,0 0,0 -1,0 -11,-1 -24,-1 -33,-8 -11,-9 -17,-21 -19,-34 -2,-14 1,-30 8,-42 5,-8 12,-20 23,-21 0,0 0,0 0,0 23,-8 48,-2 71,0 0,0 0,0 1,0 11,2 20,16 24,25zm0 9l0 0c-3,-11 -12,-29 -24,-32 0,0 -1,0 -1,0 -26,-3 -55,-10 -79,3 -9,7 -15,20 -18,29 -3,11 -4,24 -1,35 3,10 9,22 19,27 9,4 19,5 29,5 2,0 3,3 2,4 3,3 5,6 8,9 2,3 4,7 7,10 2,1 2,-2 2,-4 1,-2 2,-4 3,-7 1,-3 2,-6 3,-9 1,-1 1,-1 1,-1 0,-1 1,-1 2,-2 21,-1 40,-5 47,-29 4,-12 4,-26 0,-38z"/>
   <path class="fil1" d="M112 377c1,-3 -2,-3 -3,-1 -1,2 -2,3 -4,4 -1,-1 -2,-4 -3,-6 -1,-4 0,-9 1,-13 1,-2 2,-4 3,-6 5,-5 6,6 7,8 0,1 2,1 1,0 0,-3 0,-14 -5,-13 -6,1 -8,7 -9,12 -2,6 -2,14 2,19 5,6 8,1 10,-4z"/>
   <path class="fil1" d="M113 371c-1,0 -3,1 -5,0 -2,0 -2,3 -1,3 3,0 5,0 7,0 2,0 2,-4 -1,-3z"/>
   <path class="fil1" d="M121 377c-3,-7 -1,-14 2,-21 0,-1 0,-1 1,-1 1,-1 2,-3 4,-2 3,0 4,3 4,5 1,4 0,9 0,14 -1,2 -1,6 -3,8 -3,3 -6,1 -8,-3zm3 1l0 0c4,4 5,-6 5,-6 0,-3 0,-5 0,-7 0,-2 1,-5 0,-8 -2,-3 -3,0 -4,1 0,1 -1,1 -2,1 -2,6 -3,13 1,19z"/>
   <path class="fil1" d="M136 379c-3,-8 -1,-15 2,-22 0,0 0,0 1,0 1,-2 2,-3 4,-3 2,1 3,4 4,6 1,4 0,9 0,13 -1,3 -1,6 -3,8 -3,4 -6,1 -8,-2zm3 0l0 0c4,5 5,-5 5,-6 0,-2 0,-4 0,-7 0,-2 1,-5 0,-7 -2,-4 -3,0 -4,1 0,1 -1,1 -2,0 -2,7 -3,14 1,19z"/>
   <path class="fil1" d="M151 379c-2,-8 2,-16 2,-23 0,0 0,0 0,0 0,0 0,0 0,0 0,0 0,0 0,-1 0,0 0,0 0,0 0,0 0,0 0,0 0,0 0,0 0,0 7,1 11,6 12,13 1,7 -3,12 -11,12 -1,0 -1,0 -1,-1 -1,1 -2,0 -2,0zm2 -2l0 0c0,0 0,0 1,0 3,0 7,0 8,-5 1,-2 1,-5 0,-7 -1,-5 -4,-8 -9,-9 2,7 -2,14 0,21z"/>
   <path class="fil1" d="M93 411c1,-5 0,-10 0,-15 1,1 2,2 3,3 0,1 1,1 1,0 0,-1 1,-3 2,-4 0,5 0,10 2,14 1,2 3,1 2,-1 -2,-5 -1,-11 -3,-16 0,-1 -1,-1 -2,0 -1,1 -2,3 -2,5 -1,-2 -1,-3 -2,-5 -1,0 -2,0 -2,1 0,6 0,12 1,18 0,0 0,0 0,0z"/>
   <path class="fil1" d="M112 395c1,2 0,5 0,8 0,2 0,4 -1,5 -3,2 -5,-1 -5,-3 -1,-4 -2,-9 0,-12 0,-1 0,-1 0,-2 3,-3 6,0 6,4zm-1 4l0 0c0,-1 -1,-9 -4,-6 0,0 0,0 0,0 -1,3 -1,7 0,10 0,1 0,3 1,4 2,2 3,-8 3,-8z"/>
   <path class="fil1" d="M117 389c3,-1 6,1 6,4 0,2 0,3 -1,4 0,1 1,3 2,4 1,1 1,3 2,3 2,1 0,3 -1,2 -1,-1 -1,-3 -2,-4 -1,-2 -2,-3 -2,-5 -1,1 -2,1 -4,1 0,0 0,0 0,0 0,3 1,5 1,8 0,1 -1,1 -1,0 -1,-4 -5,-14 0,-17zm0 7l0 0c0,0 0,0 0,0 2,0 5,-1 4,-4 -2,-2 -3,-1 -4,1 0,1 0,2 0,3z"/>
   <path class="fil1" d="M139 391c0,-2 -3,-2 -3,0 1,2 1,4 1,6 0,1 0,3 0,4 0,0 0,0 0,0 -2,-3 -3,-6 -5,-9 0,0 0,0 -1,0 0,-1 -2,-1 -2,0 1,5 1,9 1,13 0,1 1,1 1,0 0,-4 1,-7 1,-11 1,4 2,7 4,11 1,1 3,0 3,-2 0,-1 0,-3 0,-4 0,-3 0,-6 0,-8z"/>
   <path class="fil1" d="M150 405c0,-4 0,-7 1,-11 1,4 2,7 4,11 1,1 3,0 2,-2 1,-1 0,-3 0,-4 1,-3 1,-6 1,-8 0,-2 -3,-2 -3,0 0,2 0,4 1,6 0,1 0,3 0,4 0,0 0,0 0,0 -2,-3 -4,-6 -5,-9 0,0 0,0 -1,0 0,-1 -2,-1 -2,0 0,5 1,9 1,13 0,1 1,1 1,0z"/>
   <path class="fil1" d="M143 390c0,5 0,9 0,14 0,0 2,0 2,0 0,-5 0,-9 0,-14 1,-2 -3,-2 -2,0z"/>
   <path class="fil1" d="M163 399c1,2 2,5 5,6 3,1 5,-4 5,-7 0,0 0,0 0,0 0,0 1,-1 1,-2 0,-1 -2,-1 -2,-1 -1,1 -4,1 -3,3 0,0 1,0 1,0 0,0 0,0 1,0 -1,0 -1,0 -1,0 0,1 0,2 0,3 -2,2 -3,2 -4,0 0,0 0,-1 0,-2 -1,0 -1,-2 -1,-2 0,-2 0,-8 2,-8 1,-1 1,-1 0,-1 -4,-2 -4,9 -4,11z"/>
   <path class="fil1" d="M68 393c-2,-13 1,-30 8,-42 5,-8 12,-20 23,-21 0,0 0,0 0,0 22,-8 48,-2 71,0 0,0 0,0 1,0 11,2 20,16 24,25 5,14 8,30 4,45 -3,11 -9,24 -20,29 -10,5 -20,5 -31,6 0,1 0,1 0,1 -3,5 -4,12 -6,17 -1,2 -2,5 -5,5 -2,-1 -5,-6 -6,-8 -2,-5 -6,-10 -10,-15 0,0 0,1 -1,1 -11,-1 -25,-2 -34,-9 -10,-9 -16,-21 -18,-34zm4 6l0 0c3,10 9,22 19,27 9,5 19,5 29,6 2,0 3,2 2,3 3,3 5,6 8,10 2,2 4,6 7,9 2,2 2,-2 2,-4 1,-2 2,-4 3,-7 1,-3 2,-6 3,-9 0,-1 1,-1 1,-1 0,-1 1,-1 2,-1 21,-2 40,-6 47,-30 4,-12 4,-26 0,-38 -4,-11 -12,-29 -24,-32 0,0 -1,0 -1,0 -26,-3 -55,-10 -79,3 -9,7 -15,20 -18,29 -3,11 -4,24 -1,35z"/>
   <path class="fil1" d="M154 196c-1,10 -3,21 -3,32 1,0 2,1 1,2 0,1 0,1 0,2 1,0 1,0 1,1 1,-1 3,0 3,1 5,22 16,42 21,63 1,1 1,2 2,3 1,0 1,0 1,1 0,0 1,0 1,0 2,2 -1,7 -4,5 2,1 -12,5 -14,6 -2,0 -5,1 -7,1 -13,3 -26,4 -39,4 -1,0 -1,0 -2,0 -4,-1 -8,-1 -13,-2 -1,2 -4,0 -3,-2 3,-9 1,-22 2,-31 2,-11 4,-22 4,-33 -1,-1 0,-1 0,-1 0,0 0,-1 0,-1 0,0 0,0 0,0 -1,0 -1,-1 -1,-1 0,-2 0,-3 -1,-5 0,-1 0,-2 -1,-4 0,0 0,0 0,-1 -3,-11 -10,-22 -14,-33 -4,-7 -6,-18 -10,-24 -3,-1 -6,-1 -9,-3 -2,-1 -1,-4 1,-4 2,0 3,-1 5,-2 1,0 2,0 3,0 0,-2 6,-6 5,-6 2,-1 4,-2 6,-3 7,-3 13,-4 20,-6 0,0 0,0 0,0 0,0 0,0 0,0 -2,-2 -3,-6 -2,-9 -1,-1 -1,-2 -2,-3 0,0 0,-1 0,-2 2,-2 4,-3 7,-4 1,0 2,1 3,2 0,1 0,3 1,4 0,1 0,3 0,4 1,2 1,4 2,7 13,-2 27,0 38,6 0,0 1,0 1,0 0,0 0,0 0,0 0,0 0,0 0,0 0,-1 3,-2 5,0 0,0 0,1 0,1 1,0 2,0 3,1 0,0 1,0 1,0 0,0 0,0 1,0 3,2 5,6 6,11 1,1 2,2 2,4 0,1 0,1 0,2 1,7 3,14 5,22 1,1 1,3 1,5 2,6 3,12 4,18 1,3 -2,4 -4,3 -9,3 -8,-5 -10,-14 -1,-4 -2,-7 -2,-11 -1,-1 -1,-2 -1,-3 -1,-4 -2,-7 -3,-11 -1,-7 -2,-16 -9,-20 -2,8 -1,20 -2,28zm-73 -21l0 0c22,0 48,-3 68,-12 -20,-8 -53,-6 -70,8 0,0 0,1 -1,1 -1,1 -2,1 -3,2 1,0 2,0 3,0 1,0 1,0 2,1 0,0 1,0 1,0zm44 59l0 0c5,0 10,-1 15,-3 -3,-19 -2,-38 -3,-58 -7,2 -13,3 -20,4 3,19 6,38 8,57zm-12 -57l0 0c-6,1 -11,1 -17,1 5,19 13,37 16,57 0,0 1,0 1,0 0,0 0,0 0,0 3,0 7,0 10,-1 -3,-19 -7,-38 -10,-57zm-5 59l0 0c1,-1 2,-2 3,-2 -2,-3 -4,-10 -4,-11 -2,-6 -4,-11 -6,-17 -2,-9 -7,-19 -9,-28 0,0 0,0 0,0 -3,-1 -6,-1 -9,-1 0,0 0,1 0,2 3,6 4,13 6,19 5,12 12,24 15,37 0,0 1,1 1,1 1,0 2,0 3,0zm-3 78l0 0c-1,0 -1,0 -2,-1 0,1 0,1 0,1 1,0 1,0 2,0zm9 0l0 0c0,-2 -1,-4 -1,-6 0,0 0,-1 1,-1 -1,-7 0,-13 -1,-20 0,-7 0,-15 0,-22 0,-3 -1,-15 1,-18 0,0 0,0 0,0 0,0 0,0 0,0 -3,0 -5,0 -7,0 0,1 0,2 -1,3 1,13 -1,27 -2,40 0,7 1,16 -1,23 1,0 3,1 4,1 3,0 5,0 7,0zm21 -2l0 0c-4,-22 -6,-43 -10,-65 -4,0 -7,0 -11,0 4,20 1,40 3,60 0,1 1,1 1,1 0,2 0,4 0,5 5,0 10,0 15,-1 0,0 1,0 2,0zm25 -6l0 0c-7,-19 -14,-40 -18,-61 -3,1 -6,1 -9,2 -2,0 -4,0 -6,0 5,21 8,43 12,64 3,-1 5,-1 6,-1 3,-1 6,-1 9,-2 2,0 4,-1 6,-2zm-16 -61l0 0c6,20 13,41 20,60 4,-1 7,-3 10,-4 -4,-6 -5,-15 -7,-21 -5,-12 -12,-25 -15,-38 -2,1 -5,2 -8,3zm8 -77l0 0c-4,2 -7,3 -11,4 1,19 0,39 1,59 2,-1 5,-2 7,-3 0,-1 0,-1 1,-1 -2,-13 1,-26 2,-39 0,-6 -1,-14 0,-20z"/>
   <path class="fil1" d="M99 167c-2,1 -3,3 -4,4 0,0 0,1 1,0 1,-1 2,-2 4,-2 0,-1 0,-2 -1,-2z"/>
   <path class="fil1" d="M112 166c1,0 1,2 1,3 0,0 0,0 1,0 0,-2 0,-3 -1,-5 0,-1 -2,0 -1,2z"/>
   <path class="fil1" d="M132 163c-2,-1 -3,-1 -5,-2 -1,0 -1,1 0,2 1,1 3,1 4,2 2,1 2,-2 1,-2z"/>
   <path class="fil1" d="M367 429c0,0 0,0 0,0 1,8 2,15 1,24 0,0 -3,7 -4,9 0,0 0,0 0,0 1,2 1,3 1,4 0,2 -1,3 0,5 0,2 -2,3 -4,2 -2,-2 -4,-4 -5,-7 -9,-2 -21,0 -30,-1 -11,-1 -22,-2 -33,-1 0,0 0,0 -1,0 -1,0 -3,0 -4,0 -2,1 -3,1 -4,1 0,0 -1,1 -1,0 0,0 0,0 0,0 -1,0 -1,0 -2,0 0,1 0,1 0,1 -12,4 -23,11 -34,17 -7,3 -18,6 -24,11 -2,2 -5,0 -3,-2 -3,-4 -5,-8 -7,-12 0,0 0,-1 0,-2 -5,-11 -9,-24 -11,-37 0,-3 -1,-5 -1,-8 0,-2 -2,-15 1,-14 0,0 0,0 0,0 -3,-3 0,-7 3,-5 1,0 1,0 2,1 1,0 2,0 3,1 21,-3 44,0 65,-3 2,-1 4,1 4,2 0,0 0,0 1,0 0,0 1,0 1,0 1,-1 2,-1 3,0 11,-4 21,-11 32,-16 6,-3 16,-6 22,-10 -7,-6 -22,-1 -29,0 -9,1 -18,2 -27,4 -6,1 -8,-2 -8,-7 -2,-1 -2,-4 0,-4 16,-3 32,-5 47,-7 1,0 1,-1 2,-1 2,0 3,0 4,1 6,-1 10,0 13,3 0,0 0,0 0,0 0,0 0,0 0,0 1,1 2,2 2,3 1,0 1,0 1,0 3,1 3,3 1,4 0,0 0,0 0,0 0,1 0,1 0,1 1,0 1,0 2,1 9,8 15,20 19,32 2,0 4,0 7,0 1,-1 2,-1 4,-1 1,0 3,-1 4,-1 1,0 2,1 2,3 0,2 0,5 -1,7 0,1 -1,1 -2,1 -1,-1 -2,-1 -3,-1 -3,2 -7,3 -9,2 0,0 0,0 0,0zm-160 1l0 0c21,1 42,0 63,-3 0,-2 0,-5 1,-8 -12,2 -25,0 -38,0 -7,0 -18,3 -26,1 0,3 0,7 0,10zm4 26l0 0c21,-4 42,-8 63,-12 0,-1 -1,-3 -1,-5 -1,-2 -2,-6 -3,-9 -20,3 -42,5 -63,5 0,4 1,8 2,13 0,3 1,5 2,8zm5 20l0 0c1,0 3,0 5,-1 0,0 1,0 1,0 19,-5 37,-15 57,-18 -2,-4 -3,-7 -4,-11 -21,4 -42,10 -63,14 0,3 1,6 2,9 0,3 1,5 2,7zm5 14l0 0c0,0 -1,-1 -1,-1 0,0 0,1 0,2 1,0 1,-1 1,-1zm61 -27l0 0c-1,-2 -2,-4 -3,-6 0,0 0,0 0,0 0,0 0,0 0,0 -1,3 -14,6 -17,7 -6,3 -13,5 -20,7 -6,3 -12,5 -19,7 0,1 0,1 -1,1 -2,1 -3,1 -5,1 1,2 1,4 2,6 1,2 2,3 3,4 6,-5 17,-7 24,-10 10,-5 21,-12 33,-15 1,-1 2,-1 3,-2zm2 -38l0 0c19,-6 37,-14 55,-21 0,-3 0,-7 0,-11 -6,4 -15,6 -21,9 -11,5 -22,11 -33,14 0,1 0,1 0,1 -1,2 -1,5 -1,8zm59 4l0 0c-1,-7 -3,-14 -3,-20 -18,6 -37,13 -55,18 0,5 2,10 3,15 18,-5 37,-9 55,-13zm-52 25l0 0c19,-4 40,-3 59,-6 -2,-5 -4,-10 -5,-15 -19,3 -38,6 -57,11 1,3 2,6 3,10 0,0 0,0 0,0 0,0 0,0 0,0zm65 6l0 0c-2,-2 -3,-5 -4,-8 0,0 0,0 0,1 -10,1 -21,0 -31,1 -5,0 -11,0 -17,1 -1,0 -8,1 -12,0 1,1 0,2 0,3 0,1 0,2 0,3 1,0 1,0 2,1 11,-2 24,0 36,0 7,0 16,-2 24,-1 0,0 1,-1 2,-1zm-11 -66l0 0c-1,22 6,46 13,67 0,0 0,0 0,0 1,2 2,4 3,5 1,-1 1,-2 1,-3 0,-1 0,-2 1,-2 7,-20 -3,-52 -18,-67z"/>
   <path class="fil1" d="M357 447c1,-2 2,-3 2,-5 0,-1 -1,-1 -2,0 0,2 0,3 -1,5 0,0 1,0 1,0z"/>
   <path class="fil1" d="M353 430c1,-1 2,-1 3,-1 1,1 2,-1 0,-1 -1,0 -3,0 -4,1 0,0 0,1 1,1z"/>
   <path class="fil1" d="M353 415c1,0 2,-1 1,-1 -1,-2 -2,-3 -3,-4 -1,-1 -2,0 -1,1 1,1 2,3 3,4z"/>
  </g>
 </g>
</svg>
