<?xml version="1.0" encoding="UTF-8"?>
<!DOCTYPE svg PUBLIC "-//W3C//DTD SVG 1.1//EN" "http://www.w3.org/Graphics/SVG/1.1/DTD/svg11.dtd">
<!-- Creator: CorelDRAW X8 -->
<svg xmlns="http://www.w3.org/2000/svg" xml:space="preserve" width="100%" height="100%" version="1.1" style="shape-rendering:geometricPrecision; text-rendering:geometricPrecision; image-rendering:optimizeQuality; fill-rule:evenodd; clip-rule:evenodd"
viewBox="0 0 14797 3387"
 xmlns:xlink="http://www.w3.org/1999/xlink">
 <defs>
  <style type="text/css">
   <![CDATA[
    .fil0 {fill:#FEFEFE}
   ]]>
  </style>
 </defs>
 <g id="Слой_x0020_1">
  <metadata id="CorelCorpID_0Corel-Layer"/>
  <g>
   <path class="fil0" d="M2658 2409c0,543 -501,901 -1007,901l-1651 0 0 -3229 1513 0c582,0 1003,291 1003,887 0,511 -444,663 -444,663 0,5 586,139 586,778l0 0zm-965 -1350c0,-181 -123,-305 -307,-305l-592 0 0 601 577 0c209,0 322,-153 322,-296l0 0zm104 1259c0,-186 -137,-315 -425,-315l-577 0 0 635 591 0c241,0 411,-86 411,-320l0 0zm4126 -625c0,949 -544,1693 -1485,1693 -936,0 -1485,-744 -1485,-1693 0,-944 549,-1693 1485,-1693 941,0 1485,749 1485,1693l0 0zm-794 0c0,-505 -232,-916 -691,-916 -458,0 -685,411 -685,916 0,511 227,921 685,921 459,0 691,-410 691,-921l0 0zm3568 639c0,711 -644,1055 -1249,1055 -700,0 -1059,-268 -1343,-606l515 -506c218,277 502,415 819,415 260,0 435,-129 435,-320 0,-204 -155,-268 -577,-357l-114 -24c-509,-107 -927,-396 -927,-973 0,-634 516,-1016 1197,-1016 577,0 950,248 1177,506l-501 496c-156,-167 -392,-301 -662,-301 -185,0 -393,86 -393,301 0,195 217,266 492,324l114 24c460,97 1017,238 1017,982l0 0zm3071 353c-331,477 -638,702 -1277,702 -908,0 -1494,-754 -1494,-1713 0,-911 529,-1669 1504,-1669 534,0 917,210 1244,701l-653 434c-133,-229 -303,-362 -587,-362 -359,0 -704,321 -704,896 0,645 374,940 728,940 308,0 449,-153 582,-372l657 443 0 0zm3029 625l-851 0 0 -1273 -979 0 0 1273 -847 0 0 -3229 847 0 0 1188 979 0 0 -1188 851 0 0 3229z"/>
  </g>
 </g>
</svg>
