<?xml version="1.0" encoding="UTF-8"?>
<!DOCTYPE svg PUBLIC "-//W3C//DTD SVG 1.1//EN" "http://www.w3.org/Graphics/SVG/1.1/DTD/svg11.dtd">
<!-- Creator: CorelDRAW X8 -->
<svg xmlns="http://www.w3.org/2000/svg" xml:space="preserve" width="100%" height="100%" version="1.1" style="shape-rendering:geometricPrecision; text-rendering:geometricPrecision; image-rendering:optimizeQuality; fill-rule:evenodd; clip-rule:evenodd"
viewBox="0 0 5264 1205"
 xmlns:xlink="http://www.w3.org/1999/xlink">
 <defs>
  <style type="text/css">
   <![CDATA[
    .fil0 {fill:#FEFEFE}
   ]]>
  </style>
 </defs>
 <g id="Слой_x0020_1">
  <metadata id="CorelCorpID_0Corel-Layer"/>
  <g id="_1771429322624">
   <g>
    <path class="fil0" d="M946 857c0,193 -179,320 -359,320l-587 0 0 -1148 538 0c207,0 357,103 357,315 0,182 -158,236 -158,236 0,2 209,50 209,277l0 0zm-344 -480c0,-65 -43,-109 -109,-109l-211 0 0 214 206 0c74,0 114,-54 114,-105l0 0 0 0zm37 448c0,-67 -48,-112 -151,-112l-205 0 0 225 210 0c86,0 146,-30 146,-113l0 0zm1468 -223c0,338 -193,603 -528,603 -333,0 -529,-265 -529,-603 0,-336 196,-602 529,-602 335,0 528,266 528,602l0 0zm-282 0c0,-179 -83,-326 -246,-326 -163,0 -244,147 -244,326 0,182 81,328 244,328 163,0 246,-146 246,-328l0 0zm1269 228c0,253 -229,375 -444,375 -249,0 -377,-95 -478,-216l183 -180c78,99 179,148 291,148 93,0 155,-46 155,-114 0,-72 -55,-95 -205,-127l-41 -8c-181,-39 -330,-141 -330,-347 0,-225 184,-361 426,-361 206,0 338,88 419,180l-178 176c-56,-59 -140,-107 -236,-107 -66,0 -140,31 -140,107 0,70 78,95 176,116l40 8c164,35 362,85 362,350l0 0 0 0zm1092 125c-117,170 -227,250 -454,250 -323,0 -531,-268 -531,-609 0,-325 188,-594 535,-594 190,0 326,74 442,249l-232 155c-47,-82 -108,-129 -209,-129 -128,0 -250,114 -250,319 0,229 133,334 259,334 109,0 159,-55 207,-132l233 157 0 0 0 0zm1078 222l-303 0 0 -452 -348 0 0 452 -301 0 0 -1148 301 0 0 422 348 0 0 -422 303 0 0 1148z"/>
   </g>
  </g>
 </g>
</svg>
