<?xml version="1.0" encoding="UTF-8"?>
<!DOCTYPE svg PUBLIC "-//W3C//DTD SVG 1.1//EN" "http://www.w3.org/Graphics/SVG/1.1/DTD/svg11.dtd">
<!-- Creator: CorelDRAW X8 -->
<svg xmlns="http://www.w3.org/2000/svg" xml:space="preserve" width="100%" height="100%" version="1.1" style="shape-rendering:geometricPrecision; text-rendering:geometricPrecision; image-rendering:optimizeQuality; fill-rule:evenodd; clip-rule:evenodd"
viewBox="0 0 9617 2113"
 xmlns:xlink="http://www.w3.org/1999/xlink">
 <defs>
  <style type="text/css">
   <![CDATA[
    .fil1 {fill:#FEFEFE}
    .fil0 {fill:white;fill-rule:nonzero}
   ]]>
  </style>
 </defs>
 <g id="Слой_x0020_1">
  <metadata id="CorelCorpID_0Corel-Layer"/>
  <path id="path59" class="fil0" d="M0 1065c0,283 111,548 312,744 201,196 468,304 753,304 578,0 1048,-470 1048,-1048 0,-285 -108,-552 -303,-753 -197,-201 -462,-312 -745,-312 -587,0 -1065,478 -1065,1065zm406 651l0 0c-180,-175 -279,-406 -279,-651 0,-517 421,-938 938,-938 245,0 476,99 651,279 174,179 270,413 270,659 0,508 -413,921 -921,921 -246,0 -480,-96 -659,-270zm976 -1300l0 327 -651 0 0 -327c0,-41 -13,-44 -26,-44 -8,0 -16,2 -23,6 -243,147 -387,404 -387,687 0,276 141,520 387,670 7,4 15,6 23,6 24,0 26,-26 26,-26l0 -345 651 0 0 345c0,13 3,26 44,26 3,0 8,0 14,-4 233,-139 378,-396 378,-672 0,-281 -145,-551 -369,-687 -7,-4 -15,-6 -23,-6 -24,0 -44,20 -44,44zm-823 1006c-79,-120 -116,-233 -116,-357 0,-162 63,-292 116,-373l26 -41 -2 71 0 671c0,-1 0,22 0,22l2 48 -26 -41zm172 -214l0 -317 651 0 0 331 -651 0 0 -14zm798 -509l-2 -64 27 43c75,122 116,260 116,387 0,164 -62,285 -116,372l-27 43c0,0 2,-72 2,-72 0,0 0,-700 0,-700l1 3 -1 -12z"/>
  <g id="q57">
   <g id="xfrm58">
    <path id="path3190" class="fil1" d="M3977 1328c0,-81 -60,-137 -185,-137l-251 0 0 275 257 0c105,0 179,-37 179,-138zm-45 -547c0,-78 -54,-132 -134,-132l-257 0 0 261 251 0c90,0 140,-67 140,-129zm418 586c0,236 -217,391 -437,391l-716 0 0 -1401 656 0c253,0 436,126 436,385 0,221 -193,288 -193,288 0,2 254,60 254,337z"/>
   </g>
  </g>
  <g id="q59">
   <g id="xfrm60">
    <path id="path3194" class="fil1" d="M5422 1057c0,-220 -100,-398 -299,-398 -199,0 -298,178 -298,398 0,221 99,399 298,399 199,0 299,-178 299,-399zm345 0c0,411 -236,734 -644,734 -407,0 -645,-323 -645,-734 0,-410 238,-735 645,-735 408,0 644,325 644,735z"/>
   </g>
  </g>
  <g id="q61">
   <g id="xfrm62">
    <path id="path3198" class="fil1" d="M6970 1334c0,308 -279,457 -541,457 -304,0 -460,-116 -583,-263l224 -219c94,120 217,180 355,180 112,0 188,-56 188,-139 0,-89 -67,-116 -250,-155l-49 -10c-221,-47 -403,-172 -403,-422 0,-276 224,-441 520,-441 250,0 412,107 511,219l-218 215c-68,-72 -170,-130 -287,-130 -80,0 -170,37 -170,130 0,85 94,116 213,141l49 11c200,41 441,103 441,426z"/>
   </g>
  </g>
  <g id="q63">
   <g id="xfrm64">
    <path id="path3202" class="fil1" d="M8303 1487c-144,207 -277,304 -554,304 -394,0 -648,-327 -648,-743 0,-395 229,-724 652,-724 232,0 398,91 540,304l-283 188c-58,-99 -132,-157 -255,-157 -156,0 -306,140 -306,389 0,280 163,408 317,408 133,0 194,-66 252,-161l285 192z"/>
   </g>
  </g>
  <g id="q65">
   <g id="xfrm66">
    <polygon id="path3206" class="fil1" points="9617,1758 9248,1758 9248,1206 8823,1206 8823,1758 8456,1758 8456,357 8823,357 8823,872 9248,872 9248,357 9617,357 "/>
   </g>
  </g>
 </g>
</svg>
