<?xml version="1.0" encoding="UTF-8"?>
<!DOCTYPE svg PUBLIC "-//W3C//DTD SVG 1.1//EN" "http://www.w3.org/Graphics/SVG/1.1/DTD/svg11.dtd">
<!-- Creator: CorelDRAW X8 -->
<svg xmlns="http://www.w3.org/2000/svg" xml:space="preserve" width="100%" height="100%" version="1.1" style="shape-rendering:geometricPrecision; text-rendering:geometricPrecision; image-rendering:optimizeQuality; fill-rule:evenodd; clip-rule:evenodd"
viewBox="0 0 7002 1714"
 xmlns:xlink="http://www.w3.org/1999/xlink">
 <defs>
  <style type="text/css">
   <![CDATA[
    .fil3 {fill:#FEFEFE}
    .fil2 {fill:#301D0F}
    .fil1 {fill:#DFA81B}
    .fil0 {fill:#301D0F;fill-rule:nonzero}
    .fil4 {fill:#DFA81B;fill-rule:nonzero}
   ]]>
  </style>
 </defs>
 <g id="Слой_x0020_1">
  <metadata id="CorelCorpID_0Corel-Layer"/>
  <path class="fil0" d="M2337 550c-19,-19 -41,-28 -67,-28l-96 0 0 275 96 0c26,0 48,-10 67,-28 19,-19 29,-58 29,-115 0,-50 -10,-85 -29,-104zm-454 218c19,19 42,29 68,29l95 0 0 -275 -95 0c-26,0 -49,9 -68,28 -19,19 -28,53 -28,104 0,57 9,95 28,114zm291 -373l96 0c62,0 114,22 158,65 44,44 66,108 66,194 0,93 -22,161 -66,204 -44,43 -97,65 -158,65l-96 0 0 62 -127 0 0 -62 -96 0c-62,0 -115,-21 -158,-65 -44,-43 -66,-111 -66,-204 0,-87 22,-151 66,-194 44,-43 97,-65 158,-65l95 0 0 -45 128 0 0 45zm886 -59l0 650 -128 0 0 -353 -383 365 0 -650 128 0 0 353 383 -365zm206 14l0 281 163 -281 148 0 -189 323 219 312 -155 0 -186 -266 0 266 -127 0 0 -635 127 0zm924 546c-63,62 -140,94 -229,94 -89,-1 -165,-32 -228,-94 -63,-63 -94,-139 -94,-228 0,-89 31,-165 94,-229 64,-63 139,-95 228,-95l0 2c87,0 163,31 228,94l-91 91c-38,-37 -84,-56 -137,-56 -53,0 -99,19 -136,56 -38,39 -57,84 -57,137 0,54 19,99 57,137 37,38 83,57 136,57 54,0 100,-19 138,-57l91 91zm549 -546l0 281 163 -281 148 0 -189 323 219 312 -155 0 -186 -266 0 266 -127 0 0 -635 127 0zm695 -6c89,0 165,32 228,95 64,64 95,140 95,229 0,89 -31,165 -95,228 -63,62 -139,94 -228,94 -89,-1 -165,-32 -228,-94 -63,-63 -94,-139 -94,-228 0,-89 31,-165 94,-229 64,-63 140,-95 228,-95zm0 129c-54,0 -99,19 -137,57 -37,39 -56,84 -56,137 0,53 19,99 56,137 38,38 84,56 137,56 53,0 99,-18 137,-56 38,-38 57,-83 57,-137 0,-53 -19,-99 -57,-137 -38,-38 -84,-57 -137,-57zm973 77c-19,-19 -42,-28 -67,-28l-96 0 0 275 96 0c25,0 48,-10 67,-28 19,-19 28,-58 28,-115 0,-50 -9,-85 -28,-104zm-454 218c19,19 41,29 67,29l96 0 0 -275 -96 0c-26,0 -48,9 -67,28 -19,19 -28,53 -28,104 0,57 9,95 28,114zm291 -373l96 0c61,0 114,22 157,65 44,44 66,108 66,194 0,93 -22,161 -66,204 -44,43 -96,65 -157,65l-96 0 0 62 -128 0 0 -62 -96 0c-61,0 -114,-21 -157,-65 -44,-43 -66,-111 -66,-204 0,-87 22,-151 66,-194 44,-43 96,-65 157,-65l96 0 0 -45 128 0 0 45zm758 -47l0 127 -256 0 0 129 192 0 0 127 -192 0 0 128 256 0 0 127 -384 0 0 -638 384 0z"/>
  <path class="fil1" d="M1094 490c106,81 187,192 232,320l-208 0c-35,-68 -85,-127 -146,-172l122 -148zm232 764c-92,267 -346,460 -645,460 -376,0 -681,-305 -681,-682 0,-276 165,-514 401,-621 -26,34 -49,72 -69,113 -40,82 -60,165 -62,243 -50,76 -78,168 -78,265 0,271 219,490 489,490 191,0 357,-109 437,-268l208 0z"/>
  <path class="fil2" d="M1031 915c-11,-30 -25,-59 -42,-86 5,-11 13,-22 23,-31 9,-9 11,-23 3,-33 -20,-26 -43,-49 -69,-69 -5,-4 -11,-6 -17,-5l-124 151c59,40 98,107 101,183 -1,3 -1,5 -1,7l0 0c0,2 0,4 1,6 -4,124 -105,223 -229,223 -113,0 -207,-82 -226,-189 -53,-38 -83,-54 -132,-144 -2,9 -5,17 -6,26 -12,4 -26,7 -39,7 -14,-1 -24,9 -25,21 -4,32 -4,65 0,98 1,12 15,21 28,21 12,0 24,2 35,6 9,47 27,90 52,128 -5,12 -13,23 -23,32 -9,8 -10,22 -2,32 20,26 43,49 68,69 10,8 24,7 33,-2 8,-10 20,-18 32,-23 38,25 81,44 128,54 4,12 6,25 5,38 0,13 9,24 22,25 16,2 33,3 49,3 16,0 32,-1 48,-3 12,-1 21,-12 21,-24 -1,-14 2,-27 7,-39 45,-9 88,-27 126,-51 12,5 24,12 33,22 8,9 22,11 32,3 26,-20 49,-44 70,-69 8,-10 7,-24 -3,-33 -10,-9 -17,-20 -23,-31 19,-28 33,-58 44,-90l202 0c64,0 117,-52 117,-116l0 0c0,-64 -53,-117 -117,-117l-202 0z"/>
  <path class="fil1" d="M644 1123c-130,-47 -264,-130 -299,-274 -34,-146 46,-295 134,-406 48,-61 104,-145 117,-223 23,-139 -26,-157 -39,-220l53 20c56,21 105,57 138,106 39,55 53,122 46,189 -9,82 -49,158 -100,222 -35,44 -71,87 -101,134 -23,36 -44,76 -50,118 -17,108 65,210 135,283l90 96 -124 -45z"/>
  <path class="fil3" d="M416 840c-2,-23 -2,-47 2,-72 9,-56 34,-107 64,-155 32,-50 70,-96 107,-142 39,-49 73,-109 80,-173 2,-25 1,-50 -6,-73 0,0 0,1 0,2 -14,98 -77,194 -138,270 -67,85 -142,211 -115,323 2,7 4,14 6,20z"/>
  <path class="fil1" d="M744 1008c-68,-50 -125,-117 -118,-206 6,-93 79,-179 142,-242 47,-47 92,-101 96,-171 0,-16 -1,-32 -3,-48l-2 -20 17 11c31,20 57,50 71,85 36,86 -7,168 -75,223 -45,37 -98,80 -124,133 -35,72 -18,152 10,224l11 29 -25 -18z"/>
  <path class="fil3" d="M668 779c4,-16 9,-31 17,-45 30,-63 86,-110 139,-153 42,-33 74,-81 65,-134 -19,52 -56,96 -96,136 -49,50 -114,123 -125,196z"/>
  <path class="fil4" d="M1894 1538c-28,0 -54,-6 -77,-17 -23,-11 -40,-25 -53,-43l44 -46c10,12 22,22 37,29 15,8 30,11 45,11 19,0 34,-4 44,-13 10,-9 15,-21 15,-36 0,-31 -21,-46 -63,-46l-58 0 0 -65 55 0c19,0 33,-4 44,-11 11,-7 16,-17 16,-31 0,-15 -5,-27 -15,-35 -11,-7 -25,-11 -42,-11 -30,0 -55,12 -75,37l-42 -43c14,-19 31,-33 53,-44 22,-10 46,-16 72,-16 37,0 67,9 90,27 23,17 34,41 34,73 0,21 -7,39 -20,54 -14,16 -31,26 -52,30 21,3 39,12 54,28 16,16 23,36 23,60 0,32 -12,58 -36,78 -23,20 -55,30 -93,30zm382 -7l-66 0 0 -26c-7,10 -17,18 -30,24 -13,6 -26,9 -40,9 -22,0 -42,-8 -58,-24 -16,-16 -24,-37 -24,-64 0,-28 8,-49 24,-64 16,-15 35,-23 58,-23 14,0 28,3 40,8 13,6 23,14 30,24l0 -35c0,-14 -4,-26 -13,-34 -9,-8 -21,-12 -36,-12 -24,0 -46,9 -66,28l-24 -45c26,-26 60,-38 102,-38 31,0 56,7 75,22 19,16 28,39 28,72l0 178zm-111 -38c21,0 36,-8 45,-25l0 -34c-10,-18 -25,-26 -45,-26 -12,0 -22,4 -30,12 -7,8 -11,18 -11,31 0,13 4,23 11,31 8,7 18,11 30,11zm239 -37c8,16 21,23 38,23 17,0 30,-7 39,-23 9,-16 14,-35 14,-59 0,-22 -5,-41 -14,-57 -9,-15 -22,-23 -39,-23 -17,0 -30,8 -38,23 -9,16 -14,35 -14,57 0,24 5,43 14,59zm38 82c-38,0 -68,-14 -89,-42 -20,-28 -31,-65 -31,-110 0,-67 9,-115 27,-144 18,-29 49,-47 93,-55 30,-5 45,-13 45,-23l67 0c0,38 -31,62 -93,72 -49,8 -76,28 -82,61 18,-26 43,-38 76,-38 34,0 60,13 79,40 19,27 29,59 29,98 0,40 -11,73 -32,100 -21,27 -51,41 -89,41zm274 0c-38,0 -67,-14 -88,-41 -22,-27 -32,-60 -32,-99 0,-39 10,-72 32,-99 21,-27 50,-40 88,-40 38,0 67,13 89,40 21,27 31,60 31,99 0,40 -10,73 -31,100 -22,26 -51,40 -89,40zm0 -59c17,0 30,-7 39,-23 9,-15 13,-35 13,-58 0,-24 -4,-43 -13,-58 -9,-15 -22,-23 -39,-23 -17,0 -30,8 -38,23 -9,16 -13,35 -13,58 0,23 4,43 13,58 8,16 21,23 38,23zm271 52l-67 0 0 -208 -58 0 0 -58 184 0 0 58 -59 0 0 208zm60 7l0 -56c10,0 19,-5 25,-17 6,-11 11,-32 14,-63l13 -137 184 0 0 266 -67 0 0 -208 -57 0 -8 85c-4,47 -14,81 -31,100 -16,20 -41,30 -73,30zm359 -7l-64 0 0 -266 67 0 0 150 82 -150 67 0 0 266 -66 0 0 -156 -86 156zm350 0l-138 0 0 -266 135 0c26,0 47,7 60,19 14,13 21,30 21,49 0,16 -4,29 -13,39 -8,11 -19,18 -33,22 15,3 28,11 37,23 10,12 15,26 15,42 0,21 -7,39 -21,52 -14,13 -35,20 -63,20zm-15 -53c21,0 31,-9 31,-28 0,-8 -3,-15 -8,-20 -5,-5 -13,-8 -23,-8l-57 0 0 56 57 0zm-2 -109c19,0 28,-9 28,-25 0,-8 -2,-14 -7,-18 -5,-5 -12,-7 -21,-7l-55 0 0 50 55 0zm155 -104l66 0 0 93 59 0c30,0 53,8 69,25 17,16 25,37 25,62 0,24 -9,45 -25,61 -17,17 -40,25 -69,25l-125 0 0 -266zm116 147l-50 0 0 65 50 0c11,0 20,-3 26,-9 6,-6 9,-14 9,-23 0,-10 -3,-18 -9,-24 -6,-6 -15,-9 -26,-9zm199 119l-66 0 0 -266 66 0 0 266zm123 0l-63 0 0 -266 66 0 0 150 82 -150 67 0 0 266 -66 0 0 -156 -86 156zm127 -337c-21,27 -48,41 -83,41 -34,0 -61,-14 -82,-41l30 -25c13,19 30,28 52,28 23,0 40,-9 53,-28l30 25zm308 344c-36,0 -65,-13 -88,-39 -22,-26 -33,-60 -33,-101 0,-41 11,-74 33,-100 23,-26 52,-39 88,-39 37,0 65,12 85,35l-33 46c-12,-15 -27,-23 -44,-23 -19,0 -34,8 -45,23 -11,15 -16,34 -16,58 0,24 5,43 16,59 11,15 26,22 45,22 17,0 32,-7 44,-23l33 46c-20,24 -48,36 -85,36zm234 0c-37,0 -67,-13 -90,-39 -22,-25 -34,-59 -34,-101 0,-40 11,-73 33,-99 22,-27 50,-40 86,-40 36,0 64,13 85,39 20,26 30,60 30,103l0 18 -167 0c2,19 8,35 19,47 11,12 26,18 46,18 9,0 20,-2 30,-7 11,-4 20,-10 27,-19l31 40c-25,27 -56,40 -96,40zm46 -164c-1,-16 -5,-31 -13,-43 -8,-13 -21,-19 -39,-19 -17,0 -29,6 -37,19 -9,12 -13,27 -14,43l103 0zm241 164c-28,0 -51,-14 -67,-40l0 134 -66 0 0 -367 66 0 0 34c17,-27 39,-40 67,-40 30,0 54,12 72,37 18,25 27,59 27,102 0,43 -9,77 -27,102 -18,25 -42,38 -72,38zm-21 -59c16,0 29,-7 38,-22 9,-15 14,-35 14,-59 0,-24 -5,-43 -14,-58 -9,-15 -22,-23 -38,-23 -9,0 -18,3 -26,9 -9,6 -16,13 -20,22l0 100c4,9 11,16 20,22 8,6 17,9 26,9zm304 52l-139 0 0 -266 135 0c27,0 47,7 61,19 13,13 20,30 20,49 0,16 -4,29 -12,39 -9,11 -20,18 -33,22 15,3 27,11 37,23 9,12 14,26 14,42 0,21 -7,39 -21,52 -14,13 -35,20 -62,20zm-16 -53c21,0 31,-9 31,-28 0,-8 -3,-15 -8,-20 -5,-5 -13,-8 -23,-8l-57 0 0 56 57 0zm-2 -109c19,0 28,-9 28,-25 0,-8 -2,-14 -7,-18 -5,-5 -12,-7 -21,-7l-55 0 0 50 55 0zm219 162l-64 0 0 -266 66 0 0 150 82 -150 68 0 0 266 -66 0 0 -156 -86 156zm320 7c-37,0 -66,-13 -89,-39 -22,-26 -33,-60 -33,-101 0,-41 11,-74 33,-100 23,-26 52,-39 89,-39 36,0 65,12 84,35l-33 46c-12,-15 -27,-23 -44,-23 -19,0 -34,8 -45,23 -10,15 -16,34 -16,58 0,24 6,43 16,59 11,15 26,22 45,22 17,0 32,-7 44,-23l33 46c-19,24 -48,36 -84,36z"/>
 </g>
</svg>
