<?xml version="1.0" encoding="iso-8859-1"?>
<!-- Generator: Adobe Illustrator 19.0.0, SVG Export Plug-In . SVG Version: 6.00 Build 0)  -->
<svg xmlns="http://www.w3.org/2000/svg" xmlns:xlink="http://www.w3.org/1999/xlink" version="1.1" id="Capa_1" x="0px" y="0px" viewBox="0 0 512 512" style="enable-background:new 0 0 512 512;" xml:space="preserve" width="512px" height="512px">
<g>
	<g>
		<path d="M447.948,72.348h-0.099c-5.521,0-9.95,4.476-9.95,9.999c0,5.522,4.527,9.999,10.049,9.999s9.999-4.476,9.999-9.999    C457.946,76.824,453.469,72.348,447.948,72.348z" fill="#FFFFFF"/>
	</g>
</g>
<g>
	<g>
		<path d="M400.003,72.348h-0.1c-5.521,0-9.949,4.476-9.949,9.999c0,5.522,4.526,9.999,10.049,9.999    c5.521,0,9.999-4.476,9.999-9.999C410.002,76.824,405.524,72.348,400.003,72.348z" fill="#FFFFFF"/>
	</g>
</g>
<g>
	<g>
		<path d="M352.058,72.348h-0.099c-5.521,0-9.949,4.476-9.949,9.999c0,5.522,4.526,9.999,10.048,9.999    c5.521,0,9.999-4.476,9.999-9.999C362.057,76.824,357.579,72.348,352.058,72.348z" fill="#FFFFFF"/>
	</g>
</g>
<g>
	<g>
		<path d="M60.062,118.016c-1.859-1.86-4.438-2.93-7.068-2.93s-5.209,1.07-7.069,2.93s-2.93,4.439-2.93,7.069    s1.069,5.209,2.93,7.069c1.86,1.86,4.439,2.93,7.069,2.93s5.209-1.07,7.068-2.93c1.861-1.86,2.931-4.44,2.931-7.069    C62.993,122.456,61.923,119.876,60.062,118.016z" fill="#FFFFFF"/>
	</g>
</g>
<g>
	<g>
		<path d="M235.969,72.348H63.992c-5.521,0-9.999,4.476-9.999,9.999c0,5.522,4.477,9.999,9.999,9.999h171.977    c5.521,0,9.999-4.476,9.999-9.999C245.968,76.824,241.491,72.348,235.969,72.348z" fill="#FFFFFF"/>
	</g>
</g>
<g>
	<g>
		<path d="M502.001,27.027H9.999C4.477,27.027,0,31.503,0,37.026v437.949c0,5.522,4.477,9.999,9.999,9.999h492.002    c5.521,0,9.999-4.476,9.999-9.999V37.026C512,31.503,507.523,27.027,502.001,27.027z M492.002,115.087H94.989    c-5.521,0-9.999,4.477-9.999,9.999c0,5.522,4.477,9.999,9.999,9.999h397.013v329.891H19.998V47.024h472.005V115.087z" fill="#FFFFFF"/>
	</g>
</g>
<g>
	<g>
		<path d="M405.482,194.042H106.518c-28.945,0-52.494,23.548-52.494,52.494v106.987c0,28.946,23.549,52.494,52.494,52.494h183.581    c5.521,0,9.999-4.476,9.999-9.999c0-5.522-4.477-9.999-9.999-9.999H106.518c-17.919,0-32.496-14.578-32.496-32.496V246.536    c0-17.918,14.577-32.496,32.496-32.496h298.965c17.919,0,32.496,14.578,32.496,32.496v106.987    c0,17.918-14.577,32.496-32.496,32.496h-15.108c-5.521,0-9.999,4.476-9.999,9.999c0,5.522,4.477,9.999,9.999,9.999h15.108    c28.945,0,52.494-23.548,52.494-52.494V246.536C457.976,217.591,434.428,194.042,405.482,194.042z" fill="#FFFFFF"/>
	</g>
</g>
<g>
	<g>
		<path d="M347.949,388.944c-1.86-1.861-4.44-2.92-7.069-2.92c-2.63,0-5.209,1.06-7.069,2.92c-1.859,1.86-2.93,4.439-2.93,7.079    c0,2.63,1.07,5.209,2.93,7.069c1.86,1.86,4.439,2.93,7.069,2.93s5.209-1.07,7.069-2.93c1.859-1.87,2.93-4.439,2.93-7.069    C350.879,393.384,349.809,390.814,347.949,388.944z" fill="#FFFFFF"/>
	</g>
</g>
<g>
	<g>
		<path d="M300.298,326.027h-14.331v-61.993c0-5.522-4.477-9.999-9.999-9.999s-9.999,4.477-9.999,9.999v62.668    c0,10.655,8.668,19.323,19.323,19.323h15.006c5.521,0,9.999-4.477,9.999-9.999C310.297,330.503,305.819,326.027,300.298,326.027z" fill="#FFFFFF"/>
	</g>
</g>
<g>
	<g>
		<path d="M245.29,326.028h-18.65V310.03h9.559c5.521,0,9.999-4.477,9.999-9.999s-4.477-9.999-9.999-9.999h-9.559v-15.998h18.65    v-0.001c5.521,0,9.999-4.477,9.999-9.999s-4.477-9.999-9.999-9.999h-19.326c-10.654,0-19.322,8.668-19.322,19.323v53.345    c0,10.655,8.668,19.323,19.322,19.323h19.326c5.521,0,9.999-4.477,9.999-9.999C255.289,330.504,250.812,326.028,245.29,326.028z" fill="#FFFFFF"/>
	</g>
</g>
<g>
	<g>
		<path d="M181.479,254.035c-5.521,0-9.999,4.477-9.999,9.999v25.997h-19.998v-25.997c0-5.522-4.477-9.999-9.999-9.999    s-9.999,4.477-9.999,9.999v71.992c0,5.522,4.477,9.999,9.999,9.999s9.999-4.477,9.999-9.999v-25.997h19.998v25.997    c0,5.522,4.477,9.999,9.999,9.999c5.521,0,9.999-4.477,9.999-9.999v-71.992C191.478,258.512,187,254.035,181.479,254.035z" fill="#FFFFFF"/>
	</g>
</g>
<g>
	<g>
		<path d="M352.459,254.035h-21.997c-5.521,0-9.999,4.477-9.999,9.999v71.992c0,5.522,4.477,9.999,9.999,9.999    c5.521,0,9.999-4.477,9.999-9.999v-25.997h11.999c15.437,0,27.997-12.56,27.997-27.997    C380.455,266.595,367.896,254.035,352.459,254.035z M352.459,290.031H340.46v-15.998h11.999c4.411,0,7.999,3.589,7.999,7.999    C360.458,286.442,356.869,290.031,352.459,290.031z" fill="#FFFFFF"/>
	</g>
</g>
<g>
</g>
<g>
</g>
<g>
</g>
<g>
</g>
<g>
</g>
<g>
</g>
<g>
</g>
<g>
</g>
<g>
</g>
<g>
</g>
<g>
</g>
<g>
</g>
<g>
</g>
<g>
</g>
<g>
</g>
</svg>
