<?xml version="1.0" encoding="iso-8859-1"?>
<!-- Generator: Adobe Illustrator 19.0.0, SVG Export Plug-In . SVG Version: 6.00 Build 0)  -->
<svg xmlns="http://www.w3.org/2000/svg" xmlns:xlink="http://www.w3.org/1999/xlink" version="1.1" id="Capa_1" x="0px" y="0px" viewBox="0 0 512 512" style="enable-background:new 0 0 512 512;" xml:space="preserve" width="512px" height="512px">
<g>
	<g>
		<path d="M48,149.374c-5.522,0-10,4.478-10,10v1.251c0,5.522,4.478,10,10,10s10-4.478,10-10v-1.251    C58,153.852,53.522,149.374,48,149.374z" fill="#FFFFFF"/>
	</g>
</g>
<g>
	<g>
		<path d="M468.471,44.076c-0.166-0.083-0.334-0.162-0.505-0.235C400.649,14.75,329.333,0,256,0    C182.667,0,111.35,14.75,44.034,43.841C40.371,45.424,38,49.032,38,53.021V116c0,5.523,4.478,10,10,10s10-4.477,10-10V59.64    c46.92-19.56,96.243-31.843,146.181-36.859v28.15c-38.14,4.055-75.617,12.559-111.532,25.336C88.662,77.685,86,81.458,86,85.688    v156.259c0,0.077,0.001,0.153,0.003,0.229c1.747,76.18,3.127,136.352,165.608,215.685c1.385,0.676,2.886,1.014,4.388,1.014    c1.502,0,3.003-0.338,4.388-1.014c162.483-79.333,163.863-139.505,165.61-215.685c0.002-0.077,0.003-0.153,0.003-0.229V85.688    c0-4.23-2.662-8.003-6.648-9.421C383.437,63.49,345.96,54.985,307.818,50.93V22.78C357.757,27.797,407.08,40.079,454,59.64    v182.747c-1.073,46.663-3.888,85.452-28.782,124.303C396.993,410.74,343.161,450.294,256,490.976    C168.839,450.294,115.008,410.74,86.782,366.69C61.888,327.838,59.073,289.049,58,242.386V201.5c0-5.523-4.478-10-10-10    s-10,4.477-10,10v41c0,0.076,0.001,0.153,0.003,0.229c1.104,48.176,4.27,91.566,31.939,134.75    c30.825,48.108,88.615,90.562,181.866,133.601c1.329,0.613,2.76,0.92,4.19,0.92c1.43,0,2.861-0.307,4.19-0.92    c93.253-43.039,151.043-85.491,181.868-133.601c27.67-43.183,30.835-86.574,31.939-134.75c0.002-0.076,0.003-0.153,0.003-0.229    L474,54.531C474,52.23,474,46.84,468.471,44.076z M218.837,195.088c3.696-1.895,5.755-5.844,5.345-9.885V21.157    c9.596-0.59,19.206-0.904,28.817-0.96v75.838c0,5.523,4.478,10,10,10s10-4.477,10-10V20.466c4.943,0.162,9.883,0.388,14.82,0.691    v164.951c-0.001,3.759,2.107,7.2,5.455,8.908c27.588,14.074,44.727,42.039,44.727,72.982c0,27.574-13.735,52.811-36.001,67.848    v-58.208c0-3.513-1.843-6.768-4.855-8.575l-36-21.6c-3.166-1.9-7.123-1.9-10.289,0l-36,21.6c-3.013,1.808-4.855,5.063-4.855,8.575    v58.029c-22.113-15.063-35.747-40.224-35.747-67.669C174.254,237.122,191.337,209.185,218.837,195.088z M406,92.802v149.031    c-0.828,36.087-1.562,67.258-20.416,97.843c-20.5,33.255-61.738,64.476-129.585,98.057    c-67.847-33.581-109.083-64.802-129.583-98.057c-18.854-30.585-19.588-61.756-20.416-97.843V92.802    c31.732-10.745,64.681-18.035,98.181-21.75v109.289c-30.953,18.323-49.928,51.357-49.928,87.657    c0,40.837,24.263,77.61,61.812,93.688c3.09,1.322,6.638,1.005,9.442-0.846c2.804-1.851,4.493-4.987,4.493-8.348V283.3l26-15.601    l26,15.601v69.304c0,3.355,1.683,6.487,4.48,8.339c1.662,1.1,3.585,1.661,5.521,1.661c1.323,0,2.652-0.263,3.907-0.795    c37.72-16.014,62.093-52.837,62.093-93.811c0-36.415-19.076-69.514-50.183-87.806V71.052C341.32,74.767,374.268,82.056,406,92.802    z" fill="#FFFFFF"/>
	</g>
</g>
<g>
	<g>
		<path d="M270.07,129.26c-1.859-1.86-4.439-2.93-7.069-2.93s-5.21,1.07-7.07,2.93c-1.87,1.86-2.93,4.44-2.93,7.07    c0,2.64,1.06,5.21,2.93,7.08c1.86,1.86,4.44,2.92,7.07,2.92s5.21-1.06,7.069-2.92c1.86-1.87,2.931-4.44,2.931-7.08    C273,133.7,271.93,131.12,270.07,129.26z" fill="#FFFFFF"/>
	</g>
</g>
<g>
</g>
<g>
</g>
<g>
</g>
<g>
</g>
<g>
</g>
<g>
</g>
<g>
</g>
<g>
</g>
<g>
</g>
<g>
</g>
<g>
</g>
<g>
</g>
<g>
</g>
<g>
</g>
<g>
</g>
</svg>
