<?xml version="1.0" encoding="UTF-8"?>
<!DOCTYPE svg PUBLIC "-//W3C//DTD SVG 1.1//EN" "http://www.w3.org/Graphics/SVG/1.1/DTD/svg11.dtd">
<!-- Creator: CorelDRAW X8 -->
<svg xmlns="http://www.w3.org/2000/svg" xml:space="preserve" width="100%" height="100%" version="1.1" style="shape-rendering:geometricPrecision; text-rendering:geometricPrecision; image-rendering:optimizeQuality; fill-rule:evenodd; clip-rule:evenodd"
viewBox="0 0 3124 2169"
 xmlns:xlink="http://www.w3.org/1999/xlink">
 <defs>
  <style type="text/css">
   <![CDATA[
    .fil0 {fill:#FEFEFE}
   ]]>
  </style>
 </defs>
 <g id="Слой_x0020_1">
  <metadata id="CorelCorpID_0Corel-Layer"/>
  <path class="fil0" d="M0 1073c0,181 35,325 112,480 23,46 52,90 82,132 20,28 41,54 64,80l89 89 39 33c16,13 34,25 50,38 3,3 7,5 11,8 3,2 6,4 10,7l54 36c8,4 14,8 23,13 31,18 61,34 93,50 32,15 68,30 101,42 9,3 17,6 26,9 98,33 188,55 290,67 20,3 43,6 64,7l51 4c9,0 23,1 32,1l6 0c5,0 10,0 14,0l1 0c238,0 478,-1 716,0l4 0c10,0 21,-1 32,-1 15,-1 34,-4 50,-4 74,-8 143,-16 217,-34 19,-4 37,-8 56,-14 18,-5 37,-11 55,-16 81,-27 134,-50 212,-91l79 -46c22,-13 43,-28 63,-44l80 -64c3,-2 6,-5 9,-8 19,-16 36,-35 54,-53 4,-4 5,-5 9,-9 13,-14 25,-29 38,-43 2,-2 2,-2 4,-4l68 -92c15,-22 28,-45 40,-67 3,-4 4,-8 7,-12 2,-4 4,-7 6,-12 4,-8 7,-15 12,-23l11 -25c9,-16 15,-33 22,-49 28,-75 47,-148 59,-228 5,-44 9,-87 9,-132l0 -23c0,-86 -12,-173 -33,-254 -3,-9 -5,-18 -8,-27 -14,-45 -28,-89 -48,-131 -4,-9 -7,-16 -11,-24 -28,-55 -52,-94 -86,-145 -19,-28 -42,-55 -63,-80l-17 -19c-3,-4 -6,-7 -9,-10 -4,-3 -5,-6 -8,-9l-27 -27c-27,-27 -56,-51 -86,-75 -3,-3 -7,-5 -11,-8 -6,-6 -12,-10 -19,-15 -7,-6 -14,-10 -21,-16 -7,-5 -13,-9 -20,-14 -52,-34 -104,-63 -160,-91 -8,-4 -16,-6 -24,-11 -46,-23 -133,-51 -184,-66 -29,-8 -57,-15 -86,-21 -31,-6 -59,-11 -91,-16 -71,-11 -130,-13 -200,-16 -240,0 -479,0 -719,0 -60,1 -120,7 -179,15 -40,6 -80,14 -120,23 -65,15 -129,34 -190,60 -42,16 -82,35 -122,55l-154 97c-7,5 -14,10 -21,15 -7,6 -13,10 -20,16 -13,10 -25,22 -39,33 -11,9 -52,49 -63,61 -3,3 -5,5 -8,9l-34 37c-40,47 -74,95 -104,147 -5,8 -9,16 -13,23 -26,42 -61,126 -76,174l-17 56c-11,37 -18,80 -23,119 -6,42 -10,86 -10,133l0 0zm1690 -228c-64,6 -100,31 -120,80 -19,48 -14,132 -14,188 0,63 -5,128 28,174 28,40 76,60 145,54 155,-12 133,-153 133,-268 0,-65 6,-125 -27,-174 -27,-39 -78,-60 -145,-54l0 0zm-742 491l93 0 0 -2 0 -483 -93 0 0 485 0 0zm308 -1l106 1 123 -485 -90 0 -84 345c-4,-7 -39,-152 -44,-172 -8,-29 -14,-57 -22,-87 -7,-27 -16,-59 -21,-86l-92 0 124 484 0 0zm1101 1l89 0 26 -102 128 0 24 101 88 0 -116 -484 -118 0c-3,1 -15,53 -16,59 -5,20 -10,41 -15,61 -10,41 -20,80 -30,122l-45 181c-5,21 -11,41 -15,62l0 0zm132 -184l91 0 -45 -195c-5,11 -9,35 -12,48 -4,17 -8,32 -11,49 -4,17 -8,32 -12,48 -3,15 -9,35 -11,50l0 0zm-518 183l84 0 0 -310c2,1 1,1 2,3l106 229c5,13 11,26 17,39 6,12 13,27 18,39l89 1 0 -485 -85 0 0 285c-4,-5 -61,-132 -65,-142 -11,-23 -21,-48 -32,-71 -6,-12 -11,-24 -17,-36 -4,-10 -13,-26 -16,-36l-101 0 0 484 0 0zm-1238 -529l0 374 -143 -247c-7,-12 -46,-76 -49,-82l-96 0 0 484 87 0 0 -343 199 343 89 0 0 -573c-4,1 -63,30 -76,37 -7,3 -9,2 -11,7zm961 121c-36,6 -45,31 -45,69 0,38 0,76 0,113 0,29 -3,86 3,111 8,32 35,45 74,39 35,-5 44,-31 44,-69 0,-38 0,-76 0,-113 0,-29 3,-86 -3,-111 -4,-17 -11,-27 -23,-33 -13,-7 -35,-9 -50,-6l0 0z"/>
 </g>
</svg>
