<?xml version="1.0" encoding="UTF-8"?>
<!DOCTYPE svg PUBLIC "-//W3C//DTD SVG 1.1//EN" "http://www.w3.org/Graphics/SVG/1.1/DTD/svg11.dtd">
<!-- Creator: CorelDRAW X8 -->
<svg xmlns="http://www.w3.org/2000/svg" xml:space="preserve" width="100%" height="100%" version="1.1" style="shape-rendering:geometricPrecision; text-rendering:geometricPrecision; image-rendering:optimizeQuality; fill-rule:evenodd; clip-rule:evenodd"
viewBox="0 0 12513 2457"
 xmlns:xlink="http://www.w3.org/1999/xlink">
 <defs>
  <style type="text/css">
   <![CDATA[
    .fil0 {fill:#FEFEFE}
   ]]>
  </style>
 </defs>
 <g id="Слой_x0020_1">
  <metadata id="CorelCorpID_0Corel-Layer"/>
  <path id="path2533" class="fil0" d="M11774 1497c0,238 -148,356 -300,356 -148,0 -297,-118 -297,-356 0,-231 145,-359 297,-359 155,0 300,128 300,359zm-5711 289c-9,177 -121,266 -264,266 -114,0 -197,-79 -197,-158 0,-114 73,-151 213,-183 86,-20 172,-43 248,-82l0 157zm781 130c-91,-13 -125,-51 -122,-252l-1 -418c0,-544 -491,-712 -835,-712 -169,0 -625,43 -790,334 -61,108 -86,179 -91,305l584 0c42,-124 141,-190 245,-190 89,0 173,46 224,133 8,13 12,28 12,44 0,114 -75,137 -165,154 -338,66 -975,45 -975,611 0,345 272,531 607,531 214,0 403,-38 543,-204l16 20c62,59 171,150 515,150l233 0 0 -506zm978 -890c129,0 249,107 249,299l-496 0c0,-192 120,-299 247,-299zm889 603c42,-641 -425,-1085 -907,-1085 -545,0 -951,405 -951,939 0,545 418,973 1046,973 356,0 589,-53 795,-154l3 -467c-209,105 -474,160 -663,160 -282,0 -472,-177 -459,-366l1136 0zm-5510 664c96,52 301,163 733,163 847,0 917,-595 917,-713 0,-377 -326,-563 -502,-664 -218,-124 -356,-200 -356,-318 0,-66 59,-152 197,-152 207,0 429,183 557,304l0 -640c-149,-138 -401,-273 -713,-273 -477,0 -823,287 -823,744 0,100 0,380 387,612 308,183 408,242 408,342 0,49 -37,149 -252,149 -201,0 -387,-83 -553,-197l0 643zm-1572 -1903c-122,-58 -257,-90 -401,-90 -513,0 -929,416 -929,929 0,179 51,346 139,488l-1 1 1561 -828 -1 414 -1585 843c-253,-225 -412,-553 -412,-918 0,-679 550,-1228 1228,-1228 254,0 491,77 687,209l26 18 -312 162zm-1115 1839l27 18c196,133 433,210 687,210 679,0 1229,-550 1229,-1228 0,-366 -160,-694 -413,-919l-1576 837 0 414 1550 -822c89,143 140,310 140,490 0,513 -417,929 -930,929 -144,0 -280,-33 -402,-92l-312 163zm9860 -980l0 -584c-147,-81 -327,-130 -535,-130 -683,0 -1038,527 -1038,959 0,438 359,962 1035,962 210,0 390,-50 538,-133l0 -584c0,0 -263,105 -416,105 -280,0 -419,-175 -419,-353 0,-175 138,-350 419,-350 156,0 416,108 416,108zm2139 241c0,-441 -363,-955 -1035,-955 -683,0 -1039,528 -1039,959 0,438 359,962 1035,962 676,0 1039,-521 1039,-966z"/>
 </g>
</svg>
