<?xml version="1.0" encoding="UTF-8"?>
<!DOCTYPE svg PUBLIC "-//W3C//DTD SVG 1.1//EN" "http://www.w3.org/Graphics/SVG/1.1/DTD/svg11.dtd">
<!-- Creator: CorelDRAW X8 -->
<svg xmlns="http://www.w3.org/2000/svg" xml:space="preserve" width="100%" height="100%" version="1.1" style="shape-rendering:geometricPrecision; text-rendering:geometricPrecision; image-rendering:optimizeQuality; fill-rule:evenodd; clip-rule:evenodd"
viewBox="0 0 21000 21000"
 xmlns:xlink="http://www.w3.org/1999/xlink">
 <defs>
  <style type="text/css">
   <![CDATA[
    .fil0 {fill:none}
    .fil1 {fill:#FEFEFE}
   ]]>
  </style>
 </defs>
 <g id="Слой_x0020_1">
  <metadata id="CorelCorpID_0Corel-Layer"/>
  <rect class="fil0" width="21000" height="21000"/>
  <path class="fil1" d="M3500 8913l4550 0c194,0 350,-157 350,-350 0,-193 -156,-350 -350,-350l-4550 0c-194,0 -350,157 -350,350 0,193 156,350 350,350zm15425 -8026l-11949 -24c-1145,0 -2076,931 -2076,2075l0 1794 -2824 6c-1145,0 -2076,931 -2076,2075l0 7399c0,1145 931,2076 2076,2076l2124 0 0 3500c0,144 89,274 224,326 41,16 84,24 126,24 97,0 191,-41 259,-115l3396 -3736 5820 -24c1144,0 2075,-931 2075,-2075l0 -40 1841 2026c68,74 162,114 259,114 42,0 85,-8 126,-23 135,-53 224,-182 224,-327l0 -3500 375 0c1144,0 2075,-931 2075,-2075l0 -7400c0,-1144 -931,-2075 -2075,-2076zm-3525 13301c0,758 -617,1375 -1377,1375l-5974 24c-98,1 -192,42 -258,115l-2891 3180 0 -2945c0,-193 -156,-350 -350,-350l-2474 0c-759,0 -1376,-617 -1376,-1375l0 -7399c0,-759 617,-1376 1376,-1376l3174 -6c0,0 0,0 0,0 0,0 0,0 1,0l8774 -19c758,0 1375,617 1375,1376l0 6454 0 946zm4900 -3826c0,759 -617,1375 -1375,1375l-725 0c-194,0 -350,157 -350,350l0 2945 -1750 -1925 0 -6319c0,-1144 -931,-2075 -2076,-2075l-8424 17 0 -1792c0,-759 617,-1376 1375,-1376l11949 25c1,0 1,0 1,0 758,0 1375,617 1375,1375l0 7400 0 0zm-7700 2051l-9100 0c-194,0 -350,157 -350,350 0,193 156,350 350,350l9100 0c194,0 350,-157 350,-350 0,-193 -156,-350 -350,-350zm0 -2100l-9100 0c-194,0 -350,157 -350,350 0,193 156,350 350,350l9100 0c194,0 350,-157 350,-350 0,-193 -156,-350 -350,-350z"/>
 </g>
</svg>
