<?xml version="1.0" encoding="UTF-8"?>
<!DOCTYPE svg PUBLIC "-//W3C//DTD SVG 1.1//EN" "http://www.w3.org/Graphics/SVG/1.1/DTD/svg11.dtd">
<!-- Creator: CorelDRAW X8 -->
<svg xmlns="http://www.w3.org/2000/svg" xml:space="preserve" width="100%" height="100%" version="1.1" style="shape-rendering:geometricPrecision; text-rendering:geometricPrecision; image-rendering:optimizeQuality; fill-rule:evenodd; clip-rule:evenodd"
viewBox="0 0 4628 5537"
 xmlns:xlink="http://www.w3.org/1999/xlink">
 <defs>
  <style type="text/css">
   <![CDATA[
    .str0 {stroke:#373435;stroke-width:20}
    .fil1 {fill:#FEFEFE}
    .fil0 {fill:#373435}
   ]]>
  </style>
    <clipPath id="id0">
     <path d="M0 0l4628 0 0 5537 -4628 0 0 -5537z"/>
    </clipPath>
 </defs>
 <g id="Слой_x0020_1">
  <metadata id="CorelCorpID_0Corel-Layer"/>
  <rect class="fil0 str0" x="336" y="336" width="3955" height="4865"/>
  <g id="_1525497794544">
   <g style="clip-path:url(#id0)">
    <image x="0" y="0" width="4628" height="5537" xlink:href="15620-comment-bg-2b3cf9ca-05b0-4e06-b0e2-dd394b4a199d_Images\15620-comment-bg-2b3cf9ca-05b0-4e06-b0e2-dd394b4a199d_ImgID1.png"/>
   </g>
  </g>
  <path class="fil1" d="M336 1986c83,-3 477,-173 535,-95 62,128 67,271 151,380 0,1 3,3 3,4 312,308 55,864 -67,1209 -212,450 -745,1376 134,1559 107,23 166,-43 243,-43 254,1 902,233 1034,198 -3,-23 -1,-10 -16,-22 17,-16 53,-15 82,-17 238,-18 1531,-108 1592,-197 59,-85 -121,-233 -149,-322 -26,-80 413,-404 413,-449 0,-441 10,-3580 -541,-3644 -67,6 -286,264 -381,281 -378,67 -1418,-535 -1607,-489 -132,31 -550,32 -632,99 -124,100 -291,218 -404,320 -19,17 -148,317 -150,333 -9,50 52,346 37,381 -62,111 -277,493 -277,514z"/>
 </g>
</svg>
