<?xml version="1.0" encoding="UTF-8"?>
<!DOCTYPE svg PUBLIC "-//W3C//DTD SVG 1.1//EN" "http://www.w3.org/Graphics/SVG/1.1/DTD/svg11.dtd">
<!-- Creator: CorelDRAW X8 -->
<svg xmlns="http://www.w3.org/2000/svg" xml:space="preserve" width="100%" height="100%" version="1.1" style="shape-rendering:geometricPrecision; text-rendering:geometricPrecision; image-rendering:optimizeQuality; fill-rule:evenodd; clip-rule:evenodd"
viewBox="0 0 8171 2634"
 xmlns:xlink="http://www.w3.org/1999/xlink">
 <defs>
  <style type="text/css">
   <![CDATA[
    .fil0 {fill:#3D3950}
    .fil1 {fill:#373435;fill-rule:nonzero}
   ]]>
  </style>
 </defs>
 <g id="Слой_x0020_1">
  <metadata id="CorelCorpID_0Corel-Layer"/>
  <g id="_2292795920400">
   <path class="fil0" d="M976 258l0 -258 331 0c732,0 1327,582 1327,1317 0,734 -595,1317 -1327,1317l-331 0 0 -258c-38,-12 -75,-28 -112,-44 -17,-8 -34,-16 -51,-24 -2,0 -4,-2 -6,-2l-185 181 -478 -477 185 -183c-1,-2 -2,-4 -3,-6 -8,-17 -16,-34 -24,-50 -16,-37 -32,-74 -44,-113 -72,0 -144,0 -215,0l-43 0 0 -682 258 0c9,-30 20,-60 32,-88 7,-17 16,-33 24,-49 4,-9 10,-20 15,-31l-182 -186 477 -478 183 185c2,-1 4,-2 6,-3 17,-8 33,-16 50,-24 37,-16 75,-32 113,-44l0 0zm-349 124l-246 245 149 149 -9 25c-5,14 -12,28 -19,40 -9,17 -18,34 -28,52 -22,44 -43,90 -56,137 -5,16 -8,31 -11,46 -4,17 -8,33 -21,46 -23,25 -58,25 -89,24 -43,0 -86,-1 -129,-2l0 346 222 0 8 34c17,79 47,158 84,230 13,25 30,50 41,76l11 27 -148 149 241 247 149 -149 25 9c28,9 51,27 77,40 47,24 101,49 152,64 16,4 31,7 46,10 17,4 33,8 46,21 25,23 25,58 24,89 0,43 -1,86 -2,129 103,1 208,2 310,-9 117,-13 222,-43 329,-90 256,-111 464,-320 580,-574 138,-301 136,-647 1,-949 -28,-64 -61,-123 -102,-180 -30,-44 -65,-85 -99,-125 -90,-106 -250,-215 -376,-271 -109,-47 -214,-78 -332,-91 -103,-11 -209,-10 -313,-9l0 168 -1 48 -28 10c-54,19 -111,31 -163,54 -50,22 -95,50 -144,73l-24 12 -21 -17c-28,-22 -54,-52 -79,-77 -16,-17 -32,-34 -49,-51 -1,-2 -3,-4 -6,-6l0 0zm688 1635c-168,-7 -327,-60 -455,-170 -113,-96 -190,-227 -224,-371 -54,-236 14,-482 186,-654 134,-135 305,-198 493,-205l45 -2 0 168 -41 2c-81,3 -147,14 -220,47 -64,29 -108,60 -157,110 -25,24 -42,45 -63,73 -106,143 -121,359 -47,520 43,93 101,159 183,219 86,65 197,91 304,95l41 2 0 168 -45 -2 0 0zm0 -816c3,-2 6,-5 8,-8 23,-21 44,-42 66,-64 62,-61 124,-122 185,-183 60,-60 120,-119 179,-179 33,-34 67,-67 99,-102l31 -34 117 123 -33 29c-50,46 -99,97 -147,145 -45,46 -89,91 -134,137 -46,46 -93,91 -139,137 -30,29 -59,59 -88,89 -9,9 -17,18 -26,27 13,13 26,26 38,40 37,37 75,73 113,110 33,32 67,65 101,98 23,24 48,48 69,73l26 31 -111 109 -30 -25c-25,-21 -50,-46 -73,-70 -33,-33 -66,-67 -99,-101 -36,-37 -73,-75 -109,-112 -14,-13 -28,-27 -41,-39 -1,0 -1,0 -1,-1 -14,14 -28,30 -37,41 -17,19 -36,38 -57,53l-30 22 -102 -108 20 -29c15,-21 36,-40 56,-58 10,-9 25,-22 37,-35 -13,-14 -30,-29 -41,-38 -19,-17 -38,-36 -53,-57l-22 -30 108 -102 29 20c21,15 40,36 58,56 9,9 21,23 33,35l0 0zm746 197l0 -164 154 -1 0 168 -93 0 -61 -3 0 0zm-829 -828l2 -153 166 0 2 153 -170 0zm1 1645l1 -154 166 0 1 154 -168 0 0 0z"/>
   <path class="fil1" d="M3645 1185l-117 0c-12,0 -21,-5 -27,-16l-202 -351 -109 0 0 336c0,8 -3,15 -9,22 -6,6 -13,9 -22,9l-109 0c-9,0 -16,-3 -22,-9 -6,-7 -10,-14 -10,-22l0 -827c0,-8 4,-16 10,-22 6,-5 13,-8 22,-8l301 0c70,0 131,17 183,51 35,24 63,54 83,90 19,37 29,76 29,119 0,43 -10,83 -29,119 -31,56 -78,96 -142,120l197 342c4,5 5,10 5,16 0,5 -1,10 -5,15 -5,11 -14,16 -27,16zm-294 -527c34,0 62,-7 85,-23 25,-18 38,-44 38,-78 0,-34 -13,-60 -38,-78 -23,-16 -51,-24 -85,-24l-161 0 0 203 161 0zm1054 527l-523 0c-8,0 -16,-3 -22,-9 -6,-7 -9,-14 -9,-22l0 -827c0,-8 3,-16 9,-22 6,-5 14,-8 22,-8l523 0c8,0 16,3 22,8 6,6 9,14 9,22l0 97c0,9 -3,16 -9,22 -6,6 -14,9 -22,9l-382 0 0 202 346 0c9,0 16,3 22,9 6,7 9,14 9,23l0 96c0,9 -3,16 -9,22 -6,7 -13,10 -22,10l-346 0 0 208 382 0c8,0 16,3 22,9 6,6 9,14 9,23l0 97c0,8 -3,15 -9,22 -6,6 -14,9 -22,9zm1071 0l-106 0c-9,0 -16,-3 -22,-9 -7,-7 -10,-14 -10,-22l0 -559 -242 381c-6,10 -15,15 -26,15 -11,0 -20,-5 -26,-15l-242 -381 0 559c0,8 -3,15 -10,22 -6,6 -13,9 -22,9l-107 0c-9,0 -16,-3 -22,-9 -6,-7 -9,-14 -9,-22l0 -827c0,-8 3,-16 9,-22 6,-5 13,-8 22,-8l115 0c11,0 20,4 26,14l266 416 266 -416c6,-10 15,-14 26,-14l114 0c9,0 16,3 22,8 7,6 10,14 10,22l0 827c0,8 -3,15 -10,22 -6,6 -13,9 -22,9zm646 14c-64,0 -123,-12 -177,-35 -56,-24 -104,-59 -144,-107 -36,-42 -62,-92 -80,-148 -17,-53 -26,-109 -26,-168 0,-60 9,-116 26,-168 18,-57 44,-107 80,-150 40,-46 88,-82 144,-106 54,-23 113,-35 177,-35 64,0 123,12 177,35 56,24 104,60 144,106 35,43 62,93 80,150 17,52 25,108 25,168 0,59 -8,115 -25,168 -18,56 -45,106 -80,148 -40,48 -88,83 -144,107 -54,23 -113,35 -177,35zm0 -157c85,0 151,-33 197,-99 38,-54 57,-122 57,-202 0,-81 -19,-149 -57,-203 -47,-66 -113,-99 -197,-99 -85,0 -151,33 -198,99 -38,54 -57,122 -57,203 0,81 19,148 57,202 47,66 113,99 198,99zm1256 143l-108 0c-12,0 -21,-5 -27,-14l-359 -564 0 547c0,8 -3,15 -9,22 -7,6 -14,9 -22,9l-108 0c-8,0 -16,-3 -22,-9 -6,-7 -9,-14 -9,-22l0 -827c0,-8 3,-16 9,-22 6,-5 14,-8 22,-8l108 0c11,0 20,4 27,14l359 563 0 -547c0,-8 4,-16 10,-22 6,-5 13,-8 22,-8l107 0c9,0 16,3 22,8 6,6 9,14 9,22l0 827c0,8 -3,15 -9,22 -6,6 -13,9 -22,9zm537 0l-110 0c-9,0 -16,-3 -22,-9 -6,-7 -9,-14 -9,-22l0 -699 -194 0c-9,0 -16,-3 -22,-9 -6,-6 -9,-13 -9,-22l0 -97c0,-8 3,-16 9,-22 6,-5 13,-8 22,-8l560 0c9,0 16,3 22,8 6,6 9,14 9,22l0 97c0,9 -3,16 -9,22 -6,6 -13,9 -22,9l-195 0 0 699c0,8 -2,15 -8,22 -6,6 -14,9 -22,9z"/>
   <path class="fil1" d="M3839 2338l-124 0c-16,0 -26,-8 -30,-24l-137 -511 -19 -82 -17 82 -138 511c-4,16 -14,24 -30,24l-124 0c-16,0 -26,-8 -30,-24 -149,-553 -223,-831 -223,-835 0,-6 2,-12 7,-18 6,-8 14,-12 24,-12l114 0c7,0 13,3 19,7 5,4 9,10 11,17l129 511 13 63 14 -62 137 -513c4,-15 14,-23 30,-23l129 0c15,0 25,8 30,23l137 512 14 63c9,-41 56,-233 142,-574 4,-16 14,-24 31,-24l113 0c10,0 18,4 25,12 4,5 6,11 6,18 0,4 -74,282 -222,835 -5,16 -15,24 -31,24zm765 -382l-102 -291 -103 291 205 0zm-332 361c-6,14 -15,21 -30,21l-116 0c-13,0 -21,-5 -26,-14 -2,-5 -4,-10 -4,-17 0,-6 3,-16 9,-31l293 -806c2,-7 5,-11 10,-15 6,-4 12,-6 18,-6l151 0c14,0 24,7 29,21l293 806c5,15 8,25 8,31 0,7 -1,12 -3,17 -5,9 -14,14 -26,14l-117 0c-14,0 -24,-7 -29,-21l-71 -202 -318 0 -71 202zm973 21l-110 0c-9,0 -16,-4 -22,-10 -6,-6 -9,-13 -9,-22l0 -698 -194 0c-9,0 -16,-3 -22,-9 -7,-6 -10,-13 -10,-22l0 -97c0,-9 3,-16 10,-22 6,-6 13,-9 22,-9l560 0c8,0 16,3 22,9 6,6 9,13 9,22l0 97c0,9 -3,16 -9,22 -6,6 -14,9 -22,9l-195 0 0 698c0,9 -3,16 -9,22 -6,6 -13,10 -21,10zm751 14c-64,0 -123,-12 -177,-35 -56,-24 -104,-60 -144,-107 -35,-43 -62,-92 -80,-148 -17,-53 -25,-109 -25,-168 0,-60 8,-116 25,-169 18,-56 45,-106 80,-149 40,-47 88,-82 144,-106 54,-23 113,-35 177,-35 50,0 99,7 149,20 51,14 97,33 137,58 10,7 15,16 15,27 0,6 -2,11 -5,16l-49 84c-5,10 -15,15 -27,15 -6,0 -12,-2 -17,-6 -27,-18 -59,-33 -97,-43 -35,-10 -71,-14 -107,-14 -41,0 -78,8 -110,24 -34,17 -63,42 -86,74 -38,55 -57,123 -57,204 0,80 19,148 57,202 46,66 112,99 197,99 35,0 71,-4 106,-14 38,-10 70,-24 97,-43 5,-4 11,-6 17,-6 12,0 22,5 27,16l49 83c3,6 5,11 5,16 0,11 -5,20 -15,26 -40,25 -86,45 -137,59 -50,13 -99,20 -149,20zm1142 -14l-109 0c-9,0 -16,-4 -22,-10 -6,-6 -9,-13 -9,-22l0 -336 -356 0 0 336c0,9 -3,16 -9,22 -6,6 -14,10 -22,10l-109 0c-9,0 -16,-4 -23,-10 -6,-6 -9,-13 -9,-22l0 -826c0,-9 3,-16 9,-22 7,-6 14,-9 23,-9l109 0c8,0 16,3 22,9 6,6 9,13 9,22l0 330 356 0 0 -330c0,-9 3,-16 9,-22 6,-6 13,-9 22,-9l109 0c9,0 16,3 22,9 7,6 10,13 10,22l0 826c0,9 -3,16 -10,22 -6,6 -13,10 -22,10z"/>
  </g>
 </g>
</svg>
