<?xml version="1.0" encoding="UTF-8"?>
<!DOCTYPE svg PUBLIC "-//W3C//DTD SVG 1.1//EN" "http://www.w3.org/Graphics/SVG/1.1/DTD/svg11.dtd">
<!-- Creator: CorelDRAW X8 -->
<svg xmlns="http://www.w3.org/2000/svg" xml:space="preserve" width="100%" height="100%" version="1.1" style="shape-rendering:geometricPrecision; text-rendering:geometricPrecision; image-rendering:optimizeQuality; fill-rule:evenodd; clip-rule:evenodd"
viewBox="0 0 4336 1459"
 xmlns:xlink="http://www.w3.org/1999/xlink">
 <defs>
  <style type="text/css">
   <![CDATA[
    .fil0 {fill:#FEFEFE}
    .fil1 {fill:#FEFEFE;fill-rule:nonzero}
   ]]>
  </style>
 </defs>
 <g id="Слой_x0020_1">
  <metadata id="CorelCorpID_0Corel-Layer"/>
  <g id="_1621401514688">
   <path class="fil0" d="M513 1413c3,-11 9,-27 13,-38 47,-134 94,-276 140,-410 27,-76 45,-71 129,-72l0 405 -70 0 1 161 563 0 0 -305 -115 0 -35 144 -10 0 0 0 -12 0c-1,1 -4,1 -8,1l-19 -1 -48 0 0 -123 91 0 0 -156 -91 0 0 -63 0 -28 0 0 0 -35 91 0 0 0 3 0 34 135 119 -1c0,0 0,-1 0,-2l0 -289 -260 0c151,-46 260,-190 260,-360 0,-208 -163,-376 -365,-376 -202,0 -365,168 -365,376 0,15 1,30 3,45l-83 0 -37 0 -39 155 -8 0 0 1 -76 0 0 -405 0 -1 50 0 18 0 0 -156 -386 0c0,25 -3,146 1,156l64 0 0 60 0 0 0 320 0 26 0 0 0 0 -58 0c-3,0 -4,2 -5,3l0 166c0,7 0,15 0,22l0 120c0,2 1,3 1,4 12,5 56,0 73,2l120 422c7,25 14,47 20,71 5,17 15,59 21,71l259 1 16 -46zm306 -677l-197 0 -51 0 0 0 -2 0 0 -34c0,-40 0,-105 0,-158l0 -80c30,130 126,234 250,272zm221 -322l0 -33 -236 0c-5,16 7,90 12,108 8,34 16,62 29,93 3,8 6,12 16,13l125 -1c10,0 11,-6 15,-15 6,-16 10,-30 16,-45 11,1 31,16 68,-9 62,-41 48,-128 -12,-124 -14,1 -21,10 -33,13zm-62 -86c18,-17 14,-48 1,-63 -11,-14 -40,-25 -30,-48 9,-23 29,-24 28,-57 -4,2 -12,15 -20,21 -9,6 -17,10 -25,17 -17,17 -16,44 -2,62 11,15 38,26 31,49 -7,23 -31,27 -29,57 7,-2 1,1 6,-5 16,-19 25,-18 40,-33zm-68 7c13,-13 10,-37 1,-48 -9,-11 -30,-19 -23,-37 7,-17 22,-18 21,-43 -3,2 -9,12 -15,16 -6,5 -13,8 -18,13 -14,13 -13,33 -3,47 9,12 29,19 24,37 -5,17 -24,20 -22,43 5,-2 1,1 5,-4 12,-15 18,-13 30,-24zm111 183c8,-25 16,-64 18,-94 16,-5 37,-6 49,6 38,37 -26,115 -67,88zm-633 375l-51 0c1,12 8,29 11,42 3,14 7,28 11,42l61 227c1,5 2,7 3,11 0,1 1,4 1,5l3 5c10,-36 43,-139 57,-183 9,-26 24,-67 27,-94 6,-46 -24,-53 -64,-55l-1 -157 -57 0 -1 157z"/>
   <path class="fil1" d="M2064 1426l-369 -631c-6,-10 -22,-10 -28,0l-74 119c-6,8 -10,20 -10,33l0 452c0,27 -21,47 -48,47 -26,0 -47,-20 -47,-47l0 -1340c0,-26 21,-47 47,-47 27,0 48,21 48,47l0 654c0,31 14,35 30,8l424 -688c9,-13 21,-21 35,-21 33,0 53,37 37,64l-358 584c-9,12 -9,28 0,41l387 682c14,25 4,63 -37,63 -14,0 -29,-8 -37,-20zm232 -330l0 -733c0,-105 24,-195 75,-261 49,-63 129,-102 238,-102 109,0 191,39 242,102 51,66 76,156 76,261l0 733c0,105 -25,195 -76,258 -51,66 -133,105 -242,105 -109,0 -189,-39 -238,-105 -51,-63 -75,-153 -75,-258zm94 -740l0 746c0,156 61,271 219,271 158,0 223,-115 223,-271l0 -746c0,-155 -65,-270 -223,-270 -158,0 -219,115 -219,270zm807 355l307 0c25,0 43,18 43,43 0,25 -18,43 -43,43l-307 0c-12,0 -21,8 -21,20l0 582c0,27 -20,47 -47,47 -26,0 -47,-20 -47,-47l0 -1325c0,-35 27,-62 62,-62l440 0c25,0 43,19 43,43 0,25 -18,43 -43,43l-387 0c-12,0 -21,9 -21,21l0 571c0,13 9,21 21,21zm688 -35l328 0c25,0 43,19 43,43 0,25 -18,43 -43,43l-328 0c-12,0 -20,8 -20,21l0 557c0,12 8,20 20,20l408 0c25,0 43,19 43,43 0,25 -18,43 -43,43l-461 0c-35,0 -61,-26 -61,-61l0 -1311c0,-35 26,-62 61,-62l461 0c25,0 43,19 43,43 0,25 -18,43 -43,43l-408 0c-12,0 -20,9 -20,21l0 537c0,12 8,20 20,20z"/>
  </g>
 </g>
</svg>
