<?xml version="1.0" encoding="UTF-8"?>
<!DOCTYPE svg PUBLIC "-//W3C//DTD SVG 1.1//EN" "http://www.w3.org/Graphics/SVG/1.1/DTD/svg11.dtd">
<!-- Creator: CorelDRAW X8 -->
<svg xmlns="http://www.w3.org/2000/svg" xml:space="preserve" width="100%" height="100%" version="1.1" style="shape-rendering:geometricPrecision; text-rendering:geometricPrecision; image-rendering:optimizeQuality; fill-rule:evenodd; clip-rule:evenodd"
viewBox="0 0 4435 3174"
 xmlns:xlink="http://www.w3.org/1999/xlink">
 <defs>
  <style type="text/css">
   <![CDATA[
    .fil0 {fill:#C5383D}
    .fil4 {fill:#FDBE38;fill-rule:nonzero}
    .fil13 {fill:#D7A23C;fill-rule:nonzero}
    .fil8 {fill:#CBCDCF;fill-rule:nonzero}
    .fil5 {fill:#CB6B41;fill-rule:nonzero}
    .fil1 {fill:#BEC0C4;fill-rule:nonzero}
    .fil9 {fill:#BABBC0;fill-rule:nonzero}
    .fil2 {fill:#B5393D;fill-rule:nonzero}
    .fil3 {fill:#A6393C;fill-rule:nonzero}
    .fil14 {fill:#A95E3F;fill-rule:nonzero}
    .fil6 {fill:#9E383B;fill-rule:nonzero}
    .fil11 {fill:#9A383A;fill-rule:nonzero}
    .fil7 {fill:#923739;fill-rule:nonzero}
    .fil10 {fill:#9FA4AD;fill-rule:nonzero}
    .fil12 {fill:#8D3638;fill-rule:nonzero}
    .fil15 {fill:#3D4589;fill-rule:nonzero}
   ]]>
  </style>
 </defs>
 <g id="Слой_x0020_1">
  <metadata id="CorelCorpID_0Corel-Layer"/>
  <g id="_1621488682432">
   <path class="fil0" d="M1862 2289c4,-18 14,-44 20,-61 77,-217 153,-448 228,-665 43,-124 72,-115 209,-117l-1 657 -113 0 2 260 912 -1 0 -493 -187 0 -56 234 -17 0 0 0 -19 0c-2,1 -6,0 -14,0l-29 0 -79 0 0 -199 148 -1 0 -252 -148 0 0 -103 0 -45 0 0 0 -56 149 0 0 0 4 0 55 218 192 -1c0,-1 0,-2 1,-3l0 -469 -421 0c243,-75 421,-308 421,-583 0,-336 -265,-609 -592,-609 -326,0 -591,273 -591,609 0,24 2,49 4,72l-133 0 -60 0 -63 253 -13 0 0 0 -124 0 0 -656 0 -1 82 0 29 0 0 -252 -626 0c0,40 -4,236 2,252l103 0 0 97 0 1 0 518 0 41 0 0 0 0 -94 0c-4,1 -7,3 -7,6l0 268c0,12 0,24 0,36l0 195c0,2 1,4 2,5 18,9 89,0 117,3l195 685c11,40 22,76 33,115 7,27 24,96 33,115l420 0 26 -73zm495 -1097l-319 0 -83 1 0 -1 -2 0 0 -55c-1,-64 -1,-170 0,-255l0 -130c49,210 204,378 404,440zm358 -522l1 -54 -383 1c-8,25 12,146 19,175 13,55 27,101 47,151 5,13 10,20 27,20l201 0c17,-1 19,-11 25,-25 10,-25 17,-49 26,-73 17,2 50,26 110,-14 101,-66 78,-208 -19,-202 -23,1 -34,16 -54,21zm-100 -138c29,-28 22,-78 2,-102 -18,-23 -65,-41 -49,-79 15,-37 47,-38 46,-92 -7,4 -21,24 -34,34 -13,10 -26,16 -39,28 -28,27 -27,70 -5,100 19,25 62,42 51,80 -11,37 -50,43 -46,91 10,-2 1,2 9,-8 26,-31 40,-28 65,-52zm-110 10c21,-21 16,-59 1,-77 -14,-17 -49,-31 -37,-60 11,-27 36,-28 34,-69 -5,3 -15,18 -25,26 -10,7 -20,12 -29,21 -22,20 -20,53 -4,75 14,19 47,32 38,60 -8,28 -38,33 -34,70 7,-3 1,1 7,-7 19,-23 30,-21 49,-39zm180 298c12,-41 25,-105 28,-153 27,-8 60,-10 80,10 61,59 -42,186 -108,143zm-1026 606l-82 0c2,20 12,48 17,68 5,23 12,45 18,68l99 368c2,8 3,12 4,19 1,1 2,6 3,8l5 8c15,-59 70,-227 92,-298 13,-42 38,-108 43,-151 10,-76 -38,-86 -104,-90l-1 -253 -92 0 -2 253z"/>
   <path class="fil1" d="M3202 2294l-6 0 0 -16c3,4 4,8 5,12l0 0 0 0c1,2 1,3 1,4z"/>
   <polygon class="fil2" points="4435,2895 3849,2895 3849,2850 4400,2850 4183,2410 4378,2015 4435,2015 4218,2455 "/>
   <path class="fil3" d="M621 2895l-586 0 22 -45 564 0 0 45zm486 -601l-35 0 0 -279 35 0 0 279z"/>
   <polygon class="fil4" points="4400,1970 3328,1970 3328,2850 4400,2850 4183,2410 "/>
   <polygon class="fil5" points="3814,2251 3328,1970 3328,2850 3814,2850 "/>
   <polygon class="fil4" points="0,1970 1072,1970 1072,2850 0,2850 217,2410 "/>
   <polygon class="fil5" points="586,2251 1072,1970 1072,2850 586,2850 "/>
   <path class="fil2" d="M3849 3174l-1659 0 0 -644c15,1 31,1 46,1 18,0 35,0 53,-1 34,0 68,-1 102,-1 16,-1 33,-1 49,-2 33,-1 66,-3 97,-5 384,-21 670,-82 707,-157 1,-2 2,-4 3,-6l0 -2c1,-3 1,-5 1,-8l0 0c0,-3 0,-6 -1,-8l1 0 0 -47 80 0 0 556 35 0 0 45 486 0 0 279z"/>
   <path class="fil3" d="M2190 3174l-1569 0 0 -279 486 0 0 -601 72 0c0,2 0,3 0,4 0,19 16,38 46,55 11,96 435,173 965,177l0 644z"/>
   <path class="fil6" d="M2236 2531c-15,0 -31,0 -46,-1l0 -50c0,0 0,0 1,0l0 0 0 0c0,0 0,0 0,0 518,0 945,-70 1005,-160 4,-7 6,-14 6,-21l0 0c0,-1 0,-1 0,-1l0 0c0,-1 0,-2 0,-4l46 0 0 47 -1 0c1,2 1,5 1,8l0 0c0,3 0,5 -1,8l0 2c-1,2 -2,4 -3,6 -37,75 -323,136 -707,157 -31,2 -64,4 -97,5 -16,1 -33,1 -49,2 -34,0 -68,1 -102,1 -18,1 -35,1 -53,1z"/>
   <path class="fil7" d="M2190 2530c-530,-4 -954,-81 -965,-177 128,74 512,127 965,127l0 50z"/>
   <g>
    <path class="fil8" d="M2191 2480l0 0c518,0 945,-70 1005,-160 -60,90 -487,160 -1005,160zm0 0c-1,0 -1,0 -1,0 -453,0 -837,-53 -965,-127 -30,-17 -46,-36 -46,-55 0,-1 0,-2 0,-4l1012 0 0 186 0 0zm1011 -182c0,-1 0,-2 0,-4l0 0c0,2 0,3 0,4l0 0z"/>
   </g>
   <g>
    <path class="fil9" d="M2191 2480l0 0 0 -186 1005 0 0 24c4,-6 6,-13 6,-19 0,7 -2,14 -6,21 -60,90 -487,160 -1005,160l0 0zm1011 -181c0,-1 0,-1 0,-1 0,0 0,0 0,1z"/>
   </g>
   <path class="fil10" d="M3196 2318l0 -24 6 0c0,2 0,3 0,4l0 0c0,0 0,0 0,1l0 0c0,6 -2,13 -6,19z"/>
   <polygon class="fil11" points="3849,2895 3363,2895 3363,2850 3849,2850 "/>
   <polygon class="fil12" points="1107,2895 621,2895 621,2850 1072,2850 1072,2294 1107,2294 "/>
   <polygon class="fil13" points="3814,2850 3849,2850 3849,2294 3814,2294 "/>
   <polygon class="fil14" points="3814,2850 3328,2850 3328,2294 3814,2294 "/>
   <polygon class="fil14" points="621,2850 1072,2850 1072,2294 621,2294 "/>
   <polygon class="fil4" points="586,3131 3814,3131 3814,2251 586,2251 "/>
   <path class="fil15" d="M758 2775c14,16 35,24 60,24 25,0 46,-8 60,-24 14,-16 22,-35 22,-59 0,-24 -8,-43 -22,-59 -14,-16 -35,-24 -60,-24 -25,0 -46,8 -60,24 -15,16 -22,35 -22,59 0,24 7,43 22,59zm522 3c16,6 29,11 38,17 9,6 13,16 13,27 0,11 -5,21 -16,29 -11,9 -31,13 -59,13 -27,0 -51,-4 -74,-14 -23,-9 -43,-19 -59,-32 -11,6 -22,15 -31,26 -9,12 -14,27 -14,43 0,16 5,29 14,41 9,13 22,23 39,31 16,8 35,14 58,18 22,5 46,7 72,7 74,0 129,-15 167,-45 38,-29 57,-67 57,-116 0,-45 -15,-81 -43,-107 -28,-26 -69,-48 -122,-64l-45 -15c-15,-4 -26,-9 -33,-15 -8,-5 -11,-12 -11,-20 0,-11 6,-20 18,-27 11,-7 30,-11 55,-11 25,0 48,3 69,9 21,6 37,13 50,21 9,-8 18,-16 24,-27 7,-10 11,-23 11,-37 0,-15 -5,-28 -13,-39 -9,-11 -20,-20 -35,-27 -15,-7 -33,-12 -54,-16 -21,-3 -43,-5 -68,-5 -67,0 -118,15 -155,44 -37,28 -55,66 -55,115 0,24 4,45 12,62 8,18 20,32 34,45 15,13 32,23 53,31 20,10 43,18 67,27l36 11zm508 -261c-7,19 -15,41 -23,65 -9,25 -18,51 -27,79 -10,28 -19,54 -28,80 -8,26 -16,51 -22,74 -8,23 -13,41 -17,57 -3,11 -5,20 -8,27 -2,8 -3,17 -3,24 0,18 6,31 21,41 13,10 35,15 63,15 13,0 23,-1 32,-3 9,-2 17,-5 25,-7 4,-17 9,-35 14,-53 4,-17 9,-35 13,-52l153 0 15 58c3,10 6,18 11,26 3,7 8,13 14,17 6,5 14,8 23,11 9,2 20,3 34,3 18,0 34,-3 48,-8 13,-4 24,-11 30,-18 -8,-32 -18,-67 -29,-108 -11,-39 -23,-81 -35,-122 -12,-42 -24,-82 -35,-121 -12,-38 -23,-72 -33,-102 -6,-18 -21,-30 -42,-39 -22,-7 -47,-12 -75,-12 -20,0 -39,3 -59,8 -19,5 -34,10 -44,16 -4,10 -9,25 -16,44zm123 65c7,23 14,49 23,78 7,30 16,59 24,90l-105 0c7,-30 17,-60 27,-89 9,-29 18,-55 26,-79l5 0zm747 391c16,0 29,-5 38,-14 9,-10 15,-25 15,-48 0,-11 -2,-22 -6,-33 -3,-10 -6,-18 -11,-24l-193 0 0 -334c0,-15 -2,-27 -5,-36 -4,-9 -9,-16 -16,-21 -6,-5 -15,-9 -24,-11 -10,-2 -22,-3 -35,-3 -12,0 -25,1 -39,3 -13,2 -23,4 -29,5l0 437c0,25 6,44 21,58 14,14 33,21 57,21l227 0zm256 -79c0,25 6,44 21,58 14,14 33,21 57,21l247 0c16,0 28,-5 38,-14 9,-10 13,-25 13,-46 0,-11 -2,-22 -4,-32 -4,-10 -7,-19 -11,-25l-218 0 0 -89 156 0c15,0 27,-4 36,-13 10,-9 14,-25 14,-46 0,-11 -2,-22 -4,-32 -4,-9 -7,-18 -11,-24l-191 0 0 -78 179 0c15,0 28,-5 37,-14 9,-9 14,-24 14,-46 0,-11 -2,-22 -5,-32 -3,-10 -6,-18 -11,-24l-279 0c-24,0 -43,7 -57,21 -15,14 -21,33 -21,57l0 358zm574 -119c14,16 35,24 60,24 26,0 46,-8 60,-24 15,-16 22,-35 22,-59 0,-24 -7,-43 -22,-59 -14,-16 -34,-24 -60,-24 -25,0 -46,8 -60,24 -14,16 -22,35 -22,59 0,24 8,43 22,59z"/>
  </g>
 </g>
</svg>
