<?xml version="1.0" standalone="no"?>
<!DOCTYPE svg PUBLIC "-//W3C//DTD SVG 1.1//EN" "http://www.w3.org/Graphics/SVG/1.1/DTD/svg11.dtd" >
<svg xmlns="http://www.w3.org/2000/svg">
<metadata>Generated by IcoMoon</metadata>
<defs>
<font id="ntv-s" horiz-adv-x="1024">
<font-face units-per-em="1024" ascent="960" descent="-64" />
<missing-glyph horiz-adv-x="1024" />
<glyph unicode="&#x20;" horiz-adv-x="512" d="" />
<glyph unicode="&#xe900;" glyph-name="warning" d="M512 960c-282.795 0-512-229.205-512-512s229.205-512 512-512 512 229.205 512 512-229.205 512-512 512zM571.819 131.413c-16.128-15.36-38.229-24.747-60.331-24.747-22.187 0-44.203 9.387-60.416 24.747-15.275 16.213-24.661 38.4-24.661 60.587s9.387 44.373 24.661 60.587c32.341 31.573 89.344 31.573 120.747 0 15.275-16.213 24.661-38.4 24.661-60.587s-9.387-44.373-24.661-60.587zM596.48 448c0-47.104-38.059-85.333-84.992-85.333s-85.077 38.229-85.077 85.333v256c0 47.104 38.144 85.333 85.077 85.333s84.992-38.229 84.992-85.333v-256z" />
<glyph unicode="&#xe901;" glyph-name="ok" horiz-adv-x="585" d="M573.696 386.256c-22.484 36.237-69.645 47.162-105.395 24.337-106.858-68.036-244.441-68.036-351.201 0-35.749 22.825-82.911 11.9-105.346-24.337-22.484-36.188-11.754-83.984 23.947-106.76 47.113-29.994 98.371-51.307 151.435-63.549l-145.826-147.777c-29.799-30.238-29.799-79.253 0.049-109.491 14.924-15.070 34.481-22.63 53.99-22.63 19.606 0 39.163 7.56 54.087 22.63l143.241 145.192 143.387-145.192c29.799-30.238 78.18-30.238 108.028 0s29.848 79.302 0 109.491l-145.826 147.777c53.112 12.242 104.322 33.555 151.483 63.549 35.652 22.776 46.43 70.621 23.947 106.76zM292.725 431.467c143.875 0 260.828 118.514 260.828 264.194 0 145.777-116.953 264.34-260.828 264.34s-260.877-118.563-260.877-264.34c0-145.68 117.002-264.194 260.877-264.194zM292.725 805.151c59.55 0 107.979-49.064 107.979-109.443 0-60.281-48.43-109.345-107.979-109.345-59.501 0-108.028 49.064-108.028 109.345 0 60.379 48.527 109.443 108.028 109.443z" />
<glyph unicode="&#xe902;" glyph-name="pay" horiz-adv-x="1170" d="M950.857 960h-731.429c-120.978 0-219.429-98.45-219.429-219.429v-585.143c0-120.978 98.45-219.429 219.429-219.429h731.429c120.978 0 219.429 98.45 219.429 219.429v585.143c0 120.978-98.45 219.429-219.429 219.429zM1024 155.429c0-40.375-32.768-73.143-73.143-73.143h-731.429c-40.375 0-73.143 32.768-73.143 73.143v438.857h877.714v-438.857zM146.286 740.571c0 40.375 32.768 73.143 73.143 73.143h731.429c40.375 0 73.143-32.768 73.143-73.143h-877.714z" />
<glyph unicode="&#xe903;" glyph-name="history" horiz-adv-x="1097" d="M0 374.857h1097.143v-146.286h-1097.143v146.286zM0 960h1097.143v-146.286h-1097.143v146.286zM0 667.429h731.429v-146.286h-731.429v146.286zM0 82.286h585.143v-146.286h-585.143v146.286z" />
<glyph unicode="&#xe904;" glyph-name="gplay" d="M952.753 559.616l-766.858 384.079c-0.276 0.158-0.551 0.276-0.866 0.394-37.297 17.644-92.081 24.458-130.363 0.079-34.737-22.134-54.666-60.731-54.666-105.905v-776.271c0-19.338 0-78.218 51.239-110.828 17.408-11.067 36.47-15.163 55.099-15.163 30.641 0 60.14 11.028 79.281 20.047l766.385 376.281c43.717 20.677 71.995 65.339 71.995 113.782 0 48.601-28.318 93.342-71.247 113.506zM721.526 587.067l-80.699-81.014-241.428 242.373 322.127-161.359zM151.552 27.294c-24.694-11.618-48.679-15.439-58.171-9.413-7.247 4.647-14.612 13.47-14.612 44.111v776.271c0 12.603 3.151 29.657 18.117 39.148 3.505 2.206 9.767 3.466 17.329 3.466 11.146 0 25.009-2.599 36.982-8.153l34.343-17.172-2.127-2.127 401.723-403.22-401.723-403.259 2.639-2.639-34.501-17.014zM393.807 146.235l247.020 248.005 84.756-85.071-331.776-162.934zM917.898 403.574l-128.512-63.094 8.192 8.231-101.061 101.415 99.328 99.682 122.604-61.401c16.266-7.641 26.782-24.222 26.782-42.338 0-17.959-10.555-34.54-27.333-42.496z" />
<glyph unicode="&#xe905;" glyph-name="fb" horiz-adv-x="542" d="M123.606-64h223.214v507.327h147.362l47.573 150.86h-194.936v91.468c0 0-10.853 86.886 52.276 86.886 71.39 0 128.369 0 128.369 0v187.459h-218.511c0 0-182.997 0.724-182.997-176.003 0-37.986-0.181-107.085-0.422-189.811h-125.535v-150.86h125.234c-0.724-239.916-1.628-507.327-1.628-507.327z" />
<glyph unicode="&#xe906;" glyph-name="warning-o" d="M547.2 256.64c-3.2 2.56-7.104 4.48-10.88 5.76-3.904 1.92-7.68 3.2-12.224 3.84-20.416 4.48-42.816-2.56-57.536-17.28-11.584-12.16-18.56-28.16-18.56-45.44 0-16.64 6.976-33.28 18.56-44.8 12.096-12.16 28.096-19.2 45.44-19.2 17.28 0 33.28 7.040 45.44 19.2 11.52 11.52 18.56 28.16 18.56 44.8 0 17.28-7.040 33.28-18.56 45.44-3.2 2.56-6.464 5.76-10.24 7.68zM512 960c-282.304 0-512-229.696-512-512s229.696-512 512-512 512 229.696 512 512-229.696 512-512 512zM512 64c-211.776 0-384 172.288-384 384s172.224 384 384 384 384-172.288 384-384-172.224-384-384-384zM512 768c-35.392 0-64-28.672-64-64v-320c0-35.328 28.608-64 64-64s64 28.672 64 64v320c0 35.328-28.608 64-64 64z" />
<glyph unicode="&#xe907;" glyph-name="edit" d="M896.584 448.416c-35.39 0-63.996-28.67-63.996-63.996v-320.236h-704.468v704.468h320.172c35.39 0 64.060 28.734 64.060 64.124 0 35.326-28.734 63.996-64.060 63.996h-384.232c-35.39 0-64.060-28.67-64.060-63.996v-832.652c0-35.326 28.734-64.060 64.060-64.060h832.524c35.39 0 64.060 28.734 64.060 64.060v384.296c0 35.326-28.67 63.996-64.060 63.996zM980.419 911.555c-54.845 58.876-142.711 48.253-152.63 46.845-2.56-0.32-4.608-1.792-7.040-2.432-4.224-1.088-8.127-2.304-12.095-4.288-4.032-1.984-7.36-4.48-10.687-7.168-2.048-1.6-4.544-2.304-6.4-4.224l-407.143-407.079c-1.088-1.088-1.472-2.56-2.432-3.776-2.752-3.136-4.864-6.72-6.976-10.431-2.176-3.776-4.288-7.488-5.568-11.647-0.448-1.408-1.472-2.432-1.856-3.968l-40.701-162.87c-5.44-21.823 0.96-44.925 16.831-60.86 12.223-12.159 28.542-18.815 45.309-18.815 5.184 0 10.367 0.64 15.551 1.92l162.742 40.829c1.472 0.32 2.496 1.344 3.968 1.856 4.16 1.28 7.744 3.264 11.519 5.44 3.84 2.176 7.424 4.288 10.623 7.104 1.152 0.96 2.56 1.344 3.584 2.368l407.143 407.079c1.6 1.664 2.24 3.776 3.648 5.568 3.136 3.968 6.144 7.872 8.319 12.607 1.6 3.264 2.432 6.656 3.392 10.111 0.768 2.688 2.24 5.056 2.688 7.872 1.472 9.279 11.455 91.13-41.789 147.959zM519.072 423.586l-42.045-10.495 10.495 42.109 376.168 376.168c9.919-1.024 19.455-3.456 23.103-7.296 4.928-5.312 7.296-15.039 8.255-24.318l-375.977-376.168z" />
<glyph unicode="&#xe908;" glyph-name="up" horiz-adv-x="1639" d="M963.994 899.994c-80.077 80.077-209.51 80.077-289.587-0.205l-614.4-614.195c-80.077-80.077-80.077-209.51 0-289.587 39.936-39.936 92.365-60.006 144.794-60.006s104.858 20.070 144.794 60.006l469.606 469.402 469.606-469.197c79.872-80.077 209.51-80.077 289.587 0s80.077 209.51 0 289.587l-614.4 614.195z" />
<glyph unicode="&#xe909;" glyph-name="down" horiz-adv-x="1639" d="M1288.806 899.789l-469.606-469.197-469.606 469.402c-39.936 39.936-92.365 60.006-144.794 60.006s-104.858-20.070-144.794-60.006c-80.077-80.077-80.077-209.51 0-289.587l614.4-614.195c80.077-80.282 209.51-80.282 289.587-0.205l614.4 614.195c80.077 80.077 80.077 209.51 0 289.587s-209.715 80.077-289.587 0z" />
<glyph unicode="&#xe90a;" glyph-name="delete" d="M656.794 448l337.203 337.203c40.038 39.936 40.038 104.858 0 144.794-40.038 40.038-104.755 40.038-144.794 0l-337.203-337.203-337.203 337.203c-40.038 40.038-104.755 40.038-144.794 0-40.038-39.936-40.038-104.858 0-144.794l337.203-337.203-337.203-337.203c-40.038-39.936-40.038-104.858 0-144.794 40.038-40.038 104.755-40.038 144.794 0l337.203 337.203 337.203-337.203c40.038-40.038 104.755-40.038 144.794 0 40.038 39.936 40.038 104.858 0 144.794l-337.203 337.203z" />
<glyph unicode="&#xe90b;" glyph-name="right" horiz-adv-x="640" d="M218.597 922.501c-50.042 50.042-130.928 50.042-180.969 0s-50.042-131.056 0-180.969l293.211-293.467-293.339-293.467c-24.957-24.957-37.499-57.721-37.499-90.485s12.542-65.528 37.499-90.485c50.042-50.042 130.928-50.042 180.969 0l383.824 383.952c50.17 50.042 50.17 130.928 0.128 180.969l-383.824 383.952z" />
<glyph unicode="&#xe90c;" glyph-name="left" horiz-adv-x="640" d="M602.421-26.373c24.957 24.957 37.499 57.721 37.499 90.485s-12.542 65.528-37.499 90.485l-293.339 293.467 293.211 293.467c50.042 49.914 50.042 130.928 0 180.969s-130.928 50.042-180.969 0l-383.824-383.952c-50.042-50.042-50.042-130.928 0.128-180.969l383.824-383.952c50.042-50.042 130.928-50.042 180.969 0z" />
<glyph unicode="&#xe90d;" glyph-name="check" horiz-adv-x="1408" d="M1270.241 947.458c-17.15 16.766-45.178 16.766-62.2 0l-655.918-633.265c-17.15-16.894-45.178-16.894-62.328 0l-287.452 283.869c-8.447 8.319-19.71 12.542-30.844 12.542-11.263 0-22.781-4.095-31.484-12.67l-126.96-110.706c-8.447-8.447-13.054-18.942-13.054-29.948s4.607-22.653 13.054-30.972l289.756-295.003c17.15-16.894 45.178-44.154 62.328-60.92l124.656-121.841c17.15-16.638 45.178-16.638 62.328 0l842.775 816.026c17.15 16.766 17.15 44.154 0 60.92l-124.656 121.969z" />
<glyph unicode="&#xe90e;" glyph-name="search" d="M683.733 336.597c52.565 65.707 84.224 148.864 84.224 239.36 0 211.755-172.245 384.043-383.957 384.043s-384-172.288-384-384.043c0-211.712 172.288-383.957 384-383.957 90.539 0 173.653 31.659 239.403 84.267l327.765-327.765c8.32-8.32 19.243-12.501 30.165-12.501s21.845 4.181 30.208 12.501c16.683 16.64 16.683 43.691-0.043 60.331l-327.765 327.765zM384.043 277.333c-164.693 0-298.667 133.973-298.667 298.624 0 164.693 133.973 298.709 298.667 298.709s298.667-134.016 298.667-298.709c0-164.651-134.016-298.624-298.667-298.624z" />
<glyph unicode="&#xe90f;" glyph-name="profile" d="M512 960c-282.325 0-512-229.717-512-512 0-282.325 229.675-512 512-512s512 229.675 512 512c0 282.283-229.675 512-512 512zM512 21.333c-82.645 0-159.573 23.979-224.981 64.811 10.624 105.472 111.403 191.189 224.981 191.189 116.309 0 217.216-83.584 224.981-186.368 0.128-1.493 0.896-2.688 1.152-4.096-65.664-41.259-143.019-65.536-226.133-65.536zM384.939 533.333c0 70.571 57.429 128 128 128 70.613 0 128-57.429 128-128 0-70.613-57.387-128-128-128-70.571 0-128 57.387-128 128zM813.184 146.091c-25.515 94.080-102.101 168.704-200.192 199.979 67.072 36.011 113.28 105.984 113.28 187.264 0 117.632-95.701 213.333-213.333 213.333-117.589 0-213.333-95.701-213.333-213.333 0-81.664 46.677-151.893 114.219-187.733-95.659-31.957-173.355-107.52-201.472-200.917-78.336 77.397-127.019 184.747-127.019 303.317 0 235.264 191.403 426.667 426.667 426.667s426.667-191.403 426.667-426.667c0-117.803-48-224.597-125.483-301.909z" />
<glyph unicode="&#xe910;" glyph-name="back" d="M512 960c-282.325 0-512-229.675-512-512 0-282.283 229.675-512 512-512s512 229.717 512 512c0 282.325-229.675 512-512 512zM512 21.333c-235.264 0-426.667 191.403-426.667 426.667s191.403 426.667 426.667 426.667 426.667-191.403 426.667-426.667-191.403-426.667-426.667-426.667zM725.333 490.667h-323.669l55.168 55.168c16.683 16.64 16.683 43.691 0 60.331s-43.648 16.64-60.331 0l-127.957-127.957c-3.968-3.968-7.083-8.661-9.259-13.909-2.133-5.205-3.285-10.752-3.285-16.299 0-0.128 0.085-0.256 0.085-0.341 0.043-5.461 1.109-10.88 3.2-15.957 2.176-5.248 5.291-9.941 9.259-13.909l127.957-127.957c8.32-8.32 19.243-12.501 30.165-12.501s21.845 4.181 30.165 12.501c16.683 16.64 16.683 43.691 0 60.331l-55.168 55.168h323.669c23.552 0 42.667 19.115 42.667 42.667s-19.115 42.667-42.667 42.667z" />
<glyph unicode="&#xe911;" glyph-name="astore" horiz-adv-x="768" d="M380.012 674.871c4.064-0.32 8.032-0.48 12.064-0.48 0.032 0 0.032 0 0.032 0 55.554 0 115.044 30.689 155.365 80.163 42.113 52.098 62.53 116.548 56.002 176.87-1.792 16.769-16.577 29.569-33.121 28.513-56.674-2.304-121.892-36.065-162.149-83.939-33.441-39.553-66.082-105.827-57.442-173.317 1.952-14.976 14.144-26.625 29.249-27.809zM457.134 834.748c20.641 24.545 51.874 44.833 82.179 54.754-4.288-32.865-18.817-66.498-41.537-94.627-22.369-27.425-53.314-47.073-83.331-53.89 4.544 36.801 24.161 71.874 42.689 93.763zM750.039 221.417c-0.928 0.48-2.4 1.088-3.392 1.44-17.665 6.56-105.827 44.193-106.691 140.676-0.832 85.027 87.075 131.3 87.875 131.684 0.736 0.384 1.184 1.056 1.888 1.472 0.672 0.416 1.44 0.448 2.080 0.928 1.12 0.768 1.728 1.952 2.72 2.848 1.664 1.504 3.2 2.944 4.512 4.736 1.184 1.632 2.048 3.328 2.88 5.152 0.896 1.888 1.728 3.712 2.208 5.76 0.48 1.952 0.64 3.872 0.736 5.888 0.128 2.080 0.192 4.064-0.096 6.144-0.288 2.048-0.96 4-1.696 6.016-0.448 1.312-0.448 2.72-1.088 4-0.352 0.736-1.024 1.184-1.472 1.856-0.384 0.672-0.448 1.44-0.896 2.080-60.546 86.275-155.493 96.675-181.35 97.667-47.873 4.832-92.099-9.536-127.46-21.057-16.321-5.216-33.185-10.688-41.281-10.688-9.536 0-26.689 5.792-43.233 11.424-28.033 9.472-63.074 20.865-100.003 20.577-82.627-1.184-161.605-48.77-206.054-124.1-79.682-134.852-30.465-337.483 56.322-459.63 34.081-48.066 85.283-120.292 159.493-120.292 1.44 0 2.848 0.032 4.32 0.096 0.032 0 0.032 0 0.032 0 30.721 1.184 52.866 9.696 72.45 17.185 20.609 7.936 38.465 14.784 68.098 14.784 27.649 0 44.449-6.752 63.874-14.624 20.225-8.16 43.073-17.409 76.034-17.409 1.152 0 2.304 0 3.456 0.032 75.97 1.376 121.444 66.178 157.957 118.276 38.017 54.146 57.346 107.171 63.938 127.748 5.376 15.296-1.536 32.257-16.161 39.329zM649.812 91.109c-37.057-52.866-66.37-90.339-106.723-91.075-22.081-1.184-36.129 5.376-54.306 12.736-21.281 8.576-47.777 19.265-87.875 19.265-41.473 0-67.842-10.112-91.075-19.009-17.761-6.816-31.809-12.224-51.97-12.992v-0.032c-0.576 0-1.12-0.032-1.696-0.032-38.017 0-73.89 46.081-107.427 93.347-64.322 90.627-123.46 271.496-53.41 390.060 33.249 56.29 91.427 91.779 151.973 92.643 26.657 0.224 53.922-8.896 78.466-17.217 22.465-7.616 43.713-14.784 63.746-14.784 18.209 0 38.081 6.464 61.058 13.952 31.169 10.144 66.722 21.505 103.203 18.081 17.089-0.704 69.154-6.56 111.267-45.729-36.769-28.161-89.987-83.363-89.123-167.365 0.96-108.515 76.546-164.261 119.844-187.142-9.024-22.337-23.841-53.218-45.953-84.707z" />
<glyph unicode="&#xe912;" glyph-name="vk" horiz-adv-x="1861" d="M132.234 595.495c45.598-81.611 85.147-147.402 118.741-197.188 33.594-49.879 67.839-96.872 102.642-141.075 34.896-44.295 58.068-72.585 69.328-85.054s20.193-21.868 26.614-28.010l24.288-22.427c15.447-14.982 38.246-32.942 68.304-53.787s63.279-41.41 99.757-61.697c36.478-20.193 79.005-36.664 127.395-49.506 48.483-12.749 95.663-17.867 141.447-15.354h111.482c22.613 1.861 39.735 8.654 51.368 20.473l3.815 4.746c2.606 3.722 5.025 9.492 7.258 17.216 2.326 7.817 3.443 16.378 3.443 25.684-0.744 26.8 1.396 50.995 6.235 72.491s10.329 37.688 16.471 48.576c6.142 10.888 13.121 20.1 20.845 27.545s13.307 12.004 16.471 13.493c3.257 1.582 5.863 2.699 7.724 3.35 15.541 4.932 33.78 0.093 54.811-14.517s40.666-32.756 59.091-54.159c18.425-21.589 40.573-45.691 66.35-72.491 25.87-26.8 48.483-46.715 67.839-59.743l19.356-11.26c12.935-7.445 29.778-14.331 50.437-20.566s38.712-7.817 54.252-4.653l247.997 3.722c24.567 0 43.644 3.908 57.137 11.725 13.586 7.724 21.682 16.285 24.288 25.684 2.606 9.306 2.699 19.914 0.465 31.732-2.326 11.818-4.56 20.1-6.793 24.753-2.233 4.746-4.374 8.561-6.328 11.725-32.291 56.113-93.988 124.883-185.091 206.494l-1.861 1.861-1.024 0.931-0.931 0.931h-1.024c-41.317 38.060-67.466 63.558-78.447 76.679-20.007 24.939-24.567 50.158-13.586 75.655 7.724 19.356 36.851 60.115 87.194 122.37 26.521 33.035 47.459 59.557 63 79.471 111.762 143.308 160.151 234.876 145.355 274.704l-5.77 9.306c-3.908 5.676-13.959 10.795-30.057 15.447-16.192 4.746-36.851 5.49-61.976 2.326l-279.078-1.861c-4.56 1.582-10.981 1.396-19.356-0.465-8.468-1.861-12.656-2.792-12.656-2.792l-4.839-2.326-3.815-2.792c-3.257-1.861-6.793-5.118-10.702-9.864-3.815-4.653-7.072-10.050-9.678-16.285-30.337-75.469-64.861-145.541-103.666-210.309-23.916-38.619-45.877-72.119-65.884-100.409-20.007-28.382-36.851-49.227-50.344-62.627-13.586-13.4-25.87-24.102-36.851-32.198s-19.356-11.539-25.218-10.329c-5.77 1.303-11.26 2.513-16.471 3.722-9.027 5.676-16.285 13.307-21.775 22.892-5.49 9.678-9.213 21.868-11.167 36.478-1.954 14.703-3.071 27.266-3.35 37.874-0.279 10.515-0.186 25.498 0.465 44.854 0.651 19.263 0.931 32.384 0.931 39.27 0 23.636 0.558 49.32 1.489 77.051s1.768 49.692 2.419 65.884c0.651 16.192 0.931 33.314 0.931 51.368s-1.117 32.291-3.35 42.527c-2.233 10.236-5.676 20.286-10.143 29.871-4.56 9.678-11.167 17.123-19.914 22.427-8.654 5.304-19.542 9.585-32.384 12.656-34.245 7.445-77.889 11.539-130.838 12.19-120.137 1.21-197.374-6.328-231.619-22.52-13.493-6.793-25.777-16.192-36.758-28.010-11.632-13.679-13.307-21.217-4.839-22.427 38.712-5.583 66.164-18.984 82.356-40.108l5.77-11.26c4.56-8.096 9.027-22.427 13.586-42.992s7.445-43.272 8.747-68.211c3.164-45.505 3.164-84.403 0-116.787-3.257-32.384-6.328-57.602-9.213-75.748-2.978-18.053-7.258-32.663-13.121-43.83-5.77-11.26-9.678-18.146-11.632-20.566-1.954-2.513-3.536-4.095-4.839-4.653-8.375-3.164-17.123-4.746-26.149-4.746s-20.007 4.374-32.942 13.121-26.335 20.752-40.201 35.92c-13.866 15.354-29.592 36.664-46.994 64.023-17.402 27.452-35.548 59.836-54.252 97.245l-15.541 27.080c-9.678 17.402-22.892 42.806-39.642 76.121-16.843 33.407-31.732 65.605-44.574 96.779-5.211 13.028-12.935 22.985-23.264 29.871l-4.839 2.792c-3.257 2.513-8.468 5.118-15.541 7.91-7.072 2.885-14.517 4.839-22.241 6.142l-265.492-1.861c-27.173 0-45.598-5.956-55.276-17.774l-3.815-5.583c-1.954-3.164-2.978-8.096-2.978-14.982s1.954-15.261 5.863-25.218c38.712-87.846 80.867-172.621 126.371-254.139z" />
<glyph unicode="&#xe913;" glyph-name="calendar" d="M938.667 874.667h-213.333v42.667c0 23.552-19.072 42.667-42.667 42.667s-42.667-19.115-42.667-42.667v-42.667h-256v42.667c0 23.552-19.115 42.667-42.667 42.667s-42.667-19.115-42.667-42.667v-42.667h-213.333c-47.061 0-85.333-38.272-85.333-85.333v-768c0-47.061 38.272-85.333 85.333-85.333h853.333c47.061 0 85.333 38.272 85.333 85.333v768c0 47.061-38.272 85.333-85.333 85.333zM938.539 21.333h-853.205v768h213.333v-42.667c0-23.552 19.115-42.667 42.667-42.667s42.667 19.115 42.667 42.667v42.667h256v-42.667c0-23.552 19.072-42.667 42.667-42.667s42.667 19.115 42.667 42.667v42.667h213.333l-0.128-768zM725.333 618.667c-23.595 0-42.667-19.115-42.667-42.667v-85.333c0-23.552 19.072-42.667 42.667-42.667h85.333c23.595 0 42.667 19.115 42.667 42.667v85.333c0 23.552-19.072 42.667-42.667 42.667h-85.333zM810.667 362.667h-85.333c-23.595 0-42.667-19.072-42.667-42.667v-85.333c0-23.595 19.072-42.667 42.667-42.667h85.333c23.595 0 42.667 19.072 42.667 42.667v85.333c0 23.595-19.072 42.667-42.667 42.667zM298.667 618.667h-85.333c-23.552 0-42.667-19.115-42.667-42.667v-85.333c0-23.552 19.115-42.667 42.667-42.667h85.333c23.552 0 42.667 19.115 42.667 42.667v85.333c0 23.552-19.115 42.667-42.667 42.667zM298.667 362.667h-85.333c-23.552 0-42.667-19.072-42.667-42.667v-85.333c0-23.595 19.115-42.667 42.667-42.667h85.333c23.552 0 42.667 19.072 42.667 42.667v85.333c0 23.595-19.115 42.667-42.667 42.667zM554.667 618.667h-85.333c-23.552 0-42.667-19.115-42.667-42.667v-85.333c0-23.552 19.115-42.667 42.667-42.667h85.333c23.595 0 42.667 19.115 42.667 42.667v85.333c0 23.552-19.072 42.667-42.667 42.667zM554.667 362.667h-85.333c-23.552 0-42.667-19.072-42.667-42.667v-85.333c0-23.595 19.115-42.667 42.667-42.667h85.333c23.595 0 42.667 19.072 42.667 42.667v85.333c0 23.595-19.072 42.667-42.667 42.667z" />
<glyph unicode="&#xe914;" glyph-name="help" d="M512 758.656c-104.384 0-186.176-81.792-186.176-186.176 0-35.328 28.672-64 64-64s64 28.672 64 64c0 33.152 24.96 58.176 58.176 58.176 32.128 0 58.176-28.032 58.176-62.528 0-21.44-3.84-34.176-26.816-52.736-101.76-82.432-96.064-181.888-95.104-192.96 2.56-29.12 24.704-50.368 52.288-55.296-25.856-4.8-47.232-25.216-51.968-52.416-6.144-34.816 17.152-68.032 51.968-74.112 3.712-0.64 7.424-0.96 11.136-0.96 30.464 0 57.472 21.824 62.912 52.928l0.448 2.304c6.080 34.432-16.96 65.92-51.136 72.512 30.336 6.144 52.928 33.024 51.968 64.704-0.064 1.792-0.832 44.288 48.064 83.84 50.624 40.96 74.24 89.344 74.24 152.192 0 105.088-83.52 190.528-186.176 190.528zM512 960c-282.304 0-512-229.696-512-512s229.696-512 512-512 512 229.696 512 512-229.696 512-512 512zM512 64c-211.776 0-384 172.288-384 384s172.224 384 384 384 384-172.288 384-384-172.224-384-384-384z" />
<glyph unicode="&#xe915;" glyph-name="star-o" horiz-adv-x="1026" d="M815.889-62.85c-12.533 0-27.365 3.679-43.634 14.717l-259.449 177.182-259.334-177.125c-40.645-27.595-72.437-9.141-81.29-2.759-8.796 6.324-36.391 30.584-22.938 77.726l80.14 282.905-205.754 206.847c-21.558 21.903-28.802 50.303-19.259 76.116 9.428 25.755 33.286 42.772 63.813 45.647l273.304 25.468 106.585 250.481c12.59 28.86 36.793 46.049 64.733 46.049 0.057 0 0.115 0 0.172 0 28.055 0 52.258-17.419 64.618-46.336l109.805-252.551 270.085-23.111c30.584-2.874 54.442-20.006 63.871-45.704 9.371-25.813 2.242-54.212-19.259-76.001l-206.617-209.779 80.945-280.203c13.338-47.084-14.315-71.344-23.053-77.611-5.289-3.794-18.799-11.958-37.483-11.958zM284.975-4.096v0zM166.834 533.372l144.528-146.713c26.733-27.135 38.058-71.574 27.537-108.080l-45.876-161.89 161.717 110.437c33.631 23.053 82.497 23.111 116.186-0.057l161.66-110.38-45.934 162.12c-10.406 36.391 0.977 80.773 27.652 107.907l144.528 146.713-185.288 17.247c-37.713 3.507-75.771 31.217-90.718 65.825l-70.079 161.085-70.022-161.315c-15.35-35.068-52.66-62.031-90.603-65.595l-185.288-17.304zM506.424 133.361c0.057 0 0.115-0.057 0.172-0.115l-0.057 0.057c-0.057 0.057-0.057 0.057-0.115 0.057zM519.186 133.361l-0.172-0.057c0.057 0 0.115 0.057 0.172 0.057zM78.76 525.208h-0.057c0.057 0 0.057 0 0.057 0zM455.833 869.109c0-0.115 0-0.115 0-0.172v0.172z" />
<glyph unicode="&#xe916;" glyph-name="star" horiz-adv-x="1026" d="M1021.355 592.701c-9.428 25.698-33.286 42.83-63.871 45.704l-270.085 23.111-109.805 252.551c-12.36 28.917-36.563 46.336-64.618 46.336-0.057 0-0.115 0-0.172 0-27.94 0-52.143-17.189-64.733-46.049l-106.585-250.481-273.304-25.468c-30.527-2.874-54.385-19.891-63.813-45.647-9.543-25.813-2.3-54.212 19.259-76.116l205.754-206.847-80.14-282.905c-13.453-47.141 14.142-71.402 22.938-77.726 8.853-6.381 40.645-24.835 81.29 2.759l259.334 177.125 259.449-177.182c16.269-11.038 31.102-14.717 43.634-14.717 18.684 0 32.194 8.163 37.483 11.958 8.738 6.266 36.391 30.527 23.053 77.611l-80.945 280.203 206.617 209.779c21.501 21.788 28.63 50.188 19.259 76.001zM506.424 133.361c0.057 0 0.057 0 0.115-0.057l0.057-0.057c-0.057 0.057-0.115 0.115-0.172 0.115z" />
<glyph unicode="&#xe917;" glyph-name="tw" horiz-adv-x="1339" d="M1339.234 838.538c-49.231-20.638-102.242-34.501-157.775-40.724 56.714 31.98 100.273 82.629 120.832 142.887-53.169-29.538-111.931-51.042-174.553-62.622-50.097 50.176-121.541 81.526-200.546 81.526-151.788 0-274.826-115.712-274.826-258.284 0-20.244 2.442-39.936 7.089-58.919-228.352 10.791-430.868 113.664-566.351 269.942-23.71-38.124-37.258-82.55-37.258-129.89 0-89.639 48.522-168.724 122.25-215.040-44.977 1.418-87.434 12.997-124.455 32.374 0-1.103 0-2.206 0-3.23 0-125.164 94.681-229.612 220.475-253.322-23.079-5.986-47.34-9.137-72.468-9.137-17.723 0-34.895 1.575-51.673 4.647 34.974-102.558 136.428-177.231 256.709-179.358-94.050-69.317-212.519-110.671-341.307-110.671-22.213 0-44.032 1.26-65.536 3.702 121.62-73.334 266.082-116.106 421.258-116.106 505.462 0 781.863 393.61 781.863 734.996 0 11.185-0.236 22.449-0.788 33.477 53.642 36.391 100.273 81.92 137.058 133.75z" />
<glyph unicode="&#xe918;" glyph-name="vk-2" horiz-adv-x="777" d="M722.924 416.692c-36.026 41.001-84.061 68.192-143.933 81.573v5.404c41.687 18.442 74.368 47.091 98.043 86.034 23.589 38.943 35.426 83.375 35.426 133.382 0 43.060-8.492 81.059-25.647 114.083s-43.146 59.357-77.885 79.086c-32.166 18.356-66.563 30.365-103.189 36.026-36.712 5.833-90.666 8.663-161.86 8.663h-342.677v-1023.743h388.224c67.335 0 122.832 6.347 166.406 19.214 43.66 12.866 83.718 34.396 120.173 64.59 30.88 25.218 55.412 57.127 73.596 95.555 18.27 38.599 27.363 83.203 27.363 134.069 0 69.736-18.013 125.062-54.039 166.063zM243.52 773.265h16.898c43.489 0 76.17-0.343 98.043-1.029 21.959-0.686 41.001-4.803 57.041-12.009 16.898-7.891 29.421-20.415 37.399-37.827 8.063-17.498 12.094-34.396 12.094-50.865 0-22.559-3.688-42.202-11.065-59.186s-20.844-30.193-40.401-39.886c-17.842-8.663-35.083-13.553-51.809-14.41-16.726-0.944-45.89-1.372-87.578-1.372h-30.622v216.586zM510.971 189.126c-10.293-19.471-26.419-34.311-48.55-44.346-25.218-11.494-49.922-17.584-74.282-18.614-24.361-0.858-68.192-1.287-131.581-1.287h-13.038v256.472h44.947c43.403 0 78.057-0.429 103.875-1.115 25.819-0.6 46.148-3.946 60.901-9.864 24.361-9.178 42.545-22.731 54.725-40.658 12.18-17.842 18.27-42.545 18.27-74.197 0-24.704-5.147-46.92-15.268-66.391z" />
<glyph unicode="&#xe919;" glyph-name="gplay-2" horiz-adv-x="4000" d="M3894.835 41.372c-12.071-28.668-62.072-42.528-97.442-42.528-15.895 0-31.791 9.299-31.791 9.299l8.772 24.597c0 0 7.93-4.351 23.58-4.351 15.615 0 42.773 36.036 42.773 36.036l19.72 47.019-105.969 280.817h35.089l89.547-238.219 85.898 238.219h35.089c0 0-93.196-322.186-105.267-350.889zM3684.302 146.674c0 0-44.423-39.615-109.828-39.615-65.371 0-92.108 34.036-92.108 82.003s42.528 97.933 131.759 97.933h70.178v35.089c0 0-5.369 47.335-81.862 47.335s-74.845-53.16-74.845-53.16l-33.72-0.14c0 0 3.018 77.932 109.407 77.932s116.109-71.967 116.109-71.967v-175.41c0-21.755 0-35.124 0-35.124h-35.089c0 0 0 16.211 0 35.124zM3684.302 251.906h-70.178c-53.476 0-98.46-28.387-98.46-65.3s27.966-52.879 61.686-52.879c33.756 0 106.951 27.755 106.951 83.091v35.089zM3403.59 497.563h35.089v-386.013h-35.089v386.013zM3240.883 107.058c-67.862 0-81.827 37.826-82.915 39.615v-140.391h-35.089v385.978h35.089v-35.089c1.088 1.333 23.685 36.878 82.073 36.878 59.23 0 123.373-39.896 123.373-141.303s-53.44-145.689-122.531-145.689zM3239.234 367.804c-55.195 0-80.178-79.336-81.266-80.81v-70.178c1.088-1.754 20.457-84.354 77.161-84.354 57.546 0 96.214 51.721 96.214 118.074 0 66.423-41.931 117.267-92.108 117.267zM2899.012 144.042c37.545 0 71.476 19.931 71.476 19.931s-32.106-52.528-102.986-52.528c-101.161 0-141.759 76.704-141.759 144.917 0 68.248 46.037 137.689 134.496 137.689s102.986-74.283 102.986-74.283l-137.513-54.914-46.037-2.421c12.071-71.511 69.23-118.39 119.337-118.39zM2900.24 317.978c4.526 8.106-4.842 54.318-56.353 54.318-25.685 0-66.634-23.545-66.634-82.108 0-9.544 0.912-18.702 2.386-27.545 6.070 2.456 116.179 47.405 120.601 55.335zM2701.812 111.55h-105.267c0 0 34.913 21.685 35.089 35.124v350.889h-35.089l23.545 35.51 81.722-0.456c-20.176-10.702-34.563-20.141-35.089-70.178s0-280.746 0-280.746c0-19.053 25.159-47.019 40.142-47.019 13.65 0 19.895-2.632 19.895-2.632l-24.948-20.492zM2516.963 361.453c0 0 37.194-24.527 37.194-79.476 0-37.054-18.913-57.511-39.58-77.090s-20.983-26.597-20.983-35.264 5.684-18.211 34.773-38.212c29.089-20.036 49.16-48.563 49.16-86.038 0-78.599-98.003-109.372-155.268-109.372s-127.092 23.159-127.092 84.845c0 102.039 159.76 102.179 159.76 102.179s-17.088 17.615-17.088 37.335c0 12.106 4.211 21.229 4.211 21.229s-4.807-1.509-12-1.509c-69.23 0-104.319 49.3-104.319 90.529 0 58.563 53.37 112.951 124.11 112.951s137.864 0 137.864 0l-35.37-20.948-35.37-1.158zM2453.628 105.023c-11.018 0-105.863-6.035-105.863-71.055 0-64.95 82.284-72.564 101.618-72.564s86.319 5.369 86.319 63.195c0 40.317-32.352 53.090-61.581 78.88 0 0-9.439 1.544-20.492 1.544zM2429.592 362.471c-33.264 0-52.142-26.878-52.142-64.529s33.264-99.933 75.090-99.933 49.896 32.738 49.896 56.914c0 69.476-39.545 107.548-72.845 107.548zM2143.617 111.445c-88.67 0-138.707 74.564-138.707 136.496 0 85.968 66.318 144.882 147.759 144.882s141.759-56.493 141.759-139.478-62.142-141.9-150.812-141.9zM2136.389 374.787c-41.019 0-76.599-37.264-76.599-89.547 0-52.353 31.72-155.76 98.916-155.76s76.599 68.529 76.599 96.214c0 80.283-40.387 149.093-98.916 149.093zM1826.624 111.445c-88.705 0-138.812 74.599-138.812 136.531 0 86.003 66.388 144.987 147.865 144.987s141.829-56.563 141.829-139.549c0-83.020-62.178-141.97-150.882-141.97zM1819.361 374.927c-41.019 0-76.634-37.3-76.634-89.652s31.755-155.795 98.986-155.795 76.634 68.599 76.634 96.249c0 80.319-40.458 149.198-98.986 149.198zM1500.894 224.852l42.984 27.054h140.356c0 0-41.791-14.948-41.791-48.493 0-33.615 0-68.318 0-68.318s-88.178-28.808-166.637-28.808c-151.83 0-212.92 111.232-212.92 199.27 0 100.74 80.775 207.165 219.762 207.165 114.144 0 159.795-46.282 159.795-46.282l-45.651-42.914-21.124-5.649 13.123 21.474c0 0-40.528 53.054-112.425 53.054-71.932 0-154.672-48.809-154.672-164.286 0-94.53 76.739-198.112 195.2-198.112 40.949 0 67.897 15.264 67.897 15.264v84.67c0 0-60.914 0.667-83.898-5.088zM2974.979 809.89c24.913-3.509 43.124-17.544 43.124-42.072 0-44.563-56.107-50.177-89.407-50.177-18.948 0-38.598 1.404-47.686 2.105v167.655c11.895 2.105 34.001 3.86 54.002 3.86 28.387 0 75.406-4.562 75.406-42.458 0-21.018-16.141-34.001-35.44-38.212v-0.702zM2910.1 740.098c8.772-1.053 15.088-1.404 24.913-1.404 20.667 0 51.546 4.912 51.546 29.475 0 24.527-24.562 29.79-54.002 29.79h-22.457v-57.862zM2979.892 844.943c0 16.843-14.737 24.913-45.581 24.913-10.176 0-16.492-0.702-23.86-1.404v-50.142h23.159c22.773 0 46.282 6.667 46.282 26.632zM2648.687 799.012c0.702-41.721 27.369-58.914 58.248-58.914 22.071 0 35.405 3.86 46.984 8.772l5.263-22.106c-10.878-4.912-29.475-10.527-56.458-10.527-52.282 0-83.477 34.387-83.477 85.582s30.141 91.547 79.617 91.547c55.405 0 70.143-48.774 70.143-79.968 0-6.316-0.702-11.228-1.053-14.386h-119.267zM2696.408 871.26c-31.229 0-44.914-28.773-47.37-50.142h90.143c0.351 19.615-8.070 50.142-42.773 50.142zM2550.087 719.746h-30.527v145.198h-52.949v24.562h136.426v-24.562h-52.949v-145.198zM2407.486 791.643c0 27.72 0.702 42.107 2.105 69.441h-1.053c-10.878-21.755-18.246-35.405-28.036-52.598-16.141-26.317-34.738-58.914-52.984-88.74h-35.405v169.76h29.089v-71.546c0-27.018-0.351-43.861-1.719-68.037l1.018-0.351c10.176 20.702 16.141 32.598 27.369 52.247l52.949 87.687h36.142v-169.76h-29.475v71.897zM2253.867 766.765c0-36.843-37.51-50.528-73.301-50.528-19.966 0-39.966 5.263-55.055 13.685l8.070 20.702c12.281-6.667 28.773-11.579 44.879-11.579 25.615 0 41.756 12.281 41.756 29.124 0 22.773-23.86 29.089-49.475 29.089h-15.404v21.053h14.702c25.966 0 43.51 11.93 43.51 27.685 0 15.088-13.685 24.562-32.984 24.562-13.65 0-29.089-4.562-41.019-11.93l-7.72 18.948c17.194 10.527 36.808 15.439 56.458 15.439 25.966 0 57.511-11.579 57.511-44.563 0-21.018-19.264-34.703-38.212-38.563v-0.702c25.229-2.105 46.282-17.544 46.282-42.423zM2003.928 662.235c-15.053-13.334-30.141-18.562-37.861-19.966l-7.72 25.931c7.72 2.456 17.895 7.369 27.018 15.088 8.421 6.667 18.913 18.597 25.931 34.352 1.404 3.158 2.456 5.614 2.456 7.369s-0.702 4.211-2.105 8.070l-62.774 156.426h33.685l37.159-100.319c3.86-11.228 8.070-24.527 10.878-34.703h0.702c3.158 10.176 6.667 23.124 10.878 35.405l33.65 99.617h32.633l-46.282-120.987c-22.106-58.248-37.194-88.038-58.248-106.284zM1858.59 715.886c-22.457 0-42.107 9.825-52.247 26.668h-0.702v-92.249h-30.527v183.796c0 21.72-0.702 39.265-1.404 55.405h27.72l1.404-29.124h0.702c12.632 20.702 32.598 32.984 60.318 32.984 41.019 0 71.897-34.738 71.897-86.284 0-61.020-37.194-91.196-77.161-91.196zM1854.379 868.804c-21.053 0-40.668-15.088-46.633-38.212-1.053-3.86-2.105-8.421-2.105-12.632v-29.124c0-4.562 0.702-8.772 1.404-12.632 5.614-21.369 24.176-36.106 46.282-36.106 32.598 0 51.546 26.668 51.546 65.581 0 34.001-17.895 63.125-50.493 63.125zM1669.847 719.746h-30.527v169.76h104.179v-24.913h-73.652v-144.847zM1563.948 741.15h-1.053c-9.474-13.334-27.72-25.264-51.897-25.264-34.387 0-51.932 24.211-51.932 48.774 0 41.019 36.492 63.476 102.074 63.125v3.509c0 14-3.86 39.265-38.598 39.265-15.755 0-32.247-4.912-44.177-12.632l-7.018 20.352c14.036 9.123 34.387 15.088 55.756 15.088 51.932 0 64.529-35.44 64.529-69.441v-63.476c0-14.737 0.702-29.124 2.807-40.703h-28.036l-2.456 21.404zM1561.843 806.381c-33.685 0.702-71.897-5.263-71.897-38.212 0-20.001 13.334-29.475 29.124-29.475 22.071 0 36.106 14.036 41.019 28.422 1.053 3.158 1.754 6.632 1.754 9.79v29.475zM1430.681 784.626c0-49.089-42.423-68.739-85.547-68.739-21.404 0-43.861 4.562-61.721 15.439l8.035 23.86c12.632-7.369 33.685-14.386 52.984-14.386 35.054 0 54.353 18.948 54.353 44.879 0 35.44-34.036 45.616-64.178 45.616h-14.036v23.124h14.036c31.194 0 55.405 19.299 55.405 43.51 0 23.825-16.843 37.159-42.423 37.159-17.895 0-36.492-7.369-49.124-15.439l-8.421 22.457c16.141 10.527 36.843 17.895 62.458 17.895 41.019 0 69.406-21.404 69.406-57.897 0-29.089-21.018-51.195-48.739-57.511v-0.702c33.334-3.509 57.511-25.229 57.511-59.265zM53.721 679.534h-2.246c-28.352 0-51.475-22.632-51.475-50.247v-218.604c0-27.685 23.124-50.247 51.475-50.247h2.246c28.352 0 51.475 22.597 51.475 50.247v218.604c0 27.615-23.159 50.247-51.475 50.247zM129.864 326.329c0-25.404 21.299-46.072 47.335-46.072h50.563v-118.074c0-27.755 23.194-50.318 51.511-50.318h2.211c28.387 0 51.581 22.597 51.581 50.318v118.074h70.669v-118.074c0-27.755 23.264-50.318 51.581-50.318h2.176c28.387 0 51.546 22.597 51.546 50.318v118.074h50.598c26.001 0 47.3 20.667 47.3 46.072v345.17h-477.069v-345.17zM487.21 880.804l40.142 60.458c2.597 3.825 1.439 9.018-2.526 11.509-3.895 2.526-9.228 1.474-11.79-2.456l-41.651-62.528c-31.229 12.492-66.143 19.474-102.986 19.474-36.878 0-71.722-6.983-103.021-19.474l-41.58 62.528c-2.526 3.93-7.93 4.983-11.825 2.456-3.965-2.491-5.088-7.684-2.526-11.509l40.177-60.458c-72.459-34.633-121.337-99.898-121.337-174.778 0-4.597 0.281-9.123 0.667-13.615h478.929c0.386 4.491 0.632 9.018 0.632 13.615 0.035 74.88-48.879 140.145-121.302 174.778zM257.377 772.555c-12.702 0-23.053 10-23.053 22.457s10.351 22.387 23.053 22.387c12.772 0 23.053-9.93 23.053-22.387s-10.316-22.457-23.053-22.457zM479.42 772.555c-12.737 0-23.053 10-23.053 22.457s10.316 22.387 23.053 22.387c12.737 0 23.018-9.93 23.018-22.387s-10.281-22.457-23.018-22.457zM685.287 679.534h-2.176c-28.352 0-51.581-22.632-51.581-50.247v-218.604c0-27.685 23.229-50.247 51.581-50.247h2.176c28.387 0 51.511 22.597 51.511 50.247v218.604c0 27.615-23.159 50.247-51.511 50.247z" />
<glyph unicode="&#xe91a;" glyph-name="astore-2" horiz-adv-x="4078" d="M4075.864 220.703h-228.285c1.342-79.911 52.391-112.8 111.458-112.8 42.323 0 67.829 7.383 89.979 16.78l10.068-42.323c-20.807-9.397-56.381-20.136-108.102-20.136-100.010 0-159.784 65.816-159.784 163.849 0 97.996 57.724 175.222 152.401 175.222 106.088 0 134.279-93.335 134.279-153.072 0-12.082-1.342-21.479-2.014-27.519zM3938.9 359.009c-59.737 0-85.914-55.076-90.65-96.020h172.575c0.671 37.588-15.438 96.020-81.924 96.020zM3656.322 269.701c-1.342-8.054-2.685-17.451-2.685-27.519v-173.246h-58.432v223.586c0 38.259-0.671 71.185-2.685 101.389h51.72l2.014-63.802h2.685c14.767 43.666 50.34 71.185 89.942 71.185 6.712 0 11.448-0.671 16.817-2.014v-55.71c-6.041 1.342-12.119 2.014-20.173 2.014-41.615 0-71.148-31.584-79.202-75.884zM3358.978 61.553c-87.928 0-155.757 64.473-155.757 167.205 0 108.735 71.185 172.537 161.127 172.537 93.335 0 156.466-67.829 156.466-167.168 0-120.183-83.267-172.575-161.835-172.575zM3363.005 356.996c-69.805 0-100.010-64.473-100.010-126.224 0-71.185 40.944-124.882 98.667-124.882 56.419 0 98.705 53.025 98.705 126.224 0 55.039-27.519 124.882-97.362 124.882zM3188.753 753.94c0-47.357-59.626-53.324-95.013-53.324-20.136 0-41.018 1.492-50.676 2.237v178.168c12.641 2.237 36.133 4.102 57.388 4.102 30.167 0 80.135-4.848 80.135-45.12 0-22.336-17.153-36.133-37.662-40.608v-0.746c26.475-3.729 45.828-18.645 45.828-44.71zM3148.145 835.901c0 17.899-15.661 26.475-48.439 26.475-10.814 0-17.526-0.746-25.357-1.492v-53.286h24.611c24.201 0 49.185 7.085 49.185 28.303zM3097.841 785.971h-23.865v-61.49c9.322-1.119 16.034-1.492 26.475-1.492 21.963 0 54.778 5.22 54.778 31.323 0 26.065-26.102 31.659-57.388 31.659zM3088.407 487.247v-93.335h84.609v-44.971h-84.609v-175.259c0-40.272 11.411-63.093 44.337-63.093 15.438 0 26.848 2.014 34.232 4.027l2.685-44.337c-11.411-4.698-29.533-8.054-52.391-8.054-27.519 0-49.669 8.726-63.765 24.835-16.78 17.489-22.821 46.351-22.821 84.609v177.273h-50.378v44.971h50.378v77.897l57.724 15.438zM2777.676 62.224c-43.666 0-91.321 12.753-115.485 28.899l14.767 48.998c26.177-16.109 64.436-29.533 104.745-29.533 59.737 0 94.64 31.547 94.64 77.189 0 42.323-24.163 66.487-85.243 89.979-73.87 26.177-119.512 64.473-119.512 128.238 0 70.514 58.395 122.868 146.36 122.868 46.313 0 79.874-10.739 100.047-22.15l-16.146-47.693c-14.767 8.092-44.971 21.516-85.914 21.516-61.788 0-85.281-36.954-85.281-67.829 0-42.286 27.519-63.093 89.979-87.294 76.518-29.533 115.485-66.449 115.485-132.936 0-69.805-51.72-130.251-158.442-130.251zM2796.171 787.090c0.746-44.337 29.086-62.609 61.9-62.609 23.455 0 37.625 4.102 49.93 9.322l5.593-23.492c-11.56-5.22-31.323-11.187-59.998-11.187-55.561 0-88.711 36.543-88.711 90.948s32.031 97.288 84.609 97.288c58.88 0 74.541-51.832 74.541-84.982 0-6.712-0.746-11.933-1.119-15.289h-126.746zM2846.885 863.868c-33.187 0-47.73-30.577-50.34-53.286h95.796c0.373 20.845-8.577 53.286-45.456 53.286zM2691.389 702.853h-32.442v154.303h-56.269v26.102h144.981v-26.102h-56.269v-154.303zM2539.845 779.259c0 29.459 0.746 44.747 2.237 73.795h-1.119c-11.56-23.119-19.39-37.625-29.794-55.897-17.153-27.967-36.916-62.609-56.307-94.305h-37.625v180.405h30.913v-76.033c0-28.713-0.373-46.612-1.827-72.304l1.081-0.373c10.814 22.001 17.153 34.642 29.086 55.524l56.269 93.186h38.408v-180.405h-31.323v76.406zM2318.571 61.553c-42.957 0-80.545 18.794-100.010 51.049h-1.342v-176.602h-58.432v351.824c0 41.615-1.342 75.212-2.685 106.088h53.063l2.685-55.747h1.342c24.163 39.638 62.422 63.131 115.485 63.131 78.531 0 137.635-66.487 137.635-165.154 0-116.827-71.185-174.588-147.74-174.588zM2310.516 354.311c-40.272 0-77.86-28.899-89.27-73.199-2.014-7.383-4.027-16.109-4.027-24.163v-55.747c0-8.726 1.342-16.78 2.685-24.163 10.739-40.944 46.313-69.134 88.599-69.134 62.459 0 98.705 51.012 98.705 125.553 0 65.107-34.232 120.854-96.691 120.854zM2376.593 752.821c0-39.154-39.862-53.697-77.897-53.697-21.218 0-42.472 5.593-58.507 14.543l8.577 22.001c13.051-7.085 30.577-12.305 47.693-12.305 27.221 0 44.374 13.051 44.374 30.95 0 24.201-25.357 30.913-52.578 30.913h-16.37v22.374h15.624c27.594 0 46.239 12.678 46.239 29.421 0 16.034-14.543 26.102-35.052 26.102-14.506 0-30.913-4.848-43.591-12.678l-8.204 20.136c18.272 11.187 39.116 16.407 59.998 16.407 27.594 0 61.117-12.305 61.117-47.357 0-22.336-20.472-36.879-40.608-40.981v-0.746c26.811-2.237 49.185-18.645 49.185-45.083zM2110.982 641.736c-15.997-14.17-32.031-19.726-40.235-21.218l-8.204 27.557c8.204 2.61 19.018 7.831 28.713 16.034 8.949 7.085 20.099 19.763 27.557 36.506 1.492 3.356 2.61 5.966 2.61 7.831s-0.746 4.475-2.237 8.577l-66.71 166.235h35.798l39.489-106.61c4.102-11.933 8.577-26.065 11.56-36.879h0.746c3.356 10.814 7.085 24.574 11.56 37.625l35.76 105.864h34.679l-49.185-128.573c-23.492-61.9-39.527-93.559-61.9-112.949zM1956.529 698.752c-23.865 0-44.747 10.441-55.524 28.34h-0.746v-98.033h-32.442v195.321c0 23.082-0.746 41.727-1.492 58.88h29.459l1.492-30.95h0.746c13.424 22.001 34.642 35.052 64.1 35.052 43.591 0 76.406-36.916 76.406-91.694 0-64.846-39.527-96.915-81.999-96.915zM1952.055 861.258c-22.374 0-43.218-16.034-49.557-40.608-1.119-4.102-2.237-8.949-2.237-13.424v-30.95c0-4.848 0.746-9.322 1.492-13.424 5.966-22.709 25.692-38.371 49.185-38.371 34.642 0 54.778 28.34 54.778 69.694 0 36.133-19.018 67.083-53.659 67.083zM1755.951 702.853h-32.442v180.405h110.712v-26.475h-78.27v-153.93zM1593.034 211.269h-160.456l-46.984-142.333h-60.446l153.744 452.542h70.514l154.415-452.542h-62.422l-48.364 142.333zM1536.653 387.2c-10.068 29.533-16.78 56.381-23.492 82.596h-1.342c-6.712-26.886-14.095-54.405-22.821-81.924l-44.337-130.923h136.292l-44.3 130.251zM1643.412 725.6h-1.119c-10.068-14.17-29.459-26.848-55.151-26.848-36.543 0-55.188 25.73-55.188 51.832 0 43.591 38.781 67.456 108.474 67.083v3.729c0 14.878-4.102 41.727-41.018 41.727-16.743 0-34.269-5.22-46.947-13.424l-7.458 21.628c14.916 9.695 36.543 16.034 59.253 16.034 55.188 0 68.575-37.662 68.575-73.795v-67.456c0-15.661 0.746-30.95 2.983-43.256h-29.794l-2.61 22.746zM1641.174 794.921c-35.798 0.746-76.406-5.593-76.406-40.608 0-21.255 14.17-31.323 30.95-31.323 23.455 0 38.371 14.916 43.591 30.204 1.119 3.356 1.864 7.048 1.864 10.404v31.323zM1501.787 771.801c0-52.168-45.083-73.050-90.911-73.050-22.746 0-46.612 4.848-65.592 16.407l8.539 25.357c13.424-7.831 35.798-15.289 56.307-15.289 37.252 0 57.761 20.136 57.761 47.693 0 37.662-36.171 48.476-68.202 48.476h-14.916v24.574h14.916c33.15 0 58.88 20.509 58.88 46.239 0 25.319-17.899 39.489-45.083 39.489-19.018 0-38.781-7.831-52.205-16.407l-8.949 23.865c17.153 11.187 39.154 19.018 66.375 19.018 43.591 0 73.758-22.746 73.758-61.527 0-30.913-22.336-54.405-51.795-61.117v-0.746c35.425-3.729 61.117-26.811 61.117-62.982zM1813.824 338.165h1.342c24.163 39.638 62.422 63.131 115.485 63.131 78.531 0 137.635-66.487 137.635-165.154 0-116.827-71.185-174.588-147.703-174.588-42.995 0-80.582 18.794-100.047 51.049h-1.342v-176.602h-58.432v351.824c0 41.615-1.342 75.212-2.685 106.088h53.063l2.685-55.747zM1819.193 201.201c0-8.726 1.342-16.78 2.685-24.163 10.739-40.944 46.313-69.134 88.637-69.134 62.422 0 98.667 51.012 98.667 125.553 0 65.107-34.232 120.854-96.654 120.854-40.31 0-77.897-28.899-89.308-73.199-2.014-7.383-4.027-16.109-4.027-24.163v-55.747zM581.638 756.326c106.61 0 174.775-102.21 174.775-102.21s-104-55.971-104-177.422c0-144.235 130.662-186.185 130.662-186.185s-103.142-242.529-218.925-242.529c-65.107 0-69.47 37.177-156.018 37.177-75.138 0-100.495-37.177-157.734-37.177-109.257 0-250.397 236.451-250.397 428.714 0 199.684 142.892 279.632 232.461 279.632 78.68 0 111.458-45.903 174.812-45.903 53.324 0 95.274 45.903 174.365 45.903zM563.291 960c15.699-97.922-73.87-218.925-180.927-215.010-15.736 124.509 99.637 208.447 180.927 215.010z" />
<glyph unicode="&#xe91b;" glyph-name="aic" horiz-adv-x="1978" d="M1729.82 35.365c0-63.97 46.511-99.536 102.843-99.536 84.532 0 145.092 72.563 145.092 150.719 0 58.31-32.394 102.4-101.411 102.4-87.362 0-146.524-76.757-146.524-153.583v0zM483.186 432.11c-19.743-91.011-30.996-128.009-63.425-193.377-32.394-64.004-87.328-142.194-156.345-142.194-64.789 0-83.1 46.886-83.1 112.289 0 147.922 131.009 368.272 261.984 368.272 33.826 0 54.968-7.127 67.619-22.744l-26.734-122.246zM821.246 537.272c19.709 7.127 36.623 12.821 52.104 4.331 15.515-8.559 15.515-32.735 5.66-76.826l-78.906-371.102c-5.626-25.609-7.024-46.955-7.024-65.402 0-46.921 30.996-91.011 91.556-91.011 98.615 0 184.545 71.131 245.105 159.278l-32.394 31.235c0 0-49.307-49.751-92.989-49.751-18.311 0-29.564 9.957-21.107 44.090l77.473 335.536c9.855 44.090 18.311 72.529 18.311 99.536 0 25.643-8.457 91.011-90.158 91.011-63.39 0-123.951-29.837-173.258-102.366l5.626-8.559zM925.487 851.53c-5.626-63.97 39.453-115.153 98.615-115.153 63.39 0 111.266 46.886 116.892 106.628 5.66 61.14-39.419 116.585-98.581 116.585-60.594 0-111.3-46.921-116.926-108.060v0zM1687.571 100.768c-19.709-38.362-115.494-163.506-280.33-163.506-157.777 0-236.649 113.721-236.649 261.643 0 126.542 60.56 265.872 154.947 348.358 90.158 79.622 171.86 100.934 254.96 100.934 125.383 0 176.088-69.665 176.088-139.329 0-55.445-38.021-123.712-114.096-123.712-42.249 0-76.075 22.778-91.556 68.267 19.709 17.050 26.768 44.056 26.768 68.233 0 21.346-16.913 48.319-50.706 48.319-88.76 0-178.919-110.857-178.919-298.573 0-100.934 52.138-187.682 153.549-187.682 52.138 0 107.072 9.957 159.175 51.217l26.768-34.167zM717.005 127.774c0 0-45.079-52.581-92.955-52.581-19.743 0-29.598 17.050-22.54 48.353l104.241 486.289c-12.685 9.889-102.843 38.362-212.711 38.362-123.985 0-243.707-36.929-349.347-157.811-109.902-126.542-143.694-268.77-143.694-352.62 0-105.264 45.079-200.503 152.151-200.503 107.037 0 232.42 95.239 316.918 309.962l4.228-1.398c0 0-61.958-147.922-61.958-220.417 0-42.624 11.253-88.147 80.27-88.147 92.989 0 197.23 71.131 257.79 159.278l-32.394 31.235z" />
<glyph unicode="&#xe91c;" glyph-name="whatsapp" d="M511.915-64c-87.004 0-172.728 22.519-249.070 65.253l-205.738-60.86c-15.012-4.393-31.432-0.171-42.478 11.131-10.961 11.345-14.799 27.85-9.852 42.862l64.698 196.867c-45.506 78.175-69.475 166.501-69.475 256.746 0 282.336 229.664 512 511.915 512 282.293 0 511.915-229.664 511.915-512s-229.622-512-511.915-512zM511.915 875.086c-235.465 0-427.001-191.579-427.001-427.086 0-80.862 23.073-159.891 66.788-228.683 6.824-10.662 8.487-23.926 4.521-36.038l-45.549-138.481 145.731 43.033c3.924 1.194 7.975 1.749 11.984 1.749 7.719 0 15.396-2.090 22.092-6.227 67.087-40.858 143.641-62.481 221.433-62.481 235.507 0 427.043 191.579 427.043 427.129 0 235.507-191.536 427.086-427.043 427.086zM677.392 236.973c-20.983-1.834-20.983-16.761-137.201 27.892-116.176 44.739-189.489 161.128-195.204 168.548-5.758 7.421-46.658 60.476-46.658 115.451 0 54.889 29.513 81.929 40.005 93.017 10.449 11.217 22.817 13.989 30.451 13.989 7.592 0 15.226-0.896 21.879-0.896 6.696 0 16.207 3.71 25.76-18.638 9.511-22.348 32.328-77.28 35.185-82.867 2.9-5.587 4.777-12.027 0.981-19.576-3.838-7.378-5.715-12.070-11.387-18.552-5.715-6.525-12.070-14.543-17.188-19.618-5.715-5.502-11.686-11.515-4.99-22.732 6.653-11.217 29.598-47.681 63.547-77.28 43.672-38.043 80.478-49.814 91.951-55.401 11.43-5.587 18.040-4.691 24.694 2.857 6.653 7.421 28.617 32.541 36.209 43.63 7.634 11.259 15.226 9.34 25.76 5.587 10.449-3.668 66.618-30.707 78.047-36.209 11.473-5.587 19.021-8.444 21.879-13.008 2.857-4.649 2.857-27.082-6.653-53.141s-56.211-51.221-77.067-53.055z" />
<glyph unicode="&#xe91d;" glyph-name="viber" horiz-adv-x="1037" d="M993.473 533.134c-23.867 0-43.207 19.127-43.207 42.652 0 164.803-135.685 298.909-302.452 298.909-23.867 0-43.207 19.085-43.207 42.61 0 23.568 19.341 42.695 43.207 42.695 214.415 0 388.867-172.318 388.867-384.213 0-23.525-19.341-42.652-43.207-42.652zM907.058 533.134c0-23.525-19.341-42.652-43.207-42.652s-43.207 19.127-43.207 42.652c0 117.668-96.918 213.476-216.037 213.476-23.867 0-43.207 19.085-43.207 42.652s19.341 42.695 43.207 42.695c166.767 0 302.452-134.063 302.452-298.823zM354.668 541.588l258.476-255.274 144.993 71.6c15.541 7.685 34.284 5.422 47.52-5.807l216.037-183.973c8.753-7.429 14.089-17.975 14.901-29.374 0.811-11.314-3.031-22.586-10.674-31.125l-125.225-140.723c-20.878-20.707-47.904-30.911-81.206-30.911-46.196 0-104.304 19.597-174.538 58.322-102.298 56.4-219.624 147.725-330.375 257.195-208.053 205.577-386.22 472.037-285.716 571.346l143.712 126.335c8.624 7.642 19.939 11.485 31.509 10.716 11.528-0.769 22.287-6.020 29.844-14.644l187.261-213.433c11.442-13.065 13.791-31.594 5.977-47.050l-72.496-143.199zM197.294 856.72l-108.36-95.125c-24.464-24.251 42.055-207.925 286.783-449.708 105.243-104.048 215.824-190.378 311.333-243.021 103.877-57.211 144.608-49.612 149.817-44.531l95.381 107.25-161.217 137.265-147.127-72.667c-16.694-8.197-36.718-4.91-49.825 8.069l-302.495 298.695c-13.15 13.022-16.438 32.833-8.112 49.313l73.478 145.206-139.656 159.253z" />
<glyph unicode="&#xe91e;" glyph-name="telegram" horiz-adv-x="1023" d="M1019.945 934.433c0.598-1.451 0.939-2.902 1.409-4.396 1.024-3.415 1.665-6.829 1.835-10.372 0.085-1.622 0.128-3.116 0.043-4.695-0.256-3.799-1.067-7.512-2.39-11.226-0.384-1.152-0.512-2.305-1.024-3.457-0.171-0.299-0.171-0.683-0.299-1.024l-448.68-938.976c-7.085-14.854-22.11-24.286-38.5-24.286-0.171 0-0.341 0-0.512 0-16.561 0.213-31.585 9.988-38.414 25.097l-152.292 338.559-319.138 176.621c-14.213 7.896-22.75 23.219-21.939 39.396 0.854 16.347 10.799 30.689 25.738 37.134l938.379 404.077c0.299 0.128 0.64 0.128 0.939 0.256 0.982 0.384 2.006 0.47 3.030 0.811 3.884 1.238 7.768 1.963 11.738 2.049 1.537 0.043 2.945-0.085 4.482-0.213 3.628-0.299 7.085-1.024 10.543-2.219 1.409-0.512 2.817-0.896 4.183-1.537 4.482-2.134 8.665-4.823 12.293-8.494 0.085-0.085 0.213-0.128 0.299-0.213 0.043 0 0.043-0.043 0.043-0.043l0.043-0.043c3.628-3.799 6.189-8.195 8.195-12.805zM533.491 80.011l306.76 641.947-414.833-401.644 108.073-240.303zM367.242 382.76l416.882 403.65-644.679-277.565 227.797-126.085z" />
<glyph unicode="&#xe91f;" glyph-name="skype" d="M1024 234.667c0-164.693-135.637-298.667-302.293-298.667-44.715 0-89.131 9.899-129.365 28.715-24.875-3.797-50.176-5.717-75.392-5.717-270.379 0-490.325 217.173-490.325 484.053 0 27.477 2.347 54.827 6.912 81.536-21.973 42.155-33.536 89.088-33.536 136.704 0 164.736 135.637 298.709 302.293 298.709 51.456 0 101.803-12.928 146.603-37.547 22.699 3.115 45.525 4.651 68.053 4.651 270.379 0 490.368-217.088 490.368-484.053 0-29.952-2.773-59.904-8.277-89.344 16.597-37.504 24.96-77.525 24.96-119.040zM912.768 357.461c6.101 28.032 9.216 56.832 9.216 85.589 0 219.861-181.675 398.763-405.035 398.763-22.955 0-46.379-1.963-69.504-5.845-10.155-1.792-20.693 0.384-29.525 5.845-34.688 21.461-74.667 32.853-115.627 32.853-119.637 0-216.96-95.744-216.96-213.376 0-37.803 10.24-75.051 29.653-107.648 5.461-9.173 7.296-20.053 5.12-30.464-5.419-26.069-8.149-52.992-8.149-80.128 0-219.861 181.675-398.72 404.992-398.72 24.96 0 49.963 2.261 74.325 6.656 2.517 0.512 5.077 0.725 7.637 0.725 6.912 0 13.739-1.664 19.968-4.949 31.403-16.597 66.987-25.429 102.827-25.429 119.637 0 216.96 95.701 216.96 213.333 0 33.195-7.552 64.981-22.357 94.507-4.395 8.747-5.675 18.731-3.541 28.288zM632.235 209.963c-29.909-13.483-68.565-18.005-109.269-18.005-49.024 0-87.253 7.083-119.253 25.387-22.869 13.483-41.856 31.616-56.192 54.101-14.379 22.571-21.803 45.056-21.803 66.731 0 13.483 4.821 25.216 14.336 34.901 9.259 9.472 21.205 14.293 35.541 14.293 11.691 0 21.76-3.755 29.995-11.264 7.765-7.211 14.549-17.963 19.968-31.701 6.059-15.019 12.587-27.691 19.584-37.547 6.699-9.643 16.299-17.749 28.587-24.021 12.373-6.357 28.971-9.557 49.493-9.557 28.16 0 51.285 6.528 68.651 19.371 16.981 12.544 25.216 27.648 25.216 46.123 0 14.549-4.309 26.027-13.141 35.029-9.301 9.429-21.547 16.64-36.352 21.717-15.531 5.248-36.523 10.965-62.549 16.853-35.413 8.192-65.451 17.92-89.301 28.885-24.491 11.307-44.16 26.965-58.539 46.464-14.677 19.883-22.101 44.757-22.101 74.112 0 27.904 7.765 53.077 23.125 74.709 15.232 21.589 37.547 38.357 66.176 49.792 28.288 11.307 61.909 17.109 100.011 17.109 30.464 0 57.173-3.84 79.531-11.307 22.485-7.68 41.387-17.835 56.363-30.507 14.891-12.629 26.112-26.24 33.067-40.32 7.083-14.208 10.667-28.416 10.667-42.112 0-13.227-2.389-23.552-12.16-33.621-6.4-6.443-12.971-12.203-26.795-12.203-36.608 0-52.437 19.883-59.733 33.579-8.533 17.451-18.816 31.232-30.549 41.003-11.52 9.429-30.677 14.208-56.917 14.208-24.448 0-44.331-5.333-59.051-15.787-14.208-10.069-24.32-21.163-23.893-34.944 0.597-18.432 5.333-35.712 57.259-50.219 9.515-2.688 100.139-26.155 122.496-33.92 22.741-7.936 42.325-17.579 58.283-28.843 16.427-11.52 29.312-26.325 38.528-43.989 9.216-17.792 13.824-39.68 13.824-65.152 0-30.336-8.021-58.155-23.851-82.389-15.787-24.192-39.083-43.349-69.248-56.96z" />
<glyph unicode="&#xe920;" glyph-name="phone2" d="M810.748-64c-127.712 0-333.16 147.882-499.506 314.568-109.078 109.248-199.478 224.509-254.529 324.461-64.858 117.734-74.111 201.056-27.675 247.578l141.997 126.603c8.528 7.59 19.743 11.428 31.086 10.703 11.428-0.725 22.003-6.055 29.465-14.669l184.937-213.678c11.343-13.048 13.645-31.64 5.97-47.077l-71.596-143.404 255.168-255.638 143.191 71.723c15.394 7.718 33.858 5.416 46.906-5.842l213.337-184.255c8.656-7.462 13.944-18.037 14.711-29.38 0.81-11.428-2.985-22.6-10.49-31.214l-123.704-140.888c-20.34-20.383-47.418-29.593-79.271-29.593zM90.614 763.379c-7.036-10.063-12.11-50.914 40.808-147.072 51.298-93.13 136.582-201.568 240.201-305.273 241.139-241.694 430.981-312.436 455.372-287.875l94.196 107.372-159.182 137.477-145.281-72.747c-16.46-8.23-36.288-4.946-49.251 7.974l-298.663 299.175c-13.006 13.006-16.204 32.877-8.017 49.337l72.576 145.409-137.946 159.395-104.814-93.172z" />
<glyph unicode="&#xe921;" glyph-name="fax" horiz-adv-x="1117" d="M1106.991 539.462c-0.652-12.614-6.377-24.436-15.919-32.768-9.542-8.239-22.156-12.567-34.63-11.264l-79.081 6.935v-333.638c0-128.279-104.401-232.727-232.727-232.727h-372.364c-128.326 0-232.727 104.448-232.727 232.727v333.079l-77.964-7.075c-1.396-0.093-2.793-0.14-4.189-0.14-11.124 0-21.923 4.003-30.394 11.311-9.588 8.285-15.36 20.061-16.058 32.721l-10.938 199.028c-0.093 51.572 31.744 119.11 183.296 169.612 102.121 34.025 236.265 52.736 377.856 52.736 0.186 0 0.326 0 0.512 0 275.968-0.047 555.334-75.217 555.334-218.764l-10.007-201.775zM232.634 168.727c0-76.986 62.65-139.636 139.636-139.636h372.364c76.986 0 139.636 62.65 139.636 139.636v341.783l-89.414 7.82c-19.921 1.722-36.492 15.919-41.193 35.375l-30.86 127.023h-328.285l-30.86-127.023c-4.748-19.409-21.225-33.559-41.053-35.375l-89.972-8.145v-341.457zM561.617 866.909c-0.14 0-0.326 0-0.465 0-131.863 0-255.581-17.036-348.439-47.942-87.831-29.277-119.715-62.371-119.715-77.452l8.239-149.69 179.805 16.244 31.651 130.234c5.073 20.852 23.738 35.514 45.196 35.514h401.501c21.504 0 40.169-14.662 45.242-35.514l31.604-130.141 180.177-15.779 7.587 149.876c-0.093 43.241-175.569 124.602-462.383 124.649zM372.271 494.545h372.364c25.693 0 46.545-20.852 46.545-46.545 0-25.74-20.852-46.545-46.545-46.545h-372.364c-25.693 0-46.545 20.806-46.545 46.545 0 25.693 20.852 46.545 46.545 46.545zM372.271 354.909h372.364c25.693 0 46.545-20.852 46.545-46.545s-20.852-46.545-46.545-46.545h-372.364c-25.693 0-46.545 20.852-46.545 46.545s20.852 46.545 46.545 46.545zM372.271 215.273h372.364c25.693 0 46.545-20.806 46.545-46.545 0-25.693-20.852-46.545-46.545-46.545h-372.364c-25.693 0-46.545 20.852-46.545 46.545 0 25.74 20.852 46.545 46.545 46.545z" />
<glyph unicode="&#xe922;" glyph-name="email" horiz-adv-x="1365" d="M1194.667-64h-1024c-94.094 0-170.667 76.572-170.667 170.61v682.724c0 94.094 76.572 170.667 170.667 170.667h1024c94.094 0 170.667-76.572 170.667-170.667v-682.724c0-94.037-76.572-170.61-170.667-170.61zM170.667 49.778h1024c31.346 0 56.889 25.543 56.889 56.832v671.175l-533.163-430.933c-10.411-8.42-23.040-12.572-35.726-12.572s-25.316 4.153-35.726 12.572l-533.163 430.933v-671.175c0-31.289 25.543-56.832 56.889-56.832zM1155.243 846.222h-945.209l472.633-381.952 472.576 381.952z" />
<glyph unicode="&#xe923;" glyph-name="file-ppt" horiz-adv-x="864" d="M736 0l-672 0.8 0.8 895.2h351.2v-256c0-17.664 14.336-32 32-32h256v-128c0-17.664 14.304-32 32-32s32 14.336 32 32v156.896c0.096 1.056 0.64 1.984 0.64 3.104 0 10.784-5.312 20.32-13.472 26.112l-284.512 284.512c-0.032 0.032-0.032 0.032-0.064 0.032-2.688 2.688-5.856 4.64-9.184 6.176-0.928 0.448-1.92 0.672-2.88 1.024-2.816 0.992-5.664 1.568-8.64 1.76-0.672 0.032-1.216 0.384-1.888 0.384h-383.2c-35.744 0-64.8-29.056-64.8-64.8v-894.4c0-35.744 29.056-64.8 64.8-64.8h671.2c17.696 0 32 14.304 32 32s-14.304 32-32 32zM480 672v178.752l178.752-178.752h-178.752zM256 384c-17.664 0-32-14.304-32-32v-256c0-17.696 14.336-32 32-32s32 14.304 32 32v64h32.928c53.312 1.568 95.072 51.040 95.072 112.64 0 62.464-42.176 111.36-96 111.36h-64zM352 272.64c0-29.856-16.736-48.16-32-48.64h-32v96h32c15.744 0 32-17.728 32-47.36zM480 384c-17.664 0-32-14.304-32-32v-256c0-17.696 14.336-32 32-32 17.696 0 32 14.304 32 32v64h32.928c53.312 1.568 95.072 51.040 95.072 112.64 0 62.464-42.144 111.36-96 111.36h-64zM576 272.64c0-29.856-16.736-48.16-32-48.64h-32v96h32c15.712 0 32-17.728 32-47.36zM832 384h-128c-17.696 0-32-14.304-32-32s14.304-32 32-32h32v-224c0-17.696 14.304-32 32-32s32 14.304 32 32v224h32c17.696 0 32 14.304 32 32s-14.304 32-32 32z" />
<glyph unicode="&#xe924;" glyph-name="file-jpg" horiz-adv-x="928" d="M736 0l-672 0.8 0.8 895.2h351.2v-256c0-17.664 14.336-32 32-32h256v-128c0-17.664 14.304-32 32-32s32 14.336 32 32v156.896c0.096 1.056 0.64 1.984 0.64 3.104 0 10.784-5.312 20.32-13.472 26.112l-284.512 284.512c-0.032 0.032-0.032 0.032-0.064 0.032-2.688 2.688-5.856 4.64-9.184 6.176-0.928 0.416-1.888 0.672-2.848 1.024-2.816 0.992-5.696 1.568-8.672 1.76-0.672 0.032-1.216 0.384-1.888 0.384h-383.2c-35.744 0-64.8-29.056-64.8-64.8v-894.4c0-35.744 29.056-64.8 64.8-64.8h671.2c17.696 0 32 14.304 32 32s-14.304 32-32 32zM480 672v178.752l178.752-178.752h-178.752zM384 352v-192c0-17.664-14.368-32-32-32s-32 14.336-32 32c0 17.696-14.336 32-32 32s-32-14.304-32-32c0-52.928 43.072-96 96-96s96 43.072 96 96v192c0 17.696-14.336 32-32 32s-32-14.304-32-32zM512 384c-17.664 0-32-14.304-32-32v-256c0-17.696 14.336-32 32-32 17.696 0 32 14.304 32 32v64h32.928c53.312 1.568 95.072 51.072 95.072 112.672 0 62.432-42.144 111.328-96 111.328h-64zM608 272.672c0-29.888-16.736-48.224-32-48.672h-32v96h32c15.712 0 32-17.696 32-47.328zM896 256h-63.008c-17.696 0-32-14.304-32-32s14.304-32 32-32h31.008v-16c0-26.464-21.536-48-48-48s-48 21.536-48 48v96c0 26.464 21.536 48 48 48 25.472 0 37.792-5.952 49.472-15.488 13.664-11.232 33.824-9.152 45.024 4.48 11.2 13.664 9.216 33.824-4.48 45.024-25.28 20.736-53.056 29.984-90.016 29.984-61.76 0-112-50.24-112-112v-96c0-61.76 50.24-112 112-112s112 50.24 112 112v48c0 17.696-14.304 32-32 32z" />
<glyph unicode="&#xe925;" glyph-name="file-rar" horiz-adv-x="896" d="M736 0l-672 0.8 0.8 895.2h351.2v-256c0-17.664 14.336-32 32-32h256v-128c0-17.664 14.304-32 32-32s32 14.336 32 32v156.896c0.096 1.056 0.64 1.984 0.64 3.104 0 10.784-5.312 20.32-13.472 26.112l-284.512 284.512c-0.032 0.032-0.032 0.032-0.064 0.032-2.688 2.688-5.856 4.64-9.184 6.176-0.928 0.448-1.92 0.672-2.88 1.024-2.816 0.992-5.664 1.568-8.64 1.76-0.672 0.032-1.216 0.384-1.888 0.384h-383.2c-35.744 0-64.8-29.056-64.8-64.8v-894.4c0-35.744 29.056-64.8 64.8-64.8h671.2c17.696 0 32 14.304 32 32s-14.304 32-32 32zM480 672v178.752l178.752-178.752h-178.752zM416 272.64c0 62.464-42.176 111.36-96 111.36h-64c-17.664 0-32-14.304-32-32v-256c0-17.696 14.336-32 32-32s32 14.304 32 32v64h14.88l54.496-81.76c6.176-9.248 16.32-14.24 26.656-14.24 6.080 0 12.256 1.76 17.728 5.376 14.688 9.824 18.656 29.664 8.864 44.384l-41.792 62.688c28.288 19.648 47.168 55.008 47.168 96.192zM288 320h32c15.744 0 32-17.728 32-47.36 0-29.856-16.736-48.16-32-48.64h-32v96zM848.832 176.448c28.288 19.648 47.168 55.008 47.168 96.192 0 62.464-42.144 111.36-96 111.36h-64c-17.696 0-32-14.304-32-32v-256c0-17.696 14.304-32 32-32s32 14.304 32 32v64h14.88l54.496-81.76c6.144-9.248 16.32-14.24 26.656-14.24 6.080 0 12.256 1.76 17.728 5.376 14.72 9.824 18.688 29.664 8.864 44.384l-41.792 62.688zM768 320h32c15.712 0 32-17.728 32-47.36 0-29.856-16.736-48.16-32-48.64h-32v96zM560 384c-14.016 0-26.368-9.088-30.528-22.464l-80-256c-5.28-16.832 4.128-34.816 20.992-40.064 16.832-5.248 34.784 4.128 40.064 20.992l12.992 41.536h72.96l12.992-41.536c4.288-13.728 16.896-22.464 30.528-22.464 3.168 0 6.368 0.48 9.536 1.472 16.864 5.248 26.272 23.232 20.992 40.064l-80 256c-4.16 13.376-16.512 22.464-30.528 22.464zM543.52 192l16.48 52.704 16.48-52.704h-32.96z" />
<glyph unicode="&#xe926;" glyph-name="file-pdf" horiz-adv-x="898" d="M865.948 383.984h-128.289c-17.736 0-32.072-14.304-32.072-32.008v-255.968c0-17.672 14.336-31.976 32.072-31.976s32.072 14.304 32.072 31.976v95.992h64.144c17.736 0 32.072 14.304 32.072 32.008 0 17.672-14.336 32.008-32.072 32.008h-64.144v63.952h96.216c17.736 0 32.072 14.368 32.072 32.008 0 17.704-14.336 32.008-32.072 32.008zM737.66-0.016l-673.515 0.834v896.77h352.794v-257.604c0-17.672 14.336-31.976 32.072-31.976h256.577v-128.032c0-17.672 14.336-31.976 32.072-31.976s32.072 14.304 32.072 31.976v156.929c0.096 1.058 0.609 1.988 0.609 3.079 0 8.082-3.624 14.849-8.531 20.494-0.866 0.962-1.572 1.988-2.534 2.854-0.93 0.834-1.411 2.053-2.405 2.758l-285.154 284.448c-0.064 0.096-0.192 0.16-0.257 0.225-2.662 2.598-5.677 4.49-8.916 5.997-1.058 0.513-2.149 0.77-3.239 1.155-2.63 0.898-5.292 1.443-8.082 1.636-0.77 0.032-1.443 0.449-2.213 0.449h-384.064c-35.825 0-64.946-29.089-64.946-64.85v-894.332c0-35.728 29.122-64.818 64.946-64.818h672.714c17.736 0 32.072 14.336 32.072 32.008s-14.336 31.976-32.072 31.976zM481.082 850.762l179.155-178.77h-179.155v178.77zM256.577 383.984c-17.736 0-32.072-14.304-32.072-32.008v-255.968c0-17.672 14.336-31.976 32.072-31.976s32.072 14.304 32.072 31.976v64.016h33.002c53.432 1.539 95.286 50.995 95.286 112.637 0 62.412-42.239 111.322-96.216 111.322h-64.144zM352.794 272.661c0-29.859-16.806-48.172-32.072-48.653h-32.072v95.96h32.072c15.747 0 32.072-17.672 32.072-47.306zM481.082 383.984c-17.736 0-32.072-14.304-32.072-32.008v-255.968c0-17.672 14.336-31.976 32.072-31.976h67.287c68.987 0 125.146 56.030 125.146 124.889v70.206c0 68.891-56.158 124.857-125.146 124.857h-67.287zM609.371 259.127v-70.206c0-33.58-27.39-60.937-61.001-60.937h-35.215v191.984h35.215c33.612 0 61.001-27.261 61.001-60.841z" />
<glyph unicode="&#xe927;" glyph-name="file-doc" horiz-adv-x="1023" d="M320.389 383.98c-17.673 0-32.042-14.305-32.042-32.010v-255.952c0-17.673 14.369-31.978 32.042-31.978h67.227c68.927 0 125.025 56.002 125.025 124.865v70.21c0 68.895-56.098 124.865-125.025 124.865h-67.227zM448.557 259.115v-70.21c0-33.582-27.359-60.877-60.941-60.877h-35.185v191.964h35.185c33.582 0 60.941-27.295 60.941-60.877zM758.49 663.314c-0.898 0.834-1.411 2.053-2.406 2.758l-284.851 284.498c-0.032 0.032-0.064 0.064-0.096 0.096-2.694 2.662-5.837 4.619-9.173 6.158-0.93 0.449-1.892 0.674-2.855 1.026-2.823 0.994-5.709 1.604-8.724 1.764-0.641 0.032-1.187 0.385-1.828 0.385h-383.639c-35.795 0-64.918-29.059-64.918-64.854v-894.324c0-35.763 29.123-64.822 64.918-64.822h671.986c17.705 0 32.042 14.305 32.042 31.978 0 17.705-14.337 32.010-32.042 32.010l-672.82 0.834 0.128 896.794h352.303v-257.652c0-17.673 14.337-32.010 32.042-32.010h256.305v-127.976c0-17.673 14.337-32.010 32.042-32.010s32.042 14.337 32.042 32.010v156.811c0.096 1.091 0.641 2.053 0.641 3.175 0 8.115-3.656 14.882-8.596 20.527-0.834 0.962-1.54 1.957-2.502 2.823zM480.599 671.974v178.749l178.974-178.749h-178.974zM913.12 319.992c22.452 0 42.21-15.877 46.989-37.719 3.753-17.256 20.784-28.193 38.104-24.473 17.288 3.785 28.257 20.752 24.505 38.072-11.13 51.030-57.22 88.108-109.597 88.108-61.839 0-112.131-50.26-112.131-111.971v-95.966c0-61.807 50.292-112.003 112.131-112.003 52.088 0 98.115 36.789 109.437 87.466 3.849 17.256-7.024 34.384-24.312 38.232-17.128 3.785-34.384-7.056-38.232-24.248-4.843-21.746-24.569-37.463-46.892-37.463-26.493 0-48.047 21.522-48.047 48.015v95.966c0 26.461 21.554 47.983 48.047 47.983zM656.815 383.98c-61.839 0-112.131-50.26-112.131-111.971v-95.966c0-61.807 50.292-112.003 112.131-112.003 61.807 0 112.131 50.196 112.131 112.003v95.966c0 61.711-50.324 111.971-112.131 111.971zM704.862 176.043c0-26.493-21.554-48.015-48.047-48.015s-48.079 21.522-48.079 48.015v95.966c0 26.461 21.586 47.983 48.079 47.983s48.047-21.522 48.047-47.983v-95.966z" />
<glyph unicode="&#xe928;" glyph-name="file-xls" horiz-adv-x="896" d="M809.696 254.432c-0.064 0.032-0.096 0.064-0.16 0.096-0.416 0.16-41.536 14.208-41.536 41.472 0 13.472 14.048 24 32 24 16.768 0 35.168-15.904 40.16-21.344 11.776-13.184 31.968-14.272 45.184-2.496 13.152 11.776 14.272 32 2.496 45.184-3.904 4.352-39.552 42.656-87.84 42.656-53.856 0-96-38.656-96-88 0-59.616 54.336-92.512 86.464-102.528 0.288-0.096 0.544-0.064 0.832-0.128 0.256-0.064 0.448-0.256 0.704-0.352 0.416-0.096 40-10.688 40-43.488 0-14.144-16.096-21.504-32-21.504-16.736 0-35.168 15.936-40.192 21.376-11.776 13.152-32 14.272-45.184 2.432-13.152-11.776-14.24-32-2.432-45.184 3.904-4.352 39.584-42.624 87.808-42.624 54.72 0 96 36.736 96 85.504 0 64.384-55.52 96.384-86.304 104.928zM432.96 379.136c-14.976 9.408-34.72 4.832-44.096-10.144l-52.864-84.608-52.864 84.576c-9.376 15.008-29.12 19.52-44.096 10.144-15.008-9.344-19.552-29.088-10.176-44.096l69.376-111.008-69.408-111.040c-9.344-15.008-4.8-34.752 10.176-44.096 5.312-3.296 11.168-4.864 16.96-4.864 10.656 0 21.088 5.312 27.168 15.040l52.864 84.576 52.864-84.576c6.080-9.728 16.512-15.040 27.168-15.040 5.792 0 11.648 1.568 16.928 4.864 15.008 9.344 19.552 29.088 10.176 44.096l-69.376 111.040 69.408 111.040c9.344 14.976 4.8 34.752-10.208 44.096zM512 384c-17.696 0-32-14.304-32-32v-256c0-17.696 14.304-32 32-32h128c17.696 0 32 14.304 32 32s-14.304 32-32 32h-96v224c0 17.696-14.304 32-32 32zM736 0l-672 0.8 0.8 895.2h351.2v-256c0-17.664 14.336-32 32-32h256v-128c0-17.664 14.304-32 32-32s32 14.336 32 32v156.896c0.096 1.056 0.64 1.984 0.64 3.104 0 10.784-5.312 20.32-13.472 26.112l-284.512 284.512c-0.032 0.032-0.032 0.032-0.064 0.032-2.688 2.688-5.856 4.64-9.184 6.176-0.928 0.448-1.92 0.672-2.88 1.024-2.816 0.992-5.664 1.568-8.64 1.76-0.672 0.032-1.216 0.384-1.888 0.384h-383.2c-35.744 0-64.8-29.056-64.8-64.8v-894.4c0-35.744 29.056-64.8 64.8-64.8h671.2c17.696 0 32 14.304 32 32s-14.304 32-32 32zM480 672v178.752l178.752-178.752h-178.752z" />
<glyph unicode="&#xe929;" glyph-name="file-png" horiz-adv-x="928" d="M736 0l-672 0.8 0.8 895.2h351.2v-256c0-17.664 14.336-32 32-32h256v-128c0-17.664 14.304-32 32-32s32 14.336 32 32v156.896c0.096 1.056 0.64 1.984 0.64 3.104 0 10.784-5.312 20.32-13.472 26.112l-284.512 284.512c-0.032 0.032-0.032 0.032-0.064 0.032-2.688 2.688-5.856 4.64-9.184 6.176-0.928 0.416-1.888 0.672-2.848 1.024-2.816 0.992-5.696 1.568-8.672 1.76-0.672 0.032-1.216 0.384-1.888 0.384h-383.2c-35.744 0-64.8-29.056-64.8-64.8v-894.4c0-35.744 29.056-64.8 64.8-64.8h671.2c17.696 0 32 14.304 32 32s-14.304 32-32 32zM480 672v178.752l178.752-178.752h-178.752zM608 352v-144.416l-100.864 161.376c-0.64 1.024-1.664 1.632-2.432 2.56-1.344 1.728-2.752 3.264-4.416 4.672-1.6 1.344-3.264 2.432-5.056 3.424-1.76 0.96-3.488 1.76-5.408 2.4-2.112 0.704-4.224 1.056-6.432 1.312-1.184 0.128-2.176 0.672-3.392 0.672-0.864 0-1.568-0.416-2.4-0.48-2.144-0.16-4.128-0.672-6.208-1.248-2.144-0.608-4.128-1.28-6.080-2.272-0.736-0.384-1.536-0.416-2.24-0.832-0.992-0.64-1.568-1.632-2.464-2.336-1.76-1.376-3.36-2.816-4.8-4.544-1.312-1.568-2.368-3.2-3.328-4.96-0.992-1.76-1.824-3.52-2.464-5.504-0.704-2.112-1.056-4.192-1.28-6.4-0.192-1.184-0.736-2.208-0.736-3.424v-256c0-17.696 14.336-32 32-32s32 14.304 32 32v144.416l100.864-161.376c1.056-1.728 2.432-3.104 3.744-4.544 0.416-0.448 0.704-0.96 1.12-1.376 2.624-2.56 5.632-4.48 8.864-5.984 0.768-0.352 1.536-0.608 2.336-0.896 3.552-1.312 7.232-2.208 11.008-2.208 0.032 0 0.032 0 0.064 0 0 0 0 0 0 0s0 0 0.032 0c3.68 0 7.36 0.896 10.944 2.208 1.056 0.384 2.048 0.864 3.040 1.344 0.96 0.48 2.016 0.704 2.944 1.312 0.992 0.64 1.568 1.632 2.496 2.336 1.76 1.376 3.36 2.816 4.8 4.544 1.312 1.568 2.336 3.168 3.328 4.928 0.992 1.792 1.824 3.584 2.464 5.536 0.672 2.080 1.024 4.128 1.28 6.336 0.096 1.152 0.672 2.208 0.672 3.424v256c0 17.696-14.304 32-32 32s-32-14.304-32-32zM256 384c-17.664 0-32-14.304-32-32v-256c0-17.696 14.336-32 32-32s32 14.304 32 32v64h32.928c53.312 1.568 95.072 51.072 95.072 112.672 0 62.432-42.176 111.328-96 111.328h-64zM352 272.672c0-29.888-16.736-48.224-32-48.672h-32v96h32c15.744 0 32-17.696 32-47.328zM896 256h-63.008c-17.696 0-32-14.304-32-32s14.304-32 32-32h31.008v-16c0-26.464-21.536-48-48-48s-48 21.536-48 48v96c0 26.464 21.536 48 48 48 25.472 0 37.792-5.952 49.472-15.488 13.664-11.232 33.824-9.152 45.024 4.48 11.2 13.664 9.216 33.824-4.48 45.024-25.28 20.736-53.056 29.984-90.016 29.984-61.76 0-112-50.24-112-112v-96c0-61.76 50.24-112 112-112s112 50.24 112 112v48c0 17.696-14.304 32-32 32z" />
<glyph unicode="&#xe92a;" glyph-name="file-zip" horiz-adv-x="896" d="M736 0l-672 0.8 0.8 895.2h351.2v-256c0-17.664 14.336-32 32-32h256v-128c0-17.664 14.304-32 32-32s32 14.336 32 32v156.896c0.096 1.056 0.64 1.984 0.64 3.104 0 10.784-5.312 20.32-13.472 26.112l-284.512 284.512c-0.032 0.032-0.032 0.032-0.064 0.032-2.688 2.688-5.856 4.64-9.184 6.176-0.928 0.448-1.92 0.672-2.88 1.024-2.816 0.992-5.664 1.568-8.64 1.76-0.672 0.032-1.216 0.384-1.888 0.384h-383.2c-35.744 0-64.8-29.056-64.8-64.8v-894.4c0-35.744 29.056-64.8 64.8-64.8h671.2c17.696 0 32 14.304 32 32s-14.304 32-32 32zM480 672v178.752l178.752-178.752h-178.752zM800 384h-64c-17.696 0-32-14.304-32-32v-256c0-17.696 14.304-32 32-32s32 14.304 32 32v64h32.928c53.312 1.568 95.072 51.040 95.072 112.64 0 62.464-42.144 111.36-96 111.36zM800 224h-32v96h32c15.712 0 32-17.728 32-47.36 0-29.856-16.736-48.16-32-48.64zM608 352v-256c0-17.696 14.304-32 32-32s32 14.304 32 32v256c0 17.696-14.304 32-32 32s-32-14.304-32-32zM356 80.512c5.664-10.208 16.352-16.512 28-16.512h160c17.696 0 32 14.304 32 32s-14.304 32-32 32h-102.272l129.376 207.040c6.176 9.888 6.496 22.304 0.864 32.48s-16.352 16.48-27.968 16.48h-160c-17.664 0-32-14.304-32-32s14.336-32 32-32h102.24l-129.376-207.040c-6.176-9.856-6.496-22.304-0.864-32.448z" />
<glyph unicode="&#xe92b;" glyph-name="file" horiz-adv-x="769" d="M768.64 640c0 10.784-5.312 20.32-13.472 26.112l-284.512 284.48c-0.032 0.032-0.096 0.064-0.128 0.096-2.656 2.624-5.76 4.544-9.024 6.080-1.024 0.48-2.112 0.768-3.2 1.12-2.656 0.928-5.376 1.472-8.192 1.664-0.736 0.064-1.344 0.448-2.112 0.448h-383.2c-35.744 0-64.8-29.056-64.8-64.8v-894.4c0-35.744 29.056-64.8 64.8-64.8h638.4c35.744 0 64.8 29.056 64.8 64.8v636.096c0.096 1.088 0.64 2.016 0.64 3.104zM480 850.752l178.752-178.752h-178.752v178.752zM64 0.8l0.8 895.2h351.2v-256c0-17.664 14.304-32 32-32h255.968l-0.768-608-639.2 0.8z" />
<glyph unicode="&#xe92c;" glyph-name="warning-t" horiz-adv-x="1096" d="M523.050 165.576c-6.177-6.52-9.917-15.374-9.917-24.262s3.74-17.845 9.917-24.227c6.52-6.246 15.408-9.952 24.33-9.952 8.888 0 17.81 3.706 24.296 9.952 6.143 6.383 9.952 15.339 9.952 24.227s-3.809 17.742-9.952 24.262c-12.663 12.697-35.62 12.697-48.626 0zM513.132 551.567v-273.501c0-18.908 15.305-34.213 34.248-34.213 18.908 0 34.248 15.305 34.248 34.213v273.501c0 18.84-15.339 34.179-34.248 34.179-18.943 0-34.248-15.339-34.248-34.179zM1088.412-8.133l-510.868 951.867c-11.908 22.237-48.455 22.237-60.362 0l-513.716-957.152c-5.697-10.604-5.388-23.438 0.789-33.767 6.177-10.295 17.33-16.609 29.375-16.609h1027.466c0.24 0 0.48 0 0.686 0 18.908 0 34.248 15.305 34.248 34.179 0 8.167-2.848 15.614-7.618 21.482zM90.835 4.564l456.545 850.668 456.51-850.668h-913.055z" />
<glyph unicode="&#xe92d;" glyph-name="question-o" d="M512 960c-282.304 0-512-229.696-512-512s229.696-512 512-512 512 229.696 512 512-229.696 512-512 512zM512 0c-247.040 0-448 200.96-448 448s200.96 448 448 448 448-200.96 448-448-200.96-448-448-448zM512 732.64c-89.696 0-159.936-70.304-159.936-160.064 0-17.664 14.336-32 32-32s32 14.336 32 32c0 53.856 42.144 96.064 95.936 96.064 52.928 0 96-45.12 96-100.544 0-35.872-11.136-58.24-41.024-82.464-94.144-76.256-87.2-167.968-86.848-171.808 1.472-16.672 15.424-29.184 31.84-29.184 0.928 0 1.92 0.032 2.848 0.128 17.632 1.568 30.624 17.088 29.056 34.688-0.064 0.64-3.488 62.24 63.392 116.448 44.768 36.256 64.736 77.024 64.736 132.16 0 90.752-71.776 164.576-160 164.576zM488.96 214.72c-6.080-6.048-9.28-14.4-9.28-22.72s3.2-16.64 9.28-22.72c6.080-5.76 14.080-9.28 22.72-9.28 8.32 0 16.64 3.52 22.4 9.28 6.080 6.080 9.632 14.4 9.632 22.72s-3.52 16.672-9.632 22.72c-11.872 11.84-33.28 11.84-45.12 0z" />
<glyph unicode="&#xe92e;" glyph-name="info-o" d="M578.624 672c0-35.346-29.012-64-64.8-64s-64.8 28.654-64.8 64c0 35.346 29.012 64 64.8 64s64.8-28.654 64.8-64zM578.624 224h-32.384v287.968c0 17.696-14.528 32.032-32.416 32.032h-64.8c-17.888 0-32.416-14.336-32.416-32.032 0-17.664 14.528-32 32.416-32h32.416v-255.968h-32.416c-17.888 0-32.416-14.368-32.416-31.968 0-17.728 14.528-32.032 32.416-32.032h129.6c17.888 0 32.416 14.304 32.416 32.032 0 17.6-14.528 31.968-32.416 31.968zM874.272 810.016c-96.8 96.736-225.504 149.952-362.4 149.952s-265.6-53.216-362.4-149.952c-199.808-199.584-199.808-524.416 0-724.032 96.8-96.768 225.504-149.984 362.4-149.984s265.6 53.216 362.4 149.984c96.832 96.672 150.144 225.28 150.144 362.016 0 136.768-53.312 265.376-150.144 362.016zM828.96 131.2c-84.672-84.576-197.28-131.2-317.088-131.2-119.776 0-232.416 46.624-317.088 131.2-174.848 174.688-174.848 458.912 0 633.568 84.672 84.576 197.312 131.232 317.088 131.232 119.808 0 232.416-46.656 317.088-131.232 84.736-84.576 131.392-197.056 131.392-316.768 0-119.68-46.656-232.192-131.392-316.8z" />
<glyph unicode="&#xe92f;" glyph-name="pg18" horiz-adv-x="2088" d="M1841.801 332.654v-282.941h-188.589v282.941h-247.369v172.261h247.369v269.179h188.589v-269.179h245.97v-172.261h-245.97zM1331.9 221.974c0-92.020-31.14-162.814-93.536-212.148-62.513-49.451-144.036-74.176-244.687-74.176-101.584 0-183.69 24.725-246.32 74.176-62.746 49.334-94.003 120.128-94.003 212.148 0 53.766 15.162 101.234 45.485 142.52 30.207 41.17 72.077 73.243 125.376 95.985-46.535 21.46-82.69 51.083-108.698 89.221-25.892 38.021-38.954 81.873-38.954 131.557 0 88.288 28.924 156.749 86.772 205.267s134.24 72.776 228.942 72.776c94.353 0 170.628-24.259 228.942-72.776s87.472-116.979 87.472-205.267c0-49.684-13.062-93.653-39.304-131.907-26.125-38.254-62.28-68.111-108.348-89.571 52.949-22.276 94.586-54.232 125.143-95.636 30.44-41.52 45.718-88.871 45.718-142.17zM1078.116 768.962c-21.226 24.375-49.8 36.621-85.839 36.621-36.388 0-64.846-12.013-85.372-35.922s-30.79-56.332-30.79-97.385c0-41.403 10.38-74.292 31.14-98.668 20.643-24.375 49.567-36.621 86.422-36.621 35.922 0 64.379 12.246 85.022 36.621 20.76 24.375 31.14 57.265 31.14 98.668 0 40.12-10.613 72.31-31.723 96.685zM1093.394 343.034c-25.892 26.825-59.597 40.237-101.117 40.237-41.87 0-75.459-13.412-100.767-40.237s-37.904-62.513-37.904-107.065c0-45.485 12.713-81.174 38.254-107.415 25.542-26.125 59.481-39.187 101.817-39.187 41.403 0 74.876 13.179 100.417 39.537s38.254 62.046 38.254 107.065c0 44.552-12.946 80.241-38.954 107.065zM202.467 768.729h-202.234v140.771l401.786 35.455v-994.959h-199.552v818.734z" />
<glyph unicode="&#xe930;" glyph-name="heart" horiz-adv-x="1084" d="M995.147 868.563c-56.862 59.031-132.578 91.497-213.052 91.497-78.366 0-151.793-31.202-208.113-87.16-0.361-0.301-0.843-0.361-1.205-0.723l-31.804-27.648-31.262 27.467c-0.361 0.361-0.904 0.422-1.325 0.783-56.32 56.019-129.807 87.281-208.173 87.281-80.535 0-156.311-32.467-213.173-91.497-115.411-119.748-116.495-313.163-4.578-435.14 0.301-0.422 0.361-0.843 0.663-1.265l354.665-448.512c26.744-30.72 64.392-48.369 103.304-48.369 0.060 0 0.060 0 0.060 0 38.912 0 76.559 17.649 104.99 50.537l352.979 446.344c0.301 0.422 0.361 0.964 0.663 1.325 111.857 121.976 110.712 315.332-4.638 435.080zM909.613 514.801c-0.783-0.783-0.964-1.807-1.687-2.59-0.663-0.783-1.566-1.084-2.229-1.867l-351.172-444.175c-7.951-9.096-20.661-7.048-25.058-2.168l-352.979 446.344c-0.602 0.783-1.506 1.084-2.168 1.867-0.723 0.783-0.964 1.867-1.687 2.65-70.837 73.487-70.837 192.994-0.060 266.421 68.247 70.776 187.031 70.776 255.277 0 0.542-0.542 1.325-0.542 1.867-1.084 0.723-0.723 1.024-1.687 1.807-2.349l70.415-61.922c3.855-3.433 8.312-5.361 12.649-7.59 0.843-0.422 1.506-1.024 2.349-1.385 7.71-3.554 15.842-5.903 24.154-5.903 4.156 0 8.072 1.807 12.168 2.711 3.072 0.602 6.144 0.843 9.096 1.988 3.976 1.566 7.349 4.096 10.963 6.505 2.168 1.446 4.638 2.229 6.626 3.976l70.596 61.44c0.663 0.602 0.964 1.446 1.626 2.048 0.663 0.663 1.566 0.904 2.229 1.566 68.247 70.716 187.091 70.776 255.217 0.060 70.716-73.427 70.716-192.994 0-266.541z" />
<glyph unicode="&#xe931;" glyph-name="marker" horiz-adv-x="1066" d="M1057.97-43.921c-8.237-12.555-22.172-20.079-37.042-20.079h-975.605c-14.87 0-28.806 7.524-37.042 20.079-8.147 12.422-9.617 28.227-3.695 41.984l133.031 311.652c6.99 16.384 22.973 26.98 40.737 26.98h88.687c24.531 0 44.344-19.901 44.344-44.522 0-24.576-19.812-44.522-44.344-44.522h-59.437l-95.009-222.609h841.060l-95.009 222.609h-59.437c-24.531 0-44.344 19.946-44.344 44.522 0 24.621 19.812 44.522 44.344 44.522h88.687c17.764 0 33.792-10.596 40.737-26.98l133.031-311.652c5.877-13.757 4.452-29.562-3.695-41.984zM561.508 168.938c-8.237-6.901-18.298-10.329-28.36-10.329-10.106 0-20.168 3.428-28.36 10.329-11.531 9.617-282.090 238.547-282.090 486.088 0 168.159 139.264 305.018 310.45 305.018 171.142 0 310.406-136.86 310.406-305.018 0-247.541-270.559-476.472-282.045-486.088zM533.148 871.001c-122.257 0-221.763-96.879-221.763-215.975 0-163.35 156.227-329.372 221.763-391.836 65.491 62.464 221.718 228.486 221.718 391.836 0 119.096-99.506 215.975-221.718 215.975zM444.416 648.348c0 49.107 39.847 89.088 88.732 89.088s88.687-39.981 88.687-89.088c0-49.107-39.802-89.043-88.687-89.043s-88.732 39.936-88.732 89.043z" />
<glyph unicode="&#xe932;" glyph-name="list" horiz-adv-x="1446" d="M1385.412 839.529h-1084.235c-33.25 0-60.235 26.985-60.235 60.296 0 33.25 26.985 60.175 60.235 60.175h1084.235c33.25 0 60.235-26.925 60.235-60.175 0-33.31-26.985-60.296-60.235-60.296zM0 56.471h120.471v-120.471h-120.471v120.471zM0 357.647h120.471v-120.471h-120.471v120.471zM0 658.824h120.471v-120.471h-120.471v120.471zM0 960h120.471v-120.471h-120.471v120.471zM301.176 658.824h843.294c33.25 0 60.235-26.925 60.235-60.175 0-33.31-26.985-60.296-60.235-60.296h-843.294c-33.25 0-60.235 26.985-60.235 60.296 0 33.25 26.985 60.175 60.235 60.175zM301.176 357.647h1084.235c33.25 0 60.235-26.925 60.235-60.235 0-33.25-26.985-60.235-60.235-60.235h-1084.235c-33.25 0-60.235 26.985-60.235 60.235 0 33.31 26.985 60.235 60.235 60.235zM301.176 56.471h843.294c33.25 0 60.235-26.925 60.235-60.235 0-33.25-26.985-60.235-60.235-60.235h-843.294c-33.25 0-60.235 26.985-60.235 60.235 0 33.31 26.985 60.235 60.235 60.235z" />
<glyph unicode="&#xe933;" glyph-name="gift" d="M943.301 708.89h-59.705c19.407 26.012 33.795 56.94 33.795 94.269 0 107.838-79.982 156.841-154.23 156.841-70.202 0-165.905-35.127-251.161-185.055-85.82 149.929-183.263 185.055-255.002 185.055-74.299 0-154.23-49.003-154.23-156.841 0-37.329 14.389-68.256 33.744-94.269h-55.711c-44.548 0-80.802-36.253-80.802-80.853v-150.236c0-30.365 17.512-55.916 42.295-69.741 0-0.666-0.41-1.178-0.41-1.843v-377.126c0-51.359 41.783-93.091 93.142-93.091h754.047c51.359 0 93.142 41.732 93.142 93.091v377.126c0 0.666-0.358 1.178-0.41 1.843 24.783 13.825 42.295 39.377 42.295 69.741v150.236c0 44.6-36.253 80.853-80.802 80.853zM256.999 857.59c62.214 0 122.534-52.792 173.893-148.7h-129.344c-1.178 0.563-1.997 1.587-3.226 2.048-19.714 7.732-93.142 45.982-93.142 92.22 0 36.151 17.461 54.431 51.82 54.431zM460.846 38.41h-316.55v358.487h316.55v-358.487zM460.846 499.359h-358.436v107.070h358.436v-107.070zM763.161 857.59c34.359 0 51.82-18.28 51.82-54.431 0-44.856-69.076-82.594-93.296-92.272-1.229-0.461-1.997-1.434-3.124-1.997h-125.913c41.015 78.088 97.853 148.7 170.513 148.7zM879.806 38.41h-316.55v358.487h316.55v-358.487zM921.692 499.359h-358.436v107.070h358.436v-107.070z" />
<glyph unicode="&#xe934;" glyph-name="balloons-couple" horiz-adv-x="657" d="M421.051 563.878c-18.354-42.735 44.379-79.991 61.911-37.256 35.613 82.183 44.379 191.76-30.134 256.959-35.065 30.956-86.84-20.272-51.501-51.501 49.036-41.091 43.009-113.686 19.724-168.201zM375.302 183.645v1.918c164.366 40.818 281.066 283.257 281.066 445.432-0.553 181.135-147.519 327.759-328.731 327.759-65.475 0-126.479-19.142-177.721-52.135l-57.049-47.156c-57.169-58.974-92.452-139.451-92.593-228.168 5.197-116.463 43.924-222.921 106.674-311.092l44.543-53.005c35.672-39.388 82.302-68.242 135.073-81.77l11.212-0.413c-4.171-9.516-6.598-20.607-6.598-32.265 0-0.696 0.009-1.389 0.026-2.081 2.506-25.48 15.504-47.608 34.575-62.199 13.209-8.96 22.358-22.601 25.093-38.438-6.067-15.904-15.414-29.036-27.233-39.423-14.369-11.45-24.321-27.68-27.445-46.228-0.14-1.219-0.184-2.125-0.184-3.042 0-15.198 12.32-27.518 27.518-27.518 14.281 0 26.021 10.879 27.385 24.802 2.474 3.674 8.501 10.249 12.884 15.18 21.962 19.009 36.973 45.531 41.022 75.531-2.039 32.489-17.783 60.297-41.324 78.516-7.732 6.13-13.617 13.774-17.364 22.549 2.445 13.155 8.233 24.301 16.35 33.307l13.368-0.062zM196.965 320.616c-8.218 9.040-16.163 18.628-23.559 28.764s-15.067 21.094-21.915 32.051c-22.904 36.295-42.682 78.085-57.204 122.261-8.703 26.241-15.107 52.766-19.182 80.052-2.074 15.079-3.076 29.498-3.076 44.151 0 1.186 0.007 2.369 0.020 3.552 4.664 138.527 118.229 249.198 257.642 249.198s252.979-110.672 257.632-248.952c0.011-143.698-120.524-380.933-257.769-380.933-54.015 4.365-101.031 31.102-132.285 70.824z" />
<glyph unicode="&#xe935;" glyph-name="play" d="M959.247 345.781l-782.336-396.83c-17.468-8.855-36.623-13.312-55.718-13.312-21.624 0-43.189 5.662-62.344 16.866-35.96 21.143-57.946 59.091-57.946 99.87v791.251c0 40.779 21.926 78.607 57.826 99.75 35.96 21.143 80.655 22.648 117.88 3.795l782.336-394.3c39.816-20.058 64.813-59.934 64.873-103.424 0.060-43.55-24.877-83.486-64.572-103.665z" />
<glyph unicode="&#xe936;" glyph-name="bars" horiz-adv-x="896" d="M0 960h128v-1024h-128v1024zM384 960h128v-1024h-128v1024zM768 960h128v-1024h-128v1024z" />
<glyph unicode="&#xe937;" glyph-name="in" d="M512 714.323c-144.516 0-264.258-117.677-264.258-264.258s117.677-264.258 264.258-264.258c146.581 0 264.258 119.742 264.258 264.258s-119.742 264.258-264.258 264.258zM512 280.774c-92.903 0-169.29 76.387-169.29 169.29s76.387 169.29 169.29 169.29c92.903 0 169.29-76.387 169.29-169.29s-76.387-169.29-169.29-169.29zM846.452 720.516c0-33.066-26.805-59.871-59.871-59.871s-59.871 26.805-59.871 59.871c0 33.066 26.805 59.871 59.871 59.871s59.871-26.805 59.871-59.871zM941.419 875.355c-53.677 55.742-130.065 84.645-216.774 84.645h-425.29c-179.613 0-299.355-119.742-299.355-299.355v-423.226c0-88.774 28.903-165.161 86.71-220.903 55.742-53.677 130.065-80.516 214.71-80.516h421.161c88.774 0 163.097 28.903 216.774 80.516 55.742 53.677 84.645 130.065 84.645 218.839v425.29c0 86.71-28.903 161.032-82.581 214.71zM933.161 235.355h-4.129c0-64-18.581-115.613-55.742-150.71s-88.774-53.677-150.71-53.677h-421.161c-61.935 0-113.548 18.581-150.71 53.677-37.161 37.161-55.742 88.774-55.742 152.774v423.226c0 61.935 18.581 113.548 55.742 150.71 35.097 35.097 88.774 53.677 150.71 53.677h425.29c61.935 0 113.548-18.581 150.71-55.742 35.097-37.161 55.742-88.774 55.742-148.645v-425.29z" />
<glyph unicode="&#xe938;" glyph-name="rows" horiz-adv-x="1434" d="M0 960h1433.6v-102.4h-1433.6v102.4zM0 652.8h1433.6v-102.4h-1433.6v102.4zM0 345.6h1433.6v-102.4h-1433.6v102.4zM0 38.4h1433.6v-102.4h-1433.6v102.4z" />
<glyph unicode="&#xe939;" glyph-name="grid" d="M102.4 960h-102.4v-409.6h409.6v409.6h-307.2zM307.2 652.8h-204.8v204.8h204.8v-204.8zM716.8 345.6h-102.4v-409.6h409.6v409.6h-307.2zM921.6 38.4h-204.8v204.8h204.8v-204.8zM102.4 345.6h-102.4v-409.6h409.6v409.6h-307.2zM307.2 38.4h-204.8v204.8h204.8v-204.8zM921.6 960h-307.2v-409.6h409.6v409.6h-102.4zM921.6 652.8h-204.8v204.8h204.8v-204.8z" />
<glyph unicode="&#xe93a;" glyph-name="heart-2" horiz-adv-x="1084" d="M995.148 868.563v0c-56.863 59.031-132.579 91.497-213.053 91.497-78.366 0-151.793-31.202-208.113-87.16-0.361-0.301-0.843-0.361-1.205-0.723l-31.804-27.648-31.262 27.467c-0.361 0.361-0.904 0.422-1.325 0.783-56.32 56.019-129.807 87.281-208.173 87.281-80.535 0-156.311-32.467-213.173-91.497-115.411-119.748-116.495-313.163-4.578-435.14 0.301-0.422 0.361-0.843 0.663-1.265l354.665-448.512c26.744-30.72 64.392-48.369 103.304-48.369 0.060 0 0.060 0 0.060 0 38.912 0 76.559 17.649 104.99 50.537l352.979 446.344c0.301 0.422 0.361 0.964 0.663 1.325 111.857 121.976 110.712 315.332-4.638 435.080z" />
<glyph unicode="&#xe93b;" glyph-name="lock" horiz-adv-x="683" d="M565.931 559.275v88.064c10.795 87.995-30.086 174.331-104.996 221.745s-170.436 47.413-245.347 0c-74.91-47.413-115.791-133.75-104.996-221.745v-88.064h-110.592v-580.267h682.667v580.267h-116.736zM224.597 647.339c-5.953 44.251 14.316 87.935 51.951 111.96s85.792 24.026 123.426 0c37.634-24.026 57.904-67.709 51.951-111.96v-88.064h-225.963l-1.365 88.064z" />
<glyph unicode="&#xe93c;" glyph-name="whatsapp-o" d="M512 960v0c-0.046 0-0.101 0-0.156 0-282.581 0-511.659-229.077-511.659-511.659 0-112.889 36.56-217.24 98.485-301.857l-1.006 1.441-64-190.251 196.779 62.891c79.344-52.992 176.914-84.565 281.857-84.565 282.77 0 512 229.23 512 512s-229.23 512-512 512c-0.106 0-0.211 0-0.317 0h0.017zM804.181 241.408c-20.916-37.353-56.966-64.108-99.628-72.096l-0.894-0.139c-26.752-5.717-61.696-10.24-179.2 38.4-150.443 62.336-247.467 215.211-254.891 225.152-33.436 42.54-55.475 95.482-60.717 153.275l-0.083 1.136c-0.042 1.387-0.066 3.019-0.066 4.656 0 47.369 20.154 90.030 52.356 119.876l0.105 0.097c12.99 11.442 30.148 18.425 48.936 18.425 1.201 0 2.396-0.029 3.584-0.085l-0.168 0.006c6.315 0 12.032-0.299 17.067-0.597 0.892 0.095 1.926 0.148 2.974 0.148 14.936 0 27.312-10.964 29.517-25.283l0.021-0.167c12.331-29.867 42.411-103.253 46.037-110.933 2.804-4.525 4.465-10.014 4.465-15.89 0-4.26-0.873-8.316-2.45-11.999l0.076 0.199c-4.45-9.032-9.983-16.774-16.568-23.48l0.013 0.014c-7.509-8.533-14.72-15.36-22.272-24.704-5.851-4.438-9.591-11.395-9.591-19.225 0-4.7 1.347-9.084 3.676-12.79l-0.059 0.1c23.455-39.518 50.988-73.474 82.741-102.946l0.288-0.264c33.808-31.006 73.659-56.079 117.497-73.187l2.567-0.882c4.062-1.979 8.837-3.135 13.882-3.135 8.613 0 16.438 3.371 22.229 8.866l-0.014-0.013c13.247 15.622 26.399 32.895 38.636 50.84l1.385 2.152c5.044 8.566 14.22 14.225 24.717 14.225 4.477 0 8.715-1.029 12.487-2.864l-0.17 0.074c13.824-4.821 86.955-40.96 101.973-48.469 11.195-3.716 20.772-9.701 28.592-17.456l-0.005 0.005c1.051-6.136 1.651-13.205 1.651-20.413 0-18.309-3.874-35.713-10.846-51.437l0.321 0.81z" />
<glyph unicode="&#xe93d;" glyph-name="viber-o" d="M512 960c-282.77 0-512-229.23-512-512s229.23-512 512-512c282.77 0 512 229.23 512 512v0c0 282.77-229.23 512-512 512v0zM489.941 749.141c4.635 3.356 10.435 5.368 16.704 5.368 2.804 0 5.513-0.402 8.075-1.153l-0.203 0.051c8.533-0.299 21.333-1.323 28.16-2.133 34.859-4.065 66.596-13.881 95.477-28.516l-1.61 0.74c29.31-14.073 54.298-32.351 75.387-54.391l0.090-0.095c20.875-19.912 38.175-43.347 50.987-69.388l0.64-1.439c19.762-40.503 31.778-87.987 32.889-138.16l0.007-0.379c0.707-2.617 1.113-5.622 1.113-8.721 0-6.631-1.858-12.827-5.082-18.098l0.087 0.152c-3.454-3.973-8.515-6.47-14.161-6.47-6.864 0-12.866 3.692-16.128 9.2l-0.048 0.087c-1.959 5.074-3.095 10.944-3.095 17.080 0 1.347 0.055 2.681 0.162 4l-0.011-0.173c-0.643 19.054-2.65 37.154-5.936 54.804l0.346-2.239c-10.313 64.17-44.624 118.859-93.256 155.59l-0.61 0.442c-39.132 30.024-88.394 48.659-141.939 50.211l-0.355 0.008c-1.676-0.226-3.613-0.355-5.581-0.355-7.834 0-15.19 2.046-21.563 5.632l0.221-0.114c-3.956 3.632-6.427 8.828-6.427 14.601 0 5.397 2.16 10.29 5.662 13.861l-0.003-0.003zM610.56 619.008c-22.474 12.625-48.946 20.992-77.135 23.293l-0.689 0.045c-0.392-0.021-0.852-0.034-1.314-0.034-6.921 0-13.2 2.746-17.808 7.208l0.007-0.007c-2.987 3.27-4.817 7.642-4.817 12.441 0 3.878 1.195 7.477 3.236 10.448l-0.041-0.063c5.291 8.149 13.355 9.472 37.547 5.845 58.397-6.533 108.372-37.887 139.779-83.11l0.424-0.645c17.001-25.406 28.5-55.866 32.091-88.703l0.080-0.897c0.688-5.641 1.080-12.172 1.080-18.795s-0.393-13.154-1.156-19.571l0.075 0.776c-2.698-6.958-9.338-11.802-17.11-11.802-3.343 0-6.477 0.896-9.175 2.462l0.088-0.047c-6.676 4.502-11.007 12.036-11.007 20.582 0 2.348 0.327 4.619 0.938 6.771l-0.042-0.174c0 0.002 0 0.005 0 0.008 0 27.486-6.852 53.372-18.942 76.042l0.424-0.872c-13.492 24.518-32.675 44.412-55.842 58.365l-0.692 0.387zM644.693 484.309c-3.31-2.646-7.557-4.246-12.177-4.246-4.323 0-8.318 1.401-11.558 3.773l0.055-0.038c-4.642 3.939-7.568 9.777-7.568 16.298 0 0.556 0.021 1.107 0.063 1.652l-0.004-0.072c-0.748 11.929-3.58 23.014-8.135 33.157l0.242-0.602c-9.479 19.126-28.811 32.074-51.181 32.213h-0.019c-0.526-0.038-1.139-0.060-1.758-0.060-7.228 0-13.765 2.961-18.463 7.736l-0.003 0.003c-2.575 3.192-4.134 7.298-4.134 11.768 0 7.089 3.921 13.263 9.712 16.471l0.097 0.049c2.739 1.332 5.958 2.111 9.359 2.111 1.627 0 3.213-0.178 4.738-0.516l-0.145 0.027c6.34-0.389 12.193-1.148 17.915-2.272l-0.848 0.139c18.822-3.508 35.244-12.033 48.321-24.123l-0.065 0.059c16.574-16.125 27.564-37.915 29.837-62.238l0.030-0.397c1.533-3.517 2.425-7.615 2.425-11.921 0-7.217-2.506-13.849-6.696-19.073l0.046 0.060zM795.904 218.837c-14.494-27.986-33.626-51.575-56.632-70.656l-0.371-0.299c-12.996-11.536-29.877-18.956-48.457-20.085l-0.226-0.011c-1.538-0.119-3.331-0.187-5.139-0.187-12.072 0-23.438 3.022-33.384 8.351l0.379-0.186c-140.69 57.258-257.548 148.453-344.113 263.702l-1.487 2.068c-43.143 56.041-79.385 120.499-105.671 189.855l-1.721 5.174c-7.211 11.752-11.481 25.983-11.481 41.211 0 12.854 3.043 24.997 8.448 35.749l-0.209-0.458c12.372 15.608 26.289 29.172 41.746 40.799l0.579 0.417c13.438 12.079 29.301 21.779 46.731 28.257l1.013 0.33c2.346 0.355 5.052 0.558 7.806 0.558 6.26 0 12.276-1.048 17.881-2.977l-0.386 0.116c4.672-1.786 8.678-3.823 12.432-6.221l-0.272 0.163c35.023-33.105 65.007-71.024 89.018-112.812l1.265-2.388c6.789-10.005 10.839-22.347 10.839-35.635 0-3.188-0.233-6.322-0.683-9.385l0.042 0.348c-6.45-15.869-17.819-28.63-32.186-36.674l-0.369-0.19c-7.374-5.657-13.921-11.514-20.002-17.823l-0.052-0.054c-3.929-6.534-6.341-14.376-6.569-22.763l-0.001-0.064c3.328-26.726 12.421-50.803 26-71.696l-0.4 0.656c14.828-22.661 31.603-42.269 50.568-59.511l0.248-0.222c19.208-18.266 41.158-33.909 65.113-46.199l1.575-0.734c12.102-8.969 27.328-14.357 43.812-14.357 6.104 0 12.035 0.739 17.709 2.132l-0.508-0.105c3.072 1.307 5.693 2.735 8.159 4.38l-0.18-0.113c1.024 0.939 8.832 10.411 17.323 20.907 6.941 12.62 17.816 22.35 30.948 27.671l0.412 0.147c5.16 1.794 11.108 2.83 17.297 2.83 9.622 0 18.66-2.504 26.497-6.897l-0.274 0.141c20.279-11.245 37.003-21.753 53.149-33.034l-1.949 1.29c26.33-19.001 49.392-37.894 71.255-58.068l-0.514 0.468c5.982-7.682 9.591-17.468 9.591-28.097 0-7.221-1.665-14.053-4.633-20.132l0.12 0.272z" />
<glyph unicode="&#xe93e;" glyph-name="telegram-o" d="M512 960c-282.77 0-512-229.23-512-512s229.23-512 512-512c282.77 0 512 229.23 512 512v0c0 282.77-229.23 512-512 512v0zM688.853 204.416c-5.188-12.436-17.248-21.017-31.313-21.017-6.118 0-11.857 1.624-16.809 4.464l0.165-0.087-130.133 99.755-83.499-76.117c-2.37-1.722-5.337-2.755-8.546-2.755-1.834 0-3.59 0.337-5.207 0.954l0.1-0.034c-8.007 5.664-13.298 14.712-13.779 25.016l-0.003 0.072c-7.68 24.32-46.677 152.192-46.677 152.192l-129.195 43.477c-10.462 3.553-18.482 11.797-21.654 22.161l-0.063 0.239c2.343 11.591 10.994 20.685 22.144 23.632l0.213 0.048 513.536 201.216s42.24 18.56 42.24-12.16z" />
<glyph unicode="&#xe93f;" glyph-name="skype-o" d="M768 212.523c-25.174-33.214-58.81-58.786-97.726-73.687l-1.516-0.51c-42.718-16.858-92.199-26.631-143.962-26.631-3.029 0-6.050 0.033-9.064 0.1l0.449-0.008c-3.935-0.147-8.557-0.231-13.198-0.231-58.772 0-114.403 13.449-163.984 37.436l2.249-0.981c-32.523 17.228-59.458 40.985-79.87 69.701l-0.472 0.699c-18.499 23.9-30.072 53.989-31.267 86.727l-0.008 0.27c0 0.086-0.001 0.189-0.001 0.291 0 17.931 7.845 34.030 20.289 45.052l0.063 0.055c12.761 11.621 29.802 18.738 48.506 18.738 0.948 0 1.891-0.018 2.83-0.054l-0.135 0.004c0.507 0.014 1.104 0.022 1.702 0.022 15.726 0 30.153-5.565 41.418-14.832l-0.113 0.090c12.331-11.169 22.070-24.963 28.365-40.519l0.265-0.74c8.050-18.704 17.436-34.816 28.484-49.615l-0.452 0.634c10.855-13.406 24.597-24.043 40.314-31.043l0.688-0.274c19.074-7.957 41.235-12.579 64.475-12.579 2.264 0 4.517 0.044 6.76 0.131l-0.323-0.010c2.326-0.111 5.051-0.174 7.792-0.174 33.502 0 64.793 9.464 91.347 25.864l-0.749-0.431c21.344 12.032 35.647 34.346 36.18 60.043l0.001 0.074c0.030 0.7 0.047 1.522 0.047 2.348 0 17.092-7.262 32.488-18.869 43.271l-0.037 0.034c-14.515 12.718-31.964 22.479-51.173 28.13l-0.965 0.243c-22.229 6.784-52.309 14.165-89.6 21.888-48.939 9.713-91.809 22.756-132.781 39.487l4.781-1.727c-33.516 13.459-61.694 34.099-83.667 60.144l-0.259 0.315c-19.756 25.084-31.686 57.137-31.686 91.976 0 1.61 0.025 3.214 0.076 4.812l-0.006-0.233c-0.006 0.488-0.009 1.064-0.009 1.641 0 36.308 12.507 69.694 33.448 96.086l-0.245-0.32c24.451 29.65 56.579 52.141 93.356 64.515l1.45 0.423c40.307 14.167 86.781 22.351 135.167 22.351 2.866 0 5.725-0.029 8.577-0.086l-0.427 0.007c2.080 0.040 4.534 0.062 6.992 0.062 38.096 0 74.919-5.446 109.735-15.601l-2.764 0.691c30.785-8.916 57.623-22.468 81.266-40.071l-0.669 0.476c19.268-14.163 35.164-31.691 47.091-51.847l0.44-0.804c9.227-15.768 14.843-34.64 15.273-54.788l0.002-0.124c-0.15-18.26-7.788-34.707-19.99-46.444l-0.021-0.020c-12.293-12.775-29.536-20.711-48.633-20.711-0.542 0-1.083 0.006-1.623 0.019l0.080-0.001c-1.205-0.083-2.612-0.13-4.030-0.13-14.368 0-27.6 4.865-38.139 13.036l0.142-0.106c-11.386 11.011-21.095 23.657-28.771 37.582l-0.413 0.818c-10.916 21.279-25.678 39.109-43.525 53.205l-0.336 0.256c-20.074 11.937-44.26 18.993-70.094 18.993-4.043 0-8.045-0.173-12-0.511l0.515 0.036c-2.157 0.108-4.685 0.169-7.227 0.169-28.482 0-55.162-7.716-78.063-21.171l0.725 0.394c-17.271-8.785-29.152-25.966-30.287-46.021l-0.007-0.145c-0.009-0.321-0.014-0.699-0.014-1.079 0-10.268 3.716-19.668 9.877-26.928l-0.050 0.060c7.942-9.111 17.63-16.478 28.57-21.622l0.529-0.224c11.141-5.723 24.191-10.844 37.787-14.657l1.509-0.361c13.525-3.755 36.309-9.259 67.541-16.384 39.552-8.32 75.861-17.749 107.947-27.904 31.843-9.615 59.573-22.389 85.071-38.392l-1.444 0.846c22.791-14.53 41.331-33.779 54.617-56.477l0.423-0.782c12.39-22.998 19.67-50.331 19.67-79.364 0-1.904-0.031-3.801-0.093-5.69l0.007 0.275c0.005-0.508 0.008-1.107 0.008-1.708 0-39.72-12.801-76.45-34.502-106.289l0.36 0.52zM994.645 339.285c7.16 30.903 11.264 66.388 11.264 102.832 0 0.193 0 0.386 0 0.58v-0.030c-1.952 266.369-218.337 481.548-484.98 481.548-1.204 0-2.408-0.004-3.61-0.013l0.185 0.001c-0.363 0.001-0.793 0.002-1.223 0.002-29.092 0-57.6-2.499-85.321-7.295l2.96 0.424c-42.592 26.78-94.382 42.668-149.883 42.668-0.272 0-0.544 0-0.815-0.001h0.042c-0.598 0.005-1.305 0.007-2.012 0.007-154.647 0-280.143-124.811-281.251-279.198l-0.001-0.106c0-0.050 0-0.109 0-0.168 0-52.089 14.467-100.799 39.602-142.331l-0.69 1.229c-6.286-29.074-9.89-62.477-9.899-96.72v-0.006c1.928-266.41 218.341-481.633 485.023-481.633 1.189 0 2.378 0.004 3.565 0.013l-0.183-0.001c31.674 0.001 62.661 2.936 92.707 8.546l-3.107-0.482c38.666-20.881 84.632-33.152 133.464-33.152 0.149 0 0.298 0 0.447 0h-0.023c0.547-0.004 1.194-0.006 1.842-0.006 154.632 0 280.118 124.787 281.251 279.152l0.001 0.108c0 0.104 0 0.228 0 0.351 0 45.11-10.881 87.679-30.161 125.225l0.72-1.544z" />
<glyph unicode="&#xe940;" glyph-name="highlights" horiz-adv-x="1229" d="M1092.267 823.467v68.267h68.267v-68.267h-68.267zM1092.267 686.933v68.267h68.267v-68.267h-68.267zM1092.267 550.4v68.267h68.267v-68.267h-68.267zM1092.267 413.867v68.267h68.267v-68.267h-68.267zM1092.267 277.333v68.267h68.267v-68.267h-68.267zM1092.267 140.8v68.267h68.267v-68.267h-68.267zM1092.267 4.267v68.267h68.267v-68.267h-68.267zM204.8 140.8v614.4h819.2v-614.4h-819.2zM68.267 823.467v68.267h68.267v-68.267h-68.267zM68.267 686.933v68.267h68.267v-68.267h-68.267zM68.267 550.4v68.267h68.267v-68.267h-68.267zM68.267 413.867v68.267h68.267v-68.267h-68.267zM68.267 277.333v68.267h68.267v-68.267h-68.267zM68.267 140.8v68.267h68.267v-68.267h-68.267zM68.267 4.267v68.267h68.267v-68.267h-68.267zM1160.533 960h-136.533v-136.533h-819.2v136.533h-136.533c-37.683 0-68.267-30.583-68.267-68.267v-887.467c0-37.683 30.583-68.267 68.267-68.267h136.533v136.533h819.2v-136.533h136.533c37.683 0 68.267 30.583 68.267 68.267v887.467c0 37.683-30.583 68.267-68.267 68.267v0z" />
<glyph unicode="&#xe941;" glyph-name="filter" d="M48.923 925.863c-1.513 0.014-3.025-0.047-4.532-0.183-0.121 0-0.242 0-0.363 0-20.691-1.099-38.161-15.88-42.829-36.238s4.593-41.373 22.706-51.521c0.18-0.123 0.362-0.245 0.544-0.366l351.352-354.325v-400.032c0.050-17.643 9.933-33.759 25.563-41.685l183.653-93.609c14.382-7.369 31.527-6.68 45.281 1.822s22.145 23.595 22.161 39.864v495.653l354.616 357.433c9.621 7.983 15.656 19.531 16.747 32.048s-2.853 24.949-10.946 34.503c-0.060 0.122-0.12 0.244-0.181 0.366-4.002 4.629-8.869 8.419-14.322 11.153-0.060 0.061-0.121 0.122-0.181 0.183-1.304 0.61-2.634 1.16-3.988 1.645-0.121 0.061-0.241 0.122-0.363 0.183-1.307 0.549-2.638 1.037-3.989 1.463-0.121 0-0.242 0-0.363 0-1.375 0.369-2.767 0.674-4.17 0.914-0.121 0-0.242 0-0.363 0-1.561 0.264-3.134 0.447-4.714 0.548-1.447 0.13-2.899 0.191-4.351 0.183-0.787-0.041-1.573-0.102-2.357-0.183h-919.898c-1.567 0.141-3.14 0.202-4.714 0.183zM161.145 832.071h703.974l-286.992-289.42c-7.008-6.839-11.702-15.731-13.416-25.413-3.467-6.842-5.21-14.44-5.076-22.122v-429.468l-91.011 46.439v382.663c0.097 9.734-2.818 19.257-8.34 27.242-2.198 7.835-6.385 14.956-12.147 20.66l-286.992 289.42z" />
<glyph unicode="&#xe942;" glyph-name="close" d="M61.077 960l-60.802-60.834 450.905-451.144-451.181-450.886 60.777-60.878 451.215 450.929 450.948-451.187 60.802 60.826-450.923 451.161 451.181 450.886-60.759 60.869-451.224-450.92z" />
<glyph unicode="&#xe943;" glyph-name="sort-down" horiz-adv-x="878" d="M855.771 426.057c-29.257 29.257-73.143 29.257-102.4 0l-241.371-241.371v629.029h146.286c43.886 0 73.143 29.257 73.143 73.143s-29.257 73.143-73.143 73.143h-438.857c-43.886 0-73.143-29.257-73.143-73.143s29.257-73.143 73.143-73.143h146.286v-629.029l-241.371 241.371c-29.257 29.257-73.143 29.257-102.4 0s-29.257-73.143 0-102.4l365.714-365.714c14.629-14.629 29.257-21.943 51.2-21.943s36.571 7.314 51.2 21.943l365.714 365.714c29.257 29.257 29.257 73.143 0 102.4z" />
<glyph unicode="&#xe944;" glyph-name="sort-up" horiz-adv-x="878" d="M855.771 572.343l-365.714 365.714c-14.629 14.629-29.257 21.943-51.2 21.943s-36.571-7.314-51.2-21.943l-365.714-365.714c-29.257-29.257-29.257-73.143 0-102.4s73.143-29.257 102.4 0l241.371 241.371v-629.029h-146.286c-43.886 0-73.143-29.257-73.143-73.143s29.257-73.143 73.143-73.143h438.857c43.886 0 73.143 29.257 73.143 73.143s-29.257 73.143-73.143 73.143h-146.286v629.029l241.371-241.371c29.257-29.257 73.143-29.257 102.4 0s29.257 73.143 0 102.4z" />
<glyph unicode="&#xe945;" glyph-name="play-2-o" horiz-adv-x="784" d="M764.325 489.646l-685.933 460.555c-9.799 4.9-19.598 9.799-29.397 9.799-29.397 0-48.995-19.598-48.995-48.995v-926.010c0-9.799 4.9-19.598 9.799-29.397s19.598-19.598 29.397-19.598c4.9 0 4.9 0 9.799 0 9.799 0 19.598 4.9 29.397 9.799l685.933 460.555c4.9 4.9 9.799 9.799 14.699 14.699 9.799 24.498 4.9 53.895-14.699 68.593zM734.928 450.45l-685.933-465.455v926.010l685.933-460.555c0 0 0 0 0 0z" />
<glyph unicode="&#xe946;" glyph-name="play-2" horiz-adv-x="784" d="M764.325 484.746c0 0 0 4.9 0 0l-284.172 195.981-401.761 269.474c0 0-4.9 0-4.9 4.9-9.799 4.9-14.699 4.9-24.498 4.9-29.397 0-48.995-19.598-48.995-48.995v-926.010c0 0 0-4.9 0-4.9 0-4.9 0-4.9 0-9.799 0 0 0 0 0-4.9s4.9-4.9 4.9-9.799 9.799-9.799 14.699-14.699c4.9 0 9.799-4.9 9.799-4.9s4.9 0 4.9 0 4.9 0 9.799 0c0 0 4.9 0 4.9 0s4.9 0 4.9 0 9.799 4.9 14.699 4.9l685.933 460.555c4.9 4.9 9.799 9.799 14.699 14.699s4.9 9.799 9.799 19.598c9.799 19.598 0 39.196-14.699 48.995z" />
<glyph unicode="&#xf017;" glyph-name="clock-o" horiz-adv-x="878" d="M512 649.143v-256q0-8-5.143-13.143t-13.143-5.143h-182.857q-8 0-13.143 5.143t-5.143 13.143v36.571q0 8 5.143 13.143t13.143 5.143h128v201.143q0 8 5.143 13.143t13.143 5.143h36.571q8 0 13.143-5.143t5.143-13.143zM749.714 448q0 84.571-41.714 156t-113.143 113.143-156 41.714-156-41.714-113.143-113.143-41.714-156 41.714-156 113.143-113.143 156-41.714 156 41.714 113.143 113.143 41.714 156zM877.714 448q0-119.429-58.857-220.286t-159.714-159.714-220.286-58.857-220.286 58.857-159.714 159.714-58.857 220.286 58.857 220.286 159.714 159.714 220.286 58.857 220.286-58.857 159.714-159.714 58.857-220.286z" />
<glyph unicode="&#xf095;" glyph-name="phone" horiz-adv-x="805" d="M804.571 251.429q0-15.429-5.714-40.286t-12-39.143q-12-28.571-69.714-60.571-53.714-29.143-106.286-29.143-15.429 0-30 2t-32.857 7.143-27.143 8.286-31.714 11.714-28 10.286q-56 20-100 47.429-73.143 45.143-151.143 123.143t-123.143 151.143q-27.429 44-47.429 100-1.714 5.143-10.286 28t-11.714 31.714-8.286 27.143-7.143 32.857-2 30q0 52.571 29.143 106.286 32 57.714 60.571 69.714 14.286 6.286 39.143 12t40.286 5.714q8 0 12-1.714 10.286-3.429 30.286-43.429 6.286-10.857 17.143-30.857t20-36.286 17.714-30.571q1.714-2.286 10-14.286t12.286-20.286 4-16.286q0-11.429-16.286-28.571t-35.429-31.429-35.429-30.286-16.286-26.286q0-5.143 2.857-12.857t4.857-11.714 8-13.714 6.571-10.857q43.429-78.286 99.429-134.286t134.286-99.429q1.143-0.571 10.857-6.571t13.714-8 11.714-4.857 12.857-2.857q10.286 0 26.286 16.286t30.286 35.429 31.429 35.429 28.571 16.286q8 0 16.286-4t20.286-12.286 14.286-10q14.286-8.571 30.571-17.714t36.286-20 30.857-17.143q40-20 43.429-30.286 1.714-4 1.714-12z" />
</font>
</defs>
</svg>
