<?xml version="1.0" encoding="UTF-8"?>
<!DOCTYPE svg PUBLIC "-//W3C//DTD SVG 1.1//EN" "http://www.w3.org/Graphics/SVG/1.1/DTD/svg11.dtd">
<!-- Creator: CorelDRAW X8 -->
<svg xmlns="http://www.w3.org/2000/svg" xml:space="preserve" width="100%" height="100%" version="1.1" style="shape-rendering:geometricPrecision; text-rendering:geometricPrecision; image-rendering:optimizeQuality; fill-rule:evenodd; clip-rule:evenodd"
viewBox="0 0 11002 3636"
 xmlns:xlink="http://www.w3.org/1999/xlink">
 <defs>
  <style type="text/css">
   <![CDATA[
    .fil0 {fill:#4C5052}
    .fil1 {fill:#52AD25}
    .fil2 {fill:#52AD25;fill-rule:nonzero}
   ]]>
  </style>
 </defs>
 <g id="Слой_x0020_1">
  <metadata id="CorelCorpID_0Corel-Layer"/>
  <polygon class="fil0" points="4400,3636 3293,3629 3635,2375 2381,2375 2696,1259 3933,1254 4301,10 5413,0 5341,263 5341,263 "/>
  <path class="fil1" d="M1101 2904l-202 732 1115 -7 357 -1254 1254 0 307 -1116 -1234 -5 326 -1244 -1107 -10 -262 933 -550 1971 -4 0zm963 -1230l651 -661 -1261 884 -1 0 1 0 -1 0 1 0 413 66 -651 660 1262 -884 0 0 0 0 0 0 -1 0 -413 -65zm-734 -431l-1013 14 -317 1110 1014 9 316 -1133z"/>
  <path class="fil0" d="M5782 1780l-91 328 1117 0 -152 546 -1117 0 -122 437 1245 0 -152 545 -1866 0 670 -2401 1821 0 -152 545 -1201 0zm1728 1311l1121 0 -153 545 -1740 0 664 -2383 621 0 -513 1838zm1976 -297l-234 842 -620 0 669 -2401 807 0c115,0 230,1 343,8 66,4 143,10 204,28 140,40 237,125 298,248 68,141 59,312 11,487 -37,132 -96,267 -192,385 -80,99 -175,186 -285,250 -95,56 -195,98 -297,119l-1 0c-161,30 -338,34 -493,34l-210 0zm283 -1014l-130 469 162 0c79,0 250,-1 333,-30 46,-16 87,-41 123,-79 37,-38 59,-81 72,-127 15,-55 16,-105 -9,-146 -25,-40 -63,-64 -113,-73 -33,-7 -72,-9 -107,-10 -65,-3 -132,-4 -198,-4l-133 0z"/>
  <path class="fil2" d="M5813 704l-42 157c-21,79 -63,108 -118,108 -56,0 -83,-29 -62,-108l159 -595c21,-79 64,-109 119,-109 55,0 82,30 61,109l-32 118 164 0 29 -107c47,-176 -14,-277 -184,-277 -170,0 -286,101 -333,277l-153 573c-47,177 14,278 184,278 170,0 285,-101 333,-278l39 -146 -164 0zm545 -438c21,-79 64,-109 119,-109 55,0 82,30 61,109l-159 595c-21,79 -64,109 -119,109 -55,0 -82,-30 -61,-109l159 -595zm-329 584c-47,177 19,278 189,278 170,0 290,-101 337,-278l153 -573c47,-176 -19,-277 -189,-277 -170,0 -290,101 -337,277l-153 573zm993 -680l285 0 42 -157 -458 0 -295 1102 173 0 122 -455 224 0 42 -158 -224 0 89 -332zm542 0l285 0 42 -157 -459 0 -294 1102 173 0 122 -455 223 0 42 -158 -223 0 89 -332zm541 0l300 0 42 -157 -473 0 -294 1102 472 0 42 -157 -299 0 86 -323 238 0 42 -158 -238 0 82 -307zm580 0l299 0 42 -157 -472 0 -295 1102 473 0 42 -157 -300 0 87 -323 237 0 43 -158 -238 0 82 -307z"/>
 </g>
</svg>
