<?xml version="1.0" encoding="iso-8859-1"?>
<!-- Generator: Adobe Illustrator 19.0.0, SVG Export Plug-In . SVG Version: 6.00 Build 0)  -->
<svg version="1.1" id="Capa_1" xmlns="http://www.w3.org/2000/svg" xmlns:xlink="http://www.w3.org/1999/xlink" x="0px" y="0px"
	 viewBox="0 0 511.04 511.04" style="enable-background:new 0 0 511.04 511.04;" xml:space="preserve">
<path style="fill:#334A5E;" d="M371.595,329.195H136.469V138.464c0-60.587,49.109-109.696,109.685-109.696h15.733
	c60.587,0,109.707,49.109,109.707,109.696V329.195z"/>
<path style="fill:#F2F2F2;" d="M493.216,511.029H17.824l10.123-84.48c8.107-47.563,39.584-86.069,81.504-104.629
	c17.483-7.893,36.896-12.267,57.163-12.267h177.813c20.587,0,40.213,4.48,57.92,12.587c41.504,18.667,72.651,57.067,80.747,104.309
	L493.216,511.029z"/>
<g>
	<rect x="250.581" y="303.829" style="fill:#FFD15C;" width="0.021" height="0.032"/>
	<rect x="255.84" y="177.291" style="fill:#FFD15C;" width="0.021" height="0.043"/>
</g>
<path style="fill:#334A5E;" d="M149.077,159.563c0.085-0.896,0.213-1.888,0.373-2.933
	C149.344,157.611,149.131,158.592,149.077,159.563"/>
<g>
	<path style="fill:#F8B64C;" d="M327.637,278.08v31.573l-28.064,85.024L266.72,511.04h-21.643l-60.811-200.843
		c0-0.224-0.107-0.331-0.107-0.437l-0.107-0.107v-31.147c9.291,7.04,19.627,12.907,30.837,16.427
		c1.707,0.64,3.317,1.077,4.896,1.493c8.544,2.56,17.397,3.84,26.773,3.84h18.56c19.957,0,38.517-6.187,54.517-16.533
		C322.411,282.027,325.077,280.107,327.637,278.08"/>
	<path style="fill:#F8B64C;" d="M184.256,310.187l-0.213-0.544l0.107,0.107C184.16,309.856,184.256,309.973,184.256,310.187"/>
</g>
<g style="opacity:0.1;">
	<g>
		<path style="fill:#40596B;" d="M327.637,279.253v30.4l-28.064,85.024l-86.496-88.437c3.829,1.173,24.107-1.493,46.709-5.973
			c21.984-4.373,46.187-10.443,59.851-16.533C323.029,282.229,325.696,280.747,327.637,279.253"/>
	</g>
</g>
<path style="fill:#FFD15C;" d="M355.883,223.787c-0.96,2.891-1.92,5.76-2.88,8.533c0,0.107,0,0.107-0.107,0.213
	c-30.837,85.024-96.747,91.627-96.747,91.627s-70.4-7.029-99.829-100.363c0,0-8.747-27.093-7.691-57.813
	c0-1.28,0.107-2.56,0.213-3.947c0-0.747,0.128-1.504,0.224-2.453c0.085-0.896,0.213-1.888,0.373-2.933
	c0.704-7.381,1.963-14.859,4.309-22.016c0,0,8.107-69.12,102.4-69.12s102.293,69.12,102.293,69.12
	C371.68,175.147,355.883,223.787,355.883,223.787"/>
<path style="fill:#334A5E;" d="M355.883,223.787c-0.96,2.891-1.92,5.76-2.88,8.533c2.667-13.984,1.813-26.24-0.416-36.267
	c-3.627-15.349-31.04-36.16-31.04-36.16c-47.691-9.173-105.504-83.947-105.504-83.947c-52.629,33.589-65.163,78.453-67.499,93.621
	c0.725-7.371,1.248-26.539,3.605-33.696c0,0,9.707-76.64,104-76.64s102.293,75.371,102.293,75.371
	C371.68,175.147,355.883,223.787,355.883,223.787"/>
<g>
	<polygon style="fill:#CDD6E0;" points="327.659,309.653 388.576,380.576 324.715,388.853 344.821,463.424 306.965,511.029 
		245.408,511.029 	"/>
	<polygon style="fill:#CDD6E0;" points="184.096,309.653 123.179,380.576 187.051,388.853 166.944,463.424 204.8,511.029 
		266.347,511.029 	"/>
</g>
<path style="fill:#3DC9AE;" d="M437.387,423.925l-7.253,87.115H80.907l-7.253-87.115c-0.853-6.293,4.171-11.947,10.56-11.947
	h342.613C433.216,411.968,438.24,417.632,437.387,423.925"/>
<g>
	<path style="fill:#F2F2F2;" d="M269.472,471.36c-7.563,0-13.685,6.315-13.685,14.005
		C263.264,485.365,269.387,479.125,269.472,471.36"/>
	<path style="fill:#F2F2F2;" d="M271.531,505.376c0,2.016,0.309,3.947,1.163,5.653h-41.291
		c-1.269-12.597,4.373-23.573,12.917-24.224c2.016-0.213,4.064,0.107,5.877,1.067c3.936,1.931,8.213,1.931,12.043,0
		c1.92-0.96,3.957-1.269,5.984-1.067c3.936,0.224,7.349,2.987,9.707,7.04C274.197,496.32,271.637,500.587,271.531,505.376"/>
</g>
<path style="fill:#ACB3BA;" d="M394.261,174.496l-15.456-1.931l1.525-12.192c4.608-36.651-6.795-73.547-31.232-101.227
	c-24.437-27.68-59.627-43.563-96.544-43.563c-36.939,0-72.128,15.872-96.565,43.563c-24.416,27.691-35.808,64.587-31.211,101.205
	l1.525,12.213l-15.456,1.931l-1.525-12.192c-5.141-41.077,7.605-82.432,34.997-113.472C171.691,17.792,211.157,0,252.544,0
	s80.843,17.792,108.235,48.843s40.149,72.395,34.997,113.483L394.261,174.496z"/>
<path style="fill:#F1543F;" d="M363.989,224.235h-2.816c-4,0-7.232-3.243-7.232-7.232v-62.475c0-3.979,3.232-7.232,7.232-7.232
	h2.816c3.979,0,7.232,3.253,7.232,7.232v62.475C371.221,220.992,367.968,224.235,363.989,224.235"/>
<path style="fill:#FF7058;" d="M381.76,215.861h-10.539v-60.192h10.539c8.544,0,15.456,6.933,15.456,15.477v29.248
	C397.216,208.939,390.304,215.861,381.76,215.861"/>
<path style="fill:#F1543F;" d="M141.653,147.296h2.816c3.979,0,7.232,3.253,7.232,7.243v62.464c0,4-3.253,7.232-7.232,7.232h-2.816
	c-3.979,0-7.232-3.232-7.232-7.232v-62.464C134.421,150.549,137.675,147.296,141.653,147.296"/>
<path style="fill:#FF7058;" d="M123.861,155.669h10.56v60.203h-10.56c-8.544,0-15.456-6.923-15.456-15.467v-29.259
	C108.405,162.603,115.317,155.669,123.861,155.669"/>
<rect x="266.827" y="366.56" style="fill:#FFD15C;" width="0.021" height="0.043"/>
<path style="fill:#ACB3BA;" d="M381.76,215.861h-7.04c-9.248,39.189-44.437,68.459-86.4,68.459h-13.643v13.333h13.643
	c49.963,0,91.499-36.096,100.395-83.52C386.635,215.2,384.277,215.861,381.76,215.861"/>
<path style="fill:#FF7058;" d="M282.635,307.467h-21.664c-9.12,0-16.544-7.403-16.544-16.523c0-9.131,7.413-16.544,16.544-16.544
	h21.664c9.141,0,16.544,7.403,16.544,16.544C299.179,300.053,291.776,307.467,282.635,307.467"/>
<g>
</g>
<g>
</g>
<g>
</g>
<g>
</g>
<g>
</g>
<g>
</g>
<g>
</g>
<g>
</g>
<g>
</g>
<g>
</g>
<g>
</g>
<g>
</g>
<g>
</g>
<g>
</g>
<g>
</g>
</svg>
