<?xml version="1.0" encoding="utf-8"?>
<!-- Generator: Adobe Illustrator 21.0.1, SVG Export Plug-In . SVG Version: 6.00 Build 0)  -->
<svg version="1.1" id="Слой_1" xmlns="http://www.w3.org/2000/svg" xmlns:xlink="http://www.w3.org/1999/xlink" x="0px" y="0px"
	 viewBox="0 0 280 290" style="enable-background:new 0 0 280 290;" xml:space="preserve">
<style type="text/css">
	.st0{fill:#fff;}
</style>
<g>
	<path class="st0" d="M140.8,146.1c7.8-0.5,13.6-7.4,12.4-15.6c-0.4-2.9,0.4-4.7,2.3-6.5c9.5-9.4,18.9-18.8,28.2-28.2
		c1.3-1.3,2.6-2.6,3.6-4.1c1.5-2,1.3-4.1-0.4-5.9c-1.7-1.8-3.9-2-5.9-0.7c-1.4,0.8-2.6,2.1-3.8,3.3c-9.4,9.4-18.9,18.8-28.2,28.2
		c-2.1,2.1-4.3,3.8-7.2,2.7c-8.7-0.7-15.6,5.2-15.7,13.3C126,140.3,132.8,146.6,140.8,146.1z"/>
	<path class="st0" d="M100.2,167.4c-0.2,3.3,2.2,4.7,5,5.2c1.5,0.3,3,0.3,4.5,0.3c20,0,40,0,59.9,0c2.3,0,4.7,0.1,6.9-0.9
		c1.8-0.8,2.9-2.2,2.9-4.3c0-2.1-1.1-3.4-2.9-4.3c-1.7-0.8-3.6-0.8-5.4-0.8c-10.3,0-20.6,0-31,0c-4.3,0-8.7,0-13,0
		c-7.2,0-14.3,0-21.5,0.1C102.8,162.8,100.4,164.2,100.2,167.4z"/>
	<path class="st0" d="M156.2,180.5c-5.3,0-10.6,0-15.9,0c-5.6,0-11.3,0-16.9,0c-3,0-5.4,1.1-5.5,4.5c-0.1,3.5,2.2,5,5.5,5.1
		c11,0.1,21.9,0.1,32.9,0c3.2,0,5.8-1.4,5.8-4.8C162,181.8,159.4,180.5,156.2,180.5z"/>
	<path class="st0" d="M199.9,79.1c3.5,0.3,11.3-7.2,11.3-10.7c0-3.1-3.5-5.6-6.4-4.3c-3.9,1.8-6.8,4.8-8.8,8.5
		C194.4,75.6,196.6,78.8,199.9,79.1z"/>
	<path class="st0" d="M93.8,64.1c1.5,1.8,3.7,2.3,5.8,0.9c2-1.3,2.9-3.2,2-5.6c-1.2-3.3-3.1-6.2-5.2-9c-0.8-1.1-2-1.6-3.4-1.8
		c-3.1-0.1-5.7,3-4.7,6.1C89.5,58.2,91.4,61.3,93.8,64.1z"/>
	<path class="st0" d="M209.9,94.9c1.5,2.2,3.7,2.8,6.1,1.5c2.6-1.3,5.2-2.9,7.7-4.5c1.5-0.9,2.2-2.4,2.4-4.3c-0.6-3.1-2.6-5-5.9-4.2
		c-3.5,0.9-6.7,2.8-9.5,5.2C208.8,90.3,208.4,92.6,209.9,94.9z"/>
	<path class="st0" d="M47.2,114.8c3.2,1.3,6.6,2,9.1,2.8c3.4-0.1,5.1-1.3,5.7-3.6c0.7-2.6-0.6-4.7-3-5.6c-2.9-1.1-6-1.9-9-2.5
		c-2.6-0.5-4.6,0.8-5.4,3.3C43.6,111.7,44.8,113.9,47.2,114.8z"/>
	<path class="st0" d="M217.9,114.1c0.7,2.4,2.6,3.6,4.9,3.3c3.4-0.3,6.8-1.2,10-2.8c2.1-1,3.1-3,2.5-5.4c-0.6-2.4-2.4-3.5-5.3-3.7
		c-2.8,0.8-6.2,1.6-9.4,2.8C218.1,109.4,217.1,111.5,217.9,114.1z"/>
	<path class="st0" d="M160.6,56.9c2.4,0.7,4.5-0.2,5.4-2.4c1.2-3.1,2.1-6.3,2.8-9.5c0.5-2.6-0.8-4.6-3.4-5.4
		c-2.7-0.8-4.7,0.4-5.6,2.9c-1.2,3.1-2,6.3-2.8,9.2C157.3,54.3,158.2,56.2,160.6,56.9z"/>
	<path class="st0" d="M180.6,65.3c1.9,1,3.7,0.6,5-0.8c2.7-2.9,4.7-6.4,5.8-10.2c0.5-1.9-0.3-3.6-2-4.7c-1.7-1.2-3.6-1.3-5,0
		c-3.4,3-5.3,7-6.4,10.5C177.9,62.9,178.8,64.4,180.6,65.3z"/>
	<path class="st0" d="M78.1,78.8c3,1.3,6.3-1.2,6.2-4.4c-0.1-3.3-7.5-10.7-10.8-10.7c-3.1,0-5.7,3.3-4.4,6.2
		C70.9,73.9,74,77,78.1,78.8z"/>
	<path class="st0" d="M55.4,91.4c2.7,2.1,5.8,3.9,9,5.2c3.1,1.3,6.1-1.3,6-4.6c-0.1-4.1-10.3-10.3-14.1-8.5
		C53.3,85.1,52.6,89.2,55.4,91.4z"/>
	<path class="st0" d="M118.8,56.9c2.9-0.7,4.1-2.9,3.6-5.7c-0.5-2.9-1.3-5.8-2.3-8.6c-0.9-2.4-2.8-3.7-5.5-3.1
		c-2.8,0.6-3.7,2.6-3.6,5.9c0.2,2.5,1.1,5.5,2.3,8.4C114.2,56.3,116.1,57.5,118.8,56.9z"/>
	<path class="st0" d="M139.7,53.9c6.1,0.2,4.6-5.1,4.9-8.3c0-1.4,0-2.2,0-3c0.1-3.3-0.8-6.2-4.6-6.3c-3.8-0.1-4.9,2.7-5,6
		c0,0.8-0.1,1.7,0,2.5C135.2,48.5,133.8,53.7,139.7,53.9z"/>
	<path class="st0" d="M69.3,219.5c-4.1-1.7-7.8-4.4-11.7-6.7c-2.7-1.6-5.3-1.7-8-0.1c-4.9,2.9-9.7,5.8-14.7,8.5
		c-2.9,1.6-3.9,3.9-3.9,6.9c0,5.5,0.1,11,0,16.5c0,3.1,1.1,5.4,3.9,7c4.9,2.7,9.8,5.6,14.7,8.4c1.8,1,3.8,1.9,5.7,0.9
		c6.3-3.4,12.5-6.9,17.7-9.9c2.4-2.3,2.8-4.2,2.8-6.2c0-4.5-0.3-9,0.1-13.5C76.6,225.7,74.9,221.8,69.3,219.5z M65,244.2
		c-6.4,6.5-16.1,6.6-22.3,0.2c-2.2-2.3-2.3-14-0.1-16c6.9-6.3,15.7-6.3,22.4,0.2C66.8,230.3,66.8,242.3,65,244.2z"/>
	<path class="st0" d="M264.5,248.8c-38.1,0.5-37.7,0.5-40.2,0h-0.4c0,0,0,0,0,0c-4.7-2.1-8-7.2-8-12.5c0-5.4,3.4-9.9,8.2-11.7
		c7.8-0.7,32-0.1,40.5,0.1c0,0,0,0.1,0,0.1h10.2c-2-8.5-6.3-16.5-12.4-22.6c-3.3-3.3-7-6.1-11-8.2c14.5-26.7,19.3-55.2,13.5-85.7
		C252.3,42.6,188.2-5.5,116.6,7.4C54.1,18.6,9.5,76.2,12.7,138.2c1.1,20.3,6.2,39.1,15.9,56.4c-8.8,5.3-16,13.3-20.1,23.2
		c-7.4,17.8-3.1,39.5,10.3,52.9c18.7,18.7,49,19.1,68.6,0.5c2.7-2.6,5.4-3.6,8.9-3.7v0.3c29.7,0,59.4,0.1,89.2,0
		c3.2,0,5.6,0.9,8,3.2c9.5,9.5,21.2,14.2,34.6,14.1c19.4-0.1,37.1-12,44.5-30.1c0.8-2,1.5-4.1,2.1-6.3L264.5,248.8
		C264.5,248.8,264.5,248.8,264.5,248.8z M23.2,118.9c2.9-26.3,13.7-49,32-67.9c18.7-19.3,41.4-31.3,68.2-34.7
		c39.2-5,73.2,6.7,101,34.8c36.3,36.7,43.1,94.7,18,139c-5.8-1.8-11.9-2.5-18-2c10.5-15.7,15.7-33.5,16.7-52.9
		c0.2-3.5-0.8-7.2-5.1-7.1c-4.3,0.1-4.8,3.7-5,7.3c-0.9,21.8-8,40.5-21.4,56.1c-5.7,2.3-11.1,5.7-15.8,10.1
		c-2.9,2.8-5.8,3.8-9.7,3.8c-4.2,0-8.4,0-12.5,0c0-0.1,0.1-0.2,0.1-0.3c-25.3,0-50.6,0-75.9,0c-3.2,0-5.6-0.9-8-3.2
		c-5.6-5.5-11.8-9.4-18.7-11.7c-12.5-15.2-19.1-33.3-20.5-54.1c-0.1-1.2,0-2.3-0.2-3.5c-0.5-2.8-2.1-4.7-5-4.6
		c-3,0.1-4.3,2.2-4.4,5.1c-0.4,8.1,0.8,15.9,2.8,23.7c2.8,11.2,7.3,21.5,13.5,31c-0.7,0-1.4,0-2.1,0c-5.4,0-10.7,1-15.6,2.7
		C25.1,168.5,20.3,144.7,23.2,118.9z M197.8,261.1c-1.9-2.3-4.1-3.3-6.9-3.3c-3.1,0-6.3,0-9.4,0c0-0.1,0-0.1,0-0.2
		c-28.8,0.2-57.6,0.2-86.4,0c-5.9,0-10.2,1.4-14.4,5.9c-13.4,14-35.7,15.5-50.1,4c-16.3-13-20.5-33.9-10.3-50.9
		c13.9-23.2,46.2-25.7,63.2-4.8c1.9,2.3,4.1,3.3,6.9,3.3c2,0,4,0,6,0v0.2c29.9-0.2,59.9-0.2,89.8,0c5.9,0,10.2-1.4,14.4-5.9
		c13.4-14,35.7-15.5,50.1-4c2.6,2,4.8,4.3,6.8,6.6c-11.9-0.5-30.1-0.7-31.6,0c-12.4,1.3-22,11.7-22,24.4c0,13.5,11,24.5,24.5,24.5
		c0.2,0,0.3,0,0.5,0c7.1,0.5,19.9,0.6,28.7,0.3C242.3,279.7,213.5,280.4,197.8,261.1z"/>
</g>
</svg>
