<?xml version="1.0" encoding="utf-8"?>
<!-- Generator: Adobe Illustrator 21.0.1, SVG Export Plug-In . SVG Version: 6.00 Build 0)  -->
<svg version="1.1" id="Слой_1" xmlns="http://www.w3.org/2000/svg" xmlns:xlink="http://www.w3.org/1999/xlink" x="0px" y="0px"
	 viewBox="0 0 280 290" style="enable-background:new 0 0 280 290;" xml:space="preserve">
<style type="text/css">
	.st0{fill:#fff;}
</style>
<g>
	<path class="st0" d="M5.3,102.1c0-25.5,0-51,0-76.5c0-1.7,0-3.3,0.1-5C6,10.5,11.3,5.4,21.3,5.4c77.3,0,159.6,0,237,0
		c9.9,0,15.1,4.9,16,14.7c0.1,1.5,0.1,3,0.1,4.5c0,51.7,0,103.3,0,155c0,1.7,0,12.3-0.1,14c-0.9,9.6-6,14.4-15.7,14.4
		c-18.2,0.1-36.3,0-54.5,0c-9.5,0-21-0.1-30.5,0c-0.4,0-0.9,0.1-1.4,0.3c-2.9,1.1-2.8,4-2.8,7.1v42.1c0,0,8.2,0,9.4,0
		c5.5,0.3,10.5,1.9,14.6,5.7c4.4,4.1,8.6,8.4,12.8,12.6c1.6,1.6,2.7,3.4,1.7,5.8c-1,2.5-3.1,3.3-5.6,3.3c-0.7,0-1.3,0-2,0
		c-38.7,0-82.3,0-121,0c-3,0-6.2,0.2-7.6-3.3c-1.3-3.3,1.1-5.3,3.1-7.3c2.3-2.4,4.8-4.6,7-7.1c6.1-7,13.6-10.5,23-9.8
		c0.8,0.1,5.4-0.1,5.4-0.1s0-43.8,0-45.8c0-2.1-0.7-3.6-3.1-3.6c-3,0-6,0-9,0c-25,0-50,0-75,0c-12.8,0-17.8-13.9-17.8-26.9
		C5.3,154.7,5.3,128.4,5.3,102.1z M142,198.3c36.8,0,73.6,0,110.5,0c12,0,12.5-9.6,11.7-21.4c0-0.2,0-0.3,0-0.5
		c0.1-2.6-1.3-3.6-3.7-3.5c-2.7,0-5.3,0.1-8-0.1c-3-0.2-5.1-1.7-5.3-4.9c-0.1-3.1,1.9-4.4,4.7-4.9c1.8-0.3,3.6-0.3,5.5-0.4
		c6.8-0.1,6.9-0.1,6.9-7c0-44,0-88,0-132c0-8.1-0.5-8.7-8.4-8.7c-75.6,0-156.3,0-231.9,0c-7.6,0-8.3,0.7-8.3,8.3c0,44,0,88,0,132
		c0,7.3,0,7.3,7.5,7.3c43.5,0,92,0,135.5,0c2.5,0,5-0.2,7.4,0.7c2.1,0.8,3.4,2.3,3.3,4.5c0,2.2-1.3,3.9-3.4,4.4
		c-2.1,0.5-4.3,0.6-6.4,0.6c-42,0-89,0-131,0c-3,0-6,0-9,0c-1.3,0-3.1-0.1-3.4,1.4c-0.9,4.1-1.2,17.4,0.1,21.3
		c1.2,3.5,5,2.7,7.9,2.7C61.7,198.3,104.4,198.3,142,198.3z M88.4,275c32.9,0,70,0,102.8,0c-3.7-5-7.8-7.4-13.7-7.4
		c-23.3,0.1-51.6,0.1-74.9,0C96.7,267.6,92.4,269.8,88.4,275z M142.8,257.4C142.8,257.4,142.8,257.4,142.8,257.4
		c4.3,0,16.3,0,16.3,0v-45.8c0,0-1-3.7-3.5-3.7c-8.8,0-22.6,0-31.4,0c-2.5,0-3.6,1-3.6,3.6c0,2.7,0,45.9,0,45.9
		S138.3,257.4,142.8,257.4z"/>
	<path class="st0" d="M119.8,32.8c-29.2,0-58.3,0-87.5,0c-6.4,0-9.6-1.8-9-5.3c0.8-5.3,5.2-4.9,9-4.9c58.3,0,121.6,0,180,0
		c6.2,0,9.6,2,9,5.4c-0.9,5.2-5.2,4.8-9,4.8C183.1,32.9,149,32.8,119.8,32.8z"/>
	<path class="st0" d="M151.1,59.5c-1.2,18.2-2.4,36.5-3.6,54.7c-0.2,2.9-1.3,5.3-4.5,5.6c-3.6,0.3-5.1-2.3-5.4-5.3
		c-0.6-5.8-0.9-11.6-1.4-17.4c-0.9-12.4-1.9-24.8-2.8-37.3c-0.4-5.9,3.4-10.4,8.8-10.5C147.7,49.3,151.6,53.6,151.1,59.5z"/>
	<path class="st0" d="M142.8,146.4c-4.9,0.1-9.3-4.2-9.5-9c-0.1-4.8,4.1-9.2,9.1-9.4c5-0.2,9.2,3.9,9.3,9
		C151.7,142.1,147.7,146.3,142.8,146.4z"/>
	<path class="st0" d="M242.8,32.7c-2.8,0-5.6,0.2-8.4-0.1c-2.7-0.3-4.7-1.9-4.9-4.8c-0.1-3,1.9-4.6,4.6-4.9
		c5.9-0.7,11.9-0.7,17.8,0.1c2.5,0.3,4.4,1.9,4.4,4.6c0,3-1.9,4.6-4.6,4.9C248.8,32.9,245.8,32.6,242.8,32.7
		C242.8,32.7,242.8,32.7,242.8,32.7z"/>
	<path class="st0" d="M97.3,96.8c0.1-3.1-0.3-8,5-8c5.2,0,5.2,4.7,5.2,8.6c0.1,6.4-1.6,9.3-5.1,9.3C98.8,106.8,97.3,104.1,97.3,96.8
		z"/>
	<path class="st0" d="M182.5,97.8c0,0.8,0.1,1.7,0,2.5c-0.3,3.4-1.3,6.6-5.4,6.4c-3.8-0.2-4.6-3.3-4.7-6.5c-0.1-2-0.1-4,0.1-6
		c0.2-2.9,1.5-5.3,4.8-5.5c3.2-0.1,4.6,2.2,5.2,5.1C182.6,95.1,182.5,96.5,182.5,97.8C182.6,97.8,182.5,97.8,182.5,97.8z"/>
	<path class="st0" d="M85.5,98.6c-0.2,3,0.5,7.5-4.9,8.1c-3.5,0.4-5.3-2.9-5.3-9.1c0-0.5,0-1,0-1.5c0.2-3.5,0.6-7.3,5-7.3
		c4.7,0,5.2,3.8,5.2,7.5C85.5,96.9,85.5,97.4,85.5,98.6z"/>
	<path class="st0" d="M194.1,97.4c0.1-1.3,0-2.7,0.2-4c0.5-2.7,1.9-4.7,4.9-4.7c2.7,0,4.2,1.9,4.7,4.4c0.7,3,0.6,6,0.1,8.9
		c-0.5,2.7-1.9,4.8-4.9,4.7c-3.3-0.1-4.5-2.4-4.8-5.3c-0.2-1.3,0-2.7,0-4C194.2,97.4,194.1,97.4,194.1,97.4z"/>
	<path class="st0" d="M226.5,98c-0.2,1.4-0.3,2.9-0.6,4.3c-0.6,2.7-2.2,4.6-5.2,4.4c-3-0.2-4.3-2.3-4.5-5.1c-0.1-2.3-0.1-4.7,0-7
		c0.1-3.2,1.3-5.7,4.8-5.9c3.3-0.2,4.5,2.3,5,5.2C226.2,95.2,226.3,96.6,226.5,98z"/>
	<path class="st0" d="M191.5,168.7c-0.3,1.4-0.5,3.2-1.1,5c-0.7,2.1-2.4,3.3-4.6,3.2c-2.5-0.1-4.1-1.6-4.4-4
		c-0.3-2.8-0.3-5.6-0.2-8.5c0.1-3,1.4-5.3,4.6-5.6c3.3-0.2,4.6,2.1,5.1,5C191.2,165.2,191.3,166.7,191.5,168.7z"/>
	<path class="st0" d="M234.6,169.3c-0.1,2.2,0.9,7.2-4.7,7.3c-5.6,0.1-4.8-4.8-4.9-8.5c0-1.3,0-2.7,0-4c0.1-3,1.4-5.3,4.6-5.4
		c3.2-0.1,4.7,2.1,4.9,5.2C234.7,165.2,234.6,166.5,234.6,169.3z"/>
	<path class="st0" d="M238.1,97.6c0-3.8-0.6-8.6,4.8-8.7c5.6-0.1,4.7,4.8,4.8,8.6c0,1.2,0,2.3,0,3.5c0,3.2-1.1,5.8-4.7,5.8
		c-3.5,0-4.8-2.5-4.9-5.7C238,99.9,238.1,98.7,238.1,97.6z"/>
	<path class="st0" d="M212.7,168.2c-0.2,3.2,1,7.8-4.6,8.5c-3.5,0.5-5.1-2.5-5.1-9c0-6.5,1.6-9.2,5.1-9
		C211.5,158.9,212.7,161.2,212.7,168.2z"/>
	<path class="st0" d="M41.6,97.7c0,6.5-1.5,9.5-5.1,9C31,106,32,101.5,32,97.8c0-3.6-1.1-8.2,4.4-9.1C39.9,88.2,41.6,91.4,41.6,97.7
		z"/>
	<path class="st0" d="M54,97.9c0-0.7,0-1.3,0-2c-0.1-3.3,0-6.9,4.3-7.1c4.4-0.2,5.3,3.2,5.3,6.9c0,2,0.1,4-0.1,6
		c-0.3,3-1.7,5.2-5,5.1c-3.3-0.1-4.5-2.3-4.5-5.4C54,100.2,54,99,54,97.9C54,97.9,54,97.9,54,97.9z"/>
</g>
</svg>
