<?xml version="1.0" encoding="utf-8"?>
<!-- Generator: Adobe Illustrator 21.0.1, SVG Export Plug-In . SVG Version: 6.00 Build 0)  -->
<svg version="1.1" id="Слой_1" xmlns="http://www.w3.org/2000/svg" xmlns:xlink="http://www.w3.org/1999/xlink" x="0px" y="0px"
	 viewBox="0 0 280 290" style="enable-background:new 0 0 280 290;" xml:space="preserve">
<style type="text/css">
	.st0{fill:#fff;}
</style>
<g>
	<path class="st0" d="M20.8,158.8c0,0.8,0,1.7-0.1,2.5c-0.1,1.9-0.1,3.8,0.1,5.7c2.2,17.7,11.3,33.4,25.7,44.3
		c11.5,8.6,25,13.2,38.9,13.2c3.3,0,6.7-0.3,10.1-0.8c25.6-4,43.7-18.9,52.3-43c8.7-24.2,4-46.7-13.8-66.9c-1.2-1.4-2.7-2.7-4.5-4.1
		c-1.8-1.4-3.9-1.1-5.6,0.6c-1.6,1.6-1.8,3.7-0.5,5.6c0.5,0.8,1.2,1.4,1.8,2.1c0.2,0.2,0.4,0.4,0.5,0.5
		c12.8,13.2,18.3,28.9,16.4,46.7c-1.7,15.4-9.5,29.1-22,38.6c-12.5,9.5-28,13.3-43.4,10.7c-25.4-4.3-46-27.1-46.9-51.9
		c-1.1-28.2,16.7-52.3,43.1-58.7c7.2-1.7,14.3-2.1,21.1-1c5,0.8,6.3-1.9,6.7-3.6c0.3-1.3,0.1-2.4-0.5-3.2c-1-1.4-2.9-1.9-4.2-2.2
		c-5.8-1-11.8-1.1-17.9-0.3C40.7,98.4,19.7,130.5,20.8,158.8z"/>
	<path class="st0" d="M106,105.5c3,1.7,6.1,3.2,9.3,4.5c0.5,0.2,1,0.3,1.5,0.3c1.5,0,2.8-0.9,3.7-2.5c1.1-1.9,0.7-4-0.9-5.3
		c-3.2-2.5-6.9-4-10.2-5.1l-0.3-0.1c-2.4-0.1-4.1,0.9-5,3C103.4,102.4,104.1,104.5,106,105.5z"/>
	<path class="st0" d="M176.1,186.3c-2.8,0.3-4.5,2.1-4.4,4.5c0.1,2.6,1.8,4.3,4.7,4.6c0.7,0.1,1.3,0.1,1.9,0c0.3,0,0.5,0,0.8,0
		c0.3,0,0.6,0,0.9,0c0.3,0,0.6,0,1,0c0.4,0,0.8,0,1.2-0.1c3.9-0.5,4.7-2.8,4.8-4.6c0-2.7-1.7-4.4-4.7-4.6
		C180,186.1,178,186.1,176.1,186.3z"/>
	<path class="st0" d="M173.7,180.9l0.2,0l0.8-0.2c2.4-0.7,5.2-1.6,7.5-3.4c1.7-1.4,2.1-3.3,1.2-5.2c-1.1-2.1-3.1-3-5.1-2.4
		c-2.4,0.7-4.8,1.7-7.2,2.9c-1.8,0.9-2.6,2.8-2,5C169.6,179.7,171.1,180.8,173.7,180.9z"/>
	<path class="st0" d="M170.2,209.4c2.4,1.8,5.2,3,8.1,3.5c0.3,0.1,0.6,0.1,0.9,0.1c0.9,0,1.7-0.3,2.4-0.8c1-0.8,1.6-2.1,1.8-3.8
		l0-0.2l-0.1-0.2c0-0.1-0.1-0.3-0.1-0.4c-0.1-0.6-0.3-1.3-0.8-1.8c-2.9-2.6-6.2-4-9.8-4.2c-1.7-0.1-3.2,1.1-3.9,3.1
		C168.1,206.5,168.7,208.3,170.2,209.4z"/>
	<path class="st0" d="M150.4,234.7c0.8,1.5,2.2,2.4,3.7,2.4c0.5,0,1-0.1,1.5-0.3c1.4-0.5,3.1-1.7,3.2-4.7l0-0.2l-0.4-1.2
		c-0.7-2.3-1.5-4.7-3-6.8c-1.4-1.9-3.5-2.4-5.5-1.3c-2.1,1.1-3,3.1-2.3,5.1C148.5,230.6,149.4,232.8,150.4,234.7z"/>
	<path class="st0" d="M142.1,233.7c0-0.3,0-0.6,0-0.9l0-0.8c0-0.6,0-1.2,0-1.8c-0.1-3.3-1.8-5.2-4.6-5.2c0,0,0,0-0.1,0
		c-2.8,0-4.4,1.9-4.4,5.3c0,0.3,0,0.6,0,0.9c0,0.5,0,1.1,0,1.6c0,0.3,0,0.7,0,1.1c0,1.8,0,3.9,1.3,5.1c0.7,0.7,1.8,1.1,3.2,1.1
		c0,0,0.1,0,0.1,0C142.1,240.2,142.1,236.3,142.1,233.7z"/>
	<path class="st0" d="M169.1,227.2c0,0,0.1,0,0.1,0c1.6,0,3.1-0.8,3.9-2.2c0.8-1.4,0.8-3-0.1-4.4c-1.4-2.3-3.4-4.4-5.9-6
		c-1.4-0.9-3.1-1-4.5-0.2c-1.4,0.8-2.3,2.2-2.3,3.9C160.3,221,166.3,227.1,169.1,227.2z"/>
	<path class="st0" d="M86.7,272.2l0.1,0c0.2,0,0.3,0,0.5,0c3.6,0,4.7-2,5-3.7c0.5-2.6-1-4.6-3.7-5.2c-8.8-1.7-15.4-6.2-20.2-13.8
		c-1.5-2.4-3.8-3-6.1-1.7c-2.5,1.4-3.1,3.9-1.7,6.4C66.4,264.1,75.2,270.1,86.7,272.2z"/>
	<path class="st0" d="M103,271c0.1,0,0.1,0,0.2,0l0.3-0.1c3.2-1.1,7.2-2.4,10.2-5.4c1.6-1.6,1.7-3.7,0.3-5.6
		c-1.3-1.7-3.3-2.3-5.1-1.5c-3.3,1.5-6.2,2.9-8.8,4.5c-1.9,1.1-2.6,3-1.9,5C99,269.9,100.6,271,103,271z"/>
	<path class="st0" d="M116.4,150.1c0.1-4.5,0.1-9,0.1-13.6c0-10.5-7-18.7-17.4-20.4c-4.5-0.7-9-0.7-13.4-0.6c-1.8,0-3.6,0.1-5.5,0
		c-4.5-0.1-7.2,0.6-8.9,2.4c-1.8,1.7-2.5,4.5-2.6,9.1l0,6.1c-0.1,8-0.1,16.2-0.1,24.4c0,1.6-0.2,2.5-0.7,3c-0.4,0.4-1.2,0.5-2.3,0.3
		c-0.6-0.1-1.3,0-1.9,0l-0.2,0c-2.5,0.2-4.2,1.7-4.3,4.1c-0.2,2.5,1.4,4.3,4.1,4.8c1.1,0.2,2.2,0.2,3.5,0.2c0.6,0,1,0.1,1.3,0.3
		c0.2,0.2,0.4,0.7,0.4,1.4c0,1.6-0.5,1.8-1.5,1.8c-1.2,0-2.5,0-3.8,0.2c-2.3,0.4-3.8,2-3.9,4.1c-0.2,2.4,1.2,4.2,3.6,4.8
		c1,0.3,2.1,0.5,3.2,0.4c0.9-0.1,1.6,0.1,1.9,0.4c0.4,0.4,0.6,1.2,0.5,2.4c-0.1,3.9-0.1,7.4,0,10.7c0.1,3.5,1.8,5.5,4.6,5.5
		c0.1,0,0.2,0,0.3,0c2.8-0.1,4.5-2.2,4.6-5.7c0-2.9,0.1-5.7,0.1-8.6l0-3.6c0-1.2,0-2.3,0-3.5c0-2.7,0.1-5.5,0-8.3
		c0-0.9,0.1-1.6,0.4-1.9c0.3-0.3,1-0.5,2-0.5c6.2,0.2,11.3,0.2,16.2,0.1C107.3,169.7,116.2,160.8,116.4,150.1z M78.1,143
		c0-1.5,0-3.1,0-4.6c0-3.7,0-7.5,0-11.2c0-0.9,0.1-1.5,0.4-1.8c0.3-0.3,0.9-0.4,1.8-0.4c2.5,0,4.9,0,7.4,0c2.8,0,5.6,0,8.4,0
		c6.2,0.2,10.9,4.7,11.2,10.8c0.2,4.4,0.2,9.1,0,13.8c-0.3,6.2-4.8,10.5-11.5,11c-3.4,0.2-6.9,0.2-10.3,0.1c-1.3,0-2.7,0-4,0
		c-0.6,0-1.1,0-1.7,0c-0.6,0-1-0.1-1.2-0.3c-0.3-0.3-0.4-1.2-0.4-1.8c0-3.8,0-7.6,0-11.4L78.1,143z"/>
	<path class="st0" d="M95.3,173.5c-0.8,0-1.7,0-2.5,0l-0.9,0c-0.6,0-1.2,0-1.9,0c-2.1,0-4.3,0-6.5,0c-3,0.1-4.8,1.7-4.9,4.4
		c-0.1,1.3,0.3,2.5,1.1,3.3c0.8,0.9,2.1,1.4,3.6,1.4c3.7,0.1,7.2,0.2,10.6,0.2c2.6,0,5.2,0,7.7-0.1c1.6,0,3-0.6,3.9-1.6
		c0.8-0.9,1.2-2,1.1-3.3c-0.1-1.9-1.1-4.2-5.4-4.4C99.3,173.5,97.3,173.5,95.3,173.5z"/>
	<path class="st0" d="M159.8,64.9c-0.5-2.9-1.9-5.2-5.2-5.1c-3.2,0.1-4.5,2.5-4.8,5.5c-0.2,2-0.1,4-0.1,6c0.1,3.2,0.9,6.3,4.7,6.5
		c4.1,0.2,5.1-2.9,5.4-6.4c0.1-0.8,0-1.7,0-2.5c0,0,0.1,0,0.1,0C159.9,67.6,160,66.2,159.8,64.9z"/>
	<path class="st0" d="M176.7,59.8c-3,0-4.4,2-4.9,4.7c-0.2,1.3-0.2,2.7-0.2,4c0,0,0.1,0,0.1,0c0,1.3-0.1,2.7,0,4
		c0.3,2.9,1.5,5.3,4.8,5.3c3,0.1,4.4-2,4.9-4.7c0.6-3,0.6-6-0.1-8.9C180.8,61.7,179.4,59.8,176.7,59.8z"/>
	<path class="st0" d="M276.2,62.1c0-7.5-4.3-13.6-11.3-16c-3.3-1.1-6.7-1.2-9.6-1c-0.7,0-1.5,0-1.9-0.4c-0.3-0.3-0.4-1-0.4-2
		c0.1-4.7,0.1-9.4,0-14c0-1.5,0-3.1,0-4.6c0-13-6.6-19.6-19.5-19.6c-17.6,0-35.2,0-52.8,0l-19.6,0c-7.2,0-14.4,0-21.7,0
		c-17,0-34.6,0-52,0c-11,0-18.1,6.9-18.2,17.5c-0.1,17.2-0.1,35.8-0.1,56.7c-22.1,4.7-40.7,17.7-52.6,36.6
		C4.4,135,1.1,158.4,7.4,181c5.3,18.9,16.5,34.3,33.5,45.8c2.1,1.4,2.6,2.6,2.2,4.7c-0.8,3.5-0.4,7,0.2,10.6
		c3.3,21.2,14.9,35,34.7,41c5.5,1.7,10.8,2.5,15.9,2.5c13.7,0,26.1-6,36.2-17.8l0.6-0.7c4.3-5,7.7-9,14.6-7.8c0.5,0.1,1-0.1,1.3-0.2
		c0.1,0,0.3-0.1,0.4-0.1c16.2-1.9,31.9-10.5,43-23.6c11.7-13.7,17.4-31,16.1-48.7c-0.6-7.8-2.2-15.1-4.7-21.7h0.2
		c5.2,0,10.4,0,15.6,0c13.6,0,27.2,0,40.7,0c10.9,0,18.3-6.8,18.4-16.9C276.3,118.2,276.3,87.8,276.2,62.1z M79.2,23.8
		c0.3-7.7,2-9.4,9.4-9.4c24.2,0,48.4,0,72.6,0s48.4,0,72.6,0c3.8,0,6.7,1.1,8.3,3.2c1.7,2.1,2,5.3,1,9.1c-0.2,0.9-0.4,0.9-1.9,0.9
		c-0.2,0-0.4,0-0.5,0c-8.2,0-16.4,0-24.5,0l-6.9,0h-48c-6.5,0-13,0-19.5,0c-19.2,0-39.2,0-58.7,0.1c-1.7,0-2.7-0.2-3.2-0.7
		C79.3,26.6,79.1,25.6,79.2,23.8z M243.1,90.6c0,7,0,14,0,21c0,6.7-2,8.7-8.7,8.7c-17.6,0-35.1,0-52.7,0l-23.6,0
		c-15.5-27.6-39.7-42.2-72-43.4l0,0c-2.2-0.1-4.5,0-6.8,0.2c0-12.1,0-25.4-0.1-35.2c0-1.6,0.2-2.6,0.6-3c0.4-0.4,1.4-0.7,3-0.7
		c52.7,0.1,105.4,0.1,156.8,0c1.5,0,2.5,0.2,2.9,0.6c0.4,0.4,0.6,6.4,0.6,8.1C243.1,61.6,243.1,76.3,243.1,90.6z M155.3,202.1
		c12.1-19.3,15.4-40.6,10-63.4c14.7,6.7,29.9,24.6,31.6,47.3c1.9,24.8-11.5,48.4-33.4,58.8c-23.2,11-46.9,5.2-60.8-5.8
		C125.6,233.5,143.3,221.1,155.3,202.1z M158.5,158.7c0.1,19.7-7.4,37.9-20.9,51.5c-13.6,13.6-31.9,21.1-51.6,21.1c0,0-0.1,0-0.1,0
		c-40.4-0.1-72.2-31.9-72.4-72.4c0-19.3,7.5-37.5,21.3-51.3c13.7-13.8,31.8-21.4,51-21.4c0,0,0,0,0,0
		C126.4,86.2,158.4,118,158.5,158.7z M52.5,233.5c0.5,0,1.8,0.5,2.4,0.8c10.5,4.3,20.9,6.3,31.1,6.1c2.7,0,4.6,0.7,6.8,2.7
		c8.4,7.4,18.5,12.5,30,15.1c1.1,0.2,2.3,0.5,2.7,0.7c-0.2,0.5-1.1,1.5-1.8,2.4c-7.7,9.4-18,14.6-29.8,15
		c-11.9-0.1-22.8-4.6-30.7-12.7c-7.3-7.5-11.2-17.3-11-27.6C52.3,235.4,52.4,234,52.5,233.5z M266.3,146.2c0,6.9-2,8.9-8.9,8.9
		c-16.7,0-33.4,0-50.1,0l-10.8,0c-6.1-10.1-15.1-18.4-26.8-24.8l9,0l16.5,0c13,0,26,0,38.9,0c12.2,0,18.9-6.7,18.9-18.9l0-3.6
		c0-7,0.1-19.2,0-26.3c0-2.2,0.4-2.6,2.6-2.6l0.3,0c5.2-0.1,8.3-0.2,9.4,0.8c1,1,1,9.1,1,14.3l0,15
		C266.3,121.4,266.3,133.8,266.3,146.2z M266,67.8c-0.4,0.4-2.5,0.4-4.9,0.4h-1.6c-0.8,0-1.6,0-2.3,0c-1.8,0-3.6,0-3.9-0.2
		c-0.3-0.3-0.3-2.1-0.2-3.9c0-0.7,0-1.5,0-2.4v-0.4c0-3.1,0-5.4,0.4-6c0.1-0.2,1.4-0.3,2.6-0.3c0.2,0,0.5,0,0.7,0
		c7.8,0,9.4,2.6,9.6,7.2c0,0.2,0,0.3,0,0.5l0,0.3C266.3,65.3,266.4,67.4,266,67.8z"/>
	<path class="st0" d="M198.4,59.8c-3.5,0.2-4.7,2.7-4.8,5.9c-0.1,2.3-0.1,4.7,0,7c0.2,2.8,1.5,4.9,4.5,5.1c3,0.2,4.6-1.7,5.2-4.4
		c0.3-1.5,0.4-3,0.6-4.3c-0.2-1.5-0.2-2.8-0.5-4.1C203,62.2,201.7,59.7,198.4,59.8z"/>
	<path class="st0" d="M220.3,59.9c-5.4,0.1-4.8,4.9-4.8,8.7c0,1.2,0,2.3,0,3.5c0.1,3.2,1.4,5.7,4.9,5.7c3.6,0,4.7-2.6,4.7-5.8
		c0-1.2,0-2.3,0-3.5C225,64.8,225.9,59.9,220.3,59.9z"/>
</g>
</svg>
