<?xml version="1.0" encoding="utf-8"?>
<!-- Generator: Adobe Illustrator 21.0.1, SVG Export Plug-In . SVG Version: 6.00 Build 0)  -->
<svg version="1.1" id="Слой_1" xmlns="http://www.w3.org/2000/svg" xmlns:xlink="http://www.w3.org/1999/xlink" x="0px" y="0px"
	 viewBox="0 0 280 290" style="enable-background:new 0 0 280 290;" xml:space="preserve">
<style type="text/css">
	.st0{fill:#fff;}
</style>
<g>
	<path class="st0" d="M271.6,211.2c-3.3-2.3-3.8-5.1-3.7-9.1c0-0.6,0-1.2,0.1-1.9c0.2-6.5,0.4-13.2-3.3-19
		c-11.3-17.9-21.5-33.8-31.2-48.6c-4.1-6.2-10.3-9.5-18.4-9.6c-6.1-0.1-6.1-0.1-6.4-6.3c-0.2-4.1-1.9-6-5.1-6c0,0,0,0,0,0
		c-3.2,0-4.9,2-5.2,6c-0.4,6.3-0.4,6.3-6.9,6.3c0,0,0,0,0,0c-0.2,0-0.5,0-0.7,0c-0.6,0-1.1,0-1.7,0c-2.1,0.3-3.6,0.1-4.4-0.7
		c-0.5-0.4-0.8-1.1-1-2c0-1.9,0-3.8,0-5.6c0.1-3.7,0.1-7.4,0-11.1l0-1.8c0-24.3,0-47.3-0.1-65.4c-0.1-16.5-15.4-31.5-32.1-31.6
		c-27.3-0.1-55.1-0.1-81.9-0.1c-19.3,0-38.6,0-57.8,0c-1.5,0-3.5,0.2-4.8,1.5c-1.4,1.4-1.5,3.4-1.5,4.8c0.2,12,0.2,22.5,0,32.2
		c0,1.7,0.1,3.7,1.6,5.2c1.4,1.4,3.5,1.6,5.2,1.6c8.6-0.1,17.3-0.1,25.7-0.1c2.9,0,5.7,0,8.6,0l1.6,0c1.5,0,3.1,0,3.7,0.1
		c0.1,0.5,0,1.6,0,2.7c0,0.7,0,1.5-0.1,2.4c0,1.5,0.1,3.8,1.7,5.2c1.1,1,2.7,1.4,4.8,1.2c1.8-0.2,2.9,0.2,3.8,1.3
		c0.9,1.1,2.3,1.8,3.7,1.8c1.3,0,2.5-0.6,3.4-1.6c1-1.2,2.2-1.6,4.7-1.4c1.9,0.1,3.4-0.3,4.4-1.3c1-1,1.5-2.5,1.3-4.4
		c0-0.5,0-1,0-1.5c0-0.7,0.1-1.5,0-2.3c-0.2-1.4,0.1-1.7,0.1-1.7c0,0,0.4-0.4,2-0.3c9.7,0.2,20.1,0.3,30.7,0
		c1.9-0.1,2.5,0.3,2.7,0.4c0.3,0.3,0.5,1.3,0.5,2.9c-0.1,24.7-0.1,70.3-0.1,103.6c0,9.8,0,18.7,0,25.9c0,1.1,0,2.1-0.1,3.1
		c0,0.1,0,0.2,0,0.2c-0.1,0-0.3,0.1-0.8,0c-0.8-0.1-1.7,0-2.4,0.1c-0.8,0.1-1.5,0.1-2,0c1.9-6.2,1.6-18.5,1.4-28.4
		c-0.1-4-0.2-7.4-0.1-9.7c0.4-10.3-4.2-18.1-13.4-22.6c-1.4-0.7-1.4-1-1-2.2c0.3-0.9,0.6-1.7,0.8-2.6c0.6-1.8,1.1-3.5,1.7-5.1
		c0.6-1.5,1.2-3.6,0-5.3c-1.2-1.7-3.4-1.9-5.1-1.9c-8.9,0-18,0-26.7,0c-12.1,0-24.6,0-36.9,0.1c-11.4,0.1-20.2,7.6-22.5,19.1
		c-0.7,3.7-0.6,7.3-0.5,10.9c0,1.2,0.1,2.4,0.1,3.6c0,3.6,2.2,6,5.3,6c3.3,0,5.4-2.3,5.5-6.2c0-1.7,0-3.5,0-5.2c0-1.7,0-3.5,0-5.2
		c0.2-7.2,5-12,12.2-12c0.5,0,1-0.1,1.4-0.1c0.4,0,1.2-0.1,1.5-0.1c0,0.1,0,0.2,0,0.3c0,0.5,0.1,1,0.2,1.6c0.3,2.6,0.4,3.6-1.7,4.6
		C25,129,20.6,134.8,19.9,142c-1,10.5-1.7,34.1,0.8,43.8c0,0.1,0,0.1,0,0.2c0,0-0.1,0-0.1,0c-1.2,0-2.3,0-3.5,0
		c-1.8,0-3.4,0.1-5.1-0.1c-1.6-0.1-3.8-0.1-5.4,1.5c-1.2,1.2-1.7,2.9-1.6,5.3c0.3,6.2,0.3,11.7,0,16.7c-0.1,1.6,0,3.5,1,5
		c-1,2-1.5,4.2-1.5,6.9c0,4,0,8.1,0,12c0,4.1,0,8.4,0,12.5c0.1,7.3,4.2,12.1,11.5,13.5c4.6,0.9,9.2,0.7,13.7,0.6
		c1.2,0,2.5-0.1,3.7-0.1c3.7-0.1,5.3,1.1,6.5,4.5c4.1,12.2,15.9,20.7,28.6,20.7c0,0,0,0,0.1,0c12.7,0,24.4-8.4,28.5-20.3
		c1.4-4.3,3.6-5,7.6-5c27.1,0.2,53.8,0.1,79.4,0c4,0,6.2,0.8,7.8,5.3c4.2,11.9,13.3,18.7,26.2,19.8c12.3,1,22.5-4.2,27.2-13.9
		c4.3-8.8,9-11.8,18-11.7c3.5,0.1,6.4-1,8.6-3.1c2.6-2.5,3.9-6.4,4-11.3c0-4,0-8.1,0-12.1c0-4,0-8,0-11.9
		C275.9,216.5,274.4,213.2,271.6,211.2z M183.4,135.9c0.1-0.9,0.4-1.5,0.8-1.9c0.6-0.6,1.7-0.9,3.5-0.9c7.1,0.2,14.3,0.2,21.3,0.1
		l4.2,0c0,0,0.1,0,0.1,0c5.5,0,9.5,2.2,12.4,6.6c4.2,6.6,8.4,13.1,12.6,19.6c5.4,8.4,11,17.1,16.5,25.7c3.1,5,2.6,10.5,2.2,15.9
		c-0.1,1.5-0.3,3-0.3,4.4c0,0.5-0.2,0.8-0.4,1.1c-0.6,0.6-2,0.5-3.2,0.4c-0.4,0-0.8,0-1.1,0c0,0,0,0,0,0c-13.4,0-27.1,0-40.3,0
		l-11.6,0l-3.2,0c-2.5,0-4.9,0-7.4,0c-3,0-4.7,0-5.3-0.7c-0.4-0.4-0.5-1-0.6-2.1c0-14.2,0-30.8,0-48.6c0-2.3,0-4.6,0-7
		c0-3,0-6,0-9.1C183.4,138.3,183.4,137.1,183.4,135.9z M68.8,50.9c-0.1,0-0.3,0.1-1,0.1c-0.4,0-0.8,0-1.2,0c-0.3,0-0.6,0-1,0
		c-0.5,0-1.1,0-1.8,0c-0.1,0-0.1,0-0.2,0c-0.3,0-1,0-1.7-0.1c0-0.2,0-0.4,0-0.6l0-0.1c0-0.1,0-0.2,0-0.3c1.2-0.1,2.4-0.1,3.6-0.1
		c0.8,0,1.6,0,2.4,0c0.5,0,0.8,0,0.9,0.1c0,0.1,0,0.2,0.1,0.4C68.8,50.7,68.8,50.9,68.8,50.9z M30.3,146.4c0.1-7,3.2-10.8,10-12.5
		c3.6-0.9,5.7-1.4,6.5-3.3c0.8-1.9-0.3-3.7-2-6.8c-0.7-1.2-0.7-2.9-0.1-4.6c0.3,0,0.8,0,1.2,0c0.4,0,0.8,0.1,1.1,0.1
		c10.9,0,23.8-0.1,36.8,0c0.5,0,1-0.1,1.5-0.1c0.4,0,1-0.1,1.3-0.1c0.2,1.4,0.1,3.3-1,4.8c-1.5,2.1-2.8,4.2-2,6.3
		c0.8,2.1,3.2,2.8,5.5,3.3c8.2,1.9,11.1,5.6,11.2,14.1c0,5.5,0.1,25.3,0,30.9c-0.1,5.4-2.1,7.4-7.3,7.4c-6.6,0.1-13.2,0-19.7,0
		c-5.5,0-11.1,0-16.6,0c-6.3,0-12.7,0-19.1,0c-5.3,0-7.3-2.1-7.3-7.4C30.2,172.7,30.2,152.5,30.3,146.4z M15.5,203.7
		c0-1.4,0.1-2.6,0.1-3.6c0-1.3,0-2.6,0.2-3.2c0.6-0.1,2.1-0.1,3.5-0.1c0.9,0,1.9,0,3.1,0c21.3,0,42.5,0,63.8,0c10.4,0,20.9,0,31.3,0
		c7.2,0,8.1-0.9,8.1-7.8c0-36,0-105.9,0-141.9c0-6.9-0.9-7.8-8-7.8c-7.3,0-14.7,0-22,0c-25.2,0-51.2,0-76.8,0.1
		c-2.1,0-2.7-0.3-2.9-0.5c-0.2-0.2-0.5-0.9-0.4-2.8c0.3-5.7,0.3-11.7,0-18.4c-0.1-1.7,0.2-2.2,0.3-2.4c0.2-0.2,0.7-0.5,2.5-0.5
		C41,15.1,64.1,15,86.4,15c7.1,0,14.2,0,21.2,0l12,0c9.1,0,18.2,0,27.3,0c16.1,0,26.1,10.1,26.1,26.2c0,13.9,0,31.4,0,50.1
		c0,39,0,83.2,0.1,112.1c0,1.8-0.3,2.5-0.5,2.7c-0.2,0.2-0.8,0.5-2.6,0.5c-12.7-0.1-25.6-0.1-38.3-0.1c-6.3,0-12.6,0-18.8,0
		c-12.5,0-25.1,0-37.6,0c-18.7,0-38,0-57,0.1c-1.8,0-2.3-0.3-2.5-0.4C15.7,206,15.4,205.5,15.5,203.7z M82.9,268.6
		c-3.6,3.7-8.6,5.7-14,5.8c-11.3,0.1-20.2-8.5-20.3-19.5c-0.1-10.8,8.9-20.2,19.7-20.4c0.1,0,0.3,0,0.4,0c5,0,9.8,2,13.6,5.6
		c3.9,3.8,6.1,9,6.2,14.3C88.6,259.8,86.6,264.8,82.9,268.6z M234.7,268.4c-3.8,3.8-9,6-14.5,6c0,0,0,0,0,0c-5.5,0-10.5-2-14.2-5.6
		c-3.6-3.6-5.6-8.7-5.6-14.2c0-5.5,2.1-10.6,6-14.5c3.7-3.7,8.5-5.7,13.7-5.7c0,0,0.1,0,0.1,0c10.7,0.1,20.1,9.5,20.1,20.2
		C240.5,259.8,238.5,264.7,234.7,268.4z M264.4,248.1c-0.9,0.8-2.2,1.2-4.1,1.1l-0.2,0c-1.6-0.1-3.2-0.2-4.7,0
		c-3.6,0.5-5.3-0.8-6.6-4.8c-3.8-11.9-15.4-20.3-28.3-20.4c-0.1,0-0.2,0-0.3,0c-12.8,0-24.5,8.1-28.4,19.8c-1.4,4.2-3.2,5.4-7.7,5.4
		c-24.9-0.2-51.2-0.2-80.4,0c-3.9,0-5.5-1.1-6.7-4.8c-4.1-12.2-15.6-20.4-28.7-20.4c0,0,0,0-0.1,0c-13.1,0-24.5,8.3-28.6,20.7
		c-1.2,3.6-2.8,4.8-6.3,4.5c-3.3-0.2-6.7-0.2-9.9-0.1c-1.4,0-2.7,0-4.1,0c-2.1,0-3.7-0.4-4.3-2.1c-0.7-2-0.4-3.5,1.2-5.1
		c4.2-4.3,4.2-12.5,0.1-16.8c-1.6-1.6-2-3.2-1.3-5.1c0.6-1.5,1.8-2.2,4.2-2.2c0,0,0,0,0,0c0.9,0,1.7,0,2.6,0c0.8,0,1.5,0,2.3,0
		l149.6,0c28.1,0,56.2,0,84.3,0c7.2,0,7.4,0.2,7.4,7.4c0,2.1,0,4.2,0,6.3c0,4.1,0,8.3,0,12.4C265.7,245.9,265.3,247.3,264.4,248.1z"
		/>
	<path class="st0" d="M200.8,184.1c3.1,0.1,6.2,0.1,9.3,0c1.4,0,2.8,0,4.1,0c1.4,0,2.8,0,4.2,0c1.4,0,2.8,0,4.2,0
		c1.7,0,3.4,0,5.1-0.1c4.8-0.1,8.3-1.9,10-5.1c1.7-3.1,1.3-7.1-1.2-11.1c-2.1-3.5-4.4-7.1-6.5-10.5c-2.4-3.8-4.8-7.6-7.1-11.5
		c-2.4-4-5.6-6-9.7-6.1l-0.2,0c-4.3-0.2-8.8-0.3-13.2,0c-6.4,0.5-9.8,4-9.9,10.4c-0.2,7.5-0.2,15.3,0,23.1
		C189.9,180.2,193.6,183.9,200.8,184.1z M200.5,153.7c0-2.2,0.8-3.1,3.3-3.3c7.4-0.7,11.4,1.2,13.9,6.9c1.7,3.6,4,7.1,6.2,10.4
		c0.7,1.1,1.4,2.1,2.1,3.2c0.9,1.4,0.8,1.9,0.7,2.1s-0.5,0.5-2.2,0.4c-1.3,0-2.7,0-4,0c-1,0-2,0-3,0c-1,0-2,0-3,0l-1.2,0
		c-2.2,0-4.3,0-6.5,0c-3.2,0-4.9,0-5.6-0.7c-0.7-0.7-0.7-2.5-0.7-5.8c0-1.7,0-3.4,0-5.2C200.5,158.9,200.5,156.3,200.5,153.7z"/>
	<path class="st0" d="M202.4,190.4c-1.5-0.1-2.9,0-4.4,0l-1.4,0c-5.4,0-6.6,2.8-6.6,5.1c0,1.6,0.4,2.8,1.3,3.7
		c1.1,1,2.7,1.5,4.9,1.5c0.2,0,0.4,0,0.6,0c0.4,0,0.8,0,1.2,0c0.2,0,0.5,0,0.7,0l3.3,0c5,0,6.1-2.7,6.1-5
		C208.3,192.4,206.2,190.5,202.4,190.4z"/>
	<path class="st0" d="M68.8,245.3c-2.5-0.1-4.9,0.8-6.6,2.4c-1.7,1.7-2.7,4-2.8,6.7c-0.1,5.4,3.7,9.4,9,9.6c0.1,0,0.2,0,0.3,0
		c2.2,0,4.5-0.9,6.2-2.6c1.9-1.8,3-4.2,3.1-6.6c0.1-2.5-0.9-4.8-2.6-6.6C73.7,246.4,71.3,245.4,68.8,245.3z"/>
	<path class="st0" d="M220.2,245.3c-2.4,0-4.8,1.1-6.6,2.8c-1.8,1.8-2.7,4.1-2.7,6.5c0,2.4,1.1,4.8,2.9,6.6c1.8,1.8,4.1,2.8,6.5,2.8
		c0,0,0.1,0,0.1,0c5.1-0.1,9.3-4.4,9.2-9.5C229.5,249.3,225.4,245.3,220.2,245.3z"/>
	<path class="st0" d="M149.3,196.9C149.3,196.9,149.3,196.9,149.3,196.9c9.1,0,16.7-7.7,16.8-16.8c0-4.6-1.8-9-5.1-12.3
		c-3.2-3.2-7.3-4.9-11.7-4.9c0,0-0.1,0-0.1,0c-9.2,0-16.7,7.8-16.7,17.3C132.6,189.2,140.2,196.9,149.3,196.9z M149.3,173.8
		c0,0,0.1,0,0.1,0c1.6,0,3.2,0.7,4.4,2c1.1,1.2,1.7,2.7,1.7,4.2c-0.1,3.4-2.9,6-6.4,6c-1.6,0-3.3-0.7-4.4-1.9
		c-1.1-1.2-1.7-2.7-1.7-4.2C143.1,176.5,145.9,173.8,149.3,173.8z"/>
	<path class="st0" d="M63.1,80.9c0.8,0.1,1.7,0,2.5,0c0,0,0,0.1,0,0.1c1.3-0.1,2.7,0,4-0.2c2.9-0.5,5.2-1.9,5.1-5.2
		c-0.1-3.2-2.5-4.5-5.5-4.8c-2-0.2-4-0.1-6-0.1c-3.2,0.1-6.3,0.9-6.5,4.7C56.6,79.6,59.7,80.6,63.1,80.9z"/>
	<path class="st0" d="M61.4,102.4c3,0.6,6,0.6,8.9-0.1c2.5-0.6,4.4-2,4.4-4.7c0-3-2-4.4-4.7-4.9c-1.3-0.2-2.7-0.2-4-0.2
		c0,0,0,0.1,0,0.1c-1.3,0-2.7-0.1-4,0c-2.9,0.3-5.3,1.5-5.3,4.8C56.7,100.5,58.8,101.9,61.4,102.4z"/>
</g>
</svg>
