<?xml version="1.0" encoding="utf-8"?>
<!-- Generator: Adobe Illustrator 21.0.1, SVG Export Plug-In . SVG Version: 6.00 Build 0)  -->
<svg version="1.1" id="Слой_1" xmlns="http://www.w3.org/2000/svg" xmlns:xlink="http://www.w3.org/1999/xlink" x="0px" y="0px"
	 viewBox="0 0 280 290" style="enable-background:new 0 0 280 290;" xml:space="preserve">
<style type="text/css">
	.st0{fill:#fff;}
</style>
<g>
	<path class="st0" d="M83.7,99c0.2,0,0.5,0,0.7,0c3.4,0,5.7-2.1,6.5-6l0-0.2l0-0.2c-0.4-3.9-2.6-6.2-6-6.4c-2-0.1-3.8,0.4-5,1.5
		c-1.2,1.1-1.9,2.7-2,4.6C77.7,96.1,79.9,98.7,83.7,99z"/>
	<path class="st0" d="M121.4,99c0.1,0,0.1,0,0.2,0c3.6-0.1,5.9-2.5,6.2-6.3l0-0.1l0-0.1c-0.3-3.9-2.5-6.2-6.2-6.3
		c-2.1-0.1-3.8,0.5-5,1.7c-1.2,1.1-1.8,2.8-1.8,4.7c0,2,0.7,3.6,1.9,4.8C118,98.4,119.6,99,121.4,99z"/>
	<path class="st0" d="M273.5,173.1c-2.4-1.9-4.9-0.9-7.1,0c-2.7,1.1-5.5,2.2-8.2,3.3c-6.8,2.8-13.9,5.7-20.8,8.6
		c-2.6,1.1-4.7,0.9-6.9-0.8c-9.9-7.4-14-16.7-12.4-28.4c0.5-3.9,2-5.9,5.4-7.2c8.5-3.3,17.8-7.1,29-11.9c2.7-1.1,4.2-2.7,4.5-4.6
		c0.3-1.9-0.8-3.9-3.2-5.8c-2.3-1.9-4.9-3.1-6.9-4.1c-0.7-0.4-1.4-0.7-1.9-1l0,0c-13.1-5.5-26-6.9-40.7-4.5
		c-27.3,4.5-40.8,17.9-43.8,43.5c-0.1,1.1-0.5,2-1,2.6c-2.6-1.4-5.4-2.7-8-3.9c-6.6-3-12.8-5.8-17.7-11c-3.1-3.3-3.2-9.9-0.2-12.7
		c6.6-6.3,11-13.7,12.9-22.1c0.8-3.3,1.3-4.7,4-5.2c2.3-0.4,4.4-2.5,4.9-4.7c0.3-1.5,0.8-3,1.4-4.6c1.6-4.8,3.5-10.2-0.9-15.8
		c-0.4-0.5-0.2-1.3,0.1-2.6c0.1-0.5,0.2-1,0.3-1.4l0.4-2.8c1.2-8.1,2.4-16.4,2-24.8c-0.8-17.2-10.4-28.7-27-32.2
		c-0.2,0-0.4-0.1-0.7-0.1c-1-0.2-1.4-0.3-1.9-0.8C118.8,6.3,105,2.4,87.8,6.3c-21.7,5-36.8,18.8-52.9,38l-1.6,1.9l2.4,0.5
		c9,2.1,12.6,7.3,12.5,18c-0.1,5.3,0.7,10.6,1.5,15.6c0,0.2,0.1,0.5,0.1,0.7c0.1,0.4,0.2,1.1,0.2,1.4c-4.2,5-2.7,10.2-1.5,14.7
		c0.4,1.3,0.7,2.6,0.9,3.8c0.7,3.9,3.2,6.6,7,7.6c1.5,0.4,2,0.9,2.3,2.2c1.7,9.6,6.5,18.1,14.1,25.2c0.8,0.7,1.6,3.2,1.6,6.2
		c0,2.4-0.6,3.9-1.1,4.4l-1.2,1.1c-3.9,3.5-7.5,6.8-12.3,8.8c-14.1,6-24.9,12.1-33.8,19.1c-6.3,5-14.6,13.1-12.7,26.5
		c0.3,2.5,0.3,5.2,0,7.8c-0.1,1.1-0.2,2.4,0,3.6c-5.5,7.6-8.6,16.9-8.6,26.8c-0.1,18.2,11.4,35.7,28,42.6c5.8,2.4,11.9,3.6,17.8,3.6
		c17.7,0,34.5-10.3,42.4-27.7c1.5-3.2,3.4-5.1,6.8-6.5c24.5-9.9,50.7-20.6,77-31.6c4-1.7,6.6-1.3,10,1.3c16.8,13,34.6,14.1,52.8,3.4
		c3.8-2.3,7-4.4,9.7-6.6c14.6-11.7,22.8-23.9,25.7-38.3C275.6,178.3,276.2,175.3,273.5,173.1z M84.1,143.5c1.8,0.8,3.7,1.4,5.5,1.9
		c2.5,0.8,4.8,1.5,7,2.7c3.7,2,7.9,2.1,12.4,0.2c3.2-1.3,6.5-2.6,9.9-3.9c0.9-0.4,1.8-0.7,2.8-1.1c0.6,8.5-5.1,12.6-11.1,16.9
		c-0.7,0.5-1.3,1-2,1.5c-5,3.7-9.7,1.6-12.8-0.9c-0.7-0.6-1.4-1.1-2.1-1.7C88.3,155,83.2,151,84.1,143.5z M89.3,168.6
		c-0.8,0.6-1.6,1.2-2.4,1.8c-2.6,1.9-5.2,4-7,3.7c-1.1-0.2-1.9-3.6-2.5-5.9c-0.4-1.7-0.8-3.4-1.4-4.8c-0.1-0.3-0.2-0.5-0.3-0.8
		c-1.3-2.9-1.7-4.1,0.8-5.6c0.2-0.1,0.6-0.4,0.9-0.5c0.1,0.1,0.2,0.2,0.3,0.3C80.7,160.8,84.3,164.5,89.3,168.6z M108.8,181.9
		c-0.2-2.3,0.7-4.3,1.9-6.6c1.3,0.9,2.7,1.7,4,2.6c1.3,0.9,2.6,1.7,4,2.6c-3.3,1.3-6.5,2.7-9.6,4
		C108.9,183.6,108.8,182.7,108.8,181.9z M42.1,275.1c-18.5-5.4-29.4-21.8-26.6-39.9c1.8-11.9,9-21.7,19.6-26.9
		c5-2.5,10.3-3.7,15.7-3.7c5.8,0,11.6,1.5,17,4.4c2.5,1.4,4.9,1.5,7.6,0.4l23.5-9.6c22-9,44.1-18.1,66.1-27.1c3-1.2,4.5-3.3,4.9-6.8
		c0.6-6.1,1.6-11,3.1-15.4c3.3-9.9,9.8-16.5,19.9-20.2c13.9-5,28.3-5.5,42.9-1.6l0.2,0.1c1.5,0.4,3,0.8,4.5,2.3
		c-2,0.8-4,1.6-5.9,2.4c-4.9,2-9.6,4-14.4,5.6c-8,2.7-11.8,7.9-12.5,16.7c-1.2,16.5,5.1,29,19.4,38.4c3.8,2.5,8.1,2.7,13,0.7
		l4.4-1.8c4.8-2,9.8-4,14.7-6c0.3-0.1,0.6-0.3,1-0.5c0.9-0.4,1.8-0.9,2.9-0.8c-3.4,7.6-8.3,14.4-15.1,20.6
		c-8.4,7.8-16.3,12.5-24.9,14.8c-10.9,3-21.3-0.1-32.6-9.6c-4.4-3.7-8.3-4.2-14-1.9c-25.6,10.7-52.5,21.8-82.2,33.7
		c-5.5,2.2-8.6,5.3-10.7,10.5C77,270.5,58.5,279.9,42.1,275.1z M141.2,165.2c0.1,0,0.4,0.1,0.8,0.3c1.9,0.9,4,1.9,6.1,2.9
		c-3.2,1.3-6.4,2.6-9.6,3.9c0.7-2,1.5-4,2.1-6C141,165.6,141.1,165.3,141.2,165.2z M132.5,160.3c-0.5,1.3-0.9,2.6-1.4,3.9
		c-1.2,3.6-2.4,7-3.7,10.3c-0.1-0.1-0.2-0.1-0.2-0.2c-0.2-0.1-0.3-0.2-0.4-0.3c-1.1-0.7-2.2-1.4-3.2-2.2c-1.8-1.2-3.7-2.5-5.7-3.7
		c-0.3-0.2-0.5-0.3-0.6-0.4c0.1-0.1,0.3-0.3,0.7-0.6c3.1-2.4,5.7-5.3,8.3-8.1l0.8-0.9c0.3-0.4,0.6-0.8,0.8-1.2
		c0.1-0.2,0.3-0.5,0.4-0.7l0.5,0.3C130.3,157.8,131.9,158.8,132.5,160.3z M49.6,42.6c0,0-0.1-0.1-0.1-0.1c0.1-0.1,0.2-0.2,0.3-0.3
		l0.1-0.1C62,29.3,75.9,17.2,95.1,15c12.5-1.4,21.4,2.1,27.3,10.9c1.2,1.8,2.8,2,4.1,2.2l0.1,0c14.5,2.1,21.7,10.2,22,24.8
		c0.1,3.8-0.2,7.7-0.9,12.1c-1.5-11.7-7.5-20.2-17.9-25.4c-0.1-0.1-0.3-0.1-0.4-0.2c-1.3-0.7-3.5-1.8-6,0.2
		c-9.3,7.5-20.6,8.8-30.3,9.2c-13.2,0.4-23.5,5.8-30.8,16c-1.8,2.5-3,5.2-3.8,7.8c-0.3-2-0.5-4.2-0.5-6.6
		C58.1,57.7,57.1,49,49.6,42.6z M67.5,105c-0.1-1.6-0.3-3.5-1.8-4.7c-0.8-0.6-1.7-0.9-3-0.9c-0.4,0-0.8,0-1.2,0.1
		c-0.9,0.1-1.5,0-1.9-0.3c-0.5-0.4-0.7-1.4-0.7-2.1c-0.1-1-0.4-1.9-0.6-2.7c-0.1-0.4-0.3-0.8-0.4-1.2c-0.1-0.4-0.2-0.8-0.3-1.1
		c-0.6-1.7-0.5-2,0.2-2.5c0.5-0.3,0.8-0.2,2.1,0.6c0.4,0.3,0.8,0.5,1.2,0.7c0.8,0.4,1.5,0.7,2.3,1.1l2.5,1.2l0.7-1.3
		c1.1-2.2,0.9-4.2,0.8-6c0-0.5-0.1-1-0.1-1.5c0.1-15.1,9.8-25.2,24.8-25.7c11.4-0.4,23.5-1.8,34.3-9c0.7-0.5,1-0.4,2.2,0.5l0.4,0.3
		c5.7,4,8.8,9.3,9.3,15.7c0.5,7.3,0.5,14.9,0.4,21.6c0,1.8,0.2,3.6,1.6,4.4c1.4,0.8,3,0,4.4-0.9c0.3-0.2,0.7-0.5,1-0.7
		c1.6-1.2,2-1.3,2.7-0.7c0.6,0.5,0.6,1,0,2.7c-0.2,0.5-0.4,1.1-0.5,1.7l-0.1,0.5c-0.8,4-1.3,5.7-5.1,5c-1-0.2-1.9,0-2.6,0.5
		c-1.2,0.9-1.3,2.4-1.4,3.5l0,0.3c-1.8,17.5-10.8,28.1-28.6,33.5c-14.6,4.4-24.3-3.2-33.9-12.1C70.8,120.5,67.9,113.5,67.5,105z
		 M35.5,180.8c9.4-6.3,19.5-11.2,29-15.7c1.1-0.5,1.4-0.4,1.4-0.4c0.1,0,0.3,0.3,0.8,1.7c0.9,2.7,1.9,5.3,2.8,7.9
		c1.2,3.2,2.4,6.5,3.4,9.8c0.5,1.6,1.2,3.1,2.7,3.6c1.5,0.5,3-0.4,4.2-1.3c2.5-1.8,5.1-3.5,7.6-5.1c2.2-1.5,4.5-3,6.8-4.6
		c0.7-0.5,1.1-0.7,1.2-0.7c0.1,0.1,0.3,0.4,0.5,1.2l0.1,0.2c0.5,1.7,1,3.2,0.9,4.8l-0.2,2.9c-0.1,1.5-0.2,3-0.3,4.4
		c-7,2.9-13.7,5.6-20.2,8.3c-2.7,1.1-5,1.1-7.7,0c-11.6-4.9-23.6-4.8-35.4,0c-3.6,1.5-7,3.5-10.1,5.8
		C22.1,194.3,25.9,187.1,35.5,180.8z"/>
	<path class="st0" d="M72.2,236c-1.1-2.6-2.3-5.3-3.2-8.1c-1.8-5.6-5-8.1-10.5-8.2c-3,0-6-0.6-9-1.1c-1.1-0.2-2.3-0.4-3.4-0.6
		c-3.2-0.5-5.6,0.5-7.4,3l-1.2,1.6c-2.7,3.6-5.6,7.4-8.5,11c-1.9,2.4-2.2,4.9-1,7.9c2.3,5.5,4.2,10.1,5.8,14.3c1.2,3,3.2,4.6,6.2,5
		c3,0.4,6.1,0.8,9.1,1.2c2.2,0.3,4.4,0.6,6.6,0.9c0.6,0.1,1.2,0.1,1.9,0.1c1.4,0,2.8-0.3,3.8-1.6c3.1-3.8,6.2-7.7,8.9-11.1
		c1-1.3,2-2.5,2.9-3.7l0.1-0.1c1.3-2.9,1.1-4.8,0.3-6.8C73.3,238.4,72.7,237.2,72.2,236z M63,243c-1.6,3.8-4.4,6.7-7.9,8.1
		c-3.4,1.4-7.1,1.3-10.6-0.3c-1.2-0.5-3.2-3.6-4.5-7.2c-1-2.8-1.4-5.1-1-6c2.7-5.6,7.4-8.7,12.8-8.7c1.9,0,4,0.4,6,1.2
		c0.7,0.3,2,2.1,3.5,5.6C62.7,238.9,63.4,242.1,63,243z"/>
	<path class="st0" d="M188.2,178.6c3,7.4,6.1,14.8,9.1,22.3c1.2,2.9,2.8,4.4,4.9,4.4c0.7,0,1.4-0.2,2.2-0.5c1.4-0.5,2.3-1.4,2.8-2.4
		c0.6-1.3,0.4-3-0.5-5.3c-4.8-11.7-9.5-23.3-14.3-35c-0.6-1.6-1.5-3.3-3.6-4c-2-0.7-3.8-0.3-5.2,1.2c-2,2.1-1.4,4.4-0.5,6.6
		L188.2,178.6z"/>
	<path class="st0" d="M143.4,208.5c0.9,1.2,2.2,1.9,3.6,1.9c0.2,0,0.4,0,0.6,0c1.8-0.2,3.4-1.5,4-3.3c1-2.7-2.7-12.3-5.2-13.6
		c-1.6-0.8-3.3-0.7-4.9,0.2c-2,1.2-2.8,2.9-2.3,4.8C140.3,202.9,141.6,205.9,143.4,208.5z"/>
	<path class="st0" d="M105.5,224c0.9,1.2,2.2,1.9,3.7,1.9c0.1,0,0.3,0,0.4,0c1.8-0.2,3.3-1.2,4.1-2.8c0.8-1.6,0-5-1-7.6
		c-1-2.7-2.8-5.9-4.5-6.6c-1.6-0.7-3.5-0.4-4.9,0.7c-1.3,1-2,2.5-1.8,4C101.7,217,103.1,220.7,105.5,224z"/>
	<path class="st0" d="M161.9,200c0.8,1.6,2.2,2.4,4,2.4c0.3,0,0.5,0,0.8-0.1c1.9-0.2,3.2-1.3,4-3c1.2-2.9-2.7-12.5-6.4-14l0,0
		c-1.1-0.4-2.8-0.3-4.3,0.9c-1.7,1.4-2.3,3.3-1.7,5.1C159.3,194.2,160.5,197.2,161.9,200z"/>
	<path class="st0" d="M124.1,215.8c0.7,1.4,2.1,2.2,3.8,2.2c0.4,0,0.8,0,1.2-0.1c1.9-0.4,3.1-1.5,3.7-3.2c1-2.9-2.8-12.1-5.6-13.4
		l0,0c-1.8-0.8-3.5-0.7-4.9,0.4c-1.8,1.3-2.5,3.2-1.9,5.1C121.5,209.9,122.7,212.9,124.1,215.8z"/>
	<path class="st0" d="M90.2,233.6c0.2,0,0.5,0,0.8-0.1c1.8-0.3,3.3-1.5,3.9-3.1c1-2.8-2.7-12.1-5.4-13.4c-1.7-0.9-3.7-0.8-5.2,0.3
		c-1.4,1-2.1,2.6-1.8,4.3c0.5,3.9,2,7.5,4.3,10.4C87.6,233,88.9,233.6,90.2,233.6z"/>
</g>
</svg>
