<?xml version="1.0" encoding="utf-8"?>
<!-- Generator: Adobe Illustrator 21.0.1, SVG Export Plug-In . SVG Version: 6.00 Build 0)  -->
<svg version="1.1" id="Слой_1" xmlns="http://www.w3.org/2000/svg" xmlns:xlink="http://www.w3.org/1999/xlink" x="0px" y="0px"
	 viewBox="0 0 280 290" style="enable-background:new 0 0 280 290;" xml:space="preserve">
<style type="text/css">
	.st0{fill:#fff;}
</style>
<g>
	<path class="st0" d="M158.6,187.9c-0.4-3.5-0.7-7-1.1-10.5c-0.3-2.4-0.5-4.9-0.8-7.4c-0.3-3.2,0.4-5.8,2.2-7.4
		c1.7-1.6,4.2-2.1,7.3-1.6c2.6,0.5,5.1,1,7.7,1.4c3.1,0.6,6.3,1.2,9.5,1.8c6.8,1.2,11.3-0.9,14.8-6.8c1-1.6,1.7-3.4,2.5-5.1
		c0.3-0.6,0.5-1.3,0.8-1.9l0.2,0.1l0.8-1.7c0.4-0.8,0.8-1.7,1.2-2.5c4.4-9.7,3.3-14.5-4.9-21.1l-3.2-2.6c-2.9-2.3-5.9-4.7-8.8-7.1
		c-2.1-1.8-3.3-4.1-3.2-6.4c0.1-2.3,1.4-4.5,3.7-6.1c2.1-1.5,4.2-2.9,6.4-4.3c3.1-2.1,6.2-4.2,9.3-6.4c4.9-3.5,6.5-8.4,4.7-14.1
		c-1.7-5.4-3.7-10.6-5.5-15c-2.8-7.1-6.7-9.5-14.5-8.9c-3.7,0.3-7.4,0.7-10.9,1.1c-1.8,0.2-3.6,0.4-5.4,0.6c-3.8,0.4-6.6-0.3-8.3-2
		c-1.6-1.7-2.1-4.5-1.4-8.1c0.4-2,0.7-3.9,1.1-5.9c0.6-3.3,1.2-6.5,1.8-9.8c1.5-8.2-0.8-12.5-8.5-16.1c-3.6-1.7-7.8-3.6-12.1-5.6
		c-7.1-3.2-12-2-16.9,3.9c-2.1,2.5-4.2,5.1-6.2,7.6c-1.6,2-3.2,4-4.8,6c-1.8,2.2-4.1,3.4-6.4,3.3c-2.3-0.1-4.4-1.4-6.1-3.6
		c-1.7-2.4-3.4-4.9-5.1-7.3c-1.8-2.6-3.6-5.3-5.5-7.9c-4.2-5.7-8.6-7.2-15.3-5c-4.8,1.6-9.7,3.4-14.5,5.4c-6.8,2.8-9.1,6.8-8.5,14.2
		c0.3,3,0.6,6.1,1,9c0.3,2.9,0.7,5.9,0.9,8.9c0.3,2.9-0.5,5.3-2.2,6.8c-1.7,1.5-4.1,2.1-6.9,1.6c-2.5-0.4-4.9-0.9-7.4-1.4
		c-3.4-0.6-6.8-1.3-10.3-1.9c-7.3-1.2-11.8,1.2-15,8c-2.2,4.7-4.2,9-6,13.1c-3,6.7-1.8,11.8,3.9,16.5c2.2,1.8,4.5,3.6,6.7,5.4
		c2.4,1.9,4.9,3.9,7.3,5.9c2,1.7,3.1,4,3,6.3c-0.1,2.3-1.3,4.4-3.4,5.9c-2.3,1.6-4.6,3.2-6.9,4.7c-2.9,1.9-5.9,4-8.8,6.1
		c-5.5,4-6.9,8.5-4.8,15c1.7,5.1,3.6,10.1,5.5,15c2.6,6.4,6.9,8.9,13.9,8.2c3.1-0.3,6.3-0.7,9.4-1c2.9-0.3,6-0.7,9-1
		c2.5-0.2,4.8,0.6,6.4,2.3c1.6,1.7,2.3,4.2,1.8,6.7c-0.5,3-1.1,6.1-1.7,9c-0.5,2.8-1.1,5.7-1.6,8.6c-1.2,7,1,11.9,7.1,15.2
		c4.7,2.6,9.6,4.8,14.5,6.6c6.5,2.4,11.4,1,16-4.6c2.2-2.7,4.4-5.4,6.5-8.1c1.3-1.6,2.5-3.2,3.8-4.7c2.3-2.8,4.7-4.3,7.1-4.2
		c2.3,0.1,4.6,1.6,6.5,4.5c1.1,1.6,2.2,3.3,3.3,4.9c2.1,3.1,4.3,6.4,6.6,9.5c2.9,4.1,6.1,6,10.1,6c1.5,0,3.1-0.3,4.8-0.8
		c4.9-1.5,10.1-3.4,15.9-5.9C156.6,198.8,159.3,194.2,158.6,187.9z M145.3,169.1c0.6,3.4,0.9,7,1.3,10.4c0.2,2.4,0.5,5,0.8,7.5
		c0.3,2.6-0.4,3.9-2.9,4.9l-0.2,0.1c-13.6,5.6-13.6,5.6-21.9-6.6c-0.3-0.4-0.5-0.7-0.8-1.1c-0.6-0.7-1.1-1.4-1.4-2.2
		c-3.5-8.3-9.9-10-17.2-10c-1.6,0-3.2,0.1-4.8,0.2c-3.4,0.2-5.6,2.5-7.2,4.4c-1.4,1.8-2.9,3.6-4.4,5.4c-2.6,3.2-5.3,6.5-7.8,9.8
		c-1.7,2.3-3.3,2.7-6,1.5l-0.2-0.1c-13.4-5.4-13.4-5.4-10.7-19.9c0.1-0.4,0.1-0.8,0.2-1.3c0.1-0.9,0.2-1.8,0.6-2.6
		c4.4-10.7-2.7-17.3-8.5-22.7c-2.4-2.2-5.4-2.2-8.2-1.9l-1.3,0.1c-5.8,0.6-11.8,1.2-17.7,1.9c-3.5,0.5-5.3-0.7-6.4-4
		c-0.9-2.6-1.7-4.7-2.3-6.3c-2.5-6.7-2.5-6.7,3-10.4c1.4-0.9,3.2-2.1,5.4-3.7c0.3-0.2,0.5-0.4,0.8-0.6c0.8-0.6,1.6-1.2,2.5-1.6
		c8.1-3.8,11.7-10.4,11-20.1c-0.4-4.5-1.7-7.5-4.6-9.7c-2.1-1.7-4.2-3.3-6.2-5c-3.1-2.5-6.2-5.1-9.4-7.5c-2.1-1.6-2.4-3-1.4-5.6
		l0.1-0.2c5.4-13.6,5.4-13.6,19.8-10.9c0.5,0.1,1,0.2,1.5,0.2c1.1,0.1,2,0.3,2.9,0.6c10,4,16.3-1.6,22.3-8.3c2.5-2.7,2.4-6,2.1-8.6
		c-0.3-2.5-0.6-5.1-0.8-7.6c-0.4-3.9-0.9-7.9-1.3-11.8c-0.3-2.8,0.6-4.3,3.2-5.4l0.2-0.1c13.1-5.6,13.1-5.6,21.4,6.3
		c0.3,0.4,0.6,0.8,0.9,1.2c0.7,0.9,1.3,1.7,1.7,2.6c4.3,9.9,12.9,10.6,21.5,10c3-0.2,5.5-1.7,7.7-4.4c1.7-2.1,3.4-4.2,5.1-6.3
		c2.4-2.9,4.8-5.9,7.2-9c1.9-2.5,3.6-2.9,6.4-1.5c2.7,1.3,4.9,2.3,6.7,3.1c6.6,2.9,6.6,2.9,5.3,9.7c-0.4,1.8-0.8,4.1-1.3,7.1
		c-0.1,0.4-0.1,0.7-0.2,1.1c-0.2,1.1-0.3,2.3-0.7,3.3c-4.1,10.1,1.6,16.2,8.8,22.5c2.3,2.1,5.3,2.1,8.2,1.8c1.8-0.2,3.7-0.4,5.5-0.6
		c4.4-0.4,9-0.9,13.4-1.5c3.1-0.4,4.7,0.5,6,3.8l0.1,0.3c5,12.8,5,12.8-6.6,20.7c-0.4,0.3-0.8,0.6-1.3,0.9c-0.8,0.6-1.6,1.2-2.5,1.6
		c-10.1,4.4-10.5,13.4-9.9,21.5c0.2,2.9,1.5,5.3,4.1,7.3c1.6,1.3,3.2,2.6,4.7,3.8c2.9,2.4,5.9,4.8,9,7c4.4,3,5.1,5.9,2.4,10
		c-0.4,0.6-0.7,1.3-1,2c-0.1,0.3-0.2,0.6-0.4,0.9c-0.5,1-0.9,1.9-1.3,2.7c-2.6,5.7-2.6,5.7-8,4.6c-1.1-0.2-2.3-0.4-3.8-0.7
		c-0.6-0.1-1.3-0.2-1.9-0.3c-2.2-0.3-4.5-0.7-6.5-1.3c-7.6-2.5-13.6-0.9-19.4,5.2C146.6,159.4,144.3,163.2,145.3,169.1z"/>
	<path class="st0" d="M120.9,76c-7.8-3.6-16.4-4.1-24.2-1.3c-7.8,2.8-14.1,8.6-17.7,16.3c-7.4,15.8-0.7,34.8,14.9,42.2
		c4,1.9,8.5,2.9,13.1,2.9c3.8,0,7.7-0.7,11.4-2c8.1-3,14.7-9,18.1-16.5C143.4,101.9,136.5,83.3,120.9,76z M126.1,113.4
		c-4.8,10.3-16.7,14.7-27.1,9.9c-10.7-4.9-15.3-17-10.5-27.4c2.3-5.1,6.6-9,12-11c2.3-0.8,4.8-1.3,7.2-1.3c3,0,6,0.7,8.8,2
		C126.8,90.7,131,102.8,126.1,113.4z"/>
	<path class="st0" d="M143.4,65c-4.4-4.1-9.2-7.2-14.3-9.3c-4.8-2.5-10.3-4.1-16.8-4.8c-3.9-0.5-6.3,1.1-6.8,4.6
		c-0.4,3.4,1.5,5.6,5.4,6.1c9.7,1.3,18.2,5.2,25.2,11.5c1.4,1.3,2.9,1.9,4.3,1.9c1.4,0,2.7-0.6,3.9-1.8c1-1.1,1.6-2.2,1.5-3.5
		C145.9,68.1,145.1,66.5,143.4,65z"/>
	<path class="st0" d="M153,97.7L153,97.7c0.6,0.2,1.3,0.4,1.9,0.4c1.1,0,2.3-0.4,3.2-1.1c1.4-1.1,2.2-2.7,2-4.5
		c-0.4-4.5-2.1-8.7-4.9-12.1c-1-1.2-2.5-1.8-4.2-1.6c-1.8,0.2-3.4,1.2-4.2,2.7c-1,2,0.6,6.9,1.2,8.3C149.1,93,151.1,97,153,97.7z"/>
	<path class="st0" d="M80.4,75.7c1.8-1.6,2.1-3.9,0.7-6c-1.6-2.6-3.9-5.1-6.9-7.3l-0.1,0c-2.8-1.4-5.1-1.2-6.9,0.7
		c-1.9,1.9-2,4.5-0.4,6.5c2.1,2.6,4.3,4.9,6.6,6.8c0.9,0.8,1.9,1.2,3,1.2C77.7,77.5,79.1,76.9,80.4,75.7z"/>
	<path class="st0" d="M53.9,107.1c1.9,0.3,4,0.6,6.2,0.6c1.5,0,3.1-0.1,4.7-0.5c2.3-0.5,3.6-2.4,3.7-4.9c0.1-2.5-1.3-4.4-3.7-5
		c-3.8-0.9-7.3-1-10.6-0.3c-2.3,0.5-3.7,2.2-3.9,4.8c-0.2,2.3,1,4,3.4,5.3L53.9,107.1z"/>
	<path class="st0" d="M70.4,82.1c-2.9-2.5-6.4-4-10.1-4.5c-2.6-0.3-4.5,1-5.4,3.7c-0.7,2.4,0,4.4,2.1,5.7c0.9,0.6,1.9,1,2.8,1.4
		c0.4,0.2,0.8,0.4,1.2,0.5l0.5,0c0.3,0.1,0.5,0.3,0.8,0.4c0.9,0.5,1.9,0.9,2.9,1.3c0.7,0.2,1.4,0.4,2,0.4c1.7,0,3.2-0.8,4.2-2.5
		C72.9,86.3,72.5,83.8,70.4,82.1z"/>
	<path class="st0" d="M66.1,113.6c-3.6,0.3-7.2,1.6-10.5,3.8c-1.5,1-2.2,2.6-2.1,4.3c0.1,1.8,1.2,3.5,2.8,4.4
		c0.6,0.3,1.4,0.5,2.3,0.5c1.9,0,4.2-0.6,6.1-1.4c2.6-1,5.7-2.8,6.3-4.7c0.6-1.6,0.2-3.5-0.8-4.9C69.2,114.2,67.7,113.5,66.1,113.6z
		"/>
	<path class="st0" d="M111.3,95.8c-2.5-1.1-5-1.2-7.3-0.4c-2.3,0.9-4.1,2.8-5.3,5.4c-2.1,4.8,0,10.3,4.6,12.5
		c1.2,0.6,2.5,0.8,3.9,0.8c1.2,0,2.4-0.2,3.6-0.6c2.5-0.9,4.5-2.8,5.5-5C118.5,103.5,116.3,98.1,111.3,95.8z"/>
	<path class="st0" d="M275.3,222.7c0-0.5,0-1.1,0-1.6c-0.1-6.7-2.1-9.4-8.6-11l-2.3-0.6c-2.1-0.5-4.2-1.1-6.3-1.6
		c-1.2-0.3-2-1-2.4-1.9c-0.4-0.9-0.2-2,0.4-3c0.8-1.3,1.5-2.5,2.3-3.8c1.1-1.8,2.3-3.7,3.3-5.6c2-3.5,1.6-7-1.1-9.9
		c-2.2-2.4-4.6-4.7-6.5-6.6c-3.6-3.4-6.8-3.8-11.2-1.4c-1.9,1-3.7,2.2-5.5,3.3c-0.9,0.5-1.8,1.1-2.7,1.6c-1.1,0.6-2.6,1.3-3.7,0.9
		c-1.1-0.5-1.7-1.9-2-3.1l-0.8-3.3c-0.5-1.9-0.9-3.7-1.4-5.6c-1.4-5.2-4-7.3-9.5-7.3c-2.6,0-5.2,0-7.7,0c-5,0-7.8,2.2-9.1,7
		c-0.5,1.8-0.9,3.7-1.4,5.5c-0.3,1.4-0.7,2.8-1.1,4.3c-0.3,1.2-1,2.1-1.8,2.5c-0.8,0.4-1.9,0.2-3-0.4c-1.5-0.8-3-1.7-4.4-2.6
		c-1.6-0.9-3.2-1.9-4.8-2.8c-4.1-2.3-7.3-1.9-10.7,1.2c-2.2,2-4.3,4.1-6.4,6.4c-3.2,3.5-3.6,6.7-1.2,10.9c0.9,1.5,1.8,3.1,2.7,4.5
		c0.9,1.5,1.8,2.9,2.6,4.4c0.6,1.1,0.8,2.2,0.4,3.1c-0.4,0.9-1.2,1.5-2.4,1.8c-1.4,0.4-2.8,0.7-4.2,1.1c-1.9,0.5-3.9,1-5.9,1.5
		c-4.7,1.3-6.8,4-6.8,9c0,3,0,5.7,0,8.3c0.1,4.8,2.3,7.7,6.9,8.9c1.6,0.4,3.2,0.8,4.8,1.2c1.7,0.4,3.5,0.9,5.2,1.3
		c1.1,0.3,1.9,1,2.3,1.9c0.4,0.9,0.3,1.9-0.3,2.9c-0.8,1.4-1.6,2.8-2.5,4.1c-1.1,1.7-2.2,3.5-3.2,5.3c-2.2,3.9-1.8,7.1,1.3,10.4
		c2.1,2.3,4.4,4.5,6.6,6.6c3.3,3.1,6.7,3.5,10.7,1.1c1.6-0.9,3.2-1.9,4.7-2.8c1.5-0.9,3-1.8,4.4-2.7c0.9-0.5,1.9-0.6,2.8-0.3
		c0.9,0.4,1.6,1.2,1.9,2.3c0.5,1.7,0.9,3.4,1.3,5.1c0.4,1.7,0.8,3.3,1.2,4.9c1.2,4.5,4,6.8,8.5,7.1c1.5,0.1,3,0.2,4.6,0.2
		c1.6,0,3.2-0.1,4.8-0.2c4.5-0.3,7.2-2.6,8.4-7.2c0.5-1.9,1-3.9,1.5-5.8c0.3-1.1,0.6-2.3,0.9-3.4c0.3-1.1,0.9-2.6,2-3.1
		c1.1-0.5,2.5,0.1,3.4,0.7c1,0.6,2,1.2,2.9,1.8c1.9,1.1,3.8,2.3,5.8,3.4c3.9,2.2,7.2,1.9,10.5-1c2.3-2,4.6-4.3,7-7
		c2.7-3,3.1-6.7,1-10.3c-1-1.8-2.1-3.5-3.1-5.3c-0.7-1.2-1.5-2.4-2.2-3.7c-0.7-1.2-0.9-2.4-0.6-3.3c0.5-1.1,1.7-1.6,2.6-1.9
		c1.5-0.4,2.9-0.7,4.4-1.1c1.8-0.4,3.6-0.9,5.4-1.4c4.3-1.1,6.6-3.7,7-8.2c0.1-1.2,0.1-2.3,0.1-3.4h0.1L275.3,222.7z M266.2,223
		c0,0.2,0,0.3,0,0.5c0,0.7,0,1.2,0,1.8c0,1.1,0,2.3-0.1,2.6c-0.2,0.2-1.1,0.4-2,0.6c-0.6,0.2-1.3,0.3-2.2,0.6
		c-0.4,0.1-0.7,0.2-1.1,0.3c-1.2,0.4-2.4,0.7-3.6,0.8c-5,0.6-8.2,3.2-10,8.2c-1,2.8-1.6,5.9,0.8,9.4c1.1,1.6,2.1,3.4,3.1,5.1
		c0.7,1.2,1.5,2.5,2.2,3.7c0.5,0.8,0.5,1-0.2,1.8l-0.1,0.1c-2.6,2.8-4.1,4.4-5.2,4.6c-1.2,0.2-3.1-1-6.4-3c-0.2-0.1-0.5-0.3-0.7-0.4
		c-0.4-0.2-0.8-0.4-1-0.6c-5.7-5.2-11.5-2.1-15.3,0c-2.2,1.2-2.9,3.3-3.3,4.8c-0.3,1.3-0.7,2.6-1,3.9c-0.6,2.3-1.2,4.7-1.7,7.1
		c-0.2,1-0.5,1.3-1.7,1.3l-0.1,0c-3.8,0.2-5.9,0.3-6.8-0.4c-0.9-0.7-1.5-2.9-2.4-6.5c-0.1-0.3-0.1-0.5-0.2-0.8
		c-0.1-0.5-0.3-0.9-0.3-1.2c-0.3-7.5-6.3-9.5-10.8-11c-0.6-0.2-1.1-0.3-1.7-0.3c-1.7,0-3.2,0.8-4.1,1.4l-0.6,0.4
		c-2.9,1.7-5.9,3.5-8.8,5.3c-1.2,0.8-1.8,0.7-2.8-0.4c-1.1-1.2-2-2.1-2.8-2.8c-1-1-2-2-2-2.3c0-0.3,0.7-1.4,1.3-2.4
		c0.5-0.8,1.2-1.9,2-3.3c0.1-0.2,0.2-0.4,0.3-0.5c0.3-0.5,0.5-0.9,0.8-1.3c3.7-4.3,4-9.2,1.1-14.6c-1-1.7-2.5-3.8-5.5-4.6
		c-1.5-0.4-3-0.7-4.5-1.1c-2.2-0.6-4.5-1.2-6.8-1.7c-0.9-0.2-1.1-0.4-1.1-1.5l0-0.1c-0.2-3.9-0.3-6,0.4-6.9c0.7-0.9,2.9-1.5,6.5-2.4
		c0.3-0.1,0.6-0.2,0.9-0.3c0.5-0.2,1-0.3,1.4-0.3c7.6-0.4,9.6-6.7,10.8-10.6c0.8-2.5-0.2-4.6-1.1-6c-0.8-1.3-1.5-2.5-2.3-3.8
		c-1.2-2-2.4-3.9-3.6-5.9c-0.5-0.9-0.6-1.3,0.2-2.2l0.1-0.1c2.4-2.7,3.9-4.3,5-4.5c1.1-0.2,3,1,6.2,2.9c0.3,0.2,0.5,0.3,0.8,0.4
		c0.5,0.3,0.9,0.5,1.3,0.8c5.2,4.7,10.5,2.7,15.1,0.2c1.8-1,3-2.6,3.5-5c0.4-1.5,0.8-3,1.1-4.5c0.6-2.1,1.1-4.3,1.6-6.5
		c0.3-1.2,0.6-1.4,1.8-1.4c1.8,0,3.2,0,4.3,0c1.4,0,2.8,0,3.1,0.2c0.2,0.2,0.5,1.5,0.8,2.7c0.3,1.1,0.6,2.4,1,4.1
		c0.1,0.2,0.1,0.4,0.2,0.6c0.2,0.6,0.4,1.1,0.4,1.6c0.4,7.6,6.5,9.5,10.9,10.8c2.2,0.7,4.1-0.2,5.7-1.2c0.9-0.5,1.8-1.1,2.7-1.6
		c2.2-1.3,4.5-2.7,6.7-4.1c1-0.6,1.4-0.7,2.5,0.4l0.1,0.1c2.6,2.5,4,3.9,4.2,5c0.1,1.1-1,2.9-2.8,6c-0.2,0.3-0.3,0.6-0.5,0.8
		c-0.2,0.5-0.5,0.9-0.7,1.2c-5.2,5.8-1.9,11.8-0.2,15.1c1,1.8,2.5,2.9,4.7,3.5c1.1,0.3,2.3,0.6,3.4,0.9c2.1,0.6,4.3,1.1,6.5,1.5
		c2.6,0.5,3,1.4,2.7,3.3C266.2,222.1,266.2,222.6,266.2,223z"/>
	<path class="st0" d="M213.4,212.4c-2.8,0-5.3,1-7,2.9c-1.8,1.8-2.7,4.4-2.7,7.3c0.1,5.4,4.4,9.7,9.8,9.8c0,0,0.1,0,0.1,0
		c2.5,0,5.1-1.1,7-3c2-2,3.1-4.6,3-7.1C223.6,216.7,219.1,212.4,213.4,212.4z"/>
</g>
</svg>
