<?xml version="1.0" encoding="utf-8"?>
<!-- Generator: Adobe Illustrator 21.0.1, SVG Export Plug-In . SVG Version: 6.00 Build 0)  -->
<svg version="1.1" id="Слой_1" xmlns="http://www.w3.org/2000/svg" xmlns:xlink="http://www.w3.org/1999/xlink" x="0px" y="0px"
	 viewBox="0 0 280 290" style="enable-background:new 0 0 280 290;" xml:space="preserve">
<style type="text/css">
	.st0{fill:#fff;}
</style>
<g>
	<path class="st0" d="M274,159.7c-2.3-6-7.5-6.7-11.8-6.7c-3.3,0-6.6,0-9.9,0c-5.9,0-12.1-0.1-18.1,0.1c-2,0.1-3.3-0.2-4-1
		c-0.8-0.7-1.1-2.1-1.1-4.3c0.1-14.5,0.1-29.3,0.1-43.6c0-5.1,0-10.3,0-15.4l0-19.1c0-16.5,0-33.6,0-50.4c0-8.2-4.3-13.3-12.4-14.6
		c-2.9-0.5-5.8-0.5-8-0.5c-36.3,0-118,0-134,0c-0.8,0-1.6,0-2.4,0c-2.3,0-4.8-0.1-7.2,0.2c-10.1,0.9-14.7,6-14.8,16.1
		c0,14.6,0,29.1,0,43.7l0,19.3c0,5.6,0,11.2,0,16.8c0,15.6,0,31.8,0.1,47.7c0,2.1-0.3,3.4-1.1,4.2c-0.8,0.7-2,1-4.1,1
		c-6.6-0.2-13.3-0.1-19.7-0.1c-2.9,0-5.8,0-8.8,0c-5.6,0-9.3,2-11,6.3c-1.8,4.3-0.6,8.2,3.7,12.1l3.9,3.5c1.9,1.7,3.9,3.5,5.8,5.2
		c15.5,13.8,33.7,32.3,51.4,50.2c17.9,18.1,36.3,36.9,52,50.8c3.4,3,10.5,4.5,17.5,4.5c6.8,0,13.5-1.4,16.7-4.2
		c17.2-15.3,37.3-35.5,56.7-55c19.2-19.3,39-39.2,56-54.4C273.1,168.9,276.1,165.2,274,159.7z M61.1,22.5l0-1.4
		c0-2.1,0.4-3.5,1.2-4.4c0.8-0.8,2.2-1.3,4.1-1.3c0,0,0,0,0,0c36.7,0.1,110.8,0.1,146.9,0c1.9,0,3.2,0.4,4.1,1.3
		c0.9,0.9,1.3,2.3,1.2,4.4c-0.1,7.6-0.2,15,0,22.5c0.1,1.7-0.2,2.8-0.9,3.5c-0.7,0.7-1.9,1-4,1C199.3,48,162.2,48,137.7,48l-16.4,0
		c-5,0-10,0-14.9,0c-12.9,0-26.3,0-39.5,0.1c-2.6,0-4-0.3-4.9-1.2c-0.8-0.8-1.1-2.2-1-4.4C61.4,35.9,61.3,29.1,61.1,22.5z
		 M61.1,155.8c0-17.2,0-34.3,0-51.5l0-19c0-2.1,0-4.2,0-6.3c0-5,0.1-10.1-0.1-15.2c0-1.8,0.2-2.9,0.9-3.6c0.6-0.7,1.8-1,3.4-1
		c36.9,0.1,111.6,0.1,148.9,0c1.6,0,2.7,0.3,3.3,0.9c0.8,0.8,1,2.2,1,4.2c-0.1,23-0.1,46.3,0,68.9l0,19c0,11,1,12,12.2,12
		c7.1,0,14.1,0,21.7,0l9.4,0c-1.8,1.6-3.5,3.1-5.1,4.6c-3.9,3.5-7.5,6.8-11.2,10c-14,12.5-30.9,29.8-47.2,46.6
		c-15.6,16.1-31.8,32.7-45.2,44.8c-3.7,3.4-22.9,3.3-26.6,0C110.6,256,92,237.1,73.9,218.9c-18.8-19-38.2-38.6-54.7-53.3
		c-0.2-0.2-0.4-0.4-0.8-0.8c-0.1-0.1-0.2-0.3-0.4-0.4l7.2,0l21.1,0c0.6,0,1.2,0,1.8,0c1.6,0,3.2,0,4.7-0.1
		C59.2,163.9,61.1,161.9,61.1,155.8z"/>
	<path class="st0" d="M99.4,41.2c0.1,0,0.1,0,0.2,0c3.1-0.1,4.9-2.1,5.4-5.8c0.1-0.8,0.1-1.7,0-2.5c0-0.3,0-0.7,0-1
		c0-0.4,0-0.8,0-1.3c0-0.9,0.1-1.9-0.1-2.8c-0.5-3.7-2.4-5.6-5.5-5.6c0,0,0,0,0,0c-3,0-4.9,1.9-5.2,5.3c-0.3,2.8-0.3,5.5-0.1,8.1
		C94.5,39.2,96.4,41.2,99.4,41.2z"/>
	<path class="st0" d="M179.9,41.2c0.1,0,0.3,0,0.4,0c5,0,5.3-4.7,5.6-7.9c0-0.4,0-0.8,0-1.2l0-0.3c0-4.2-0.9-7.2-2.6-8.6
		c-0.9-0.8-2.1-1.1-3.4-0.9c-5.2,0.8-5.2,4.8-5.2,7.7c0,0.3,0,0.7,0,1l0,0l0,2.3C174.7,35.7,174.7,40.9,179.9,41.2z"/>
	<path class="st0" d="M202,41.2c0.1,0,0.2,0,0.3,0c4.7,0,5.3-4.6,5.6-7c0.1-0.8,0.1-1.5,0.1-2.1c-0.1-0.6-0.1-1.2-0.1-1.8
		c-0.2-3.4-0.4-7.3-5.5-8.1c-1.3-0.2-2.4,0.1-3.3,0.8c-1.6,1.4-2.4,4.2-2.4,8.8v0c0,0.7,0,1.3,0,2C196.6,35.6,196.6,41,202,41.2z"/>
	<path class="st0" d="M77.3,41.2c0.1,0,0.2,0,0.4,0c3.4,0,5.2-2.3,5.5-6.8c0-0.7,0-1.3,0-2l0-0.5c0-4.3-0.8-7.2-2.4-8.7
		c-0.9-0.8-2-1.1-3.3-1c-5,0.6-5,4.2-4.9,7.1c0,0.7,0,1.3,0,1.8l0,0l0,1.2c0,0.7,0,1.2,0,1.7C72.4,37.3,72.8,41,77.3,41.2z"/>
	<path class="st0" d="M150.4,41.2c0.1,0,0.1,0,0.2,0c3.1-0.1,4.9-2.1,5.4-5.8c0.1-0.8,0.1-1.7,0-2.5c0-0.3,0-0.7,0-1
		c0-0.4,0-0.8,0-1.3c0-0.9,0.1-1.9-0.1-2.8c-0.5-3.7-2.4-5.6-5.5-5.6c0,0,0,0,0,0c-3,0-4.9,1.9-5.2,5.3c-0.3,2.8-0.3,5.5-0.1,8.1
		C145.5,39.2,147.4,41.2,150.4,41.2z"/>
	<path class="st0" d="M128.3,41.2c0.1,0,0.2,0,0.4,0c3.4,0,5.2-2.3,5.5-6.8c0-0.7,0-1.3,0-2l0-0.5c0-4.3-0.8-7.2-2.4-8.7
		c-0.9-0.8-2-1.1-3.3-1c-5,0.6-5,4.2-4.9,7.1c0,0.7,0,1.3,0,1.8l0,0l0,1.2c0,0.7,0,1.2,0,1.7C123.4,37.3,123.8,41,128.3,41.2z"/>
	<path class="st0" d="M111.5,165.8c-1.6,0-3.4,0-5.1,0.4c-2.8,0.5-4.4,2.3-4.6,4.8c-0.2,2.8,1.4,4.9,4.3,5.6
		c1.3,0.3,2.7,0.6,4.1,0.5c1.5-0.1,2.6,0.2,3.3,0.8c0.7,0.7,1.1,1.9,1,3.9c-0.1,5.2-0.1,10,0.1,14.5c0.2,4.3,2.1,6.6,5.3,6.6
		c0.1,0,0.2,0,0.3,0c3.4-0.2,5.3-2.6,5.4-6.9c0-3.9,0-7.8,0-11.6c0-1.5,0-2.9,0-4.4l0-0.5c0-1.6,0-3.2,0-4.8c0-3.7,0.1-7.5-0.1-11.2
		c-0.1-1.6,0.2-2.6,0.8-3.2c0.6-0.6,1.7-0.9,3.4-0.9c8.4,0.2,15.4,0.2,22,0c14.1-0.4,25.7-12.2,25.9-26.3c0.1-6.1,0.1-12.3,0-18.5
		c-0.1-13.8-9.4-24.6-23.1-26.8c-6-1-12.2-0.8-18.1-0.7c-2.4,0.1-5,0.1-7.4,0.1c-5.9-0.1-9.3,0.8-11.5,3c-2.2,2.2-3.2,5.7-3.2,11.8
		l0,8.4c0,10.8-0.1,22,0.1,33.1c0,2.5-0.3,3.9-1.2,4.7c-0.8,0.7-2,0.9-3.8,0.6c-0.8-0.1-1.6,0-2.3,0l-0.3,0c-3,0.3-4.9,2-5.1,4.8
		c-0.2,3,1.6,5,4.9,5.6c1.5,0.2,2.9,0.2,4.6,0.2c1.1,0,1.9,0.2,2.4,0.7c0.5,0.5,0.7,1.3,0.7,2.5
		C114.4,164.9,113.6,165.8,111.5,165.8z M136.5,148.7c-1.8,0-3.6,0-5.5,0c-0.8,0-1.5,0-2.3,0c-1.1,0-1.8-0.2-2.2-0.7
		c-0.5-0.5-0.8-1.4-0.8-3c0-5.1,0-10.2,0-15.4l0-6.1c0-2.1,0-4.1,0-6.2c0-5,0-10.2-0.1-15.2c0-1.5,0.2-2.5,0.8-3
		c0.6-0.6,1.6-0.9,3.1-0.8c3.3,0.1,6.7,0,10,0c3.8,0,7.6,0,11.4,0.1c8.9,0.2,15.6,6.7,16.1,15.5c0.3,6,0.3,12.4,0,18.9
		c-0.4,8.9-6.9,15.1-16.5,15.8C145.9,148.8,141.1,148.8,136.5,148.7z"/>
	<path class="st0" d="M158.1,165.9c-2.7-0.1-5.4-0.1-8-0.1c-1.2,0-2.3,0-3.5,0l-0.5,0c-1.1,0-2.2,0-3.2,0c-2.9,0-5.8,0-8.8,0.1
		c-3.6,0.1-5.7,2-5.9,5.2c-0.1,1.6,0.3,2.9,1.2,3.9c1,1,2.4,1.6,4.2,1.7c5,0.1,9.8,0.2,14.4,0.2c3.6,0,7.1,0,10.5-0.1
		c2,0,3.6-0.7,4.7-1.8c0.9-1,1.4-2.3,1.3-3.9C164.4,167.8,162.2,166.1,158.1,165.9z"/>
</g>
</svg>
