<?xml version="1.0" encoding="UTF-8"?>
<!DOCTYPE svg PUBLIC "-//W3C//DTD SVG 1.1//EN" "http://www.w3.org/Graphics/SVG/1.1/DTD/svg11.dtd">
<!-- Creator: CorelDRAW X8 -->
<svg xmlns="http://www.w3.org/2000/svg" xml:space="preserve" width="100%" height="100%" version="1.1" style="shape-rendering:geometricPrecision; text-rendering:geometricPrecision; image-rendering:optimizeQuality; fill-rule:evenodd; clip-rule:evenodd"
viewBox="0 0 5927 3502"
 xmlns:xlink="http://www.w3.org/1999/xlink">
 <defs>
  <style type="text/css">
   <![CDATA[
    .fil0 {fill:#a20001}
    .fil1 {fill:#FEFEFE;fill-rule:nonzero}
   ]]>
  </style>
 </defs>
 <g id="Слой_x0020_1">
  <metadata id="CorelCorpID_0Corel-Layer"/>
  <path class="fil0" d="M3581 3502l1852 0c0,-273 220,-495 494,-495l0 -2513c-274,0 -494,-221 -494,-494l-4939 0c0,273 -221,494 -494,494l0 588 0 1925c273,0 494,222 494,495l3087 0z"/>
  <path class="fil1" d="M655 3117c-13,-21 -26,-41 -40,-61l-29 21c14,19 27,38 38,58l31 -18zm-85 -117c-16,-18 -33,-35 -50,-52l-24 26c16,16 32,32 48,49l26 -23zm-105 -99c-19,-14 -39,-28 -59,-41l-19 30c19,12 38,25 56,39l22 -28zm-122 -77c-21,-11 -43,-21 -66,-30l-13 33c22,9 43,18 63,28l16 -31zm-78 -67l0 -71 -35 0 0 71 35 0zm0 -142l0 -70 -35 0 0 70 35 0zm0 -141l0 -70 -35 0 0 70 35 0zm0 -141l0 -70 -35 0 0 70 35 0zm0 -141l0 -70 -35 0 0 70 35 0zm0 -141l0 -71 -35 0 0 71 35 0zm0 -141l0 -71 -35 0 0 71 35 0zm0 -141l0 -71 -35 0 0 71 35 0zm0 -141l0 -71 -35 0 0 71 35 0zm0 -141l0 -71 -35 0 0 71 35 0zm0 -142l0 -70 -35 0 0 70 35 0zm0 -141l0 -70 -35 0 0 70 35 0zm0 -141l0 -70 -35 0 0 70 35 0zm0 -141l0 -70 -35 0 0 70 35 0zm0 -141l0 -71 -35 0 0 71 35 0zm43 -89c22,-10 44,-21 64,-32l-17 -31c-20,11 -40,22 -61,31l14 32zm126 -71c19,-14 38,-28 57,-44l-23 -27c-18,15 -36,29 -55,42l21 29zm109 -93c17,-17 33,-35 48,-54l-27 -22c-15,18 -30,35 -46,51l25 25 0 0zm91 -112c13,-21 25,-41 37,-63l-31 -16c-11,20 -23,40 -36,59l30 20zm68 -128c5,-12 9,-24 14,-36l-17 -6 0 17 32 0 0 -35 -44 0 -5 12c-4,12 -8,23 -13,35l33 13zm100 -25l70 0 0 -35 -70 0 0 35zm141 0l71 0 0 -35 -71 0 0 35zm141 0l71 0 0 -35 -71 0 0 35zm141 0l71 0 0 -35 -71 0 0 35zm141 0l71 0 0 -35 -71 0 0 35zm141 0l71 0 0 -35 -71 0 0 35zm142 0l70 0 0 -35 -70 0 0 35zm141 0l70 0 0 -35 -70 0 0 35zm141 0l70 0 0 -35 -70 0 0 35zm141 0l70 0 0 -35 -70 0 0 35zm141 0l71 0 0 -35 -71 0 0 35zm141 0l71 0 0 -35 -71 0 0 35zm141 0l71 0 0 -35 -71 0 0 35zm141 0l71 0 0 -35 -71 0 0 35zm141 0l71 0 0 -35 -71 0 0 35zm142 0l70 0 0 -35 -70 0 0 35zm141 0l70 0 0 -35 -70 0 0 35zm141 0l70 0 0 -35 -70 0 0 35zm141 0l70 0 0 -35 -70 0 0 35zm141 0l71 0 0 -35 -71 0 0 35zm141 0l71 0 0 -35 -71 0 0 35zm141 0l71 0 0 -35 -71 0 0 35zm141 0l71 0 0 -35 -71 0 0 35zm141 0l71 0 0 -35 -71 0 0 35zm142 0l70 0 0 -35 -70 0 0 35zm141 0l70 0 0 -35 -70 0 0 35zm141 0l70 0 0 -35 -70 0 0 35zm141 0l70 0 0 -35 -70 0 0 35zm141 0l71 0 0 -35 -71 0 0 35zm141 0l71 0 0 -35 -71 0 0 35zm141 0l71 0 0 -35 -71 0 0 35zm141 0l52 0 0 -17 -17 6c2,6 5,12 7,18l33 -13c-2,-5 -5,-11 -7,-17l-4 -12 -64 0 0 35zm71 73c11,22 23,43 35,63l30 -19c-12,-19 -23,-39 -33,-60l-32 16zm76 123c15,19 31,37 47,55l26 -24c-16,-17 -31,-35 -45,-53l-28 22zm98 105c18,16 37,32 56,46l21 -29c-18,-13 -36,-28 -53,-43l-24 26zm116 86c21,12 42,24 64,34l15 -32c-20,-10 -41,-21 -60,-32l-19 30zm131 62l5 2 6 -17 -17 0 0 65 35 0 0 -77 -12 -4 -5 -2 -12 33zm-6 120l0 71 35 0 0 -71 -35 0zm0 142l0 70 35 0 0 -70 -35 0zm0 141l0 70 35 0 0 -70 -35 0zm0 141l0 70 35 0 0 -70 -35 0zm0 141l0 70 35 0 0 -70 -35 0zm0 141l0 71 35 0 0 -71 -35 0zm0 141l0 71 35 0 0 -71 -35 0zm0 141l0 71 35 0 0 -71 -35 0zm0 141l0 71 35 0 0 -71 -35 0zm0 141l0 71 35 0 0 -71 -35 0zm0 142l0 70 35 0 0 -70 -35 0zm0 141l0 70 35 0 0 -70 -35 0zm0 141l0 70 35 0 0 -70 -35 0zm0 141l0 70 35 0 0 -70 -35 0zm6 120c-23,9 -45,18 -67,28l15 32c21,-10 42,-19 64,-26l-12 -34zm-131 63c-20,12 -40,25 -60,40l21 28c19,-14 38,-26 58,-38l-19 -30zm-116 85c-18,16 -35,33 -51,51l26 24c15,-17 32,-33 49,-49l-24 -26zm-98 106c-14,19 -28,39 -41,59l30 19c12,-20 25,-38 39,-57l-28 -21zm-76 122c-11,22 -20,44 -29,66l33 13c8,-21 17,-43 28,-63l-32 -16zm-71 73l-70 0 0 35 70 0 0 -35zm-141 0l-70 0 0 35 70 0 0 -35zm-141 0l-71 0 0 35 71 0 0 -35zm-141 0l-71 0 0 35 71 0 0 -35zm-141 0l-71 0 0 35 71 0 0 -35zm-141 0l-71 0 0 35 71 0 0 -35zm-141 0l-71 0 0 35 71 0 0 -35zm-142 0l-70 0 0 35 70 0 0 -35zm-141 0l-70 0 0 35 70 0 0 -35zm-141 0l-70 0 0 35 70 0 0 -35zm-141 0l-70 0 0 35 70 0 0 -35zm-141 0l-71 0 0 35 71 0 0 -35zm-141 0l-71 0 0 35 71 0 0 -35zm-141 0l-71 0 0 35 71 0 0 -35zm-141 0l-71 0 0 35 71 0 0 -35zm-141 0l-71 0 0 35 71 0 0 -35zm-142 0l-70 0 0 35 70 0 0 -35zm-141 0l-70 0 0 35 70 0 0 -35zm-141 0l-70 0 0 35 70 0 0 -35zm-141 0l-70 0 0 35 70 0 0 -35zm-141 0l-71 0 0 35 71 0 0 -35zm-141 0l-71 0 0 35 71 0 0 -35zm-141 0l-71 0 0 35 71 0 0 -35zm-141 0l-71 0 0 35 71 0 0 -35zm-141 0l-71 0 0 35 71 0 0 -35zm-142 0l-70 0 0 35 70 0 0 -35zm-141 0l-70 0 0 35 70 0 0 -35zm-141 0l-70 0 0 35 70 0 0 -35zm-141 0l-70 0 0 35 70 0 0 -35zm-141 0l-71 0 0 35 71 0 0 -35zm-141 0l-71 0 0 35 71 0 0 -35zm-141 0l-71 0 0 35 71 0 0 -35zm-86 12c-8,-23 -18,-45 -28,-67l-32 15c10,20 19,42 26,63l34 -11 0 0z"/>
 </g>
</svg>
