<?xml version="1.0" encoding="UTF-8"?>
<!DOCTYPE svg PUBLIC "-//W3C//DTD SVG 1.1//EN" "http://www.w3.org/Graphics/SVG/1.1/DTD/svg11.dtd">
<!-- Creator: CorelDRAW X8 -->
<svg xmlns="http://www.w3.org/2000/svg" xml:space="preserve" width="100%" height="100%" version="1.1" style="shape-rendering:geometricPrecision; text-rendering:geometricPrecision; image-rendering:optimizeQuality; fill-rule:evenodd; clip-rule:evenodd"
viewBox="0 0 10698 3438"
 xmlns:xlink="http://www.w3.org/1999/xlink">
 <defs>
  <style type="text/css">
   <![CDATA[
    .fil1 {fill:#373435}
    .fil0 {fill:#2F8160}
    .fil3 {fill:#373435;fill-rule:nonzero}
    .fil2 {fill:#C21415;fill-rule:nonzero}
   ]]>
  </style>
 </defs>
 <g id="Слой_x0020_1">
  <metadata id="CorelCorpID_0Corel-Layer"/>
  <path class="fil0" d="M2362 861c452,0 818,366 818,817 0,451 -366,817 -818,817 -451,0 -817,-366 -817,-817 0,-451 366,-817 817,-817zm1429 -150l321 0c35,0 63,28 63,63l0 322c0,34 -28,63 -63,63l-321 0c-35,0 -63,-29 -63,-63l0 -322c0,-35 28,-63 63,-63zm-328 566l403 0c43,0 79,35 79,79l0 402c0,44 -36,79 -79,79l-378 0c8,-52 11,-105 11,-159 0,-138 -24,-271 -69,-394 10,-4 21,-7 33,-7zm767 -11l209 0c23,0 41,18 41,41l0 209c0,23 -18,41 -41,41l-209 0c-22,0 -41,-18 -41,-41l0 -209c0,-23 19,-41 41,-41zm-1936 -184l137 0c79,0 143,64 143,143l0 241 242 0c78,0 142,65 142,143l0 138c0,78 -64,142 -142,142l-242 0 0 242c0,79 -64,143 -143,143l-137 0c-79,0 -143,-64 -143,-143l0 -242 -242 0c-79,0 -143,-64 -143,-142l0 -138c0,-78 64,-143 143,-143l242 0 0 -241c0,-79 64,-143 143,-143z"/>
  <path class="fil1" d="M1618 928c415,-411 1083,-408 1494,6 390,393 407,1014 55,1428l61 61 23 -23c54,-53 141,-53 194,1l501 505c53,54 53,141 0,194l-174 173c-54,53 -141,52 -194,-1l-501 -505c-54,-54 -53,-141 0,-195l23 -22 -60 -62c-417,349 -1038,326 -1428,-66 -410,-414 -408,-1083 6,-1494zm-701 275l325 0c16,-39 35,-77 56,-114l-267 0 0 -745 1146 0 0 131c38,-5 76,-9 115,-12l0 -234 -1375 0 0 974zm589 -785l-401 401c-22,22 -22,58 0,81 12,11 26,17 41,17 15,0 29,-6 40,-17l401 -401c23,-23 23,-59 0,-81 -22,-23 -58,-23 -81,0zm-360 212c15,0 29,-5 40,-17l115 -114c22,-23 22,-59 0,-81 -22,-23 -59,-23 -81,0l-115 114c-22,23 -22,59 0,81 12,12 26,17 41,17zm-802 573l458 0 0 -401 -458 0 0 401zm114 -286l230 0 0 172 -230 0 0 -172zm-114 -287l458 0 0 -401 -458 0 0 401zm114 -286l230 0 0 172 -230 0 0 -172zm2235 -172c-158,0 -287,128 -287,286 0,2 0,3 0,4 39,2 78,5 115,10 0,-5 0,-9 0,-14 0,-94 77,-172 172,-172 94,0 172,78 172,172 0,37 -12,70 -31,98 36,15 70,32 104,50 26,-43 41,-94 41,-148 0,-158 -128,-286 -286,-286zm573 691l0 -562c0,-166 -135,-301 -301,-301l-2664 0c-166,0 -301,135 -301,301l0 563c0,186 90,351 229,455l0 1662c-128,12 -229,118 -229,249l0 208 3266 0 0 -208c0,-138 -113,-251 -252,-251l-35 0 0 -252c-37,21 -75,41 -114,59l0 193 0 0 -818 0c27,-32 47,-70 60,-111 -38,-9 -75,-18 -111,-30 -26,82 -103,141 -193,141l-398 0c-111,0 -202,-90 -202,-202l0 -428 144 0c-24,-37 -47,-75 -67,-115l-77 0 -114 0 -172 0c-158,0 -287,129 -287,287 0,158 129,286 287,286l173 0c6,65 32,125 71,172l-817 0 0 -1593c0,0 1,0 1,0 14,6 28,11 42,16 4,1 7,3 11,4 17,6 35,10 52,14 1,0 2,0 3,1 38,7 76,11 115,11l578 0 0 232c1,-120 20,-237 54,-346l-54 0 -578 0c-20,0 -39,-2 -59,-5 -5,0 -10,-1 -15,-2 -17,-3 -34,-7 -51,-11 -2,-1 -5,-1 -7,-2 -18,-6 -37,-13 -54,-21 -5,-2 -9,-4 -13,-6 -16,-8 -31,-16 -46,-26 -125,-81 -208,-221 -208,-381l0 -563c0,-103 83,-186 186,-186l2664 0c103,0 186,83 186,186l0 451c41,34 79,71 115,111zm-252 2231c76,0 137,61 137,136l0 93 -3036 0 0 -93c0,-75 61,-136 136,-136l1154 0 398 0 1176 0 35 0zm-1868 -1402l0 141c0,41 11,79 29,113 -18,-82 -28,-167 -29,-254zm-229 1001c-95,0 -172,-77 -172,-172 0,-95 77,-172 172,-172l172 0 0 344 -172 0zm798 -1667c360,-358 942,-355 1300,5 357,360 355,942 -6,1299 -360,358 -942,355 -1299,-5 -357,-360 -355,-942 5,-1299z"/>
  <path class="fil2" d="M5135 965l0 131c0,66 -29,90 -75,90 -46,0 -75,-24 -75,-90l0 -496c0,-66 29,-91 75,-91 46,0 75,25 75,91l0 98 137 0 0 -89c0,-147 -74,-231 -216,-231 -142,0 -215,84 -215,231l0 478c0,147 73,231 215,231 142,0 216,-84 216,-231l0 -122 -137 0zm358 -365c0,-66 29,-91 75,-91 46,0 74,25 74,91l0 496c0,66 -28,91 -74,91 -46,0 -75,-25 -75,-91l0 -496zm-145 487c0,147 78,231 220,231 141,0 219,-84 219,-231l0 -478c0,-147 -78,-231 -219,-231 -142,0 -220,84 -220,231l0 478zm677 -567l238 0 0 -132 -383 0 0 920 145 0 0 -380 186 0 0 -131 -186 0 0 -277zm452 0l238 0 0 -132 -383 0 0 920 145 0 0 -380 186 0 0 -131 -186 0 0 -277zm452 0l249 0 0 -132 -394 0 0 920 394 0 0 -131 -249 0 0 -270 198 0 0 -131 -198 0 0 -256zm483 0l250 0 0 -132 -394 0 0 920 394 0 0 -131 -250 0 0 -270 199 0 0 -131 -199 0 0 -256z"/>
  <path class="fil3" d="M4848 1864c0,442 475,502 475,820 0,111 -49,150 -126,150 -78,0 -126,-39 -126,-150l0 -111 -230 0 0 96c0,247 124,389 363,389 238,0 362,-142 362,-389 0,-443 -475,-502 -475,-821 0,-110 44,-152 121,-152 78,0 122,42 122,152l0 64 230 0 0 -48c0,-248 -122,-389 -358,-389 -237,0 -358,141 -358,389zm846 -372l0 1179c0,247 124,389 363,389 239,0 363,-142 363,-389l0 -1179 -230 0 0 1194c0,111 -49,151 -126,151 -78,0 -126,-40 -126,-151l0 -1194 -244 0zm1250 0l-359 0 0 1548 244 0 0 -582 115 0c243,0 362,-134 362,-382l0 -201c0,-248 -119,-383 -362,-383zm0 221c77,0 119,36 119,146l0 232c0,111 -42,146 -119,146l-115 0 0 -524 115 0zm833 -221l-358 0 0 1548 243 0 0 -582 115 0c243,0 363,-134 363,-382l0 -201c0,-248 -120,-383 -363,-383zm0 221c78,0 120,36 120,146l0 232c0,111 -42,146 -120,146l-115 0 0 -524 115 0zm699 135c0,-110 48,-152 126,-152 77,0 126,42 126,152l0 836c0,111 -49,153 -126,153 -78,0 -126,-42 -126,-153l0 -836zm-243 821c0,247 130,389 369,389 239,0 369,-142 369,-389l0 -805c0,-248 -130,-389 -369,-389 -239,0 -369,141 -369,389l0 805zm1651 371c-24,-58 -26,-113 -26,-188l0 -239c0,-161 -40,-278 -162,-329 109,-51 159,-155 159,-314l0 -122c0,-239 -108,-356 -360,-356l-367 0 0 1548 243 0 0 -630 84 0c111,0 159,53 159,197l0 243c0,126 9,150 23,190l247 0zm-396 -1327c87,0 124,49 124,160l0 152c0,124 -55,164 -146,164l-95 0 0 -476 117 0zm458 0l254 0 0 1327 244 0 0 -1327 254 0 0 -221 -752 0 0 221z"/>
 </g>
</svg>
