<?xml version="1.0" encoding="UTF-8"?>
<!DOCTYPE svg PUBLIC "-//W3C//DTD SVG 1.1//EN" "http://www.w3.org/Graphics/SVG/1.1/DTD/svg11.dtd">
<!-- Creator: CorelDRAW X8 -->
<svg xmlns="http://www.w3.org/2000/svg" xml:space="preserve" width="100%" height="100%" version="1.1" style="shape-rendering:geometricPrecision; text-rendering:geometricPrecision; image-rendering:optimizeQuality; fill-rule:evenodd; clip-rule:evenodd"
viewBox="0 0 9953 2356"
 xmlns:xlink="http://www.w3.org/1999/xlink">
 <defs>
  <style type="text/css">
   <![CDATA[
    .fil0 {fill:#FEFEFE}
   ]]>
  </style>
 </defs>
 <g id="Слой_x0020_1">
  <metadata id="CorelCorpID_0Corel-Layer"/>
  <path class="fil0" d="M1545 1326l-257 0 -6 -465 -218 0c-20,0 -47,58 -64,87l-347 577c-21,34 -39,66 -60,97l163 0 71 -114c7,-13 14,-31 29,-31l275 0 0 145 151 0 6 -145 251 0c0,100 31,245 61,336 27,82 83,194 137,261 65,80 120,133 210,188 151,91 254,94 426,94 153,0 347,-92 471,-174 166,-110 315,-276 419,-449 17,-29 66,-113 73,-144l-285 0c-39,-1 -57,5 -90,5 -12,23 -34,53 -50,73 -9,12 -17,22 -27,34 -12,14 -20,20 -32,36 -32,40 -90,89 -131,120 -77,59 -225,146 -359,146 -127,0 -225,-22 -317,-108 -253,-235 -209,-707 -75,-978 99,-200 154,-274 315,-418 27,-24 77,-59 109,-76 319,-177 620,-88 739,272 10,32 19,72 23,105 5,35 12,88 12,123l325 0c0,-218 -64,-445 -177,-607 -37,-54 -78,-95 -124,-139 -90,-88 -234,-146 -359,-168 -163,-28 -322,12 -444,61 -233,93 -437,285 -569,479 -141,208 -275,527 -275,777zm-1287 -459c-3,26 -174,517 -192,570l-66 191 515 0c8,-31 81,-118 90,-151l-403 0c4,-49 197,-567 201,-616 -32,15 -103,6 -145,6zm3084 1136l285 0 448 -1316 -280 0c-2,34 -144,426 -167,494 -10,30 -20,53 -29,82l-228 657c-10,27 -18,59 -29,83zm5883 0l280 0 422 -1229c8,-23 24,-64 26,-87l-285 0c-3,26 -43,130 -54,165l-168 493c-38,112 -74,214 -111,326 -19,57 -37,105 -56,162 -10,31 -52,147 -54,170zm-1063 0l946 0c7,-16 16,-43 23,-61l43 -124c7,-22 15,-49 23,-67l-588 0c-35,0 -46,6 -83,6 2,-32 72,-220 87,-266 31,-92 62,-178 91,-267l136 -401c10,-33 41,-102 44,-136l-274 0c-7,27 -17,53 -26,81l-396 1149c-9,23 -24,64 -26,86zm-1361 0l325 0c7,-25 166,-269 174,-297l487 0 0 297 274 0 0 -1316c-72,17 -369,0 -459,0l-599 985c-44,72 -166,263 -202,331zm683 -582l303 0 0 -509c-13,15 -27,43 -39,62l-188 315c-17,28 -70,109 -76,132zm-3627 593l297 0 280 -828c9,-28 5,-39 39,-40l0 874 229 0c4,-18 19,-40 29,-55 120,-185 253,-412 371,-603l100 -163c12,-21 27,-36 32,-58l39 0c-2,22 -25,79 -35,110 -59,176 -134,364 -192,541 -14,42 -73,194 -75,222l285 0 54 -164c20,-57 39,-112 58,-167 37,-113 75,-221 113,-334 11,-33 223,-635 223,-673l-492 0c-18,0 -19,15 -36,43l-413 685c-2,5 -10,20 -14,25 -12,17 -1,12 -24,14l0 -772 -398 0c-18,0 -26,37 -38,73l-375 1097c-10,29 -19,57 -28,84 -10,29 -22,60 -29,89zm1646 0c298,0 597,-1 895,0 187,1 335,-102 402,-270 45,-112 65,-239 -3,-347 -13,-21 -27,-33 -44,-50l-58 -44c81,0 159,-70 195,-118 103,-138 114,-409 -74,-484 -31,-13 -69,-25 -110,-25l-739 0c-20,0 -23,35 -37,75l-369 1092c-10,30 -17,53 -28,84 -11,31 -23,55 -30,87zm392 -269c136,0 272,1 408,1 112,0 235,-87 235,-180 0,-59 4,-96 -68,-127 -70,-31 -380,-18 -469,-18 -16,66 -103,279 -106,324zm190 -570c121,-1 243,-1 364,0 60,0 103,-9 143,-36 76,-54 75,-101 75,-160 0,-41 -38,-68 -78,-68l-403 0c-21,0 -43,91 -54,126 -14,41 -31,102 -47,138zm-5145 151l191 0 0 -314c-13,9 -126,201 -144,231 -12,20 -42,64 -47,83z"/>
 </g>
</svg>
