<?xml version="1.0" encoding="UTF-8"?>
<!DOCTYPE svg PUBLIC "-//W3C//DTD SVG 1.1//EN" "http://www.w3.org/Graphics/SVG/1.1/DTD/svg11.dtd">
<!-- Creator: CorelDRAW X8 -->
<svg xmlns="http://www.w3.org/2000/svg" xml:space="preserve" width="100%" height="100%" version="1.1" style="shape-rendering:geometricPrecision; text-rendering:geometricPrecision; image-rendering:optimizeQuality; fill-rule:evenodd; clip-rule:evenodd"
viewBox="0 0 6335 6335"
 xmlns:xlink="http://www.w3.org/1999/xlink">
 <defs>
  <style type="text/css">
   <![CDATA[
    .fil0 {fill:none}
    .fil1 {fill:#9AC516}
   ]]>
  </style>
 </defs>
 <g id="Слой_x0020_1">
  <metadata id="CorelCorpID_0Corel-Layer"/>
  <rect class="fil0" width="6335" height="6335"/>
  <path class="fil1" d="M6076 1622l-1830 1395 36 41c98,110 184,228 184,382 0,172 -108,298 -217,419 -39,43 -83,90 -112,141 -31,53 -51,117 -70,175 -50,150 -105,306 -250,390 -67,39 -139,53 -215,53 -81,0 -161,-16 -239,-32 -64,-12 -131,-27 -196,-27 -65,0 -132,15 -195,27 -79,16 -158,32 -239,32 -76,0 -149,-14 -215,-53 -145,-84 -200,-240 -250,-390 -20,-58 -39,-122 -70,-175 -29,-51 -74,-98 -113,-141 -108,-121 -217,-247 -217,-419 0,-154 87,-272 184,-382l36 -41 -1829 -1395 0 3456c0,131 106,237 237,237l3766 0c71,0 129,58 129,130 0,71 -58,129 -129,129l-3766 0c-273,0 -496,-223 -496,-496l0 -3821c0,-274 223,-496 496,-496l5342 0c274,0 497,222 497,496l0 3821c0,273 -223,496 -497,496l-747 0c-71,0 -129,-58 -129,-129 0,-72 58,-130 129,-130l747 0c131,0 238,-106 238,-237l0 -3456zm-1976 1182l1812 -1382c67,-51 92,-133 65,-213 -27,-81 -97,-131 -182,-131l-5256 0c-85,0 -154,50 -181,131 -27,80 -2,162 65,213l1812 1382 22 -67c4,-11 7,-21 11,-32 50,-150 105,-306 249,-390 67,-39 140,-53 216,-53 81,0 160,16 239,32 63,12 130,27 195,27 65,0 132,-15 196,-27 78,-16 158,-32 239,-32 76,0 148,14 215,53 145,84 200,240 250,390 3,11 7,21 10,32l23 67zm-933 1496c83,0 165,17 246,33 61,12 126,26 189,26 29,0 60,-3 86,-18 69,-40 109,-175 133,-248 26,-76 51,-153 92,-223 39,-68 92,-126 144,-184 54,-61 151,-160 151,-246 0,-86 -97,-185 -151,-246 -52,-58 -105,-116 -144,-184 -41,-70 -66,-147 -92,-223 -24,-73 -64,-208 -133,-248 -26,-15 -57,-18 -86,-18 -63,0 -128,14 -189,26 -81,16 -163,33 -246,33 -83,0 -164,-17 -245,-33 -62,-12 -127,-26 -189,-26 -29,0 -60,3 -86,18 -69,40 -109,175 -134,248 -25,76 -51,153 -91,223 -39,68 -92,126 -144,184 -55,61 -151,160 -151,246 0,86 96,185 151,246 52,58 105,116 144,184 40,70 66,147 91,223 25,73 64,208 134,248 26,15 57,18 86,18 62,0 127,-14 189,-26 81,-16 162,-33 245,-33z"/>
 </g>
</svg>
