<?xml version="1.0" encoding="UTF-8"?>
<!DOCTYPE svg PUBLIC "-//W3C//DTD SVG 1.1//EN" "http://www.w3.org/Graphics/SVG/1.1/DTD/svg11.dtd">
<!-- Creator: CorelDRAW X8 -->
<svg xmlns="http://www.w3.org/2000/svg" xml:space="preserve" width="100%" height="100%" version="1.1" style="shape-rendering:geometricPrecision; text-rendering:geometricPrecision; image-rendering:optimizeQuality; fill-rule:evenodd; clip-rule:evenodd"
viewBox="0 0 6335 6335"
 xmlns:xlink="http://www.w3.org/1999/xlink">
 <defs>
  <style type="text/css">
   <![CDATA[
    .fil0 {fill:none}
    .fil1 {fill:#9AC516;fill-rule:nonzero}
   ]]>
  </style>
 </defs>
 <g id="Слой_x0020_1">
  <metadata id="CorelCorpID_0Corel-Layer"/>
  <rect class="fil0" width="6335" height="6335"/>
  <path class="fil1" d="M328 5799c-70,0 -126,-57 -126,-126 0,-70 56,-126 126,-126l5679 0c69,0 126,56 126,126 0,69 -57,126 -126,126l-5679 0zm4364 -5255c167,0 318,83 425,217 100,127 162,300 162,489 0,190 -62,363 -162,489 -107,135 -258,218 -425,218 -168,0 -318,-83 -425,-218 -101,-126 -163,-299 -163,-489 0,-189 62,-362 163,-489 107,-134 257,-217 425,-217zm228 374c-60,-76 -141,-123 -228,-123 -88,0 -169,47 -229,123 -67,83 -108,201 -108,332 0,132 41,249 108,333 60,76 141,123 229,123 87,0 168,-47 228,-123 67,-84 108,-201 108,-333 0,-131 -41,-249 -108,-332zm-2929 1128c0,-69 56,-126 125,-126 70,0 126,57 126,126l0 1589c183,108 738,405 1002,179 52,-45 132,-39 177,13 44,53 38,132 -14,177 -332,283 -877,66 -1165,-83l0 1229 203 0c69,0 125,56 125,126 0,69 -56,125 -125,125l-582 0c-70,0 -126,-56 -126,-125 0,-70 56,-126 126,-126l128 0 0 -1224c-266,135 -526,171 -757,135 -200,-32 -378,-119 -519,-243 -143,-124 -249,-287 -307,-470 -81,-259 -64,-561 90,-855 85,-163 173,-246 251,-320 100,-93 179,-168 185,-491 8,-475 252,-814 578,-995 153,-85 324,-135 497,-148 173,-12 349,13 511,78 332,133 604,430 676,909 79,526 107,545 210,612 33,22 72,48 120,86 285,226 285,359 285,359 0,70 -56,126 -126,126 -69,0 -125,-56 -125,-126 0,0 0,-13 -189,-163 -39,-31 -74,-53 -103,-73 -177,-116 -225,-148 -321,-784 -56,-378 -266,-611 -520,-713 -126,-51 -264,-70 -400,-61 -137,10 -273,50 -394,117 -252,141 -442,406 -449,779 -7,431 -121,537 -263,671 -63,59 -135,126 -200,253 -121,231 -135,465 -73,665 43,139 124,262 232,356 107,94 242,159 393,183 213,34 461,-13 718,-176l0 -1591zm2639 122c22,-33 60,-54 103,-54 35,0 68,15 91,39l2 2 1075 1019c18,15 33,36 40,60l106 352c20,66 -17,137 -84,157 -66,20 -136,-18 -156,-84l-97 -320 -852 -807 0 1145 672 1366c68,2 122,58 122,126 0,69 -57,125 -126,125l-367 0c-69,0 -126,-56 -126,-125 0,-70 57,-126 126,-126l92 0 -511 -1039 -519 1207 0 1 -1 3 -2 3 0 0 -2 5 -1 1 0 2 -1 1 -5 8 -1 1 -1 2 0 1 -1 2 -2 2 -1 1 -1 2 -1 0 -1 2 0 1 -2 1 0 1 -2 2 0 0 -2 2 0 0 -2 2 0 1 -2 1 -1 1 -2 1 0 1 -2 1 0 1 -2 1 0 1 -3 1 -7 6 0 0 -2 1 -1 1 -10 5 0 1 -3 1 -5 2 -1 1c-14,6 -31,9 -48,9l-367 0c-70,0 -126,-56 -126,-125 0,-70 56,-126 126,-126l284 0 587 -1364 0 -1096 -728 859c-17,20 -39,34 -64,40l-360 120c-66,22 -137,-14 -158,-79 -22,-66 14,-137 79,-158l334 -112 920 -1085z"/>
 </g>
</svg>
