<?xml version="1.0" encoding="UTF-8"?>
<!DOCTYPE svg PUBLIC "-//W3C//DTD SVG 1.1//EN" "http://www.w3.org/Graphics/SVG/1.1/DTD/svg11.dtd">
<!-- Creator: CorelDRAW X8 -->
<svg xmlns="http://www.w3.org/2000/svg" xml:space="preserve" width="100%" height="100%" version="1.1" style="shape-rendering:geometricPrecision; text-rendering:geometricPrecision; image-rendering:optimizeQuality; fill-rule:evenodd; clip-rule:evenodd"
viewBox="0 0 12304 3477"
 xmlns:xlink="http://www.w3.org/1999/xlink">
 <defs>
  <style type="text/css">
   <![CDATA[
    .fil0 {fill:#FEFEFE}
    .fil1 {fill:#FEFEFE;fill-rule:nonzero}
   ]]>
  </style>
 </defs>
 <g id="Слой_x0020_1">
  <metadata id="CorelCorpID_0Corel-Layer"/>
  <g id="_1667580529344">
   <path id="XMLID_230_" class="fil0" d="M4098 0c-195,8 -428,128 -568,291 -118,137 -234,367 -204,597 2,15 14,26 28,27 14,1 27,2 40,2 191,0 396,-106 536,-275 148,-179 222,-409 200,-615 -2,-16 -16,-28 -32,-27z"/>
   <path class="fil1" d="M21 1957l600 0 0 1482 -600 0 0 -1482zm301 -148c-44,0 -85,-8 -124,-24 -39,-16 -73,-37 -103,-66 -29,-28 -52,-61 -69,-99 -17,-38 -26,-80 -26,-125 0,-45 9,-86 26,-124 17,-37 40,-70 69,-98 29,-28 64,-50 103,-65 39,-16 80,-24 124,-24 45,0 87,8 126,24 39,15 74,37 103,65 29,28 52,61 69,98 17,38 26,79 26,124 0,45 -9,87 -26,125 -17,38 -40,71 -69,99 -30,29 -64,50 -103,66 -39,16 -81,24 -126,24zm761 1630l0 -2956 1933 0 0 512 -1317 0 0 792 1202 0 0 491 -1202 0 0 1161 -616 0zm2261 -2256l600 0 0 2256 -600 0 0 -2256zm1924 1468l-432 788 -631 0 713 -1125 -706 -1131 673 0 414 769 12 0 412 -769 649 0 -709 1117 705 1139 -653 0 -435 -788 -12 0zm4522 788l-549 0 0 -1995 -17 0 -801 1966 -389 0 -802 -1966 -17 0 0 1995 -549 0 0 -2956 716 0 838 2095 17 0 838 -2095 715 0 0 2956zm1455 -1849c-67,0 -131,12 -189,37 -58,23 -108,57 -152,100 -42,43 -77,95 -104,155 -26,60 -42,126 -48,199l973 0c-3,-74 -16,-142 -41,-202 -25,-61 -58,-112 -100,-155 -41,-42 -91,-75 -148,-99 -57,-23 -121,-35 -191,-35zm1042 1162c-16,109 -53,209 -111,297 -58,90 -130,166 -219,230 -89,63 -193,112 -311,147 -118,34 -245,51 -382,51 -172,0 -327,-26 -464,-79 -136,-54 -252,-130 -347,-230 -95,-100 -169,-221 -220,-365 -51,-143 -77,-304 -77,-482 0,-179 26,-341 76,-486 51,-144 123,-268 217,-370 95,-103 209,-181 343,-236 133,-55 283,-83 448,-83 163,0 309,26 441,79 130,52 242,127 335,224 92,96 163,214 213,352 49,138 75,292 75,464l0 185 -1556 0 0 37c0,82 12,156 38,224 25,67 60,124 106,172 46,48 101,85 165,111 65,25 137,39 216,39 114,0 211,-25 294,-75 82,-50 138,-118 166,-206l554 0z"/>
  </g>
 </g>
</svg>
