<svg width="50" height="50" viewBox="0 0 50 50" xmlns="http://www.w3.org/2000/svg"><g transform="matrix(-1 0 0 1 50 0)" fill="none" fill-rule="evenodd"><circle fill="#f6394f" cx="25" cy="25" r="25"/><path d="M23.69 19.636a2.742 2.742 0 0 1 0-1.73c.099-.251.237-.485.41-.693.192-.242.41-.463.65-.657.203-.174.433-.314.68-.416.282-.102.58-.149.88-.138h.17c.578.046 1.114.32 1.49.762l1.52 1.487c1.51 1.489 2.97 2.988 4.4 4.5L36 25l-2.11 2.25a181.92 181.92 0 0 1-4.4 4.5l-1.42 1.4a2.514 2.514 0 0 1-1.67.85 2.45 2.45 0 0 1-1.42-.42 4.382 4.382 0 0 1-1.02-1.04 2.518 2.518 0 0 1-.41-1.42 2.66 2.66 0 0 1 .8-1.708l1.47-1.644h-8.94a2.63 2.63 0 0 1-1.31-.277 4.447 4.447 0 0 1-.75-.554 5.1 5.1 0 0 1-.55-.761 2.7 2.7 0 0 1 0-2.353 5.1 5.1 0 0 1 .55-.761c.23-.21.481-.396.75-.554a2.63 2.63 0 0 1 1.31-.277h9.08l-.91-.882a8.889 8.889 0 0 1-.88-.952 3.044 3.044 0 0 1-.48-.761" stroke="#FFF" stroke-width="2"/></g></svg>