<?xml version="1.0" encoding="UTF-8"?>
<!DOCTYPE svg PUBLIC "-//W3C//DTD SVG 1.1//EN" "http://www.w3.org/Graphics/SVG/1.1/DTD/svg11.dtd">
<!-- Creator: CorelDRAW X8 -->
<svg xmlns="http://www.w3.org/2000/svg" xml:space="preserve" width="100%" height="100%" version="1.1" style="shape-rendering:geometricPrecision; text-rendering:geometricPrecision; image-rendering:optimizeQuality; fill-rule:evenodd; clip-rule:evenodd"
viewBox="0 0 15716 6800"
 xmlns:xlink="http://www.w3.org/1999/xlink">
 <defs>
  <style type="text/css">
   <![CDATA[
    .fil1 {fill:#C32C3D}
    .fil0 {fill:#333333;fill-rule:nonzero}
   ]]>
  </style>
 </defs>
 <g id="Слой_x0020_1">
  <metadata id="CorelCorpID_0Corel-Layer"/>
  <g id="_1684917563920">
   <path class="fil0" d="M7606 3001l-323 0c-26,0 -48,-10 -67,-28 -18,-18 -28,-41 -28,-66l0 -1689 -731 1153c-19,30 -45,44 -80,44 -33,0 -59,-14 -78,-44l-732 -1153 0 1689c0,25 -9,48 -27,66 -19,18 -41,28 -67,28l-324 0c-26,0 -48,-10 -67,-28 -19,-18 -28,-41 -28,-66l0 -2497c0,-26 9,-47 28,-66 19,-17 41,-26 67,-26l346 0c34,0 61,14 80,42l802 1258 804 -1258c19,-28 45,-42 80,-42l345 0c26,0 48,9 66,26 19,19 28,40 28,66l0 2497c0,25 -9,48 -28,66 -18,18 -40,28 -66,28zm1949 42c-194,0 -372,-34 -534,-104 -170,-72 -315,-180 -435,-323 -107,-129 -188,-279 -243,-449 -50,-159 -76,-329 -76,-508 0,-179 26,-348 76,-508 55,-171 136,-322 243,-450 120,-142 265,-249 435,-323 162,-69 340,-103 534,-103 194,0 372,34 534,103 170,74 316,181 435,323 108,128 189,279 243,450 51,160 76,329 76,508 0,179 -25,349 -76,508 -54,170 -135,320 -243,449 -119,143 -265,251 -435,323 -162,70 -340,104 -534,104zm0 -472c257,0 456,-100 597,-300 115,-165 172,-368 172,-612 0,-243 -57,-448 -172,-613 -142,-199 -341,-299 -597,-299 -255,0 -454,100 -596,299 -115,164 -173,368 -173,613 0,245 58,449 173,612 140,200 339,300 596,300zm2862 430l-979 0c-26,0 -48,-10 -67,-28 -18,-18 -28,-41 -28,-66l0 -2497c0,-26 10,-47 28,-66 19,-17 41,-26 67,-26l908 0c211,0 395,52 553,155 108,72 192,163 251,273 60,109 90,229 90,359 0,232 -98,403 -291,511 248,167 372,364 372,590 0,131 -30,252 -91,363 -61,111 -146,203 -255,276 -159,104 -345,156 -558,156zm-71 -1590c103,0 188,-24 256,-71 79,-55 118,-134 118,-235 0,-102 -39,-181 -118,-235 -68,-48 -153,-72 -256,-72l-483 0 0 613 483 0zm71 1108c106,0 193,-24 263,-72 81,-57 122,-138 122,-241 0,-104 -41,-184 -122,-241 -70,-48 -157,-72 -263,-72l-554 0 0 626 554 0zm1908 482l-330 0c-26,0 -48,-10 -67,-28 -18,-18 -27,-41 -27,-66l0 -2497c0,-26 9,-47 27,-66 19,-17 41,-26 67,-26l330 0c26,0 49,9 67,26 18,19 28,40 28,66l0 2497c0,25 -10,48 -28,66 -18,18 -41,28 -67,28zm-7377 3482l-354 0c-36,0 -63,-15 -82,-46l-611 -1062 -328 0 0 1014c0,26 -9,48 -27,66 -18,18 -40,28 -66,28l-331 0c-26,0 -48,-10 -67,-28 -19,-18 -28,-40 -28,-66l0 -2497c0,-26 9,-47 28,-66 19,-17 41,-26 67,-26l909 0c211,0 395,52 552,155 108,72 191,163 251,273 59,110 89,230 89,359 0,130 -30,250 -89,360 -93,169 -235,289 -426,361l595 1034c9,15 14,30 14,47 0,16 -5,31 -14,48 -18,31 -45,46 -82,46zm-890 -1590c103,0 188,-24 256,-70 78,-56 117,-134 117,-236 0,-102 -39,-181 -117,-235 -68,-48 -153,-72 -256,-72l-485 0 0 613 485 0zm3184 1590l-1579 0c-25,0 -48,-10 -67,-28 -18,-18 -27,-40 -27,-66l0 -2497c0,-26 9,-47 27,-66 19,-17 42,-26 67,-26l1579 0c26,0 48,9 67,26 19,19 27,40 27,66l0 293c0,26 -8,48 -27,67 -19,18 -41,28 -67,28l-1154 0 0 609 1045 0c27,0 50,10 67,28 18,19 28,41 28,67l0 293c0,26 -10,48 -28,66 -17,19 -40,28 -67,28l-1045 0 0 630 1154 0c26,0 48,9 67,28 19,18 27,41 27,67l0 293c0,26 -8,48 -27,66 -19,18 -41,28 -67,28zm3237 0l-322 0c-26,0 -48,-10 -67,-28 -19,-18 -28,-40 -28,-66l0 -1688 -732 1152c-18,30 -45,44 -80,44 -33,0 -58,-14 -77,-44l-732 -1152 0 1688c0,26 -10,48 -28,66 -18,18 -41,28 -66,28l-325 0c-26,0 -48,-10 -67,-28 -18,-18 -28,-40 -28,-66l0 -2497c0,-26 10,-47 28,-66 19,-17 41,-26 67,-26l347 0c34,0 60,14 79,42l802 1258 805 -1258c18,-28 45,-42 80,-42l344 0c26,0 48,9 67,26 18,19 28,40 28,66l0 2497c0,26 -10,48 -28,66 -19,18 -41,28 -67,28zm1950 42c-194,0 -372,-34 -534,-103 -170,-73 -316,-181 -435,-324 -108,-129 -189,-279 -243,-449 -51,-159 -76,-329 -76,-508 0,-179 25,-348 76,-507 54,-172 135,-322 243,-451 119,-141 265,-249 435,-322 162,-69 340,-104 534,-104 194,0 372,35 534,104 170,73 315,181 435,322 107,129 188,279 243,451 50,159 75,328 75,507 0,179 -25,349 -75,508 -55,170 -136,320 -243,449 -120,143 -265,251 -435,324 -162,69 -340,103 -534,103zm0 -472c256,0 456,-100 596,-300 115,-164 173,-368 173,-612 0,-243 -58,-447 -173,-613 -142,-199 -341,-299 -596,-299 -256,0 -455,100 -597,299 -115,164 -172,369 -172,613 0,245 57,449 172,612 141,200 340,300 597,300z"/>
   <path class="fil1" d="M3491 0l-3032 0c-252,0 -459,207 -459,459l0 5882c0,252 207,459 459,459l3032 0c252,0 459,-207 459,-459l0 -5882c0,-252 -207,-459 -459,-459zm-2001 331l970 0c30,0 55,25 55,56 0,30 -24,55 -55,55l-970 0c-31,0 -56,-25 -56,-55 0,-31 26,-56 56,-56zm-1171 5619l0 -5222 3311 0 0 4752 -747 -1294c224,-342 256,-792 38,-1170 -218,-378 -624,-575 -1032,-552l415 718c138,239 56,545 -183,683 -239,138 -545,55 -683,-183l-414 -718c-224,341 -256,792 -38,1169 218,379 624,575 1032,552l730 1265 -2429 0zm1656 621c-127,0 -230,-103 -230,-230 0,-127 103,-230 230,-230 127,0 230,103 230,230 0,127 -103,230 -230,230z"/>
  </g>
 </g>
</svg>
