<?xml version="1.0" encoding="UTF-8"?>
<!DOCTYPE svg PUBLIC "-//W3C//DTD SVG 1.1//EN" "http://www.w3.org/Graphics/SVG/1.1/DTD/svg11.dtd">
<!-- Creator: CorelDRAW X8 -->
<svg xmlns="http://www.w3.org/2000/svg" xml:space="preserve" width="100%" height="100%" version="1.1" style="shape-rendering:geometricPrecision; text-rendering:geometricPrecision; image-rendering:optimizeQuality; fill-rule:evenodd; clip-rule:evenodd"
viewBox="0 0 228 228"
 xmlns:xlink="http://www.w3.org/1999/xlink">
 <defs>
  <style type="text/css">
   <![CDATA[
    .fil0 {fill:#f6394f}
   ]]>
  </style>
 </defs>
 <g id="Слой_x0020_1">
  <metadata id="CorelCorpID_0Corel-Layer"/>
  <path class="fil0" d="M150 161l3 4 6 5 2 2 -2 2c-1,1 -1,3 -1,4 0,2 0,3 1,4l2 2 20 -20 1 -1 39 39c2,3 4,6 4,9 0,4 -2,7 -4,10 -1,0 -1,0 -2,0 0,0 -1,0 -1,0 -1,-1 -1,-3 0,-3 1,-2 2,-4 2,-7 0,-2 -1,-4 -2,-6l-39 -39 0 0 2 -2 -20 20 39 39c3,3 7,5 11,5 5,0 9,-2 12,-5 3,-3 5,-7 5,-12 0,-4 -2,-8 -5,-11l-39 -39 -2 -2c-1,-1 -2,-1 -4,-1 -1,0 -3,0 -4,1l-2 2 -11 -11c10,-13 16,-29 16,-46 0,-41 -33,-73 -73,-73 -41,0 -73,32 -73,73 0,40 32,73 73,73 17,0 33,-6 46,-16zm-30 31c0,0 0,0 0,0l0 -12c-5,1 -11,2 -16,2 -43,0 -78,-35 -78,-78 0,-43 35,-78 78,-78 43,0 78,35 78,78 0,5 -1,11 -2,16l12 0 16 -6 0 -21 -16 -5 0 0c-1,-5 -2,-10 -4,-14l11 -13 -11 -18 -16 3 0 0c-2,-2 -3,-4 -5,-5 -2,-2 -4,-4 -5,-5l0 0 3 -17 -19 -10 -12 10c-5,-1 -9,-2 -14,-3l0 0 -5 -16 -22 0 -5 16 0 0c-5,1 -10,2 -14,3l-13 -10 -18 10 3 17 0 0c-2,1 -4,3 -5,5 -2,1 -4,3 -5,5l0 0 -17 -3 -10 18 10 13c-1,4 -2,9 -3,14l0 0 -16 5 0 21 16 6 0 0c1,5 2,9 3,14l-10 12 10 19 17 -3 0 0c1,2 3,3 5,5 1,2 3,3 5,5l-3 16 18 11 13 -11c4,2 9,3 14,4l0 0 5 16 22 0 5 -16 0 0 0 0zm-49 -121c0,0 0,-1 -1,-1 -2,-2 -5,-2 -7,1 -6,6 -9,14 -11,23 -2,10 -1,20 3,30 1,2 4,4 7,2 3,-1 4,-4 3,-6 -3,-8 -4,-16 -3,-24 2,-7 5,-13 9,-19 2,-2 2,-4 0,-6zm34 -17c-1,-2 -2,-3 -4,-3 -9,1 -16,3 -24,7 -2,2 -3,5 -2,7 2,3 5,4 8,2 5,-3 12,-5 18,-5 3,0 5,-3 5,-6 0,-1 0,-2 -1,-2zm-1 115c36,0 65,-29 65,-65 0,-36 -29,-66 -65,-66 -36,0 -66,30 -66,66 0,36 30,65 66,65z"/>
 </g>
</svg>
