<?xml version="1.0" encoding="UTF-8"?>
<!DOCTYPE svg PUBLIC "-//W3C//DTD SVG 1.1//EN" "http://www.w3.org/Graphics/SVG/1.1/DTD/svg11.dtd">
<!-- Creator: CorelDRAW X8 -->
<svg xmlns="http://www.w3.org/2000/svg" xml:space="preserve" width="100%" height="100%" version="1.1" style="shape-rendering:geometricPrecision; text-rendering:geometricPrecision; image-rendering:optimizeQuality; fill-rule:evenodd; clip-rule:evenodd"
viewBox="0 0 4469 4469"
 xmlns:xlink="http://www.w3.org/1999/xlink">
 <defs>
  <style type="text/css">
   <![CDATA[
    .fil0 {fill:none}
    .fil1 {fill:#fff;fill-rule:nonzero}
   ]]>
  </style>
 </defs>
 <g id="Слой_x0020_1">
  <metadata id="CorelCorpID_0Corel-Layer"/>
  <rect class="fil0" width="4469" height="4469"/>
  <path class="fil1" d="M2235 4245c836,-330 1354,-1274 1581,-2108 83,-307 127,-597 133,-835 6,-226 -21,-401 -79,-491 -18,-28 -38,-44 -59,-44 -191,0 -537,-48 -871,-154 -244,-78 -483,-188 -656,-335l-4 -3c-47,-35 -48,-36 -92,0 -173,149 -414,260 -660,338 -334,106 -679,154 -870,154 -22,0 -42,15 -60,44 -58,90 -84,264 -78,490 6,239 50,529 133,834 228,835 746,1780 1582,2110zm-701 -1968c-42,-42 -41,-111 2,-152 43,-42 111,-41 152,2l374 382 966 -952c43,-41 111,-41 153,2 42,42 41,110 -2,152l-1044 1028c-42,42 -111,41 -152,-2l-449 -460zm2490 -84c-245,900 -815,1923 -1750,2269l-1 0c-24,9 -50,9 -75,0 -936,-345 -1507,-1369 -1753,-2270 -88,-323 -134,-630 -141,-886 -7,-268 31,-485 113,-612 59,-92 139,-143 241,-143 176,0 495,-44 805,-143 221,-71 435,-168 585,-297l2 -1c178,-145 178,-145 360,-8l5 5 0 0 6 4c149,128 363,226 584,297 310,98 630,143 806,143 101,0 182,51 241,143 81,127 120,345 113,613 -7,257 -53,565 -141,886z"/>
 </g>
</svg>
