<?xml version="1.0" encoding="UTF-8"?>
<!DOCTYPE svg PUBLIC "-//W3C//DTD SVG 1.1//EN" "http://www.w3.org/Graphics/SVG/1.1/DTD/svg11.dtd">
<!-- Creator: CorelDRAW X8 -->
<svg xmlns="http://www.w3.org/2000/svg" xml:space="preserve" width="100%" height="100%" version="1.1" style="shape-rendering:geometricPrecision; text-rendering:geometricPrecision; image-rendering:optimizeQuality; fill-rule:evenodd; clip-rule:evenodd"
viewBox="0 0 21000 21000"
 xmlns:xlink="http://www.w3.org/1999/xlink">
 <defs>
  <style type="text/css">
   <![CDATA[
    .fil0 {fill:none}
    .fil1 {fill:#FEFEFE}
   ]]>
  </style>
 </defs>
 <g id="Слой_x0020_1">
  <metadata id="CorelCorpID_0Corel-Layer"/>
  <rect class="fil0" width="21000" height="21000"/>
  <g id="_2215708650704">
   <g>
    <path class="fil1" d="M19854 1469l-18708 0c-532,0 -968,435 -968,967l0 12902c0,533 436,968 968,968l7419 0c0,277 -144,1465 -721,2580l-892 0 0 250c0,218 178,396 395,396l6306 0c217,0 395,-178 395,-396l0 -250 -892 0c-577,-1115 -721,-2303 -721,-2580l7419 0c532,0 968,-435 968,-968l0 -12902c0,-532 -436,-967 -968,-967zm-5967 17579l0 88c0,129 -105,234 -234,234l-6306 0c-129,0 -234,-105 -234,-234l0 -88 6774 0zm-913 -162l-4949 0c560,-1110 701,-2299 701,-2580l3548 0c0,281 141,1470 700,2580zm7525 -3548c0,356 -289,645 -645,645l-18708 0c-356,0 -645,-289 -645,-645l0 -1774 19998 0 0 1774zm0 -1935l-19998 0 0 -10967c0,-356 289,-645 645,-645l18708 0c356,0 645,289 645,645l0 10967z"/>
    <path class="fil1" d="M19209 2436l-17418 0c-356,0 -645,289 -645,645l0 9032c0,356 289,645 645,645l17418 0c356,0 645,-289 645,-645l0 -9032c0,-356 -289,-645 -645,-645zm484 9677c0,267 -217,484 -484,484l-17418 0c-267,0 -484,-217 -484,-484l0 -9032c0,-266 217,-484 484,-484l17418 0c267,0 484,218 484,484l0 9032z"/>
   </g>
   <g>
   </g>
   <g>
   </g>
   <g>
   </g>
   <g>
   </g>
   <g>
   </g>
   <g>
   </g>
   <g>
   </g>
   <g>
   </g>
   <g>
   </g>
   <g>
   </g>
   <g>
   </g>
   <g>
   </g>
   <g>
   </g>
   <g>
   </g>
   <g>
   </g>
  </g>
 </g>
</svg>
