<?xml version="1.0" encoding="UTF-8"?>
<!DOCTYPE svg PUBLIC "-//W3C//DTD SVG 1.1//EN" "http://www.w3.org/Graphics/SVG/1.1/DTD/svg11.dtd">
<!-- Creator: CorelDRAW X8 -->
<svg xmlns="http://www.w3.org/2000/svg" xml:space="preserve" width="100%" height="100%" version="1.1" style="shape-rendering:geometricPrecision; text-rendering:geometricPrecision; image-rendering:optimizeQuality; fill-rule:evenodd; clip-rule:evenodd"
viewBox="0 0 21000 21000"
 xmlns:xlink="http://www.w3.org/1999/xlink">
 <defs>
  <style type="text/css">
   <![CDATA[
    .fil0 {fill:none}
    .fil1 {fill:#FEFEFE}
   ]]>
  </style>
 </defs>
 <g id="Слой_x0020_1">
  <metadata id="CorelCorpID_0Corel-Layer"/>
  <rect class="fil0" width="21000" height="21000"/>
  <g id="_2215706936624">
   <g>
    <path class="fil1" d="M15725 4295l0 -2939c0,-719 -588,-1307 -1306,-1307l-7838 0c-718,0 -1306,588 -1306,1307l0 1306c-90,0 -164,73 -164,163l0 327c0,90 74,163 164,163l0 980c-90,0 -164,73 -164,163l0 980c0,90 74,163 164,163l0 327c-90,0 -164,73 -164,163l0 980c0,90 74,163 164,163l0 12410c0,719 588,1307 1306,1307l7838 0c719,0 1306,-588 1306,-1307l0 -13716c90,0 164,-74 164,-163l0 -1307c0,-90 -74,-163 -164,-163zm-326 15349c0,541 -440,980 -980,980l-7838 0c-540,0 -980,-439 -980,-980l0 -18288c0,-541 440,-980 980,-980l7838 0c540,0 980,439 980,980l0 18288z"/>
    <circle class="fil1" cx="8785" cy="1437" r="82"/>
    <path class="fil1" d="M9275 1519l2450 0c45,0 81,-37 81,-82 0,-45 -36,-81 -81,-81l-2450 0c-45,0 -81,36 -81,81 0,45 36,82 81,82z"/>
    <path class="fil1" d="M10500 18991c-361,0 -653,293 -653,653 0,361 292,654 653,654 361,0 653,-293 653,-654 0,-360 -292,-653 -653,-653zm0 1143c-270,0 -490,-220 -490,-490 0,-270 220,-490 490,-490 270,0 490,220 490,490 0,270 -220,490 -490,490z"/>
    <path class="fil1" d="M14422 2499l-7844 0c-359,0 -650,291 -650,650l0 14866c0,359 291,650 650,650l7844 0c359,0 650,-291 650,-650l0 -14866c0,-359 -291,-650 -650,-650zm487 15516c0,268 -218,486 -487,486l-7844 0c-269,0 -487,-218 -487,-486l0 -14866c0,-269 218,-487 487,-487l7844 0c269,0 487,218 487,487l0 14866z"/>
   </g>
   <g>
   </g>
   <g>
   </g>
   <g>
   </g>
   <g>
   </g>
   <g>
   </g>
   <g>
   </g>
   <g>
   </g>
   <g>
   </g>
   <g>
   </g>
   <g>
   </g>
   <g>
   </g>
   <g>
   </g>
   <g>
   </g>
   <g>
   </g>
   <g>
   </g>
  </g>
 </g>
</svg>
