<?xml version="1.0" encoding="UTF-8"?>
<!DOCTYPE svg PUBLIC "-//W3C//DTD SVG 1.1//EN" "http://www.w3.org/Graphics/SVG/1.1/DTD/svg11.dtd">
<!-- Creator: CorelDRAW X8 -->
<svg xmlns="http://www.w3.org/2000/svg" xml:space="preserve" width="100%" height="100%" version="1.1" style="shape-rendering:geometricPrecision; text-rendering:geometricPrecision; image-rendering:optimizeQuality; fill-rule:evenodd; clip-rule:evenodd"
viewBox="0 0 4469 4469"
 xmlns:xlink="http://www.w3.org/1999/xlink">
 <defs>
  <style type="text/css">
   <![CDATA[
    .fil0 {fill:none}
    .fil1 {fill:#fff}
   ]]>
  </style>
 </defs>
 <g id="Слой_x0020_1">
  <metadata id="CorelCorpID_0Corel-Layer"/>
  <rect class="fil0" width="4469" height="4469"/>
  <path class="fil1" d="M567 669l275 0 0 276 -275 0 0 -276zm909 1712c59,0 106,48 106,106 0,59 -47,106 -106,106l-1318 0c-58,0 -105,-47 -105,-106l0 -2381c0,-59 47,-106 105,-106l4144 0c58,0 106,47 106,106l0 2381c0,59 -48,106 -106,106l-1763 0c-62,0 -119,20 -159,56 -34,30 -56,74 -57,128l0 4 0 0c0,54 22,92 55,117 42,31 100,46 162,47l7 0 0 0 1291 0c3,0 5,0 8,0l76 -1c192,0 494,32 494,375 0,352 -356,381 -509,381l-48 -1 0 0 -2035 0c-108,0 -194,17 -248,57 -47,35 -73,95 -73,188l0 419c0,59 -47,106 -106,106 -58,0 -105,-47 -105,-106l0 -419c0,-167 56,-282 158,-357 94,-71 222,-100 374,-100l2035 0 0 1 14 0c2,0 6,0 34,0 90,0 298,-13 298,-169 0,-149 -173,-164 -283,-164 -36,0 -45,0 -52,1l-22 0c-3,0 -7,1 -10,1l-1291 0 0 -1 -11 0c-103,-2 -205,-30 -283,-88 -86,-64 -141,-159 -141,-287l0 0 0 -7c2,-118 51,-214 127,-283 79,-70 186,-110 300,-110l1657 0 0 -2169 -3932 0 0 2169 1212 0zm1293 -611l275 0 0 275 -275 0 0 -275zm-1651 0c458,0 917,0 1375,0l0 275c-458,0 -917,0 -1375,0l0 -275zm-551 0l275 0 0 275 -275 0 0 -275zm2202 -550l275 0 0 275 -275 0 0 -275zm-551 0l275 0 0 275 -275 0 0 -275zm-550 0l275 0 0 275 -275 0 0 -275zm-550 0l275 0 0 275 -275 0 0 -275zm-551 0l275 0 0 275 -275 0 0 -275zm2752 0l550 0c0,275 0,550 0,825l-275 0 0 -550 -275 0 0 -275zm0 -551l550 0 0 276 -550 0 0 -276zm-550 0l275 0 0 276 -275 0 0 -276zm-551 0l275 0 0 276 -275 0 0 -276zm-550 0l275 0 0 276 -275 0 0 -276zm-550 0l275 0 0 276 -275 0 0 -276z"/>
 </g>
</svg>
