<?xml version="1.0" encoding="UTF-8"?>
<!DOCTYPE svg PUBLIC "-//W3C//DTD SVG 1.1//EN" "http://www.w3.org/Graphics/SVG/1.1/DTD/svg11.dtd">
<!-- Creator: CorelDRAW X8 -->
<svg xmlns="http://www.w3.org/2000/svg" xml:space="preserve" width="100%" height="100%" version="1.1" style="shape-rendering:geometricPrecision; text-rendering:geometricPrecision; image-rendering:optimizeQuality; fill-rule:evenodd; clip-rule:evenodd"
viewBox="0 0 4469 4469"
 xmlns:xlink="http://www.w3.org/1999/xlink">
 <defs>
  <style type="text/css">
   <![CDATA[
    .fil0 {fill:none}
    .fil1 {fill:#fff;fill-rule:nonzero}
   ]]>
  </style>
 </defs>
 <g id="Слой_x0020_1">
  <metadata id="CorelCorpID_0Corel-Layer"/>
  <rect class="fil0" width="4469" height="4469"/>
  <path class="fil1" d="M3959 1262c0,57 -47,103 -104,103 -57,0 -103,-46 -103,-103l0 -474 -3065 0 0 2212 3064 0 0 -995c0,-57 46,-103 103,-103 57,0 103,46 103,103l0 1065 485 645c17,19 27,43 27,69 0,57 -46,103 -103,103l-4263 0 0 0c-21,0 -41,-6 -59,-19 -47,-32 -58,-96 -25,-143l462 -654 0 -2386c0,-57 46,-103 103,-103l3271 0c57,0 104,46 104,103l0 577zm-2436 350l268 0 0 268 -268 0 0 -268zm-536 0l268 0 0 268 -268 0 0 -268zm536 -537l268 0 0 269 -268 0 0 -269zm-536 0l268 0 0 269 -268 0 0 -269zm2816 2132l-3166 0 -335 474 1071 0 114 -100c19,-20 45,-32 74,-32l1346 0 0 1c24,0 49,8 68,25l121 106 1064 0 -357 -474z"/>
 </g>
</svg>
