<?xml version="1.0" encoding="UTF-8"?>
<!DOCTYPE svg PUBLIC "-//W3C//DTD SVG 1.1//EN" "http://www.w3.org/Graphics/SVG/1.1/DTD/svg11.dtd">
<!-- Creator: CorelDRAW X8 -->
<svg xmlns="http://www.w3.org/2000/svg" xml:space="preserve" width="100%" height="100%" version="1.1" style="shape-rendering:geometricPrecision; text-rendering:geometricPrecision; image-rendering:optimizeQuality; fill-rule:evenodd; clip-rule:evenodd"
viewBox="0 0 4469 4469"
 xmlns:xlink="http://www.w3.org/1999/xlink">
 <defs>
  <style type="text/css">
   <![CDATA[
    .fil0 {fill:none}
    .fil1 {fill:#fff}
   ]]>
  </style>
 </defs>
 <g id="Слой_x0020_1">
  <metadata id="CorelCorpID_0Corel-Layer"/>
  <rect class="fil0" width="4469" height="4469"/>
  <path class="fil1" d="M2168 3978l-62 -251 188 -377c15,-31 14,-69 -5,-99 -19,-31 -52,-49 -87,-49l-443 0 1 -1573 185 -651c5,-18 4,-37 -2,-55l-187 -563c-12,-38 -48,-64 -89,-64l-469 -1c-25,0 -49,11 -66,28 -10,10 -18,22 -23,37l-188 562c-6,18 -6,37 -1,55l184 651 -1 1574 -439 0c-27,0 -53,11 -72,30 -6,6 -11,12 -15,19 -19,30 -20,68 -4,99l188 377 -62 251 -601 0c-54,0 -98,44 -98,98 0,54 44,97 98,97l812 0 0 -195 59 -239c6,-23 3,-48 -8,-70l-131 -262 347 0c0,0 0,0 0,0l512 0c0,0 1,0 1,0l346 0 -131 262c-11,22 -13,47 -8,70l60 239 0 195 1087 0 0 -195 0 0 1 -1869c0,-25 -11,-49 -28,-66 -8,-9 -18,-15 -29,-20 -307,-135 -506,-439 -506,-774 1,-285 144,-547 376,-702l0 780c-1,51 41,93 93,94l751 0c51,0 93,-42 93,-94l1 -779c232,155 375,417 375,702 -1,336 -200,639 -507,774 -35,14 -57,48 -57,85l0 1967 0 0 0 97 764 0c54,0 98,-43 98,-97 0,-54 -44,-98 -98,-98l-577 0 1 -1809c344,-175 563,-529 563,-919 1,-410 -242,-782 -618,-946 -29,-13 -62,-10 -89,7 -26,18 -42,47 -42,79l-1 843 -563 0 1 -844c0,-31 -16,-61 -43,-78 -26,-18 -59,-20 -88,-8 -377,164 -620,535 -620,946 0,389 218,743 562,919l0 1810 -689 0zm-596 -776l-282 0 1 -1587c0,-8 -1,-17 -3,-25l-180 -636 158 -471 334 0 156 472 -180 635c-2,8 -3,17 -3,26l-1 1586z"/>
 </g>
</svg>
