<?xml version="1.0" encoding="UTF-8"?>
<!DOCTYPE svg PUBLIC "-//W3C//DTD SVG 1.1//EN" "http://www.w3.org/Graphics/SVG/1.1/DTD/svg11.dtd">
<!-- Creator: CorelDRAW X8 -->
<svg xmlns="http://www.w3.org/2000/svg" xml:space="preserve" width="100%" height="100%" version="1.1" style="shape-rendering:geometricPrecision; text-rendering:geometricPrecision; image-rendering:optimizeQuality; fill-rule:evenodd; clip-rule:evenodd"
viewBox="0 0 2942 2942"
 xmlns:xlink="http://www.w3.org/1999/xlink">
 <defs>
  <style type="text/css">
   <![CDATA[
    .fil0 {fill:#FEFEFE}
   ]]>
  </style>
 </defs>
 <g id="Слой_x0020_1">
  <metadata id="CorelCorpID_0Corel-Layer"/>
  <path class="fil0" d="M91 2637l214 214c139,139 405,116 592,-51l472 -422c6,-5 11,-11 16,-18l499 -742 277 -121c24,-10 43,-31 51,-55 8,-24 4,-47 -10,-62l-198 -197 461 -461 311 -174c9,-5 16,-12 20,-21l141 -280c9,-19 5,-42 -10,-57l-175 -175c-9,-10 -22,-15 -35,-15 -7,0 -15,2 -22,5l-280 140c-9,5 -16,12 -21,20l-175 312 -460 461 70 70 465 -466c4,-3 6,-6 9,-10l170 -305 234 -117 125 124 -117 235 -305 170c-4,2 -7,5 -11,8l-465 466 55 54 -427 -426c-11,-12 -28,-17 -46,-14 -5,0 -10,1 -16,3 -24,9 -44,28 -54,51l-122 278 -753 509c-7,4 -13,9 -18,15l-412 463c-167,187 -189,452 -50,591zm178 -553l589 589 424 -379 508 -756c10,-15 25,-27 41,-34l193 -84 -144 -144c0,0 0,0 0,0l-213 -213c0,0 0,0 0,-1l-144 -144 -85 193c-7,17 -19,31 -34,41l-766 518 -369 414zm489 669l-569 -569c-71,120 -70,264 11,345l214 213c81,81 224,82 344,11zm500 -1159c25,-25 65,-25 90,0 24,25 24,65 0,90l-446 446c-25,24 -65,24 -90,0 -25,-25 -25,-65 0,-90l446 -446z"/>
 </g>
</svg>
