<?xml version="1.0" encoding="UTF-8"?>
<!DOCTYPE svg PUBLIC "-//W3C//DTD SVG 1.1//EN" "http://www.w3.org/Graphics/SVG/1.1/DTD/svg11.dtd">
<!-- Creator: CorelDRAW X8 -->
<svg xmlns="http://www.w3.org/2000/svg" xml:space="preserve" width="100%" height="100%" version="1.1" style="shape-rendering:geometricPrecision; text-rendering:geometricPrecision; image-rendering:optimizeQuality; fill-rule:evenodd; clip-rule:evenodd"
viewBox="0 0 12284 2256"
 xmlns:xlink="http://www.w3.org/1999/xlink">
 <defs>
  <style type="text/css">
   <![CDATA[
    .fil0 {fill:#FEFEFE}
   ]]>
  </style>
 </defs>
 <g id="Слой_x0020_1">
  <metadata id="CorelCorpID_0Corel-Layer"/>
  <path class="fil0" d="M7333 2214l656 0 2 -2165 -660 -3c-11,102 -2,1400 -2,1622 0,116 -15,455 4,546zm-7326 -2168c-14,164 -2,378 -2,548 0,196 -11,1549 4,1620l651 0c26,-86 -5,-397 8,-516 150,-16 305,6 465,-18 373,-54 691,-264 760,-681 46,-284 -6,-546 -194,-743 -114,-120 -323,-196 -499,-225 -382,-63 -810,-15 -1193,15zm661 368l-1 890c359,17 579,-97 586,-452 8,-399 -281,-447 -585,-438zm3982 1798l661 2c15,-71 4,-1424 4,-1620 0,-160 14,-397 -2,-548l-662 0 -1 2166zm1149 0l1193 2 104 -437 -633 -1 1 -1730 -664 0 -1 2166zm6485 -560l0 -232c-20,-38 -30,-101 -50,-143 -62,-127 -160,-207 -291,-277 -174,-93 -372,-130 -541,-216 -248,-126 -194,-335 100,-353 113,-8 236,7 345,25 116,19 197,55 295,79 -3,-65 -41,-434 -58,-467 -62,-65 -644,-65 -763,-65 -46,4 -267,18 -466,145 -317,202 -334,618 -177,844 195,281 513,298 777,431 234,118 178,288 75,348 -177,104 -572,23 -779,-36 -81,-23 -153,-61 -229,-81l73 496c174,47 311,88 506,100 378,25 910,-8 1107,-374 64,-119 56,-180 76,-224zm-10130 559l659 3 4 -852 686 0c10,152 -13,786 7,852l651 0c15,-70 5,-1426 5,-1620 0,-155 15,-405 -3,-548l-655 0 -5 859 -684 2 -3 -861 -661 0 -1 2165zm6334 -2165c-13,164 -2,378 -2,548 0,196 -10,1549 5,1620l651 0c26,-86 -5,-397 8,-516 150,-16 304,6 465,-18 373,-54 691,-264 760,-681 46,-284 -6,-546 -194,-743 -114,-120 -323,-196 -499,-225 -382,-63 -810,-15 -1194,15zm662 368l-1 890c359,17 578,-97 586,-452 7,-399 -281,-447 -585,-438z"/>
 </g>
</svg>
