<?xml version="1.0" encoding="UTF-8"?>
<!DOCTYPE svg PUBLIC "-//W3C//DTD SVG 1.1//EN" "http://www.w3.org/Graphics/SVG/1.1/DTD/svg11.dtd">
<!-- Creator: CorelDRAW X8 -->
<svg xmlns="http://www.w3.org/2000/svg" xml:space="preserve" width="100%" height="100%" version="1.1" style="shape-rendering:geometricPrecision; text-rendering:geometricPrecision; image-rendering:optimizeQuality; fill-rule:evenodd; clip-rule:evenodd"
viewBox="0 0 21000 21921"
 xmlns:xlink="http://www.w3.org/1999/xlink">
 <defs>
  <style type="text/css">
   <![CDATA[
    .str0 {stroke:#373435;stroke-width:20}
    .fil2 {fill:none}
    .fil0 {fill:url(#id3)}
    .fil1 {fill:url(#id4)}
   ]]>
  </style>
   <clipPath id="id0">
    <path d="M0 0l21000 0 0 21921 -21000 0 0 -21921z"/>
   </clipPath>
    <clipPath id="id1">
     <path d="M0 21921l21000 -13080 0 13080 -21000 0z"/>
    </clipPath>
    <clipPath id="id2">
     <path d="M0 0l21000 0 0 21921 -21000 0 0 -21921z"/>
    </clipPath>
  <linearGradient id="id3" gradientUnits="userSpaceOnUse" x1="-736.698" y1="11653.9" x2="16866.9" y2="17509.9">
   <stop offset="0" style="stop-opacity:1; stop-color:#FEA500"/>
   <stop offset="1" style="stop-opacity:1; stop-color:#FCBA02"/>
  </linearGradient>
  <radialGradient id="id4" gradientUnits="userSpaceOnUse" gradientTransform="matrix(-0.821613 1.40047 -1.32775 -0.778952 69066 26016)" cx="17318" cy="28258" r="11335.4" fx="17318" fy="28258">
   <stop offset="0" style="stop-opacity:1; stop-color:#58295D"/>
   <stop offset="1" style="stop-opacity:1; stop-color:#1E1122"/>
  </radialGradient>
 </defs>
 <g id="Слой_x0020_1">
  <metadata id="CorelCorpID_0Corel-Layer"/>
  <polygon class="fil0" points="0,0 21000,0 21000,21921 0,21921 "/>
  <g style="clip-path:url(#id0)">
   <g id="_2358519703536">
    <polygon id="1" class="fil1" points="0,21921 21942,8254 31487,23578 9545,37245 "/>
   </g>
   <g style="clip-path:url(#id1)">
    <g>
     <ellipse class="fil2 str0" cx="4326" cy="14547" rx="265" ry="123"/>
    </g>
   </g>
   <g style="clip-path:url(#id2)">
    <polygon class="fil2" points="0,21921 21942,8254 31487,23578 9545,37245 "/>
   </g>
  </g>
  <polygon class="fil2" points="0,0 21000,0 21000,21921 0,21921 "/>
 </g>
</svg>
