<?xml version="1.0" encoding="UTF-8"?>
<!DOCTYPE svg PUBLIC "-//W3C//DTD SVG 1.1//EN" "http://www.w3.org/Graphics/SVG/1.1/DTD/svg11.dtd">
<!-- Creator: CorelDRAW X8 -->
<svg xmlns="http://www.w3.org/2000/svg" xml:space="preserve" width="100%" height="100%" version="1.1" style="shape-rendering:geometricPrecision; text-rendering:geometricPrecision; image-rendering:optimizeQuality; fill-rule:evenodd; clip-rule:evenodd"
viewBox="0 0 5126 3596"
 xmlns:xlink="http://www.w3.org/1999/xlink">
 <defs>
  <style type="text/css">
   <![CDATA[
    .fil16 {fill:#FEFEFE}
    .fil13 {fill:#007DBD}
    .fil12 {fill:#04A6D5}
    .fil11 {fill:#211760}
    .fil10 {fill:#363198}
    .fil9 {fill:#670482}
    .fil15 {fill:#7DA60A}
    .fil8 {fill:#9A25B1}
    .fil5 {fill:#A52534}
    .fil14 {fill:#AAD526}
    .fil7 {fill:#B90080}
    .fil3 {fill:#CE4A00}
    .fil4 {fill:#DD1931}
    .fil6 {fill:#E22F8D}
    .fil1 {fill:#E88100}
    .fil2 {fill:#ED5E02}
    .fil0 {fill:#FAB800}
    .fil17 {fill:#FEFEFE;fill-rule:nonzero}
   ]]>
  </style>
 </defs>
 <g id="Слой_x0020_1">
  <metadata id="CorelCorpID_0Corel-Layer"/>
  <path class="fil0" d="M1638 1280c0,0 0,1 0,1 -11,51 -17,104 -18,158 -5,175 38,340 117,482 0,0 0,0 0,0 0,0 328,-608 585,-766 -457,8 -684,125 -684,125z"/>
  <path class="fil1" d="M1980 1528c106,-151 230,-305 342,-373 -100,2 -189,9 -267,19 -50,85 -78,185 -78,291 0,21 1,42 3,63z"/>
  <path class="fil2" d="M2042 682c0,0 0,0 0,0 -44,29 -86,61 -125,98 -128,119 -215,266 -261,423 0,0 0,0 0,0 0,0 663,-194 956,-123 -327,-319 -570,-398 -570,-398z"/>
  <path class="fil3" d="M2106 1099c182,-31 379,-50 506,-19 -72,-69 -139,-128 -201,-176 -122,31 -228,101 -305,195z"/>
  <path class="fil4" d="M2741 547c0,0 0,0 0,0 -51,-11 -104,-17 -158,-19 -175,-5 -340,38 -482,117 0,0 0,0 -1,0 0,0 608,329 766,586 -8,-457 -125,-684 -125,-684z"/>
  <path class="fil5" d="M2493 889c152,106 304,230 373,342 -2,-100 -9,-189 -18,-267 -86,-50 -186,-78 -292,-78 -21,0 -42,1 -63,3z"/>
  <path class="fil6" d="M3338 950c0,0 0,0 0,0 -28,-44 -61,-85 -98,-125 -119,-128 -266,-215 -423,-260 0,-1 0,-1 0,-1 0,0 194,663 123,956 319,-327 398,-570 398,-570z"/>
  <path class="fil7" d="M2921 1015c31,182 50,378 19,505 70,-71 128,-138 176,-200 -31,-122 -101,-228 -195,-305z"/>
  <path class="fil8" d="M3472 1658c0,0 0,0 0,0 11,-51 17,-104 20,-158 6,-175 -35,-340 -113,-483 0,0 0,0 0,0 0,0 -334,604 -592,760 457,-4 685,-119 685,-119z"/>
  <path class="fil9" d="M3132 1407c-107,151 -233,302 -345,370 99,-1 188,-7 266,-16 52,-87 82,-188 82,-296 0,-20 -1,-39 -3,-58z"/>
  <path class="fil10" d="M3073 2245c0,0 0,0 0,0 44,-29 85,-62 125,-99 127,-120 214,-267 259,-423 0,0 0,0 0,0 0,0 -662,196 -956,126 329,318 572,396 572,396z"/>
  <path class="fil11" d="M3007 1828c-182,32 -378,51 -506,21 72,70 140,128 202,176 121,-32 227,-102 304,-197z"/>
  <path class="fil12" d="M2369 2382c0,0 0,0 0,0 51,10 104,17 158,19 175,5 340,-37 482,-116 1,0 1,0 1,0 0,0 -607,-330 -765,-587 7,457 124,684 124,684z"/>
  <path class="fil13" d="M2618 2041c-152,-106 -304,-232 -373,-343 2,100 9,189 18,267 86,50 186,79 293,79 21,0 41,-1 62,-3z"/>
  <path class="fil14" d="M1779 1987c0,0 0,0 0,0 29,44 62,85 100,124 120,127 268,212 425,256 0,0 0,0 0,0 0,0 -201,-660 -133,-954 -316,330 -392,574 -392,574z"/>
  <path class="fil15" d="M2196 1918c-34,-181 -55,-378 -25,-505 -69,72 -127,140 -174,203 32,121 103,226 199,302z"/>
  <path class="fil16" d="M839 100l1551 0 12 0c31,-60 94,-100 166,-100 63,0 119,31 153,79l-59 0 -63 0 -32 55 -31 55 32 55 31 55 64 -1 58 0c-34,48 -90,79 -153,79 -72,0 -135,-40 -166,-100l-12 0 -1409 0c-126,0 -229,103 -229,228l0 1919c0,125 103,228 229,228l1136 0 114 0 37 0 25 0c23,0 42,19 42,42l0 93c0,23 -19,42 -42,42l-25 0 -37 0 -114 0 -1278 0c-145,0 -263,-119 -263,-263l0 -2203c0,-144 118,-263 263,-263zm1587 2552l0 0 240 -64 65 64 1400 0c126,0 229,-103 229,-228l0 -1919c0,-125 -103,-228 -229,-228l-1225 0 -62 0 -25 0c-23,0 -42,-19 -42,-42l0 -93c0,-23 19,-42 42,-42l25 0 62 0 1367 0c144,0 263,119 263,263l0 2203c0,144 -119,263 -263,263l-1542 0 -65 64 -240 -64 0 0 0 0 0 -177 0 0z"/>
  <path class="fil17" d="M102 3400l0 171 -102 0 0 -434 190 0c36,0 64,5 85,13 21,8 39,23 53,45 14,22 21,46 21,73 0,52 -25,89 -76,112l80 191 -111 0 -67 -171 -73 0zm0 -185l0 111 62 0c21,0 36,-2 45,-5 9,-2 17,-9 24,-18 8,-10 11,-22 11,-34 0,-12 -3,-23 -11,-33 -7,-9 -15,-15 -23,-17 -9,-3 -25,-4 -48,-4l-60 0zm634 5l-206 0 0 89 162 0 0 81 -162 0 0 95 206 0 0 86 -309 0 0 -434 309 0 0 83zm164 190l0 161 -103 0 0 -434 171 0c38,0 67,5 87,13 20,8 38,22 54,43 16,21 24,47 24,77 0,22 -4,42 -13,63 -8,20 -20,36 -36,48 -15,11 -30,19 -44,23 -15,4 -38,6 -68,6l-72 0zm-3 -79l66 0c25,0 43,-6 53,-17 10,-12 15,-25 15,-41 0,-17 -6,-31 -17,-41 -11,-11 -29,-16 -51,-16l-66 0 0 115zm479 -194l135 434 -109 0 -27 -90 -139 0 -28 90 -88 0 138 -434 118 0zm-116 264l92 0 -46 -152 -46 152zm399 -264l0 434 -101 0 0 -434 101 0zm189 263l0 171 -102 0 0 -434 190 0c35,0 64,5 85,13 21,8 39,23 53,45 14,22 21,46 21,73 0,52 -25,89 -76,112l80 191 -112 0 -66 -171 -73 0zm0 -185l0 111 62 0c21,0 35,-2 45,-5 9,-2 17,-9 24,-18 8,-10 11,-22 11,-34 0,-12 -3,-23 -11,-33 -7,-9 -15,-15 -23,-17 -9,-3 -25,-4 -48,-4l-60 0zm289 156l151 0 0 69 -151 0 0 -69z"/>
  <path class="fil17" d="M1160 776c-50,11 -104,-3 -110,-29 -6,-26 39,-52 89,-64 50,-11 102,-7 108,20 6,26 -37,61 -87,73zm-62 -126c-14,-15 -13,-39 2,-53 16,-15 40,-14 54,2 14,15 13,39 -2,53 -16,15 -40,14 -54,-2zm-78 72c-5,-5 -5,-14 1,-19 5,-6 14,-5 19,0 6,6 5,15 0,20 -6,5 -15,5 -20,-1zm-22 -32c-26,-8 -35,-63 -20,-112 15,-49 54,-89 80,-81 26,8 26,60 11,110 -16,49 -45,91 -71,83zm96 -205c7,-1 15,4 17,11 1,8 -4,15 -11,17 -8,1 -15,-3 -17,-11 -1,-7 3,-15 11,-17zm146 35c35,37 50,91 30,109 -20,18 -65,-7 -100,-45 -35,-38 -57,-85 -37,-103 20,-19 72,1 107,39zm13 130c7,3 11,11 9,18 -2,7 -10,11 -17,9 -8,-2 -12,-10 -10,-17 3,-8 10,-12 18,-10zm-8 104c4,-4 13,-2 19,5 2,-3 4,-5 6,-7 -6,-6 -9,-14 -6,-18 4,-5 12,-4 19,2 2,-3 4,-6 5,-8 -7,-5 -11,-12 -8,-17 3,-5 11,-5 18,-1 2,-3 3,-6 4,-9 -7,-3 -12,-10 -10,-15 2,-5 9,-6 17,-4 1,-3 2,-6 3,-9 -8,-2 -13,-8 -12,-13 1,-5 8,-8 16,-7 1,-3 1,-6 1,-10 -8,-1 -14,-5 -13,-10 0,-5 6,-9 14,-10 0,-3 0,-6 0,-9 -8,0 -14,-4 -15,-9 0,-5 5,-10 13,-11 -1,-4 -1,-7 -2,-10 -8,1 -14,-1 -16,-6 -1,-5 3,-10 11,-13 -1,-3 -2,-6 -4,-9 -7,2 -14,1 -16,-4 -2,-5 2,-11 8,-15 -1,-3 -3,-5 -4,-8 -7,3 -14,3 -17,-1 -3,-4 0,-11 6,-16 -2,-3 -4,-5 -6,-8 -6,5 -13,5 -16,2 -4,-4 -2,-11 3,-17 -3,-2 -5,-4 -7,-6 -6,5 -12,7 -16,4 -4,-3 -4,-11 0,-17 -2,-2 -5,-4 -8,-6 -4,6 -11,9 -15,7 -4,-3 -5,-10 -2,-17 -3,-1 -6,-3 -9,-4 -3,7 -9,11 -14,9 -4,-2 -6,-9 -4,-16 -3,-1 -7,-2 -10,-3 -2,7 -7,12 -12,11 -5,-1 -8,-8 -7,-16 -3,0 -7,-1 -10,-1 -1,8 -5,13 -10,13 -6,0 -10,-6 -10,-14 -3,-1 -6,0 -10,0 1,8 -3,14 -8,15 -5,0 -10,-6 -12,-14 -3,1 -6,1 -9,2 1,8 -1,15 -6,17 -5,1 -11,-4 -14,-12 -3,1 -6,2 -9,3 3,8 2,15 -3,18 -5,2 -12,-2 -16,-10 -3,1 -6,3 -8,4 4,8 4,16 0,19 -5,3 -13,-1 -18,-8 -2,2 -5,4 -8,6 6,6 8,15 4,18 -5,4 -13,2 -19,-5 -2,2 -5,5 -7,7 7,6 10,14 7,18 -4,5 -13,4 -20,-2l0 0c-2,2 -4,5 -6,8l0 0c8,4 13,12 10,17 -3,5 -12,5 -20,1 0,0 0,-1 0,-1 -2,3 -3,6 -5,9 0,0 1,0 1,0 8,3 14,10 12,16 -2,5 -11,7 -19,3 -1,0 -1,0 -2,0 -1,3 -2,6 -3,9 1,1 1,1 2,1 9,1 15,7 14,13 -1,6 -9,9 -18,7 -1,0 -2,0 -2,-1 -1,4 -1,7 -2,10 1,0 1,0 2,0 9,1 16,6 16,11 0,6 -8,10 -17,10 -1,0 -1,0 -2,0 0,3 0,6 0,10 1,0 1,0 2,0 9,-1 17,2 18,8 0,5 -7,11 -16,12 0,0 -1,0 -2,0 0,4 1,7 2,10 0,0 1,0 2,0 9,-3 17,0 18,5 2,5 -4,12 -13,14 -1,1 -1,1 -2,1 1,3 2,6 3,10 1,-1 1,-1 2,-1 9,-4 17,-3 20,2 2,5 -3,12 -11,16 -1,1 -2,1 -3,1 2,3 3,6 5,9 1,0 1,-1 2,-1 8,-5 16,-5 20,-1 3,5 -1,13 -9,18 0,1 -1,1 -2,1 2,3 4,6 6,9 1,-1 1,-1 2,-2 7,-6 15,-8 19,-4 4,4 2,13 -5,19 -1,1 -1,1 -2,2 2,2 5,5 7,7 1,-1 1,-1 2,-2 5,-7 14,-10 18,-7 5,4 4,12 -2,20 -1,0 -1,1 -2,2 3,2 6,4 9,6 0,-1 0,-2 1,-3 4,-8 12,-12 17,-9 5,3 5,12 1,19 -1,1 -1,2 -2,3 3,1 6,3 9,4 1,0 1,-1 1,-2 3,-9 10,-14 16,-12 5,2 7,11 3,19 0,1 0,2 -1,3 4,1 7,2 10,2 0,0 0,-1 1,-2 1,-9 7,-15 13,-14 5,1 8,9 7,18 0,1 -1,2 -1,2 3,1 7,1 10,2 0,-1 0,-1 0,-2 1,-9 6,-16 11,-16 6,0 10,8 10,17 0,0 0,1 0,2 3,0 6,0 10,-1 0,0 0,-1 -1,-1 -1,-9 3,-17 9,-18 5,0 11,6 12,15 0,1 0,2 0,2 3,-1 7,-1 10,-2 0,0 0,-1 -1,-1 -2,-9 0,-17 6,-19 5,-1 12,5 14,14 0,0 0,0 0,1 4,-1 7,-3 10,-4 0,0 0,0 -1,0 -3,-9 -2,-17 3,-20 5,-2 12,3 16,11 0,0 0,1 0,1 3,-2 6,-3 9,-5l0 0c-5,-8 -6,-17 -1,-20 5,-3 13,1 18,8l0 1c3,-2 5,-4 8,-6 -6,-7 -8,-16 -4,-19z"/>
  <path class="fil17" d="M1385 517c4,-3 10,-3 14,1l16 17c3,4 3,10 -1,13l-2 3c-4,3 -10,3 -14,-1l-16 -17c-3,-4 -3,-10 1,-14l2 -2zm92 -34l4 0c5,1 9,5 9,10l-1 24c0,5 -5,9 -10,9l-3 0c-6,0 -10,-5 -10,-10l1 -24c1,-5 5,-9 10,-9zm55 78c30,33 28,83 -4,113 -33,30 -83,28 -113,-5 -30,-32 -28,-83 4,-112 33,-30 83,-28 113,4zm24 -37c4,-4 10,-3 14,1l2 2c3,4 3,10 -1,13l-17 16c-4,4 -10,4 -13,0l-3 -3c-3,-3 -3,-10 1,-13l17 -16zm17 84l24 1c5,0 9,5 9,10l0 3c-1,6 -5,10 -10,9l-24 -1c-5,0 -9,-4 -9,-9l0 -4c0,-5 5,-9 10,-9zm-8 90c3,4 3,10 -1,13l-2 3c-4,3 -10,3 -14,-1l-15 -17c-4,-4 -4,-10 0,-14l3 -2c3,-3 9,-3 13,1l16 17zm-95 49l-3 0c-6,0 -10,-4 -10,-10l1 -23c1,-5 5,-9 10,-9l4 0c5,0 9,5 9,10l-1 23c0,5 -5,10 -10,9zm-79 -40c-4,3 -10,3 -13,-1l-3 -2c-3,-4 -3,-10 1,-14l17 -16c4,-3 10,-3 14,1l2 2c3,4 3,10 -1,14l-17 16zm-17 -85l-23 0c-6,-1 -10,-5 -9,-10l0 -4c0,-5 4,-9 10,-9l23 1c5,0 9,5 9,10l0 3c0,6 -5,10 -10,9zm7 -117l-14 -5 4 14c2,6 -3,11 -8,10l-16 -3 8 14c2,5 -1,11 -7,11l-16 0 10 12c3,5 1,11 -5,12l-15 3 12 10c4,4 3,11 -3,13l-14 6 13 8c5,3 5,10 0,13l-13 8 15 5c5,2 6,9 2,13l-12 10 16 3c5,1 8,7 5,12l-10 12 16 0c5,0 9,6 7,11l-7 14 15 -3c5,-1 10,4 9,9l-5 15 15 -6c5,-2 11,2 10,8l-1 16 13 -9c4,-3 11,0 11,6l2 15 11 -10c4,-4 11,-2 12,3l5 15 9 -12c3,-5 10,-4 13,1l7 14 6 -14c3,-6 10,-6 13,-2l9 13 4 -15c2,-6 9,-8 13,-4l11 11 1 -16c1,-5 7,-9 12,-6l13 9 -1 -16c-1,-5 5,-10 10,-8l14 6 -4 -15c-2,-5 3,-11 9,-10l15 3 -7 -13c-3,-5 1,-11 6,-11l16 0 -10 -13c-3,-4 -1,-11 5,-12l15 -2 -11 -11c-5,-4 -3,-11 2,-13l14 -5 -13 -8c-5,-3 -5,-10 0,-13l13 -8 -14 -5c-6,-2 -7,-9 -3,-13l12 -11 -16 -2c-5,-1 -8,-8 -4,-12l9 -13 -15 1c-6,0 -10,-6 -7,-11l7 -14 -16 3c-5,1 -10,-4 -8,-10l4 -15 -14 6c-6,2 -11,-2 -11,-8l2 -15 -13 8c-5,4 -12,0 -12,-5l-1 -16 -12 11c-4,4 -11,2 -12,-4l-4 -15 -9 13c-4,5 -11,4 -13,-1l-7 -14 -7 14c-2,5 -9,6 -13,1l-9 -12 -4 15c-2,5 -8,7 -13,3l-11 -10 -1 15c-1,6 -7,9 -12,6l-13 -8 2 15c0,6 -5,10 -11,8z"/>
  <path class="fil17" d="M1095 961c-1,0 -3,-1 -5,-2 -5,-2 -10,-5 -15,-9 4,-2 7,-5 11,-8 6,4 12,7 19,9 -3,4 -6,7 -10,10zm-26 14c-1,-1 -2,-2 -4,-3 -4,-5 -7,-10 -10,-14 4,-1 8,-2 13,-4 4,6 9,11 14,16 -4,2 -8,4 -13,5zm-30 4c-3,-8 -5,-15 -7,-22 5,1 9,1 14,1 1,7 4,14 7,21 -5,0 -10,0 -14,0zm-29 -9c0,-8 1,-15 3,-23 3,3 7,5 12,7 -2,7 -2,14 -2,22 -4,-2 -9,-4 -13,-6zm-24 -19c3,-7 7,-14 11,-20 3,4 5,7 9,10 -4,7 -7,13 -10,20 -3,-3 -7,-7 -10,-10zm27 -85c20,-18 51,-17 69,3 18,19 17,50 -3,68 -20,19 -51,17 -69,-2 -18,-20 -17,-51 3,-69zm-35 72c-3,-5 -5,-9 -6,-13 6,-6 12,-11 18,-15 1,5 2,9 4,13 -6,5 -12,9 -16,15zm-9 -30c-1,-4 -1,-9 0,-14 7,-3 15,-5 22,-6 -1,4 -2,9 -2,13 -7,2 -14,4 -20,7zm3 -29c1,-5 3,-9 5,-13 8,0 16,0 23,2 -2,4 -5,8 -6,12 -8,-1 -15,-2 -22,-1zm15 -27c3,-4 6,-7 10,-10 7,3 14,7 20,11 -4,2 -8,5 -11,8 -6,-4 -12,-7 -19,-9zm36 -24c5,5 10,11 14,18 -4,0 -9,2 -13,3 -4,-6 -9,-11 -14,-16 4,-2 8,-4 13,-5zm30 -3c3,7 5,14 7,22 -5,-1 -9,-2 -14,-2 -2,-7 -4,-14 -7,-20 5,-1 9,-1 14,0zm29 8c0,8 -1,15 -3,23 -3,-3 -7,-5 -12,-7 2,-7 2,-14 2,-21 4,1 8,3 13,5zm24 19c-3,8 -7,14 -12,20 -2,-3 -5,-7 -8,-10 4,-6 7,-13 10,-20 3,3 7,7 10,10zm8 13c3,5 4,9 6,13 -6,6 -12,11 -18,15 -1,-5 -2,-9 -4,-13 6,-4 11,-9 16,-15zm9 30c0,4 0,9 0,14 -7,3 -14,5 -22,6 1,-4 2,-9 2,-13 7,-2 13,-4 20,-7zm-3 29c-1,5 -3,9 -5,13 -8,0 -16,-1 -23,-2 2,-4 5,-8 6,-12 8,1 15,2 22,1zm-18 45l9 3 -3 -9c-1,-3 2,-7 6,-6l9 2 -5 -8c-1,-4 1,-7 5,-7l9 0 -6 -8c-2,-2 0,-6 3,-7l9 -2 -7 -6c-2,-2 -2,-7 2,-8l9 -3 -9 -5c-3,-2 -3,-6 0,-8l8 -5 -8 -3c-4,-1 -5,-6 -2,-8l7 -6 -9 -2c-4,0 -5,-4 -3,-7l6 -8 -10 0c-3,1 -6,-3 -4,-6l4 -9 -9 2c-4,1 -6,-2 -5,-6l2 -9 -9 4c-3,1 -6,-1 -6,-5l1 -9 -8 5c-3,2 -7,0 -7,-4l-1 -9 -7 6c-2,3 -7,2 -7,-2l-3 -9 -6 8c-2,3 -6,2 -7,-1l-5 -8 -4 8c-1,3 -5,4 -8,1l-5 -8 -3 10c-1,3 -5,4 -7,2l-7 -7 -1 10c0,3 -4,5 -7,3l-8 -5 1 10c0,3 -3,6 -6,5l-9 -4 3 9c1,3 -2,7 -6,6l-9 -2 4 9c2,3 0,6 -4,6l-9 0 6 8c2,2 0,7 -3,7l-10 2 8 6c2,2 1,7 -2,8l-9 3 8 5c3,2 4,6 1,8l-9 5 9 3c4,1 4,6 2,8l-7 6 9 2c4,0 5,5 3,7l-6 8 10 0c3,0 6,3 4,6l-4 9 9 -2c3,-1 6,2 5,6l-2 9 8 -4c4,-1 7,2 7,5l-1 9 8 -5c3,-2 7,0 7,4l1 9 7 -6c2,-3 6,-2 7,2l3 9 5 -8c2,-3 7,-2 8,1l4 9 5 -9c1,-3 5,-4 7,-1l6 8 3 -9c0,-4 5,-5 7,-3l7 7 1 -10c0,-3 4,-5 7,-3l8 5 -1 -10c-1,-3 3,-6 6,-4z"/>
  <path class="fil17" d="M1214 872c0,0 -1,1 -1,1l-36 -25c1,-2 3,-4 5,-6l32 30zm-25 -37l28 34c0,0 -1,1 -1,1l-33 -30c2,-2 4,-3 6,-5zm8 -6l23 38c0,0 -1,0 -1,1l-29 -34c3,-2 5,-4 7,-5zm9 -5l17 41c0,0 -1,0 -1,1l-23 -38c2,-1 5,-3 7,-4zm10 -3l11 43c-1,0 -1,0 -2,0l-17 -41c3,-1 5,-1 8,-2zm10 -2l5 44c-1,0 -1,0 -2,0l-11 -43c2,0 5,-1 8,-1zm10 -1l-1 44c-1,0 -2,1 -2,1l-5 -44c2,-1 5,-1 8,-1zm10 1l-8 44c0,0 -1,0 -1,0l1 -45c3,0 5,1 8,1zm10 2l-14 43c0,-1 -1,-1 -2,-1l8 -44c3,1 5,2 8,2zm9 4l-19 40c-1,0 -1,-1 -2,-1l14 -42c2,1 5,2 7,3zm9 5l-25 37c0,-1 -1,-1 -1,-1l19 -40c2,1 5,3 7,4zm8 6l-30 33c0,0 -1,-1 -1,-1l25 -37c2,2 4,3 6,5zm-39 61c-4,5 -11,5 -16,1 -4,-4 -5,-11 -1,-16 5,-5 12,-5 16,-1 5,4 5,12 1,16zm41 -59c2,2 3,3 5,6l-34 28c0,-1 -1,-1 -1,-2l30 -32zm6 7c2,2 4,4 5,7l-38 23c0,-1 0,-1 -1,-2l34 -28zm10 16l-41 17c0,-1 0,-1 -1,-2l38 -23c2,3 3,5 4,8zm1 1c1,3 2,6 2,8l-42 12c-1,-1 -1,-2 -1,-2l41 -18zm4 18l-44 5c0,0 0,-1 0,-2l43 -11c0,3 1,5 1,8zm1 10l-44 -1c0,-1 0,-1 0,-2l44 -5c0,3 0,6 0,8zm-1 10l-43 -7c0,-1 0,-1 0,-2l44 1c0,3 0,6 -1,8zm0 2c-1,3 -1,6 -2,8l-42 -13c0,-1 0,-2 0,-2l44 7zm-6 18l-39 -20c0,0 0,-1 0,-1l42 13c-1,3 -2,5 -3,8zm-5 9l-36 -25c0,-1 0,-1 1,-2l39 20c-1,2 -2,4 -4,7zm-6 8l-33 -30c1,-1 1,-1 2,-2l36 25c-1,2 -3,5 -5,7zm-7 7l-28 -34c0,-1 1,-1 1,-2l33 30c-2,2 -4,4 -6,6zm-8 6l-23 -38c0,0 1,-1 1,-1l28 34c-2,2 -4,3 -6,5zm-9 5l-18 -41c1,0 2,-1 2,-1l23 38c-2,1 -5,3 -7,4zm-10 3l-11 -43c0,0 1,0 2,0l17 40c-3,1 -5,2 -8,3zm-10 2l-5 -44c1,0 1,0 2,0l11 43c-2,0 -5,1 -8,1zm-10 1l1 -44c1,0 1,0 2,-1l5 44c-3,1 -5,1 -8,1zm-10 -1l7 -44c1,0 2,0 2,1l-1 44c-3,0 -6,-1 -8,-1zm-10 -2l13 -42c1,0 2,0 2,0l-7 44c-3,-1 -6,-2 -8,-2zm-10 -4l20 -40c0,1 1,1 2,1l-14 42c-3,-1 -5,-2 -8,-3zm-9 -5l25 -37c1,1 1,1 2,1l-19 40c-3,-1 -5,-2 -8,-4zm-8 -6l30 -33c1,1 1,1 2,1l-25 37c-2,-2 -5,-3 -7,-5zm-1 -2c-2,-1 -4,-3 -6,-6l34 -28c1,1 1,1 2,2l-30 32zm-12 -14l38 -23c0,1 1,1 1,2l-34 28c-2,-2 -3,-4 -5,-7zm-5 -9l41 -17c0,0 1,1 1,2l-38 22c-1,-2 -2,-4 -4,-7zm0 -2c-1,-2 -2,-5 -3,-7l43 -12c0,1 0,1 0,2l-40 17zm-5 -17l44 -6c0,1 0,2 0,2l-42 12c-1,-3 -2,-6 -2,-8zm-1 -11l45 2c0,0 0,1 0,1l-44 6c0,-3 -1,-6 -1,-9zm1 -10l44 8c0,0 0,1 0,2l-44 -2c0,-2 0,-5 0,-8zm1 -2c0,-2 1,-5 2,-8l42 14c0,1 -1,1 -1,2l-43 -8zm5 -17l40 19c0,1 0,1 -1,2l-42 -14c1,-2 2,-5 3,-7zm5 -9l37 25c0,0 -1,1 -1,2l-40 -20c1,-2 3,-5 4,-7zm-1 -16l0 0 -8 -4 -3 3 -2 3 6 7c-3,4 -5,8 -6,11l-9 -1 -2 4 -1 3 7 6c-1,4 -2,8 -2,12l-9 1 -1 4 0 4 9 3c0,4 0,8 1,12l-8 4 0 4 1 4 10 0c1,4 2,8 4,12l-6 6 2 3 1 4 9 -3c3,3 5,7 8,10l-4 8 3 2 2 3 8 -5c3,2 7,5 10,7l-1 9 3 1 3 2 6 -7c4,1 8,3 12,4l1 9 4 0 4 1 3 -9c4,1 9,1 13,0l3 9 4 -1 4 -1 0 -9c5,-1 9,-2 13,-3l5 7 4 -2 3 -2 -2 -9c4,-2 7,-4 11,-7l7 5 3 -3 3 -2 -5 -8 0 0c3,-3 6,-7 8,-10l9 3 2 -4 2 -3 -7 -6c2,-4 3,-8 5,-12l9 0 0 -4 1 -4 -8 -4c1,-4 1,-8 1,-12l9 -3 -1 -4 0 -4 -9 -1c-1,-4 -2,-9 -3,-13l8 -5 -2 -3 -1 -4 -9 1c-2,-3 -4,-7 -7,-10l6 -8 -3 -3 -2 -3 -8 4c-2,-1 -3,-3 -5,-4 -1,-2 -3,-3 -5,-4l4 -9 -4 -2 -3 -2 -6 6c-4,-2 -8,-4 -12,-5l1 -9 -4 -2 -4 -1 -4 8c-4,-1 -9,-1 -13,-2l-2 -8 -4 0 -4 0 -2 9c-4,0 -8,1 -12,1l-5 -7 -4 1 -3 1 0 9c-3,2 -7,3 -11,6l-7 -6 -3 2 -3 2 3 8c-3,3 -6,6 -9,9z"/>
  <path class="fil17" d="M2715 3374l13 0 1 0c8,1 14,8 13,16 -4,60 -29,111 -67,147 -38,37 -90,59 -148,59 -70,0 -125,-28 -162,-71 -42,-48 -63,-114 -63,-185 0,-76 23,-140 63,-185 40,-46 97,-72 165,-72 52,0 99,17 136,46 36,28 60,69 67,115 0,1 0,2 0,3 0,8 -6,15 -14,15l-13 0c-7,0 -13,-5 -14,-12 -8,-39 -28,-69 -55,-91 -30,-23 -68,-35 -109,-35 -54,0 -100,22 -132,59 -33,38 -52,92 -52,157 0,60 17,117 52,157 30,35 74,57 131,57 48,0 88,-17 117,-45 32,-30 51,-73 57,-121 0,-8 6,-14 14,-14zm209 -280l12 0c6,0 11,3 14,9l185 462 0 -457c0,-8 7,-14 15,-14l19 0c6,0 11,3 14,8l185 419 186 -418c2,-5 8,-9 14,-9l18 0c8,0 14,6 14,14l0 463c0,8 -6,14 -14,14l-13 0c-8,0 -15,-6 -15,-14l0 -375c-45,102 -129,293 -168,379 -2,6 -7,10 -13,10l-17 0 0 0c-5,0 -11,-3 -13,-8 -48,-109 -127,-287 -169,-382l0 376c0,8 -6,14 -14,14l-14 0c-7,0 -12,-4 -14,-10 -2,6 -7,10 -14,10l-15 0c-6,0 -11,-3 -13,-9l-58 -143 -215 0 -59 142c-1,6 -7,10 -14,10l-14 0 0 0c-2,0 -4,0 -6,-1 -7,-3 -11,-11 -8,-19l190 -461c2,-6 7,-10 14,-10zm-87 297l183 0 -90 -229 -93 229zm820 -297l307 0c8,0 14,6 14,14l0 13c0,8 -6,14 -14,14l-280 0 0 174 263 0c8,0 15,6 15,14l0 13c0,8 -7,14 -15,14l-263 0 0 194 283 0c8,0 15,6 15,14l0 13c0,8 -7,14 -15,14l-310 0c-9,0 -15,-6 -15,-14l0 -463c0,-8 6,-14 15,-14zm336 477l0 -463c0,-8 6,-14 14,-14l183 0c89,0 164,32 164,136 0,36 -12,66 -32,88 -10,11 -22,20 -35,27 3,1 7,3 10,5l0 0c21,12 38,32 45,65 4,18 4,23 6,72l0 8c0,12 1,27 2,41 1,5 2,9 2,14l184 -446c2,-6 7,-10 14,-10l12 0c6,0 11,3 14,9l185 461c1,2 1,4 1,7 0,8 -6,14 -14,14l-15 0c-6,0 -11,-3 -14,-9l-57 -143 -216 0 -58 142c-1,6 -7,10 -14,10l-15 0 0 0c-1,0 -3,0 -5,-1 -1,0 -2,-1 -2,-1 -3,1 -5,2 -8,2l-14 0 0 0c-2,0 -3,0 -5,-1 -15,-6 -18,-68 -20,-110 -1,-11 -1,-19 -2,-26l0 0c-3,-38 -15,-57 -36,-68 -22,-11 -53,-12 -91,-12l-140 0 0 203c0,8 -7,14 -15,14l-14 0c-8,0 -14,-6 -14,-14zm192 -437l-149 0 0 192 137 0c35,0 71,-4 98,-19 24,-14 41,-38 41,-77 0,-40 -14,-63 -36,-77 -23,-14 -56,-19 -91,-19zm278 257l183 0 -91 -229 -92 229zm603 -267c30,25 49,62 51,112l0 2c0,8 -6,15 -15,15l-13 0 0 0c-8,0 -14,-7 -15,-14 -1,-39 -14,-67 -36,-84 -25,-20 -61,-29 -105,-29 -40,0 -72,9 -93,24l-1 1c-20,15 -31,38 -31,66 0,67 71,82 129,94 9,2 17,3 24,5l14 3c74,16 151,33 151,133 0,45 -18,80 -50,105 -32,24 -77,37 -133,37 -55,0 -105,-14 -140,-44 -32,-28 -51,-69 -51,-124l0 -9c0,-8 7,-14 15,-14l13 0c8,0 14,6 14,14l0 2c0,44 13,78 38,100 25,23 62,35 111,35 45,0 81,-10 106,-28 23,-17 35,-42 35,-74 0,-66 -61,-79 -116,-91 -6,-2 -12,-3 -21,-5l-1 0c-9,-3 -14,-4 -19,-5 -74,-16 -162,-36 -162,-135 0,-41 17,-75 47,-98 28,-22 70,-34 120,-34 53,0 100,12 134,40z"/>
 </g>
</svg>
