<?xml version="1.0" encoding="UTF-8"?>
<!DOCTYPE svg PUBLIC "-//W3C//DTD SVG 1.1//EN" "http://www.w3.org/Graphics/SVG/1.1/DTD/svg11.dtd">
<!-- Creator: CorelDRAW X8 -->
<svg xmlns="http://www.w3.org/2000/svg" xml:space="preserve" width="100%" height="100%" version="1.1" style="shape-rendering:geometricPrecision; text-rendering:geometricPrecision; image-rendering:optimizeQuality; fill-rule:evenodd; clip-rule:evenodd"
viewBox="0 0 2232 1232"
 xmlns:xlink="http://www.w3.org/1999/xlink">
 <defs>
  <style type="text/css">
   <![CDATA[
    .fil0 {fill:#96989A}
    .fil1 {fill:#444444}
   ]]>
  </style>
 </defs>
 <g id="Слой_x0020_1">
  <metadata id="CorelCorpID_0Corel-Layer"/>
  <path class="fil0" d="M1751 748l-105 -167 -12 -9c-3,0 -9,0 -19,0 -13,0 -30,0 -49,0 -36,0 -79,0 -111,1 -2,3 -4,5 -8,5 0,0 0,0 0,0 -4,0 -8,-4 -8,-8 0,-4 4,-8 8,-8 0,0 0,0 0,0 3,0 6,2 7,4 68,-1 181,-1 181,-1l1 0 15 11 106 169c-1,0 -2,0 -3,1 -1,0 -2,1 -3,2zm-1206 -535l0 3 162 0 26 -34c-1,-2 -1,-5 1,-8 2,-2 4,-3 6,-3 2,0 4,1 5,2 4,3 4,8 2,11 -2,2 -4,3 -7,3 0,0 -1,0 -1,0l-29 35 -182 0c-1,3 -4,5 -7,5 -4,0 -8,-4 -8,-8 0,-4 4,-8 8,-8 3,0 6,2 7,5l15 0 0 -3c1,0 2,0 2,0zm-349 134l105 168 12 9c3,0 10,0 19,0 13,0 30,0 50,0 36,-1 79,-1 111,-2 1,-2 4,-4 7,-4 0,0 0,0 0,0 4,0 8,3 8,7 0,5 -3,8 -8,8 0,0 0,0 0,0 -3,0 -6,-1 -7,-4 -67,2 -181,2 -181,2l-1 0 -15 -12 -106 -168c1,0 3,-1 4,-1 1,-1 1,-2 2,-3zm0 34l45 73 6 17 40 66c16,0 134,0 206,1 1,-2 4,-4 7,-4 0,0 0,0 0,0 4,0 8,3 8,8 0,4 -4,8 -8,8 0,0 0,0 0,0 -3,0 -6,-2 -7,-5 -67,-1 -175,-1 -202,-1 -4,0 -6,0 -6,0l-2 0 -42 -70 -6 -16 -45 -73c1,0 2,-1 3,-1 2,-1 2,-2 3,-3zm29 -208l0 162 104 163 164 0c1,-3 4,-4 7,-4 4,0 8,3 8,7 0,5 -4,8 -8,8 -3,0 -6,-1 -7,-4l-168 0 -107 -168 0 -164c1,0 2,0 3,0 2,0 3,0 4,0zm40 0l0 131 104 164 124 0c1,-3 4,-5 7,-5 4,0 8,4 8,8 0,5 -4,8 -8,8 -3,0 -6,-2 -7,-4l-128 0 -107 -169 0 -133c-3,-2 -4,-4 -4,-8 0,-4 3,-7 8,-7 4,0 7,3 7,7 0,4 -1,6 -4,8zm453 180l89 0 125 125 19 0c1,-3 4,-5 7,-5 5,0 8,4 8,8 0,4 -3,8 -8,8 -3,0 -6,-2 -7,-5l-22 0 -124 -125 -84 0 -42 42 -243 0 -37 37c1,3 0,6 -2,8 -1,2 -3,2 -5,2 -2,0 -4,0 -6,-2 -3,-3 -3,-8 0,-11 2,-2 4,-2 6,-2 0,0 1,0 2,0l39 -39 243 0 42 -41zm0 -41l89 0 125 125 19 0c1,-2 4,-4 7,-4 5,0 8,3 8,8 0,4 -3,8 -8,8 -3,0 -6,-2 -7,-5l-22 0 -124 -125 -84 0 -42 42 -243 0 -37 37c1,2 0,6 -2,8 -1,1 -3,2 -5,2 -2,0 -4,-1 -6,-2 -3,-3 -3,-8 0,-11 2,-2 4,-3 6,-3 0,0 1,1 2,1l39 -39 243 0 42 -42zm-172 117l152 0c6,0 11,2 15,6l23 23c4,4 6,9 6,15l0 69c0,12 -10,22 -21,22l-175 0c-12,0 -21,-10 -21,-22l0 -92c0,-11 9,-21 21,-21zm175 135l0 -7 0 7zm0 -7c4,0 7,-1 10,-4 3,-3 4,-6 4,-11l0 -69c0,-4 -1,-8 -4,-10l-23 -23c-3,-3 -6,-4 -10,-4l-152 0c-4,0 -8,1 -10,4 -3,3 -5,6 -5,10l0 92c0,5 2,8 5,11 2,3 6,4 10,4l175 0zm-144 -100c13,0 24,10 24,24l0 32c0,14 -11,25 -24,25 -14,0 -24,-11 -24,-25l0 -32c0,-14 10,-24 24,-24l0 6 0 -6zm0 6c-5,0 -9,2 -13,5 -3,4 -5,8 -5,13l0 32c0,5 2,10 5,13 4,3 8,5 13,5 5,0 9,-2 12,-5 3,-3 5,-8 5,-13l0 -32c0,-5 -2,-9 -5,-13 -3,-3 -7,-5 -12,-5zm70 56l48 0c6,0 11,4 12,10l5 0 0 -4 14 0 0 14 -14 0 0 -3 -5 0c-1,5 -6,9 -12,9l-48 0c-6,0 -11,-4 -12,-9l-6 0 0 3 -14 0 0 -14 14 0 0 4 6 0c1,-6 6,-10 12,-10l0 7 0 -7zm0 7c-3,0 -6,3 -6,6 0,4 3,7 6,7l11 0 0 -13 -11 0zm18 13l5 0 0 -13 -5 0 0 13zm11 0l5 0 0 -13 -5 0 0 13zm12 0l7 0c3,0 6,-3 6,-7 0,-3 -3,-6 -6,-6l-7 0 0 13zm-41 -49l48 0c6,0 11,5 12,10l5 0 0 -3 14 0 0 14 -14 0 0 -4 -5 0c-1,6 -6,10 -12,10l-48 0c-6,0 -11,-4 -12,-10l-6 0 0 4 -14 0 0 -14 14 0 0 3 6 0c1,-5 6,-10 12,-10l0 7 0 -7zm0 7c-3,0 -6,3 -6,7 0,3 3,6 6,6l11 0 0 -13 -11 0zm18 13l5 0 0 -13 -5 0 0 13zm11 0l5 0 0 -13 -5 0 0 13zm12 0l7 0c3,0 6,-3 6,-6 0,-4 -3,-7 -6,-7l-7 0 0 13zm-41 -48l48 0c6,0 11,4 12,10l5 0 0 -4 14 0 0 14 -14 0 0 -4 -5 0c-1,6 -6,10 -12,10l-48 0c-6,0 -11,-4 -12,-10l-6 0 0 4 -14 0 0 -14 14 0 0 4 6 0c1,-6 6,-10 12,-10l0 7 0 -7zm0 7c-3,0 -6,3 -6,6 0,4 3,6 6,6l11 0 0 -12 -11 0zm18 12l5 0 0 -12 -5 0 0 12zm11 0l5 0 0 -12 -5 0 0 12zm12 0l7 0c3,0 6,-2 6,-6 0,-3 -3,-6 -6,-6l-7 0 0 12zm-329 -185c4,0 8,1 11,2 4,1 7,2 10,5 7,7 11,17 11,27 0,9 -4,19 -11,26 -3,3 -6,4 -10,5 -3,1 -7,2 -11,2 -8,0 -15,-2 -21,-3 -6,-2 -10,-3 -10,-3l-2 -1 0 -53 2 -1c0,0 4,-1 10,-3 6,-1 13,-3 21,-3zm0 60c3,0 6,0 9,-1 3,-1 5,-2 7,-4 6,-6 9,-14 9,-21 0,-8 -3,-16 -9,-22 -2,-2 -4,-3 -7,-4 -3,-1 -6,-1 -9,-1 0,0 0,0 0,0 -6,0 -13,1 -18,3 -4,0 -7,1 -8,2l0 43c0,0 0,0 0,0 2,1 4,1 7,2 5,2 12,3 19,3 0,0 0,0 0,0 0,0 0,0 0,0zm52 -182l0 74 -27 29c1,2 1,6 -1,8 -2,2 -4,2 -6,2 -2,0 -4,0 -6,-2 -3,-3 -3,-8 0,-11 2,-1 4,-2 6,-2 1,0 1,0 2,0l25 -27 0 -71c-3,-1 -4,-4 -4,-7 0,-4 3,-8 8,-8 4,0 7,4 7,8 0,3 -1,6 -4,7zm-90 0l0 89 10 16c0,0 1,0 1,0 2,0 5,1 7,3 2,4 1,9 -3,11 -1,1 -3,1 -4,1 -3,0 -5,-1 -7,-3 -2,-3 -1,-6 0,-9l-10 -17 0 -91c-3,-1 -5,-4 -5,-7 0,-4 4,-8 8,-8 4,0 8,4 8,8 0,3 -2,6 -5,7zm-47 410l30 0 0 336c3,1 5,4 5,7 0,4 -4,8 -8,8 0,0 0,0 0,0 0,0 0,0 0,0l0 0c-5,0 -8,-4 -8,-8 0,-3 2,-6 4,-7 1,0 1,0 1,-1 0,1 0,1 -1,1l0 -29 0 -300 -23 0c0,-1 0,-2 0,-3 0,-2 0,-3 0,-4zm26 335l0 0c0,0 -1,0 -1,0 0,0 1,0 1,0zm44 -316l0 38 49 45 0 234c2,1 4,4 4,7 0,4 -3,8 -8,8 -4,0 -7,-4 -7,-8 0,-3 1,-6 4,-7l0 -231 -49 -45 0 -41c-3,-2 -5,-4 -5,-8 0,-4 4,-7 8,-7 0,0 0,0 0,0 5,0 8,3 8,7 0,4 -2,6 -4,8zm-2 73l27 23 0 221c2,1 4,4 4,7 0,4 -3,8 -8,8 -4,0 -8,-4 -8,-8 0,-3 2,-6 5,-7l0 -218 -25 -21c-1,1 -2,1 -3,1 -2,0 -3,-1 -5,-2 -3,-3 -4,-8 -1,-11 2,-2 4,-3 6,-3 2,0 4,1 5,2 3,2 4,5 3,8zm129 150l2 0c16,0 28,13 28,29 0,15 -12,28 -28,28l-2 0c-15,0 -28,-13 -28,-28 0,-16 13,-29 28,-29l0 7 0 -7zm0 7c-6,0 -11,3 -15,7 -4,3 -6,9 -6,15 0,6 2,11 6,15 4,4 9,6 15,6l2 0c6,0 11,-2 15,-6 4,-4 6,-9 6,-15 0,-6 -2,-12 -6,-15 -4,-4 -9,-7 -15,-7l-2 0zm372 -75l1 0c18,0 33,14 33,32 0,18 -15,32 -33,32l-1 0c-18,0 -33,-14 -33,-32 0,-18 15,-32 33,-32l0 7 0 -7zm0 7c-7,0 -14,3 -18,7 -5,5 -8,11 -8,18 0,7 3,14 8,18 4,5 11,8 18,8l1 0c7,0 14,-3 18,-8 5,-4 8,-11 8,-18 0,-7 -3,-13 -8,-18 -4,-4 -11,-7 -18,-7l-1 0zm-257 -173l0 51 -112 74 0 87c3,1 4,4 4,7 0,5 -3,8 -7,8 -2,0 -4,0 -6,-2 -1,2 -3,2 -5,2 -4,0 -8,-3 -8,-8 0,-3 2,-6 5,-7l0 -98 111 -74 0 -40c-2,-2 -4,-4 -4,-8 0,-4 3,-7 8,-7 2,0 4,0 5,2 1,-2 3,-2 5,-2 5,0 8,3 8,7 0,4 -2,6 -4,8zm-119 212l0 -91 112 -74 0 -47c-1,-1 -1,-1 -2,-2 0,1 -1,1 -2,2l0 44 -111 74 0 94c0,1 1,1 1,1 1,0 1,0 2,-1zm112 -123l-76 49 0 46c3,1 5,4 5,7 0,4 -4,8 -8,8 -4,0 -8,-4 -8,-8 0,-3 2,-6 5,-7l0 -50 78 -50c0,-3 1,-6 4,-8 1,-1 3,-1 4,-1 3,0 5,1 7,3 2,4 1,9 -2,11 -2,1 -3,1 -5,1 -1,0 -3,0 -4,-1zm161 -299l63 0 1 1c0,0 4,4 10,10 6,6 14,15 23,24 15,15 31,32 42,42 1,0 2,0 3,0 2,0 4,0 5,2 3,3 4,8 1,11 -2,2 -4,3 -6,3 -2,0 -4,-1 -5,-2 -3,-3 -4,-6 -3,-9 -10,-10 -27,-27 -42,-42 -15,-16 -28,-29 -32,-33l-58 0 -13 13c1,3 0,6 -2,9 -2,1 -4,2 -6,2 -2,0 -4,-1 -5,-2 -3,-3 -3,-8 0,-12 1,-1 3,-2 5,-2 1,0 2,0 3,1l16 -16zm-46 -87l-30 31 -209 0c-1,2 -4,4 -7,4 -5,0 -8,-3 -8,-8 0,-4 3,-7 8,-7 3,0 6,1 7,4l206 0 29 -28c-1,-3 -1,-6 2,-9 1,-1 3,-2 5,-2 2,0 4,1 6,2 3,4 3,9 0,12 -2,1 -4,2 -6,2 -1,0 -2,0 -3,-1zm135 -134l-87 106 -264 0c-1,3 -4,5 -7,5 -5,0 -8,-4 -8,-8 0,-5 3,-8 8,-8 3,0 6,2 7,4l260 0 86 -104c-1,-2 -1,-6 1,-8 2,-2 4,-3 6,-3 2,0 4,1 5,2 4,3 4,8 1,11 -1,2 -3,3 -6,3 0,0 -1,0 -2,0zm-444 13l0 54 -11 11c1,3 0,6 -2,8 -1,2 -3,3 -5,3 -2,0 -4,-1 -6,-3 -3,-3 -3,-8 0,-11 2,-1 4,-2 6,-2 0,0 1,0 2,0l9 -9 0 -51c-2,-1 -3,-3 -4,-5 0,2 -2,4 -4,5l0 45 -11 11c1,3 0,6 -2,9 -2,1 -4,2 -6,2 -2,0 -4,-1 -5,-2 -3,-3 -3,-8 0,-12 1,-1 3,-2 5,-2 1,0 2,0 3,1l9 -10 0 -42c-3,-1 -4,-4 -4,-7 0,-4 3,-8 7,-8 4,0 7,3 8,6 1,-3 4,-6 8,-6 4,0 8,4 8,8 0,3 -2,6 -5,7zm160 564l90 0 29 27c1,0 2,-1 3,-1 2,0 4,1 5,2 3,3 4,8 1,12 -2,1 -4,2 -6,2 -2,0 -4,-1 -5,-2 -3,-2 -4,-5 -3,-8l-27 -25 -87 0c-2,3 -4,4 -8,4 -4,0 -7,-3 -7,-7 0,-5 3,-8 7,-8 4,0 6,1 8,4zm0 41l62 0 11 11c1,0 1,0 2,0 2,0 4,1 6,2 3,3 3,8 0,11 -2,2 -4,3 -6,3 -2,0 -4,-1 -5,-3 -2,-2 -3,-5 -2,-8l-9 -9 -59 0c-2,3 -4,4 -8,4 -4,0 -7,-3 -7,-7 0,-5 3,-8 7,-8 4,0 6,2 8,4zm258 -197l148 0c1,-2 4,-4 7,-4 5,0 8,3 8,8 0,4 -3,8 -8,8 -3,0 -6,-2 -7,-5l-145 0 -59 69 0 272c2,1 4,4 4,7 0,4 -3,8 -8,8 -4,0 -8,-4 -8,-8 0,-3 2,-6 5,-7l0 -274 63 -74zm23 42l125 0c1,-3 4,-5 7,-5 5,0 8,4 8,8 0,4 -3,8 -8,8 -3,0 -6,-2 -7,-5l-122 0 -35 43 0 151 46 62 0 44c2,1 4,4 4,7 0,4 -3,8 -8,8 -4,0 -8,-4 -8,-8 0,-3 2,-6 5,-7l0 -42 -46 -62 0 -156 39 -46zm32 109l93 0c1,-2 4,-4 7,-4 5,0 8,3 8,8 0,4 -3,8 -8,8 -3,0 -6,-2 -7,-5l-85 0c2,2 3,4 3,6 0,4 -4,8 -8,8 -4,0 -8,-4 -8,-8 0,-3 2,-6 5,-7l0 -6zm-18 -19l111 0c1,-2 4,-4 7,-4 5,0 8,3 8,8 0,4 -3,8 -8,8 -3,0 -6,-2 -7,-5l-104 0 0 16c3,2 5,4 5,7 0,5 -4,8 -8,8 -5,0 -8,-3 -8,-8 0,-3 2,-5 4,-7l0 -23zm-17 -19l128 0c1,-3 4,-5 7,-5 5,0 8,4 8,8 0,4 -3,8 -8,8 -3,0 -6,-2 -7,-4l-121 0 0 36c3,1 4,4 4,7 0,5 -3,8 -8,8 -4,0 -7,-3 -7,-8 0,-3 1,-6 4,-7l0 -43zm67 136l74 99c1,0 1,0 2,0 2,0 4,1 6,3 3,3 2,8 -2,11 -1,1 -3,1 -4,1 -2,0 -3,0 -5,-1 1,3 0,6 -3,8 -1,1 -3,2 -5,2 -2,0 -4,-1 -6,-4 -2,-2 -2,-5 -1,-8l-72 -97c-1,0 -1,0 -2,0 -2,0 -5,-1 -6,-3 -3,-4 -2,-9 1,-11 2,-1 4,-2 5,-2 1,0 2,0 3,1 0,-3 1,-7 3,-9 2,-1 3,-1 5,-1 2,0 5,1 6,3 2,2 2,6 1,8zm69 103l-74 -99c-1,1 -1,1 -2,1 -1,0 -2,-1 -3,-1 0,2 0,4 -1,6l73 97c0,0 1,0 1,0 2,0 4,0 5,1 0,-2 0,-3 1,-5zm-110 -49l23 0 47 38 0 2c0,0 0,2 -1,4 0,0 0,0 0,1 3,1 5,3 5,6 0,5 -3,8 -8,9 0,0 0,0 0,0 -4,0 -8,-4 -8,-8 0,-3 2,-6 5,-8 0,-1 0,-2 0,-3l-42 -34 -14 0 0 38c3,1 5,4 5,7 0,4 -4,8 -8,8 -5,0 -8,-4 -8,-8 0,-3 2,-6 4,-7l0 -45zm-324 -47l104 0 66 65 0 27c2,1 4,4 4,7 0,4 -3,8 -8,8 -2,0 -4,-2 -6,-3 -1,1 -3,3 -6,3 -2,0 -4,-1 -5,-2 -2,1 -4,2 -6,2 -4,0 -8,-4 -8,-8 0,-3 2,-6 5,-7l0 -4 -62 -54 -79 0c-2,2 -4,4 -8,4 -4,0 -7,-3 -7,-8 0,-3 1,-6 4,-7 -2,-1 -4,-4 -4,-7 0,-3 2,-5 4,-7 -2,-1 -3,-3 -3,-6 0,-4 4,-8 8,-8 3,0 6,2 7,5zm163 92l0 -24 -62 -62 -101 0c0,2 -2,3 -3,4 1,1 2,2 2,3l93 0 65 61 0 18c2,0 2,1 3,2 1,-1 2,-2 3,-2zm-12 0l0 -15 -62 -57 -90 0c0,1 -2,3 -3,3 1,1 2,2 3,4l82 0 66 58 0 7c0,0 1,0 2,1 0,-1 1,-1 2,-1zm198 -772l-43 70 0 62 104 104 16 0c1,-2 4,-4 7,-4 4,0 8,3 8,8 0,4 -4,8 -8,8 -3,0 -6,-2 -7,-5l-18 0 -108 -108 0 -67 43 -72c-1,-2 -1,-6 0,-8 2,-3 4,-4 7,-4 1,0 3,0 4,1 4,2 5,7 3,11 -2,2 -4,4 -7,4 0,0 0,0 -1,0zm25 11l-41 66 0 46 84 87 4 0c1,-3 4,-5 7,-5 4,0 8,4 8,8 0,4 -4,8 -8,8 -3,0 -6,-2 -7,-5l-7 0 -88 -91 0 -50 42 -68c-2,-2 -2,-6 0,-8 1,-3 4,-4 6,-4 2,0 3,0 5,1 3,2 5,7 2,11 -1,2 -4,4 -7,4 0,0 0,0 0,0zm-467 409l104 0 0 47 -67 41 -42 0 -62 -63 0 -21c-3,-1 -5,-4 -5,-7 0,-4 4,-8 8,-8 5,0 8,4 8,8 0,3 -2,6 -4,7l0 19 58 58 37 0 62 -37 0 -37 -97 0c-1,3 -4,5 -7,5 -5,0 -8,-4 -8,-8 0,-5 3,-8 8,-8 3,0 6,2 7,4zm20 17l56 0 0 21 -46 25 -26 0 -20 -19c-1,0 -2,0 -2,0 -2,0 -4,0 -6,-2 -3,-3 -3,-8 0,-11 2,-2 4,-2 6,-2 2,0 4,0 5,2 2,2 3,5 2,8l18 18 22 0 40 -23 0 -10 -49 0c-1,2 -4,4 -7,4 -4,0 -8,-3 -8,-8 0,-4 4,-8 8,-8 3,0 6,2 7,5zm-15 307l136 0 33 22c1,-1 2,-2 4,-2 1,0 3,1 4,2 4,2 5,7 2,11 -1,2 -4,3 -6,3 -2,0 -3,0 -5,-1 -2,-2 -4,-5 -3,-8l-31 -20 -134 0c-1,2 -4,4 -7,4 -4,0 -8,-3 -8,-8 0,-4 4,-8 8,-8 3,0 6,2 7,5zm22 18l99 0 14 9c2,-1 3,-1 5,-1 1,0 3,0 4,1 4,2 5,7 2,11 -1,2 -4,3 -6,3 -2,0 -3,0 -5,-1 -2,-1 -4,-5 -3,-7l-13 -8 -97 0c-2,2 -4,4 -7,4 -5,0 -8,-3 -8,-8 0,-4 3,-8 8,-8 3,0 5,2 7,5zm182 -330l67 0 10 10 0 81c3,2 5,4 5,8 0,4 -4,7 -8,7 -5,0 -8,-3 -8,-7 0,-4 2,-6 4,-8l0 -79 -6 -6 -61 0 -6 6 0 82 53 51c1,-1 2,-1 3,-1 2,0 4,1 6,2 3,3 3,8 0,11 -2,2 -4,3 -6,3 -2,0 -4,-1 -5,-2 -2,-2 -3,-6 -2,-8l-56 -54 0 -86 10 -10zm26 24l17 0 10 10 0 48c2,1 4,4 4,7 0,4 -4,8 -8,8 -4,0 -8,-4 -8,-8 0,-3 2,-6 5,-7l0 -45 -6 -6 -11 0 -6 6 0 35c3,1 4,4 4,7 0,4 -3,8 -7,8 -5,0 -8,-4 -8,-8 0,-3 1,-6 4,-7l0 -38 10 -10zm86 -174l21 25 2 83 -8 10c1,3 1,6 -1,9 -2,2 -4,3 -6,3 -2,0 -4,-1 -5,-2 -4,-2 -4,-7 -2,-11 2,-2 4,-3 7,-3 0,0 1,0 1,0l7 -8 -2 -78 -19 -24c-1,0 -1,0 -2,0 -2,0 -4,-1 -6,-3 -3,-3 -2,-8 1,-11 2,-1 3,-1 5,-1 2,0 5,1 6,2 2,3 2,6 1,9zm45 28l43 0 35 39 59 0c1,-2 4,-4 7,-4 4,0 8,3 8,8 0,4 -4,8 -8,8 -3,0 -6,-2 -7,-5l-62 0 -35 -39 -33 0 0 63c3,2 5,4 5,8 0,4 -4,8 -8,8 -5,0 -8,-4 -8,-8 0,-4 2,-6 4,-8l0 -70zm27 34l20 0 26 37 59 0c1,-3 4,-5 7,-5 4,0 8,4 8,8 0,4 -4,8 -8,8 -3,0 -6,-2 -7,-5l-63 0 -26 -36 -9 0 0 31c2,1 4,4 4,7 0,5 -3,8 -8,8 -4,0 -8,-3 -8,-8 0,-3 2,-6 5,-7l0 -38zm577 381l0 -3 -161 0 -27 33c1,3 1,6 -1,8 -2,2 -4,3 -6,3 -2,0 -4,0 -5,-1 -4,-3 -4,-8 -1,-12 1,-1 4,-2 6,-2 0,0 1,0 2,0l28 -36 182 0c1,-2 4,-4 7,-4 5,0 8,3 8,8 0,4 -3,7 -8,7 -3,0 -6,-1 -7,-4l-15 0 1 2c-1,1 -2,1 -3,1zm349 -169l-44 -73 -7 -17 -40 -66c-16,0 -134,0 -206,-1 -1,3 -4,5 -7,5 0,0 0,0 0,0 -4,0 -8,-4 -8,-8 0,-5 4,-8 8,-8 0,0 0,0 0,0 3,0 6,2 7,5 68,0 175,0 202,0 4,0 6,0 6,0l2 0 42 70 7 17 44 73c-1,0 -2,0 -3,1 -1,0 -2,1 -3,2zm-28 209l0 -162 -105 -164 -164 0c-1,3 -4,5 -7,5 -4,0 -8,-4 -8,-8 0,-4 4,-8 8,-8 3,0 6,2 7,5l168 0 107 168 0 164c-1,-1 -2,-1 -3,-1 -1,0 -2,0 -3,1zm-41 0l0 -132 -104 -163 -124 0c-1,2 -4,4 -7,4 -4,0 -8,-3 -8,-8 0,-4 4,-8 8,-8 3,0 6,2 7,5l128 0 107 168 0 134c3,1 5,4 5,7 0,4 -4,8 -8,8 -5,0 -8,-4 -8,-8 0,-3 2,-6 4,-7zm-453 -180l-89 0 -125 -125 -19 0c-1,3 -4,5 -7,5 -4,0 -8,-4 -8,-8 0,-5 4,-8 8,-8 3,0 6,2 7,4l22 0 125 125 83 0 42 -42 243 0 37 -36c-1,-3 0,-6 2,-9 2,-1 4,-2 6,-2 2,0 4,1 5,2 3,3 3,8 0,12 -1,1 -3,2 -5,2 -1,0 -2,0 -3,-1l-39 39 -243 0 -42 42zm0 40l-89 0 -125 -125 -19 0c-1,3 -4,5 -7,5 -4,0 -8,-4 -8,-8 0,-5 4,-8 8,-8 3,0 6,2 7,4l22 0 125 125 83 0 42 -41 243 0 37 -37c-1,-3 0,-6 2,-8 2,-2 4,-3 6,-3 2,0 4,1 5,3 3,3 3,8 0,11 -1,1 -3,2 -5,2 -1,0 -2,0 -3,0l-39 38 -243 0 -42 42zm172 -116l-152 0c-5,0 -11,-3 -15,-7l-23 -22c-4,-4 -6,-10 -6,-16l0 -69c0,-12 10,-21 22,-21l174 0c12,0 22,9 22,21l0 92c0,12 -10,22 -22,22zm-30 -28c-14,0 -25,-11 -25,-24l0 -33c0,-13 11,-24 25,-24 13,0 24,11 24,24l0 33c0,13 -11,24 -24,24l0 -7 0 7zm-71 -63l-47 0c-6,0 -11,-4 -13,-9l-5 0 0 3 -14 0 0 -14 14 0 0 4 5 0c2,-6 7,-10 13,-10l47 0c6,0 11,4 13,10l5 0 0 -4 14 0 0 14 -14 0 0 -3 -5 0c-2,5 -7,9 -13,9l0 -6 0 6zm-41 -6l0 -13 -6 0c-4,0 -7,3 -7,6 0,4 3,7 7,7l6 0zm7 -13l0 13 5 0 0 -13 -5 0zm12 0l0 13 4 0 0 -13 -4 0zm11 0l0 13 11 0c3,0 6,-3 6,-7 0,-3 -3,-6 -6,-6l-11 0zm11 48l-47 0c-6,0 -11,-4 -13,-10l-5 0 0 4 -14 0 0 -14 14 0 0 4 5 0c2,-6 7,-10 13,-10l47 0c6,0 11,4 13,10l5 0 0 -4 14 0 0 14 -14 0 0 -4 -5 0c-2,6 -7,10 -13,10l0 -7 0 7zm-41 -7l0 -12 -6 0c-4,0 -7,2 -7,6 0,3 3,6 7,6l6 0zm7 -12l0 12 5 0 0 -12 -5 0zm12 0l0 12 4 0 0 -12 -4 0zm11 0l0 12 11 0c3,0 6,-3 6,-6 0,-4 -3,-6 -6,-6l-11 0zm11 48l-47 0c-6,0 -11,-5 -13,-10l-5 0 0 3 -14 0 0 -13 14 0 0 3 5 0c2,-6 7,-10 13,-10l47 0c6,0 11,4 13,10l5 0 0 -3 14 0 0 13 -14 0 0 -3 -5 0c-2,5 -7,10 -13,10l0 -7 0 7zm-41 -7l0 -13 -6 0c-4,0 -7,3 -7,6 0,4 3,7 7,7l6 0zm7 -13l0 13 5 0 0 -13 -5 0zm12 0l0 13 4 0 0 -13 -4 0zm11 0l0 13 11 0c3,0 6,-3 6,-7 0,-3 -3,-6 -6,-6l-11 0zm299 185c-3,0 -7,0 -11,-1 -3,-1 -7,-3 -9,-6 -8,-7 -11,-16 -11,-26 0,-10 3,-19 11,-26 2,-3 6,-5 9,-6 4,-1 8,-1 11,-1 8,0 16,1 21,3 6,1 10,3 10,3l2 1 0 52 -2 1c0,0 -4,2 -10,3 -5,2 -13,3 -21,3zm-52 122l0 -73 27 -29c-1,-3 0,-6 2,-8 1,-2 3,-3 6,-3 1,0 3,1 5,2 3,3 3,8 0,11 -1,2 -3,3 -5,3 -1,0 -2,0 -3,-1l-25 28 0 70c3,2 5,4 5,7 0,5 -4,8 -8,8 -5,0 -8,-3 -8,-8 0,-3 2,-5 4,-7zm90 0l0 -89 -10 -15c0,0 0,0 -1,0 -2,0 -5,-1 -6,-4 -3,-3 -1,-8 2,-11 2,0 3,-1 4,-1 3,0 6,1 7,4 2,3 2,6 0,8l11 17 0 91c2,2 4,4 4,7 0,5 -3,8 -8,8 -4,0 -8,-3 -8,-8 0,-3 2,-5 5,-7zm48 -410l-30 0 -1 -335c-3,-1 -4,-4 -4,-7 0,-5 3,-8 7,-8 0,0 0,0 0,0 1,0 1,0 1,0 0,5 0,10 0,16 1,9 2,18 3,28l0 300 24 0c-1,1 -1,2 -1,3 0,1 0,2 1,3zm-70 -18l0 -39 -50 -45 0 -233c-2,-1 -4,-4 -4,-7 0,-5 3,-8 8,-8 4,0 8,3 8,8 0,3 -2,6 -5,7l0 230 50 45 -1 42c3,1 5,4 5,7 0,4 -4,8 -8,8 0,0 0,0 0,0 -4,0 -8,-4 -8,-8 0,-3 2,-6 5,-7zm1 -74l-26 -23 0 -220c-3,-1 -5,-4 -5,-7 0,-5 4,-8 8,-8 4,0 8,3 8,8 0,3 -2,6 -5,7l0 217 25 21c1,0 2,-1 3,-1 2,0 4,1 5,2 4,3 4,8 1,11 -1,2 -4,3 -6,3 -2,0 -4,0 -5,-2 -2,-2 -3,-5 -3,-8zm-129 -150l-2 0c-15,0 -28,-13 -28,-28 0,-16 13,-29 28,-29l2 0c16,0 28,13 28,29 0,15 -12,28 -28,28l0 -7 0 7zm-371 69l-2 0c-18,0 -32,-15 -32,-33 0,-17 14,-32 32,-32l2 0c17,0 32,15 32,32 0,18 -15,33 -32,33l0 -7 0 7zm257 166l0 -52 111 -73 0 -88c-2,-1 -4,-4 -4,-7 0,-4 3,-8 8,-8 2,0 4,1 5,2 1,-1 3,-2 5,-2 5,0 8,4 8,8 0,3 -2,6 -4,7l0 98 -112 74 0 41c3,1 4,4 4,7 0,4 -3,8 -8,8 -2,0 -3,-1 -5,-2 -1,1 -3,2 -5,2 -4,0 -8,-4 -8,-8 0,-3 2,-6 5,-7zm118 -213l0 91 -112 74 0 48c1,0 2,1 2,1 1,0 1,-1 2,-1l0 -44 112 -74 0 -95c-1,0 -2,0 -2,-1 -1,1 -1,1 -2,1zm-112 123l76 -49 0 -45c-3,-1 -5,-4 -5,-7 0,-5 4,-8 8,-8 5,0 8,3 8,8 0,3 -2,6 -4,7l0 49 -79 51c0,3 -1,6 -4,8 -1,1 -2,1 -4,1 -3,0 -5,-1 -7,-4 -2,-3 -1,-8 3,-11 1,0 3,-1 4,-1 1,0 3,1 4,1zm-160 299l-63 0 -1 -1c0,0 -4,-3 -10,-10 -6,-6 -15,-14 -24,-23 -15,-16 -31,-32 -42,-43 -1,1 -2,1 -3,1 -2,0 -3,-1 -5,-2 -3,-3 -3,-8 -1,-11 2,-2 4,-3 6,-3 2,0 4,1 6,2 2,2 3,5 2,8 11,11 27,28 42,43 15,15 29,29 32,33l58 0 13 -14c-1,-3 0,-6 2,-8 2,-2 4,-2 6,-2 2,0 4,0 5,2 4,3 4,8 0,11 -1,2 -3,2 -5,2 -1,0 -2,0 -3,0l-15 15zm45 87l30 -30 209 0c2,-3 4,-5 8,-5 4,0 7,4 7,8 0,4 -3,8 -7,8 -4,0 -6,-2 -8,-5l-206 0 -28 29c1,3 0,6 -2,8 -2,2 -4,2 -6,2 -2,0 -4,0 -5,-2 -4,-3 -4,-8 0,-11 1,-2 3,-2 5,-2 1,0 2,0 3,0zm-135 135l88 -107 263 0c2,-2 4,-4 8,-4 4,0 7,3 7,8 0,4 -3,8 -7,8 -4,0 -6,-2 -8,-5l-260 0 -86 104c1,3 1,6 -1,9 -2,1 -4,2 -6,2 -2,0 -4,0 -5,-1 -3,-3 -4,-8 -1,-12 1,-1 4,-2 6,-2 1,0 1,0 2,0zm444 -14l0 -53 11 -12c-1,-2 0,-6 2,-8 2,-1 4,-2 6,-2 2,0 4,1 5,2 3,3 3,8 0,11 -1,2 -3,3 -5,3 -1,0 -2,-1 -3,-1l-9 9 0 51c2,1 4,3 4,6 1,-3 2,-5 4,-6l0 -45 12 -11c-1,-3 -1,-6 1,-8 2,-2 4,-2 6,-2 2,0 4,0 6,2 3,3 3,8 0,11 -2,2 -4,2 -6,2 -1,0 -2,0 -3,0l-9 9 0 42c3,2 5,4 5,7 0,5 -4,8 -8,8 -4,0 -7,-2 -8,-6 -1,4 -4,6 -7,6 -5,0 -8,-3 -8,-8 0,-3 1,-5 4,-7zm-159 -564l-91 0 -29 -26c-1,0 -2,0 -3,0 -2,0 -3,-1 -5,-2 -3,-3 -3,-8 0,-11 1,-2 3,-3 5,-3 2,0 4,1 6,2 2,3 3,6 2,9l27 25 88 0c1,-3 4,-5 7,-5 4,0 8,4 8,8 0,4 -4,8 -8,8 -3,0 -6,-2 -7,-5zm0 -41l-62 0 -11 -11c-1,0 -2,1 -3,1 -2,0 -4,-1 -6,-3 -3,-3 -3,-8 0,-11 2,-1 4,-2 6,-2 2,0 4,1 6,2 2,2 2,6 1,8l10 10 59 0c1,-3 4,-5 7,-5 4,0 8,4 8,8 0,4 -4,8 -8,8 -3,0 -6,-2 -7,-5zm-259 197l-148 0c-1,3 -4,5 -7,5 -4,0 -8,-4 -8,-8 0,-5 4,-8 8,-8 3,0 6,2 7,4l145 0 60 -69 0 -271c-3,-1 -5,-4 -5,-7 0,-5 4,-8 8,-8 4,0 8,3 8,8 0,3 -2,6 -5,7l0 274 -63 73zm-23 -41l-125 0c-1,3 -4,4 -7,4 -4,0 -8,-3 -8,-7 0,-5 4,-8 8,-8 3,0 6,2 7,4l122 0 36 -42 0 -151 -46 -62 0 -44c-3,-1 -5,-4 -5,-7 0,-5 4,-8 8,-8 4,0 8,3 8,8 0,3 -2,6 -5,7l0 41 47 63 0 155 -40 47zm-31 -110l-94 0c-1,3 -4,5 -7,5 -4,0 -8,-4 -8,-8 0,-5 4,-8 8,-8 3,0 6,2 7,4l85 0c-2,-1 -3,-3 -3,-6 0,-4 4,-7 8,-7 5,0 8,3 8,7 0,4 -2,6 -4,8l0 5zm17 19l-111 0c-1,3 -4,5 -7,5 -4,0 -8,-4 -8,-8 0,-5 4,-8 8,-8 3,0 6,2 7,4l104 0 0 -16c-3,-1 -4,-4 -4,-7 0,-4 3,-8 8,-8 4,0 7,4 7,8 0,3 -1,6 -4,7l0 23zm17 20l-128 0c-1,2 -4,4 -7,4 -4,0 -8,-3 -8,-8 0,-4 4,-8 8,-8 3,0 6,2 7,5l121 0 0 -37c-2,-1 -4,-4 -4,-7 0,-4 3,-8 8,-8 4,0 8,4 8,8 0,3 -2,6 -5,7l0 44zm-67 -137l-74 -98c0,0 -1,0 -1,0 -3,0 -5,-1 -7,-3 -2,-4 -2,-9 2,-11 1,-1 3,-2 5,-2 1,0 3,1 4,1 -1,-2 1,-6 3,-8 2,-1 3,-1 5,-1 2,0 5,1 6,3 2,3 2,6 1,8l73 98c0,0 1,0 1,0 3,0 5,1 6,3 3,3 2,8 -1,11 -2,1 -3,1 -5,1 -1,0 -2,0 -3,0 1,3 0,6 -3,8 -1,1 -3,2 -5,2 -2,0 -4,-1 -6,-3 -2,-3 -2,-6 -1,-9zm-68 -102l74 98c0,0 1,0 1,0 1,0 2,0 3,1 0,-2 0,-4 1,-6l-73 -98c0,1 -1,1 -1,1 -2,0 -3,-1 -5,-2 1,2 0,4 0,6zm109 48l-23 0 -46 -38 0 -2c0,0 0,-1 0,-3 0,-1 0,-1 0,-1 -3,-1 -4,-4 -5,-7 0,-4 4,-8 8,-8 0,0 0,0 0,0 5,0 8,3 8,7 0,4 -2,7 -4,8 0,1 0,2 0,3l42 34 13 0 0 -37c-3,-1 -4,-4 -4,-7 0,-5 3,-8 8,-8 4,0 7,3 7,8 0,3 -1,6 -4,7l0 44zm324 48l-104 0 -65 -66 0 -26c-3,-1 -5,-4 -5,-7 0,-5 4,-8 8,-8 2,0 5,1 6,3 2,-2 4,-3 6,-3 2,0 4,1 6,2 1,-1 3,-2 5,-2 4,0 8,3 8,8 0,3 -2,6 -5,7l0 4 62 54 80 0c1,-3 4,-5 7,-5 4,0 8,4 8,8 0,4 -2,6 -5,8 2,1 4,3 4,6 0,3 -2,6 -4,7 2,2 3,4 3,6 0,5 -3,8 -8,8 -3,0 -6,-2 -7,-4zm-163 -92l0 23 62 62 101 0c1,-1 2,-3 3,-3 -1,-1 -2,-2 -2,-3l-92 0 -66 -62 0 -17c-1,-1 -2,-1 -3,-2 -1,1 -2,1 -3,2zm13 0l0 14 61 58 90 0c1,-2 2,-3 4,-4 -2,-1 -3,-2 -3,-3l-83 0 -65 -58 0 -7c-1,0 -2,-1 -2,-1 -1,0 -2,1 -2,1zm-199 772l43 -71 0 -62 -104 -104 -15 0c-2,3 -4,5 -8,5 -4,0 -7,-4 -7,-8 0,-5 3,-8 7,-8 4,0 6,2 8,4l18 0 108 108 0 67 -44 72c1,3 2,6 0,9 -2,2 -4,4 -7,4 -1,0 -3,-1 -4,-1 -4,-3 -5,-8 -3,-11 2,-3 5,-4 7,-4 0,0 1,0 1,0zm-24 -11l40 -67 0 -45 -83 -87 -5 0c-1,3 -4,4 -7,4 -4,0 -8,-3 -8,-8 0,-4 4,-7 8,-7 3,0 6,1 7,4l8 0 87 91 0 50 -42 68c2,3 2,6 1,9 -2,2 -5,4 -7,4 -2,0 -3,-1 -4,-1 -4,-3 -5,-8 -3,-11 2,-3 4,-4 7,-4 0,0 0,0 1,0zm466 -410l-103 0 0 -47 66 -40 42 0 62 62 0 21c3,2 5,4 5,8 0,4 -4,7 -8,7 -4,0 -8,-3 -8,-7 0,-4 2,-6 5,-8l0 -18 -59 -58 -37 0 -62 37 0 36 97 0c2,-2 4,-4 8,-4 4,0 8,3 8,8 0,4 -4,8 -8,8 -4,0 -6,-2 -8,-5zm-20 -16l-55 0 0 -21 45 -26 27 0 19 20c1,-1 2,-1 3,-1 2,0 4,1 5,2 3,4 3,9 0,12 -1,1 -3,2 -5,2 -2,0 -4,-1 -6,-2 -2,-3 -3,-6 -2,-9l-17 -17 -22 0 -40 23 0 10 48 0c1,-3 4,-5 7,-5 5,0 8,4 8,8 0,5 -3,8 -8,8 -3,0 -6,-2 -7,-4zm15 -307l-136 0 -32 -22c-1,1 -3,1 -4,1 -2,0 -3,0 -5,-1 -3,-3 -4,-8 -2,-11 2,-3 4,-4 7,-4 1,0 3,1 4,2 3,1 4,4 4,7l30 21 134 0c1,-3 4,-5 7,-5 4,0 8,4 8,8 0,5 -4,8 -8,8 -3,0 -6,-2 -7,-4zm-21 -18l-100 0 -14 -9c-1,1 -3,1 -4,1 -2,0 -3,0 -5,-1 -3,-3 -4,-7 -2,-11 1,-3 4,-4 7,-4 1,0 3,1 4,1 3,2 4,5 4,8l12 8 98 0c1,-3 4,-5 7,-5 4,0 8,4 8,8 0,5 -4,8 -8,8 -3,0 -6,-2 -7,-4zm-183 330l-67 0 -10 -10 0 -82c-3,-1 -4,-4 -4,-7 0,-4 3,-8 8,-8 4,0 7,4 7,8 0,3 -1,6 -4,7l0 79 6 6 62 0 6 -6 0 -81 -54 -51c-1,0 -2,0 -3,0 -2,0 -4,0 -5,-2 -4,-3 -4,-8 -1,-11 2,-2 4,-2 6,-2 2,0 4,0 5,2 3,2 3,5 3,8l55 53 0 87 -10 10zm-26 -25l-16 0 -10 -10 0 -47c-3,-1 -5,-4 -5,-7 0,-5 4,-8 8,-8 5,0 8,3 8,8 0,3 -2,6 -4,7l0 44 6 6 10 0 6 -6 0 -34c-2,-1 -4,-4 -4,-7 0,-5 3,-8 8,-8 4,0 8,3 8,8 0,3 -2,6 -5,7l0 37 -10 10zm-86 175l-21 -26 -1 -83 8 -10c-2,-3 -2,-6 0,-8 2,-2 4,-3 7,-3 1,0 3,0 4,1 4,3 5,8 2,11 -2,2 -4,3 -6,3 -1,0 -1,0 -2,0l-7 9 2 78 19 23c1,0 2,0 2,0 3,0 5,1 6,3 3,3 3,8 -1,11 -1,1 -3,2 -5,2 -2,0 -4,-1 -6,-3 -2,-2 -2,-6 -1,-8zm-45 -29l-43 0 -34 -39 -59 0c-2,3 -4,5 -8,5 -4,0 -7,-4 -7,-8 0,-5 3,-8 7,-8 4,0 6,2 8,4l62 0 34 40 33 0 0 -64c-3,-1 -4,-4 -4,-7 0,-5 3,-8 7,-8 5,0 8,3 8,8 0,3 -2,6 -4,7l0 70zm-26 -34l-20 0 -27 -36 -58 0c-2,3 -4,4 -8,4 -4,0 -8,-3 -8,-8 0,-4 4,-7 8,-7 4,0 6,1 8,4l62 0 26 36 10 0 0 -31c-3,-1 -5,-4 -5,-7 0,-4 4,-8 8,-8 5,0 8,4 8,8 0,3 -2,6 -4,7l0 38zm-18 -262c7,0 13,-3 18,-8 4,-4 7,-11 7,-18 0,-7 -3,-13 -7,-18 -5,-4 -11,-7 -18,-7l-2 0c-7,0 -13,3 -18,7 -5,5 -8,11 -8,18 0,7 3,14 8,18 5,5 11,8 18,8l2 0zm371 -69c6,0 11,-2 15,-6 4,-4 6,-9 6,-15 0,-6 -2,-12 -6,-15 -4,-4 -9,-7 -15,-7l-2 0c-6,0 -11,3 -15,7 -4,3 -6,9 -6,15 0,6 2,11 6,15 4,4 9,6 15,6l2 0zm112 477c-3,0 -6,1 -9,2 -3,0 -5,2 -7,3 -6,6 -9,14 -9,22 0,8 3,16 9,22 2,1 4,3 7,3 3,1 6,1 9,1 0,0 0,0 0,0 7,0 13,-1 19,-2 3,-1 6,-2 8,-2l0 -44c0,0 -1,0 -1,0 -1,0 -4,-1 -6,-2 -6,-1 -13,-3 -20,-3 0,0 0,0 0,0 0,0 0,0 0,0zm-217 -107c4,0 9,-2 12,-5 3,-3 5,-7 5,-12l0 -33c0,-5 -2,-9 -5,-12 -3,-3 -8,-5 -12,-5 -5,0 -10,2 -13,5 -3,3 -5,7 -5,12l0 33c0,5 2,9 5,12 3,3 8,5 13,5zm-144 -100l0 6 0 -6zm0 6c-4,0 -8,2 -11,5 -2,2 -4,6 -4,10l0 69c0,4 2,8 4,11l23 23c3,2 7,4 10,4l152 0c4,0 8,-2 11,-4 2,-3 4,-7 4,-11l0 -92c0,-4 -2,-8 -4,-10 -3,-3 -7,-5 -11,-5l-174 0z"/>
  <path class="fil1" d="M60 1112l661 0c0,25 20,45 44,45l310 0c25,0 45,-20 45,-45l660 0c33,0 60,27 60,60l0 0c0,33 -27,60 -60,60l-1720 0c-33,0 -60,-27 -60,-60l0 0c0,-33 27,-60 60,-60zm825 -577l0 -297 126 0c32,0 55,2 69,8 15,5 26,15 35,28 9,14 13,30 13,47 0,22 -6,41 -19,55 -14,15 -33,24 -59,28 13,7 23,16 32,25 8,9 20,25 34,48l36 58 -72 0 -43 -65c-15,-23 -26,-38 -31,-44 -6,-5 -12,-10 -18,-12 -7,-2 -17,-3 -31,-3l-12 0 0 124 -60 0 0 0zm186 320l0 -241 32 0 0 213 119 0 0 28 -151 0zm299 -22c-11,10 -21,16 -31,20 -11,4 -21,6 -33,6 -19,0 -34,-5 -44,-14 -11,-10 -16,-22 -16,-36 0,-9 2,-16 6,-23 4,-8 9,-13 15,-17 7,-5 14,-8 22,-10 5,-2 14,-3 26,-5 24,-2 42,-6 53,-10 0,-4 0,-6 0,-7 0,-12 -3,-21 -8,-26 -8,-6 -19,-10 -34,-10 -14,0 -24,3 -31,8 -7,4 -12,13 -15,26l-29 -4c3,-13 7,-23 13,-31 6,-7 15,-13 26,-17 12,-4 25,-6 40,-6 15,0 27,1 37,5 9,3 16,8 20,13 5,5 8,12 10,20 0,5 1,14 1,28l0 39c0,27 1,45 2,52 1,7 3,14 7,21l-31 0c-3,-6 -5,-13 -6,-22zm-2 -65c-11,4 -27,8 -48,11 -13,1 -21,3 -26,6 -5,2 -9,5 -12,9 -3,4 -4,9 -4,14 0,8 3,14 9,20 6,5 15,8 26,8 11,0 22,-3 30,-8 9,-5 16,-12 20,-20 3,-7 5,-17 5,-30l0 -10zm75 154l0 -242 27 0 0 23c7,-9 14,-15 22,-20 8,-4 18,-6 29,-6 15,0 28,3 39,11 12,8 20,19 26,33 6,13 9,29 9,45 0,18 -3,34 -10,49 -6,14 -15,25 -28,32 -12,8 -25,12 -38,12 -10,0 -19,-2 -27,-6 -7,-5 -14,-10 -19,-16l0 85 -30 0zm27 -153c0,22 5,39 14,49 9,11 20,17 33,17 13,0 24,-6 34,-17 9,-11 14,-28 14,-52 0,-22 -5,-39 -14,-50 -9,-11 -20,-16 -33,-16 -12,0 -23,6 -33,17 -10,12 -15,29 -15,52zm225 60l4 26c-8,2 -16,2 -22,2 -11,0 -19,-1 -25,-5 -6,-3 -10,-8 -13,-13 -2,-6 -3,-17 -3,-35l0 -101 -22 0 0 -23 22 0 0 -43 29 -18 0 61 30 0 0 23 -30 0 0 103c0,8 1,13 2,16 1,2 3,4 5,6 2,1 6,2 10,2 3,0 8,-1 13,-1zm18 -61c0,-33 9,-56 27,-72 15,-13 33,-19 55,-19 24,0 44,7 59,23 15,16 23,38 23,65 0,23 -4,40 -10,53 -7,13 -17,23 -30,30 -13,7 -27,11 -42,11 -24,0 -44,-8 -59,-24 -15,-15 -23,-38 -23,-67zm30 0c0,22 5,39 15,50 10,11 22,17 37,17 15,0 27,-6 37,-17 10,-11 14,-28 14,-51 0,-22 -5,-38 -14,-49 -10,-11 -22,-17 -37,-17 -15,0 -27,6 -37,17 -10,11 -15,27 -15,50zm168 154l0 -242 27 0 0 23c7,-9 14,-15 22,-20 8,-4 18,-6 29,-6 15,0 28,3 39,11 12,8 20,19 26,33 6,13 9,29 9,45 0,18 -3,34 -10,49 -6,14 -15,25 -28,32 -12,8 -25,12 -38,12 -10,0 -19,-2 -27,-6 -8,-5 -14,-10 -19,-16l0 85 -30 0zm27 -153c0,22 5,39 14,49 9,11 20,17 33,17 13,0 24,-6 34,-17 9,-11 14,-28 14,-52 0,-22 -5,-39 -14,-50 -9,-11 -20,-16 -33,-16 -12,0 -23,6 -33,17 -10,12 -15,29 -15,52zm149 34l29 -5c2,12 6,21 14,27 7,6 18,10 31,10 14,0 24,-3 31,-9 6,-5 10,-12 10,-19 0,-7 -3,-12 -9,-16 -4,-3 -14,-6 -31,-10 -21,-6 -36,-10 -45,-14 -8,-4 -14,-10 -19,-17 -4,-7 -6,-15 -6,-23 0,-8 2,-15 5,-22 4,-6 9,-12 15,-16 4,-4 11,-6 19,-9 8,-2 16,-3 25,-3 14,0 26,2 36,6 10,4 18,9 23,16 5,6 8,15 10,27l-29 4c-1,-9 -5,-16 -11,-21 -6,-6 -15,-8 -27,-8 -13,0 -23,2 -29,7 -6,4 -8,9 -8,15 0,4 1,8 3,11 3,3 6,6 11,8 3,1 12,3 27,7 20,6 35,10 43,14 9,3 15,9 20,15 5,7 7,16 7,26 0,9 -3,19 -9,27 -5,9 -14,16 -25,21 -10,4 -23,7 -36,7 -23,0 -40,-5 -52,-14 -12,-10 -20,-24 -23,-42zm-1142 -439l44 0c29,0 47,-2 54,-4 8,-2 13,-7 17,-13 4,-6 6,-13 6,-22 0,-10 -2,-18 -8,-24 -5,-7 -13,-10 -22,-12 -5,-1 -20,-1 -44,-1l-47 0 0 76 0 0zm364 103l57 9c-8,21 -19,37 -35,48 -16,11 -35,16 -59,16 -37,0 -65,-12 -83,-36 -14,-20 -21,-45 -21,-75 0,-36 9,-63 28,-84 18,-20 42,-30 70,-30 32,0 58,11 76,32 19,21 27,53 27,97l-143 0c1,17 5,30 14,39 9,10 20,15 33,15 9,0 16,-3 22,-8 6,-4 11,-12 14,-23l0 0zm3 -58c0,-16 -4,-29 -13,-37 -8,-9 -17,-13 -29,-13 -13,0 -23,4 -31,13 -8,9 -12,22 -12,37l85 0 0 0zm102 -89l53 0 0 31c7,-11 16,-19 28,-26 11,-7 25,-10 39,-10 25,0 46,10 63,30 18,19 27,46 27,81 0,36 -9,64 -27,85 -17,19 -39,29 -64,29 -12,0 -22,-2 -32,-7 -10,-4 -20,-13 -31,-24l0 108 -56 0 0 -297 0 0zm55 104c0,24 5,42 15,54 10,11 21,17 35,17 13,0 24,-5 33,-16 9,-11 13,-28 13,-52 0,-23 -5,-40 -14,-51 -8,-11 -20,-16 -33,-16 -14,0 -26,5 -35,16 -9,11 -14,27 -14,48zm242 -38l-51 -9c5,-21 16,-37 30,-47 14,-10 35,-15 63,-15 25,0 44,3 57,9 12,6 21,14 26,23 5,9 8,26 8,51l-1 66c0,19 1,33 3,42 1,9 5,19 10,29l-57 0c-1,-4 -3,-9 -5,-17 -1,-3 -2,-5 -2,-6 -10,9 -20,17 -31,21 -12,5 -23,7 -36,7 -22,0 -39,-6 -52,-18 -13,-12 -19,-27 -19,-45 0,-12 3,-23 9,-33 5,-9 13,-16 24,-22 10,-5 25,-9 45,-13 27,-5 45,-10 56,-14l0 -6c0,-11 -3,-19 -9,-23 -5,-5 -15,-7 -30,-7 -10,0 -18,2 -24,6 -6,4 -10,11 -14,21l0 0zm77 46c-8,2 -19,5 -35,9 -16,3 -26,6 -31,10 -8,5 -11,12 -11,20 0,8 3,15 9,20 6,6 13,9 22,9 11,0 20,-3 30,-10 7,-5 11,-11 13,-19 2,-5 3,-14 3,-28l0 -11 0 0zm112 -141l0 -53 57 0 0 53 -57 0zm0 244l0 -215 57 0 0 215 -57 0zm169 0l-56 0 0 -215 52 0 0 30c9,-14 18,-24 25,-28 7,-5 15,-7 24,-7 13,0 26,3 38,11l-18 49c-9,-6 -18,-9 -26,-9 -8,0 -15,2 -21,7 -5,4 -10,12 -13,23 -3,12 -5,36 -5,73l0 66zm-1920 -488l478 0c15,-28 44,-47 78,-47 30,0 56,15 72,37l-28 0 -30 0 -14 26 -15 26 15 26 15 26 30 0 27 -1c-16,23 -42,38 -72,38 -34,0 -63,-19 -78,-47l-450 0 0 837 1486 0 0 -78 83 0 0 107c0,30 -25,55 -55,55l-1542 0c-30,0 -55,-25 -55,-55l0 -895c0,-30 25,-55 55,-55zm1514 227l0 -143 -387 0c-23,6 -51,10 -82,10 -34,0 -65,-5 -89,-12 -2,-1 -10,-2 -12,-2l0 -76c2,-1 10,-1 11,-2 24,-8 56,-12 90,-12 31,0 59,3 82,10l415 0c30,0 55,25 55,55l0 172 -83 0z"/>
 </g>
</svg>
