<?xml version="1.0" encoding="UTF-8"?>
<!DOCTYPE svg PUBLIC "-//W3C//DTD SVG 1.1//EN" "http://www.w3.org/Graphics/SVG/1.1/DTD/svg11.dtd">
<!-- Creator: CorelDRAW X8 -->
<svg xmlns="http://www.w3.org/2000/svg" xml:space="preserve" width="100%" height="100%" version="1.1" style="shape-rendering:geometricPrecision; text-rendering:geometricPrecision; image-rendering:optimizeQuality; fill-rule:evenodd; clip-rule:evenodd"
viewBox="0 0 7394 1019"
 xmlns:xlink="http://www.w3.org/1999/xlink">
 <defs>
  <style type="text/css">
   <![CDATA[
    .fil0 {fill:#FEFEFE}
   ]]>
  </style>
 </defs>
 <g id="Слой_x0020_1">
  <metadata id="CorelCorpID_0Corel-Layer"/>
  <path class="fil0" d="M2987 10c-314,18 -587,172 -662,483 -139,576 581,614 956,422 395,-204 555,-953 -294,-905zm4275 642c-86,68 -21,56 -166,118 -634,273 -709,-451 -221,-563 226,-51 351,34 458,131l61 -264c-156,-12 -422,-157 -774,-5 -202,87 -367,246 -391,516 -42,492 641,462 891,373 82,-29 87,-34 107,-119 13,-59 32,-127 35,-187zm-7262 336l327 3 177 -776c138,12 386,-31 328,164 -38,128 -238,123 -376,114 14,52 78,143 111,185 120,4 337,-34 432,-99 128,-88 275,-280 102,-449 -2,-3 -6,-6 -8,-8 -165,-155 -531,-85 -871,-97l-222 963zm4918 6l322 -4 485 -684c2,4 5,5 6,11 1,7 4,9 5,12 28,71 -10,-37 10,24l92 408 -424 2c37,58 111,169 120,232l655 -3 -215 -961 -363 -4c-98,96 -463,658 -599,834 -40,51 -55,80 -94,133zm-3817 -3l327 -1 177 -775c73,-2 178,-3 230,9 170,36 177,311 -276,268 14,52 40,74 68,118l239 377 390 4 -240 -378c237,-59 380,-371 136,-527 -129,-80 -593,-59 -813,-62 -58,108 -198,794 -238,967zm2470 -5l332 6 127 -594c62,102 74,274 138,363 225,-1 180,23 271,-84l80 -99c27,-32 135,-158 144,-181l-136 591 337 2 205 -966c-396,17 -298,-81 -533,231l-205 249 -152 -477 -384 -1 -224 960zm-641 -785c-44,9 -71,21 -104,46 -310,234 -209,672 162,569 340,-95 434,-719 -58,-615z"/>
 </g>
</svg>
