<?xml version="1.0" encoding="UTF-8"?>
<!DOCTYPE svg PUBLIC "-//W3C//DTD SVG 1.1//EN" "http://www.w3.org/Graphics/SVG/1.1/DTD/svg11.dtd">
<!-- Creator: CorelDRAW X8 -->
<svg xmlns="http://www.w3.org/2000/svg" xml:space="preserve" width="100%" height="100%" version="1.1" style="shape-rendering:geometricPrecision; text-rendering:geometricPrecision; image-rendering:optimizeQuality; fill-rule:evenodd; clip-rule:evenodd"
viewBox="0 0 14520 4402"
 xmlns:xlink="http://www.w3.org/1999/xlink">
 <defs>
  <style type="text/css">
   <![CDATA[
    .fil0 {fill:#333333}
    .fil1 {fill:#5A7707}
    .fil2 {fill:#333333;fill-rule:nonzero}
   ]]>
  </style>
 </defs>
 <g id="Слой_x0020_1">
  <metadata id="CorelCorpID_0Corel-Layer"/>
  <g id="_1684926650560">
   <path class="fil0" d="M1673 2441c0,0 0,1 0,1 -11,52 -17,106 -18,161 -5,178 38,346 119,490 0,0 0,0 0,0 0,0 333,-618 595,-779l0 0 0 0 -9 0c-459,10 -687,127 -687,127l0 0zm567 649c-1,-7 -2,-14 -3,-20 -32,-179 -51,-369 -22,-494 -43,45 -81,88 -116,130 -225,268 -283,454 -283,454 0,0 0,0 0,0 30,45 63,87 102,126 122,129 273,216 432,261 0,0 0,0 0,0 0,0 -65,-216 -110,-457l0 0zm202 -53c-61,-55 -112,-110 -147,-163 -1,-2 -3,-5 -5,-8l0 0 0 0 0 2c2,99 9,188 18,266l1 4 0 0c35,283 107,424 107,424l0 0c0,0 0,0 0,0 52,10 106,17 161,19 178,5 346,-37 490,-118 1,0 1,0 1,0 0,0 -375,-204 -616,-417l-4 -3c-2,-2 -4,-4 -6,-6zm313 -3c-72,3 -138,0 -193,-12 -4,-1 -8,-1 -11,-2l0 0c73,71 142,130 205,179l0 0c226,175 376,224 376,224l0 0c0,0 0,0 0,0 45,-30 87,-63 127,-101 130,-122 218,-272 264,-430 0,0 0,0 0,0 0,0 -442,130 -768,142zm437 -464c-13,19 -26,37 -40,56l-2 3 -3 4c-61,82 -126,160 -191,222l-2 2c-3,3 -6,6 -10,9l-3 4c-3,2 -5,4 -8,7 -2,2 -5,4 -7,6 -2,1 -3,3 -5,4 -2,2 -5,5 -8,7l-2 2c-5,4 -10,8 -15,12l0 0c-3,3 -7,5 -10,8l-2 2c-3,2 -6,4 -9,6 -2,1 -3,2 -5,4 -2,1 -4,3 -6,4 -3,2 -6,4 -8,5l-3 3c-4,2 -8,4 -12,7l0 0 0 0c6,0 11,-1 16,-1 62,0 120,-3 174,-8 3,0 6,0 9,0l3 -1c24,-2 47,-4 69,-7l0 0c284,-33 426,-104 426,-104l0 0c0,0 0,0 0,0 11,-52 17,-106 20,-161 7,-178 -35,-346 -114,-491 0,0 0,0 0,0 0,0 -109,197 -252,396l0 0zm-195 115l0 0c71,-72 130,-140 179,-203l0 0c177,-225 226,-376 226,-376l0 0c0,0 0,0 0,0 -29,-45 -62,-87 -100,-128 -121,-130 -270,-218 -430,-264 0,-1 0,-1 0,-1 0,0 197,674 125,972zm-455 -642c36,25 71,51 105,77l4 2 5 4c91,70 174,144 230,215l1 1c3,4 6,8 9,12l1 1c3,3 5,7 8,11l1 2c3,3 5,7 7,10l1 2c3,4 5,7 8,11l0 0 0 0 0 -9c-2,-64 -5,-124 -10,-180 -3,-28 -5,-56 -8,-82l-1 -1c-36,-283 -108,-423 -108,-423l0 0c0,0 0,0 0,0 -52,-12 -106,-18 -161,-20 -178,-5 -346,39 -490,119 0,0 0,0 -1,0 0,0 198,108 400,248l-1 0 0 0zm-458 -210c0,0 0,0 0,0 -45,29 -88,62 -127,100 -131,121 -219,270 -266,430 0,0 0,0 0,0 0,0 675,-197 972,-125 -332,-325 -579,-405 -579,-405z"/>
   <path class="fil1" d="M0 1466l0 2300c0,351 285,636 636,636l3941 0c351,0 636,-285 636,-636l0 -2300c0,-334 -271,-606 -605,-606l-847 0 -20 -88c-82,-354 -394,-601 -758,-601l-79 0 0 261 79 0c242,0 448,164 504,399l43 189c14,59 66,101 127,101l950 0c190,0 345,154 345,345l0 2300c0,207 -169,376 -376,376l-3940 0c-207,0 -375,-169 -375,-376l0 -2300c0,-191 154,-345 344,-345l950 0c61,0 113,-41 127,-101l44 -189c54,-233 257,-396 495,-399l3 13c50,97 151,161 267,161 101,0 191,-50 246,-127l-93 0 -103 2 -50 -89 -51 -88 49 -89 52 -88 101 0 95 0c-55,-77 -145,-127 -246,-127 -116,0 -217,64 -267,161l-3 10c-359,4 -667,249 -750,601l-20 88 -846 0c-334,0 -605,273 -605,606zm1794 434l0 0 -106 -53 -40 40 -27 40 80 93c-33,45 -58,90 -72,127 -4,6 -7,13 -10,19l-118 -13 -26 53 -13 40 93 80c-8,29 -15,58 -20,87 -5,24 -9,49 -13,74l-114 12 -13 54 0 53 117 39c0,55 5,109 13,162l-103 52 0 53 13 53 127 0c8,26 16,50 26,75 9,28 19,57 33,85l-80 80 27 40 13 53 120 -40c5,5 10,11 15,16 12,17 25,34 38,51 17,23 34,46 54,66l-54 107 40 27 27 40 107 -67c5,3 10,7 16,11 20,16 42,31 64,45 18,14 37,26 53,37l-14 120 40 13 40 27 80 -93 1 0c31,12 61,22 93,32 22,8 44,16 66,21l13 120 54 0 53 13 38 -114c17,1 34,2 51,3 27,2 55,2 82,-1 15,-1 29,-2 43,-3l39 115 53 -13 53 -13 0 -112c45,-10 89,-22 132,-38 14,-3 28,-7 41,-10l67 93 53 -27 40 -26 -25 -112c51,-30 100,-64 145,-101l93 66 40 -40 40 -26 -64 -102c40,-43 76,-88 108,-137l116 39 27 -53 26 -40 -92 -79c22,-46 41,-93 57,-142 2,-6 5,-13 9,-19l119 0 0 -53 14 -53 -102 -51c8,-51 11,-104 11,-157 0,-2 0,-4 0,-6l117 -39 -13 -54 0 -53 -116 -13c-9,-60 -23,-118 -42,-175l105 -65 -27 -40 -13 -53 -120 13c-9,-13 -17,-27 -26,-41 -19,-35 -40,-68 -62,-99l75 -100 -40 -39 -27 -40 -106 53c-3,-2 -6,-3 -9,-5 -37,-39 -78,-76 -121,-109l50 -113 -54 -26 -40 -27 -79 80c-18,-9 -35,-17 -52,-25 -35,-18 -71,-34 -107,-48l12 -113 -53 -27 -53 -13 -54 106c-29,-7 -63,-10 -96,-14 -8,-1 -16,-2 -24,-3 -18,-2 -36,-5 -53,-9l-26 -107 -54 0 -53 0 -25 113c-44,4 -87,10 -130,19 -10,1 -21,1 -31,1l-67 -93 -53 13 -40 14 0 120c-7,4 -15,9 -23,13 -43,19 -85,40 -126,65l-91 -78 -40 26 -40 27 40 106c-40,40 -80,80 -120,120l0 0zm813 -96c459,0 834,375 834,834 0,460 -375,834 -834,834 -460,0 -834,-374 -834,-834 0,-459 374,-834 834,-834zm-1551 -126c0,-97 -78,-175 -174,-175 -96,0 -174,78 -174,175 0,96 78,174 174,174 96,0 174,-78 174,-174z"/>
   <path class="fil2" d="M7096 2525l-189 0c-19,0 -34,-8 -43,-25l-326 -566 -175 0 0 540c0,14 -4,26 -14,36 -10,10 -21,15 -35,15l-177 0c-14,0 -25,-5 -36,-15 -9,-10 -14,-22 -14,-36l0 -1329c0,-14 5,-26 14,-35 11,-10 22,-15 36,-15l485 0c112,0 210,28 294,83 57,38 102,87 133,145 32,59 48,123 48,192 0,69 -16,133 -48,191 -49,91 -125,155 -227,193l317 551c5,8 8,16 8,24 0,9 -3,17 -8,26 -9,17 -24,25 -43,25zm-474 -847c54,0 100,-13 136,-38 42,-29 62,-71 62,-125 0,-55 -20,-97 -62,-125 -36,-26 -82,-39 -136,-39l-259 0 0 327 259 0zm1696 847l-841 0c-14,0 -26,-5 -36,-15 -10,-10 -15,-22 -15,-36l0 -1329c0,-14 5,-26 15,-35 10,-10 22,-15 36,-15l841 0c14,0 25,5 35,15 10,9 15,21 15,35l0 156c0,13 -5,25 -15,35 -10,10 -21,15 -35,15l-615 0 0 325 557 0c14,0 26,5 36,14 9,11 14,22 14,36l0 156c0,14 -5,26 -14,35 -10,11 -22,15 -36,15l-557 0 0 336 615 0c14,0 25,5 35,15 10,10 15,22 15,35l0 156c0,14 -5,26 -15,36 -10,10 -21,15 -35,15zm1724 0l-171 0c-14,0 -26,-5 -36,-15 -10,-10 -15,-22 -15,-36l0 -899 -390 614c-10,16 -24,24 -42,24 -18,0 -32,-8 -42,-24l-390 -614 0 899c0,14 -5,26 -14,36 -10,10 -22,15 -36,15l-173 0c-13,0 -25,-5 -35,-15 -10,-10 -15,-22 -15,-36l0 -1329c0,-14 5,-26 15,-35 10,-10 22,-15 35,-15l185 0c18,0 32,8 42,23l428 670 428 -670c10,-15 24,-23 43,-23l183 0c14,0 26,5 36,15 10,9 15,21 15,35l0 1329c0,14 -5,26 -15,36 -10,10 -22,15 -36,15zm1039 22c-104,0 -198,-18 -285,-55 -90,-39 -168,-96 -231,-173 -58,-68 -101,-148 -130,-238 -27,-85 -40,-176 -40,-271 0,-95 13,-186 40,-271 29,-91 72,-171 130,-239 63,-76 141,-133 231,-172 87,-37 181,-56 285,-56 103,0 198,19 284,56 91,39 168,96 232,172 57,68 100,148 129,239 27,85 41,176 41,271 0,95 -14,186 -41,271 -29,90 -72,170 -129,238 -64,77 -141,134 -232,173 -86,37 -181,55 -284,55zm0 -251c137,0 243,-54 318,-160 61,-88 92,-196 92,-326 0,-130 -31,-239 -92,-327 -76,-106 -182,-159 -318,-159 -136,0 -242,53 -318,159 -61,88 -92,197 -92,327 0,130 31,239 92,326 75,106 181,160 318,160zm2021 229l-174 0c-19,0 -33,-8 -43,-23l-578 -907 0 879c0,14 -5,26 -15,36 -10,10 -21,15 -35,15l-173 0c-14,0 -26,-5 -36,-15 -10,-10 -15,-22 -15,-36l0 -1329c0,-14 5,-26 15,-35 10,-10 22,-15 36,-15l174 0c18,0 32,8 42,23l579 907 0 -880c0,-14 5,-26 15,-35 10,-10 22,-15 36,-15l172 0c14,0 26,5 36,15 10,9 15,21 15,35l0 1329c0,14 -5,26 -15,36 -10,10 -22,15 -36,15zm864 0l-177 0c-13,0 -25,-5 -35,-15 -9,-10 -14,-22 -14,-36l0 -1123 -313 0c-14,0 -25,-5 -35,-15 -10,-10 -15,-22 -15,-35l0 -156c0,-14 5,-26 15,-35 10,-10 21,-15 35,-15l902 0c13,0 25,5 35,15 10,9 15,21 15,35l0 156c0,13 -5,25 -15,35 -10,10 -22,15 -35,15l-313 0 0 1123c0,14 -5,26 -15,36 -9,10 -21,15 -35,15zm-7267 1877c-104,0 -198,-18 -285,-55 -90,-39 -168,-96 -231,-173 -58,-68 -101,-148 -130,-238 -27,-85 -40,-176 -40,-271 0,-95 13,-186 40,-271 29,-91 72,-171 130,-239 63,-76 141,-133 231,-172 87,-37 181,-56 285,-56 79,0 159,11 239,32 83,23 156,54 221,94 16,11 23,25 23,43 0,9 -2,17 -6,25l-79 135c-10,17 -24,25 -45,25 -10,0 -19,-3 -27,-9 -42,-30 -95,-53 -156,-70 -57,-15 -114,-23 -172,-23 -67,0 -126,14 -178,40 -54,27 -100,67 -138,119 -61,88 -92,197 -92,327 0,130 31,238 92,326 75,106 181,160 318,160 56,0 113,-8 170,-23 61,-17 114,-40 156,-70 8,-6 17,-9 27,-9 21,0 35,8 45,25l79 135c4,8 6,16 6,24 0,18 -7,32 -23,43 -65,41 -138,72 -221,95 -80,21 -160,31 -239,31zm1487 -636l-164 -469 -166 469 330 0zm-535 580c-8,23 -24,34 -47,34l-187 0c-20,0 -34,-8 -42,-22 -4,-8 -6,-17 -6,-27 0,-10 5,-26 14,-50l471 -1298c3,-10 9,-18 17,-24 9,-6 19,-9 29,-9l242 0c23,0 39,11 48,33l470 1298c10,24 14,40 14,50 0,10 -2,19 -6,27 -8,14 -22,22 -41,22l-188 0c-23,0 -39,-11 -47,-34l-115 -324 -511 0 -115 324zm2630 34l-172 0c-13,0 -25,-5 -35,-15 -10,-10 -15,-22 -15,-36l0 -899 -390 614c-10,16 -24,24 -42,24 -18,0 -32,-8 -42,-24l-390 -614 0 899c0,14 -5,26 -15,36 -9,10 -21,15 -35,15l-173 0c-14,0 -25,-5 -35,-15 -10,-10 -15,-22 -15,-36l0 -1329c0,-14 5,-26 15,-35 10,-10 21,-15 35,-15l185 0c18,0 32,8 42,23l428 670 428 -670c10,-15 24,-23 43,-23l183 0c14,0 26,5 36,15 9,9 14,21 14,35l0 1329c0,14 -5,26 -14,36 -10,10 -22,15 -36,15zm1318 0l-841 0c-14,0 -26,-5 -36,-15 -9,-10 -15,-22 -15,-36l0 -1329c0,-14 6,-26 15,-35 10,-10 22,-15 36,-15l841 0c14,0 26,5 35,15 11,9 15,21 15,35l0 156c0,13 -4,25 -15,35 -9,10 -21,15 -35,15l-615 0 0 325 557 0c14,0 26,5 36,14 9,11 14,22 14,36l0 156c0,14 -5,26 -14,36 -10,10 -22,14 -36,14l-557 0 0 336 615 0c14,0 26,5 35,15 11,10 15,22 15,35l0 156c0,14 -4,26 -15,36 -9,10 -21,15 -35,15zm1374 0l-189 0c-19,0 -33,-8 -43,-25l-326 -566 -174 0 0 540c0,14 -5,26 -15,36 -9,10 -21,15 -35,15l-177 0c-13,0 -25,-5 -35,-15 -10,-10 -15,-22 -15,-36l0 -1329c0,-14 5,-26 15,-35 10,-10 22,-15 35,-15l485 0c113,0 211,28 294,83 57,38 102,87 134,145 31,59 47,123 47,192 0,69 -16,133 -47,191 -50,91 -125,155 -228,193l318 551c5,8 7,16 7,24 0,9 -2,17 -7,26 -10,17 -24,25 -44,25zm-474 -847c55,0 100,-13 136,-38 42,-29 62,-71 62,-125 0,-55 -20,-96 -62,-125 -36,-26 -81,-39 -136,-39l-258 0 0 327 258 0zm1533 233l-165 -469 -165 469 330 0zm-535 580c-8,23 -24,34 -47,34l-188 0c-20,0 -34,-8 -41,-22 -4,-8 -6,-17 -6,-27 0,-10 4,-26 13,-50l472 -1298c3,-10 9,-18 17,-24 9,-6 18,-9 29,-9l242 0c23,0 38,11 47,33l471 1298c9,24 14,40 14,50 0,10 -2,19 -6,27 -8,14 -22,22 -42,22l-187 0c-23,0 -39,-11 -48,-34l-114 -324 -511 0 -115 324z"/>
  </g>
 </g>
</svg>
