<svg id="play-blog.svg" xmlns="http://www.w3.org/2000/svg" width="82" height="82" viewBox="0 0 82 82"><defs><style>.cls-1{fill:#7da60a}.cls-2{fill:#fff;fill-rule:evenodd}</style></defs><circle class="cls-1" cx="41.375" cy="41.375" r="39.875"/><path class="cls-2" d="M2090.99 1645.99a40.99 40.99 0 1 0-41-40.99 41.037 41.037 0 0 0 41 40.99zm0-78.83a37.835 37.835 0 1 1-37.83 37.83 37.849 37.849 0 0 1 37.83-37.83zm-5.4 49.86a2.753 2.753 0 0 0 .88.13 2.627 2.627 0 0 0 1.58-.49l14.44-10.86a1.472 1.472 0 0 0 .66-1.19 1.391 1.391 0 0 0-.66-1.18l-14.49-10.86a2.878 2.878 0 0 0-2.46-.37 1.738 1.738 0 0 0-1.37 1.56v21.71a1.8 1.8 0 0 0 1.42 1.55z" transform="translate(-2050 -1564)"/></svg>