<svg xmlns="http://www.w3.org/2000/svg" width="19" height="21" viewBox="0 0 19 21"><defs><style>.cls-1{fill:#fff;fill-rule:evenodd}</style></defs><path id="bell.svg" class="cls-1" d="M1704.06 1518.3v-3.15a7.392 7.392 0 0 0-4.77-6.95 2.863 2.863 0 0 0-5.57 0 7.387 7.387 0 0 0-4.78 6.95v3.15l-1.7 1.71a.8.8 0 0 0-.24.56v2.4a.8.8 0 0 0 .81.79h5.36a3.336 3.336 0 0 0 6.67 0h5.36a.794.794 0 0 0 .8-.79v-2.4a.787.787 0 0 0-.23-.56zm-7.56 7.14a1.806 1.806 0 0 1-1.73-1.68h3.46a1.8 1.8 0 0 1-1.73 1.68zm7.89-3.25h-15.78v-1.31l1.94-1.94v-3.79a5.827 5.827 0 0 1 4.71-5.77v-.55a1.245 1.245 0 1 1 2.49 0v.55a5.827 5.827 0 0 1 4.71 5.77v3.79l1.94 1.94v1.31h-.01z" transform="translate(-1687 -1506)"/></svg>