<svg xmlns="http://www.w3.org/2000/svg" width="29" height="29" viewBox="0 0 29 29"><defs><style>.cls-1{fill:#8f9bae;fill-rule:evenodd}</style></defs><path id="time.svg" class="cls-1" d="M1865.98 928.575A14.761 14.761 0 0 1 1850.85 943a14.408 14.408 0 0 1-10.38-5.05c-.55.3-.97.533-1.02.559a.306.306 0 0 1-.45-.288c0-.214.02-4.5.03-4.869a.29.29 0 0 1 .45-.25c.23.138 3.91 2.412 4.17 2.579a.3.3 0 0 1 0 .527c-.08.046-.68.373-1.4.767a12.441 12.441 0 0 0 8.67 4.027 12.8 12.8 0 0 0 13.12-12.5 12.491 12.491 0 0 0-.04-1.5h.01a1 1 0 0 1 .9-1 .974.974 0 0 1 1.04.925.7.7 0 0 1 0 .145h.01a14.969 14.969 0 0 1 .02 1.503zm-15.49-6.077a1 1 0 0 1 2 0l.42 5.434 2.56 3.123a1 1 0 0 1-1.42 1.414l-3.19-2.615a1.157 1.157 0 0 1-.86-.854v-.1a1.41 1.41 0 0 1 .03-.4zm13.05.937c-.23-.129-4.03-2.254-4.3-2.412a.3.3 0 0 1-.02-.525c.09-.049.68-.4 1.39-.819a12.606 12.606 0 0 0-8.89-3.682 12.872 12.872 0 0 0-12.76 12.972 14.727 14.727 0 0 0 .09 1.5h-.01a.978.978 0 0 1-1.95.145.7.7 0 0 1 0-.145h-.02c-.04-.492-.07-.991-.07-1.5A14.845 14.845 0 0 1 1851.72 914a14.547 14.547 0 0 1 10.64 4.637c.55-.325.96-.57 1.01-.6a.311.311 0 0 1 .47.27c.01.213.14 4.493.15 4.859a.3.3 0 0 1-.45.269z" transform="translate(-1837 -914)"/></svg>