<?xml version="1.0" encoding="UTF-8"?>
<!DOCTYPE svg PUBLIC "-//W3C//DTD SVG 1.1//EN" "http://www.w3.org/Graphics/SVG/1.1/DTD/svg11.dtd">
<!-- Creator: CorelDRAW X8 -->
<svg xmlns="http://www.w3.org/2000/svg" xml:space="preserve" width="100%" height="100%" version="1.1" style="shape-rendering:geometricPrecision; text-rendering:geometricPrecision; image-rendering:optimizeQuality; fill-rule:evenodd; clip-rule:evenodd"
viewBox="0 0 6657 1714"
 xmlns:xlink="http://www.w3.org/1999/xlink">
 <defs>
  <style type="text/css">
   <![CDATA[
    .fil2 {fill:#FEFEFE}
    .fil1 {fill:#f42b36}
    .fil0 {fill:#1f5f9e}
    .fil3 {fill:#f42b36;fill-rule:nonzero}
    .fil4 {fill:#1f5f9e;fill-rule:nonzero}
    .fil5 {fill:#1f5f9e;fill-rule:nonzero}
   ]]>
  </style>
 </defs>
 <g id="Слой_x0020_1">
  <metadata id="CorelCorpID_0Corel-Layer"/>
  <g id="_2204151078416">
   <path class="fil0" d="M1094 490c106,81 187,192 232,320l-208 0c-35,-68 -85,-127 -146,-172l122 -148zm232 764c-92,267 -346,460 -645,460 -376,0 -681,-305 -681,-682 0,-276 165,-514 401,-621 -26,34 -49,72 -69,113 -40,82 -60,165 -62,243 -50,76 -78,168 -78,265 0,271 219,490 489,490 191,0 357,-109 437,-268l208 0z"/>
   <path class="fil1" d="M1030 915c-10,-30 -24,-59 -41,-86 5,-11 13,-22 23,-31 9,-9 10,-23 3,-33 -20,-26 -43,-49 -69,-69 -5,-4 -11,-6 -17,-5l-124 151c59,40 98,107 101,183 -1,3 -1,5 -1,7l0 0c0,2 0,4 1,6 -4,124 -105,223 -229,223 -113,0 -207,-82 -226,-189 -53,-38 -83,-54 -132,-144 -2,9 -5,17 -6,26 -12,4 -26,7 -39,7 -14,-1 -24,9 -25,21 -4,32 -4,65 0,98 1,12 15,21 28,21 12,0 24,2 35,6 9,47 27,90 52,128 -5,12 -13,23 -23,32 -9,8 -10,22 -2,32 20,26 43,49 68,69 10,8 24,7 33,-2 8,-10 20,-18 32,-23 38,25 81,44 128,54 4,12 6,25 5,38 0,13 9,24 22,25 16,2 33,3 49,3 16,0 32,-1 48,-3 12,-1 21,-12 21,-24 -1,-14 2,-27 7,-39 45,-9 88,-27 126,-51 12,5 24,12 33,22 8,9 22,11 32,3 26,-20 49,-44 70,-69 8,-10 7,-24 -3,-33 -10,-9 -17,-20 -23,-31 19,-28 33,-58 44,-90l202 0c64,0 117,-52 117,-116l0 0c0,-64 -53,-117 -117,-117l-203 0z"/>
   <path class="fil0" d="M644 1123c-130,-47 -264,-130 -299,-274 -34,-146 46,-295 134,-406 48,-61 104,-145 117,-223 23,-139 -26,-157 -39,-220l53 20c56,21 105,57 138,106 39,55 53,122 46,189 -9,82 -49,158 -100,222 -35,44 -71,87 -101,134 -23,36 -44,76 -50,118 -17,108 65,210 134,283l91 96 -124 -45z"/>
   <path class="fil2" d="M416 840c-2,-23 -2,-47 2,-72 9,-56 34,-107 64,-155 32,-50 70,-96 107,-142 39,-49 73,-109 80,-173 2,-25 1,-50 -6,-73 0,0 0,1 0,2 -14,98 -77,194 -138,270 -67,85 -142,211 -115,323 2,7 4,14 6,20z"/>
   <path class="fil0" d="M743 1008c-67,-50 -124,-117 -117,-206 6,-93 79,-179 142,-242 47,-47 92,-101 96,-171 0,-16 -1,-32 -3,-48l-2 -20 17 11c31,20 57,50 71,85 36,86 -7,168 -75,223 -45,37 -98,80 -124,133 -36,72 -18,152 10,224l11 29 -26 -18z"/>
   <path class="fil2" d="M668 779c4,-16 9,-31 17,-45 30,-63 85,-110 139,-153 42,-33 74,-81 65,-134 -19,52 -56,96 -96,136 -49,50 -114,123 -125,196z"/>
   <path class="fil3" d="M1858 341l0 289 167 -289 151 0 -193 332 225 321 -160 0 -190 -274 0 274 -131 0 0 -653 131 0zm713 -5c91,0 169,33 234,98 65,65 98,143 98,234 0,92 -33,170 -98,234 -65,64 -143,96 -234,96 -91,0 -169,-32 -234,-96 -64,-65 -97,-143 -97,-234 0,-91 33,-169 97,-234 65,-65 143,-98 234,-98zm0 133c-55,0 -102,19 -140,58 -39,39 -59,86 -59,140 0,55 20,102 59,141 38,38 85,58 140,58 54,0 101,-20 140,-58 39,-39 59,-86 59,-141 0,-54 -20,-101 -59,-140 -39,-39 -85,-58 -140,-58zm998 79c-19,-20 -42,-30 -69,-30l-98 0 0 282 98 1c27,0 50,-10 69,-30 20,-19 30,-58 30,-117 0,-52 -10,-87 -30,-106zm-465 223c19,20 42,30 69,30l98 0 0 -283 -98 0c-27,0 -50,10 -69,29 -20,20 -30,55 -30,107 0,58 10,98 30,117zm298 -383l98 0c64,0 118,22 162,67 45,45 68,111 68,199 0,96 -23,166 -68,209 -45,45 -99,67 -162,67l-98 0 0 64 -131 0 0 -63 -98 0c-64,0 -118,-23 -162,-67 -45,-45 -68,-115 -68,-210 0,-89 23,-155 68,-199 45,-44 99,-67 162,-67l98 0 0 -46 131 0 0 46zm778 -48l0 131 -262 0 0 131 196 0 0 131 -196 0 0 131 262 0 0 131 -394 0 0 -655 394 0z"/>
   <path class="fil3" d="M5215 994c-48,0 -91,-10 -129,-29 -38,-19 -67,-43 -88,-74l76 -79c16,21 36,38 60,50 24,13 49,19 75,19 33,0 57,-8 73,-23 16,-15 24,-36 24,-61 0,-54 -34,-80 -102,-80 -33,0 -53,1 -59,2l0 -115c6,1 25,1 56,1 29,0 53,-6 70,-18 18,-13 26,-31 26,-55 0,-26 -8,-46 -25,-59 -16,-13 -39,-20 -67,-20 -51,0 -93,21 -127,64l-72 -74c49,-68 119,-103 209,-103 64,0 114,15 152,45 37,30 56,72 56,127 0,35 -12,67 -35,93 -23,27 -51,44 -85,51 35,5 65,22 91,50 25,27 38,61 38,102 0,56 -20,100 -59,135 -40,34 -92,51 -158,51z"/>
   <path class="fil3" d="M4724 994c-59,0 -109,-17 -150,-50 -42,-32 -71,-73 -89,-120 -17,-48 -26,-100 -26,-157 0,-57 9,-110 26,-157 18,-48 47,-88 89,-121 41,-32 91,-49 150,-49 45,0 84,10 119,28 35,18 63,43 83,74 21,32 36,66 47,104 10,38 15,78 15,121 0,42 -5,82 -15,120 -11,37 -26,72 -46,103 -20,32 -48,57 -83,76 -35,18 -75,28 -120,28zm0 -113c99,0 149,-71 149,-214 0,-143 -50,-214 -149,-214 -99,0 -148,71 -148,214 0,143 49,214 148,214z"/>
   <polygon class="fil4" points="4628,637 4693,637 4693,549 4754,549 4754,637 4820,637 4820,698 4754,698 4754,785 4693,785 4693,698 4628,698 "/>
   <path class="fil5" d="M1920 1538c-47,0 -85,-18 -113,-53 -28,-35 -43,-81 -43,-137 0,-56 15,-102 43,-137 28,-35 66,-53 113,-53 55,0 96,30 122,88l-61 27c-6,-15 -14,-27 -24,-36 -11,-9 -23,-13 -37,-13 -25,0 -44,11 -58,34 -15,24 -22,53 -22,90 0,37 7,67 22,90 14,23 33,34 58,34 14,0 27,-4 37,-14 11,-10 19,-23 25,-39l61 26c-26,62 -67,93 -123,93zm390 -7l-78 0 -55 -104 -28 39 0 65 -66 0 0 -265 66 0 0 120 81 -120 77 0 -84 119 87 146zm133 7c-38,0 -67,-14 -88,-41 -22,-26 -32,-60 -32,-99 0,-39 10,-72 32,-99 21,-27 50,-40 88,-40 37,0 67,13 88,40 21,27 32,60 32,99 0,40 -11,73 -32,100 -21,27 -51,40 -88,40zm0 -58c17,0 30,-8 39,-24 8,-15 13,-34 13,-58 0,-23 -5,-43 -13,-58 -9,-15 -22,-23 -39,-23 -17,0 -30,8 -39,23 -8,16 -13,35 -13,58 0,24 5,43 13,58 9,16 22,24 39,24zm299 58c-29,0 -51,-13 -67,-40l0 134 -66 0 0 -366 66 0 0 33c17,-27 39,-40 67,-40 30,0 54,12 72,37 17,25 26,59 26,102 0,43 -9,77 -26,102 -18,25 -42,38 -72,38zm-22 -58c17,0 30,-8 39,-23 9,-15 13,-35 13,-59 0,-24 -4,-43 -13,-58 -9,-15 -22,-23 -39,-23 -8,0 -17,3 -26,9 -8,6 -15,13 -19,22l0 100c4,9 11,16 19,23 9,6 18,9 26,9zm369 51l-66 0 0 -26c-8,10 -18,18 -30,24 -13,6 -26,9 -40,9 -22,0 -42,-8 -58,-24 -16,-16 -24,-37 -24,-64 0,-28 8,-49 24,-64 16,-15 35,-22 58,-22 14,0 28,2 40,8 13,5 23,13 30,23l0 -35c0,-14 -5,-25 -13,-34 -9,-8 -21,-12 -36,-12 -24,0 -46,10 -66,29l-24 -45c26,-26 61,-39 102,-39 31,0 56,8 75,23 19,15 28,39 28,71l0 178zm-111 -38c21,0 36,-8 45,-25l0 -34c-10,-17 -25,-26 -45,-26 -12,0 -22,4 -30,12 -7,8 -11,18 -11,31 0,13 4,23 11,31 8,7 18,11 30,11zm235 38l-74 0 54 -101c-14,-5 -26,-14 -36,-28 -9,-13 -14,-30 -14,-51 0,-24 8,-45 24,-61 17,-16 40,-24 69,-24l127 0 0 265 -66 0 0 -93 -40 0 -44 93zm31 -147l53 0 0 -64 -53 0c-10,0 -19,3 -25,9 -6,6 -9,13 -9,22 0,10 3,18 9,24 6,6 14,9 25,9zm520 147l-77 0 -55 -104 -28 39 0 65 -66 0 0 -265 66 0 0 120 80 -120 77 0 -84 119 87 146zm133 7c-38,0 -67,-14 -88,-41 -22,-26 -32,-60 -32,-99 0,-39 10,-72 32,-99 21,-27 50,-40 88,-40 38,0 67,13 88,40 22,27 32,60 32,99 0,40 -10,73 -32,100 -21,27 -50,40 -88,40zm0 -58c17,0 30,-8 39,-24 9,-15 13,-34 13,-58 0,-23 -4,-43 -13,-58 -9,-15 -22,-23 -39,-23 -17,0 -30,8 -38,23 -9,16 -13,35 -13,58 0,24 4,43 13,58 8,16 21,24 38,24zm245 -221c25,0 45,13 60,40l0 -135 66 0 0 135c15,-27 35,-40 60,-40 28,0 49,12 65,37 16,25 23,59 23,102 0,43 -7,77 -23,102 -16,25 -37,38 -65,38 -26,0 -46,-13 -60,-40l0 134 -66 0 0 -134c-14,27 -34,40 -60,40 -27,0 -49,-13 -64,-38 -16,-24 -24,-59 -24,-102 0,-43 8,-77 24,-102 15,-24 37,-37 64,-37zm22 58c-14,0 -25,8 -32,23 -7,14 -11,34 -11,58 0,24 4,44 12,59 7,15 18,23 32,23 7,0 14,-3 21,-9 7,-7 12,-14 16,-23l0 -99c-4,-9 -9,-17 -16,-23 -7,-6 -15,-9 -22,-9zm141 163c14,0 25,-8 33,-23 7,-15 11,-35 11,-59 0,-24 -3,-43 -11,-58 -7,-15 -18,-23 -32,-23 -7,0 -14,3 -21,9 -7,6 -13,13 -17,22l0 100c4,9 10,16 16,23 7,6 14,9 21,9zm272 58c-37,0 -67,-13 -90,-39 -22,-25 -34,-59 -34,-101 0,-39 11,-73 33,-99 21,-27 50,-40 86,-40 36,0 64,13 84,39 20,27 31,61 31,103l0 19 -167 0c1,19 8,34 19,46 11,12 26,19 45,19 10,0 20,-3 31,-7 11,-5 20,-11 27,-19l30 39c-24,27 -56,40 -95,40zm46 -163c-1,-17 -5,-31 -13,-44 -9,-12 -21,-19 -39,-19 -17,0 -29,7 -38,19 -8,13 -12,27 -13,44l103 0zm210 51l-116 0 0 -56 116 0 0 56zm262 105l-67 0 0 -208 -83 0 0 208 -66 0 0 -265 216 0 0 265zm165 7c-37,0 -67,-14 -88,-41 -21,-26 -32,-60 -32,-99 0,-39 11,-72 32,-99 21,-27 51,-40 88,-40 38,0 67,13 89,40 21,27 32,60 32,99 0,40 -11,73 -32,100 -22,27 -51,40 -89,40zm0 -58c17,0 30,-8 39,-24 9,-15 13,-34 13,-58 0,-23 -4,-43 -13,-58 -9,-15 -22,-23 -39,-23 -17,0 -29,8 -38,23 -9,16 -13,35 -13,58 0,24 4,43 13,58 9,16 21,24 38,24zm445 51l-66 0 0 -161 -59 161 -29 0 -59 -161 0 161 -66 0 0 -265 85 0 54 148 55 -148 85 0 0 265zm165 7c-37,0 -67,-14 -88,-41 -21,-26 -32,-60 -32,-99 0,-39 11,-72 32,-99 21,-27 51,-40 88,-40 38,0 67,13 89,40 21,27 32,60 32,99 0,40 -11,73 -32,100 -22,27 -51,40 -89,40zm0 -58c17,0 30,-8 39,-24 9,-15 13,-34 13,-58 0,-23 -4,-43 -13,-58 -9,-15 -22,-23 -39,-23 -17,0 -29,8 -38,23 -9,16 -13,35 -13,58 0,24 4,43 13,58 9,16 21,24 38,24zm435 -214l66 0 0 208 30 0 0 125 -67 0 0 -68 -298 0 0 -265 66 0 0 208 68 0 0 -208 67 0 0 208 68 0 0 -208zm133 0l66 0 0 93 59 0c30,0 53,8 69,24 16,16 25,37 25,62 0,25 -9,45 -25,62 -17,16 -40,24 -69,24l-125 0 0 -265zm116 146l-50 0 0 65 50 0c11,0 20,-3 26,-9 6,-6 9,-14 9,-23 0,-10 -3,-17 -9,-23 -6,-6 -15,-10 -26,-10z"/>
  </g>
 </g>
</svg>
