<svg xmlns="http://www.w3.org/2000/svg" width="84.91" height="16.22" viewBox="0 0 84.91 16.22"><defs><style>.cls-1{fill:#b5bdc9;fill-rule:evenodd}</style></defs><path id="brand_5.svg" class="cls-1" d="M1296.83 1319.6c.23.07.46.14.7.21a2.815 2.815 0 0 1 2.29 2.76c.04.91.03 1.82.01 2.73a2.874 2.874 0 0 1-1.28 2.2 3.43 3.43 0 0 1 1.42 3.28c-.03.51 0 1.03-.01 1.54a3.044 3.044 0 0 1-2.32 3.09 9.219 9.219 0 0 1-2.39.36c-4.03.04-8.06.02-12.1.02-.76 0-.92-.15-.92-.86q-.015-7.215.01-14.45a2.523 2.523 0 0 1 .36-.88h14.23zm-9.86 12.26h6.87c1.64 0 1.64 0 1.61-1.59-.02-.84-.09-.93-.96-.94-2.37-.01-4.74 0-7.11 0a3.122 3.122 0 0 0-.41.06v2.47zm0-6.28h6.86c1.88 0 1.47.03 1.5-1.42.02-.83-.03-.87-.91-.87-2.34-.01-4.69 0-7.04 0a3.052 3.052 0 0 0-.41.05v2.24zm54.19-5.98c.21.06.42.13.64.18a2.731 2.731 0 0 1 2.34 2.71c.06 1.58.07 3.17 0 4.76a2.91 2.91 0 0 1-2.89 2.82c-.37.04-.74.08-1.24.13 1.28 1.04 2.48 2.01 3.68 2.98.57.47 1.17.9 1.7 1.4a.942.942 0 0 1 .31.79.989.989 0 0 1-.77.4q-2.28.06-4.56 0a1.5 1.5 0 0 1-.91-.36q-2.6-2.325-5.11-4.72a1.673 1.673 0 0 0-1.37-.53c-.53.04-1.07.01-1.69.01v.68c0 1.37.01 2.74 0 4.11a.7.7 0 0 1-.85.83c-1.02 0-2.04-.01-3.06 0a.7.7 0 0 1-.84-.78c.01-4.88 0-9.76.02-14.64a2.231 2.231 0 0 1 .36-.77h14.24zm-9.84 6.77h7.04c.18 0 .37-.01.56-.02a.557.557 0 0 0 .62-.64c-.03-.45-.01-.91-.01-1.37 0-.84-.07-.91-.96-.92h-6.86a3.035 3.035 0 0 0-.39.04v2.91zm35.81 9.06a3.136 3.136 0 0 1-.94.34c-1.58.03-3.16-.01-4.74.02a2.225 2.225 0 0 1-1.48-.47c-2.34-1.72-4.69-3.41-7.04-5.12-.13-.09-.27-.18-.48-.32-.02.22-.05.38-.05.54v4.46c0 .73-.18.9-.96.9-1 0-2 .01-3 0a.7.7 0 0 1-.87-.81q-.015-7.29.01-14.58a2.391 2.391 0 0 1 .32-.79h4.12a2.643 2.643 0 0 1 .36.88c.04 1.39.02 2.77.02 4.16a4.479 4.479 0 0 0 .06.51l7.43-5.55h5.62c.55.51.53.84-.1 1.28q-3.54 2.49-7.09 4.96c-.65.46-1.29.92-1.98 1.41.24.17.42.3.6.43q5.085 3.57 10.19 7.16v.59zm-47.2-15.83a.481.481 0 0 0 .16.08c2.11.4 2.89 1.23 3.07 3.29.02.21.02.43.02.65v2.84h-4.76v-2.89h-10.36v2.91h-4.8c0-1.12-.01-2.24 0-3.36a4.683 4.683 0 0 1 .09-.83 2.886 2.886 0 0 1 2.81-2.58 3.113 3.113 0 0 0 .41-.11h13.36zm-16.71 9.52h4.8v2.58h10.34v-2.56h4.81c-.06 1.63.28 3.31-.4 4.9-.64 1.47-2.04 1.72-3.47 1.73-4.05.04-8.11.02-12.16.01a6.512 6.512 0 0 1-.99-.1 2.845 2.845 0 0 1-2.81-2.63 8.147 8.147 0 0 1-.11-1.3c-.02-.85-.01-1.7-.01-2.63z" transform="translate(-1282.22 -1319.59)"/></svg>