<?xml version="1.0" encoding="UTF-8"?>
<!DOCTYPE svg PUBLIC "-//W3C//DTD SVG 1.1//EN" "http://www.w3.org/Graphics/SVG/1.1/DTD/svg11.dtd">
<!-- Creator: CorelDRAW X8 -->
<svg xmlns="http://www.w3.org/2000/svg" xml:space="preserve" width="100%" height="100%" version="1.1" style="shape-rendering:geometricPrecision; text-rendering:geometricPrecision; image-rendering:optimizeQuality; fill-rule:evenodd; clip-rule:evenodd"
viewBox="0 0 6335 6335"
 xmlns:xlink="http://www.w3.org/1999/xlink">
 <defs>
  <style type="text/css">
   <![CDATA[
    .fil0 {fill:none}
    .fil1 {fill:#9AC516;fill-rule:nonzero}
   ]]>
  </style>
 </defs>
 <g id="Слой_x0020_1">
  <metadata id="CorelCorpID_0Corel-Layer"/>
  <rect class="fil0" width="6335" height="6335"/>
  <path class="fil1" d="M601 4044l383 0 1 -6 0 -1 1 -5 1 -3 0 -4 1 -4 1 -2 1 -6 0 0 1 -6 0 -1 2 -5 0 -3 1 -3 1 -5 1 -1 1 -6 0 0 2 -6 0 -2 2 -4 1 -6 2 -5 0 -1 2 -6 4 -12 1 -3 1 -3 2 -4 0 -1 2 -6 0 0 3 -6 3 -9 1 -2 2 -5 1 -1 2 -6 0 0 3 -5 0 -2 2 -4 1 -3 2 -2 2 -6 3 -5 0 -1 8 -16 3 -4 0 -1 3 -5 0 -1 3 -5 1 -2 2 -3 2 -3 1 -2 3 -5 0 0 4 -6 0 0 3 -5 1 -2 2 -3 2 -3 2 -2 3 -5 0 0 3 -5 1 -1 3 -4 1 -2 2 -3 3 -3 1 -2 3 -5 1 0 3 -5 1 -1 3 -4 1 -2 3 -2 2 -3 1 -2 4 -4 0 -1 4 -4 1 -1 3 -4 2 -2 2 -2 3 -4 1 -1 4 -4 0 -1 4 -4 1 -1 3 -3 2 -3 2 -2 4 -3 1 -1 4 -4c115,-116 274,-187 449,-187 174,0 333,71 448,186l4 4 1 1 3 4 2 2 2 2 5 5 4 4 0 0 4 5 1 1 3 3 2 3 2 2 3 3 1 1 4 5 0 0 3 5 2 1 2 4 2 2 2 2 3 4 1 1 3 5 1 0 3 5 1 1 3 4 2 3 1 2 3 4 1 1 3 5 0 0 3 5 2 2 2 3 2 3 1 2 3 4 0 1 4 5 0 1 3 5 1 1 2 4 2 3 1 2 3 5 0 0 3 6 0 1 3 4 1 2 2 4 1 3 1 2 3 5 0 0 3 6 0 1 2 5 2 2 1 3 2 4 1 2 5 11 0 1 2 5 1 2 1 3 2 4 0 2 3 6 0 0 2 6 0 1 2 4 1 3 1 3 4 12 2 6 0 1 2 5 1 6 2 4 0 2 2 6 0 0 1 6 1 1 1 5 1 3 1 3 1 5 0 1 1 6 0 0 2 6 0 2 1 4 1 4 0 3 1 5 0 1 1 6 1899 0 1 -6 0 -1 1 -5 0 -3 1 -4 1 -4 0 -2 1 -6 0 0 2 -6 0 -1 1 -5 1 -3 1 -3 1 -5 0 -1 2 -6 0 0 2 -6 0 -2 1 -4 2 -6 1 -5 1 -1 2 -6 4 -12 1 -3 1 -3 1 -4 1 -1 2 -6 0 0 2 -6 4 -9 1 -2 2 -5 0 -1 3 -6 0 0 2 -5 1 -2 2 -4 1 -3 1 -2 3 -6 3 -5 0 -1 8 -16 2 -4 1 -1 3 -5 0 -1 3 -5 1 -2 2 -3 2 -3 1 -2 3 -5 0 0 3 -6 1 0 3 -5 1 -2 2 -3 2 -3 1 -2 3 -5 1 0 3 -5 0 -1 3 -4 2 -2 2 -3 2 -3 2 -2 3 -5 0 0 4 -5 0 -1 4 -4 1 -2 2 -2 3 -3 1 -2 4 -4 0 -1 4 -4 0 -1 4 -4 1 -2 3 -2 2 -4 2 -1 4 -4 0 -1 4 -4 1 -1 3 -3 2 -3 2 -2 3 -3 1 -1 5 -4c115,-116 273,-187 448,-187 175,0 334,71 448,186l5 4 1 1 3 4 2 2 2 2 4 5 4 4 0 0 4 5 1 1 3 3 3 3 1 2 3 3 1 1 4 5 0 0 4 5 1 1 3 4 2 2 2 2 3 4 0 1 4 5 0 0 4 5 1 1 2 4 2 3 2 2 3 4 0 1 4 5 0 0 3 5 1 2 2 3 2 3 2 2 2 4 1 1 3 5 1 1 2 5 1 1 2 4 2 3 1 2 3 5 0 0 3 6 1 1 2 4 1 2 2 4 2 3 1 2 2 5 1 0 2 6 1 1 2 5 1 2 2 3 1 4 1 2 5 11 1 1 1 5 2 2 1 3 1 4 1 2 2 6 0 0 3 6 0 1 2 4 1 3 1 3 4 12 1 6 1 1 1 5 2 6 1 4 1 2 1 6 1 0 1 6 1 1 1 5 0 3 1 3 1 5 1 1 1 6 0 0 1 6 1 2 0 4 1 4 1 3 1 5 0 1 1 6 406 0c77,0 141,-80 183,-192 29,-77 46,-167 51,-261 4,-94 -4,-191 -27,-280 -44,-172 -144,-314 -312,-337 -206,-28 -417,-38 -612,-46 -398,-19 -737,-34 -894,-203l-96 -106c-233,-262 -677,-762 -1062,-823 -438,-69 -1741,-4 -1956,7 -124,88 -710,536 -745,1155 -20,362 -20,643 29,832 40,152 117,238 251,254zm1009 525c116,0 221,-47 297,-123 75,-75 121,-178 123,-292l0 0 0 -3 0 -2c0,-116 -47,-221 -123,-297 -76,-77 -181,-124 -297,-124 -116,0 -222,47 -298,123l-3 4 0 0 -4 3 -3 4 0 0 -3 4 -4 3 -3 4 -3 4 0 0 -4 4 0 0 -3 4 -3 4 0 0 -3 4 -3 4 -3 4 0 0 -3 4 -3 4 0 0 -3 4 0 0 -3 5 0 0 -2 4 0 0 -3 4 0 0 -3 5 0 0 -2 4 0 0 -3 4 0 0 -2 5 -1 0 -2 4 0 0 -2 5 0 0 -3 4 0 0 -2 5 0 0 -2 4 0 0 -2 5 0 0 -2 5 -1 0 -2 4 0 0 -1 5 -1 0 -2 5 0 0 -1 4 -1 1 -1 4 0 0 -2 5 0 0 -2 5 0 0 -1 5 -1 0 -1 5 0 0 -2 4 0 1 -1 4 0 1 -2 4 0 1 -1 4 0 1 -1 4 0 1 -2 5 0 0 -1 5 0 0 -1 5 0 0 -1 5 0 0 -1 5 0 0 -1 5 0 0 -1 5 0 1 -1 4 0 1 0 5 -1 0 0 5 0 0 -1 5 0 1 0 4 0 1 -1 5 0 0 0 5 0 0 -1 5 0 1 0 5 0 0 0 5 0 0 0 5 0 1 -1 5 0 0 0 5 0 1 0 2 0 3 0 0c2,114 48,217 123,292 76,76 182,123 298,123zm448 28c-115,115 -274,186 -448,186 -175,0 -334,-71 -449,-186 -90,-90 -153,-208 -176,-339l-397 -1c-244,-24 -379,-164 -444,-413 -57,-214 -57,-514 -36,-898 45,-800 861,-1336 863,-1337 15,-11 34,-17 53,-18 5,0 1531,-84 2030,-6 462,73 940,611 1190,893l92 102c98,105 396,118 747,134 202,9 419,19 632,49 269,37 425,245 490,495 28,110 38,229 33,343 -6,115 -28,228 -64,325 -73,195 -204,332 -383,332l-407 0c-23,131 -86,249 -176,339 -115,115 -274,186 -449,186 -175,0 -333,-71 -448,-186 -90,-90 -154,-208 -177,-339l-1900 0c-22,131 -86,249 -176,339zm2701 -28c116,0 221,-47 297,-123 75,-75 122,-178 123,-292l0 0 0 -3 0 -2c0,-116 -47,-221 -122,-297 -77,-77 -182,-124 -298,-124 -116,0 -221,47 -297,123l-4 4 0 0 -3 3 -3 4 0 0 -4 4 -3 3 -4 4 -3 4 0 0 -3 4 0 0 -3 4 -3 4 0 0 -4 4 -3 4 -3 4 0 0 -3 4 -2 4 0 0 -3 4 0 0 -3 5 0 0 -3 4 0 0 -3 4 0 0 -2 5 0 0 -3 4 0 0 -2 4 0 0 -3 5 0 0 -2 4 0 0 -3 5 0 0 -2 4 0 0 -2 5 0 0 -3 4 0 0 -2 5 0 0 -2 5 0 0 -2 4 0 0 -2 5 0 0 -2 5 0 0 -2 4 0 1 -2 4 0 0 -1 5 -1 0 -1 5 0 0 -2 5 0 0 -2 5 0 0 -1 4 0 1 -2 4 0 1 -1 4 0 1 -1 4 0 1 -2 4 0 1 -1 5 0 0 -1 5 0 0 -1 5 0 0 -1 5 -1 0 0 5 -1 0 0 5 0 0 -1 5 0 1 -1 4 0 1 -1 5 0 0 -1 5 0 0 0 5 0 1 -1 4 0 1 0 5 0 0 -1 5 0 0 0 5 0 1 -1 5 0 0 0 5 0 0 0 5 0 1 0 5 0 0 0 5 0 1 0 2 0 3 0 0c2,114 48,217 123,292 76,76 181,123 297,123zm-3861 -1628c-59,0 -107,-48 -107,-107 0,-59 48,-107 107,-107l2802 0c59,0 107,48 107,107 0,59 -48,107 -107,107l-2802 0z"/>
 </g>
</svg>
