<?xml version="1.0" encoding="UTF-8"?>
<!DOCTYPE svg PUBLIC "-//W3C//DTD SVG 1.1//EN" "http://www.w3.org/Graphics/SVG/1.1/DTD/svg11.dtd">
<!-- Creator: CorelDRAW X8 -->
<svg xmlns="http://www.w3.org/2000/svg" xml:space="preserve" width="100%" height="100%" version="1.1" style="shape-rendering:geometricPrecision; text-rendering:geometricPrecision; image-rendering:optimizeQuality; fill-rule:evenodd; clip-rule:evenodd"
viewBox="0 0 4140 1027"
 xmlns:xlink="http://www.w3.org/1999/xlink">
 <defs>
  <style type="text/css">
   <![CDATA[
    .fil0 {fill:#009640;fill-rule:nonzero}
    .fil1 {fill:#3A3A3C;fill-rule:nonzero}
   ]]>
  </style>
 </defs>
 <g id="Слой_x0020_1">
  <metadata id="CorelCorpID_0Corel-Layer"/>
  <g id="_2520868847232">
   <path class="fil0" d="M588 760l-174 0 -56 -228c-7,-24 -17,-40 -29,-49 -12,-9 -29,-14 -51,-14l-116 -1 0 292 -162 0 0 -746c67,-6 162,-10 284,-10 101,0 172,16 213,48 42,32 63,89 63,173 0,55 -11,98 -33,129 -22,31 -58,49 -110,56l0 5c57,13 93,51 106,113l65 232zm-426 -418l119 0c43,0 73,-8 89,-22 16,-15 24,-43 24,-84 0,-41 -8,-69 -24,-84 -15,-14 -45,-21 -89,-21l-119 1 0 210zm1030 289l7 122c-68,7 -183,10 -346,10 -50,0 -89,-13 -119,-40 -29,-27 -45,-64 -45,-110l0 -452c0,-46 16,-83 45,-110 30,-27 69,-40 119,-40 163,0 278,3 346,11l-7 122 -287 0c-18,0 -31,4 -39,13 -8,8 -12,22 -12,42l0 113 298 0 0 119 -298 0 0 144c0,20 4,35 12,43 8,9 21,13 39,13l287 0z"/>
   <path class="fil1" d="M767 986l51 -78 -47 -71 36 0 29 44 29 -44 35 0 -46 71 51 78 -36 0 -33 -51 -33 51 -36 0zm562 -840c35,-63 177,-135 65,90 -22,44 -15,128 -66,52 -25,-38 -21,-102 1,-142zm68 185c-40,-19 46,-119 55,-194 0,-2 -4,-68 38,-23 87,90 -29,248 -93,217zm-68 170c33,-59 112,-88 109,-29 -5,74 -58,116 -63,181 -5,62 -106,-42 -46,-152zm68 186c-40,-20 46,-120 55,-194 0,-2 -4,-69 38,-24 58,61 25,190 -57,216 -10,3 -24,7 -36,2zm466 -256l-64 0c5,29 8,53 8,72l0 257 -164 0 0 -746 164 0 0 211c0,31 -3,61 -8,89l64 0 189 -300 179 0 -193 297c-13,21 -30,42 -54,60l0 4c26,18 47,40 63,66l197 319 -184 0 -197 -329zm480 -348c46,-55 129,-83 249,-83 120,0 203,28 250,83 47,55 70,156 70,304 0,148 -23,249 -70,304 -47,56 -130,83 -250,83 -120,0 -203,-27 -249,-83 -47,-55 -70,-156 -70,-304 0,-148 23,-249 70,-304zm364 103c-20,-35 -59,-53 -115,-53 -56,0 -95,18 -115,53 -21,35 -31,102 -31,201 0,99 10,166 31,201 20,35 59,53 115,53 56,0 95,-18 115,-53 21,-35 31,-102 31,-201 0,-99 -10,-166 -31,-201zm819 -42l-267 0c-21,0 -36,4 -45,13 -9,8 -13,23 -13,42l0 128 285 0 0 120 -285 0 0 313 -166 0 0 -595c0,-47 15,-85 45,-113 30,-27 70,-41 120,-41 158,0 270,4 335,12l-9 121zm607 487l7 122c-67,7 -183,10 -346,10 -49,0 -89,-13 -119,-40 -29,-27 -45,-64 -45,-110l0 -452c0,-46 16,-83 45,-110 30,-27 70,-40 119,-40 163,0 279,3 346,11l-7 122 -287 0c-18,0 -31,4 -39,13 -8,8 -12,23 -12,42l0 113 298 0 0 119 -298 0 0 144c0,20 4,35 12,43 8,9 21,13 39,13l287 0zm-3222 299c0,-9 2,-18 7,-27 5,-9 11,-16 20,-21 8,-4 18,-7 29,-7 16,0 29,6 40,16 10,11 15,24 15,41 0,16 -5,30 -15,40 -11,11 -24,16 -40,16 -10,0 -20,-2 -29,-6 -8,-5 -15,-11 -20,-20 -5,-9 -7,-19 -7,-32zm29 2c0,11 3,19 8,25 5,5 11,8 19,8 7,0 13,-3 18,-8 5,-6 8,-14 8,-25 0,-11 -3,-19 -8,-25 -5,-5 -11,-8 -18,-8 -8,0 -14,3 -19,8 -5,6 -8,14 -8,25zm104 -54l27 0 0 16c3,-6 8,-10 14,-14 6,-3 12,-5 19,-5 13,0 23,5 32,15 9,10 13,24 13,41 0,18 -4,32 -13,42 -9,10 -19,15 -32,15 -6,0 -11,-1 -16,-3 -5,-2 -10,-7 -15,-12l0 54 -29 0 0 -149zm28 52c0,12 2,21 7,27 5,6 11,9 18,9 6,0 12,-3 16,-8 5,-6 7,-14 7,-27 0,-11 -2,-19 -7,-25 -4,-5 -10,-8 -17,-8 -7,0 -12,3 -17,8 -5,5 -7,13 -7,24zm93 0c0,-9 3,-18 7,-27 5,-9 12,-16 20,-21 9,-4 18,-7 29,-7 16,0 30,6 40,16 11,11 16,24 16,41 0,16 -6,30 -16,40 -11,11 -24,16 -40,16 -10,0 -19,-2 -28,-6 -9,-5 -16,-11 -21,-20 -4,-9 -7,-19 -7,-32zm30 2c0,11 2,19 7,25 5,5 12,8 19,8 8,0 14,-3 19,-8 5,-6 7,-14 7,-25 0,-11 -2,-19 -7,-25 -5,-5 -11,-8 -19,-8 -7,0 -14,3 -19,8 -5,6 -7,14 -7,25zm103 -54l27 0 0 85 33 0 0 -85 26 0 0 85 33 0 0 -85 27 0 0 108 -146 0 0 -108zm168 52c0,-9 2,-18 7,-27 5,-9 11,-16 20,-21 9,-4 18,-7 29,-7 16,0 29,6 40,16 10,11 15,24 15,41 0,16 -5,30 -15,40 -11,11 -24,16 -40,16 -10,0 -19,-2 -28,-6 -9,-5 -16,-11 -21,-20 -5,-9 -7,-19 -7,-32zm29 2c0,11 3,19 8,25 5,5 11,8 19,8 7,0 13,-3 19,-8 5,-6 7,-14 7,-25 0,-11 -2,-19 -7,-25 -6,-5 -12,-8 -19,-8 -8,0 -14,3 -19,8 -5,6 -8,14 -8,25zm219 -54l29 0 0 44c5,-1 8,-2 10,-5 2,-2 4,-7 7,-15 4,-11 8,-17 12,-20 4,-3 10,-5 17,-5 2,0 6,0 12,1l0 18c-8,0 -13,1 -15,3 -2,1 -4,5 -7,13 -3,10 -8,16 -14,18 9,3 17,11 23,24 0,1 1,1 1,2l16 30 -31 0 -14 -32c-3,-6 -5,-10 -8,-12 -2,-2 -5,-2 -9,-2l0 46 -29 0 0 -108zm96 52c0,-9 3,-18 7,-27 5,-9 12,-16 20,-21 9,-4 18,-7 29,-7 16,0 30,6 40,16 11,11 16,24 16,41 0,16 -5,30 -16,40 -11,11 -24,16 -40,16 -10,0 -19,-2 -28,-6 -9,-5 -16,-11 -21,-20 -4,-9 -7,-19 -7,-32zm30 2c0,11 2,19 7,25 5,5 12,8 19,8 8,0 14,-3 19,-8 5,-6 7,-14 7,-25 0,-11 -2,-19 -7,-25 -5,-5 -11,-8 -19,-8 -7,0 -14,3 -19,8 -5,6 -7,14 -7,25zm103 -54l73 0 0 23 -44 0 0 85 -29 0 0 -108zm169 108l-81 0 0 28 -24 0 0 -52 12 0c5,-5 9,-13 12,-25 3,-12 5,-31 6,-59l87 0 0 84 12 0 0 52 -24 0 0 -28zm-16 -24l0 -61 -35 0c-1,30 -6,50 -14,61l49 0zm80 -51l-25 -5c3,-10 8,-18 15,-23 7,-5 17,-8 31,-8 13,0 23,2 29,5 6,3 11,7 13,11 3,5 4,14 4,26l-1 33c0,10 1,17 2,21 1,5 2,10 5,15l-28 0c-1,-2 -2,-5 -3,-9 -1,-1 -1,-2 -1,-3 -5,5 -10,8 -16,11 -5,2 -11,3 -18,3 -11,0 -19,-3 -26,-9 -6,-6 -9,-13 -9,-22 0,-7 1,-12 4,-17 3,-5 7,-8 12,-11 6,-2 13,-5 23,-6 13,-3 23,-5 28,-7l0 -3c0,-6 -2,-10 -4,-12 -3,-3 -8,-4 -16,-4 -5,0 -9,1 -12,3 -2,2 -5,6 -7,11zm39 23c-4,1 -10,3 -18,4 -8,2 -13,4 -15,5 -4,3 -6,6 -6,10 0,5 2,8 5,11 3,3 6,4 11,4 5,0 10,-1 15,-5 3,-2 6,-6 7,-9 0,-3 1,-7 1,-14l0 -6zm114 -56l63 0c13,0 22,2 28,7 7,4 10,11 10,21 0,6 -2,11 -5,16 -4,4 -8,7 -13,9 7,1 13,5 16,10 4,5 6,10 6,16 0,9 -3,16 -9,21 -7,5 -16,8 -28,8l-68 0 0 -108zm29 45l18 0c9,0 16,-1 20,-4 4,-2 6,-6 6,-10 0,-5 -2,-8 -6,-10 -4,-2 -10,-3 -20,-3l-18 0 0 27zm0 44l22 0c8,0 14,-1 18,-3 4,-2 6,-5 6,-10 0,-5 -2,-9 -7,-11 -4,-2 -12,-3 -25,-3l-14 0 0 27zm188 -57l-28 5c-1,-6 -3,-10 -7,-13 -3,-3 -7,-4 -13,-4 -7,0 -13,2 -17,7 -4,5 -6,13 -6,25 0,13 2,22 6,27 5,5 10,8 18,8 5,0 9,-1 13,-5 3,-3 6,-8 7,-15l28 4c-3,13 -8,23 -17,30 -8,6 -19,9 -33,9 -16,0 -28,-5 -37,-15 -10,-10 -15,-23 -15,-41 0,-18 5,-32 15,-42 9,-10 22,-15 38,-15 13,0 23,3 31,9 8,6 13,14 17,26zm84 42l28 4c-3,11 -9,19 -17,24 -8,6 -18,8 -29,8 -19,0 -33,-6 -42,-18 -7,-10 -11,-22 -11,-37 0,-18 5,-32 14,-42 9,-11 21,-16 36,-16 16,0 28,6 38,16 9,11 13,27 13,49l-72 0c1,9 3,15 7,20 5,5 10,7 17,7 4,0 8,-1 11,-4 3,-2 5,-6 7,-11zm2 -29c-1,-9 -3,-15 -7,-19 -4,-5 -9,-7 -15,-7 -6,0 -11,3 -15,7 -4,5 -6,11 -6,19l43 0zm109 -45l63 0c13,0 22,2 29,7 6,4 9,11 9,21 0,6 -1,11 -5,16 -3,4 -8,7 -13,9 7,1 13,5 17,10 3,5 5,10 5,16 0,9 -3,16 -9,21 -6,5 -16,8 -28,8l-68 0 0 -108zm29 45l18 0c9,0 16,-1 20,-4 4,-2 6,-6 6,-10 0,-5 -2,-8 -6,-10 -4,-2 -10,-3 -20,-3l-18 0 0 27zm0 44l23 0c8,0 14,-1 17,-3 4,-2 6,-5 6,-10 0,-5 -2,-9 -6,-11 -5,-2 -13,-3 -25,-3l-15 0 0 27zm118 -56l-26 -5c3,-10 8,-18 15,-23 7,-5 18,-8 32,-8 12,0 22,2 28,5 6,3 11,7 13,11 3,5 4,14 4,26l0 33c0,10 0,17 1,21 1,5 3,10 5,15l-28 0c-1,-2 -2,-5 -3,-9 0,-1 -1,-2 -1,-3 -5,5 -10,8 -16,11 -5,2 -11,3 -17,3 -11,0 -20,-3 -27,-9 -6,-6 -9,-13 -9,-22 0,-7 1,-12 4,-17 3,-5 7,-8 12,-11 6,-2 13,-5 23,-6 14,-3 23,-5 28,-7l0 -3c0,-6 -1,-10 -4,-12 -3,-3 -8,-4 -16,-4 -5,0 -9,1 -11,3 -3,2 -6,6 -7,11zm38 23c-4,1 -10,3 -17,4 -8,2 -14,4 -16,5 -4,3 -6,6 -6,10 0,5 2,8 5,11 3,3 7,4 11,4 5,0 10,-1 15,-5 3,-2 6,-6 7,-9 1,-3 1,-7 1,-14l0 -6zm55 -56l27 0 0 16c3,-6 8,-10 14,-14 6,-3 12,-5 20,-5 12,0 23,5 32,15 8,10 13,24 13,41 0,18 -5,32 -14,42 -8,10 -19,15 -32,15 -6,0 -11,-1 -16,-3 -5,-2 -10,-7 -15,-12l0 54 -29 0 0 -149zm28 52c0,12 3,21 8,27 4,6 10,9 17,9 7,0 12,-3 17,-8 4,-6 6,-14 6,-27 0,-11 -2,-19 -6,-25 -5,-5 -11,-8 -17,-8 -7,0 -13,3 -18,8 -4,5 -7,13 -7,24zm100 -52l27 0 0 68 44 -68 28 0 0 108 -27 0 0 -69 -45 69 -27 0 0 -108zm115 0l98 0 0 23 -35 0 0 85 -28 0 0 -85 -35 0 0 -23zm126 69l-7 -75 0 -35 31 0 0 35 -8 75 -16 0zm-6 39l0 -29 29 0 0 29 -29 0zm-1745 -29l29 0 0 21c0,8 -1,14 -3,19 -1,5 -4,9 -8,13 -4,4 -9,7 -15,9l-5 -12c5,-2 10,-4 12,-8 2,-3 4,-8 4,-13l-14 0 0 -29z"/>
  </g>
 </g>
</svg>
