<?xml version="1.0" encoding="utf-8"?>
<!-- Generator: Adobe Illustrator 17.0.0, SVG Export Plug-In . SVG Version: 6.00 Build 0)  -->
<!DOCTYPE svg PUBLIC "-//W3C//DTD SVG 1.1//EN" "http://www.w3.org/Graphics/SVG/1.1/DTD/svg11.dtd" [
	<!ENTITY st0 "fill:#38398D;">
	<!ENTITY st1 "fill:#00973A;">
]>
<svg version="1.1" id="Слой_1" xmlns="http://www.w3.org/2000/svg" xmlns:xlink="http://www.w3.org/1999/xlink" x="0px" y="0px"
	 width="288px" height="47px" viewBox="0 0 288 47" style="enable-background:new 0 0 288 47;" xml:space="preserve">
<g>
	<g>
		<path style="&st0;" d="M35.499,10c-0.138,0-0.278-0.028-0.412-0.089l-16.862-7.65L13.33,9.557
			c-0.306,0.458-0.929,0.58-1.387,0.274c-0.459-0.309-0.581-0.93-0.273-1.388l5.366-8c0.272-0.407,0.803-0.553,1.243-0.354
			L35.913,8.09c0.503,0.227,0.726,0.82,0.498,1.323C36.243,9.782,35.88,10,35.499,10z"/>
		<path style="&st1;" d="M44,44H8.001C5.795,44,4,42.166,4,39.908V32H1c-0.553,0-1-0.448-1-1V21c0-0.552,0.447-1,1-1h3v-7.909
			C4,9.834,5.795,8,8.001,8H44c2.206,0,4,1.834,4,4.091v27.817C48,42.166,46.206,44,44,44z M2,30h14.001L16,21.96H5.205
			C5.136,21.974,5.073,22.001,5,22.001s-0.137-0.027-0.205-0.041H2V30z M46,12.091c0-1.153-0.898-2.16-2-2.16H8
			c-1.104,0-2,1.007-2,2.16V20h11.001c0.553,0,1,0.448,1,1v9.999c0,0.552-0.447,1-1,1H6v7.908C6,41.061,6.897,42,8.001,42H44
			c1.102,0,2-0.939,2-2.092V12.091z M11,25h2.001c0.553,0,1,0.448,1,0.999c0,0.552-0.447,1-1,1H11c-0.553,0-1-0.448-1-1
			C10,25.448,10.447,25,11,25z"/>
	</g>
	<g>
		<path style="&st1;" d="M91.934,44H52.066C49.824,44,48,42.206,48,40V12c0-2.206,1.824-4,4.066-4h39.868C94.176,8,96,9.794,96,12
			v28C96,42.206,94.176,44,91.934,44z M52.066,41.999h39.868C93.073,41.999,94,41.103,94,40V20H50v20
			C50,41.103,50.927,41.999,52.066,41.999z M91.934,10H52.066C50.927,10,50,10.897,50,12v6.001h44V12C94,10.897,93.073,10,91.934,10
			z"/>
		<path style="&st0;" d="M90,37h-6c-0.553,0-1-0.448-1-1c0-0.552,0.447-1,1-1h6c0.553,0,1,0.448,1,1C91,36.552,90.553,37,90,37z
			 M74,37h-4h-6H54c-0.553,0-1-0.448-1-1c0-0.552,0.447-1,1-1h10h6h4h6c0.553,0,1,0.448,1,1c0,0.552-0.447,1-1,1H74z"/>
	</g>
	<g>
		<path style="&st0;" d="M134,22.999h-16.052c-0.553,0-1-0.447-1-0.999c0-0.553,0.447-1,1-1H134c0.553,0,1,0.447,1,1
			C135,22.552,134.553,22.999,134,22.999z M109.729,24.625C109.532,24.87,109.242,25,108.947,25c-0.19,0-0.384-0.054-0.554-0.168
			l-2.999-2c-0.46-0.307-0.585-0.927-0.278-1.386c0.306-0.46,0.925-0.585,1.387-0.278l2.237,1.491l3.427-4.284
			c0.346-0.431,0.974-0.501,1.406-0.156c0.431,0.345,0.501,0.974,0.156,1.406L109.729,24.625z"/>
		<path style="&st1;" d="M139.934,44h-39.868C97.824,44,96,42.206,96,40V12c0-2.206,1.824-4,4.066-4L111,8.001V6
			c0-0.552,0.447-1,1-1h16c0.553,0,1,0.448,1,1v2.001L139.934,8C142.176,8,144,9.794,144,12v28C144,42.206,142.176,44,139.934,44z
			 M127,8.001V7h-14v1.001l0,0v1c0,1.103,0.988,1.999,2.2,1.999h9.6c1.213,0,2.2-0.896,2.2-2V8.001z M142,12
			c0-1.103-0.927-2-2.066-2l-11.083,0.001c-0.47,1.719-2.1,2.999-4.051,2.999h-9.6c-1.951,0-3.581-1.28-4.051-2.999L100.066,10
			C98.927,10,98,10.897,98,12v28c0,1.103,0.927,1.999,2.066,1.999h39.868c1.139,0,2.066-0.896,2.066-1.999V12z M134,33h-16.052
			c-0.553,0-1-0.448-1-1c0-0.552,0.447-0.999,1-0.999H134c0.553,0,1,0.447,1,0.999C135,32.552,134.553,33,134,33z M112.655,35.707
			c-0.195,0.195-0.451,0.292-0.707,0.292c-0.256,0-0.512-0.097-0.707-0.292l-2.293-2.293l-2.293,2.293
			c-0.195,0.195-0.451,0.292-0.707,0.292c-0.256,0-0.512-0.097-0.707-0.292c-0.39-0.391-0.39-1.023,0-1.414L107.534,32l-2.293-2.293
			c-0.39-0.391-0.39-1.024,0-1.414c0.391-0.39,1.024-0.39,1.414,0l2.293,2.293l2.293-2.293c0.391-0.39,1.024-0.39,1.414,0
			c0.391,0.39,0.391,1.023,0,1.414L110.362,32l2.293,2.293C113.046,34.684,113.046,35.316,112.655,35.707z"/>
	</g>
	<g>
		<path style="&st0;" d="M182.16,47c-0.233,0-0.461-0.082-0.642-0.233l-7.161-6c-0.422-0.355-0.478-0.986-0.124-1.409
			c0.356-0.422,0.986-0.48,1.41-0.125l6.343,5.317l8.209-11.143c0.326-0.444,0.953-0.541,1.398-0.212
			c0.445,0.327,0.54,0.953,0.212,1.398l-8.84,12c-0.163,0.222-0.412,0.367-0.686,0.4L182.16,47z"/>
		<path style="&st1;" d="M191,30c-0.553,0-1-0.447-1-1V12.09c0-1.152-0.898-2.09-2-2.09h-35.999c-1.103,0-2.001,0.938-2.001,2.09V20
			h11.001c0.553,0,1,0.447,1,1.001V31c0,0.553-0.447,1-1,1H150v7.908c0,1.154,0.898,2.092,2.001,2.092H170c0.553,0,1,0.447,1,1
			c0,0.552-0.447,1-1,1h-17.999c-2.206,0-4.001-1.835-4.001-4.092V32h-3c-0.553,0-1-0.447-1-1v-9.999c0-0.554,0.447-1.001,1-1.001h3
			v-7.91c0-2.255,1.795-4.09,4.001-4.09H188c2.206,0,4,1.835,4,4.09V29C192,29.553,191.553,30,191,30z M146,30h14.001v-8H146V30z
			 M155,25h2.001c0.553,0,1,0.447,1,1s-0.447,1-1,1H155c-0.553,0-1-0.447-1-1S154.447,25,155,25z"/>
	</g>
	<g>
		<path style="&st0;" d="M222.827,6.83c-0.021,0.021-0.048,0.028-0.07,0.047c-0.019,0.022-0.027,0.051-0.048,0.072L206.327,23.33
			c-0.007,0.007-0.017,0.009-0.024,0.016c-0.029,0.028-0.068,0.043-0.1,0.067c-0.076,0.056-0.151,0.111-0.237,0.143
			c-0.004,0.002-0.007,0.005-0.011,0.007l-6.617,2.379c-0.111,0.039-0.225,0.059-0.338,0.059c-0.261,0-0.517-0.102-0.707-0.293
			c-0.273-0.273-0.365-0.68-0.234-1.045l2.377-6.621c0.003-0.009,0.01-0.014,0.014-0.023c0.014-0.038,0.044-0.07,0.063-0.106
			c0.045-0.083,0.089-0.164,0.153-0.229c0.002-0.003,0.003-0.007,0.006-0.01l16.379-16.381c0.022-0.022,0.051-0.03,0.074-0.049
			c0.019-0.022,0.026-0.05,0.047-0.071C217.928,0.417,218.932,0,220,0s2.072,0.417,2.828,1.173C223.584,1.928,224,2.933,224,4.001
			C224,5.071,223.584,6.075,222.827,6.83z M221.414,2.587c-0.756-0.756-2.072-0.756-2.828,0c-0.022,0.022-0.051,0.03-0.074,0.049
			c-0.019,0.022-0.026,0.05-0.047,0.071l-16.224,16.227l-1.583,4.408l4.418-1.588l16.219-16.219
			c0.021-0.021,0.049-0.028,0.071-0.047c0.019-0.023,0.027-0.052,0.049-0.074C221.792,5.037,222,4.535,222,4.001
			C222,3.468,221.792,2.964,221.414,2.587z"/>
		<path style="&st1;" d="M235.934,44.001h-39.868c-2.242,0-4.066-1.794-4.066-4v-28c0-1.672,1.05-3.103,2.533-3.7v-0.3H202
			c0.553,0,1,0.448,1,1s-0.447,1-1,1v0.001l-3.956-0.001h-1.981c-1.138,0.002-2.063,0.898-2.063,2v28
			c0,1.103,0.927,1.999,2.066,1.999h39.868c1.139,0,2.066-0.896,2.066-1.999v-28c0-1.102-0.925-1.998-2.063-2h-3.315L226,10.002
			v-0.001c-0.553,0-1-0.448-1-1s0.447-1,1-1h11.467v0.3c1.483,0.597,2.533,2.028,2.533,3.7v28
			C240,42.207,238.176,44.001,235.934,44.001z M234,32c0,0.553-0.447,1.001-1,1.001h-34c-0.553,0-1-0.448-1-1.001
			c0-0.551,0.447-0.999,1-0.999h34C233.553,31.001,234,31.449,234,32z M234,26.001c0,0.552-0.447,1-1,1h-20c-0.553,0-1-0.448-1-1
			S212.447,25,213,25h20C233.553,25,234,25.449,234,26.001z"/>
	</g>
	<g>
		<path style="&st1;" d="M287,25.08l-46-0.008c-0.553,0-1-0.448-1-0.996c0-0.551,0.448-0.997,1-0.997v0.072h7.193L252.3,5.966
			c0.25-1.047,0.943-1.93,1.901-2.424c0.959-0.496,2.085-0.548,3.086-0.152L264,6.066l6.713-2.676c1-0.396,2.126-0.344,3.085,0.152
			c0.959,0.494,1.652,1.377,1.902,2.424l4.107,17.185H287c0.553,0,1,0.384,1,0.933C288,24.634,287.552,25.08,287,25.08z
			 M273.755,6.427c-0.115-0.48-0.436-0.889-0.877-1.116c-0.442-0.228-0.958-0.253-1.423-0.071l-7.084,2.823
			c-0.238,0.096-0.504,0.096-0.742,0l-7.084-2.823c-0.463-0.185-0.982-0.159-1.423,0.071c-0.441,0.227-0.762,0.636-0.877,1.118
			l-3.996,16.722h27.502L273.755,6.427z"/>
		<path style="&st0;" d="M275,44c-3.931,0-7.202-2.842-7.869-6.57c-0.006-0.011-0.015-0.018-0.021-0.029
			c-0.025-0.043-0.806-1.4-3.11-1.4c-2.324,0-3.104,1.386-3.11,1.4c-0.006,0.01-0.015,0.015-0.021,0.025
			C260.204,41.156,256.932,44,253,44c-4.411,0-8-3.576-8-7.969c0-4.396,3.589-7.97,8-7.97c3.981,0,7.282,2.914,7.89,6.712
			c0.75-0.426,1.767-0.763,3.11-0.763s2.36,0.337,3.11,0.763c0.608-3.798,3.909-6.712,7.89-6.712c4.411,0,8,3.574,8,7.97
			C283,40.424,279.411,44,275,44z M253,30.053c-3.309,0-6,2.681-6,5.978c0,3.296,2.691,5.977,6,5.977c3.309,0,6-2.681,6-5.977
			C259,32.734,256.309,30.053,253,30.053z M275,30.053c-3.309,0-6,2.681-6,5.978c0,3.296,2.691,5.977,6,5.977s6-2.681,6-5.977
			C281,32.734,278.309,30.053,275,30.053z"/>
	</g>
</g>
<g>
</g>
<g>
</g>
<g>
</g>
<g>
</g>
<g>
</g>
<g>
</g>
</svg>
