<?xml version="1.0" encoding="UTF-8"?>
<!DOCTYPE svg PUBLIC "-//W3C//DTD SVG 1.1//EN" "http://www.w3.org/Graphics/SVG/1.1/DTD/svg11.dtd">
<!-- Creator: CorelDRAW X7 -->
<svg xmlns="http://www.w3.org/2000/svg" xml:space="preserve" width="100%" height="100%" version="1.1" style="shape-rendering:geometricPrecision; text-rendering:geometricPrecision; image-rendering:optimizeQuality; fill-rule:evenodd; clip-rule:evenodd"
viewBox="0 0 6894 1533"
 xmlns:xlink="http://www.w3.org/1999/xlink">
 <defs>
  <style type="text/css">
   <![CDATA[
    .fil2 {fill:#141515}
    .fil0 {fill:#90BF00}
    .fil1 {fill:white}
   ]]>
  </style>
 </defs>
 <g id="Слой_x0020_1">
  <metadata id="CorelCorpID_0Corel-Layer"/>
  <g id="_2830415452720">
   <path class="fil0" d="M1319 1087c-58,-39 -86,-38 -140,-108 -120,-157 -85,-358 64,-478 16,-13 25,-15 36,-30 -17,-50 -95,-110 -152,-136 -234,-108 -379,50 -478,33 -76,-12 -133,-63 -229,-66 -180,-6 -308,116 -364,226 -73,141 -67,337 -24,498 44,162 209,493 381,505 89,6 151,-50 235,-62 252,-36 301,259 585,-179 21,-33 89,-161 86,-203z"/>
   <path class="fil1" d="M191 634c-22,21 -73,115 -56,150 13,26 95,35 94,132 -1,34 -15,59 -32,78 -48,55 -108,8 -30,168 32,65 47,15 114,21 46,5 81,34 96,63 34,67 -4,87 2,138 17,19 113,69 149,57 21,-14 25,-40 48,-62 20,-21 47,-34 84,-34 87,2 92,65 127,98 35,5 134,-35 148,-54 20,-29 -37,-95 20,-160 62,-73 120,-38 153,-33 43,6 71,-88 78,-124 -36,-51 -76,-59 -117,-175 -33,-97 -19,-158 1,-252 -61,2 -100,-17 -122,-53 -45,-74 3,-106 -9,-147 -19,-27 -113,-65 -153,-58 -3,2 -51,131 -167,88 -102,-38 -31,-124 -161,-74 -154,59 -30,63 -76,171 -45,109 -162,57 -191,62z"/>
   <path class="fil2" d="M1982 1337l131 0 0 -361 212 0 193 360 153 1 -209 -379c33,-28 125,-42 164,-181 29,-100 7,-211 -51,-273 -31,-32 -46,-49 -98,-71 -101,-43 -363,-26 -492,-26l-3 930z"/>
   <path class="fil2" d="M4766 636c-189,27 -290,187 -269,406 19,192 159,328 376,298 393,-56 353,-770 -107,-704z"/>
   <path class="fil2" d="M3569 720l0 -80 -121 -2 0 699 127 0c0,-121 0,-241 0,-361 0,-60 -4,-110 24,-158 52,-88 187,-93 239,-13 27,42 18,110 18,165 0,122 0,245 0,367l128 0c0,-121 0,-241 0,-361 0,-82 -7,-222 140,-227 141,-6 141,98 141,221 0,122 0,245 0,367l128 0c0,-105 0,-209 0,-313 0,-144 31,-399 -239,-392 -114,4 -154,54 -205,113 -11,-11 -16,-24 -29,-40 -76,-92 -221,-95 -312,-22l-39 37z"/>
   <path class="fil2" d="M3335 1125l-126 -1c-30,116 -222,153 -317,31 -21,-27 -42,-85 -35,-128l485 0c1,-182 -42,-358 -249,-391 -203,-31 -334,100 -363,269 -91,535 561,547 605,220z"/>
   <path class="fil2" d="M5367 723l-1 -82 -121 -2 0 696 128 2c0,-126 0,-250 -1,-373 0,-125 43,-210 166,-215 143,-7 167,78 167,209 0,126 0,253 0,379l128 0c0,-104 0,-209 0,-313 0,-146 20,-381 -236,-391 -47,-2 -94,4 -135,21 -20,9 -34,17 -50,28 -23,17 -27,27 -45,41z"/>
   <path class="fil0" d="M828 1186c-14,-29 -75,-80 -102,-107 -24,-24 -24,-39 -62,-28 -88,25 -173,-14 -219,-83 -27,-41 -46,-119 -18,-170 33,-26 107,90 131,96l75 -9c30,-79 6,-89 -56,-151 -103,-102 80,-75 134,-44 72,42 116,131 92,220 -11,41 -2,35 24,61 28,27 83,89 110,106 188,-351 -257,-648 -509,-387 -181,185 -78,486 159,539 78,17 189,3 241,-43z"/>
   <path class="fil2" d="M6468 1128l-123 0c-10,141 154,231 316,213 78,-8 146,-40 182,-81 44,-48 71,-131 32,-209 -61,-126 -291,-100 -364,-171 -27,-25 -31,-62 -8,-93 18,-25 51,-40 87,-45 86,-10 159,21 167,102l123 0c-14,-247 -372,-272 -485,-110 -41,59 -44,141 -2,203 77,111 324,102 364,172 46,80 -54,124 -125,126 -39,1 -81,-5 -111,-23 -35,-22 -36,-41 -53,-84z"/>
   <path class="fil1" d="M4782 752c-122,21 -170,133 -156,276 12,125 87,221 227,196 122,-20 170,-138 156,-278 -12,-125 -89,-218 -227,-194z"/>
   <path class="fil2" d="M6002 639l-94 0 0 108 95 0c0,138 -8,297 1,432 4,66 23,116 72,142 46,25 132,29 186,13l0 -109c-151,8 -131,-26 -131,-165 0,-104 0,-209 0,-313l132 0 0 -107 -132 -2 -1 -152 -126 -1 -2 154z"/>
   <path class="fil1" d="M2113 857c175,0 389,43 390,-164 1,-205 -220,-167 -388,-167l-2 331z"/>
   <polygon class="fil2" points="1696,1335 1718,1338 1803,1337 1824,1335 1824,641 1696,639 "/>
   <path class="fil0" d="M657 298c2,1 4,0 5,2 1,2 4,1 5,2 68,13 142,-38 185,-84 41,-42 81,-131 70,-214 -95,-33 -303,138 -265,294z"/>
   <path class="fil1" d="M2856 920l353 1c-3,-233 -340,-226 -353,-1z"/>
   <path class="fil2" d="M1730 396c-93,39 -40,185 63,143 87,-35 38,-185 -63,-143z"/>
  </g>
 </g>
</svg>
