<?xml version="1.0" encoding="UTF-8"?>
<!DOCTYPE svg PUBLIC "-//W3C//DTD SVG 1.1//EN" "http://www.w3.org/Graphics/SVG/1.1/DTD/svg11.dtd">
<!-- Creator: CorelDRAW X8 -->
<svg xmlns="http://www.w3.org/2000/svg" xml:space="preserve" width="100%" height="100%" version="1.1" style="shape-rendering:geometricPrecision; text-rendering:geometricPrecision; image-rendering:optimizeQuality; fill-rule:evenodd; clip-rule:evenodd"
viewBox="0 0 13697 6187"
 xmlns:xlink="http://www.w3.org/1999/xlink">
 <defs>
  <style type="text/css">
   <![CDATA[
    .fil0 {fill:black}
   ]]>
  </style>
 </defs>
 <g id="Слой_x0020_1">
  <metadata id="CorelCorpID_0Corel-Layer"/>
  <path class="fil0" d="M1467 3515l-1463 3 -4 456 13697 0 -9 -456 -264 -1 -931 -3444 -314 -2 -930 3445 -706 2 0 -3445 -449 -2 0 3445 -831 2 -1 -1737 -442 -1 -6 1220c-222,-92 -422,-298 -552,-496 -145,-222 -224,-551 -190,-876 63,-603 474,-1004 968,-1166l0 -462c-167,11 -420,139 -543,214 -87,54 -264,177 -327,244 -138,147 -122,103 -266,318 -411,608 -377,1488 41,2070 192,268 499,498 807,632l70 39 -1956 1 0 -1736 -451 -2 -2 1216c-189,-56 -444,-321 -557,-507 -297,-485 -243,-1190 140,-1609 170,-187 345,-301 646,-420l0 -459c-222,2 -708,286 -867,459 -112,123 -143,118 -270,314 -52,81 -93,153 -136,248 -270,606 -177,1332 179,1825 118,164 224,264 384,386 126,96 276,182 425,245l66 38 -1605 2c-47,-36 -57,-149 -72,-205l-174 -645c-148,-570 -330,-1176 -472,-1739l-175 -645c-16,-61 -26,-180 -75,-213l-273 0c-39,10 -65,170 -74,203l-175 645c-80,288 -155,579 -235,869 -161,576 -320,1156 -468,1730l-713 0 0 -1737 -451 -1 -3 1217c-102,-31 -249,-154 -315,-216 -555,-517 -570,-1368 -103,-1903 171,-196 347,-291 646,-419l1 -456c-149,-5 -435,148 -542,210 -939,550 -1156,1795 -553,2635 158,219 379,405 619,536 62,34 220,100 256,131zm3302 2628c18,18 29,22 73,24 35,1 64,-2 97,-11 24,-73 11,-821 11,-1003 0,-259 26,-262 -81,-265 -160,-3 -111,78 -111,228 0,165 -14,984 11,1027zm705 -1176l0 1130c0,71 9,68 77,68 109,0 557,14 628,-11 19,-54 11,-93 3,-153 -105,-29 -381,2 -511,-11 -15,-122 -3,-667 -3,-862 0,-256 28,-238 -129,-238 -58,0 -65,21 -65,77zm1033 1198l109 -6c23,-41 46,-97 69,-145 78,-170 -54,-131 593,-128l50 0 121 275 174 -2c9,-74 -413,-968 -504,-1171 -101,-225 -114,-123 -266,213l-375 829c-32,71 -83,135 29,135zm306 -438l436 1c-6,-25 -180,-446 -222,-490l-214 489zm1180 424c44,24 138,23 164,-9 28,-41 9,-761 12,-882 47,29 640,754 715,844 188,229 145,-72 145,-243 0,-149 17,-929 -11,-958 -10,-10 -123,-33 -159,9 -32,35 -14,745 -14,857 -60,-40 -629,-723 -711,-814 -26,-28 -49,-84 -99,-84 -72,0 -54,74 -53,133 2,203 -18,1082 11,1147zm-5060 5l173 8c25,-95 107,-766 149,-829 28,122 227,574 294,765 17,49 20,84 77,83 63,-1 60,-64 110,-187 31,-77 58,-151 87,-224l156 -403c6,-11 -3,4 9,-17l11 -16c20,136 46,271 67,408 15,101 44,336 73,411 42,12 149,21 171,-10 12,-26 -190,-1164 -222,-1266l-82 -5 -380 935c-10,-10 2,9 -14,-20l-203 -493c-35,-87 -69,-171 -104,-256 -13,-33 -38,-106 -54,-133 -23,-40 -78,-60 -102,4 -27,70 -222,1197 -216,1245zm7131 -1277c-906,104 -707,1388 114,1300 341,-37 623,-330 584,-713 -35,-337 -328,-630 -698,-587zm-59 194c-221,66 -405,273 -342,563 46,213 277,420 557,350 222,-56 410,-270 348,-561 -44,-211 -290,-433 -563,-352zm-6911 -1560l1236 5 -217 -815 -797 0 -222 810zm8626 5l1235 0 -218 -813 -778 -2c-38,10 -59,138 -73,191 -47,172 -138,479 -166,624zm343 -1273l548 4 -271 -1009 -277 1005zm-8626 4l548 0 -268 -1003 -280 1003z"/>
 </g>
</svg>
