<?xml version="1.0" encoding="UTF-8"?>
<!DOCTYPE svg PUBLIC "-//W3C//DTD SVG 1.1//EN" "http://www.w3.org/Graphics/SVG/1.1/DTD/svg11.dtd">
<!-- Creator: CorelDRAW X8 -->
<svg xmlns="http://www.w3.org/2000/svg" xml:space="preserve" width="100%" height="100%" version="1.1" style="shape-rendering:geometricPrecision; text-rendering:geometricPrecision; image-rendering:optimizeQuality; fill-rule:evenodd; clip-rule:evenodd"
viewBox="0 0 7394 1201"
 xmlns:xlink="http://www.w3.org/1999/xlink">
 <defs>
  <style type="text/css">
   <![CDATA[
    .fil1 {fill:#666666}
    .fil0 {fill:#FA0A0B}
   ]]>
  </style>
 </defs>
 <g id="Слой_x0020_1">
  <metadata id="CorelCorpID_0Corel-Layer"/>
  <g id="_2263715923808">
   <path class="fil0" d="M2822 500c-130,17 -199,70 -210,201 -8,92 -12,307 23,380 46,96 163,114 297,114 280,-1 592,61 616,-204 8,-88 10,-315 -23,-382 -49,-98 -159,-114 -298,-114 -120,0 -294,-9 -405,5zm4361 687l211 0 -1 -683 -209 -2 -1 685zm-6180 1l212 0 0 -686 -211 0 -1 686zm4631 -3l681 3 0 -178 -470 0 -1 -503c-34,-11 -171,-9 -210,-2l0 680zm768 3l681 0 0 -176c-107,-15 -394,16 -468,-7l-1 -503 -211 0 -1 686zm-1656 0l761 0 0 -164 -547 -2 -1 -108 508 0 1 -144 -509 0 0 -108 536 0 1 -160 -749 0 -1 686zm-1070 -3l209 3 1 -492c9,0 224,277 243,302 17,22 35,42 52,64 16,21 30,39 48,60 13,17 39,46 47,65l329 1 0 -686 -209 1 -1 489c-20,-17 -35,-34 -52,-57l-148 -189c-35,-43 -66,-81 -99,-124 -17,-21 -33,-42 -48,-61 -15,-19 -35,-50 -58,-59l-314 0 0 683zm-3035 -235c25,115 -68,91 -207,91 -49,0 -103,2 -151,0 -44,-2 -56,-11 -67,-46l-12 -32 -203 0c-10,274 151,232 462,232 251,0 446,26 396,-289 -18,-110 -91,-130 -209,-140 -197,-15 -468,37 -435,-78 13,-45 78,-39 133,-38 193,0 266,-28 279,70l207 -1c9,-218 -106,-224 -306,-224 -347,1 -560,-53 -524,281 10,90 52,118 139,134 124,22 416,-14 498,40zm725 237l205 1 0 -483c27,32 48,75 70,118l203 364 159 0c46,-69 93,-160 135,-239l116 -208c8,-14 -2,0 9,-13 1,-2 2,-3 3,-5l13 463 207 3 0 -686 -326 0c-27,53 -217,419 -236,431l-234 -431 -322 0 -2 685zm1462 -381c0,244 -10,212 370,212 146,0 136,-62 135,-197 0,-186 -95,-149 -379,-149 -95,0 -126,39 -126,134z"/>
   <path class="fil1" d="M1231 7c-61,8 -106,20 -122,78 -12,44 -12,137 3,180 17,52 55,66 121,73 95,10 278,23 303,-86 10,-44 11,-133 -5,-175 -20,-50 -56,-65 -121,-72 -59,-6 -123,-5 -179,2zm522 330l109 1 164 -331c-112,-2 -69,-20 -148,141 -24,49 -49,100 -69,146 -39,-46 -103,-229 -144,-286l-75 -3 163 332zm-848 -39c1,3 2,18 2,19 1,2 1,4 2,5l5 11c0,1 1,4 2,5l69 -1 0 -327 -78 -5c-1,224 38,290 -128,294 -79,2 -127,6 -131,-75 -3,-71 1,-145 0,-216l-76 -2c1,89 -24,264 43,309 70,46 244,38 290,-17zm-792 -259c-2,-2 -3,-8 -4,-6 0,1 -2,-5 -3,-6 -14,-21 -8,-18 -25,-22 -6,-1 -48,0 -57,0l0 333 77 -1c1,-67 -4,-144 0,-208 6,-76 60,-83 131,-85 77,-3 132,-4 134,78 2,69 0,143 -1,213l78 4c0,-59 0,-116 0,-174 0,-63 4,-109 -43,-139 -50,-32 -256,-42 -287,13zm1971 60l70 2c2,-2 3,-6 3,-5 6,16 5,-8 6,-9 5,-9 1,-8 10,-18 10,-14 19,-17 38,-21 28,-5 73,-5 102,-4 104,3 111,8 111,110 -63,-27 -353,-68 -354,84 -2,153 300,108 344,72 31,33 -19,28 86,28 -1,-215 32,-306 -95,-329 -53,-10 -148,-10 -202,-5 -77,7 -114,20 -119,95zm103 87c-65,22 -46,98 10,110 36,7 148,5 183,-6 59,-19 59,-93 -5,-107 -43,-9 -151,-10 -188,3zm-927 -140c-44,5 -68,16 -76,56 -7,31 -6,103 -1,135 7,45 26,55 71,60 37,4 101,4 138,0 46,-6 62,-18 68,-61 5,-34 6,-99 -1,-132 -8,-45 -22,-52 -70,-58 -42,-4 -89,-4 -129,0z"/>
  </g>
 </g>
</svg>
