<?xml version="1.0" encoding="UTF-8"?>
<!DOCTYPE svg PUBLIC "-//W3C//DTD SVG 1.1//EN" "http://www.w3.org/Graphics/SVG/1.1/DTD/svg11.dtd">
<!-- Creator: CorelDRAW X8 -->
<svg xmlns="http://www.w3.org/2000/svg" xml:space="preserve" width="100%" height="100%" version="1.1" style="shape-rendering:geometricPrecision; text-rendering:geometricPrecision; image-rendering:optimizeQuality; fill-rule:evenodd; clip-rule:evenodd"
viewBox="0 0 4085 4584"
 xmlns:xlink="http://www.w3.org/1999/xlink">
 <defs>
  <style type="text/css">
   <![CDATA[
    .fil0 {fill:#FEFEFE}
   ]]>
  </style>
 </defs>
 <g id="Слой_x0020_1">
  <metadata id="CorelCorpID_0Corel-Layer"/>
  <path class="fil0" d="M158 0l824 0 652 1177 597 -911 569 912 709 -1178 576 0 -1437 2510 -624 -980 -607 994 -1417 -2524 158 0zm2573 2640l379 -637 770 0 0 717 -434 0 0 358 394 0 0 371 -394 0 0 1135 -717 0 0 -1940 2 -4zm-245 1944l-724 0 0 -1649 -539 983 -529 -982 0 1648 -411 0 0 -2581 652 0 486 855 601 -975c159,253 318,507 477,761l0 1921 19 19 -32 0z"/>
 </g>
</svg>
