<?xml version="1.0" encoding="UTF-8"?>
<!DOCTYPE svg PUBLIC "-//W3C//DTD SVG 1.1//EN" "http://www.w3.org/Graphics/SVG/1.1/DTD/svg11.dtd">
<!-- Creator: CorelDRAW X8 -->
<svg xmlns="http://www.w3.org/2000/svg" xml:space="preserve" width="100%" height="100%" version="1.1" style="shape-rendering:geometricPrecision; text-rendering:geometricPrecision; image-rendering:optimizeQuality; fill-rule:evenodd; clip-rule:evenodd"
viewBox="0 0 12926 2842"
 xmlns:xlink="http://www.w3.org/1999/xlink">
 <defs>
  <style type="text/css">
   <![CDATA[
    .fil0 {fill:#FEFEFE}
   ]]>
  </style>
 </defs>
 <g id="Слой_x0020_1">
  <metadata id="CorelCorpID_0Corel-Layer"/>
  <g>
   <path class="fil0" d="M0 2792l552 0 0 -1277 8 0 989 1277 721 0 -1178 -1454 1131 -1297 -678 0 -993 1183 0 -1183 -552 0 0 2751 0 0zm4105 -1105c358,-99 659,-410 659,-800 0,-469 -378,-848 -847,-848l-1163 0 0 2751 552 0 0 -1277 997 1277 722 0 -920 -1103zm-353 -324l-447 0 1 -891 449 0c246,0 442,200 442,446 0,246 -199,445 -445,445zm5944 -1324l-1158 0 0 2751 552 0 3 -1054 601 0c469,0 849,-380 849,-849 0,-469 -379,-848 -847,-848zm-160 1324l-445 0 -1 -891 444 3c250,0 452,203 452,454 0,250 -200,434 -450,434l0 0zm-2374 511c0,304 -247,551 -552,551 -304,0 -550,-247 -550,-551l0 -1835 -551 0 0 1758c0,737 409,1040 1101,1040 692,0 1102,-303 1102,-1040l0 -1758 -551 0 1 1835 0 0zm5572 -1782c-201,-67 -391,-92 -627,-92 -484,0 -960,224 -960,838 0,909 1204,693 1204,1216 0,248 -279,355 -488,355 -216,0 -508,-58 -727,-148l0 453c268,86 460,128 759,128 555,0 1031,-229 1031,-831 0,-921 -1205,-720 -1205,-1196 0,-300 244,-382 433,-382 193,0 407,48 580,123l0 -464 0 0zm0 0l0 0 0 0z"/>
  </g>
 </g>
</svg>
