<?xml version="1.0" encoding="UTF-8"?>
<!DOCTYPE svg PUBLIC "-//W3C//DTD SVG 1.1//EN" "http://www.w3.org/Graphics/SVG/1.1/DTD/svg11.dtd">
<!-- Creator: CorelDRAW X8 -->
<svg xmlns="http://www.w3.org/2000/svg" xml:space="preserve" width="100%" height="100%" version="1.1" style="shape-rendering:geometricPrecision; text-rendering:geometricPrecision; image-rendering:optimizeQuality; fill-rule:evenodd; clip-rule:evenodd"
viewBox="0 0 5729 5729"
 xmlns:xlink="http://www.w3.org/1999/xlink">
 <defs>
  <style type="text/css">
   <![CDATA[
    .fil0 {fill:none}
    .fil1 {fill:#673B14}
   ]]>
  </style>
 </defs>
 <g id="Слой_x0020_1">
  <metadata id="CorelCorpID_0Corel-Layer"/>
  <rect class="fil0" width="5729" height="5729"/>
  <path class="fil1" d="M5004 2420l0 -124c0,-88 -36,-169 -94,-227 -58,-58 -139,-94 -227,-94l-1137 0c-10,0 -19,-9 -19,-19l0 -569c0,-26 -10,-49 -27,-66 -18,-18 -41,-28 -67,-28l0 0 -341 0c-11,0 -19,-9 -19,-19l0 0 0 -341c0,-26 -11,-50 -28,-67 -17,-17 -41,-28 -67,-28l0 0 -1543 0c-6,0 -10,-2 -14,-5l0 0 -194 -194c-18,-19 -43,-28 -67,-28 -24,0 -48,9 -67,28l0 0 -648 648c-4,4 -10,6 -15,6l-179 0c-26,0 -50,10 -67,27l0 1 0 0c-17,17 -27,40 -27,66l0 3182c0,26 10,50 27,67 17,17 41,28 67,28l466 0c10,0 18,7 19,16 8,40 21,78 37,114 17,37 38,72 62,104 6,9 4,21 -4,27 -3,3 -7,4 -11,4l0 0 -228 0c-26,0 -50,10 -67,28 -17,17 -27,40 -27,66 0,27 10,50 27,67 17,17 41,28 67,28l0 0 681 0c0,0 1,0 2,0l0 0 0 0c131,0 251,-47 346,-124 96,-79 165,-189 191,-315 2,-9 10,-16 19,-15l1602 0 0 0 466 0c10,0 18,7 19,16 8,40 20,78 37,114 16,37 37,72 61,104 7,9 5,21 -3,27 -4,3 -8,4 -12,4l0 0 -227 0c-26,0 -50,11 -67,28 -17,17 -28,40 -28,66 0,27 11,50 28,67 17,17 41,28 67,28l0 0 680 0c1,0 2,0 2,0l0 0 1 0c131,0 251,-47 345,-124 97,-79 166,-189 191,-315 2,-9 10,-15 19,-15l0 0 466 0c26,0 50,-11 67,-28 17,-17 28,-41 28,-67l0 -1477c0,-163 -59,-312 -157,-427 -99,-117 -238,-200 -396,-227 -9,-1 -15,-9 -15,-18l-1 0zm-3730 2698l-1 0 1 0zm3181 0l0 0 0 0zm-2353 -2954l71 0c26,0 50,-11 67,-28 17,-17 27,-41 27,-67 0,-26 -10,-50 -27,-67 -17,-17 -41,-27 -67,-27l-71 0c-26,0 -50,10 -67,27 -17,17 -28,41 -28,67l0 0c0,26 11,50 28,67 17,17 41,28 67,28zm0 2045l71 0c26,0 50,-11 67,-28 17,-17 27,-40 27,-67 0,-26 -10,-49 -27,-66 -17,-18 -41,-28 -67,-28l0 0 -71 0 0 0c-26,0 -50,10 -67,28 -17,17 -28,40 -28,66 0,27 11,50 28,67 17,17 41,28 67,28zm782 -3162l0 227c0,10 -9,19 -19,19l-976 0c-5,0 -10,-2 -14,-6l-227 -227c-7,-7 -7,-19 0,-27 4,-4 9,-5 14,-5l1203 -1c10,0 19,9 19,20zm-1710 -194l407 407c8,8 8,20 0,27 -4,4 -10,6 -15,6l-813 0c-11,0 -19,-9 -19,-19 0,-5 2,-10 5,-14l0 0 408 -407c7,-8 19,-8 27,0zm100 4076c-99,0 -189,-40 -255,-106 -65,-65 -105,-155 -105,-254 0,-99 40,-189 105,-254 66,-66 156,-106 255,-106 99,0 189,40 254,106 65,65 106,155 106,254l0 0c0,99 -41,189 -106,254 -65,66 -155,106 -254,106zm2064 -2860l0 1932c0,10 -8,19 -19,19 0,0 -1,0 -2,0l-771 0 0 0c-26,0 -49,10 -67,28 -17,17 -27,40 -27,66 0,27 10,50 27,67 18,17 41,28 67,28l0 0 773 0c11,0 19,9 19,19l0 0 0 227c0,11 -8,19 -19,19l-1488 0c-10,0 -18,-7 -19,-16 -26,-126 -95,-236 -191,-315 -95,-77 -216,-123 -347,-123 -132,0 -252,46 -347,123 -96,79 -166,190 -191,316 -2,9 -10,15 -19,15l0 0 -352 0c-11,0 -19,-8 -19,-19l0 -1818c0,-10 8,-19 19,-19l454 0c26,0 50,-10 67,-27 17,-18 28,-41 28,-67 0,-26 -11,-50 -28,-67 -17,-17 -41,-28 -67,-28l-454 0c-11,0 -19,-8 -19,-19l0 -227c0,-11 8,-19 19,-19l1363 0c26,0 50,-11 67,-28 17,-17 28,-41 28,-67 0,-26 -11,-50 -28,-67 -17,-17 -41,-27 -67,-27l0 0 -1363 0c-11,0 -19,-9 -19,-19l0 0 0 -455c0,-11 8,-19 19,-19 0,0 1,0 2,0l111 0 0 0 2841 0c11,0 19,8 19,19l0 568zm561 2405l-353 0c-10,0 -19,-8 -19,-19l0 -227c0,-10 9,-19 19,-19l455 0c11,0 19,9 19,19 0,5 -2,9 -5,13 -23,32 -44,66 -60,103 -17,37 -29,75 -38,115 -1,9 -9,15 -18,15l0 0zm916 96c0,99 -40,189 -105,253 -66,66 -155,106 -255,106 -99,0 -189,-40 -254,-106 -65,-65 -106,-155 -106,-254 0,-99 41,-189 106,-254 65,-65 154,-106 254,-106l0 0 0 0c1,0 2,0 2,0 99,1 188,41 253,105 65,66 105,155 105,255l0 1zm549 -96l-352 0c-10,0 -18,-7 -19,-16 -26,-126 -95,-236 -191,-315 -94,-77 -215,-123 -347,-123l-1 0 -908 0c-10,0 -19,-9 -19,-19l0 0 0 -1818c0,-11 9,-19 19,-19l1137 0c36,0 69,15 93,39 24,24 39,57 39,93l0 114c0,11 -8,19 -19,19 0,0 -1,0 -1,0l-794 0 0 0c-26,0 -50,11 -67,28 -17,17 -28,41 -28,67l0 1022c0,26 11,50 28,67 17,17 41,28 67,28l1363 0c11,0 19,8 19,19l0 795c0,11 -8,19 -19,19zm-1003 -1837l0 796c0,10 -9,19 -19,19 -1,0 -1,0 -2,0l-225 0c-11,0 -19,-9 -19,-19l-1 0 0 -796c0,-10 9,-19 20,-19 0,0 1,0 1,0l226 0c10,0 19,9 19,19l0 0zm1003 815l-795 0c-10,0 -19,-9 -19,-19l0 -796c0,-10 9,-19 19,-19 1,0 1,0 2,0l339 0 0 0c130,0 249,53 335,139 85,86 138,204 138,335l0 0 0 341c0,10 -8,19 -19,19l0 0z"/>
 </g>
</svg>
