<?xml version="1.0" encoding="UTF-8"?>
<!DOCTYPE svg PUBLIC "-//W3C//DTD SVG 1.1//EN" "http://www.w3.org/Graphics/SVG/1.1/DTD/svg11.dtd">
<!-- Creator: CorelDRAW X8 -->
<svg xmlns="http://www.w3.org/2000/svg" xml:space="preserve" width="100%" height="100%" version="1.1" style="shape-rendering:geometricPrecision; text-rendering:geometricPrecision; image-rendering:optimizeQuality; fill-rule:evenodd; clip-rule:evenodd"
viewBox="0 0 5729 5729"
 xmlns:xlink="http://www.w3.org/1999/xlink">
 <defs>
  <style type="text/css">
   <![CDATA[
    .fil0 {fill:none}
    .fil1 {fill:#673B14}
   ]]>
  </style>
 </defs>
 <g id="Слой_x0020_1">
  <metadata id="CorelCorpID_0Corel-Layer"/>
  <rect class="fil0" width="5729" height="5729"/>
  <path class="fil1" d="M4748 809c-533,0 -1055,-101 -1551,-299l-28 -11 -28 11c-496,198 -1018,299 -1552,299l-169 0 0 1597 -381 0c-125,0 -228,102 -228,228l0 1293c0,126 103,228 228,228l685 0c0,0 0,0 0,0 180,285 429,521 726,683l719 392 719 -392c635,-347 1030,-1011 1030,-1735l0 -2294 -170 0zm-3632 3042l532 0 0 -152 -532 0 0 152zm3346 -2053l152 0 0 -153 -152 0 0 153zm-3499 2129l0 -1293c0,-42 34,-76 76,-76l685 0c42,0 76,34 76,76l0 1293c0,42 -34,76 -76,76l-685 0c-42,0 -76,-34 -76,-76zm989 -1141c254,-14 456,-225 456,-482l0 -392c0,-105 86,-190 190,-190 105,0 191,85 191,190l0 478c0,135 109,244 243,244l558 0c145,0 263,118 263,263l0 843c0,145 -118,263 -263,263l-1121 0c-60,0 -116,-30 -149,-80 -62,-93 -166,-148 -277,-148l-91 0 0 -989 0 0zm2814 317c0,668 -364,1282 -951,1601l-646 353 -647 -353c-264,-144 -488,-352 -652,-603 46,-39 76,-95 81,-159 153,265 374,481 644,629l574 313 573 -313c538,-293 872,-856 872,-1468l0 -1153 -152 0 0 1153c0,557 -304,1068 -792,1334l-501 274 -501 -274c-214,-117 -394,-282 -530,-482 22,14 41,31 55,52 62,93 165,148 276,148l1121 0c229,0 415,-186 415,-415l0 -843c0,-229 -186,-415 -415,-415l-558 0c-50,0 -91,-41 -91,-92l0 -478c0,-189 -154,-343 -343,-343 -188,0 -342,154 -342,343l0 391c0,174 -134,315 -304,328 -1,-66 -30,-125 -76,-166l0 -1209c442,-27 876,-117 1293,-268 416,151 851,241 1293,268l0 85 152 0 0 -229 -73 -4c-460,-21 -913,-112 -1346,-273l-26 -9 -27 9c-432,160 -885,252 -1346,273l-72 4 0 1294 -152 0 0 -1445 17 0c543,0 1075,-100 1580,-298 505,198 1036,298 1579,298l18 0 0 2142 0 0z"/>
 </g>
</svg>
