<?xml version="1.0" encoding="UTF-8"?>
<!DOCTYPE svg PUBLIC "-//W3C//DTD SVG 1.1//EN" "http://www.w3.org/Graphics/SVG/1.1/DTD/svg11.dtd">
<!-- Creator: CorelDRAW X8 -->
<svg xmlns="http://www.w3.org/2000/svg" xml:space="preserve" width="100%" height="100%" version="1.1" style="shape-rendering:geometricPrecision; text-rendering:geometricPrecision; image-rendering:optimizeQuality; fill-rule:evenodd; clip-rule:evenodd"
viewBox="0 0 5729 5729"
 xmlns:xlink="http://www.w3.org/1999/xlink">
 <defs>
  <style type="text/css">
   <![CDATA[
    .fil0 {fill:none}
    .fil1 {fill:#673B14}
   ]]>
  </style>
 </defs>
 <g id="Слой_x0020_1">
  <metadata id="CorelCorpID_0Corel-Layer"/>
  <rect class="fil0" width="5729" height="5729"/>
  <path class="fil1" d="M3238 2865c50,-108 79,-226 83,-351 197,-208 307,-480 307,-768l0 -331c0,-194 -145,-354 -331,-379 -160,-328 -493,-537 -861,-537l-128 0c-249,0 -493,84 -689,236 -275,214 -433,537 -433,886l0 125c0,288 109,560 307,768 9,293 157,551 380,711l0 189 -597 132c-458,102 -777,500 -777,969l0 715 2595 0 76 0 2060 0 0 -2365 -1992 0zm-1594 -597l188 0 0 -123 461 0 0 123 240 0 0 -123 460 0 0 123 177 0 0 -466c-488,193 -1002,294 -1526,299l0 167zm188 47l-188 0 0 168c0,421 342,763 763,763 421,0 763,-342 763,-763l0 -168 -177 0 0 154 -460 0 0 -154 -240 0 0 154 -461 0 0 -154zm50 -121l362 0 0 227 -362 0 0 -227zm700 0l362 0 0 227 -362 0 0 -227zm1580 2426l763 0 0 -153 -763 0 0 153zm0 305l458 0 0 -153 -458 0 0 153zm610 0l153 0 0 -153 -153 0 0 153zm-3281 -2976l0 318c-99,-154 -153,-333 -153,-521l0 -125c0,-302 137,-580 375,-765 169,-132 380,-204 595,-204l128 0c323,0 613,191 740,487l20 47 50 0c126,0 229,102 229,229l0 331c0,188 -54,367 -153,521l0 -623 -167 0 -26 10c-489,196 -1004,295 -1531,295l-107 0zm-229 2823l0 306 -610 0 0 -563c0,-397 270,-733 657,-819l182 -41 0 1117 -76 0 -77 0 -76 0zm1832 306l-1679 0 0 -153 229 0 0 -1304 229 -51 0 1355 1068 0 0 -1355 153 34 0 1474zm-687 -992c149,0 284,-62 381,-161l0 847 -763 0 0 -847c97,99 232,161 382,161zm-382 -535l0 -15 0 -61 0 -161c116,54 245,85 382,85 136,0 265,-31 381,-85l0 161 0 61 0 15c0,211 -171,382 -381,382 -211,0 -382,-171 -382,-382zm1069 -103l-153 -34 0 -189c56,-40 107,-87 153,-138l0 361zm915 -431l306 0 0 611 -306 0 0 -611zm1069 2061l-1832 0 0 -2061 611 0 0 763 610 0 0 -763 611 0 0 2061z"/>
 </g>
</svg>
