<?xml version="1.0" encoding="UTF-8"?>
<!DOCTYPE svg PUBLIC "-//W3C//DTD SVG 1.1//EN" "http://www.w3.org/Graphics/SVG/1.1/DTD/svg11.dtd">
<!-- Creator: CorelDRAW X8 -->
<svg xmlns="http://www.w3.org/2000/svg" xml:space="preserve" width="100%" height="100%" version="1.1" style="shape-rendering:geometricPrecision; text-rendering:geometricPrecision; image-rendering:optimizeQuality; fill-rule:evenodd; clip-rule:evenodd"
viewBox="0 0 5729 5729"
 xmlns:xlink="http://www.w3.org/1999/xlink">
 <defs>
  <style type="text/css">
   <![CDATA[
    .fil0 {fill:none}
    .fil1 {fill:#673B14}
   ]]>
  </style>
 </defs>
 <g id="Слой_x0020_1">
  <metadata id="CorelCorpID_0Corel-Layer"/>
  <rect class="fil0" width="5729" height="5729"/>
  <path class="fil1" d="M2765 3537l199 0c41,0 75,-33 75,-75 0,-41 -34,-74 -75,-74l-199 0c-41,0 -75,33 -75,74 0,42 34,75 75,75zm2291 -2739l-1220 0 0 -125c0,-96 -78,-174 -175,-174l-1593 0c-96,0 -175,78 -175,174l0 125 -1220 0c-96,0 -174,78 -174,174l0 2689c0,97 78,175 174,175l1619 0 0 124c0,96 78,175 174,175l125 0 0 547 -324 0c-96,0 -174,79 -174,175l0 224 -224 0c-42,0 -75,33 -75,75 0,41 33,74 75,74l1095 0c41,0 75,-33 75,-74 0,-42 -34,-75 -75,-75l-722 0 0 -224c0,-14 11,-25 25,-25l1195 0c14,0 25,11 25,25l0 224 -224 0c-41,0 -75,33 -75,75 0,41 34,74 75,74l598 0c41,0 74,-33 74,-74 0,-42 -33,-75 -74,-75l-224 0 0 -224c0,-96 -79,-175 -175,-175l-323 0 0 -547 124 0c96,0 174,-79 174,-175l0 -124 1619 0c96,0 174,-78 174,-175l0 -2689c0,-96 -78,-174 -174,-174zm-2067 3884l-249 0 0 -547 249 0 0 547zm2092 -1021c0,14 -11,25 -25,25l-1893 0c-41,0 -74,34 -74,75 0,41 33,75 74,75l125 0 0 124c0,14 -11,25 -25,25l-199 0 -598 0c-14,0 -25,-11 -25,-25l0 -124 424 0c41,0 74,-34 74,-75 0,-41 -33,-75 -74,-75l-2192 0c-13,0 -25,-11 -25,-25l0 -423 4433 0 0 423 0 0zm0 -572l-4433 0 0 -947 577 0 134 269c21,42 64,68 111,68 48,0 90,-26 111,-69l134 -268 381 0c38,391 368,698 769,698 400,0 730,-307 768,-698l427 0c28,0 54,-16 67,-41l132 -265 133 265c12,25 38,41 66,41l623 0 0 947zm-2839 -1021c0,-344 279,-623 623,-623 343,0 622,279 622,623 0,343 -279,622 -622,622 -344,0 -623,-279 -623,-622zm2839 -75l-576 0 -135 -268c-21,-42 -63,-69 -111,-69 -47,0 -90,27 -111,69l-134 268 -381 0c-38,-391 -368,-697 -768,-697 -401,0 -731,306 -769,697l-427 0c-28,0 -54,16 -67,41l-132 265 -132 -265c-13,-25 -39,-41 -67,-41l-623 0 0 -1021c0,-14 11,-25 25,-25l2490 0c42,0 75,-33 75,-75 0,-41 -33,-74 -75,-74l-1120 0 0 -125c0,-14 11,-25 25,-25l1593 0c14,0 25,11 25,25l0 125 -224 0c-41,0 -74,33 -74,74 0,42 33,75 74,75l1594 0c14,0 25,11 25,25l0 1021zm-2814 1544l199 0c41,0 75,-33 75,-75 0,-41 -34,-74 -75,-74l-199 0c-41,0 -75,33 -75,74 0,42 34,75 75,75zm486 -1129c14,21 37,33 62,33 1,0 3,0 4,0 27,-2 51,-17 63,-41l298 -598c19,-37 4,-81 -33,-100 -37,-18 -82,-3 -100,33l-241 483 -128 -192c-23,-34 -70,-43 -104,-20 -34,22 -43,69 -21,103l200 299zm510 1129l199 0c42,0 75,-33 75,-75 0,-41 -33,-74 -75,-74l-199 0c-41,0 -75,33 -75,74 0,42 34,75 75,75z"/>
 </g>
</svg>
